<?xml version="1.0" encoding="UTF-8"?>
<svg version="1.1" xmlns="http://www.w3.org/2000/svg" width="900" height="900">
<path d="M0 0 C297 0 594 0 900 0 C900 297 900 594 900 900 C603 900 306 900 0 900 C0 603 0 306 0 0 Z " fill="#13294A" transform="translate(0,0)"/>
<path d="M0 0 C3.74056124 0.01074172 7.48064448 0.0000393 11.22119141 -0.01269531 C23.20287023 -0.0196647 34.7911982 0.17721296 46.61572266 2.26074219 C48.1956109 2.48041896 49.7762649 2.69472007 51.35791016 2.90136719 C69.79961171 5.55274399 88.12515337 9.801035 105.61572266 16.26074219 C106.21465332 16.48125244 106.81358398 16.7017627 107.43066406 16.92895508 C148.06512443 32.0076318 184.40335291 53.17199617 216.61572266 82.26074219 C217.53224609 83.07414062 218.44876953 83.88753906 219.39306641 84.72558594 C220.37404297 85.6034375 221.35501953 86.48128906 222.36572266 87.38574219 C223.26806641 88.19269531 224.17041016 88.99964844 225.10009766 89.83105469 C227.522975 92.17116293 229.55582322 94.60151856 231.61572266 97.26074219 C233.80676644 99.5126483 236.03278814 101.71507289 238.32666016 103.86230469 C244.8231668 110.09364779 250.19755367 117.10036115 255.61572266 124.26074219 C256.08977539 124.88464844 256.56382812 125.50855469 257.05224609 126.15136719 C263.42979871 134.57931386 269.22893402 143.16041589 274.61572266 152.26074219 C275.06802246 153.00485352 275.52032227 153.74896484 275.98632812 154.515625 C291.01156133 179.28185481 304.40771136 204.7835478 298.12744141 234.57714844 C295.07603442 246.23988801 288.54251518 256.32134543 280.61572266 265.26074219 C279.78621094 266.21400391 279.78621094 266.21400391 278.93994141 267.18652344 C268.96213737 277.92635546 253.18781677 286.15612108 238.51234005 287.44555156 C236.38313376 287.51662415 234.26228874 287.52993956 232.13194084 287.51801109 C231.32407269 287.52151717 230.51620454 287.52502324 229.68385553 287.52863556 C226.98967782 287.53790415 224.29571842 287.53303803 221.60153198 287.52816772 C219.64517292 287.53190628 217.68881535 287.53650862 215.73246014 287.54189837 C210.36598876 287.55411851 204.99957977 287.55386905 199.63309765 287.55150962 C193.84149403 287.5511012 188.04991035 287.56214303 182.25831604 287.57162476 C170.91460361 287.58823063 159.57091196 287.59373413 148.22718839 287.59484951 C139.00460661 287.59580024 129.78203167 287.59991176 120.55945206 287.60625076 C117.90241055 287.60803983 115.24536904 287.60982306 112.58832753 287.61160052 C111.92772958 287.61204261 111.26713163 287.61248471 110.58651557 287.6129402 C92.00994247 287.62524523 73.43337171 287.63314169 54.85679436 287.63225365 C54.15670815 287.63222249 53.45662195 287.63219133 52.73532102 287.63215923 C49.18719698 287.63199302 45.63907295 287.63179494 42.09094892 287.63158982 C41.03399294 287.63152998 41.03399294 287.63152998 39.95568431 287.63146893 C38.53073581 287.63138806 37.10578731 287.63130446 35.68083882 287.63121815 C13.5188077 287.62999308 -8.64316218 287.64499921 -30.80517578 287.67236328 C-55.71956695 287.70311331 -80.63391789 287.72029399 -105.54832923 287.71843684 C-118.73403129 287.71777326 -131.91966429 287.72325129 -145.10535049 287.74479294 C-156.33293974 287.76301823 -167.56042864 287.76734097 -178.78802629 287.75377409 C-184.51342074 287.74725116 -190.23862274 287.74710304 -195.96399879 287.76448059 C-201.21234158 287.780246 -206.46033986 287.77731209 -211.70867442 287.75991233 C-213.60031676 287.75685008 -215.49198505 287.76044536 -217.38359679 287.77163248 C-239.89839695 287.89589404 -256.82782392 282.29054259 -273.44677734 266.63574219 C-278.84224784 261.12279644 -282.70236755 255.00948636 -286.38427734 248.26074219 C-286.80580078 247.48988281 -287.22732422 246.71902344 -287.66162109 245.92480469 C-295.1998742 230.62072857 -295.307004 212.32612715 -290.38427734 196.26074219 C-285.56811166 182.52087369 -278.67906136 169.81669739 -271.38427734 157.26074219 C-270.85084717 156.33720947 -270.85084717 156.33720947 -270.30664062 155.39501953 C-262.49704546 141.97993097 -253.33709446 129.16620723 -243.38427734 117.26074219 C-242.52352608 116.21392818 -241.66285415 115.16704893 -240.80224609 114.12011719 C-235.66592731 107.91879695 -230.38295635 102.06672001 -224.57568359 96.47949219 C-222.32106032 94.27426333 -222.32106032 94.27426333 -220.31787109 91.67480469 C-218.60912252 89.54145799 -216.96942938 87.88251429 -214.88427734 86.13574219 C-211.91977888 83.60961688 -209.03972962 81.01852873 -206.19970703 78.35302734 C-191.16733582 64.3023022 -174.01214013 52.79226021 -156.38427734 42.26074219 C-155.48193359 41.70128906 -154.57958984 41.14183594 -153.64990234 40.56542969 C-119.65776977 19.92049041 -80.50363673 8.04795121 -41.38427734 2.26074219 C-39.58434326 1.9781958 -39.58434326 1.9781958 -37.74804688 1.68994141 C-25.18966262 -0.0597556 -12.66257696 -0.04325673 0 0 Z " fill="#FE5E05" transform="translate(449.38427734375,128.7392578125)"/>
<path d="M0 0 C1.97147429 -0.00417844 3.94294617 -0.00965875 5.91441363 -0.01631981 C11.30415292 -0.03072616 16.69373867 -0.02654474 22.0834862 -0.019153 C27.90708183 -0.01441169 33.7306447 -0.02693972 39.55422974 -0.03717041 C50.95255266 -0.05434506 62.35082043 -0.05520115 73.74915294 -0.04995751 C83.01644626 -0.04591197 92.28372331 -0.04736393 101.55101585 -0.05270576 C102.88459337 -0.05346265 104.21817088 -0.05421863 105.55174839 -0.05497371 C107.56156411 -0.05611896 109.57137982 -0.05726884 111.58119552 -0.05843295 C130.25637332 -0.06913137 148.93154511 -0.07387001 167.60672474 -0.06596279 C168.31007024 -0.06566562 169.01341574 -0.06536844 169.73807474 -0.06506227 C175.44899701 -0.06261356 181.1599192 -0.06000186 186.87084139 -0.05737813 C209.14094826 -0.04727808 231.4109797 -0.05562919 253.68107605 -0.07887268 C278.72845268 -0.10497284 303.77578392 -0.11778581 328.82317466 -0.11068493 C331.49638123 -0.10996892 334.16958782 -0.10929453 336.84279442 -0.10864449 C338.15795289 -0.10832237 339.47311137 -0.10800026 340.82812313 -0.10766838 C350.07864602 -0.10636916 359.3291312 -0.11470203 368.57964516 -0.12693596 C379.86127879 -0.14167138 391.14280692 -0.14227579 402.42443851 -0.12486505 C408.17630895 -0.11636369 413.92799101 -0.11418455 419.67985153 -0.1295166 C424.95338163 -0.14339917 430.2265626 -0.13855455 435.50007268 -0.11927737 C437.39968602 -0.115528 439.29932757 -0.11840835 441.1989157 -0.12888902 C462.66465505 -0.23882648 480.98671167 4.10158255 496.73747253 19.62986755 C509.23476285 32.58594239 514.97025141 47.63729455 514.81486511 65.60594177 C514.25988125 82.27646662 506.93572912 97.94818755 494.96427917 109.44700623 C486.0668711 117.55651382 473.39355171 125.09913984 461.10952789 125.69938546 C460.27734912 125.74067017 459.44517035 125.78195489 458.58777405 125.82449065 C457.25012335 125.88257016 457.25012335 125.88257016 455.88544941 125.94182301 C454.48304437 126.00500622 454.48304437 126.00500622 453.05230792 126.06946586 C443.56424516 126.46829127 434.08747028 126.53049132 424.59249878 126.52139282 C422.69661868 126.5232673 420.80073896 126.5255705 418.90485984 126.52825814 C413.76127073 126.53430315 408.61769804 126.53425132 403.47410619 126.53306377 C397.90151754 126.53285791 392.32893391 126.53839576 386.75634766 126.54312134 C375.8671422 126.5513864 364.97794215 126.55417422 354.08873381 126.55473372 C345.23544307 126.55521051 336.38215409 126.55727333 327.52886391 126.56043434 C306.47074614 126.56779932 285.41262945 126.57396048 264.35451031 126.57343578 C263.68295014 126.5734202 263.01138997 126.57340463 262.31947949 126.57338858 C258.91647468 126.57330548 255.51346988 126.57320644 252.11046507 126.57310387 C251.434727 126.57308392 250.75898893 126.57306398 250.06277394 126.57304343 C248.6962749 126.57300299 247.32977585 126.57296119 245.9632768 126.57291804 C224.68544655 126.57230479 203.40763222 126.57982569 182.12980652 126.5934906 C158.17522285 126.60886856 134.22065115 126.61744327 110.26606113 126.61652738 C97.59975733 126.61619587 84.93347152 126.61892314 72.26717186 126.62970543 C61.49080969 126.63882089 50.71447366 126.64097678 39.9381093 126.63419601 C34.44546514 126.63093715 28.95287113 126.63085139 23.46023178 126.63954926 C18.42396747 126.6474423 13.38779284 126.64595436 8.35153065 126.63726512 C6.53829173 126.63573639 4.72504603 126.63752241 2.91181513 126.6431252 C-18.11571823 126.70375187 -38.27087454 125.39500132 -54.60237122 110.38768005 C-68.42737124 96.29358027 -74.87367277 80.57265149 -74.84895325 61.06541443 C-74.62610181 44.27523774 -68.13370798 30.53777147 -56.60237122 18.38768005 C-40.24790507 2.66968213 -21.58561137 -0.07478447 0 0 Z " fill="#FE5E05" transform="translate(233.6023712158203,617.6123199462891)"/>
<path d="M0 0 C1.07738937 -0.00392761 1.07738937 -0.00392761 2.17654419 -0.00793457 C13.13207176 -0.01222275 23.28245576 0.66183044 33.6875 4.3125 C34.49445313 4.58964844 35.30140625 4.86679687 36.1328125 5.15234375 C38.42139348 6.06862064 40.51965534 7.136069 42.6875 8.3125 C43.26322754 8.61816895 43.83895508 8.92383789 44.43212891 9.23876953 C60.42363623 17.76571658 73.77442298 28.56522233 87.3046875 40.50390625 C100.00384074 52.53201801 100.00384074 52.53201801 116.07641602 57.53173828 C124.40045789 56.83281452 130.9083806 52.07436543 137 46.75 C137.7321875 46.13012207 138.464375 45.51024414 139.21875 44.87158203 C141.98065749 42.52841924 144.71644625 40.15608782 147.45068359 37.78076172 C172.65987574 15.89235939 200.10530956 -0.43435912 234.5 -0.125 C235.19827911 -0.12262329 235.89655823 -0.12024658 236.61599731 -0.11779785 C247.39169208 -0.06047951 257.45864078 0.72364597 267.6875 4.3125 C268.49445313 4.58964844 269.30140625 4.86679687 270.1328125 5.15234375 C272.41949101 6.06785895 274.51987243 7.14071432 276.6875 8.3125 C277.8528125 8.91707031 279.018125 9.52164062 280.21875 10.14453125 C293.94927013 17.4400901 305.90049274 26.75176196 317.59448242 36.93481445 C331.87798198 50.46916229 331.87798198 50.46916229 349.6953125 55.84765625 C353.49787168 55.16756407 356.93499419 53.81333331 360.5 52.375 C371.00007013 48.13899424 381.70489526 46.73866577 392.6875 50.3125 C396.26452876 52.00909367 399.46615359 54.01784228 402.6875 56.3125 C403.3371875 56.76625 403.986875 57.22 404.65625 57.6875 C411.60317231 63.05003652 416.29202382 71.45150005 418.3125 79.9375 C419.85231637 93.79584729 416.62563434 104.99490048 408.484375 116.3984375 C405.45671355 119.88413124 401.83372235 121.82231827 397.75 123.875 C397.00000732 124.25994629 396.25001465 124.64489258 395.47729492 125.04150391 C388.72607437 128.43177054 381.93953184 131.15466089 374.6875 133.3125 C373.67558594 133.63089844 372.66367187 133.94929687 371.62109375 134.27734375 C346.25207739 141.0320389 319.86220418 135.74859416 297.48046875 122.953125 C290.31352454 118.70017638 283.91048366 114.11654155 277.86328125 108.34375 C275.25796834 105.91150097 272.48669693 103.84382279 269.57421875 101.796875 C267.6875 100.3125 267.6875 100.3125 265.421875 97.9921875 C262.23957165 94.87353021 258.84921526 92.29989153 255.25 89.6875 C254.60740234 89.21054687 253.96480469 88.73359375 253.30273438 88.2421875 C244.97121076 82.15213978 238.01554279 80.00926681 227.625 80.98095703 C222.40800806 81.87368322 218.65199348 85.01161582 214.6875 88.3125 C214.17622559 88.73031738 213.66495117 89.14813477 213.13818359 89.57861328 C209.79410123 92.31632346 206.51597211 95.12385292 203.25439453 97.95898438 C199.14548764 101.5083424 194.92504466 104.9187954 190.6875 108.3125 C189.82511719 109.01761719 188.96273438 109.72273437 188.07421875 110.44921875 C174.35550098 121.25731748 157.76608789 131.48176278 140.625 135.5 C139.96951172 135.66435547 139.31402344 135.82871094 138.63867188 135.99804688 C118.16509106 140.97048981 95.83404465 139.07810171 76.6875 130.3125 C75.52476562 129.78527344 74.36203125 129.25804687 73.1640625 128.71484375 C65.34315934 124.99100808 58.50732792 120.62983458 51.6875 115.3125 C50.965625 114.78269531 50.24375 114.25289062 49.5 113.70703125 C44.70013971 110.13360585 40.39114064 106.17844277 36.0625 102.0625 C31.16765187 97.42778077 26.12637273 93.17230951 20.6875 89.1875 C19.77170166 88.51412598 19.77170166 88.51412598 18.83740234 87.82714844 C12.7761797 83.4817437 7.98186109 80.88290656 0.3125 80.875 C-0.93273437 80.85566406 -2.17796875 80.83632813 -3.4609375 80.81640625 C-11.68186852 81.87528885 -17.3487964 86.62806979 -23.5 91.875 C-24.23903564 92.49342773 -24.97807129 93.11185547 -25.73950195 93.74902344 C-29.11865307 96.58256153 -32.47214505 99.44510467 -35.8125 102.32421875 C-61.61503086 124.54208961 -88.65972749 138.73359162 -123.3125 137.3125 C-140.90795018 135.93478019 -164.30507618 129.16047783 -176.3125 115.3125 C-184.62682689 104.41786477 -187.47341545 94.63618352 -186.07421875 80.98828125 C-184.26016545 70.78194097 -178.42595836 61.66467381 -170.3125 55.3125 C-159.39028391 48.29363326 -147.39885304 46.90127218 -134.87890625 49.5390625 C-132.14155173 50.36401866 -129.87892644 51.50200706 -127.375 52.875 C-122.06722498 55.64499509 -117.32666075 56.98730065 -111.3125 56.3125 C-103.54957608 53.66980249 -97.83759144 48.36396185 -91.98046875 42.8125 C-88.81939642 39.85044101 -85.5047661 37.17401813 -82.09375 34.5078125 C-79.98276205 32.84155516 -77.90819811 31.15193089 -75.84375 29.4296875 C-67.74357655 22.7180849 -59.71039434 17.12580208 -50.3125 12.3125 C-49.7040625 11.99941895 -49.095625 11.68633789 -48.46875 11.36376953 C-32.75627755 3.37250425 -17.62985591 0.06097788 0 0 Z " fill="#FD5E05" transform="translate(341.3125,450.6875)"/>
</svg>
