<svg version="1.1" id="Layer_1" xmlns="http://www.w3.org/2000/svg" xmlns:xlink="http://www.w3.org/1999/xlink" x="0px" y="0px"
	 width="100%" viewBox="0 0 512 512" enable-background="new 0 0 512 512" xml:space="preserve">
<path fill="#53354B" opacity="1.000000" stroke="none" 
	d="
M513.000000,225.000000 
	C513.000000,246.020889 513.000000,267.041779 512.599731,288.558411 
	C511.487213,292.014221 510.502655,294.938324 510.105865,297.940125 
	C506.939270,321.895721 499.465149,344.578033 489.248810,366.319977 
	C479.297150,387.498718 467.158020,407.451477 450.929779,424.464600 
	C439.282013,436.675598 427.519897,448.980682 414.471954,459.601471 
	C398.219666,472.830475 380.068848,483.390930 360.692108,491.808075 
	C338.718475,501.353241 315.971252,507.765747 292.288818,511.086060 
	C291.125946,511.249084 290.093292,512.340759 289.000000,513.000000 
	C267.979095,513.000000 246.958206,513.000000 225.443466,512.600037 
	C224.437241,511.842743 223.954208,511.227356 223.408249,511.165283 
	C202.769928,508.818695 182.703415,503.950287 163.610443,495.882599 
	C151.052887,490.576447 139.095108,483.850861 126.832726,477.407410 
	C125.408981,474.466919 124.432869,471.527466 122.567505,469.349609 
	C109.298004,453.857056 109.816025,437.884399 124.249054,423.402710 
	C139.284592,408.316528 154.297226,393.207489 169.619904,377.982788 
	C178.388184,369.180634 186.856445,360.504181 195.001526,352.158844 
	C196.290802,352.577209 196.643753,352.614166 196.906174,352.787872 
	C227.106186,372.776825 260.133850,379.411041 295.626465,372.927704 
	C327.742523,367.061157 354.638000,351.431549 374.235901,325.382294 
	C400.714142,290.187744 425.953766,254.060410 451.668701,218.292969 
	C464.791870,200.039673 464.516418,186.627045 451.169067,168.879410 
	C459.187775,158.396439 466.892334,148.069702 474.638184,137.773987 
	C476.381134,135.457260 478.268311,133.249008 480.368073,131.182816 
	C481.524567,132.756195 482.508453,134.081970 483.263763,135.527222 
	C496.587555,161.022064 506.059082,187.790146 510.160919,216.369537 
	C510.584595,219.321381 512.029175,222.126694 513.000000,225.000000 
z"/>
<path fill="#63455D" opacity="1.000000" stroke="none" 
	d="
M480.089111,130.990814 
	C478.268311,133.249008 476.381134,135.457260 474.638184,137.773987 
	C466.892334,148.069702 459.187775,158.396439 450.863251,168.751373 
	C445.777008,164.320480 441.309357,159.836487 436.812073,155.382431 
	C423.566040,142.263870 410.308289,129.157166 396.895081,115.744820 
	C390.550354,109.255714 384.428009,103.003555 378.156738,96.904510 
	C374.632965,93.477562 370.863159,90.303566 367.175720,86.665321 
	C360.456787,79.573959 353.788910,72.810326 347.071411,66.096321 
	C331.146942,50.180069 314.925903,48.863300 296.627563,62.000767 
	C262.805725,86.283463 229.017334,110.612755 195.170639,134.860718 
	C174.933960,149.358414 158.948486,167.539337 149.919373,190.777542 
	C145.031738,203.356873 142.690704,216.925659 138.868729,229.905640 
	C96.926208,208.074677 64.039078,177.011398 39.103844,137.365891 
	C37.655670,135.063370 35.655968,133.107758 33.980705,130.636047 
	C49.540562,102.047569 70.418854,78.322235 95.179878,57.967396 
	C112.585976,43.658676 131.577438,31.894852 152.293701,22.786825 
	C172.781662,13.779172 193.851669,7.144433 216.006592,3.891890 
	C219.079681,3.440733 222.005829,1.988695 225.000000,0.999999 
	C246.020889,1.000000 267.041779,1.000000 288.502258,1.410012 
	C289.615448,2.199877 290.249664,2.795581 290.968597,2.926741 
	C299.705383,4.520576 308.538483,5.679640 317.184570,7.659254 
	C341.305695,13.182025 364.322571,21.899458 385.326477,34.951942 
	C399.691833,43.879032 413.958557,53.408485 426.575867,64.581139 
	C439.398987,75.935989 450.699860,89.181328 461.603546,102.471588 
	C468.744080,111.175049 473.992950,121.430481 480.089111,130.990814 
z"/>
<path fill="#53354B" opacity="1.000000" stroke="none" 
	d="
M33.912933,130.990692 
	C35.655968,133.107758 37.655670,135.063370 39.103844,137.365891 
	C64.039078,177.011398 96.926208,208.074677 138.928055,230.368561 
	C136.922073,262.591827 144.291016,291.652618 161.940338,318.278625 
	C152.845734,327.681122 143.910736,336.784973 134.671829,346.043335 
	C119.427628,361.132446 104.523872,376.103790 89.536041,390.990540 
	C76.400764,404.037201 59.230839,404.398895 45.289452,392.300842 
	C42.881935,390.211670 39.667355,389.052521 36.495415,387.528961 
	C31.554920,378.645416 26.608747,369.851379 22.401333,360.717041 
	C12.372718,338.944946 6.134942,316.042236 2.914819,292.295624 
	C2.757019,291.131927 1.659781,290.095612 0.999997,289.000000 
	C1.000000,267.979095 1.000000,246.958206 1.399622,225.441223 
	C2.157001,224.434875 2.772806,223.954224 2.835278,223.410065 
	C5.216010,202.672546 10.179427,182.537399 18.155027,163.290741 
	C22.732542,152.244293 28.616892,141.739395 33.912933,130.990692 
z"/>
<path fill="transparent" opacity="1.000000" stroke="none" 
	d="
M0.999997,289.468658 
	C1.659781,290.095612 2.757019,291.131927 2.914819,292.295624 
	C6.134942,316.042236 12.372718,338.944946 22.401333,360.717041 
	C26.608747,369.851379 31.554920,378.645416 36.582397,387.923187 
	C37.295403,388.981232 37.493095,389.771088 37.901428,390.430481 
	C48.674423,407.826355 60.533993,424.358856 76.034805,438.394531 
	C83.560287,445.432220 90.556725,452.690399 98.476250,458.740173 
	C107.511307,465.642151 117.368721,471.467621 126.868752,477.760925 
	C139.095108,483.850861 151.052887,490.576447 163.610443,495.882599 
	C182.703415,503.950287 202.769928,508.818695 223.408249,511.165283 
	C223.954208,511.227356 224.437241,511.842743 224.974808,512.600037 
	C150.406296,513.000000 75.812599,513.000000 1.000000,513.000000 
	C1.000000,438.645905 1.000000,364.291626 0.999997,289.468658 
z"/>
<path fill="transparent" opacity="1.000000" stroke="none" 
	d="
M289.468658,513.000000 
	C290.093292,512.340759 291.125946,511.249084 292.288818,511.086060 
	C315.971252,507.765747 338.718475,501.353241 360.692108,491.808075 
	C380.068848,483.390930 398.219666,472.830475 414.471954,459.601471 
	C427.519897,448.980682 439.282013,436.675598 450.929779,424.464600 
	C467.158020,407.451477 479.297150,387.498718 489.248810,366.319977 
	C499.465149,344.578033 506.939270,321.895721 510.105865,297.940125 
	C510.502655,294.938324 511.487213,292.014221 512.599731,289.027069 
	C513.000000,363.593719 513.000000,438.187408 513.000000,513.000000 
	C438.645905,513.000000 364.291626,513.000000 289.468658,513.000000 
z"/>
<path fill="transparent" opacity="1.000000" stroke="none" 
	d="
M480.368103,131.182800 
	C473.992950,121.430481 468.744080,111.175049 461.603546,102.471588 
	C450.699860,89.181328 439.398987,75.935989 426.575867,64.581139 
	C413.958557,53.408485 399.691833,43.879032 385.326477,34.951942 
	C364.322571,21.899458 341.305695,13.182025 317.184570,7.659254 
	C308.538483,5.679640 299.705383,4.520576 290.968597,2.926741 
	C290.249664,2.795581 289.615448,2.199877 288.970947,1.410012 
	C363.593719,1.000000 438.187408,1.000000 513.000000,1.000000 
	C513.000000,75.354088 513.000000,149.708389 513.000000,224.531342 
	C512.029175,222.126694 510.584595,219.321381 510.160919,216.369537 
	C506.059082,187.790146 496.587555,161.022064 483.263763,135.527222 
	C482.508453,134.081970 481.524567,132.756195 480.368103,131.182800 
z"/>
<path fill="transparent" opacity="1.000000" stroke="none" 
	d="
M33.980705,130.636047 
	C28.616892,141.739395 22.732542,152.244293 18.155027,163.290741 
	C10.179427,182.537399 5.216010,202.672546 2.835278,223.410065 
	C2.772806,223.954224 2.157001,224.434875 1.399622,224.972565 
	C1.000000,150.406296 1.000000,75.812576 1.000000,1.000000 
	C75.354088,1.000000 149.708389,1.000000 224.531342,0.999999 
	C222.005829,1.988695 219.079681,3.440733 216.006592,3.891890 
	C193.851669,7.144433 172.781662,13.779172 152.293701,22.786825 
	C131.577438,31.894852 112.585976,43.658676 95.179878,57.967396 
	C70.418854,78.322235 49.540562,102.047569 33.980705,130.636047 
z"/>
<path fill="#B0EDF7" opacity="1.000000" stroke="none" 
	d="
M397.055115,116.045830 
	C410.308289,129.157166 423.566040,142.263870 436.812073,155.382431 
	C441.309357,159.836487 445.777008,164.320480 450.564026,168.918823 
	C464.516418,186.627045 464.791870,200.039673 451.668701,218.292969 
	C425.953766,254.060410 400.714142,290.187744 374.235901,325.382294 
	C354.638000,351.431549 327.742523,367.061157 295.626465,372.927704 
	C260.133850,379.411041 227.106186,372.776825 196.906174,352.787872 
	C196.643753,352.614166 196.290802,352.577209 195.001526,352.158844 
	C186.856445,360.504181 178.388184,369.180634 169.259979,377.907288 
	C162.810623,373.395569 157.021194,368.833649 150.832199,363.956879 
	C152.695023,361.951141 153.870773,360.613220 155.121841,359.349884 
	C163.173248,351.219574 171.251846,343.116211 179.300522,334.983246 
	C186.868958,327.335510 194.411514,319.662231 202.192413,312.056091 
	C202.419342,312.111969 202.875320,312.214020 203.019104,312.511871 
	C226.648758,334.962372 254.399200,343.644226 286.308868,339.026184 
	C305.392548,336.264343 322.017487,328.135925 336.196228,315.198456 
	C344.671814,307.464874 345.569580,295.538513 337.814178,287.592834 
	C319.809204,269.145996 301.353790,251.138824 282.986206,232.690186 
	C282.554169,231.998367 282.216949,231.569809 282.173462,230.961777 
	C283.335938,230.009842 284.246552,229.279327 285.067261,228.458923 
	C321.421204,192.119247 357.769012,155.773483 394.104950,119.415817 
	C395.157990,118.362129 396.074799,117.172226 397.055115,116.045830 
z"/>
<path fill="#CFF6FF" opacity="1.000000" stroke="none" 
	d="
M201.965469,312.000183 
	C194.411514,319.662231 186.868958,327.335510 179.300522,334.983246 
	C171.251846,343.116211 163.173248,351.219574 155.121841,359.349884 
	C153.870773,360.613220 152.695023,361.951141 150.832199,363.956879 
	C157.021194,368.833649 162.810623,373.395569 168.959961,378.032959 
	C154.297226,393.207489 139.284592,408.316528 124.249054,423.402710 
	C109.816025,437.884399 109.298004,453.857056 122.567505,469.349609 
	C124.432869,471.527466 125.408981,474.466919 126.832726,477.407410 
	C117.368721,471.467621 107.511307,465.642151 98.476250,458.740173 
	C90.556725,452.690399 83.560287,445.432220 76.315079,438.204468 
	C100.105530,414.143219 123.738548,390.586945 147.359360,367.018463 
	C147.941101,366.438019 148.680878,365.782654 148.830582,365.055878 
	C149.070969,363.888885 149.392853,362.199127 148.788452,361.483734 
	C144.308090,356.180786 139.607300,351.064056 134.975739,345.888824 
	C143.910736,336.784973 152.845734,327.681122 162.227325,318.095093 
	C166.026657,315.376404 167.096909,312.311340 167.058823,308.258850 
	C167.002960,302.314636 166.851120,296.158722 168.250854,290.464325 
	C170.242203,282.363037 173.604187,274.598694 176.610931,266.992706 
	C177.074768,268.253052 177.279068,269.219330 177.546051,270.167938 
	C182.065292,286.224548 190.812698,299.814850 201.965469,312.000183 
z"/>
<path fill="#FEFEFE" opacity="1.000000" stroke="none" 
	d="
M176.380585,266.690399 
	C173.604187,274.598694 170.242203,282.363037 168.250854,290.464325 
	C166.851120,296.158722 167.002960,302.314636 167.058823,308.258850 
	C167.096909,312.311340 166.026657,315.376404 162.386948,317.796448 
	C144.291016,291.652618 136.922073,262.591827 139.260193,230.511017 
	C142.690704,216.925659 145.031738,203.356873 149.919373,190.777542 
	C158.948486,167.539337 174.933960,149.358414 195.170639,134.860718 
	C229.017334,110.612755 262.805725,86.283463 296.627563,62.000767 
	C314.925903,48.863300 331.146942,50.180069 347.071411,66.096321 
	C353.788910,72.810326 360.456787,79.573959 366.719360,86.664383 
	C359.253052,86.688377 352.630615,88.274635 346.977661,92.438202 
	C339.779602,97.739799 332.792938,103.347649 325.928558,109.079048 
	C311.792084,120.882317 297.812378,132.873108 283.740234,144.753632 
	C267.768646,158.237732 251.766495,171.685608 235.468277,185.022507 
	C233.021896,182.794739 230.884674,180.693924 228.747925,178.592606 
	C218.458374,168.473816 206.381744,168.853134 197.179520,179.941742 
	C176.750549,204.558487 169.798370,232.626083 176.154922,264.324005 
	C176.196121,265.339478 176.288361,266.014923 176.380585,266.690399 
z"/>
<path fill="#CFF6FF" opacity="1.000000" stroke="none" 
	d="
M235.777634,185.149231 
	C251.766495,171.685608 267.768646,158.237732 283.740234,144.753632 
	C297.812378,132.873108 311.792084,120.882317 325.928558,109.079048 
	C332.792938,103.347649 339.779602,97.739799 346.977661,92.438202 
	C352.630615,88.274635 359.253052,86.688377 366.747833,87.014664 
	C370.863159,90.303566 374.632965,93.477562 378.156738,96.904510 
	C384.428009,103.003555 390.550354,109.255714 396.895081,115.744827 
	C396.074799,117.172226 395.157990,118.362129 394.104950,119.415817 
	C357.769012,155.773483 321.421204,192.119247 285.067261,228.458923 
	C284.246552,229.279327 283.335938,230.009842 281.864014,230.821259 
	C266.165131,215.909729 251.069519,200.959229 235.920639,185.794800 
	C235.867401,185.580887 235.777634,185.149231 235.777634,185.149231 
z"/>
<path fill="#FEFEFE" opacity="1.000000" stroke="none" 
	d="
M134.671844,346.043335 
	C139.607300,351.064056 144.308090,356.180786 148.788452,361.483734 
	C149.392853,362.199127 149.070969,363.888885 148.830582,365.055878 
	C148.680878,365.782654 147.941101,366.438019 147.359360,367.018463 
	C123.738548,390.586945 100.105530,414.143219 76.193787,437.891113 
	C60.533993,424.358856 48.674423,407.826355 37.901428,390.430481 
	C37.493095,389.771088 37.295403,388.981232 36.912567,387.857971 
	C39.667355,389.052521 42.881935,390.211670 45.289452,392.300842 
	C59.230839,404.398895 76.400764,404.037201 89.536041,390.990540 
	C104.523872,376.103790 119.427628,361.132446 134.671844,346.043335 
z"/>
<path fill="#D32624" opacity="1.000000" stroke="none" 
	d="
M283.080963,232.953445 
	C301.353790,251.138824 319.809204,269.145996 337.814178,287.592834 
	C345.569580,295.538513 344.671814,307.464874 336.196228,315.198456 
	C322.017487,328.135925 305.392548,336.264343 286.308868,339.026184 
	C254.399200,343.644226 226.648758,334.962372 203.194809,312.211426 
	C203.419815,311.342346 203.579086,311.037811 203.810837,310.805603 
	C228.967926,285.597565 254.121475,260.385986 279.325470,235.224930 
	C280.331024,234.221085 281.818176,233.699646 283.080963,232.953445 
M282.807037,316.653778 
	C287.228943,321.082184 292.429138,322.388306 298.262329,320.092957 
	C303.499176,318.032318 306.388977,313.950226 306.940125,308.379486 
	C307.526489,302.452637 303.999817,296.716827 298.590393,294.414001 
	C292.871765,291.979553 286.342010,293.539429 282.373108,298.288116 
	C278.013672,303.504089 277.990295,309.465668 282.807037,316.653778 
M243.223236,312.576111 
	C250.004974,315.373871 256.076935,313.149200 257.879608,307.206268 
	C259.605560,301.516327 256.410736,295.839569 250.572388,294.537842 
	C245.987946,293.515686 242.383011,295.239746 239.967957,299.192291 
	C237.416977,303.367310 238.393707,307.773895 243.223236,312.576111 
z"/>
<path fill="#E82D2E" opacity="1.000000" stroke="none" 
	d="
M282.986206,232.690186 
	C281.818176,233.699646 280.331024,234.221085 279.325470,235.224930 
	C254.121475,260.385986 228.967926,285.597565 203.810837,310.805603 
	C203.579086,311.037811 203.419815,311.342346 203.051025,311.913574 
	C202.875320,312.214020 202.419342,312.111969 202.192413,312.056091 
	C190.812698,299.814850 182.065292,286.224548 177.546051,270.167938 
	C177.279068,269.219330 177.074768,268.253052 176.610947,266.992706 
	C176.288361,266.014923 176.196121,265.339478 176.364929,264.065552 
	C185.326859,245.299942 195.486359,228.007477 209.083023,213.063126 
	C217.631516,203.667313 226.982758,195.001846 235.973877,186.008728 
	C251.069519,200.959229 266.165131,215.909729 281.570251,231.000732 
	C282.216949,231.569809 282.554169,231.998367 282.986206,232.690186 
z"/>
<path fill="#FF3E3D" opacity="1.000000" stroke="none" 
	d="
M235.920639,185.794800 
	C226.982758,195.001846 217.631516,203.667313 209.083023,213.063126 
	C195.486359,228.007477 185.326859,245.299942 176.415970,263.725555 
	C169.798370,232.626083 176.750549,204.558487 197.179520,179.941742 
	C206.381744,168.853134 218.458374,168.473816 228.747925,178.592606 
	C230.884674,180.693924 233.021896,182.794739 235.468277,185.022507 
	C235.777634,185.149231 235.867401,185.580887 235.920639,185.794800 
z"/>
<path fill="#FEFBFB" opacity="1.000000" stroke="none" 
	d="
M282.555115,316.380554 
	C277.990295,309.465668 278.013672,303.504089 282.373108,298.288116 
	C286.342010,293.539429 292.871765,291.979553 298.590393,294.414001 
	C303.999817,296.716827 307.526489,302.452637 306.940125,308.379486 
	C306.388977,313.950226 303.499176,318.032318 298.262329,320.092957 
	C292.429138,322.388306 287.228943,321.082184 282.555115,316.380554 
z"/>
<path fill="#FEFAFA" opacity="1.000000" stroke="none" 
	d="
M242.916550,312.342285 
	C238.393707,307.773895 237.416977,303.367310 239.967957,299.192291 
	C242.383011,295.239746 245.987946,293.515686 250.572388,294.537842 
	C256.410736,295.839569 259.605560,301.516327 257.879608,307.206268 
	C256.076935,313.149200 250.004974,315.373871 242.916550,312.342285 
z"/>
</svg>