<svg version="1.1" id="Layer_1" xmlns="http://www.w3.org/2000/svg" xmlns:xlink="http://www.w3.org/1999/xlink" x="0px" y="0px"
	 width="100%" viewBox="0 0 512 512" enable-background="new 0 0 512 512" xml:space="preserve">
<path fill="#95573A" opacity="1.000000" stroke="none" 
	d="
M1.000000,163.000000 
	C1.000000,161.285629 1.000000,159.571243 1.319116,157.623413 
	C9.089911,149.414825 16.537680,141.436005 23.994108,133.465286 
	C38.604774,117.846848 53.030357,102.048820 67.914429,86.695335 
	C75.277809,79.099739 83.360008,72.178001 91.346001,65.214012 
	C105.510277,52.862392 121.328812,43.114956 139.120865,36.957321 
	C164.743469,28.089624 191.110840,25.429790 218.125229,27.893387 
	C233.919739,29.333782 249.055435,33.231144 262.849274,40.691189 
	C273.765076,46.594730 284.058044,53.910042 293.783691,61.657780 
	C299.719147,66.386139 304.056854,73.120087 308.877625,79.219170 
	C307.973785,80.814453 307.184143,82.097542 306.652924,83.479950 
	C295.351624,112.888863 280.220184,140.094635 259.782288,164.165573 
	C255.556122,169.142975 250.483643,173.401825 245.935074,177.624191 
	C246.430237,176.329315 246.840622,175.417923 247.145142,174.472443 
	C249.814606,166.184402 246.631958,157.793823 239.188965,153.447052 
	C232.104248,149.309464 223.221802,150.772385 217.409973,157.033966 
	C211.888809,162.982422 211.445633,172.077072 216.335785,179.077621 
	C221.388809,186.311325 229.424622,187.939941 239.925400,184.213150 
	C238.724854,185.980469 237.814621,187.626785 236.492188,188.813919 
	C214.603455,208.463333 190.013702,223.806564 162.790115,234.957626 
	C161.354187,235.545807 160.229401,236.893600 158.603088,237.818619 
	C156.211838,237.020569 154.131378,236.398392 152.149719,235.546402 
	C130.583435,226.274261 112.398460,212.017349 95.126579,196.498413 
	C85.248772,187.623123 87.764587,187.515503 77.825676,197.949615 
	C77.711327,198.069687 77.626770,198.217972 77.513687,198.339478 
	C75.466064,200.539444 75.375938,202.299805 77.845314,204.588669 
	C94.254066,219.798004 111.437347,233.958908 130.674072,245.233521 
	C119.346573,247.927597 108.313942,250.386169 97.310806,252.970352 
	C95.462349,253.404495 93.741524,254.382095 91.663338,254.950623 
	C88.635658,252.421158 85.717216,250.233368 83.207275,247.648865 
	C64.630829,228.520416 46.083397,209.363052 27.648834,190.098053 
	C22.530930,184.749603 18.006100,178.832138 12.866122,173.506836 
	C9.208409,169.717255 4.975955,166.482422 1.000000,163.000000 
M104.413696,116.932823 
	C117.827789,106.589577 131.124359,96.087379 144.742004,86.019463 
	C147.980637,83.625038 149.013763,81.791023 146.747223,78.448059 
	C146.191437,77.628319 145.840347,76.670647 145.386658,75.780708 
	C141.440353,68.040024 140.276901,67.810280 132.951614,72.342194 
	C115.310242,83.256287 99.857246,96.912888 84.687866,110.889519 
	C75.174294,119.655060 75.441727,119.771683 84.311729,128.982010 
	C86.580154,131.337479 87.993217,131.504807 90.382538,129.223923 
	C94.705734,125.096924 99.348221,121.304398 104.413696,116.932823 
M249.789276,108.527893 
	C246.546127,117.696251 248.815933,125.439224 256.215057,130.448105 
	C262.294312,134.563477 271.557861,134.008957 277.181732,129.231110 
	C283.078033,124.221794 284.208801,117.738586 282.555725,110.666634 
	C281.079010,104.348969 274.404572,98.733337 267.791870,98.229469 
	C259.959198,97.632637 253.901505,100.764687 249.789276,108.527893 
M186.897537,66.573486 
	C186.567657,63.939281 186.202118,61.308929 185.917435,58.669849 
	C185.599457,55.722385 184.421097,53.956039 181.069244,54.708664 
	C176.536148,55.726536 171.949860,56.539158 167.476059,57.766663 
	C166.401413,58.061520 164.782791,59.834476 164.945663,60.603249 
	C165.836166,64.806671 166.997406,68.990593 168.573090,72.980804 
	C168.910202,73.834496 171.405746,74.344719 172.801987,74.170746 
	C176.250839,73.741020 179.615921,72.672920 183.058319,72.147156 
	C185.934509,71.707878 187.117706,70.214218 186.897537,66.573486 
z"/>
<path fill="#5F9548" opacity="1.000000" stroke="none" 
	d="
M1.000000,384.000000 
	C1.000000,383.555573 1.000000,383.111115 1.349921,382.529053 
	C4.590374,381.218140 7.481058,380.045227 10.371408,378.871490 
	C29.197264,371.226746 47.682056,362.547577 66.935440,356.199463 
	C90.835831,348.319244 115.372192,342.367920 137.844406,336.083832 
	C126.107918,333.074402 112.247002,329.859680 98.593887,325.924042 
	C84.899353,321.976501 71.314178,317.589600 57.861675,312.879395 
	C44.582664,308.230011 31.529737,302.934937 18.015444,297.785095 
	C18.967386,296.749664 19.160984,296.332489 19.420517,296.286346 
	C37.007042,293.161743 54.501663,289.214325 72.215919,287.194946 
	C92.373856,284.897003 112.728058,284.319061 132.997818,283.006989 
	C134.657211,282.899567 136.323288,282.895294 138.383575,282.894836 
	C141.024002,283.515961 143.295517,283.992584 145.505936,284.668854 
	C174.944077,293.675110 204.965393,293.350006 235.436951,290.564636 
	C235.316193,292.961670 235.305481,295.284332 234.458588,297.245972 
	C227.009003,314.501495 222.141800,332.299072 221.762955,351.245667 
	C221.173355,380.731140 232.662323,404.039734 256.950928,421.286163 
	C257.485046,421.619751 257.811493,421.775421 258.087646,421.922302 
	C258.037384,421.913483 258.055237,421.812988 258.180206,422.108337 
	C258.923889,423.273651 259.542633,424.143616 259.997559,425.320801 
	C251.985840,431.825378 244.211029,438.118011 236.276535,444.202362 
	C211.097382,463.510406 184.254349,480.223816 156.110535,494.819641 
	C145.760712,500.187225 135.025421,504.808655 124.525276,509.892944 
	C123.167137,510.550598 122.166328,511.946228 121.000000,513.000000 
	C119.285812,513.000000 117.571625,513.000000 115.540993,512.673279 
	C115.753487,511.713104 116.383286,511.139130 116.796883,510.437683 
	C135.863174,478.102539 158.610199,448.512604 183.896851,420.488373 
	C184.182648,419.955231 184.271042,419.601044 184.359436,419.246857 
	C183.882370,419.470276 183.405304,419.693695 182.567261,419.967651 
	C141.207382,440.476135 98.936714,457.576172 54.220181,468.552582 
	C81.886238,438.090790 112.573349,411.162689 146.340668,386.499603 
	C128.373611,387.721741 111.621536,389.839478 94.878738,389.768494 
	C70.394089,389.664703 45.908264,388.143677 21.440313,386.888092 
	C14.595499,386.536835 7.811756,384.995453 1.000000,384.000000 
z"/>
<path fill="transparent" opacity="1.000000" stroke="none" 
	d="
M121.468658,513.000000 
	C122.166328,511.946228 123.167137,510.550598 124.525276,509.892944 
	C135.025421,504.808655 145.760712,500.187225 156.110535,494.819641 
	C184.254349,480.223816 211.097382,463.510406 236.276535,444.202362 
	C244.211029,438.118011 251.985840,431.825378 260.292389,425.466675 
	C272.486359,432.198608 283.894379,439.745300 296.036072,445.827362 
	C312.945953,454.297913 331.348846,458.448700 350.108215,459.777710 
	C361.790100,460.605347 373.651520,459.769897 385.376495,458.914948 
	C402.940460,457.634216 419.337921,451.937286 435.410400,444.105927 
	C453.261780,435.041443 468.202820,422.981750 480.836609,407.830627 
	C495.883789,389.785187 505.709015,369.403290 510.386414,346.431000 
	C510.775024,344.522430 512.106567,342.805817 513.000000,341.000000 
	C513.000000,398.288849 513.000000,455.577667 513.000000,513.000000 
	C382.645813,513.000000 252.291565,513.000000 121.468658,513.000000 
z"/>
<path fill="transparent" opacity="1.000000" stroke="none" 
	d="
M327.000000,1.000001 
	C388.943085,1.000000 450.886200,1.000000 513.000000,1.000000 
	C513.000000,97.687492 513.000000,194.375092 512.593994,291.589233 
	C511.824707,291.610352 511.203644,291.137329 511.135468,290.594879 
	C509.123383,274.584381 503.790924,259.562164 496.519531,245.342636 
	C491.670166,235.859543 485.440125,227.082474 479.894958,217.556458 
	C480.968719,209.821640 482.269226,202.546021 482.923370,195.212738 
	C484.446106,178.141861 486.412659,161.060364 486.801849,143.951385 
	C487.277771,123.030182 486.342743,102.076157 485.942139,81.137772 
	C485.921021,80.032921 485.195496,78.941544 484.604797,77.310776 
	C466.431427,109.313438 451.726685,142.095825 439.270538,177.219940 
	C435.137573,126.533661 425.888092,78.255104 409.741608,29.843967 
	C398.523987,67.206848 391.872070,103.854813 387.775269,141.678299 
	C387.002411,140.040878 386.437805,139.069168 386.068176,138.028229 
	C379.356689,119.126564 373.775391,99.728714 365.707428,81.426598 
	C354.557007,56.131874 341.527191,31.666115 329.336761,6.828396 
	C328.417084,4.954676 327.772461,2.945964 327.000000,1.000001 
z"/>
<path fill="transparent" opacity="1.000000" stroke="none" 
	d="
M309.112183,78.953224 
	C304.056854,73.120087 299.719147,66.386139 293.783691,61.657780 
	C284.058044,53.910042 273.765076,46.594730 262.849274,40.691189 
	C249.055435,33.231144 233.919739,29.333782 218.125229,27.893387 
	C191.110840,25.429790 164.743469,28.089624 139.120865,36.957321 
	C121.328812,43.114956 105.510277,52.862392 91.346001,65.214012 
	C83.360008,72.178001 75.277809,79.099739 67.914429,86.695335 
	C53.030357,102.048820 38.604774,117.846848 23.994108,133.465286 
	C16.537680,141.436005 9.089911,149.414825 1.319116,157.194977 
	C1.000000,105.047523 1.000000,53.095047 1.000000,1.000000 
	C108.354187,1.000000 215.708435,1.000000 323.700409,1.443337 
	C324.570099,26.723186 324.721252,51.560944 325.105286,76.395111 
	C325.178162,81.105949 326.249146,85.794914 326.727325,90.507393 
	C327.486603,97.990677 328.134491,105.485260 328.552185,112.755310 
	C327.137054,109.635376 326.376160,106.508202 324.791779,103.876907 
	C319.729645,95.470024 314.361938,87.247139 309.112183,78.953224 
z"/>
<path fill="#7EB457" opacity="1.000000" stroke="none" 
	d="
M328.829498,112.975067 
	C328.134491,105.485260 327.486603,97.990677 326.727325,90.507393 
	C326.249146,85.794914 325.178162,81.105949 325.105286,76.395111 
	C324.721252,51.560944 324.570099,26.723186 324.169067,1.443337 
	C324.750000,1.000000 325.500000,1.000000 326.625000,1.000001 
	C327.772461,2.945964 328.417084,4.954676 329.336761,6.828396 
	C341.527191,31.666115 354.557007,56.131874 365.707428,81.426598 
	C373.775391,99.728714 379.356689,119.126564 386.068176,138.028229 
	C386.437805,139.069168 387.002411,140.040878 387.775269,141.678299 
	C391.872070,103.854813 398.523987,67.206848 409.741608,29.843967 
	C425.888092,78.255104 435.137573,126.533661 439.270538,177.219940 
	C451.726685,142.095825 466.431427,109.313438 484.604797,77.310776 
	C485.195496,78.941544 485.921021,80.032921 485.942139,81.137772 
	C486.342743,102.076157 487.277771,123.030182 486.801849,143.951385 
	C486.412659,161.060364 484.446106,178.141861 482.923370,195.212738 
	C482.269226,202.546021 480.968719,209.821640 479.581360,217.443268 
	C477.373138,216.530823 475.545471,215.298599 473.777740,214.036026 
	C473.837646,214.005676 473.901184,214.124481 473.982239,213.776093 
	C473.670288,212.855087 473.277313,212.282486 472.652832,211.496124 
	C465.270050,204.415710 458.910858,196.375458 450.813568,190.910446 
	C429.606110,176.597122 405.637451,175.715546 381.195160,179.446075 
	C363.941559,182.079407 347.902344,188.458908 332.152710,195.292145 
	C332.914642,191.121216 333.774292,187.398270 334.459869,183.643539 
	C335.664886,177.044083 338.083038,170.337494 337.650818,163.831375 
	C336.508301,146.633347 334.059631,129.527924 328.829498,112.975067 
z"/>
<path fill="transparent" opacity="1.000000" stroke="none" 
	d="
M183.699417,420.667328 
	C158.610199,448.512604 135.863174,478.102539 116.796883,510.437683 
	C116.383286,511.139130 115.753487,511.713104 115.112274,512.673279 
	C77.068527,513.000000 39.137051,513.000000 1.000000,513.000000 
	C1.000000,470.312653 1.000000,427.625000 1.000000,384.468658 
	C7.811756,384.995453 14.595499,386.536835 21.440313,386.888092 
	C45.908264,388.143677 70.394089,389.664703 94.878738,389.768494 
	C111.621536,389.839478 128.373611,387.721741 146.340668,386.499603 
	C112.573349,411.162689 81.886238,438.090790 54.220181,468.552582 
	C98.936714,457.576172 141.207382,440.476135 182.759247,420.156006 
	C183.441254,420.418396 183.570328,420.542847 183.699417,420.667328 
z"/>
<path fill="transparent" opacity="1.000000" stroke="none" 
	d="
M137.986252,282.843079 
	C136.323288,282.895294 134.657211,282.899567 132.997818,283.006989 
	C112.728058,284.319061 92.373856,284.897003 72.215919,287.194946 
	C54.501663,289.214325 37.007042,293.161743 19.420517,296.286346 
	C19.160984,296.332489 18.967386,296.749664 18.015444,297.785095 
	C31.529737,302.934937 44.582664,308.230011 57.861675,312.879395 
	C71.314178,317.589600 84.899353,321.976501 98.593887,325.924042 
	C112.247002,329.859680 126.107918,333.074402 137.844406,336.083832 
	C115.372192,342.367920 90.835831,348.319244 66.935440,356.199463 
	C47.682056,362.547577 29.197264,371.226746 10.371408,378.871490 
	C7.481058,380.045227 4.590374,381.218140 1.349921,382.195709 
	C1.000000,309.312439 1.000000,236.624878 1.000000,163.468658 
	C4.975955,166.482422 9.208409,169.717255 12.866122,173.506836 
	C18.006100,178.832138 22.530930,184.749603 27.648834,190.098053 
	C46.083397,209.363052 64.630829,228.520416 83.207275,247.648865 
	C85.717216,250.233368 88.635658,252.421158 91.816910,255.251266 
	C106.206665,266.946930 121.282486,276.266479 137.986252,282.843079 
z"/>
<path fill="#8F4D2E" opacity="1.000000" stroke="none" 
	d="
M473.717834,214.066376 
	C475.545471,215.298599 477.373138,216.530823 479.514404,217.876236 
	C485.440125,227.082474 491.670166,235.859543 496.519531,245.342636 
	C503.790924,259.562164 509.123383,274.584381 511.135468,290.594879 
	C511.203644,291.137329 511.824707,291.610352 512.593994,292.057861 
	C513.000000,308.020905 513.000000,324.041779 513.000000,340.531342 
	C512.106567,342.805817 510.775024,344.522430 510.386414,346.431000 
	C505.709015,369.403290 495.883789,389.785187 480.836609,407.830627 
	C468.202820,422.981750 453.261780,435.041443 435.443909,443.730927 
	C437.717590,437.873505 440.397614,432.349701 442.888306,426.741821 
	C451.510773,407.327881 455.303986,386.741821 456.781219,365.747101 
	C457.357880,357.551575 456.264679,349.238525 456.012573,340.637329 
	C457.861237,337.298065 459.624908,334.297852 461.398193,331.303314 
	C473.451416,310.949402 481.601257,289.237549 483.743500,265.549042 
	C485.378723,247.466888 482.010986,230.263077 473.717834,214.066376 
z"/>
<path fill="#8F4D2E" opacity="1.000000" stroke="none" 
	d="
M138.383575,282.894806 
	C121.282486,276.266479 106.206665,266.946930 92.115303,255.409241 
	C93.741524,254.382095 95.462349,253.404495 97.310806,252.970352 
	C108.313942,250.386169 119.346573,247.927597 130.993637,245.374939 
	C139.073456,248.617950 146.429977,252.163239 154.004349,255.157425 
	C171.545288,262.091400 190.051956,264.286346 208.679886,265.764252 
	C211.742981,266.007294 213.409958,264.423340 212.839737,261.690765 
	C211.890015,257.139465 216.277420,251.242111 209.584106,248.102875 
	C209.442047,248.036255 209.255829,248.062744 209.090012,248.047958 
	C205.115234,247.693787 201.046814,247.763245 197.182816,246.908508 
	C184.402069,244.081238 171.695068,240.920517 158.959778,237.887756 
	C160.229401,236.893600 161.354187,235.545807 162.790115,234.957626 
	C190.013702,223.806564 214.603455,208.463333 236.492188,188.813919 
	C237.814621,187.626785 238.724854,185.980469 240.141785,183.981049 
	C242.238190,181.606781 244.019699,179.799316 245.801208,177.991852 
	C250.483643,173.401825 255.556122,169.142975 259.782288,164.165573 
	C280.220184,140.094635 295.351624,112.888863 306.652924,83.479950 
	C307.184143,82.097542 307.973785,80.814453 308.877625,79.219162 
	C314.361938,87.247139 319.729645,95.470024 324.791779,103.876907 
	C326.376160,106.508202 327.137054,109.635376 328.552185,112.755310 
	C334.059631,129.527924 336.508301,146.633347 337.650818,163.831375 
	C338.083038,170.337494 335.664886,177.044083 334.459869,183.643539 
	C333.774292,187.398270 332.914642,191.121216 331.903625,195.470016 
	C292.339569,217.267380 261.236938,246.820007 239.775452,286.247223 
	C238.853287,287.941406 236.725449,288.979248 235.159241,290.322815 
	C204.965393,293.350006 174.944077,293.675110 145.505936,284.668854 
	C143.295517,283.992584 141.024002,283.515961 138.383575,282.894806 
M287.546875,151.726120 
	C286.320343,152.227295 284.981476,152.553772 283.885834,153.258438 
	C277.503296,157.363419 274.104004,163.021378 275.006012,170.840073 
	C275.830658,177.988220 279.658020,182.986847 286.395752,185.157059 
	C293.348328,187.396484 299.801208,186.243057 305.079254,180.589264 
	C310.412018,174.876907 311.459167,167.549164 307.720978,160.366653 
	C304.185089,153.572861 296.962036,150.272659 287.546875,151.726120 
z"/>
<path fill="#743B20" opacity="1.000000" stroke="none" 
	d="
M158.603088,237.818634 
	C171.695068,240.920517 184.402069,244.081238 197.182816,246.908508 
	C201.046814,247.763245 205.115234,247.693787 209.090012,248.047958 
	C209.255829,248.062744 209.442047,248.036255 209.584106,248.102875 
	C216.277420,251.242111 211.890015,257.139465 212.839737,261.690765 
	C213.409958,264.423340 211.742981,266.007294 208.679886,265.764252 
	C190.051956,264.286346 171.545288,262.091400 154.004349,255.157425 
	C146.429977,252.163239 139.073456,248.617950 131.298416,245.181625 
	C111.437347,233.958908 94.254066,219.798004 77.845314,204.588669 
	C75.375938,202.299805 75.466064,200.539444 77.513687,198.339478 
	C77.626770,198.217972 77.711327,198.069687 77.825676,197.949615 
	C87.764587,187.515503 85.248772,187.623123 95.126579,196.498413 
	C112.398460,212.017349 130.583435,226.274261 152.149719,235.546402 
	C154.131378,236.398392 156.211838,237.020569 158.603088,237.818634 
z"/>
<path fill="#A36548" opacity="1.000000" stroke="none" 
	d="
M104.135544,117.152519 
	C99.348221,121.304398 94.705734,125.096924 90.382538,129.223923 
	C87.993217,131.504807 86.580154,131.337479 84.311729,128.982010 
	C75.441727,119.771683 75.174294,119.655060 84.687866,110.889519 
	C99.857246,96.912888 115.310242,83.256287 132.951614,72.342194 
	C140.276901,67.810280 141.440353,68.040024 145.386658,75.780708 
	C145.840347,76.670647 146.191437,77.628319 146.747223,78.448059 
	C149.013763,81.791023 147.980637,83.625038 144.742004,86.019463 
	C131.124359,96.087379 117.827789,106.589577 104.135544,117.152519 
z"/>
<path fill="#672E13" opacity="1.000000" stroke="none" 
	d="
M249.948334,108.180931 
	C253.901505,100.764687 259.959198,97.632637 267.791870,98.229469 
	C274.404572,98.733337 281.079010,104.348969 282.555725,110.666634 
	C284.208801,117.738586 283.078033,124.221794 277.181732,129.231110 
	C271.557861,134.008957 262.294312,134.563477 256.215057,130.448105 
	C248.815933,125.439224 246.546127,117.696251 249.948334,108.180931 
z"/>
<path fill="#662E13" opacity="1.000000" stroke="none" 
	d="
M245.935059,177.624176 
	C244.019699,179.799316 242.238190,181.606781 240.240295,183.646362 
	C229.424622,187.939941 221.388809,186.311325 216.335785,179.077621 
	C211.445633,172.077072 211.888809,162.982422 217.409973,157.033966 
	C223.221802,150.772385 232.104248,149.309464 239.188965,153.447052 
	C246.631958,157.793823 249.814606,166.184402 247.145142,174.472443 
	C246.840622,175.417923 246.430237,176.329315 245.935059,177.624176 
z"/>
<path fill="#A36548" opacity="1.000000" stroke="none" 
	d="
M186.916962,67.001343 
	C187.117706,70.214218 185.934509,71.707878 183.058319,72.147156 
	C179.615921,72.672920 176.250839,73.741020 172.801987,74.170746 
	C171.405746,74.344719 168.910202,73.834496 168.573090,72.980804 
	C166.997406,68.990593 165.836166,64.806671 164.945663,60.603249 
	C164.782791,59.834476 166.401413,58.061520 167.476059,57.766663 
	C171.949860,56.539158 176.536148,55.726536 181.069244,54.708664 
	C184.421097,53.956039 185.599457,55.722385 185.917435,58.669849 
	C186.202118,61.308929 186.567657,63.939281 186.916962,67.001343 
z"/>
<path fill="#E0E0DD" opacity="1.000000" stroke="none" 
	d="
M235.436951,290.564636 
	C236.725449,288.979248 238.853287,287.941406 239.775452,286.247223 
	C261.236938,246.820007 292.339569,217.267380 331.922974,195.903687 
	C347.902344,188.458908 363.941559,182.079407 381.195160,179.446075 
	C405.637451,175.715546 429.606110,176.597122 450.813568,190.910446 
	C458.910858,196.375458 465.270050,204.415710 472.405060,211.661285 
	C472.892914,212.734955 473.397064,213.429718 473.901184,214.124481 
	C473.901184,214.124481 473.837646,214.005676 473.777740,214.036011 
	C482.010986,230.263077 485.378723,247.466888 483.743500,265.549042 
	C481.601257,289.237549 473.451416,310.949402 461.398193,331.303314 
	C459.624908,334.297852 457.861237,337.298065 455.726868,340.810059 
	C428.273987,380.086639 393.403809,408.994965 348.275116,424.257812 
	C318.569489,434.304504 288.690155,436.624084 259.463013,421.855835 
	C259.083435,421.664032 258.528381,421.819580 258.055237,421.812988 
	C258.055237,421.812988 258.037384,421.913483 258.039612,421.583984 
	C257.608978,421.205719 257.176117,421.156982 256.743225,421.108246 
	C232.662323,404.039734 221.173355,380.731140 221.762955,351.245667 
	C222.141800,332.299072 227.009003,314.501495 234.458588,297.245972 
	C235.305481,295.284332 235.316193,292.961670 235.436951,290.564636 
M369.339752,367.888489 
	C371.794800,366.534882 374.676208,365.628571 376.638641,363.758118 
	C395.437592,345.839844 414.140808,327.819366 432.688202,309.641174 
	C434.813110,307.558533 436.433411,304.504272 437.238434,301.608795 
	C441.252838,287.169373 445.080963,272.671478 448.547241,258.092560 
	C449.147278,255.568924 448.472870,252.052765 447.053864,249.856415 
	C440.459503,239.649231 433.108704,229.926300 426.630127,219.650818 
	C423.697418,214.999313 420.636261,214.181519 415.556976,215.252060 
	C397.471924,219.063736 379.267456,222.307541 361.173187,226.078018 
	C357.218811,226.902039 353.136871,228.417282 349.792908,230.637299 
	C336.614838,239.386078 323.656769,248.471069 310.745483,257.612671 
	C308.370636,259.294128 306.150635,261.541351 304.609375,263.998108 
	C292.395752,283.465881 280.310822,303.015320 268.351196,322.640137 
	C267.038757,324.793762 266.148926,327.572113 266.112885,330.075836 
	C265.904236,344.565094 266.118896,359.060211 265.940979,373.550262 
	C265.890961,377.623291 267.580750,379.526978 271.309235,380.668091 
	C281.659760,383.835968 291.867615,387.486023 302.274872,390.441925 
	C305.203674,391.273804 308.931854,391.187134 311.772552,390.126617 
	C330.806396,383.020996 349.699463,375.538391 369.339752,367.888489 
z"/>
<path fill="#95573B" opacity="1.000000" stroke="none" 
	d="
M258.180206,422.108368 
	C258.528381,421.819580 259.083435,421.664032 259.463013,421.855835 
	C288.690155,436.624084 318.569489,434.304504 348.275116,424.257812 
	C393.403809,408.994965 428.273987,380.086639 455.646301,341.151733 
	C456.264679,349.238525 457.357880,357.551575 456.781219,365.747101 
	C455.303986,386.741821 451.510773,407.327881 442.888306,426.741821 
	C440.397614,432.349701 437.717590,437.873505 435.090881,443.810852 
	C419.337921,451.937286 402.940460,457.634216 385.376495,458.914948 
	C373.651520,459.769897 361.790100,460.605347 350.108215,459.777710 
	C331.348846,458.448700 312.945953,454.297913 296.036072,445.827362 
	C283.894379,439.745300 272.486359,432.198608 260.456177,425.159424 
	C259.542633,424.143616 258.923889,423.273651 258.180206,422.108368 
z"/>
<path fill="transparent" opacity="1.000000" stroke="none" 
	d="
M183.120209,420.105530 
	C183.405304,419.693695 183.882370,419.470276 184.359436,419.246857 
	C184.271042,419.601044 184.182648,419.955231 183.896851,420.488373 
	C183.570328,420.542847 183.441254,420.418396 183.120209,420.105530 
z"/>
<path fill="#95573B" opacity="1.000000" stroke="none" 
	d="
M256.950928,421.286163 
	C257.176117,421.156982 257.608978,421.205719 258.089905,421.592773 
	C257.811493,421.775421 257.485046,421.619751 256.950928,421.286163 
z"/>
<path fill="#8F4D2E" opacity="1.000000" stroke="none" 
	d="
M473.982239,213.776093 
	C473.397064,213.429718 472.892914,212.734955 472.636566,211.875046 
	C473.277313,212.282486 473.670288,212.855087 473.982239,213.776093 
z"/>
<path fill="#662E13" opacity="1.000000" stroke="none" 
	d="
M287.936890,151.615829 
	C296.962036,150.272659 304.185089,153.572861 307.720978,160.366653 
	C311.459167,167.549164 310.412018,174.876907 305.079254,180.589264 
	C299.801208,186.243057 293.348328,187.396484 286.395752,185.157059 
	C279.658020,182.986847 275.830658,177.988220 275.006012,170.840073 
	C274.104004,163.021378 277.503296,157.363419 283.885834,153.258438 
	C284.981476,152.553772 286.320343,152.227295 287.936890,151.615829 
z"/>
<path fill="#C7C7C5" opacity="1.000000" stroke="none" 
	d="
M368.988983,368.033264 
	C349.699463,375.538391 330.806396,383.020996 311.772552,390.126617 
	C308.931854,391.187134 305.203674,391.273804 302.274872,390.441925 
	C291.867615,387.486023 281.659760,383.835968 271.309235,380.668091 
	C267.580750,379.526978 265.890961,377.623291 265.940979,373.550262 
	C266.118896,359.060211 265.904236,344.565094 266.112885,330.075836 
	C266.148926,327.572113 267.038757,324.793762 268.351196,322.640137 
	C280.310822,303.015320 292.395752,283.465881 304.609375,263.998108 
	C306.150635,261.541351 308.370636,259.294128 310.745483,257.612671 
	C323.656769,248.471069 336.614838,239.386078 349.792908,230.637299 
	C353.136871,228.417282 357.218811,226.902039 361.173187,226.078018 
	C379.267456,222.307541 397.471924,219.063736 415.556976,215.252060 
	C420.636261,214.181519 423.697418,214.999313 426.630127,219.650818 
	C433.108704,229.926300 440.459503,239.649231 447.053864,249.856415 
	C448.472870,252.052765 449.147278,255.568924 448.547241,258.092560 
	C445.080963,272.671478 441.252838,287.169373 437.238434,301.608795 
	C436.433411,304.504272 434.813110,307.558533 432.688202,309.641174 
	C414.140808,327.819366 395.437592,345.839844 376.638641,363.758118 
	C374.676208,365.628571 371.794800,366.534882 368.988983,368.033264 
z"/>
</svg>