<svg version="1.1" id="Layer_1" xmlns="http://www.w3.org/2000/svg" xmlns:xlink="http://www.w3.org/1999/xlink" x="0px" y="0px"
	 width="100%" viewBox="0 0 512 512" enable-background="new 0 0 512 512" xml:space="preserve">
<path fill="transparent" opacity="1.000000" stroke="none" 
	d="
M267.000000,1.000000 
	C348.964539,1.000000 430.929077,1.000000 512.946777,1.000000 
	C512.946777,171.557404 512.946777,342.114807 512.946777,513.000000 
	C431.311615,513.000000 349.622772,513.000000 267.605469,512.626709 
	C274.157318,510.034088 281.467743,508.664154 287.838776,505.438721 
	C308.341003,495.059235 326.274689,481.338440 341.720612,464.042786 
	C357.970642,445.846741 371.286621,425.775330 382.744141,404.452087 
	C394.050995,383.409332 403.922424,361.616455 408.399170,337.950134 
	C411.476074,321.683868 414.917358,305.283447 415.664642,288.828064 
	C416.734406,265.271912 417.271912,241.532654 412.998566,218.090515 
	C410.386841,203.763489 407.935791,189.401016 404.966339,175.147446 
	C402.876465,165.115845 397.916473,162.297195 388.340332,166.070694 
	C378.190460,170.070312 368.424622,175.044510 358.059174,179.790802 
	C357.732758,178.146027 357.289825,176.317154 357.015839,174.463318 
	C355.874542,166.740860 355.187469,158.926208 353.587097,151.302139 
	C350.671600,137.412872 347.531128,123.554848 343.932770,109.828430 
	C337.659241,85.897110 328.803040,62.925430 315.884918,41.749680 
	C308.858246,30.231356 300.425842,19.541002 289.147461,11.946330 
	C282.377655,7.387674 274.422455,4.589432 267.000000,1.000000 
z"/>
<path fill="transparent" opacity="1.000000" stroke="none" 
	d="
M247.000000,513.000000 
	C165.035461,513.000000 83.070915,513.000000 1.053189,513.000000 
	C1.053189,342.442596 1.053189,171.885193 1.053189,1.000000 
	C82.688385,1.000000 164.377213,1.000000 246.401703,1.367762 
	C234.796341,3.972447 225.361282,10.564841 216.733887,18.720652 
	C203.126083,31.584629 193.912872,47.343147 186.347443,64.211174 
	C171.356857,97.634415 162.644928,132.759888 157.963959,168.983276 
	C157.482849,172.706406 156.575089,176.374405 155.916748,179.800247 
	C145.345413,174.957916 135.566284,169.996613 125.416000,165.971268 
	C116.178192,162.307800 111.132385,165.331329 109.006096,174.916779 
	C107.151413,183.277863 105.332771,191.666351 104.018684,200.123611 
	C101.795555,214.431305 98.723404,228.764420 98.284767,243.156235 
	C97.576256,266.403229 97.040604,289.720276 100.828331,312.930481 
	C103.464912,329.086731 106.674591,345.002625 111.854645,360.531738 
	C118.883408,381.603088 128.894226,401.302002 140.167740,420.300079 
	C151.756210,439.828857 165.287827,458.035339 181.582230,473.991119 
	C186.140381,478.454529 190.842361,482.957001 196.135132,486.444885 
	C206.608688,493.347015 217.345139,499.912994 228.362076,505.902039 
	C234.150345,509.048706 240.760818,510.682831 247.000000,513.000000 
z"/>
<path fill="#580229" opacity="1.000000" stroke="none" 
	d="
M247.468414,513.000000 
	C240.760818,510.682831 234.150345,509.048706 228.362076,505.902039 
	C217.345139,499.912994 206.608688,493.347015 196.135132,486.444885 
	C190.842361,482.957001 186.140381,478.454529 181.582230,473.991119 
	C165.287827,458.035339 151.756210,439.828857 140.167740,420.300079 
	C128.894226,401.302002 118.883408,381.603088 111.854645,360.531738 
	C106.674591,345.002625 103.464912,329.086731 100.828331,312.930481 
	C97.040604,289.720276 97.576256,266.403229 98.284767,243.156235 
	C98.723404,228.764420 101.795555,214.431305 104.018684,200.123611 
	C105.332771,191.666351 107.151413,183.277863 109.006096,174.916779 
	C111.132385,165.331329 116.178192,162.307800 125.416000,165.971268 
	C135.566284,169.996613 145.345413,174.957916 155.916748,179.800247 
	C156.575089,176.374405 157.482849,172.706406 157.963959,168.983276 
	C162.644928,132.759888 171.356857,97.634415 186.347443,64.211174 
	C193.912872,47.343147 203.126083,31.584629 216.733887,18.720652 
	C225.361282,10.564841 234.796341,3.972447 246.868683,1.367762 
	C253.354385,1.000000 259.708771,1.000000 266.531586,1.000000 
	C274.422455,4.589432 282.377655,7.387674 289.147461,11.946330 
	C300.425842,19.541002 308.858246,30.231356 315.884918,41.749680 
	C328.803040,62.925430 337.659241,85.897110 343.932770,109.828430 
	C347.531128,123.554848 350.671600,137.412872 353.587097,151.302139 
	C355.187469,158.926208 355.874542,166.740860 357.015839,174.463318 
	C357.289825,176.317154 357.732758,178.146027 358.059174,179.790802 
	C368.424622,175.044510 378.190460,170.070312 388.340332,166.070694 
	C397.916473,162.297195 402.876465,165.115845 404.966339,175.147446 
	C407.935791,189.401016 410.386841,203.763489 412.998566,218.090515 
	C417.271912,241.532654 416.734406,265.271912 415.664642,288.828064 
	C414.917358,305.283447 411.476074,321.683868 408.399170,337.950134 
	C403.922424,361.616455 394.050995,383.409332 382.744141,404.452087 
	C371.286621,425.775330 357.970642,445.846741 341.720612,464.042786 
	C326.274689,481.338440 308.341003,495.059235 287.838776,505.438721 
	C281.467743,508.664154 274.157318,510.034088 267.138489,512.626709 
	C260.645599,513.000000 254.291214,513.000000 247.468414,513.000000 
M304.415680,434.776550 
	C304.279022,437.883179 304.142365,440.989838 304.005707,444.096466 
	C304.653748,444.230713 305.301758,444.364960 305.949799,444.499207 
	C312.715393,426.000153 319.481018,407.501099 326.451599,388.441528 
	C323.488556,388.162872 322.010925,388.101135 320.559296,387.873688 
	C315.047028,387.010040 311.489746,382.873169 311.638275,377.574493 
	C311.787079,372.265839 315.547699,368.403534 321.168213,367.904816 
	C322.988678,367.743317 324.847870,367.640106 326.657806,367.822815 
	C329.629578,368.122833 330.687714,366.885010 331.110382,363.979095 
	C332.307190,355.750336 333.990234,347.590790 335.109680,339.353424 
	C335.334290,337.700836 334.384033,335.365692 333.173767,334.131226 
	C327.860870,328.712006 328.753967,321.095612 335.338654,317.265717 
	C336.489227,316.596466 338.124542,315.497345 338.221130,314.472809 
	C339.293976,303.094666 340.107635,291.692139 340.981812,280.418671 
	C332.842255,278.387939 329.991669,275.660370 329.803009,270.192566 
	C329.608124,264.544922 332.294250,261.825195 340.674561,259.069275 
	C340.674561,247.945114 340.674561,236.883850 340.674561,225.925919 
	C329.365387,224.140778 325.696442,221.642090 325.850372,215.520935 
	C325.905182,213.341309 326.523315,210.347153 328.016510,209.205017 
	C331.116394,206.833908 334.973602,205.452850 339.292664,203.274902 
	C338.236450,193.929626 337.134064,183.526810 335.778046,173.157150 
	C335.638733,172.091949 334.155243,170.822784 333.003784,170.330200 
	C324.416504,166.656799 323.155518,158.595078 330.123749,152.199356 
	C331.082886,151.319046 331.846069,149.378159 331.592407,148.158646 
	C329.696747,139.044891 327.663177,129.952164 325.301941,120.950134 
	C324.889557,119.377914 322.951935,117.570938 321.340607,117.056274 
	C313.773834,114.639404 310.947906,106.349602 316.251892,100.439468 
	C318.162048,98.311012 318.327545,96.737602 317.297516,94.329849 
	C313.572784,85.623390 310.133698,76.791519 306.238281,68.164375 
	C305.570007,66.684387 303.298492,65.283012 301.595703,65.037483 
	C296.656555,64.325325 291.953461,62.992573 291.068054,57.597069 
	C290.484131,54.038654 291.832703,50.163113 292.494598,45.049606 
	C269.808044,11.937389 241.814423,14.475304 220.530319,46.794720 
	C226.747940,56.825912 223.396423,63.574554 211.654938,65.005447 
	C210.362015,65.163010 208.624969,66.365280 208.116791,67.529503 
	C204.128922,76.665680 200.297729,85.874634 196.682556,95.164024 
	C196.181747,96.450882 196.614838,98.700081 197.488968,99.825264 
	C202.886261,106.772682 200.574493,114.469597 192.297089,117.090919 
	C190.932907,117.522926 189.303131,119.102242 188.959290,120.448433 
	C186.697021,129.305389 184.854889,138.269058 182.642624,147.139801 
	C182.003815,149.701279 182.230164,151.144440 184.516907,152.954620 
	C190.014465,157.306534 189.759491,166.239639 183.601074,168.826035 
	C178.491333,170.972031 177.737991,174.206192 177.553497,178.648422 
	C177.457062,180.970001 177.415161,183.405670 176.687988,185.567596 
	C174.760330,191.298599 176.825928,194.650818 181.880203,197.620575 
	C187.661118,201.017334 192.396912,205.783020 200.069946,205.558960 
	C204.990356,205.415298 207.647644,209.490341 208.549789,214.539398 
	C208.940933,216.728531 210.156021,219.071014 211.679337,220.709213 
	C222.781708,232.648972 234.005920,244.477371 245.338745,256.198700 
	C246.923538,257.837830 249.170975,259.292023 251.354095,259.809845 
	C257.463196,261.258850 260.901520,266.161957 259.888519,272.354523 
	C259.601929,274.106445 259.753387,276.247833 260.524200,277.804382 
	C266.349182,289.567047 272.302856,301.268433 278.428558,312.876984 
	C279.313232,314.553467 281.120728,316.073273 282.864075,316.903992 
	C287.948242,319.326599 291.063995,324.684021 288.620178,329.559418 
	C286.691406,333.407318 287.509125,336.368042 288.709229,339.874908 
	C299.131104,370.329315 305.575562,401.464050 304.415680,434.776550 
M125.950546,194.591614 
	C121.625015,216.359070 119.404602,238.325241 118.758415,260.524261 
	C117.346474,309.030029 127.121300,354.733978 151.185349,397.191711 
	C169.010834,428.642273 189.346817,457.852234 220.321198,477.979706 
	C229.941696,484.231201 240.065994,489.447540 252.095261,492.170685 
	C251.038208,489.715210 250.304184,487.930176 249.508362,486.173096 
	C227.198914,436.917877 204.875183,387.669128 182.598297,338.399170 
	C181.719025,336.454498 180.956009,334.351990 180.696274,332.253998 
	C180.129410,327.675110 182.786514,323.496857 186.998886,322.047333 
	C191.587280,320.468414 195.609482,321.532013 198.510025,325.444733 
	C199.975067,327.421021 200.987137,329.765259 202.014297,332.029205 
	C224.217453,380.967285 246.392700,429.918030 268.579590,478.863495 
	C269.423157,480.724518 270.329254,482.557190 271.497498,485.016113 
	C279.350494,472.339844 281.512390,458.848816 283.065826,445.315216 
	C285.929565,420.366241 283.275452,395.762878 276.921692,371.569458 
	C268.680542,340.189301 257.374969,310.012299 239.369415,282.793945 
	C216.950592,248.904221 186.572510,223.509674 152.085220,202.727554 
	C144.156494,197.949692 135.838486,193.817856 127.352661,189.199905 
	C126.769257,191.242340 126.408478,192.505402 125.950546,194.591614 
M359.793701,305.148804 
	C357.026550,325.413574 354.937866,345.800049 351.329681,365.913971 
	C346.198639,394.517395 338.043274,422.326324 326.032928,449.004211 
	C351.945953,419.942566 371.572632,387.061646 383.457733,350.017853 
	C400.436218,297.099030 397.670349,243.507095 387.067505,188.838959 
	C378.050110,193.792068 369.858063,198.176636 361.828979,202.841644 
	C360.775177,203.453903 360.014709,205.513809 360.043884,206.883469 
	C360.168030,212.705399 360.981110,218.523026 360.927795,224.336578 
	C360.683472,250.965652 360.232208,277.592834 359.793701,305.148804 
z"/>
<path fill="#FBE268" opacity="1.000000" stroke="none" 
	d="
M304.427795,434.317993 
	C305.575562,401.464050 299.131104,370.329315 288.709229,339.874908 
	C287.509125,336.368042 286.691406,333.407318 288.620178,329.559418 
	C291.063995,324.684021 287.948242,319.326599 282.864075,316.903992 
	C281.120728,316.073273 279.313232,314.553467 278.428558,312.876984 
	C272.302856,301.268433 266.349182,289.567047 260.524200,277.804382 
	C259.753387,276.247833 259.601929,274.106445 259.888519,272.354523 
	C260.901520,266.161957 257.463196,261.258850 251.354095,259.809845 
	C249.170975,259.292023 246.923538,257.837830 245.338745,256.198700 
	C234.005920,244.477371 222.781708,232.648972 211.679337,220.709213 
	C210.156021,219.071014 208.940933,216.728531 208.549789,214.539398 
	C207.647644,209.490341 204.990356,205.415298 200.069946,205.558960 
	C192.396912,205.783020 187.661118,201.017334 181.880203,197.620575 
	C176.825928,194.650818 174.760330,191.298599 176.687988,185.567596 
	C177.415161,183.405670 177.457062,180.970001 177.553497,178.648422 
	C177.737991,174.206192 178.491333,170.972031 183.601074,168.826035 
	C189.759491,166.239639 190.014465,157.306534 184.516907,152.954620 
	C182.230164,151.144440 182.003815,149.701279 182.642624,147.139801 
	C184.854889,138.269058 186.697021,129.305389 188.959290,120.448433 
	C189.303131,119.102242 190.932907,117.522926 192.297089,117.090919 
	C200.574493,114.469597 202.886261,106.772682 197.488968,99.825264 
	C196.614838,98.700081 196.181747,96.450882 196.682556,95.164024 
	C200.297729,85.874634 204.128922,76.665680 208.116791,67.529503 
	C208.624969,66.365280 210.362015,65.163010 211.654938,65.005447 
	C223.396423,63.574554 226.747940,56.825912 220.530319,46.794720 
	C241.814423,14.475304 269.808044,11.937389 292.494598,45.049606 
	C291.832703,50.163113 290.484131,54.038654 291.068054,57.597069 
	C291.953461,62.992573 296.656555,64.325325 301.595703,65.037483 
	C303.298492,65.283012 305.570007,66.684387 306.238281,68.164375 
	C310.133698,76.791519 313.572784,85.623390 317.297516,94.329849 
	C318.327545,96.737602 318.162048,98.311012 316.251892,100.439468 
	C310.947906,106.349602 313.773834,114.639404 321.340607,117.056274 
	C322.951935,117.570938 324.889557,119.377914 325.301941,120.950134 
	C327.663177,129.952164 329.696747,139.044891 331.592407,148.158646 
	C331.846069,149.378159 331.082886,151.319046 330.123749,152.199356 
	C323.155518,158.595078 324.416504,166.656799 333.003784,170.330200 
	C334.155243,170.822784 335.638733,172.091949 335.778046,173.157150 
	C337.134064,183.526810 338.236450,193.929626 339.292664,203.274902 
	C334.973602,205.452850 331.116394,206.833908 328.016510,209.205017 
	C326.523315,210.347153 325.905182,213.341309 325.850372,215.520935 
	C325.696442,221.642090 329.365387,224.140778 340.674561,225.925919 
	C340.674561,236.883850 340.674561,247.945114 340.674561,259.069275 
	C332.294250,261.825195 329.608124,264.544922 329.803009,270.192566 
	C329.991669,275.660370 332.842255,278.387939 340.981812,280.418671 
	C340.107635,291.692139 339.293976,303.094666 338.221130,314.472809 
	C338.124542,315.497345 336.489227,316.596466 335.338654,317.265717 
	C328.753967,321.095612 327.860870,328.712006 333.173767,334.131226 
	C334.384033,335.365692 335.334290,337.700836 335.109680,339.353424 
	C333.990234,347.590790 332.307190,355.750336 331.110382,363.979095 
	C330.687714,366.885010 329.629578,368.122833 326.657806,367.822815 
	C324.847870,367.640106 322.988678,367.743317 321.168213,367.904816 
	C315.547699,368.403534 311.787079,372.265839 311.638275,377.574493 
	C311.489746,382.873169 315.047028,387.010040 320.559296,387.873688 
	C322.010925,388.101135 323.488556,388.162872 326.451599,388.441528 
	C319.481018,407.501099 312.715393,426.000153 305.949799,444.499207 
	C305.301758,444.364960 304.653748,444.230713 304.005707,444.096466 
	C304.142365,440.989838 304.279022,437.883179 304.427795,434.317993 
M242.858231,48.552395 
	C238.517456,56.088326 241.545837,63.599567 249.882065,64.556343 
	C255.245132,65.171890 260.843018,64.797142 266.207489,64.001778 
	C270.298828,63.395172 272.592285,60.098003 273.089294,55.865841 
	C273.611237,51.421318 271.857971,48.063755 268.023376,45.862324 
	C262.765015,42.843533 248.183823,44.101604 242.858231,48.552395 
M296.410492,280.001617 
	C298.075409,279.984802 299.751526,280.086456 301.403198,279.929962 
	C307.489258,279.353394 311.428650,275.151245 311.288147,269.497742 
	C311.152374,264.036072 307.301819,260.135681 301.282196,259.800323 
	C296.968079,259.559967 292.617493,259.562408 288.304321,259.816071 
	C282.510864,260.156769 278.427124,264.351593 278.325470,269.629791 
	C278.224731,274.858429 282.273651,279.275024 287.979431,279.886169 
	C290.450867,280.150848 292.969330,279.976501 296.410492,280.001617 
M252.894379,206.230774 
	C246.313538,206.040894 239.670670,205.222336 233.171799,205.863419 
	C228.127914,206.360977 225.517120,211.124329 225.955292,216.234818 
	C226.360611,220.962097 229.667877,224.614807 234.596390,225.046616 
	C239.058685,225.437576 243.572784,225.345886 248.061951,225.292099 
	C252.872086,225.234497 256.512756,223.015457 257.871216,218.331696 
	C259.243805,213.599182 258.019318,209.445175 252.894379,206.230774 
M308.244415,214.606232 
	C307.830658,209.957352 305.481689,206.302521 300.897644,205.790985 
	C295.028381,205.136032 288.953857,205.073471 283.108032,205.833832 
	C278.047913,206.492004 275.483704,211.040817 275.891479,216.198441 
	C276.267151,220.949753 279.537872,224.589951 284.465912,225.042358 
	C288.757751,225.436371 293.107422,225.440231 297.421265,225.300034 
	C304.191925,225.080002 307.161224,222.261642 308.244415,214.606232 
M217.224182,110.671906 
	C219.293137,115.297249 222.947433,117.338531 227.920914,117.284134 
	C231.406189,117.246010 234.898544,117.394936 238.376205,117.224785 
	C244.786789,116.911118 249.064163,112.688087 248.944687,107.007553 
	C248.825241,101.327553 244.450317,97.253799 238.059555,97.014397 
	C234.910034,96.896416 231.752029,96.951500 228.598816,96.996353 
	C220.008347,97.118553 216.295654,101.272385 217.224182,110.671906 
M265.575623,104.385963 
	C264.340790,111.913620 268.017242,116.806175 275.445740,117.199234 
	C279.417816,117.409409 283.422363,117.400307 287.392456,117.161201 
	C293.356781,116.801987 297.151733,112.899658 297.263336,107.395256 
	C297.378632,101.708740 293.455383,97.468819 287.384674,97.066872 
	C283.747070,96.826027 280.081818,97.001373 276.429016,96.991386 
	C271.491547,96.977898 267.759979,98.895050 265.575623,104.385963 
M290.737396,170.203293 
	C296.011505,170.266144 301.359894,170.902039 306.538757,170.230469 
	C311.704498,169.560623 314.432495,165.226303 314.194916,160.148438 
	C313.963806,155.208313 310.632294,151.454285 305.461823,150.891464 
	C301.841064,150.497360 298.151520,150.483078 294.505829,150.628403 
	C288.834839,150.854477 285.081635,153.689804 284.038422,158.151749 
	C282.846741,163.248413 284.542542,166.647095 290.737396,170.203293 
M245.563980,152.848984 
	C241.767090,155.787811 240.986801,159.792419 242.297043,164.040878 
	C243.598953,168.262390 247.058609,170.570663 251.327133,170.761475 
	C255.939056,170.967636 260.677582,170.925827 265.188812,170.077362 
	C269.741241,169.221146 272.037628,165.656067 272.198669,160.979431 
	C272.361450,156.252533 270.050446,151.990738 265.744080,151.520889 
	C259.336670,150.821793 252.726807,151.978485 245.563980,152.848984 
M213.577332,150.557114 
	C212.249969,150.593826 210.913971,150.546387 209.596756,150.681732 
	C203.756271,151.281845 200.110016,154.800125 199.816772,160.046692 
	C199.506668,165.595215 202.886322,170.079010 208.771591,170.630417 
	C213.499557,171.073380 218.422577,170.929718 223.090927,170.100189 
	C227.926834,169.240891 230.466309,164.997726 230.220444,160.119827 
	C229.981537,155.379578 226.788559,151.686676 221.972565,150.954346 
	C219.527176,150.582489 217.011230,150.674469 213.577332,150.557114 
M319.135193,334.887177 
	C323.110321,332.133270 324.839661,328.434113 323.502594,323.681610 
	C322.098663,318.691620 318.330963,316.387970 313.465088,316.191376 
	C309.684662,316.038666 305.781647,316.178009 302.102631,316.972565 
	C297.785980,317.904846 294.709229,322.482941 295.113678,326.722290 
	C295.562469,331.426270 297.894897,335.407471 302.780975,335.873291 
	C307.937225,336.364899 313.220673,335.522369 319.135193,334.887177 
z"/>
<path fill="#C0DB3C" opacity="1.000000" stroke="none" 
	d="
M125.999123,194.180038 
	C126.408478,192.505402 126.769257,191.242340 127.352661,189.199905 
	C135.838486,193.817856 144.156494,197.949692 152.085220,202.727554 
	C186.572510,223.509674 216.950592,248.904221 239.369415,282.793945 
	C257.374969,310.012299 268.680542,340.189301 276.921692,371.569458 
	C283.275452,395.762878 285.929565,420.366241 283.065826,445.315216 
	C281.512390,458.848816 279.350494,472.339844 271.497498,485.016113 
	C270.329254,482.557190 269.423157,480.724518 268.579590,478.863495 
	C246.392700,429.918030 224.217453,380.967285 202.014297,332.029205 
	C200.987137,329.765259 199.975067,327.421021 198.510025,325.444733 
	C195.609482,321.532013 191.587280,320.468414 186.998886,322.047333 
	C182.786514,323.496857 180.129410,327.675110 180.696274,332.253998 
	C180.956009,334.351990 181.719025,336.454498 182.598297,338.399170 
	C204.875183,387.669128 227.198914,436.917877 249.508362,486.173096 
	C250.304184,487.930176 251.038208,489.715210 252.095261,492.170685 
	C240.065994,489.447540 229.941696,484.231201 220.321198,477.979706 
	C189.346817,457.852234 169.010834,428.642273 151.185349,397.191711 
	C127.121300,354.733978 117.346474,309.030029 118.758415,260.524261 
	C119.404602,238.325241 121.625015,216.359070 125.999123,194.180038 
M163.526154,295.777710 
	C164.887177,298.798553 165.940994,302.011414 167.680878,304.795471 
	C170.317825,309.015015 175.570969,310.287018 180.009232,308.274323 
	C184.498795,306.238342 186.918610,301.547089 185.621033,296.744293 
	C184.933426,294.199127 183.856766,291.716278 182.648087,289.363342 
	C179.914520,284.041901 175.326431,281.898712 170.360062,283.380219 
	C165.338745,284.878113 162.980225,288.752075 163.526154,295.777710 
z"/>
<path fill="#C0DA3C" opacity="1.000000" stroke="none" 
	d="
M359.824463,304.684753 
	C360.232208,277.592834 360.683472,250.965652 360.927795,224.336578 
	C360.981110,218.523026 360.168030,212.705399 360.043884,206.883469 
	C360.014709,205.513809 360.775177,203.453903 361.828979,202.841644 
	C369.858063,198.176636 378.050110,193.792068 387.067505,188.838959 
	C397.670349,243.507095 400.436218,297.099030 383.457733,350.017853 
	C371.572632,387.061646 351.945953,419.942566 326.032928,449.004211 
	C338.043274,422.326324 346.198639,394.517395 351.329681,365.913971 
	C354.937866,345.800049 357.026550,325.413574 359.824463,304.684753 
z"/>
<path fill="#5B052B" opacity="1.000000" stroke="none" 
	d="
M243.078217,48.231529 
	C248.183823,44.101604 262.765015,42.843533 268.023376,45.862324 
	C271.857971,48.063755 273.611237,51.421318 273.089294,55.865841 
	C272.592285,60.098003 270.298828,63.395172 266.207489,64.001778 
	C260.843018,64.797142 255.245132,65.171890 249.882065,64.556343 
	C241.545837,63.599567 238.517456,56.088326 243.078217,48.231529 
z"/>
<path fill="#59032A" opacity="1.000000" stroke="none" 
	d="
M295.938477,280.001587 
	C292.969330,279.976501 290.450867,280.150848 287.979431,279.886169 
	C282.273651,279.275024 278.224731,274.858429 278.325470,269.629791 
	C278.427124,264.351593 282.510864,260.156769 288.304321,259.816071 
	C292.617493,259.562408 296.968079,259.559967 301.282196,259.800323 
	C307.301819,260.135681 311.152374,264.036072 311.288147,269.497742 
	C311.428650,275.151245 307.489258,279.353394 301.403198,279.929962 
	C299.751526,280.086456 298.075409,279.984802 295.938477,280.001587 
z"/>
<path fill="#5A032A" opacity="1.000000" stroke="none" 
	d="
M253.219040,206.462845 
	C258.019318,209.445175 259.243805,213.599182 257.871216,218.331696 
	C256.512756,223.015457 252.872086,225.234497 248.061951,225.292099 
	C243.572784,225.345886 239.058685,225.437576 234.596390,225.046616 
	C229.667877,224.614807 226.360611,220.962097 225.955292,216.234818 
	C225.517120,211.124329 228.127914,206.360977 233.171799,205.863419 
	C239.670670,205.222336 246.313538,206.040894 253.219040,206.462845 
z"/>
<path fill="#59032A" opacity="1.000000" stroke="none" 
	d="
M308.272736,215.023407 
	C307.161224,222.261642 304.191925,225.080002 297.421265,225.300034 
	C293.107422,225.440231 288.757751,225.436371 284.465912,225.042358 
	C279.537872,224.589951 276.267151,220.949753 275.891479,216.198441 
	C275.483704,211.040817 278.047913,206.492004 283.108032,205.833832 
	C288.953857,205.073471 295.028381,205.136032 300.897644,205.790985 
	C305.481689,206.302521 307.830658,209.957352 308.272736,215.023407 
z"/>
<path fill="#59032A" opacity="1.000000" stroke="none" 
	d="
M217.136871,110.268410 
	C216.295654,101.272385 220.008347,97.118553 228.598816,96.996353 
	C231.752029,96.951500 234.910034,96.896416 238.059555,97.014397 
	C244.450317,97.253799 248.825241,101.327553 248.944687,107.007553 
	C249.064163,112.688087 244.786789,116.911118 238.376205,117.224785 
	C234.898544,117.394936 231.406189,117.246010 227.920914,117.284134 
	C222.947433,117.338531 219.293137,115.297249 217.136871,110.268410 
z"/>
<path fill="#59032A" opacity="1.000000" stroke="none" 
	d="
M265.685669,104.012253 
	C267.759979,98.895050 271.491547,96.977898 276.429016,96.991386 
	C280.081818,97.001373 283.747070,96.826027 287.384674,97.066872 
	C293.455383,97.468819 297.378632,101.708740 297.263336,107.395256 
	C297.151733,112.899658 293.356781,116.801987 287.392456,117.161201 
	C283.422363,117.400307 279.417816,117.409409 275.445740,117.199234 
	C268.017242,116.806175 264.340790,111.913620 265.685669,104.012253 
z"/>
<path fill="#59032A" opacity="1.000000" stroke="none" 
	d="
M290.343750,170.101624 
	C284.542542,166.647095 282.846741,163.248413 284.038422,158.151749 
	C285.081635,153.689804 288.834839,150.854477 294.505829,150.628403 
	C298.151520,150.483078 301.841064,150.497360 305.461823,150.891464 
	C310.632294,151.454285 313.963806,155.208313 314.194916,160.148438 
	C314.432495,165.226303 311.704498,169.560623 306.538757,170.230469 
	C301.359894,170.902039 296.011505,170.266144 290.343750,170.101624 
z"/>
<path fill="#59032A" opacity="1.000000" stroke="none" 
	d="
M245.883545,152.597214 
	C252.726807,151.978485 259.336670,150.821793 265.744080,151.520889 
	C270.050446,151.990738 272.361450,156.252533 272.198669,160.979431 
	C272.037628,165.656067 269.741241,169.221146 265.188812,170.077362 
	C260.677582,170.925827 255.939056,170.967636 251.327133,170.761475 
	C247.058609,170.570663 243.598953,168.262390 242.297043,164.040878 
	C240.986801,159.792419 241.767090,155.787811 245.883545,152.597214 
z"/>
<path fill="#59032A" opacity="1.000000" stroke="none" 
	d="
M214.052261,150.556931 
	C217.011230,150.674469 219.527176,150.582489 221.972565,150.954346 
	C226.788559,151.686676 229.981537,155.379578 230.220444,160.119827 
	C230.466309,164.997726 227.926834,169.240891 223.090927,170.100189 
	C218.422577,170.929718 213.499557,171.073380 208.771591,170.630417 
	C202.886322,170.079010 199.506668,165.595215 199.816772,160.046692 
	C200.110016,154.800125 203.756271,151.281845 209.596756,150.681732 
	C210.913971,150.546387 212.249969,150.593826 214.052261,150.556931 
z"/>
<path fill="#5B062B" opacity="1.000000" stroke="none" 
	d="
M318.791870,335.074890 
	C313.220673,335.522369 307.937225,336.364899 302.780975,335.873291 
	C297.894897,335.407471 295.562469,331.426270 295.113678,326.722290 
	C294.709229,322.482941 297.785980,317.904846 302.102631,316.972565 
	C305.781647,316.178009 309.684662,316.038666 313.465088,316.191376 
	C318.330963,316.387970 322.098663,318.691620 323.502594,323.681610 
	C324.839661,328.434113 323.110321,332.133270 318.791870,335.074890 
z"/>
<path fill="#5A0529" opacity="1.000000" stroke="none" 
	d="
M163.401825,295.395660 
	C162.980225,288.752075 165.338745,284.878113 170.360062,283.380219 
	C175.326431,281.898712 179.914520,284.041901 182.648087,289.363342 
	C183.856766,291.716278 184.933426,294.199127 185.621033,296.744293 
	C186.918610,301.547089 184.498795,306.238342 180.009232,308.274323 
	C175.570969,310.287018 170.317825,309.015015 167.680878,304.795471 
	C165.940994,302.011414 164.887177,298.798553 163.401825,295.395660 
z"/>
</svg>