<svg version="1.1" id="Layer_1" xmlns="http://www.w3.org/2000/svg" xmlns:xlink="http://www.w3.org/1999/xlink" x="0px" y="0px"
	 width="100%" viewBox="0 0 512 512" enable-background="new 0 0 512 512" xml:space="preserve">
<path fill="transparent" opacity="1.000000" stroke="none" 
	d="
M0.999999,329.000000 
	C1.000000,219.711975 1.000000,110.423943 1.000000,1.067957 
	C171.550613,1.067957 342.101257,1.067957 513.000000,1.067957 
	C513.000000,70.021622 513.000000,139.043839 512.629517,208.489914 
	C509.169922,200.763077 506.380493,192.482727 502.923859,184.490982 
	C497.266541,171.411362 489.821564,159.603790 478.269531,150.659210 
	C465.952545,141.122375 451.445190,136.991791 436.861359,133.029816 
	C416.173279,127.409546 395.768280,121.024765 376.236725,112.091797 
	C360.257507,104.783524 348.015228,92.374588 334.915131,81.244873 
	C319.343292,68.015205 303.801544,54.821533 285.978851,44.658401 
	C259.983673,29.835041 232.303848,22.838043 202.277176,26.920408 
	C172.794708,30.928789 146.452835,42.071075 123.385529,61.010799 
	C102.543030,78.123810 90.456703,100.625458 85.287285,126.399361 
	C80.054817,152.487579 77.043015,179.019318 72.976280,205.344086 
	C71.033928,217.917328 67.925392,230.084915 59.482082,240.156219 
	C49.264824,252.343475 38.945694,264.446655 28.837347,276.723511 
	C16.670233,291.500793 7.019636,307.627472 2.924702,326.633881 
	C2.733854,327.519684 1.661701,328.215637 0.999999,329.000000 
z"/>
<path fill="transparent" opacity="1.000000" stroke="none" 
	d="
M513.000000,245.000000 
	C513.000000,334.290985 513.000000,423.581940 513.000000,512.936462 
	C342.456604,512.936462 171.913208,512.936462 1.000000,512.936462 
	C1.000000,466.645874 1.000000,420.290802 1.381353,373.524902 
	C2.132967,373.624664 2.740478,374.093353 2.838989,374.651794 
	C5.739682,391.095551 10.719464,406.762299 18.712465,421.547516 
	C31.138836,444.533508 49.609470,460.290955 74.127403,468.822662 
	C93.112015,475.428894 112.692871,477.224915 132.839493,476.212555 
	C154.511368,475.123444 175.587692,471.357452 196.529236,466.100800 
	C211.596237,462.318756 227.023636,460.292084 242.337631,463.281067 
	C259.385223,466.608368 276.129852,471.466278 293.050476,475.471466 
	C311.092285,479.741974 328.999573,485.293945 347.303253,487.565460 
	C370.604675,490.457153 393.362701,486.215088 414.174866,474.374969 
	C427.588226,466.744049 437.389252,455.949799 443.325409,441.565979 
	C448.808044,428.281036 450.301605,414.284515 450.871796,400.214111 
	C451.424500,386.574921 450.697235,372.887299 451.089844,359.237000 
	C451.378082,349.215302 453.244354,339.429352 459.533081,331.086609 
	C466.716248,321.557220 473.882843,312.015320 481.052734,302.475891 
	C493.854950,285.442688 505.783508,267.942108 511.098267,246.852142 
	C511.282410,246.121414 512.346191,245.612366 513.000000,245.000000 
z"/>
<path fill="#4C2C23" opacity="1.000000" stroke="none" 
	d="
M513.000000,244.531342 
	C512.346191,245.612366 511.282410,246.121414 511.098267,246.852142 
	C505.783508,267.942108 493.854950,285.442688 481.052734,302.475891 
	C473.882843,312.015320 466.716248,321.557220 459.533081,331.086609 
	C453.244354,339.429352 451.378082,349.215302 451.089844,359.237000 
	C450.697235,372.887299 451.424500,386.574921 450.871796,400.214111 
	C450.301605,414.284515 448.808044,428.281036 443.325409,441.565979 
	C437.389252,455.949799 427.588226,466.744049 414.174866,474.374969 
	C393.362701,486.215088 370.604675,490.457153 347.303253,487.565460 
	C328.999573,485.293945 311.092285,479.741974 293.050476,475.471466 
	C276.129852,471.466278 259.385223,466.608368 242.337631,463.281067 
	C227.023636,460.292084 211.596237,462.318756 196.529236,466.100800 
	C175.587692,471.357452 154.511368,475.123444 132.839493,476.212555 
	C112.692871,477.224915 93.112015,475.428894 74.127403,468.822662 
	C49.609470,460.290955 31.138836,444.533508 18.712465,421.547516 
	C10.719464,406.762299 5.739682,391.095551 2.838989,374.651794 
	C2.740478,374.093353 2.132967,373.624664 1.381353,373.057068 
	C1.000000,358.645782 1.000000,344.291534 0.999999,329.468658 
	C1.661701,328.215637 2.733854,327.519684 2.924702,326.633881 
	C7.019636,307.627472 16.670233,291.500793 28.837347,276.723511 
	C38.945694,264.446655 49.264824,252.343475 59.482082,240.156219 
	C67.925392,230.084915 71.033928,217.917328 72.976280,205.344086 
	C77.043015,179.019318 80.054817,152.487579 85.287285,126.399361 
	C90.456703,100.625458 102.543030,78.123810 123.385529,61.010799 
	C146.452835,42.071075 172.794708,30.928789 202.277176,26.920408 
	C232.303848,22.838043 259.983673,29.835041 285.978851,44.658401 
	C303.801544,54.821533 319.343292,68.015205 334.915131,81.244873 
	C348.015228,92.374588 360.257507,104.783524 376.236725,112.091797 
	C395.768280,121.024765 416.173279,127.409546 436.861359,133.029816 
	C451.445190,136.991791 465.952545,141.122375 478.269531,150.659210 
	C489.821564,159.603790 497.266541,171.411362 502.923859,184.490982 
	C506.380493,192.482727 509.169922,200.763077 512.629517,208.956894 
	C513.000000,220.687561 513.000000,232.375122 513.000000,244.531342 
M50.017597,440.752899 
	C67.490952,455.986328 88.450844,462.225922 111.001732,463.920563 
	C135.997513,465.798950 160.652298,462.773987 184.722672,456.282074 
	C210.362640,449.366821 235.985352,447.865631 261.739502,454.287628 
	C280.938995,459.075165 299.868439,464.938232 318.952606,470.197174 
	C344.175995,477.147949 369.407257,479.058167 394.598083,469.931671 
	C412.881256,463.307770 427.142731,452.254059 433.334747,433.160553 
	C435.724457,425.791687 437.414093,417.948456 437.826508,410.235992 
	C438.742096,393.112732 438.547607,375.932861 438.998718,358.781128 
	C439.371002,344.625793 443.279907,331.844391 452.150787,320.296204 
	C464.516937,304.197968 476.434296,287.702148 487.614990,270.763458 
	C496.044159,257.993286 501.015320,243.671524 501.170227,227.997116 
	C501.349426,209.867188 494.991425,193.672043 486.020660,178.493546 
	C482.389404,172.349487 476.800598,167.362335 471.742401,161.282715 
	C461.994843,152.871994 449.939240,149.537170 437.984863,146.048294 
	C404.702393,136.334808 370.729980,128.234665 343.029541,104.288628 
	C327.331940,91.410164 312.143127,77.843033 295.833527,65.792877 
	C258.930511,38.527462 218.712830,29.890144 174.393753,45.961452 
	C132.063080,61.311714 103.720428,88.921829 95.757698,134.429779 
	C91.918091,156.373581 88.942635,178.481506 86.093636,200.581863 
	C83.555702,220.269257 78.234253,238.633484 64.775742,253.888336 
	C56.183403,263.627472 47.764431,273.519379 39.230312,283.310181 
	C7.599410,319.598877 5.917838,360.837646 25.008102,406.736053 
	C31.093489,419.489471 38.199635,431.482147 50.017597,440.752899 
z"/>
<path fill="#F5F4EB" opacity="1.000000" stroke="none" 
	d="
M343.386017,104.883911 
	C370.729980,128.234665 404.702393,136.334808 437.984863,146.048294 
	C449.939240,149.537170 461.994843,152.871994 471.906586,161.955353 
	C472.139435,163.122635 472.105713,163.659958 472.291473,164.105789 
	C480.401154,183.565735 484.601379,203.596375 482.164276,224.833344 
	C480.557770,238.832504 475.751373,251.566940 468.878143,263.710999 
	C460.706726,278.148773 447.513428,288.196838 436.882233,300.479858 
	C424.355682,314.952789 413.485016,330.372925 410.413086,349.509674 
	C407.898407,365.174774 407.462677,381.171387 406.048126,397.015900 
	C404.134033,418.455444 393.433197,434.010956 373.844849,442.746033 
	C355.058990,451.123291 336.248718,448.828217 317.573944,441.334473 
	C306.152405,436.751282 294.548981,432.521698 282.793121,428.891388 
	C255.450653,420.447784 227.826172,419.196106 200.241699,427.746613 
	C185.300262,432.378082 170.671890,438.033386 155.690063,442.517792 
	C125.892113,451.437073 95.818352,454.636658 65.463417,444.894287 
	C60.280922,443.230957 55.061451,441.682800 49.859062,440.081451 
	C38.199635,431.482147 31.093489,419.489471 25.227425,406.080475 
	C25.519171,404.456818 25.796364,403.452667 25.633265,402.526031 
	C23.232805,388.888184 22.331499,375.281128 23.819988,361.382355 
	C26.077423,340.303528 32.925861,321.134613 46.044083,304.546204 
	C57.576328,289.963318 70.037590,276.118561 81.724846,261.653961 
	C98.647400,240.709900 107.920883,216.789169 109.074272,189.716888 
	C109.582092,177.797455 110.219345,165.801590 112.055099,154.036606 
	C116.886749,123.071426 130.528290,96.926697 156.411423,78.191917 
	C173.196320,66.042641 191.528854,57.981411 212.746475,57.987011 
	C236.395706,57.993252 258.427216,65.006752 279.584290,74.510056 
	C299.295105,83.363731 318.341919,93.693024 337.723419,103.287109 
	C339.451080,104.142319 341.491089,104.366600 343.386017,104.883911 
M193.841858,339.817841 
	C194.730988,341.192780 195.446259,342.726379 196.534821,343.919342 
	C220.504593,370.187195 250.049454,382.065857 285.595612,378.048004 
	C336.532928,372.290436 380.627747,325.764557 373.586700,265.855865 
	C368.999146,226.822571 347.092896,199.460663 311.044312,183.732574 
	C306.657074,181.818420 301.679321,181.257721 296.260498,179.882919 
	C279.697998,173.117432 262.711853,169.895233 244.655930,171.781067 
	C190.176331,177.471085 150.929794,231.656387 162.491608,285.363068 
	C167.109909,306.815918 178.287659,324.206635 193.841858,339.817841 
z"/>
<path fill="#C4C0A4" opacity="1.000000" stroke="none" 
	d="
M49.938332,440.417175 
	C55.061451,441.682800 60.280922,443.230957 65.463417,444.894287 
	C95.818352,454.636658 125.892113,451.437073 155.690063,442.517792 
	C170.671890,438.033386 185.300262,432.378082 200.241699,427.746613 
	C227.826172,419.196106 255.450653,420.447784 282.793121,428.891388 
	C294.548981,432.521698 306.152405,436.751282 317.573944,441.334473 
	C336.248718,448.828217 355.058990,451.123291 373.844849,442.746033 
	C393.433197,434.010956 404.134033,418.455444 406.048126,397.015900 
	C407.462677,381.171387 407.898407,365.174774 410.413086,349.509674 
	C413.485016,330.372925 424.355682,314.952789 436.882233,300.479858 
	C447.513428,288.196838 460.706726,278.148773 468.878143,263.710999 
	C475.751373,251.566940 480.557770,238.832504 482.164276,224.833344 
	C484.601379,203.596375 480.401154,183.565735 472.291473,164.105789 
	C472.105713,163.659958 472.139435,163.122635 472.086670,162.238373 
	C476.800598,167.362335 482.389404,172.349487 486.020660,178.493546 
	C494.991425,193.672043 501.349426,209.867188 501.170227,227.997116 
	C501.015320,243.671524 496.044159,257.993286 487.614990,270.763458 
	C476.434296,287.702148 464.516937,304.197968 452.150787,320.296204 
	C443.279907,331.844391 439.371002,344.625793 438.998718,358.781128 
	C438.547607,375.932861 438.742096,393.112732 437.826508,410.235992 
	C437.414093,417.948456 435.724457,425.791687 433.334747,433.160553 
	C427.142731,452.254059 412.881256,463.307770 394.598083,469.931671 
	C369.407257,479.058167 344.175995,477.147949 318.952606,470.197174 
	C299.868439,464.938232 280.938995,459.075165 261.739502,454.287628 
	C235.985352,447.865631 210.362640,449.366821 184.722672,456.282074 
	C160.652298,462.773987 135.997513,465.798950 111.001732,463.920563 
	C88.450844,462.225922 67.490952,455.986328 49.938332,440.417175 
z"/>
<path fill="#FEFDFD" opacity="1.000000" stroke="none" 
	d="
M343.207764,104.586273 
	C341.491089,104.366600 339.451080,104.142319 337.723419,103.287109 
	C318.341919,93.693024 299.295105,83.363731 279.584290,74.510056 
	C258.427216,65.006752 236.395706,57.993252 212.746475,57.987011 
	C191.528854,57.981411 173.196320,66.042641 156.411423,78.191917 
	C130.528290,96.926697 116.886749,123.071426 112.055099,154.036606 
	C110.219345,165.801590 109.582092,177.797455 109.074272,189.716888 
	C107.920883,216.789169 98.647400,240.709900 81.724846,261.653961 
	C70.037590,276.118561 57.576328,289.963318 46.044083,304.546204 
	C32.925861,321.134613 26.077423,340.303528 23.819988,361.382355 
	C22.331499,375.281128 23.232805,388.888184 25.633265,402.526031 
	C25.796364,403.452667 25.519171,404.456818 25.216042,405.717224 
	C5.917838,360.837646 7.599410,319.598877 39.230312,283.310181 
	C47.764431,273.519379 56.183403,263.627472 64.775742,253.888336 
	C78.234253,238.633484 83.555702,220.269257 86.093636,200.581863 
	C88.942635,178.481506 91.918091,156.373581 95.757698,134.429779 
	C103.720428,88.921829 132.063080,61.311714 174.393753,45.961452 
	C218.712830,29.890144 258.930511,38.527462 295.833527,65.792877 
	C312.143127,77.843033 327.331940,91.410164 343.207764,104.586273 
z"/>
<path fill="#4D2D23" opacity="1.000000" stroke="none" 
	d="
M193.919601,339.104340 
	C178.287659,324.206635 167.109909,306.815918 162.491608,285.363068 
	C150.929794,231.656387 190.176331,177.471085 244.655930,171.781067 
	C262.711853,169.895233 279.697998,173.117432 296.772949,180.282867 
	C334.417084,200.729630 353.885284,235.529968 350.199829,275.269836 
	C344.155396,340.446533 274.812134,380.181091 215.573425,352.202209 
	C207.985977,348.618561 201.119873,343.507690 193.919601,339.104340 
M297.901123,194.490433 
	C297.591949,194.377197 297.282806,194.263977 296.457703,193.669540 
	C266.955170,176.508987 228.493927,180.048141 202.123779,202.350052 
	C174.808868,225.450958 164.944580,262.508179 177.737183,295.620483 
	C186.437790,318.141083 201.868378,334.364105 225.158508,343.734253 
	C257.720093,355.413452 287.558990,350.363922 312.645691,326.636871 
	C338.205475,302.462433 345.183716,272.369873 334.246643,238.891342 
	C328.004059,219.782455 315.959106,204.758209 298.025787,194.970306 
	C298.025787,194.970306 298.095093,194.960983 297.901123,194.490433 
z"/>
<path fill="#C4BFA4" opacity="1.000000" stroke="none" 
	d="
M193.880737,339.461090 
	C201.119873,343.507690 207.985977,348.618561 215.573425,352.202209 
	C274.812134,380.181091 344.155396,340.446533 350.199829,275.269836 
	C353.885284,235.529968 334.417084,200.729630 297.130310,180.376282 
	C301.679321,181.257721 306.657074,181.818420 311.044312,183.732574 
	C347.092896,199.460663 368.999146,226.822571 373.586700,265.855865 
	C380.627747,325.764557 336.532928,372.290436 285.595612,378.048004 
	C250.049454,382.065857 220.504593,370.187195 196.534821,343.919342 
	C195.446259,342.726379 194.730988,341.192780 193.880737,339.461090 
z"/>
<path fill="#FFB902" opacity="1.000000" stroke="none" 
	d="
M224.601837,343.235596 
	C201.868378,334.364105 186.437790,318.141083 177.737183,295.620483 
	C164.944580,262.508179 174.808868,225.450958 202.123779,202.350052 
	C228.493927,180.048141 266.955170,176.508987 296.861633,194.097748 
	C297.494537,194.761627 297.771057,194.906631 298.095093,194.960983 
	C298.095093,194.960983 298.025787,194.970306 298.069672,195.299530 
	C298.491058,196.546295 298.737549,197.548065 299.265320,198.368988 
	C310.637054,216.058060 313.726685,235.593109 309.946503,255.781799 
	C302.371521,296.237213 278.856232,323.938507 240.355637,338.673096 
	C235.267563,340.620361 229.860931,341.735229 224.601837,343.235596 
M228.786957,204.106216 
	C213.050247,208.892578 201.409683,218.393356 195.756577,234.082413 
	C192.061539,244.337219 197.533035,252.008423 207.706589,251.858124 
	C223.782364,251.620636 244.588715,233.328873 246.803131,217.486664 
	C247.867676,209.870758 243.719559,204.427856 236.034210,203.652069 
	C233.920578,203.438721 231.742508,203.863632 228.786957,204.106216 
M263.778900,194.451782 
	C259.394623,193.434708 256.143127,195.078003 254.480026,199.101669 
	C252.996628,202.690506 253.975876,206.010269 257.172821,208.384979 
	C260.677246,210.988068 265.645447,210.005310 268.124634,206.342834 
	C270.841949,202.328583 269.493134,198.022537 263.778900,194.451782 
z"/>
<path fill="#EE9E22" opacity="1.000000" stroke="none" 
	d="
M224.880173,343.484924 
	C229.860931,341.735229 235.267563,340.620361 240.355637,338.673096 
	C278.856232,323.938507 302.371521,296.237213 309.946503,255.781799 
	C313.726685,235.593109 310.637054,216.058060 299.265320,198.368988 
	C298.737549,197.548065 298.491058,196.546295 298.081909,195.266769 
	C315.959106,204.758209 328.004059,219.782455 334.246643,238.891342 
	C345.183716,272.369873 338.205475,302.462433 312.645691,326.636871 
	C287.558990,350.363922 257.720093,355.413452 224.880173,343.484924 
z"/>
<path fill="#EE9E22" opacity="1.000000" stroke="none" 
	d="
M297.998108,194.725708 
	C297.771057,194.906631 297.494537,194.761627 297.119598,194.338348 
	C297.282806,194.263977 297.591949,194.377197 297.998108,194.725708 
z"/>
<path fill="#FFE39A" opacity="1.000000" stroke="none" 
	d="
M229.190491,204.050949 
	C231.742508,203.863632 233.920578,203.438721 236.034210,203.652069 
	C243.719559,204.427856 247.867676,209.870758 246.803131,217.486664 
	C244.588715,233.328873 223.782364,251.620636 207.706589,251.858124 
	C197.533035,252.008423 192.061539,244.337219 195.756577,234.082413 
	C201.409683,218.393356 213.050247,208.892578 229.190491,204.050949 
z"/>
<path fill="#FFE297" opacity="1.000000" stroke="none" 
	d="
M264.135132,194.597748 
	C269.493134,198.022537 270.841949,202.328583 268.124634,206.342834 
	C265.645447,210.005310 260.677246,210.988068 257.172821,208.384979 
	C253.975876,206.010269 252.996628,202.690506 254.480026,199.101669 
	C256.143127,195.078003 259.394623,193.434708 264.135132,194.597748 
z"/>
</svg>