<svg version="1.1" id="Layer_1" xmlns="http://www.w3.org/2000/svg" xmlns:xlink="http://www.w3.org/1999/xlink" x="0px" y="0px"
	 width="100%" viewBox="0 0 512 512" enable-background="new 0 0 512 512" xml:space="preserve">
<path fill="transparent" opacity="1.000000" stroke="none" 
	d="
M513.000000,176.000000 
	C513.000000,288.264313 513.000000,400.528656 513.000000,513.000000 
	C389.978058,513.000000 266.956024,513.000000 143.138397,512.742188 
	C145.857422,510.196381 149.540878,508.127747 152.853821,505.577789 
	C161.560211,498.876373 164.984818,488.854889 168.968704,479.205872 
	C177.870514,457.645660 182.826035,435.085052 186.515320,412.047943 
	C191.216660,411.675079 195.465454,411.363037 199.709595,410.996948 
	C211.119415,410.012756 222.688156,409.877899 233.899475,407.810089 
	C252.321060,404.412445 270.608337,400.137543 288.760254,395.483704 
	C299.346558,392.769592 309.559570,388.599487 319.965942,385.502136 
	C323.595764,404.203308 325.080078,422.669861 325.027039,441.295410 
	C324.977112,458.835602 344.285431,472.593658 362.252655,468.430878 
	C371.458130,466.298096 377.886139,460.169830 384.091614,454.130951 
	C395.511871,443.017273 406.462189,431.367615 416.965790,419.378387 
	C430.165039,404.312408 440.062347,387.017609 447.697662,368.564453 
	C457.963989,343.752686 461.592407,317.770721 459.975586,290.698608 
	C463.943024,285.893219 468.027557,281.593079 471.543365,276.869629 
	C481.232117,263.852997 490.509552,250.557770 496.384674,234.919479 
	C498.809845,228.997147 501.014069,223.287567 502.993378,217.501022 
	C507.425903,204.542526 510.410522,191.281021 511.110321,177.549133 
	C511.138184,177.002075 512.343384,176.515015 513.000000,176.000000 
z"/>
<path fill="transparent" opacity="1.000000" stroke="none" 
	d="
M1.000002,377.000000 
	C1.000000,251.744232 1.000000,126.488449 1.000000,1.000000 
	C109.355232,1.000000 217.710632,1.000000 326.855072,1.346947 
	C325.313751,2.182851 322.933167,2.504740 320.661255,3.188018 
	C306.432617,7.467260 292.228271,11.827095 277.659210,16.194613 
	C257.144806,25.886065 238.492767,37.816742 221.467484,52.942116 
	C205.841599,53.157864 190.732330,52.693459 175.646378,55.829529 
	C140.509750,63.133720 110.559143,80.122879 84.048752,103.618561 
	C74.667694,111.932808 65.968887,121.063553 57.401855,130.235550 
	C49.894779,138.272736 43.499130,146.640488 43.737782,159.022278 
	C44.007313,173.006104 57.858261,188.450699 73.047577,188.174423 
	C84.722420,187.962082 96.444244,189.108719 108.109688,190.078140 
	C114.749657,190.629959 121.318352,192.039444 127.945595,193.442932 
	C110.727882,237.217270 100.945320,282.106445 100.534775,329.126282 
	C92.498802,330.664734 84.765877,331.750916 77.165756,333.436096 
	C59.391075,337.377258 42.046013,342.793030 25.444086,350.300293 
	C14.292542,355.342987 5.601395,362.877594 2.906868,375.634491 
	C2.787686,376.198761 1.658651,376.549713 1.000002,377.000000 
z"/>
<path fill="#FA5C5C" opacity="1.000000" stroke="none" 
	d="
M278.015869,16.160263 
	C292.228271,11.827095 306.432617,7.467260 320.661255,3.188018 
	C322.933167,2.504740 325.313751,2.182851 327.322052,1.346947 
	C346.354218,1.000000 365.708466,1.000000 385.212524,1.350309 
	C389.957458,2.489783 394.583466,3.132299 399.142487,4.092740 
	C422.625397,9.039832 445.669312,15.553610 468.102448,24.095024 
	C475.474548,26.901966 483.191193,29.311569 486.111694,38.240170 
	C491.189636,53.764629 497.667450,68.900909 501.717621,84.672646 
	C505.946686,101.141228 507.982025,118.171631 511.076019,134.938034 
	C511.219788,135.717178 512.336426,136.316772 513.000000,137.000000 
	C513.000000,149.687561 513.000000,162.375122 513.000000,175.531342 
	C512.343384,176.515015 511.138184,177.002075 511.110321,177.549133 
	C510.410522,191.281021 507.425903,204.542526 502.993378,217.501022 
	C501.014069,223.287567 498.809845,228.997147 496.073486,234.722870 
	C481.364807,234.056961 467.122864,234.564896 453.246155,232.553238 
	C405.257385,225.596527 364.752319,204.031555 331.708435,168.344727 
	C312.381531,147.472015 298.418060,123.565269 289.107666,96.811508 
	C280.011230,70.672516 277.245911,43.658413 278.015869,16.160263 
M384.992950,59.530178 
	C375.795929,50.776985 364.192261,49.632881 354.647186,56.538147 
	C345.717316,62.998352 342.631927,75.135361 347.611755,85.014572 
	C351.798950,93.321297 358.774597,97.766335 368.008423,97.833878 
	C377.257599,97.901535 384.373749,93.550545 388.516083,85.237526 
	C392.954132,76.331032 391.615051,67.841141 384.992950,59.530178 
z"/>
<path fill="#FA5C5C" opacity="1.000000" stroke="none" 
	d="
M1.000002,377.466858 
	C1.658651,376.549713 2.787686,376.198761 2.906868,375.634491 
	C5.601395,362.877594 14.292542,355.342987 25.444086,350.300293 
	C42.046013,342.793030 59.391075,337.377258 77.165756,333.436096 
	C84.765877,331.750916 92.498802,330.664734 100.759491,329.474365 
	C101.897224,334.912170 102.484772,340.178345 102.989304,345.452423 
	C104.468643,360.916473 106.966774,376.226227 113.255058,390.492798 
	C114.942139,394.320374 118.910896,398.287476 122.771149,399.810120 
	C138.001007,405.817413 153.973404,409.047211 170.374573,410.086334 
	C175.624405,410.418945 180.833130,411.399841 186.060669,412.084106 
	C182.826035,435.085052 177.870514,457.645660 168.968704,479.205872 
	C164.984818,488.854889 161.560211,498.876373 152.853821,505.577789 
	C149.540878,508.127747 145.857422,510.196381 142.671417,512.742188 
	C134.979095,513.000000 126.958199,513.000000 118.804527,512.739258 
	C117.477219,511.671387 116.235435,510.925507 115.096413,510.046448 
	C110.385643,506.410919 104.083183,503.670410 101.329514,498.892731 
	C94.065910,486.290131 87.979843,472.958038 82.130501,459.607269 
	C77.487991,449.010956 73.052322,439.266479 60.663895,434.971252 
	C49.531067,431.111359 39.348774,424.581879 28.333618,420.291840 
	C15.524856,415.303314 6.142004,407.725006 2.848161,393.863647 
	C2.750485,393.452606 1.638869,393.282471 0.999999,393.000000 
	C1.000000,387.977905 1.000000,382.955811 1.000002,377.466858 
z"/>
<path fill="transparent" opacity="1.000000" stroke="none" 
	d="
M0.999999,393.468658 
	C1.638869,393.282471 2.750485,393.452606 2.848161,393.863647 
	C6.142004,407.725006 15.524856,415.303314 28.333618,420.291840 
	C39.348774,424.581879 49.531067,431.111359 60.663895,434.971252 
	C73.052322,439.266479 77.487991,449.010956 82.130501,459.607269 
	C87.979843,472.958038 94.065910,486.290131 101.329514,498.892731 
	C104.083183,503.670410 110.385643,506.410919 115.096413,510.046448 
	C116.235435,510.925507 117.477219,511.671387 118.335876,512.739258 
	C79.072113,513.000000 40.144226,513.000000 1.000000,513.000000 
	C1.000000,473.312714 1.000000,433.625000 0.999999,393.468658 
z"/>
<path fill="transparent" opacity="1.000000" stroke="none" 
	d="
M513.000000,136.531342 
	C512.336426,136.316772 511.219788,135.717178 511.076019,134.938034 
	C507.982025,118.171631 505.946686,101.141228 501.717621,84.672646 
	C497.667450,68.900909 491.189636,53.764629 486.111694,38.240170 
	C483.191193,29.311569 475.474548,26.901966 468.102448,24.095024 
	C445.669312,15.553610 422.625397,9.039832 399.142487,4.092740 
	C394.583466,3.132299 389.957458,2.489783 385.681183,1.350309 
	C428.262817,1.000000 470.525635,1.000000 513.000000,1.000000 
	C513.000000,46.020672 513.000000,91.041679 513.000000,136.531342 
z"/>
<path fill="#FB7A6E" opacity="1.000000" stroke="none" 
	d="
M186.515320,412.047943 
	C180.833130,411.399841 175.624405,410.418945 170.374573,410.086334 
	C153.973404,409.047211 138.001007,405.817413 122.771149,399.810120 
	C118.910896,398.287476 114.942139,394.320374 113.255058,390.492798 
	C106.966774,376.226227 104.468643,360.916473 102.989304,345.452423 
	C102.484772,340.178345 101.897224,334.912170 101.122879,329.294312 
	C100.945320,282.106445 110.727882,237.217270 128.229187,193.233673 
	C130.751587,187.861710 133.103195,183.117966 135.268646,178.290726 
	C155.441299,133.321533 181.253632,92.213615 217.332932,58.103470 
	C219.007645,56.520145 220.403412,54.641758 221.929077,52.900787 
	C238.492767,37.816742 257.144806,25.886065 277.659210,16.194614 
	C277.245911,43.658413 280.011230,70.672516 289.107666,96.811508 
	C298.418060,123.565269 312.381531,147.472015 331.708435,168.344727 
	C364.752319,204.031555 405.257385,225.596527 453.246155,232.553238 
	C467.122864,234.564896 481.364807,234.056961 495.750488,234.900726 
	C490.509552,250.557770 481.232117,263.852997 471.543365,276.869629 
	C468.027557,281.593079 463.943024,285.893219 459.710632,290.884766 
	C448.840637,301.134491 438.716095,311.282043 427.848755,320.559509 
	C400.682190,343.751617 370.092499,361.538269 337.681763,376.334656 
	C331.686096,379.071808 325.850189,382.158875 319.940552,385.084442 
	C309.559570,388.599487 299.346558,392.769592 288.760254,395.483704 
	C270.608337,400.137543 252.321060,404.412445 233.899475,407.810089 
	C222.688156,409.877899 211.119415,410.012756 199.709595,410.996948 
	C195.465454,411.363037 191.216660,411.675079 186.515320,412.047943 
M337.825409,296.447418 
	C340.248840,294.431152 342.906342,292.633545 345.041534,290.348022 
	C348.338593,286.818787 347.544525,281.756958 343.457214,279.177124 
	C339.333893,276.574585 335.807709,278.417358 332.542419,281.074493 
	C326.105042,286.312958 318.914154,286.542542 311.933655,283.082458 
	C301.032379,277.678925 298.903290,264.371826 306.893524,254.603439 
	C310.812164,249.812744 310.822113,245.720123 306.812317,242.417999 
	C302.494293,238.862122 298.951904,241.056778 295.193298,243.796204 
	C286.587830,250.068207 276.359283,249.338486 269.816650,242.280975 
	C263.388519,235.346970 263.230774,225.116882 269.428833,217.129562 
	C272.786987,212.801941 272.973663,208.494583 269.932739,205.501404 
	C266.567017,202.188553 262.958252,202.366577 258.440277,206.050201 
	C254.141006,209.555527 249.372986,211.676437 243.690887,210.640747 
	C227.988235,207.778564 222.506073,191.973083 232.653244,178.906082 
	C235.908371,174.714310 235.812363,170.986237 232.369888,167.901428 
	C229.367264,165.210800 224.606964,165.360611 221.460602,168.244766 
	C213.008148,175.992828 209.527740,192.036530 213.808304,203.519836 
	C218.672440,216.568665 230.357422,225.775604 242.895157,225.909424 
	C247.258347,225.956009 248.792953,227.157104 249.260193,231.768341 
	C251.026443,249.199493 261.828430,260.351288 278.925415,263.267609 
	C286.332397,264.531006 286.317261,264.532471 287.067047,272.249268 
	C287.178894,273.400421 287.436523,274.550903 287.750214,275.666962 
	C293.850647,297.371582 316.663544,307.132416 337.825409,296.447418 
M187.526367,260.634521 
	C188.698822,256.439697 187.826080,253.010269 183.710190,250.937851 
	C179.717590,248.927536 176.652557,250.716766 173.934952,253.562546 
	C166.078812,261.789124 163.539352,271.737579 165.519089,282.642303 
	C168.275742,297.826447 179.929993,308.361633 195.248596,310.013123 
	C199.606430,310.482910 201.743744,311.854462 202.440445,316.830231 
	C204.799561,333.678497 214.786804,344.272644 230.962875,347.395477 
	C242.400162,349.603485 252.345856,345.942505 260.564453,337.806549 
	C263.364288,335.034882 263.737061,331.672699 261.461121,328.247589 
	C259.283234,324.970062 256.108917,324.317047 252.674728,325.454773 
	C250.849396,326.059479 249.258133,327.444641 247.640137,328.589111 
	C237.759186,335.578461 224.944962,332.365204 219.746811,321.492920 
	C216.069809,313.802246 218.102325,306.946320 223.044113,300.561920 
	C225.840698,296.948975 226.111404,293.139038 223.015259,289.673615 
	C219.644669,285.901001 215.885040,287.010223 212.274109,289.531189 
	C211.319336,290.197754 210.470245,291.023621 209.487747,291.641266 
	C203.199219,295.594635 196.717422,296.222412 190.089066,292.533295 
	C183.844742,289.057953 181.199570,283.727997 180.831955,276.555023 
	C180.505402,270.183136 183.886810,265.900482 187.526367,260.634521 
z"/>
<path fill="#FA5C5C" opacity="1.000000" stroke="none" 
	d="
M319.965942,385.502136 
	C325.850189,382.158875 331.686096,379.071808 337.681763,376.334656 
	C370.092499,361.538269 400.682190,343.751617 427.848755,320.559509 
	C438.716095,311.282043 448.840637,301.134491 459.568207,291.196838 
	C461.592407,317.770721 457.963989,343.752686 447.697662,368.564453 
	C440.062347,387.017609 430.165039,404.312408 416.965790,419.378387 
	C406.462189,431.367615 395.511871,443.017273 384.091614,454.130951 
	C377.886139,460.169830 371.458130,466.298096 362.252655,468.430878 
	C344.285431,472.593658 324.977112,458.835602 325.027039,441.295410 
	C325.080078,422.669861 323.595764,404.203308 319.965942,385.502136 
z"/>
<path fill="#FA5C5C" opacity="1.000000" stroke="none" 
	d="
M221.467484,52.942123 
	C220.403412,54.641758 219.007645,56.520145 217.332932,58.103470 
	C181.253632,92.213615 155.441299,133.321533 135.268646,178.290726 
	C133.103195,183.117966 130.751587,187.861710 128.202744,192.853455 
	C121.318352,192.039444 114.749657,190.629959 108.109688,190.078140 
	C96.444244,189.108719 84.722420,187.962082 73.047577,188.174423 
	C57.858261,188.450699 44.007313,173.006104 43.737782,159.022278 
	C43.499130,146.640488 49.894779,138.272736 57.401855,130.235550 
	C65.968887,121.063553 74.667694,111.932808 84.048752,103.618561 
	C110.559143,80.122879 140.509750,63.133720 175.646378,55.829529 
	C190.732330,52.693459 205.841599,53.157864 221.467484,52.942123 
z"/>
<path fill="#473B5E" opacity="1.000000" stroke="none" 
	d="
M385.237396,59.798920 
	C391.615051,67.841141 392.954132,76.331032 388.516083,85.237526 
	C384.373749,93.550545 377.257599,97.901535 368.008423,97.833878 
	C358.774597,97.766335 351.798950,93.321297 347.611755,85.014572 
	C342.631927,75.135361 345.717316,62.998352 354.647186,56.538147 
	C364.192261,49.632881 375.795929,50.776985 385.237396,59.798920 
z"/>
<path fill="#FA5C5C" opacity="1.000000" stroke="none" 
	d="
M337.506897,296.640381 
	C316.663544,307.132416 293.850647,297.371582 287.750214,275.666962 
	C287.436523,274.550903 287.178894,273.400421 287.067047,272.249268 
	C286.317261,264.532471 286.332397,264.531006 278.925415,263.267609 
	C261.828430,260.351288 251.026443,249.199493 249.260193,231.768341 
	C248.792953,227.157104 247.258347,225.956009 242.895157,225.909424 
	C230.357422,225.775604 218.672440,216.568665 213.808304,203.519836 
	C209.527740,192.036530 213.008148,175.992828 221.460602,168.244766 
	C224.606964,165.360611 229.367264,165.210800 232.369888,167.901428 
	C235.812363,170.986237 235.908371,174.714310 232.653244,178.906082 
	C222.506073,191.973083 227.988235,207.778564 243.690887,210.640747 
	C249.372986,211.676437 254.141006,209.555527 258.440277,206.050201 
	C262.958252,202.366577 266.567017,202.188553 269.932739,205.501404 
	C272.973663,208.494583 272.786987,212.801941 269.428833,217.129562 
	C263.230774,225.116882 263.388519,235.346970 269.816650,242.280975 
	C276.359283,249.338486 286.587830,250.068207 295.193298,243.796204 
	C298.951904,241.056778 302.494293,238.862122 306.812317,242.417999 
	C310.822113,245.720123 310.812164,249.812744 306.893524,254.603439 
	C298.903290,264.371826 301.032379,277.678925 311.933655,283.082458 
	C318.914154,286.542542 326.105042,286.312958 332.542419,281.074493 
	C335.807709,278.417358 339.333893,276.574585 343.457214,279.177124 
	C347.544525,281.756958 348.338593,286.818787 345.041534,290.348022 
	C342.906342,292.633545 340.248840,294.431152 337.506897,296.640381 
z"/>
<path fill="#FA5C5C" opacity="1.000000" stroke="none" 
	d="
M187.376709,260.993317 
	C183.886810,265.900482 180.505402,270.183136 180.831955,276.555023 
	C181.199570,283.727997 183.844742,289.057953 190.089066,292.533295 
	C196.717422,296.222412 203.199219,295.594635 209.487747,291.641266 
	C210.470245,291.023621 211.319336,290.197754 212.274109,289.531189 
	C215.885040,287.010223 219.644669,285.901001 223.015259,289.673615 
	C226.111404,293.139038 225.840698,296.948975 223.044113,300.561920 
	C218.102325,306.946320 216.069809,313.802246 219.746811,321.492920 
	C224.944962,332.365204 237.759186,335.578461 247.640137,328.589111 
	C249.258133,327.444641 250.849396,326.059479 252.674728,325.454773 
	C256.108917,324.317047 259.283234,324.970062 261.461121,328.247589 
	C263.737061,331.672699 263.364288,335.034882 260.564453,337.806549 
	C252.345856,345.942505 242.400162,349.603485 230.962875,347.395477 
	C214.786804,344.272644 204.799561,333.678497 202.440445,316.830231 
	C201.743744,311.854462 199.606430,310.482910 195.248596,310.013123 
	C179.929993,308.361633 168.275742,297.826447 165.519089,282.642303 
	C163.539352,271.737579 166.078812,261.789124 173.934952,253.562546 
	C176.652557,250.716766 179.717590,248.927536 183.710190,250.937851 
	C187.826080,253.010269 188.698822,256.439697 187.376709,260.993317 
z"/>
</svg>