<svg version="1.1" id="Layer_1" xmlns="http://www.w3.org/2000/svg" xmlns:xlink="http://www.w3.org/1999/xlink" x="0px" y="0px"
	 width="100%" viewBox="0 0 512 512" enable-background="new 0 0 512 512" xml:space="preserve">
<path fill="#343333" opacity="1.000000" stroke="none" 
	d="
M513.000000,348.000000 
	C513.000000,355.354248 513.000000,362.708496 512.629211,370.671936 
	C508.982269,387.666931 500.635468,400.617584 486.711060,410.092041 
	C474.827393,418.177948 461.741913,420.893127 447.680634,419.973480 
	C444.425537,419.760590 442.500549,420.732513 440.534546,423.720490 
	C428.049438,442.695862 410.589417,452.551056 387.495544,452.061890 
	C372.336853,451.740784 357.161530,452.197693 342.003296,451.866119 
	C338.108246,451.780914 335.703522,453.299316 333.604218,455.942993 
	C322.153320,470.362915 307.035583,477.577454 288.849213,477.917145 
	C269.024323,478.287445 249.186844,478.062042 229.355606,477.955719 
	C224.772202,477.931152 220.113159,477.758148 215.624664,476.923462 
	C201.438858,474.285492 189.459839,467.738373 180.527390,456.100952 
	C178.481766,453.435791 176.112732,451.806305 172.203888,451.876282 
	C155.710449,452.171417 139.207184,452.141388 122.710335,451.965210 
	C102.850792,451.753143 87.074173,443.025238 75.906723,427.001923 
	C72.058426,421.480255 68.342712,419.031708 62.026550,419.991486 
	C61.537868,420.065735 61.028111,420.001709 60.528149,420.001190 
	C39.154224,419.978455 22.313480,411.090393 10.876183,393.166962 
	C6.572890,386.423279 4.234281,378.425842 0.999997,371.000000 
	C1.000000,363.645752 1.000000,356.291504 1.393024,348.297119 
	C1.890373,345.002350 1.804270,342.323883 2.133055,339.697388 
	C3.347377,329.996643 4.761861,320.320984 5.976974,310.620331 
	C6.810357,303.967194 7.346688,297.276855 8.179773,290.623718 
	C9.374365,281.083527 10.810143,271.573273 11.972744,262.029480 
	C13.119590,252.615036 13.958677,243.163040 15.109062,233.749069 
	C16.294893,224.045013 17.761650,214.375504 18.975136,204.674561 
	C19.807581,198.019760 20.336802,191.327332 21.145281,184.669174 
	C22.363874,174.633530 23.673063,164.608475 25.010040,154.587769 
	C26.043989,146.838242 26.391342,138.888428 28.422676,131.401733 
	C33.800602,111.580872 45.502003,96.614899 64.616951,88.120796 
	C76.759575,82.724991 89.451080,81.564156 102.465134,83.901466 
	C105.289009,84.408623 106.778442,83.320366 108.453842,81.148987 
	C113.074287,75.160675 117.392197,68.701637 123.001602,63.758579 
	C139.227463,49.460217 158.542587,45.278332 179.288055,50.358757 
	C188.142746,52.527210 196.342712,57.369205 205.469864,61.265083 
	C218.370865,45.693947 235.182724,35.880188 257.178619,35.909172 
	C279.174866,35.938156 295.850891,46.037651 309.486969,62.264454 
	C310.293030,61.822323 310.734100,61.634842 311.115417,61.363434 
	C332.199402,46.356300 354.581940,44.165627 378.007599,55.066200 
	C389.773407,60.541130 399.146515,68.850159 405.251312,80.578987 
	C406.623993,83.216240 408.435699,84.200569 412.240265,83.622627 
	C419.217072,82.562790 426.621857,82.326408 433.562622,83.473885 
	C444.969910,85.359772 455.327118,89.992599 464.476807,97.651382 
	C475.838257,107.161591 482.907410,119.086685 485.815369,133.205353 
	C488.079041,144.196014 488.610474,155.537628 490.047974,166.705750 
	C491.962433,181.579224 494.128571,196.420975 495.961823,211.304031 
	C497.480743,223.634842 498.513672,236.025803 500.053345,248.353714 
	C501.870850,262.906189 504.156952,277.400360 505.954041,291.955109 
	C507.816498,307.039429 509.286865,322.171783 511.042969,337.269836 
	C511.462158,340.873688 512.335510,344.424683 513.000000,348.000000 
M260.104675,111.998558 
	C237.246338,111.573784 215.940460,116.038605 198.310196,130.706146 
	C204.287079,139.440353 209.859634,147.583679 214.761353,154.746704 
	C224.408447,150.540726 234.206787,146.268799 244.867096,142.032715 
	C264.998474,138.659805 282.992065,143.597672 298.326202,156.037186 
	C304.167908,147.519180 309.743347,139.389374 315.685852,130.724380 
	C300.223572,117.721764 281.463806,112.589691 260.104675,111.998558 
M235.961166,456.873383 
	C252.618698,456.895660 269.281036,457.181610 285.932648,456.878296 
	C310.758057,456.426086 328.420807,436.911255 325.746033,412.599792 
	C322.688782,384.812042 319.023834,357.091156 315.624268,329.341034 
	C311.739075,297.627289 307.889618,265.909088 303.954254,234.201599 
	C302.356140,221.325684 301.092834,208.376984 298.746643,195.632706 
	C295.525116,178.133453 279.681763,164.000473 262.344482,162.359406 
	C239.083710,159.887009 219.267120,174.041534 215.032272,197.119186 
	C212.363724,211.661423 210.957596,226.441010 209.147720,241.134125 
	C202.149734,297.946045 195.182037,354.761749 188.293747,411.587036 
	C187.117386,421.291473 188.852264,430.543243 194.345871,438.791107 
	C204.068069,453.387604 218.251404,458.060089 235.961166,456.873383 
M185.427353,149.071671 
	C172.740295,137.080429 157.970901,132.846970 141.268219,138.435532 
	C124.391617,144.082306 114.524910,156.367722 112.181328,173.869904 
	C107.829163,206.372391 104.077103,238.955276 100.084557,271.505829 
	C95.484146,309.012085 91.097870,346.546051 86.229980,384.017517 
	C82.785942,410.528656 100.171837,430.937714 126.991692,431.050415 
	C138.990997,431.100830 150.990707,431.068054 162.990189,431.050751 
	C164.606491,431.048431 166.222595,430.915466 167.334671,430.865601 
	C167.334671,424.050781 166.728943,417.695892 167.437332,411.491058 
	C170.892838,381.224182 174.684982,350.995605 178.385590,320.756897 
	C182.247849,289.197449 185.922318,257.612701 190.117249,226.097336 
	C192.109161,211.132736 195.129395,196.305344 197.653625,181.410690 
	C197.873672,180.112289 198.071335,178.754395 197.935577,177.460190 
	C196.830872,166.929153 193.462448,157.350098 185.427353,149.071671 
M378.498230,431.063354 
	C381.330261,431.062775 384.162384,431.074005 386.994354,431.059723 
	C413.357117,430.926880 430.882507,411.190613 427.817902,385.006287 
	C426.212189,371.287018 424.484863,357.581970 422.799408,343.872101 
	C415.874695,287.546600 408.887848,231.228683 402.039551,174.893906 
	C398.212830,143.414902 365.365784,126.531845 337.669647,141.949692 
	C321.388519,151.013046 313.446198,170.120544 318.434937,187.725357 
	C319.608948,191.868454 320.324615,196.179108 320.851898,200.461853 
	C325.041229,234.487747 329.341827,268.501984 333.203949,302.565643 
	C338.029907,345.130371 345.424316,387.440521 347.301422,431.063416 
	C356.602173,431.063416 367.050568,431.063416 378.498230,431.063354 
M77.073669,287.648224 
	C81.721046,249.821548 86.451790,212.004837 90.981384,174.164062 
	C93.320381,154.623795 101.724777,138.676575 117.783203,127.025253 
	C120.260132,125.228088 122.881020,123.629326 125.425163,121.945549 
	C116.324890,108.448013 99.323120,101.771835 82.904846,104.854698 
	C66.173096,107.996407 52.278660,121.126755 49.216351,137.741257 
	C47.108429,149.177750 45.998516,160.802307 44.561821,172.357635 
	C41.009575,200.928329 37.517521,229.506546 34.016930,258.083649 
	C30.192503,289.304321 26.497961,320.541473 22.523375,351.742950 
	C20.564621,367.119659 24.568380,380.163574 36.649521,390.153198 
	C44.762611,396.861664 54.247395,399.552551 64.415001,398.760223 
	C65.119278,390.324677 65.536827,382.518890 66.459450,374.773285 
	C69.884445,346.019592 73.475723,317.285736 77.073669,287.648224 
M466.976471,151.559021 
	C466.649384,148.915543 466.298523,146.274750 465.999054,143.628143 
	C463.603729,122.458824 448.396027,106.848511 427.668121,104.295242 
	C412.577911,102.436424 395.286072,110.265465 388.908752,121.845482 
	C389.074310,122.124367 389.187958,122.460236 389.417267,122.669098 
	C389.782196,123.001427 390.207550,123.277542 390.636047,123.528481 
	C410.562531,135.199432 420.643768,152.856583 423.167114,175.567719 
	C426.273682,203.528168 429.930084,231.427536 433.354004,259.352661 
	C437.567963,293.721222 441.837769,328.083038 445.976746,362.460602 
	C447.422058,374.464661 448.550537,386.506897 449.830811,398.599121 
	C473.750183,401.758575 494.810211,379.387177 491.763733,353.700989 
	C490.469727,342.790253 489.114197,331.886810 487.772491,320.981750 
	C480.860901,264.804810 473.944702,208.628464 466.976471,151.559021 
M190.126450,110.589630 
	C194.098007,108.169975 197.953812,105.524345 202.081619,103.409698 
	C204.857468,101.987648 205.612076,100.597023 204.433990,97.583405 
	C201.186569,89.276291 196.065277,82.532761 188.799850,77.379295 
	C167.773560,62.465054 135.939316,70.623131 126.922424,92.154236 
	C133.334091,99.620186 139.269516,106.692352 145.440170,113.552979 
	C146.427414,114.650635 148.434708,115.182785 150.027191,115.320587 
	C155.639694,115.806252 161.828033,114.627792 166.786758,116.610069 
	C176.277405,120.403999 183.399551,118.746002 190.126450,110.589630 
M275.177185,61.209881 
	C256.365051,53.429817 237.345093,57.536369 224.607590,71.894035 
	C220.561813,76.454414 217.614502,80.818581 222.449234,86.569344 
	C223.061752,87.297905 223.432358,88.354393 223.597412,89.313606 
	C224.433701,94.174072 227.297089,94.553299 231.543503,93.652885 
	C247.185455,90.336174 262.922485,90.185081 278.694397,92.903908 
	C287.743286,94.463799 287.749939,94.398926 291.821045,85.960953 
	C292.399445,84.762184 293.373322,83.646904 293.571503,82.398872 
	C293.826630,80.792236 294.046204,78.765190 293.304962,77.483948 
	C289.190979,70.372986 283.160645,65.229897 275.177185,61.209881 
M309.135773,98.833305 
	C307.888062,101.877243 310.456940,102.299431 312.176910,103.490196 
	C318.714264,108.016045 325.365051,112.417900 331.550751,117.391815 
	C333.969482,119.336746 335.671204,119.399429 338.534760,118.889755 
	C346.969879,117.388420 355.533722,116.622612 364.024414,115.409714 
	C365.625031,115.181076 367.588898,114.639297 368.588623,113.526443 
	C374.758545,106.658432 380.700317,99.585472 387.101898,92.133682 
	C381.287384,78.820847 365.434631,69.408562 348.046326,69.847191 
	C330.675049,70.285393 315.823059,81.144684 309.135773,98.833305 
z"/>
<path fill="transparent" opacity="1.000000" stroke="none" 
	d="
M513.000000,347.531342 
	C512.335510,344.424683 511.462158,340.873688 511.042969,337.269836 
	C509.286865,322.171783 507.816498,307.039429 505.954041,291.955109 
	C504.156952,277.400360 501.870850,262.906189 500.053345,248.353714 
	C498.513672,236.025803 497.480743,223.634842 495.961823,211.304031 
	C494.128571,196.420975 491.962433,181.579224 490.047974,166.705750 
	C488.610474,155.537628 488.079041,144.196014 485.815369,133.205353 
	C482.907410,119.086685 475.838257,107.161591 464.476807,97.651382 
	C455.327118,89.992599 444.969910,85.359772 433.562622,83.473885 
	C426.621857,82.326408 419.217072,82.562790 412.240265,83.622627 
	C408.435699,84.200569 406.623993,83.216240 405.251312,80.578987 
	C399.146515,68.850159 389.773407,60.541130 378.007599,55.066200 
	C354.581940,44.165627 332.199402,46.356300 311.115417,61.363434 
	C310.734100,61.634842 310.293030,61.822323 309.486969,62.264454 
	C295.850891,46.037651 279.174866,35.938156 257.178619,35.909172 
	C235.182724,35.880188 218.370865,45.693947 205.469864,61.265083 
	C196.342712,57.369205 188.142746,52.527210 179.288055,50.358757 
	C158.542587,45.278332 139.227463,49.460217 123.001602,63.758579 
	C117.392197,68.701637 113.074287,75.160675 108.453842,81.148987 
	C106.778442,83.320366 105.289009,84.408623 102.465134,83.901466 
	C89.451080,81.564156 76.759575,82.724991 64.616951,88.120796 
	C45.502003,96.614899 33.800602,111.580872 28.422676,131.401733 
	C26.391342,138.888428 26.043989,146.838242 25.010040,154.587769 
	C23.673063,164.608475 22.363874,174.633530 21.145281,184.669174 
	C20.336802,191.327332 19.807581,198.019760 18.975136,204.674561 
	C17.761650,214.375504 16.294893,224.045013 15.109062,233.749069 
	C13.958677,243.163040 13.119590,252.615036 11.972744,262.029480 
	C10.810143,271.573273 9.374365,281.083527 8.179773,290.623718 
	C7.346688,297.276855 6.810357,303.967194 5.976974,310.620331 
	C4.761861,320.320984 3.347377,329.996643 2.133055,339.697388 
	C1.804270,342.323883 1.890373,345.002350 1.393024,347.828491 
	C1.000000,232.375244 1.000000,116.750488 1.000000,1.062865 
	C171.562912,1.062865 342.125854,1.062865 513.000000,1.062865 
	C513.000000,116.354042 513.000000,231.708359 513.000000,347.531342 
z"/>
<path fill="transparent" opacity="1.000000" stroke="none" 
	d="
M0.999997,371.468658 
	C4.234281,378.425842 6.572890,386.423279 10.876183,393.166962 
	C22.313480,411.090393 39.154224,419.978455 60.528149,420.001190 
	C61.028111,420.001709 61.537868,420.065735 62.026550,419.991486 
	C68.342712,419.031708 72.058426,421.480255 75.906723,427.001923 
	C87.074173,443.025238 102.850792,451.753143 122.710335,451.965210 
	C139.207184,452.141388 155.710449,452.171417 172.203888,451.876282 
	C176.112732,451.806305 178.481766,453.435791 180.527390,456.100952 
	C189.459839,467.738373 201.438858,474.285492 215.624664,476.923462 
	C220.113159,477.758148 224.772202,477.931152 229.355606,477.955719 
	C249.186844,478.062042 269.024323,478.287445 288.849213,477.917145 
	C307.035583,477.577454 322.153320,470.362915 333.604218,455.942993 
	C335.703522,453.299316 338.108246,451.780914 342.003296,451.866119 
	C357.161530,452.197693 372.336853,451.740784 387.495544,452.061890 
	C410.589417,452.551056 428.049438,442.695862 440.534546,423.720490 
	C442.500549,420.732513 444.425537,419.760590 447.680634,419.973480 
	C461.741913,420.893127 474.827393,418.177948 486.711060,410.092041 
	C500.635468,400.617584 508.982269,387.666931 512.629211,371.140564 
	C513.000000,418.307281 513.000000,465.614594 513.000000,512.960938 
	C342.453247,512.960938 171.906464,512.960938 1.000000,512.960938 
	C1.000000,465.979706 1.000000,418.958527 0.999997,371.468658 
z"/>
<path fill="#E44728" opacity="1.000000" stroke="none" 
	d="
M185.671875,149.328613 
	C193.462448,157.350098 196.830872,166.929153 197.935577,177.460190 
	C198.071335,178.754395 197.873672,180.112289 197.653625,181.410690 
	C195.129395,196.305344 192.109161,211.132736 190.117249,226.097336 
	C185.922318,257.612701 182.247849,289.197449 178.385590,320.756897 
	C174.684982,350.995605 170.892838,381.224182 167.437332,411.491058 
	C166.728943,417.695892 167.334671,424.050781 167.334671,430.865601 
	C166.222595,430.915466 164.606491,431.048431 162.990189,431.050751 
	C150.990707,431.068054 138.990997,431.100830 126.991692,431.050415 
	C100.171837,430.937714 82.785942,410.528656 86.229980,384.017517 
	C91.097870,346.546051 95.484146,309.012085 100.084557,271.505829 
	C104.077103,238.955276 107.829163,206.372391 112.181328,173.869904 
	C114.524910,156.367722 124.391617,144.082306 141.268219,138.435532 
	C157.970901,132.846970 172.740295,137.080429 185.671875,149.328613 
z"/>
<path fill="#F85429" opacity="1.000000" stroke="none" 
	d="
M377.998596,431.063385 
	C367.050568,431.063416 356.602173,431.063416 347.301422,431.063416 
	C345.424316,387.440521 338.029907,345.130371 333.203949,302.565643 
	C329.341827,268.501984 325.041229,234.487747 320.851898,200.461853 
	C320.324615,196.179108 319.608948,191.868454 318.434937,187.725357 
	C313.446198,170.120544 321.388519,151.013046 337.669647,141.949692 
	C365.365784,126.531845 398.212830,143.414902 402.039551,174.893906 
	C408.887848,231.228683 415.874695,287.546600 422.799408,343.872101 
	C424.484863,357.581970 426.212189,371.287018 427.817902,385.006287 
	C430.882507,411.190613 413.357117,430.926880 386.994354,431.059723 
	C384.162384,431.074005 381.330261,431.062775 377.998596,431.063385 
M387.018982,163.565399 
	C386.094116,162.184280 385.265411,160.725754 384.227356,159.435699 
	C380.185455,154.412643 374.438599,153.298172 369.688690,156.536499 
	C364.839233,159.842728 364.059326,165.194641 367.022552,171.086258 
	C368.631561,174.285400 370.066467,177.798355 370.532379,181.308777 
	C373.183197,201.279587 375.515961,221.292557 377.960876,241.290710 
	C382.628357,279.468262 387.273315,317.648651 391.990967,355.820007 
	C392.828156,362.593689 397.939789,366.835724 403.802704,365.966522 
	C409.856537,365.069031 413.512604,359.870911 412.704620,353.084656 
	C411.070740,339.362061 409.360535,325.648529 407.680664,311.931427 
	C402.762512,271.772034 397.976135,231.595703 392.825104,191.466156 
	C391.649384,182.306595 389.213745,173.308746 387.018982,163.565399 
M408.990417,380.161499 
	C404.426666,379.492065 400.171448,380.764282 398.490753,384.976807 
	C397.284180,388.001038 397.171326,392.226562 398.324646,395.246216 
	C400.009338,399.656921 404.297455,401.183990 409.097168,400.205292 
	C413.681488,399.270477 416.374603,396.417969 417.075531,391.824982 
	C417.891510,386.478149 415.670288,383.085999 408.990417,380.161499 
z"/>
<path fill="#F95429" opacity="1.000000" stroke="none" 
	d="
M263.076355,162.732849 
	C279.681763,164.000473 295.525116,178.133453 298.746643,195.632706 
	C301.092834,208.376984 302.356140,221.325684 303.954254,234.201599 
	C307.889618,265.909088 311.739075,297.627289 315.624268,329.341034 
	C319.023834,357.091156 322.688782,384.812042 325.746033,412.599792 
	C328.420807,436.911255 310.758057,456.426086 285.932648,456.878296 
	C269.281036,457.181610 252.618698,456.895660 235.423767,456.481415 
	C233.486801,454.460236 232.199966,452.715607 230.669434,451.220428 
	C220.450653,441.237915 216.459045,428.618591 217.233261,414.934418 
	C218.046265,400.564728 220.454056,386.282318 222.243744,371.971619 
	C224.444290,354.375610 226.813675,336.800323 228.949005,319.196533 
	C231.124603,301.260864 233.037674,283.293427 235.187668,265.354523 
	C237.731781,244.127075 240.315720,222.903503 243.068161,201.702362 
	C244.206924,192.930893 246.072830,184.250214 251.475616,176.943222 
	C255.106842,172.032166 259.193451,167.457840 263.076355,162.732849 
M304.075684,327.335510 
	C298.974762,285.369568 293.935822,243.395966 288.727173,201.443405 
	C287.497101,191.535583 282.738586,183.488510 274.142731,178.113754 
	C269.218658,175.034866 263.579407,176.122208 260.255432,180.382767 
	C256.977081,184.584854 256.926117,190.523865 261.284821,193.820160 
	C267.215302,198.305115 268.234558,204.392746 268.904510,210.923370 
	C269.329163,215.062805 269.790741,219.199173 270.296204,223.329514 
	C275.876068,268.925293 281.452209,314.521545 287.072479,360.112366 
	C287.947174,367.207764 288.744141,374.334656 290.129425,381.337738 
	C291.084900,386.168060 295.022125,388.325256 299.676422,388.768921 
	C303.722778,389.154663 308.493011,385.834991 309.554993,381.721680 
	C310.161041,379.374237 310.160858,376.747101 309.873230,374.312134 
	C308.057465,358.940704 306.084747,343.587860 304.075684,327.335510 
M310.185883,425.089264 
	C316.391632,420.648254 317.711609,414.675720 313.637482,409.471649 
	C310.062897,404.905640 302.974609,404.315796 298.649658,408.224457 
	C295.335236,411.219879 294.356445,416.463837 296.361267,420.484833 
	C298.674530,425.124451 302.961792,426.753082 310.185883,425.089264 
z"/>
<path fill="#E44728" opacity="1.000000" stroke="none" 
	d="
M77.039108,288.096313 
	C73.475723,317.285736 69.884445,346.019592 66.459450,374.773285 
	C65.536827,382.518890 65.119278,390.324677 64.415001,398.760223 
	C54.247395,399.552551 44.762611,396.861664 36.649521,390.153198 
	C24.568380,380.163574 20.564621,367.119659 22.523375,351.742950 
	C26.497961,320.541473 30.192503,289.304321 34.016930,258.083649 
	C37.517521,229.506546 41.009575,200.928329 44.561821,172.357635 
	C45.998516,160.802307 47.108429,149.177750 49.216351,137.741257 
	C52.278660,121.126755 66.173096,107.996407 82.904846,104.854698 
	C99.323120,101.771835 116.324890,108.448013 125.425163,121.945549 
	C122.881020,123.629326 120.260132,125.228088 117.783203,127.025253 
	C101.724777,138.676575 93.320381,154.623795 90.981384,174.164062 
	C86.451790,212.004837 81.721046,249.821548 77.039108,288.096313 
z"/>
<path fill="#F7552A" opacity="1.000000" stroke="none" 
	d="
M467.003296,152.005463 
	C473.944702,208.628464 480.860901,264.804810 487.772491,320.981750 
	C489.114197,331.886810 490.469727,342.790253 491.763733,353.700989 
	C494.810211,379.387177 473.750183,401.758575 449.830811,398.599121 
	C448.550537,386.506897 447.422058,374.464661 445.976746,362.460602 
	C441.837769,328.083038 437.567963,293.721222 433.354004,259.352661 
	C429.930084,231.427536 426.273682,203.528168 423.167114,175.567719 
	C420.643768,152.856583 410.562531,135.199432 390.636047,123.528481 
	C390.207550,123.277542 389.782196,123.001427 389.417267,122.669098 
	C389.187958,122.460236 389.074310,122.124367 388.914368,121.842163 
	C395.286072,110.265465 412.577911,102.436424 427.668121,104.295242 
	C448.396027,106.848511 463.603729,122.458824 465.999054,143.628143 
	C466.298523,146.274750 466.649384,148.915543 467.003296,152.005463 
M456.708008,326.456787 
	C460.112366,331.997681 463.996399,333.831146 468.971649,332.245819 
	C474.378876,330.522827 476.772278,326.738251 476.269196,320.233765 
	C475.910065,315.590973 475.315216,310.964355 474.749573,306.339844 
	C468.468018,254.981506 462.158325,203.626587 455.890839,152.266510 
	C454.675354,142.305832 453.579010,132.374435 445.823242,124.783287 
	C441.002350,120.064735 435.198822,119.284348 430.676025,123.035675 
	C426.080933,126.846985 426.027191,132.437988 429.786591,138.185165 
	C431.798126,141.260284 433.468658,144.885574 434.098053,148.472260 
	C435.591431,156.982742 436.384552,165.616760 437.438721,174.203552 
	C441.635132,208.385376 445.785583,242.572876 450.030518,276.748688 
	C452.060028,293.088135 454.262817,309.406006 456.708008,326.456787 
M481.027740,352.892273 
	C476.462372,347.041901 469.985687,345.964203 465.178558,350.255005 
	C460.965759,354.015320 460.687622,360.921387 464.583984,365.020844 
	C467.686768,368.285461 473.023621,369.103363 476.978912,366.920410 
	C481.658630,364.337677 483.021027,360.265411 481.027740,352.892273 
z"/>
<path fill="#E44728" opacity="1.000000" stroke="none" 
	d="
M262.710419,162.546143 
	C259.193451,167.457840 255.106842,172.032166 251.475616,176.943222 
	C246.072830,184.250214 244.206924,192.930893 243.068161,201.702362 
	C240.315720,222.903503 237.731781,244.127075 235.187668,265.354523 
	C233.037674,283.293427 231.124603,301.260864 228.949005,319.196533 
	C226.813675,336.800323 224.444290,354.375610 222.243744,371.971619 
	C220.454056,386.282318 218.046265,400.564728 217.233261,414.934418 
	C216.459045,428.618591 220.450653,441.237915 230.669434,451.220428 
	C232.199966,452.715607 233.486801,454.460236 234.962952,456.407715 
	C218.251404,458.060089 204.068069,453.387604 194.345871,438.791107 
	C188.852264,430.543243 187.117386,421.291473 188.293747,411.587036 
	C195.182037,354.761749 202.149734,297.946045 209.147720,241.134125 
	C210.957596,226.441010 212.363724,211.661423 215.032272,197.119186 
	C219.267120,174.041534 239.083710,159.887009 262.710419,162.546143 
z"/>
<path fill="#E44728" opacity="1.000000" stroke="none" 
	d="
M189.846863,110.812325 
	C183.399551,118.746002 176.277405,120.403999 166.786758,116.610069 
	C161.828033,114.627792 155.639694,115.806252 150.027191,115.320587 
	C148.434708,115.182785 146.427414,114.650635 145.440170,113.552979 
	C139.269516,106.692352 133.334091,99.620186 126.922424,92.154236 
	C135.939316,70.623131 167.773560,62.465054 188.799850,77.379295 
	C196.065277,82.532761 201.186569,89.276291 204.433990,97.583405 
	C205.612076,100.597023 204.857468,101.987648 202.081619,103.409698 
	C197.953812,105.524345 194.098007,108.169975 189.846863,110.812325 
z"/>
<path fill="#F75428" opacity="1.000000" stroke="none" 
	d="
M275.502869,61.396870 
	C283.160645,65.229897 289.190979,70.372986 293.304962,77.483948 
	C294.046204,78.765190 293.826630,80.792236 293.571503,82.398872 
	C293.373322,83.646904 292.399445,84.762184 291.821045,85.960953 
	C287.749939,94.398926 287.743286,94.463799 278.694397,92.903908 
	C262.922485,90.185081 247.185455,90.336174 231.543503,93.652885 
	C227.297089,94.553299 224.433701,94.174072 223.597412,89.313606 
	C223.432358,88.354393 223.061752,87.297905 222.449234,86.569344 
	C217.614502,80.818581 220.561813,76.454414 224.607590,71.894035 
	C237.345093,57.536369 256.365051,53.429817 275.502869,61.396870 
z"/>
<path fill="#F75529" opacity="1.000000" stroke="none" 
	d="
M309.271179,98.466324 
	C315.823059,81.144684 330.675049,70.285393 348.046326,69.847191 
	C365.434631,69.408562 381.287384,78.820847 387.101898,92.133682 
	C380.700317,99.585472 374.758545,106.658432 368.588623,113.526443 
	C367.588898,114.639297 365.625031,115.181076 364.024414,115.409714 
	C355.533722,116.622612 346.969879,117.388420 338.534760,118.889755 
	C335.671204,119.399429 333.969482,119.336746 331.550751,117.391815 
	C325.365051,112.417900 318.714264,108.016045 312.176910,103.490196 
	C310.456940,102.299431 307.888062,101.877243 309.271179,98.466324 
M331.140381,98.017479 
	C335.166443,103.381760 338.323456,104.729897 344.341187,102.818100 
	C348.770996,101.410774 352.661499,101.772163 356.728851,104.008522 
	C362.858063,107.378548 368.410492,106.052628 371.410187,100.913406 
	C374.565308,95.507912 372.971191,89.867073 367.018646,86.045052 
	C357.506805,79.937675 347.437866,79.288742 337.063141,83.508850 
	C331.090790,85.938225 329.083435,90.652191 331.140381,98.017479 
z"/>
<path fill="#F75529" opacity="1.000000" stroke="none" 
	d="
M261.029602,112.176605 
	C281.463806,112.589691 300.223572,117.721764 315.685852,130.724380 
	C309.743347,139.389374 304.167908,147.519180 298.326202,156.037186 
	C282.992065,143.597672 264.998474,138.659805 244.454193,141.618439 
	C245.579941,131.042953 249.733688,122.317947 257.863373,115.709877 
	C259.075348,114.724731 259.981812,113.363731 261.029602,112.176605 
M284.169281,138.014694 
	C286.836487,142.365662 290.986115,144.556107 295.571167,142.745499 
	C298.532074,141.576279 301.479797,138.525436 302.833893,135.581985 
	C304.717621,131.487244 302.939911,127.394844 299.123230,124.728920 
	C295.154846,121.957031 290.961334,121.959343 287.078369,124.861916 
	C282.789032,128.068207 281.966156,132.382996 284.169281,138.014694 
z"/>
<path fill="#E34728" opacity="1.000000" stroke="none" 
	d="
M260.567139,112.087585 
	C259.981812,113.363731 259.075348,114.724731 257.863373,115.709877 
	C249.733688,122.317947 245.579941,131.042953 244.023224,141.600525 
	C234.206787,146.268799 224.408447,150.540726 214.761353,154.746704 
	C209.859634,147.583679 204.287079,139.440353 198.310196,130.706146 
	C215.940460,116.038605 237.246338,111.573784 260.567139,112.087585 
z"/>
<path fill="#FFFDFC" opacity="1.000000" stroke="none" 
	d="
M387.188477,163.900940 
	C389.213745,173.308746 391.649384,182.306595 392.825104,191.466156 
	C397.976135,231.595703 402.762512,271.772034 407.680664,311.931427 
	C409.360535,325.648529 411.070740,339.362061 412.704620,353.084656 
	C413.512604,359.870911 409.856537,365.069031 403.802704,365.966522 
	C397.939789,366.835724 392.828156,362.593689 391.990967,355.820007 
	C387.273315,317.648651 382.628357,279.468262 377.960876,241.290710 
	C375.515961,221.292557 373.183197,201.279587 370.532379,181.308777 
	C370.066467,177.798355 368.631561,174.285400 367.022552,171.086258 
	C364.059326,165.194641 364.839233,159.842728 369.688690,156.536499 
	C374.438599,153.298172 380.185455,154.412643 384.227356,159.435699 
	C385.265411,160.725754 386.094116,162.184280 387.188477,163.900940 
z"/>
<path fill="#FFFCFB" opacity="1.000000" stroke="none" 
	d="
M409.378448,380.248962 
	C415.670288,383.085999 417.891510,386.478149 417.075531,391.824982 
	C416.374603,396.417969 413.681488,399.270477 409.097168,400.205292 
	C404.297455,401.183990 400.009338,399.656921 398.324646,395.246216 
	C397.171326,392.226562 397.284180,388.001038 398.490753,384.976807 
	C400.171448,380.764282 404.426666,379.492065 409.378448,380.248962 
z"/>
<path fill="#FFFDFC" opacity="1.000000" stroke="none" 
	d="
M304.119751,327.782166 
	C306.084747,343.587860 308.057465,358.940704 309.873230,374.312134 
	C310.160858,376.747101 310.161041,379.374237 309.554993,381.721680 
	C308.493011,385.834991 303.722778,389.154663 299.676422,388.768921 
	C295.022125,388.325256 291.084900,386.168060 290.129425,381.337738 
	C288.744141,374.334656 287.947174,367.207764 287.072479,360.112366 
	C281.452209,314.521545 275.876068,268.925293 270.296204,223.329514 
	C269.790741,219.199173 269.329163,215.062805 268.904510,210.923370 
	C268.234558,204.392746 267.215302,198.305115 261.284821,193.820160 
	C256.926117,190.523865 256.977081,184.584854 260.255432,180.382767 
	C263.579407,176.122208 269.218658,175.034866 274.142731,178.113754 
	C282.738586,183.488510 287.497101,191.535583 288.727173,201.443405 
	C293.935822,243.395966 298.974762,285.369568 304.119751,327.782166 
z"/>
<path fill="#FFFBFA" opacity="1.000000" stroke="none" 
	d="
M309.837769,425.280640 
	C302.961792,426.753082 298.674530,425.124451 296.361267,420.484833 
	C294.356445,416.463837 295.335236,411.219879 298.649658,408.224457 
	C302.974609,404.315796 310.062897,404.905640 313.637482,409.471649 
	C317.711609,414.675720 316.391632,420.648254 309.837769,425.280640 
z"/>
<path fill="#FFFDFC" opacity="1.000000" stroke="none" 
	d="
M456.547546,326.095215 
	C454.262817,309.406006 452.060028,293.088135 450.030518,276.748688 
	C445.785583,242.572876 441.635132,208.385376 437.438721,174.203552 
	C436.384552,165.616760 435.591431,156.982742 434.098053,148.472260 
	C433.468658,144.885574 431.798126,141.260284 429.786591,138.185165 
	C426.027191,132.437988 426.080933,126.846985 430.676025,123.035675 
	C435.198822,119.284348 441.002350,120.064735 445.823242,124.783287 
	C453.579010,132.374435 454.675354,142.305832 455.890839,152.266510 
	C462.158325,203.626587 468.468018,254.981506 474.749573,306.339844 
	C475.315216,310.964355 475.910065,315.590973 476.269196,320.233765 
	C476.772278,326.738251 474.378876,330.522827 468.971649,332.245819 
	C463.996399,333.831146 460.112366,331.997681 456.547546,326.095215 
z"/>
<path fill="#FFFCFB" opacity="1.000000" stroke="none" 
	d="
M481.233093,353.241516 
	C483.021027,360.265411 481.658630,364.337677 476.978912,366.920410 
	C473.023621,369.103363 467.686768,368.285461 464.583984,365.020844 
	C460.687622,360.921387 460.965759,354.015320 465.178558,350.255005 
	C469.985687,345.964203 476.462372,347.041901 481.233093,353.241516 
z"/>
<path fill="#FFFCFC" opacity="1.000000" stroke="none" 
	d="
M331.004333,97.647797 
	C329.083435,90.652191 331.090790,85.938225 337.063141,83.508850 
	C347.437866,79.288742 357.506805,79.937675 367.018646,86.045052 
	C372.971191,89.867073 374.565308,95.507912 371.410187,100.913406 
	C368.410492,106.052628 362.858063,107.378548 356.728851,104.008522 
	C352.661499,101.772163 348.770996,101.410774 344.341187,102.818100 
	C338.323456,104.729897 335.166443,103.381760 331.004333,97.647797 
z"/>
<path fill="#FFFBFB" opacity="1.000000" stroke="none" 
	d="
M283.993652,137.657593 
	C281.966156,132.382996 282.789032,128.068207 287.078369,124.861916 
	C290.961334,121.959343 295.154846,121.957031 299.123230,124.728920 
	C302.939911,127.394844 304.717621,131.487244 302.833893,135.581985 
	C301.479797,138.525436 298.532074,141.576279 295.571167,142.745499 
	C290.986115,144.556107 286.836487,142.365662 283.993652,137.657593 
z"/>
</svg>