<svg version="1.1" id="Layer_1" xmlns="http://www.w3.org/2000/svg" xmlns:xlink="http://www.w3.org/1999/xlink" x="0px" y="0px"
	 width="100%" viewBox="0 0 512 512" enable-background="new 0 0 512 512" xml:space="preserve">
<path fill="transparent" opacity="1.000000" stroke="none" 
	d="
M278.000000,513.000000 
	C186.688828,513.000000 95.877632,512.978821 5.066580,513.085510 
	C1.789276,513.089417 0.894939,512.628845 0.897434,509.068359 
	C1.015137,341.109406 1.016947,173.150391 0.891315,5.191469 
	C0.888499,1.427486 1.857686,0.914039 5.306586,0.916012 
	C173.098938,1.012029 340.891327,1.011622 508.683685,0.918244 
	C512.106201,0.916340 513.113586,1.390774 513.110657,5.181714 
	C512.982666,173.140640 512.985107,341.099670 513.101501,509.058624 
	C513.103943,512.599182 512.241455,513.092285 508.943146,513.087463 
	C432.128876,512.974426 355.314423,513.000000 278.000000,513.000000 
z"/>
<path fill="#46170C" opacity="1.000000" stroke="none" 
	d="
M231.199554,110.171867 
	C243.186661,107.872887 254.700012,105.335930 266.324951,103.508850 
	C280.261017,101.318520 294.394501,99.640320 308.380341,102.296394 
	C316.932983,103.920624 324.571167,108.621017 330.398712,115.122314 
	C336.237030,121.635651 341.705719,128.513290 346.222870,136.159256 
	C352.237091,146.339142 353.081024,156.740112 349.095886,167.578995 
	C347.813293,171.067322 348.476898,171.953659 352.026886,172.051575 
	C372.305725,172.610886 392.172821,176.562057 412.153748,179.563019 
	C430.833801,182.368622 449.506042,185.226028 468.187653,188.021179 
	C477.526276,189.418427 486.899384,190.597260 496.216736,192.120377 
	C502.903320,193.213425 504.663605,195.285080 504.946777,202.023361 
	C505.393188,212.646469 506.342346,223.245575 506.088409,233.907394 
	C506.002075,237.532593 504.937988,239.590729 501.621765,241.266907 
	C490.791534,246.740936 480.195251,252.676697 469.389282,258.200653 
	C466.212036,259.824799 465.519928,262.054718 466.232147,265.125549 
	C468.225006,273.717926 468.586365,282.511475 469.533752,291.233307 
	C469.792480,293.615387 468.273773,294.750519 466.581604,295.965057 
	C459.919159,300.746826 452.352875,303.907440 445.191406,307.753021 
	C422.043060,320.183289 398.554657,331.979340 375.379913,344.361633 
	C356.768524,354.305695 338.251740,364.455322 320.055817,375.132202 
	C314.061584,378.649414 308.966187,377.175079 303.534546,375.299591 
	C287.687744,369.827850 271.225555,366.136749 255.971863,358.959473 
	C253.295151,357.700012 252.601395,359.033783 251.742310,361.252350 
	C247.721008,371.637299 243.397903,381.906708 239.468521,392.325195 
	C238.266998,395.510925 236.594666,396.366425 233.446762,395.670624 
	C209.141281,390.298370 184.796005,385.104309 160.510712,379.643066 
	C118.103546,370.106537 76.089935,358.820374 33.314434,350.936340 
	C28.470348,350.043488 26.294792,346.967163 23.673065,343.399261 
	C18.572390,336.457764 12.558894,330.218170 7.437230,323.245209 
	C5.205256,320.206421 5.347635,317.639130 6.748626,314.523010 
	C10.462492,306.262482 16.135626,299.235077 20.911747,291.644165 
	C38.917824,263.026367 54.601185,233.231354 66.971146,201.712311 
	C73.417877,185.285828 79.023262,168.625809 82.364296,151.283524 
	C83.644722,144.637268 84.414742,138.027512 83.243896,131.065338 
	C81.196014,118.888023 89.674210,106.093033 101.829170,101.220398 
	C123.713104,92.447670 145.104568,95.288513 166.316818,103.714783 
	C172.648575,106.229973 179.066360,108.527870 185.415894,110.999428 
	C189.352448,112.531738 193.364243,113.218483 197.608337,113.040947 
	C208.706284,112.576736 219.830231,112.503128 231.199554,110.171867 
z"/>
<path fill="#F9EDCC" opacity="1.000000" stroke="none" 
	d="
M70.775658,326.290649 
	C59.836113,324.499908 49.310730,322.737976 38.380234,320.859497 
	C35.224766,317.932983 37.256111,315.148346 38.047848,312.380310 
	C43.700947,292.616486 54.332195,275.296478 65.341888,258.287170 
	C76.418457,241.174515 86.131721,223.480484 92.979973,204.245804 
	C95.106033,198.274307 96.950554,192.249161 97.942619,185.992462 
	C98.390251,183.169388 99.184151,180.444778 100.286934,177.864380 
	C105.271896,166.200043 107.754585,154.119965 106.904678,141.404831 
	C106.760681,139.250565 107.016060,137.069107 106.869576,134.915863 
	C106.126579,123.993927 111.428993,117.242455 124.705719,116.126167 
	C139.011139,114.923378 153.106400,116.453278 167.081726,120.639809 
	C180.641937,124.702003 194.692963,125.532265 209.003906,124.293182 
	C219.049484,123.423393 228.581039,120.984604 238.592194,118.391953 
	C260.573883,113.760040 282.325287,110.930237 304.817047,112.385071 
	C311.011444,122.815948 305.331482,139.042618 294.452728,143.288055 
	C292.744965,143.954498 290.991516,144.484299 289.272736,145.114731 
	C279.010559,148.878601 271.466064,154.767090 267.373566,165.826035 
	C258.714996,189.223785 248.259979,211.962204 240.400314,235.664383 
	C234.643814,253.024170 230.342651,270.850281 223.573471,287.904480 
	C219.061569,299.271698 211.759888,308.764862 203.668747,317.564026 
	C197.533096,324.236664 188.662842,325.990417 179.993317,326.953857 
	C154.164825,329.824036 128.233566,330.642365 102.259956,330.100800 
	C91.784348,329.882385 81.607727,327.083008 70.775658,326.290649 
z"/>
<path fill="#F9EDCC" opacity="1.000000" stroke="none" 
	d="
M334.159393,268.268341 
	C324.101288,265.160889 314.391968,262.184998 304.347687,259.040405 
	C302.506287,257.308105 302.889099,255.481842 303.406830,253.716492 
	C306.490570,243.201752 309.921265,232.806717 314.284790,222.740143 
	C316.362732,217.946396 319.646118,214.506775 324.682190,212.661438 
	C329.975983,210.721664 335.156830,208.454330 340.543213,206.779068 
	C349.018463,204.143127 355.015320,198.939758 358.118622,190.531174 
	C358.870819,188.493042 359.854614,186.572235 361.983337,184.976410 
	C366.483856,182.883102 370.605682,184.614105 374.598083,185.180817 
	C397.906555,188.489471 421.175171,192.081436 444.420135,195.820541 
	C446.244019,196.113922 448.008240,196.460297 450.017395,197.477066 
	C453.056976,201.289703 449.916779,202.819550 447.761017,204.343384 
	C442.305817,208.199478 435.977783,210.520538 430.259979,213.942688 
	C404.120667,229.587250 378.127747,245.479156 351.698944,260.635193 
	C346.232422,263.770050 340.847778,267.163513 334.159393,268.268341 
z"/>
<path fill="#E4862A" opacity="1.000000" stroke="none" 
	d="
M285.733612,163.633392 
	C296.497406,164.433823 304.737427,159.800018 311.029724,151.892044 
	C317.296478,144.016098 320.701202,134.903748 320.239807,124.600159 
	C320.168610,123.009163 319.657898,121.345589 320.908142,118.895432 
	C324.784241,125.400177 323.906708,131.771103 322.258820,137.730286 
	C317.470978,155.044525 306.006744,165.029785 288.008026,167.209229 
	C290.738068,168.990646 290.738068,168.990631 293.505432,168.524017 
	C309.799072,165.776642 321.482239,154.366180 324.999451,137.873230 
	C325.785675,134.186523 326.164825,130.461121 326.027618,125.629585 
	C329.922546,129.208511 332.107574,132.617828 334.069336,136.610260 
	C337.384155,144.390350 335.392914,151.233170 331.633362,157.794983 
	C325.402008,168.670883 317.037170,177.875153 308.505005,186.934464 
	C307.363159,188.146835 306.065552,189.187210 304.095825,189.847839 
	C301.637146,190.257355 300.430298,188.857559 299.088104,187.610504 
	C296.059357,184.796494 293.735474,181.324936 291.174103,179.145721 
	C294.268585,183.204956 299.520325,186.457092 301.959595,192.443466 
	C301.668488,194.155975 301.120605,195.406296 300.149628,196.337509 
	C292.020355,204.133789 288.972748,214.643738 284.877045,224.620087 
	C273.551819,252.206207 264.608948,280.674713 253.805237,308.441895 
	C248.055054,323.220734 243.599167,338.354156 238.949112,353.457855 
	C237.723465,357.438843 236.185196,361.310852 234.717743,365.205292 
	C232.066772,372.240692 229.804733,373.529053 221.815445,372.482941 
	C215.501953,369.511261 211.652267,364.325226 207.638870,359.350189 
	C206.771912,358.275482 206.854919,356.631836 207.953354,355.667725 
	C213.896774,350.451202 215.245300,342.820801 217.964142,336.029755 
	C219.204102,332.932648 221.466049,330.448853 222.110611,327.544312 
	C221.700897,328.343109 221.396210,329.659332 219.713715,330.286285 
	C219.117004,330.254608 218.884186,330.165009 218.395599,329.795990 
	C216.595520,326.750427 218.192673,324.315155 219.098984,321.907379 
	C232.506500,286.287720 246.752899,250.997345 260.962372,215.693619 
	C267.354034,199.813339 273.226135,183.707977 281.134155,168.074585 
	C281.588623,166.858658 281.990234,166.017227 282.581177,164.891846 
	C282.834290,164.393433 282.960083,164.207581 283.337402,163.800171 
	C283.791840,163.488113 283.994812,163.397629 284.527832,163.274475 
	C285.071991,163.294266 285.286102,163.346756 285.733612,163.633392 
z"/>
<path fill="#F3DBA9" opacity="1.000000" stroke="none" 
	d="
M286.099365,163.546051 
	C285.967041,163.867554 285.584320,163.877457 285.397827,163.920547 
	C284.959656,163.731934 284.664734,163.642029 284.125031,163.819977 
	C283.923462,163.946030 283.997955,163.995285 283.966980,163.963043 
	C283.401398,164.756546 283.109741,165.701721 282.466980,166.891724 
	C272.339233,183.699875 266.545471,202.014069 259.359253,219.690353 
	C246.603378,251.066498 234.016632,282.516846 221.994690,314.183868 
	C217.349655,326.419342 212.896790,338.731262 208.268570,350.975525 
	C207.395615,353.285004 206.736816,355.840607 203.384399,356.575928 
	C198.010254,357.473297 193.777954,354.397064 188.641403,353.820374 
	C186.764130,353.263794 185.626526,352.051849 183.682831,351.680481 
	C179.826187,350.807281 176.242584,350.566650 172.411743,349.605347 
	C168.411621,349.230652 165.022964,347.477051 160.950104,347.786865 
	C160.155426,347.761871 159.746918,347.599915 159.360870,346.985657 
	C159.151657,343.511383 156.276291,344.688477 154.902557,344.391235 
	C131.980835,339.431000 109.001823,334.735748 86.038010,329.969696 
	C81.024460,328.929108 76.020401,327.842773 70.686737,326.519653 
	C77.040886,325.206360 83.638542,326.555359 90.249863,327.049744 
	C110.030098,328.528931 129.781708,328.384460 149.572891,327.091248 
	C161.338852,326.322418 173.130966,325.922699 184.767960,323.936310 
	C194.491730,322.276489 201.777725,317.347107 208.152573,309.333435 
	C220.147736,294.254517 226.191177,276.755005 231.062973,258.783508 
	C238.277023,232.171707 248.787567,206.817108 258.891327,181.284485 
	C261.647400,174.319763 264.855072,167.517899 267.296082,160.448151 
	C270.713409,150.550735 279.178925,146.862625 287.643646,143.390869 
	C303.386749,136.933945 304.938995,134.983002 305.009979,118.087196 
	C305.016266,116.587723 305.068939,115.088448 305.140015,113.098648 
	C315.342529,113.044769 317.251740,115.115936 316.992004,125.422432 
	C316.583160,141.646347 307.205017,154.680939 291.934448,160.359665 
	C289.945648,161.099243 287.756378,161.525665 286.099365,163.546051 
z"/>
<path fill="#F9F1DE" opacity="1.000000" stroke="none" 
	d="
M238.566940,118.194145 
	C232.480133,122.074478 225.441208,124.901588 218.070297,125.774734 
	C199.137863,128.017471 180.388657,127.300957 161.886414,121.609550 
	C147.767715,117.266541 133.155884,116.001122 118.630455,119.744095 
	C111.366173,121.615982 109.048172,125.404251 109.010689,132.942978 
	C108.944656,146.222961 110.301170,159.726608 104.672485,172.303772 
	C99.738945,183.327652 98.770874,195.418472 94.481506,206.664383 
	C87.559334,224.812988 78.647522,241.764343 68.106682,258.023407 
	C61.059235,268.893982 54.450012,280.096008 48.390335,291.544403 
	C43.665520,300.470886 41.277443,310.433624 37.980820,320.363831 
	C32.237335,320.364807 26.623693,318.765137 20.439413,318.987549 
	C19.245653,318.318848 18.512049,319.066132 17.426556,319.078247 
	C16.481348,318.872803 15.988813,318.505859 15.582360,317.632233 
	C12.445806,316.426788 13.163694,315.070038 14.780144,313.152313 
	C49.302212,272.196320 70.943947,224.456772 87.894112,174.240341 
	C92.810097,159.676270 93.704704,144.659531 92.915642,129.512665 
	C92.528687,122.084488 95.817184,117.005692 101.665047,113.373634 
	C112.232697,106.810135 123.924347,105.125465 136.108521,106.447098 
	C146.557938,107.580566 156.394363,111.006042 166.110794,114.845757 
	C173.260834,117.671295 180.689804,119.087456 188.405945,119.354744 
	C205.019714,119.930229 221.636246,121.170029 238.566940,118.194145 
z"/>
<path fill="#E5882B" opacity="1.000000" stroke="none" 
	d="
M349.643494,307.225891 
	C349.536774,303.248291 349.680237,299.542633 349.799255,295.370911 
	C347.512695,291.980377 348.879120,288.578003 348.535431,285.004028 
	C349.349701,280.661194 353.452911,279.571350 355.737366,276.411621 
	C380.824615,264.862396 404.449768,251.323441 428.400543,238.418518 
	C449.436218,227.084274 470.305023,215.440353 491.604004,203.866577 
	C495.918884,208.092300 492.363342,212.838455 492.692566,217.353760 
	C492.791351,218.709030 492.131104,220.218781 491.629333,222.054993 
	C491.418091,223.612198 491.206116,224.719177 490.287384,225.996704 
	C468.035645,239.767899 445.869293,252.965439 424.254791,267.048523 
	C410.685760,275.889496 396.163361,283.011169 381.987000,290.753174 
	C374.505066,294.839172 367.820282,300.144836 360.430878,304.326904 
	C357.231232,306.137756 354.183014,309.062134 349.643494,307.225891 
z"/>
<path fill="#D34F1F" opacity="1.000000" stroke="none" 
	d="
M220.710449,371.385681 
	C222.189163,371.017944 223.546432,370.838226 224.848190,371.031708 
	C229.161041,371.672913 231.111862,369.571381 232.323990,365.632935 
	C242.993790,330.964417 255.704239,296.995544 267.983704,262.885681 
	C274.800781,243.949188 282.412140,225.295959 289.825317,206.578354 
	C292.079559,200.886536 297.315430,197.326126 300.979126,192.194046 
	C302.014160,191.439941 302.124664,190.506042 302.673676,189.461365 
	C313.961761,179.131256 323.547485,167.790573 330.970123,154.759506 
	C333.900238,149.615448 334.267822,143.718994 334.121887,137.403290 
	C334.909088,138.035828 335.541473,139.231293 336.429779,140.189560 
	C344.448486,148.839615 343.131012,157.985764 338.531403,167.746994 
	C333.562317,178.292282 326.828979,187.188904 316.574524,192.860321 
	C308.759125,197.182770 303.677429,203.520386 299.915955,211.418365 
	C283.737274,245.388748 270.792267,280.645599 257.853729,315.918579 
	C250.702057,335.415405 244.198532,355.157104 235.939789,374.628296 
	C232.866669,375.787720 229.559662,375.670471 227.092529,378.520996 
	C223.072357,377.766235 221.127899,375.375122 220.710449,371.385681 
z"/>
<path fill="#E4872A" opacity="1.000000" stroke="none" 
	d="
M187.987152,351.746338 
	C193.244446,351.488007 197.391617,354.480743 202.493790,355.040466 
	C207.541061,358.633087 212.053864,362.279083 212.544312,368.926331 
	C209.055511,370.749420 205.664124,370.246460 202.403778,369.968445 
	C179.904678,368.050049 157.570724,364.704407 135.196365,361.763458 
	C116.434036,359.297272 98.195656,354.097321 79.788383,349.814758 
	C69.448364,347.409088 59.059399,345.256836 48.024216,344.294922 
	C47.602058,344.166199 47.324345,344.190491 47.199066,344.129395 
	C46.908993,343.916321 46.744205,343.764343 46.279881,343.765137 
	C44.919716,343.867126 43.859093,343.816406 42.437630,343.593933 
	C40.951572,340.357605 39.459602,337.456421 38.117489,334.487976 
	C37.381214,332.859467 36.598621,331.191772 37.772858,329.120789 
	C53.596466,330.232269 68.767960,333.940491 84.117722,336.564270 
	C105.837708,340.276947 127.292961,345.472992 149.952759,348.049469 
	C152.110779,347.876709 153.446335,348.289917 155.177643,348.455566 
	C159.293976,348.158112 162.855927,349.902344 166.991333,349.546997 
	C167.856705,349.615265 168.340729,349.708588 169.161285,349.968750 
	C170.676224,350.422852 171.875290,350.502777 173.437531,350.519470 
	C174.025223,350.541504 174.258316,350.554810 174.834503,350.617188 
	C176.646408,351.228790 178.152756,351.593903 180.058258,351.536774 
	C181.443497,351.652008 182.423981,351.204102 183.789978,351.050293 
	C185.337677,350.999451 186.457748,351.501617 187.987152,351.746338 
z"/>
<path fill="#E6882B" opacity="1.000000" stroke="none" 
	d="
M315.722595,362.201324 
	C314.394348,352.161682 315.767700,342.304108 314.105804,332.586517 
	C313.851257,331.098206 314.324799,330.164032 316.134277,329.915131 
	C320.813446,329.271515 324.769043,326.624176 329.423553,324.847900 
	C333.620331,323.831360 336.590393,326.211517 339.555725,327.785248 
	C344.322113,330.314850 348.473053,329.808105 352.566101,326.722504 
	C360.660736,320.620209 368.647156,314.386993 377.638397,309.568817 
	C385.108215,305.566010 392.541107,301.515900 400.237335,297.944946 
	C412.781586,292.124542 424.862457,285.406891 436.868073,278.558380 
	C438.172455,277.814270 439.437653,276.988251 440.878448,276.547821 
	C444.490875,275.443573 446.648590,276.793396 446.423859,280.482330 
	C446.214172,283.924072 446.428345,287.516724 444.635010,291.117096 
	C444.441589,292.576538 443.945618,293.478882 442.963074,294.552765 
	C427.290771,301.866150 412.110352,309.357025 396.741394,316.448639 
	C376.150787,325.949554 358.111267,339.781433 338.451599,350.865967 
	C332.805756,354.049255 327.399292,357.609192 322.209259,361.494110 
	C320.294525,362.927368 318.377930,364.312927 315.722595,362.201324 
z"/>
<path fill="#F3DAA9" opacity="1.000000" stroke="none" 
	d="
M334.059143,268.397095 
	C350.405396,258.665100 367.104919,249.371323 383.568817,239.677307 
	C404.759796,227.199982 425.326111,213.660889 447.203674,202.348602 
	C448.495209,201.680786 449.541138,200.537933 450.887878,199.332138 
	C451.752625,197.957870 452.801025,197.580673 454.436523,197.541107 
	C461.309723,198.562576 467.936005,198.659271 474.374939,201.536957 
	C475.450348,202.655838 475.566742,203.605759 474.890747,204.945343 
	C474.553162,205.420776 474.399567,205.592163 474.004547,205.993622 
	C473.599304,206.363251 473.435486,206.502808 473.011322,206.818054 
	C472.402252,207.189621 472.043335,207.364075 471.429840,207.647964 
	C471.028687,207.869690 470.868042,207.952362 470.467987,208.149261 
	C469.915161,208.404984 469.601654,208.546265 469.069183,208.811981 
	C468.704071,209.019501 468.557861,209.102356 468.190979,209.305328 
	C467.666656,209.573822 467.377197,209.745956 466.892181,210.104309 
	C466.537811,210.375549 466.392242,210.482910 466.019897,210.754303 
	C465.632751,211.024384 465.472382,211.130417 465.057617,211.384308 
	C464.451904,211.739090 464.090057,211.925751 463.419861,212.223907 
	C462.902771,212.400742 462.685913,212.450531 462.139648,212.581970 
	C448.643402,219.046356 436.012787,226.428574 423.179382,233.430832 
	C404.224548,243.773132 385.722870,254.917999 366.835541,265.382568 
	C362.765717,267.637451 358.708160,269.918488 354.389954,272.487244 
	C353.886414,272.867004 353.666626,272.997803 353.079071,273.249207 
	C351.933197,273.461334 351.151276,273.477142 349.971497,273.490845 
	C348.232330,273.498108 346.890778,273.500092 345.138000,273.475403 
	C343.861420,273.471832 343.101471,273.188293 342.210724,272.283020 
	C339.820190,269.911041 336.877502,269.721008 334.059143,268.397095 
z"/>
<path fill="#E5842A" opacity="1.000000" stroke="none" 
	d="
M295.702759,265.785583 
	C311.168793,270.058655 326.262817,274.520996 341.720581,279.127258 
	C344.031921,280.967224 344.121521,283.258514 344.140533,285.589905 
	C344.184662,291.003662 344.074646,296.418732 344.203735,301.830750 
	C344.265686,304.428162 344.099060,307.140869 346.468628,309.542084 
	C346.797607,315.650574 346.769745,315.698517 341.348724,314.011597 
	C323.450867,308.442169 305.561554,302.845215 287.341095,297.079834 
	C285.510010,295.488739 285.226990,293.724976 285.777374,291.860870 
	C288.079163,284.064697 290.530182,276.314423 293.161072,268.622589 
	C293.545685,267.498138 294.296661,266.602875 295.702759,265.785583 
z"/>
<path fill="#F3DAA9" opacity="1.000000" stroke="none" 
	d="
M362.339081,185.625641 
	C358.771393,198.444763 351.262207,206.694275 338.432220,209.761124 
	C335.861938,210.375488 333.498322,211.859024 330.926941,212.463409 
	C322.195435,214.515701 317.077209,219.756821 314.101379,228.321167 
	C310.659637,238.226471 307.497681,248.217941 304.075378,258.508881 
	C303.681732,258.888733 303.333191,258.982788 303.022369,258.911713 
	C290.152893,255.968903 290.138824,255.961105 295.078613,243.900040 
	C299.024048,234.266861 303.101440,224.686356 306.923157,215.004669 
	C308.078674,212.077362 309.833191,209.927231 312.351288,208.153381 
	C317.369629,204.618286 322.236603,200.867294 327.275482,197.362732 
	C332.969421,193.402618 337.775269,188.570480 340.881500,182.414642 
	C342.965271,178.285095 345.635986,176.959335 350.011658,177.967026 
	C353.389221,178.744858 356.864899,179.096588 360.650085,179.831833 
	C362.558777,181.467590 363.765778,183.015076 362.339081,185.625641 
z"/>
<path fill="#E6882B" opacity="1.000000" stroke="none" 
	d="
M311.552979,356.656555 
	C311.877258,358.046387 311.917328,359.105896 311.899689,360.559814 
	C310.630310,362.319061 309.102356,362.692108 307.334045,362.498444 
	C295.464569,361.198669 283.642578,359.576263 272.169403,356.157776 
	C264.419189,353.848633 263.303894,351.611237 266.162109,344.192688 
	C268.195587,338.914795 269.856476,333.516907 271.785126,328.208374 
	C272.582581,326.013489 273.281097,323.785492 275.644135,322.118530 
	C286.459045,324.333893 296.879059,326.717041 307.695496,329.234955 
	C310.028961,330.693390 310.002899,332.705139 310.000916,334.728821 
	C309.995575,340.213867 309.985291,345.698944 310.007324,351.183929 
	C310.014587,352.990906 309.733582,354.886414 311.552979,356.656555 
z"/>
<path fill="#D24F1F" opacity="1.000000" stroke="none" 
	d="
M349.297028,307.385498 
	C352.708130,306.800629 355.545746,305.109802 358.030212,303.339111 
	C376.098083,290.462189 396.470276,281.583984 415.301819,270.064667 
	C437.971436,256.197632 460.237091,241.672485 483.182892,228.252350 
	C484.743011,227.339905 486.456940,226.690369 488.457336,225.862244 
	C491.567596,229.925873 490.372467,233.588974 487.233368,237.404068 
	C462.239197,252.196732 436.682892,265.108612 411.663757,279.001343 
	C392.451080,289.669861 373.477692,300.729370 355.148926,312.873444 
	C353.547485,313.934540 351.771729,316.215973 350.014282,315.281342 
	C347.906769,314.160553 349.348877,311.361786 349.106720,309.310272 
	C349.049194,308.823029 349.164795,308.315369 349.297028,307.385498 
z"/>
<path fill="#CF4F1F" opacity="1.000000" stroke="none" 
	d="
M47.931808,344.402161 
	C57.337116,343.448547 66.774406,345.466736 76.135414,347.616730 
	C86.645302,350.030579 97.025330,353.004272 107.492615,355.610870 
	C117.005470,357.979797 126.789818,358.674713 136.472000,359.953888 
	C151.081207,361.884033 165.733612,363.485077 180.352020,365.348450 
	C190.875565,366.689911 201.389221,368.048462 212.482849,368.020691 
	C215.742935,366.795685 216.787857,369.257080 218.032211,370.714752 
	C221.342667,374.592651 224.571671,378.521484 228.827560,382.304260 
	C225.366882,384.896057 221.865036,383.054840 218.501038,382.307220 
	C171.326599,371.823547 124.194977,361.147400 77.036583,350.591156 
	C67.479599,348.451843 57.854992,346.614624 47.931808,344.402161 
z"/>
<path fill="#D04F1F" opacity="1.000000" stroke="none" 
	d="
M315.435913,362.273926 
	C317.161774,362.018005 318.879852,362.287170 320.272369,361.063965 
	C333.127258,349.772339 348.918396,343.022919 362.909943,333.478271 
	C386.678650,317.263824 413.270905,306.492157 439.177734,294.414001 
	C439.769348,294.138153 440.458038,294.070465 441.476440,293.865692 
	C443.042358,294.796204 443.117249,296.001953 442.348358,297.756775 
	C430.202789,305.810547 417.366760,311.724152 404.878296,318.265381 
	C376.479675,333.140106 348.396210,348.582886 320.489838,364.354980 
	C318.280182,365.603821 315.435577,368.109497 315.435913,362.273926 
z"/>
<path fill="#D24E1F" opacity="1.000000" stroke="none" 
	d="
M443.602112,291.414307 
	C443.617493,288.166870 443.914795,285.201355 444.204895,282.235077 
	C444.355347,280.696655 445.949036,278.786316 444.052094,277.736450 
	C442.502441,276.878784 440.963257,278.526520 439.587921,279.339264 
	C427.424591,286.527130 415.010712,293.247131 402.249115,299.306641 
	C391.461639,304.428864 380.329956,308.837708 370.390564,315.651154 
	C365.988678,318.668671 361.981506,322.133392 357.952179,325.574829 
	C351.370270,331.196411 344.588196,334.257019 336.431915,328.630432 
	C334.529694,327.318207 332.403931,326.329956 330.079285,324.983948 
	C332.189117,321.132507 335.291718,320.488800 339.157776,322.429321 
	C344.199371,324.959869 348.747070,324.017731 353.715454,321.327179 
	C382.596771,305.686981 410.520905,288.320953 439.893768,273.574707 
	C441.668488,272.683716 443.466980,271.840118 445.612976,270.908142 
	C448.091400,272.279572 449.965118,271.155579 451.910309,270.333618 
	C453.964050,269.465790 455.993408,268.088257 458.602539,269.766327 
	C459.758789,274.647522 460.184113,279.324677 459.897461,284.506042 
	C455.313202,289.070984 450.655396,292.891449 443.602112,291.414307 
z"/>
<path fill="#D24D1F" opacity="1.000000" stroke="none" 
	d="
M275.781158,321.695465 
	C273.139587,330.442902 270.435089,339.009125 267.252014,347.393646 
	C265.827454,351.146088 266.883881,352.872711 270.319763,354.194000 
	C278.510620,357.343903 287.260498,357.374878 295.733978,358.924255 
	C300.785858,359.847961 305.923920,360.300323 311.432617,360.959412 
	C311.928558,361.781708 311.983398,362.613953 312.107178,363.435822 
	C312.682678,367.257050 311.672882,368.536041 307.499176,367.300537 
	C291.261810,362.494019 274.946930,357.946533 258.628418,353.419678 
	C255.759766,352.623932 254.813965,351.485901 255.914841,348.483978 
	C259.118652,339.747589 262.117920,330.935669 265.146332,322.135773 
	C266.064606,319.467468 267.501007,318.256775 270.376892,319.560120 
	C272.035645,320.311920 273.804169,320.821564 275.781158,321.695465 
z"/>
<path fill="#F5ECDA" opacity="1.000000" stroke="none" 
	d="
M362.506989,185.976746 
	C361.728699,184.240524 361.377930,182.512802 361.015167,180.405487 
	C373.085144,180.965118 384.897583,183.661224 396.832886,185.551636 
	C414.176117,188.298599 431.497498,191.183929 448.826324,194.021561 
	C450.625549,194.316193 452.412262,194.687271 454.598572,195.145157 
	C455.919891,196.160080 456.054230,197.200974 455.282898,198.669128 
	C453.948914,198.996567 452.901978,199.012390 451.464722,199.038177 
	C432.706360,196.196991 414.348785,193.275665 395.966248,190.521057 
	C384.975861,188.874176 373.946411,187.488419 362.506989,185.976746 
z"/>
<path fill="#D24D1F" opacity="1.000000" stroke="none" 
	d="
M295.832489,265.374634 
	C293.453339,273.995972 290.808868,282.388580 288.229218,290.801086 
	C287.698029,292.533325 287.408752,294.339813 287.010590,296.506470 
	C274.751099,295.721771 274.756622,295.723938 279.091797,284.677979 
	C281.382233,278.842102 283.708435,273.019226 285.910583,267.149963 
	C288.108154,261.292938 288.151611,261.230591 293.863495,264.178162 
	C294.450439,264.481079 295.015137,264.827026 295.832489,265.374634 
z"/>
<path fill="#CF7A29" opacity="1.000000" stroke="none" 
	d="
M473.140320,205.063751 
	C473.772003,204.380920 474.307404,203.997574 474.978821,203.402161 
	C475.737396,201.928223 476.844147,201.534775 478.606079,201.517288 
	C481.133118,201.909637 483.245636,202.152069 485.227905,203.851440 
	C469.286255,212.839478 453.145630,221.437592 436.986298,230.000305 
	C426.258545,235.684845 415.503967,241.318741 404.405975,247.040527 
	C403.883240,246.920929 403.715881,246.736099 403.452942,246.190155 
	C403.428101,243.494003 405.490784,243.039444 406.977448,242.168320 
	C421.516998,233.648834 436.291534,225.546371 451.071594,217.454819 
	C454.838257,215.392715 458.396423,212.937561 462.680664,211.121460 
	C462.918335,210.842056 463.005920,210.937851 462.950684,210.903809 
	C463.425659,210.582092 464.029968,210.513702 464.762573,210.059479 
	C464.940338,209.820114 464.924103,209.904160 464.883240,209.891418 
	C465.339966,209.697906 465.851318,209.546570 466.472351,209.030502 
	C466.940643,208.621002 467.243561,208.442154 467.754639,208.114136 
	C467.935455,207.919525 468.006866,207.977737 467.966187,207.957428 
	C468.417480,207.582077 469.015289,207.512604 469.773895,207.114746 
	C469.977448,206.901703 469.981232,206.972015 469.950195,206.955383 
	C470.414459,206.585220 471.013702,206.512421 471.775940,206.113434 
	C471.980560,205.899750 471.977356,205.971313 471.948608,205.949951 
	C472.285248,205.721573 472.660400,205.533966 473.140320,205.063751 
z"/>
<path fill="#F0D8A7" opacity="1.000000" stroke="none" 
	d="
M271.354492,312.608887 
	C267.344635,308.092804 271.749542,304.874054 272.769501,301.420166 
	C273.766449,298.044403 276.406555,300.505676 278.098907,301.092438 
	C283.662842,303.021454 289.123169,305.249359 294.823853,307.658386 
	C297.742645,310.904907 296.246552,314.040009 295.197784,317.508148 
	C293.227600,319.838593 291.190613,319.192383 289.132904,318.558929 
	C286.501770,317.748962 283.819672,317.128326 280.766357,316.435303 
	C280.152161,316.310364 279.914124,316.242126 279.324219,316.078003 
	C277.013763,315.269073 275.114746,314.348114 272.658081,314.120758 
	C271.949097,313.714355 271.649353,313.369995 271.354492,312.608887 
z"/>
<path fill="#CC9938" opacity="1.000000" stroke="none" 
	d="
M403.511932,245.270203 
	C403.874207,245.727539 403.910278,246.003082 403.998474,246.692184 
	C389.412567,256.446136 373.746521,263.942963 358.640808,272.444336 
	C357.069489,273.328644 355.602142,274.397644 353.570190,276.180847 
	C342.672699,277.465698 333.385498,272.933990 323.671082,270.438934 
	C316.462616,268.587463 309.438904,266.016602 302.065002,263.519287 
	C301.604584,262.654877 301.768768,262.154419 302.722809,261.789886 
	C314.647461,265.186523 325.889923,269.450531 337.741394,271.548279 
	C338.871979,271.748413 340.018280,271.859802 341.569305,271.972351 
	C342.743011,271.984314 343.504669,272.036316 344.640503,272.164673 
	C346.361176,273.243958 347.864014,273.045593 349.679749,272.709595 
	C350.830383,272.429901 351.707947,272.588837 352.758362,272.109497 
	C352.971802,271.868713 352.963562,271.941040 352.929718,271.927643 
	C368.711334,264.540192 383.472839,255.250977 398.657806,246.731247 
	C400.075928,245.935577 401.302734,244.605606 403.511932,245.270203 
z"/>
<path fill="#F3E6C6" opacity="1.000000" stroke="none" 
	d="
M294.080566,319.125153 
	C294.262817,315.031860 294.629303,311.915009 295.010101,308.376221 
	C303.172180,310.589752 311.314728,313.241425 319.474060,315.840454 
	C320.521423,316.174072 321.492737,316.335388 320.330139,317.953064 
	C319.657288,319.475769 318.761688,320.367859 317.480835,321.364288 
	C317.105652,321.746307 316.945465,321.889496 316.518158,322.212158 
	C315.697479,322.705170 315.087830,322.911957 314.307678,323.477783 
	C313.871155,323.796539 313.689148,323.916229 313.207458,324.169800 
	C312.052155,324.515533 311.244843,324.892334 310.035675,325.064148 
	C309.475647,325.057129 309.251984,325.031189 308.692749,324.960785 
	C304.394928,323.237946 300.142700,322.518646 295.760162,321.040955 
	C295.034241,320.651428 294.639801,320.391266 294.080566,319.125153 
z"/>
<path fill="#E9B23E" opacity="1.000000" stroke="none" 
	d="
M346.862762,309.457764 
	C342.712738,310.329590 342.000427,307.757660 342.000763,304.598694 
	C342.001709,296.456360 342.030731,288.313995 342.066467,279.721436 
	C345.806305,279.793488 349.703613,281.484070 352.913940,277.323608 
	C353.053864,276.980743 352.979645,276.997375 352.986908,277.034729 
	C353.218872,276.820679 353.451019,276.576447 353.881470,276.173218 
	C354.071198,276.006104 353.998657,276.014252 354.001526,276.050537 
	C354.435913,276.161285 354.867401,276.235687 355.671021,276.244446 
	C355.363434,279.595123 352.204956,281.055359 350.121643,283.790527 
	C348.979980,287.443451 349.922333,291.049927 348.387268,294.697937 
	C347.775421,299.712616 347.372467,304.382721 346.862762,309.457764 
z"/>
<path fill="#E7B03D" opacity="1.000000" stroke="none" 
	d="
M37.715069,328.681549 
	C38.769497,332.519745 41.026455,335.481445 42.368004,338.839600 
	C42.904758,340.183228 44.765278,341.590607 42.312660,343.257935 
	C37.825859,343.562988 34.661934,341.786316 31.915157,338.504333 
	C28.329550,334.220062 24.308743,330.300018 19.978138,325.694672 
	C26.393373,325.841553 31.871737,327.318115 37.715069,328.681549 
z"/>
<path fill="#D34F1F" opacity="1.000000" stroke="none" 
	d="
M490.432983,223.370789 
	C489.893097,216.859451 491.652649,210.844940 491.971069,204.243622 
	C492.754059,203.224335 493.531189,202.624191 494.344360,202.077606 
	C496.958893,200.320206 498.224579,200.891586 498.141022,204.178696 
	C498.006989,209.453796 497.984985,214.731766 497.854431,220.468918 
	C496.010651,223.324051 493.934082,224.959503 490.432983,223.370789 
z"/>
<path fill="#BF321E" opacity="1.000000" stroke="none" 
	d="
M489.980347,223.335846 
	C492.452454,222.384705 494.762573,221.694504 497.432983,220.966812 
	C498.684143,232.162766 498.684143,232.162766 487.279175,237.641785 
	C487.570007,234.045486 488.186249,230.342316 488.808899,226.222534 
	C489.149658,225.069565 489.484009,224.333191 489.980347,223.335846 
z"/>
<path fill="#F1E3C3" opacity="1.000000" stroke="none" 
	d="
M479.299683,202.740448 
	C477.984711,202.971680 476.943604,202.976685 475.508698,203.085892 
	C468.611450,201.949142 462.108032,200.708206 455.300232,199.223999 
	C454.993408,197.990662 454.990936,197.000565 454.990448,195.638947 
	C462.338593,196.178329 469.680634,197.124649 477.033691,197.976532 
	C479.003906,198.204788 480.999420,198.180527 482.896606,199.656448 
	C483.271332,202.773392 480.730072,201.682327 479.299683,202.740448 
z"/>
<path fill="#ECB53F" opacity="1.000000" stroke="none" 
	d="
M311.900238,356.522095 
	C308.292206,357.076477 307.970886,354.727173 307.990204,352.012634 
	C308.041901,344.760803 308.037018,337.508606 308.073242,329.813110 
	C311.702301,328.711426 312.272919,330.853302 312.224701,333.732422 
	C312.100067,341.173431 312.045685,348.615601 311.900238,356.522095 
z"/>
<path fill="#BF321E" opacity="1.000000" stroke="none" 
	d="
M443.209656,291.420837 
	C449.258484,290.825653 453.492584,286.121735 459.484192,284.989532 
	C460.762878,288.045288 459.646515,289.916748 456.683685,291.231140 
	C451.979614,293.317963 447.424591,295.740845 442.456177,298.100342 
	C442.054230,297.019165 442.002655,295.859131 441.901245,294.262390 
	C442.266357,293.120117 442.681274,292.414551 443.209656,291.420837 
z"/>
<path fill="#CC792A" opacity="1.000000" stroke="none" 
	d="
M295.790405,319.769409 
	C300.213715,320.981476 304.503174,321.665924 308.725281,323.786621 
	C309.390503,324.410370 309.517700,324.896790 309.181091,325.772461 
	C299.028809,323.664490 289.264893,320.667633 279.274475,317.234039 
	C278.895966,316.758453 278.807648,316.503265 278.981873,315.939758 
	C284.228790,315.278687 288.518158,318.307983 293.731323,318.742493 
	C294.079681,318.948303 294.017975,318.977325 294.016113,318.943268 
	C294.398743,319.420990 294.985413,319.488708 295.790405,319.769409 
z"/>
<path fill="#D27C29" opacity="1.000000" stroke="none" 
	d="
M320.684235,319.145264 
	C323.877533,317.194885 326.491913,317.850830 329.539764,319.850647 
	C325.154266,323.355774 320.547485,325.324371 315.374115,326.945496 
	C313.774078,326.686279 312.980988,325.914581 312.459381,324.424164 
	C312.436829,323.858490 312.479492,323.632538 312.698303,323.110016 
	C312.874512,322.813477 312.957916,322.877777 312.905518,322.872681 
	C313.843140,322.534363 314.636139,321.854034 315.729675,321.114899 
	C315.930908,320.881104 315.974426,321.001068 315.946411,320.942261 
	C317.370514,320.257721 318.761444,319.460724 320.684235,319.145264 
z"/>
<path fill="#BF321E" opacity="1.000000" stroke="none" 
	d="
M458.876953,269.623657 
	C455.327332,270.066864 452.655060,272.295654 449.682587,273.709686 
	C447.175995,274.902039 445.883667,274.626648 445.983032,271.213104 
	C448.512939,269.279480 451.002045,267.622986 453.607208,266.175232 
	C458.285583,263.575287 458.464478,263.714783 458.876953,269.623657 
z"/>
<path fill="#BF321E" opacity="1.000000" stroke="none" 
	d="
M226.803162,378.446777 
	C230.019867,371.950195 230.019867,371.950195 235.459976,374.896057 
	C235.090164,377.651489 233.976044,380.140228 232.405472,382.458069 
	C231.589462,383.662292 230.797089,383.941437 229.308075,383.036133 
	C228.987793,382.984772 229.033249,383.004364 229.020584,383.026123 
	C228.307922,381.573822 226.352280,380.794220 226.803162,378.446777 
z"/>
<path fill="#CC9938" opacity="1.000000" stroke="none" 
	d="
M15.257851,317.565186 
	C15.937559,317.529327 16.355421,317.736938 16.992846,318.061768 
	C17.745802,318.476959 18.255795,318.807831 18.894772,319.466888 
	C23.733110,321.042816 28.374626,322.386047 33.016140,323.729309 
	C32.931385,324.098114 32.846630,324.466949 32.761875,324.835754 
	C27.667923,323.952332 22.530031,323.256714 17.504593,322.080566 
	C15.816395,321.685486 12.779609,320.995422 15.257851,317.565186 
z"/>
<path fill="#CC9938" opacity="1.000000" stroke="none" 
	d="
M479.416199,203.056335 
	C479.327972,201.021439 481.034180,200.845001 482.732727,200.143127 
	C486.268372,198.088638 489.259338,200.144882 493.248535,200.140701 
	C490.682404,202.478790 488.290497,203.113937 485.772400,204.188263 
	C483.558746,203.886276 481.682648,203.516144 479.416199,203.056335 
z"/>
<path fill="#C97425" opacity="1.000000" stroke="none" 
	d="
M53.673870,327.464600 
	C61.828148,328.414429 69.721832,329.462311 77.371857,331.628906 
	C77.298096,332.032867 77.224335,332.436859 77.150574,332.840820 
	C69.610420,331.528839 62.070274,330.216827 54.179241,328.767273 
	C53.671749,328.357788 53.515141,328.085876 53.673870,327.464600 
z"/>
<path fill="#C97425" opacity="1.000000" stroke="none" 
	d="
M103.850998,337.329590 
	C112.573006,338.797119 121.069473,340.439911 129.920120,342.227905 
	C130.418411,342.644287 130.562531,342.915466 130.348923,343.476807 
	C121.463913,342.046448 112.936638,340.325867 104.150650,338.307739 
	C103.803108,337.841766 103.714272,337.673309 103.850998,337.329590 
z"/>
<path fill="#D27C29" opacity="1.000000" stroke="none" 
	d="
M158.949661,346.872314 
	C159.329498,346.660553 159.392975,346.704926 159.425919,346.727051 
	C162.612396,347.235138 165.831360,347.382324 169.047287,348.888184 
	C169.180817,349.759644 168.905899,350.165070 168.034393,350.465851 
	C163.292969,350.990936 159.165115,349.557983 154.530106,348.994232 
	C153.596619,348.830566 153.076950,348.681061 152.204697,348.309998 
	C151.785355,347.864258 151.730484,347.598755 151.869293,346.975708 
	C154.231934,346.773468 156.400879,346.928772 158.949661,346.872314 
z"/>
<path fill="#CC9938" opacity="1.000000" stroke="none" 
	d="
M312.535248,323.735291 
	C313.899384,324.436218 314.669098,325.155426 314.955139,326.643799 
	C313.013306,328.758789 311.241089,327.327576 309.190125,326.343384 
	C308.974915,325.629486 308.991669,325.160248 309.015381,324.338989 
	C309.022369,323.986938 309.444214,323.909485 309.658630,323.911499 
	C310.586060,323.434235 311.384979,323.504059 312.535248,323.735291 
z"/>
<path fill="#BB481E" opacity="1.000000" stroke="none" 
	d="
M279.336609,315.734009 
	C279.015137,316.171997 279.002014,316.340027 278.986603,316.760864 
	C276.187012,316.350494 273.347260,315.825073 270.606049,314.980011 
	C268.458527,314.317963 269.023804,313.381897 270.985474,312.474060 
	C271.473419,312.141205 271.660919,312.163483 271.889221,312.483459 
	C273.843781,314.108795 276.279602,313.786377 278.741089,314.710999 
	C279.094238,314.864532 279.099640,314.831085 279.116241,314.827637 
	C279.303558,315.037476 279.474274,315.250793 279.336609,315.734009 
z"/>
<path fill="#C97425" opacity="1.000000" stroke="none" 
	d="
M151.744232,346.419861 
	C152.055176,346.825317 152.047379,347.032471 152.025787,347.550201 
	C151.657288,348.327881 151.189468,348.520966 150.273346,348.213318 
	C149.938095,347.986481 149.987930,347.940491 150.015961,347.958496 
	C146.886642,346.237183 143.096878,346.620819 139.993454,344.324371 
	C143.804138,344.956757 147.614807,345.589142 151.744232,346.419861 
z"/>
<path fill="#C97425" opacity="1.000000" stroke="none" 
	d="
M302.900391,261.577179 
	C302.828735,262.111694 302.501801,262.414764 301.985992,262.995148 
	C300.013855,262.707947 298.230652,262.143494 296.194031,261.339691 
	C295.594604,260.698212 295.465088,260.235504 295.782104,259.414856 
	C298.223053,259.860291 300.434113,260.602997 302.900391,261.577179 
z"/>
<path fill="#CF7A29" opacity="1.000000" stroke="none" 
	d="
M95.015427,336.310059 
	C90.605278,336.055603 86.732780,334.887421 82.409088,333.940216 
	C81.902725,333.637207 81.792923,333.413208 81.883682,332.873413 
	C86.427223,333.382568 90.770187,334.207550 95.512070,335.139160 
	C96.023125,335.779297 95.826584,336.171112 95.015427,336.310059 
z"/>
<path fill="#CF4F1F" opacity="1.000000" stroke="none" 
	d="
M295.685547,258.959625 
	C295.997070,259.558258 295.982147,259.998901 295.953918,260.769958 
	C295.448120,261.045135 294.839874,261.155243 294.483429,260.905701 
	C293.028534,259.887054 289.358978,260.583405 290.297211,258.083679 
	C291.100006,255.944855 293.594910,258.459900 295.685547,258.959625 
z"/>
<path fill="#673013" opacity="1.000000" stroke="none" 
	d="
M348.578339,295.018188 
	C348.553223,291.536987 348.928131,288.031464 349.634888,284.310303 
	C349.963562,287.448914 349.960358,290.803101 349.865997,294.531067 
	C349.509338,294.934509 349.243835,294.964172 348.578339,295.018188 
z"/>
<path fill="#CF7A29" opacity="1.000000" stroke="none" 
	d="
M53.587479,327.040161 
	C53.964325,327.367432 53.939434,327.619690 53.871449,328.250824 
	C50.523624,328.066010 47.218891,327.502350 43.513641,326.839630 
	C42.988224,326.212585 43.176865,325.822815 43.986343,325.668610 
	C47.285835,326.178101 50.235790,326.571625 53.587479,327.040161 
z"/>
<path fill="#C97425" opacity="1.000000" stroke="none" 
	d="
M94.980698,336.397095 
	C94.960228,335.991608 95.252510,335.803528 95.727890,335.430634 
	C97.592377,335.525909 99.273773,335.806000 101.322968,336.110291 
	C102.247536,336.347870 102.490700,336.750580 102.191856,337.662750 
	C99.587791,338.269135 97.465584,337.320190 94.980698,336.397095 
z"/>
<path fill="#C26F23" opacity="1.000000" stroke="none" 
	d="
M43.998962,325.574127 
	C44.049801,325.980591 43.763718,326.176605 43.295383,326.556580 
	C40.755356,325.725647 37.864613,326.699493 35.807278,324.222626 
	C38.425533,324.602966 41.043789,324.983307 43.998962,325.574127 
z"/>
<path fill="#C26F23" opacity="1.000000" stroke="none" 
	d="
M130.368225,343.830109 
	C130.032227,343.533997 130.073273,343.301025 130.194305,342.720581 
	C132.326431,343.276855 134.969894,342.260284 136.773941,344.333099 
	C134.556152,345.944489 132.715408,344.061279 130.368225,343.830109 
z"/>
<path fill="#572716" opacity="1.000000" stroke="none" 
	d="
M320.812134,318.885803 
	C319.764648,320.269043 318.291473,321.066376 316.227295,321.102905 
	C316.534271,319.294495 318.361176,319.289062 319.707367,318.201782 
	C320.195404,318.406525 320.395996,318.606689 320.812134,318.885803 
z"/>
<path fill="#502112" opacity="1.000000" stroke="none" 
	d="
M102.284821,337.990479 
	C101.935707,337.567322 101.907990,337.151794 101.785515,336.435394 
	C102.328674,336.313324 102.966591,336.492126 103.840523,336.912628 
	C104.076538,337.154327 104.021118,337.590210 103.956528,337.800201 
	C103.463364,338.006165 103.034782,338.002136 102.284821,337.990479 
z"/>
<path fill="#C97425" opacity="1.000000" stroke="none" 
	d="
M81.850632,332.401154 
	C82.072594,332.774872 82.060936,332.992157 82.030907,333.535309 
	C81.172813,333.846832 80.281410,333.826111 80.405998,332.652100 
	C80.424736,332.475494 81.194595,332.378571 81.850632,332.401154 
z"/>
<path fill="#502112" opacity="1.000000" stroke="none" 
	d="
M19.235312,319.557739 
	C18.546482,319.339539 18.001377,318.979523 17.334343,318.399231 
	C18.055023,318.253906 18.897635,318.328796 19.897726,318.689484 
	C19.816801,319.102173 19.591412,319.249054 19.235312,319.557739 
z"/>
<path fill="#CF4F1F" opacity="1.000000" stroke="none" 
	d="
M46.246552,344.007446 
	C46.279572,343.870819 46.578796,343.823761 46.975906,343.922485 
	C46.886780,344.077850 46.699772,344.087433 46.246552,344.007446 
z"/>
<path fill="#46170C" opacity="1.000000" stroke="none" 
	d="
M226.671356,377.955872 
	C227.660202,379.535370 228.357254,380.949341 229.031097,382.705566 
	C222.605194,379.460236 218.752579,373.179871 213.224854,368.191406 
	C209.701523,363.902069 206.461594,359.790344 203.053925,355.385132 
	C204.932922,355.082825 205.461243,353.765747 206.097000,352.029388 
	C226.064392,297.494598 247.836472,243.659302 269.214600,189.672195 
	C272.445587,181.512955 276.227661,173.552567 281.915619,166.292236 
	C282.637390,165.887512 283.038849,166.016571 283.198242,166.745453 
	C267.952209,204.071533 252.735062,241.027664 237.820465,278.105499 
	C231.075424,294.873779 224.931885,311.883972 218.419952,329.148804 
	C218.324448,329.513153 218.649887,329.802643 218.944824,330.010376 
	C221.369781,327.601379 221.501419,323.784515 224.142609,321.255463 
	C225.714996,323.102661 224.536972,324.387054 224.017136,325.655304 
	C220.494232,334.250122 217.097961,342.905548 213.225952,351.341797 
	C212.383484,353.177368 213.146576,357.038452 208.662903,356.524139 
	C207.513535,356.392303 208.757812,358.777771 209.527954,359.601868 
	C213.046906,363.367432 216.696548,367.010834 220.578278,370.862427 
	C222.698059,373.281219 224.538803,375.535767 226.671356,377.955872 
z"/>
<path fill="#46170C" opacity="1.000000" stroke="none" 
	d="
M284.393738,177.113922 
	C274.508423,196.336777 268.844635,217.049774 260.254059,236.864807 
	C258.362396,235.184326 259.210480,233.973938 259.637451,232.831009 
	C265.385498,217.445114 271.079559,202.038254 276.968140,186.706161 
	C278.379089,183.032425 279.712463,179.184586 283.189148,176.330322 
	C283.753723,176.393448 283.976898,176.565720 284.393738,177.113922 
z"/>
<path fill="#55210E" opacity="1.000000" stroke="none" 
	d="
M302.553802,188.995575 
	C303.551117,190.382767 304.266663,191.591049 305.087402,192.976929 
	C303.520966,193.753006 302.687927,192.633087 301.425842,192.022415 
	C296.074738,186.248550 291.002350,180.604858 285.929993,174.961151 
	C286.355896,174.510895 286.781830,174.060638 287.207733,173.610397 
	C292.229187,178.679153 297.250610,183.747925 302.553802,188.995575 
z"/>
<path fill="#46170C" opacity="1.000000" stroke="none" 
	d="
M251.220657,256.997559 
	C251.678375,252.970566 252.787857,249.491440 255.626968,246.760986 
	C255.061966,250.611160 254.852203,254.582443 251.220657,256.997559 
z"/>
<path fill="#46170C" opacity="1.000000" stroke="none" 
	d="
M256.342468,241.483246 
	C257.099365,240.220657 256.922150,238.684006 258.592804,238.730057 
	C259.654572,240.409439 258.471405,241.802368 257.927795,243.276352 
	C257.681244,243.944901 256.915466,244.562592 256.533905,244.139008 
	C256.108795,243.667130 256.278412,242.659515 256.342468,241.483246 
z"/>
<path fill="#572716" opacity="1.000000" stroke="none" 
	d="
M283.312103,166.819595 
	C282.892975,166.799088 282.710236,166.554703 282.321869,166.185364 
	C282.550995,165.382599 282.955963,164.727036 283.648438,164.001144 
	C284.709229,164.932495 283.933350,165.724487 283.312103,166.819595 
z"/>
<path fill="#46170C" opacity="1.000000" stroke="none" 
	d="
M250.068512,259.772034 
	C251.076233,260.581177 251.105164,261.427307 250.176605,262.092743 
	C250.018051,262.206360 249.531509,262.141724 249.418182,261.991852 
	C248.853561,261.245148 249.165298,260.531860 250.068512,259.772034 
z"/>
<path fill="#46170C" opacity="1.000000" stroke="none" 
	d="
M247.454315,265.219330 
	C248.910187,264.487366 248.972336,265.246735 248.862122,266.082245 
	C248.773682,266.752533 248.321991,267.351349 247.673233,267.120941 
	C247.371765,267.013885 247.352371,266.112610 247.454315,265.219330 
z"/>
<path fill="#46170C" opacity="1.000000" stroke="none" 
	d="
M245.298309,271.856323 
	C245.389038,270.942963 245.541885,270.244141 245.975510,269.912781 
	C246.581970,269.449310 246.816498,270.200714 246.847794,270.587585 
	C246.922211,271.507294 246.506897,272.155060 245.298309,271.856323 
z"/>
<path fill="#46170C" opacity="1.000000" stroke="none" 
	d="
M233.175140,299.042511 
	C233.601593,298.194580 233.958786,297.395966 234.635544,298.031342 
	C235.157425,298.521301 234.973999,299.279968 234.494827,299.794556 
	C233.918900,300.412964 233.426239,300.253510 233.175140,299.042511 
z"/>
<path fill="#46170C" opacity="1.000000" stroke="none" 
	d="
M230.320526,306.887756 
	C230.158783,305.841980 230.252731,305.212433 230.977036,304.902954 
	C231.714462,304.587860 231.855774,305.230194 231.877716,305.610138 
	C231.929733,306.510345 231.564209,307.205078 230.320526,306.887756 
z"/>
<path fill="#46170C" opacity="1.000000" stroke="none" 
	d="
M229.688385,310.115234 
	C229.846863,311.301819 229.731476,312.080658 228.722321,312.167297 
	C228.546509,312.182404 228.204193,311.860931 228.170334,311.656586 
	C227.999634,310.626068 228.251724,309.823944 229.688385,310.115234 
z"/>
<path fill="#46170C" opacity="1.000000" stroke="none" 
	d="
M225.123901,318.039642 
	C225.483154,317.037598 225.976288,316.440857 226.548874,316.885162 
	C226.853546,317.121613 226.874741,318.103088 226.648254,318.563385 
	C226.207397,319.459290 225.544724,319.570557 225.123901,318.039642 
z"/>
<path fill="#572716" opacity="1.000000" stroke="none" 
	d="
M284.243347,164.101425 
	C284.075195,163.359726 284.213226,162.746185 285.102234,163.685516 
	C284.995300,164.061371 284.779297,164.159088 284.243347,164.101425 
z"/>
<path fill="#46170C" opacity="1.000000" stroke="none" 
	d="
M283.776367,176.553696 
	C284.382294,175.778244 284.858917,175.954712 284.699402,177.243317 
	C284.399017,177.288651 284.210602,177.087433 283.776367,176.553696 
z"/>
<path fill="#46170C" opacity="1.000000" stroke="none" 
	d="
M169.188278,349.435913 
	C165.803802,348.876343 162.658920,348.754913 159.592102,347.120941 
	C163.622925,344.627563 167.286972,347.582825 171.588043,348.026733 
	C172.071869,348.655792 171.925613,349.086945 171.235260,349.614471 
	C170.417664,349.861084 169.936920,349.827881 169.188278,349.435913 
z"/>
<path fill="#502112" opacity="1.000000" stroke="none" 
	d="
M170.796234,349.603638 
	C170.979568,348.985687 171.284149,348.772400 171.777313,348.353027 
	C175.699692,348.781372 179.433502,349.415833 183.558273,350.164459 
	C183.985153,350.916321 183.694901,351.320679 182.688187,351.643127 
	C178.309769,352.430420 174.572662,351.480591 170.796234,349.603638 
z"/>
<path fill="#673013" opacity="1.000000" stroke="none" 
	d="
M182.760803,351.313965 
	C183.142120,350.923096 183.386887,350.758270 183.784256,350.426880 
	C185.277191,350.621918 186.605179,350.965179 188.132950,351.589722 
	C186.854492,351.892212 185.376221,351.913422 183.455429,351.945862 
	C182.887466,351.824188 182.762039,351.691254 182.760803,351.313965 
z"/>
<path fill="#C26F23" opacity="1.000000" stroke="none" 
	d="
M182.464417,351.071075 
	C182.884979,351.069580 182.990723,351.507477 183.001801,351.732300 
	C182.508438,352.519409 182.003983,353.081757 181.271393,353.596130 
	C179.491379,351.431122 177.145355,353.084106 174.895508,352.160645 
	C174.486588,351.982025 174.503159,352.046661 174.470642,352.054138 
	C172.909760,351.161865 171.244736,351.565582 169.339615,351.765259 
	C168.784119,351.974182 168.536575,351.896393 168.179108,351.596313 
	C167.898987,351.277435 167.753418,351.102509 167.626404,350.586761 
	C167.944229,350.032166 168.243515,349.818420 168.727554,349.399445 
	C169.304626,349.191956 169.696960,349.189728 170.382126,349.193207 
	C174.396729,350.235352 178.181870,350.887177 182.464417,351.071075 
z"/>
<path fill="#673013" opacity="1.000000" stroke="none" 
	d="
M167.235962,350.200714 
	C167.708969,350.446289 167.773010,350.646667 167.940826,351.149719 
	C163.640182,350.941864 159.235779,350.431396 154.393799,349.883698 
	C153.646622,349.524750 153.520859,349.138824 153.749680,348.443359 
	C158.260269,348.703918 162.418488,350.249664 167.235962,350.200714 
z"/>
<path fill="#673013" opacity="1.000000" stroke="none" 
	d="
M174.828323,352.254913 
	C176.504242,352.322968 178.703400,351.374939 180.803192,353.192871 
	C179.085526,353.208038 177.127792,352.867920 174.828323,352.254913 
z"/>
<path fill="#46170C" opacity="1.000000" stroke="none" 
	d="
M153.623138,348.129211 
	C153.955933,348.557800 153.967239,348.926025 153.967377,349.570374 
	C152.700302,349.434937 151.444397,349.023407 150.063293,348.299194 
	C150.399811,347.970703 150.861526,347.954956 151.667618,347.900024 
	C152.441879,347.930145 152.871780,347.999481 153.623138,348.129211 
z"/>
<path fill="#673013" opacity="1.000000" stroke="none" 
	d="
M169.493866,351.997192 
	C170.531967,350.423706 172.144043,351.022003 174.098877,351.868347 
	C172.935913,352.047974 171.433670,352.034332 169.493866,351.997192 
z"/>
<path fill="#502213" opacity="1.000000" stroke="none" 
	d="
M404.094849,245.256714 
	C393.506134,250.299332 384.074341,256.753326 374.046631,262.144806 
	C367.374207,265.732300 360.981293,269.885956 353.270935,272.014709 
	C354.630951,269.279205 357.709839,268.713837 360.207672,267.322388 
	C392.750122,249.194260 424.773346,230.135788 457.768677,212.819565 
	C459.234558,212.050247 460.720581,211.319305 462.557800,210.706268 
	C462.479675,213.036209 460.362122,213.239258 458.884674,214.082932 
	C440.730286,224.449875 422.535736,234.746567 404.094849,245.256714 
z"/>
<path fill="#926430" opacity="1.000000" stroke="none" 
	d="
M350.327576,272.840057 
	C348.383362,274.385742 346.795959,274.557037 345.144958,272.548309 
	C346.412018,272.251251 347.809387,272.261475 349.628967,272.250366 
	C350.248138,272.371307 350.445099,272.513580 350.327576,272.840057 
z"/>
<path fill="#502213" opacity="1.000000" stroke="none" 
	d="
M350.373169,273.029999 
	C350.013123,273.024292 350.081421,272.628815 350.066284,272.428925 
	C350.785309,272.019623 351.519409,271.810242 352.612671,271.734772 
	C352.728912,273.223114 351.611389,272.899811 350.373169,273.029999 
z"/>
<path fill="#572716" opacity="1.000000" stroke="none" 
	d="
M472.930542,204.869537 
	C473.897430,205.764664 473.230774,205.995514 472.176453,206.039490 
	C472.154724,205.610641 472.389618,205.292694 472.930542,204.869537 
z"/>
<path fill="#572716" opacity="1.000000" stroke="none" 
	d="
M471.652893,205.866959 
	C471.947296,206.795715 471.281830,206.987534 470.254150,207.043915 
	C470.045380,206.134628 470.684509,205.983353 471.652893,205.866959 
z"/>
<path fill="#572716" opacity="1.000000" stroke="none" 
	d="
M469.655029,206.877228 
	C469.986206,207.836884 469.291168,208.030334 468.257935,208.077423 
	C468.394531,207.575668 468.863556,207.214218 469.655029,206.877228 
z"/>
<path fill="#572716" opacity="1.000000" stroke="none" 
	d="
M467.617340,207.909515 
	C467.895966,208.240738 467.856476,208.561951 467.549774,208.988708 
	C467.018097,209.216095 466.753662,209.337936 466.145996,209.189728 
	C466.301544,208.579651 466.800385,208.239594 467.617340,207.909515 
z"/>
<path fill="#502213" opacity="1.000000" stroke="none" 
	d="
M465.488892,208.958679 
	C466.049164,208.948822 466.295563,208.977905 466.912262,209.050629 
	C466.693390,209.412384 466.104218,209.730530 465.178711,209.963684 
	C464.953278,209.585022 465.064178,209.291336 465.488892,208.958679 
z"/>
<path fill="#502213" opacity="1.000000" stroke="none" 
	d="
M464.629822,209.609100 
	C464.921295,210.719696 464.284241,210.950943 463.229889,210.981201 
	C462.870544,209.895905 463.768677,209.815109 464.629822,209.609100 
z"/>
<path fill="#572716" opacity="1.000000" stroke="none" 
	d="
M279.421783,316.016449 
	C279.014801,315.804596 279.001373,315.605255 279.060364,315.115051 
	C284.065948,314.741272 288.420105,317.159363 293.510590,318.105957 
	C293.896362,318.148712 294.013428,318.542847 294.046570,318.745575 
	C288.996918,319.577759 284.655884,316.582886 279.421783,316.016449 
z"/>
<path fill="#572716" opacity="1.000000" stroke="none" 
	d="
M278.965576,314.506165 
	C276.619568,315.331726 274.463348,314.467255 272.168396,312.944702 
	C274.244202,313.134979 276.540588,313.641388 278.965576,314.506165 
z"/>
<path fill="#46170C" opacity="1.000000" stroke="none" 
	d="
M353.738190,276.005981 
	C353.931671,276.333984 353.792114,276.661865 353.323395,277.030884 
	C353.131165,276.716644 353.268158,276.361237 353.738190,276.005981 
z"/>
<path fill="#572716" opacity="1.000000" stroke="none" 
	d="
M315.585144,320.861725 
	C316.031342,322.576355 314.695221,322.677826 313.210510,322.939270 
	C312.974091,321.397797 314.282593,321.327271 315.585144,320.861725 
z"/>
<path fill="#572716" opacity="1.000000" stroke="none" 
	d="
M312.939758,323.641174 
	C312.132996,323.959778 311.375977,324.001434 310.246033,323.978271 
	C310.218414,322.722931 311.501465,323.089325 312.543182,322.659180 
	C312.912842,322.997101 312.951172,323.180695 312.939758,323.641174 
z"/>
<path fill="#572716" opacity="1.000000" stroke="none" 
	d="
M295.924896,319.634338 
	C295.381256,319.816711 294.730286,319.702515 294.046814,319.248749 
	C294.615387,319.052063 295.216492,319.194946 295.924896,319.634338 
z"/>
<path fill="#C26F23" opacity="1.000000" stroke="none" 
	d="
M216.979614,336.155334 
	C216.634766,337.347015 216.387344,338.264648 215.383438,338.672516 
	C214.656921,337.239471 215.444901,336.285034 216.385269,335.385834 
	C216.437851,335.335541 216.635559,335.362732 216.706863,335.423218 
	C216.822952,335.521729 216.890427,335.677490 216.979614,336.155334 
z"/>
<path fill="#C26F23" opacity="1.000000" stroke="none" 
	d="
M218.389008,333.109741 
	C216.055267,333.544708 217.167435,332.292419 217.672928,331.141937 
	C218.128540,331.016571 218.330322,331.137421 218.664841,331.585144 
	C218.705765,332.195465 218.613937,332.478912 218.389008,333.109741 
z"/>
<path fill="#55210E" opacity="1.000000" stroke="none" 
	d="
M209.387299,353.062988 
	C209.629517,353.260254 209.731644,353.538879 209.782593,353.826599 
	C209.789551,353.865936 209.541473,353.950378 209.411484,354.013947 
	C209.351334,353.725037 209.291168,353.436157 209.387299,353.062988 
z"/>
<path fill="#55210E" opacity="1.000000" stroke="none" 
	d="
M210.773514,350.213074 
	C210.624649,349.982635 210.622818,349.737366 210.663681,349.499451 
	C210.668167,349.473389 210.918045,349.489532 211.054108,349.486084 
	C211.013748,349.724213 210.973373,349.962280 210.773514,350.213074 
z"/>
<path fill="#C26F23" opacity="1.000000" stroke="none" 
	d="
M213.729935,342.090271 
	C213.949127,342.518188 214.320816,343.195709 213.456619,343.432068 
	C213.466309,343.020782 213.476013,342.609528 213.729935,342.090271 
z"/>
<path fill="#C26F23" opacity="1.000000" stroke="none" 
	d="
M212.799805,345.758118 
	C212.603241,345.974213 212.407898,345.996643 212.220200,345.968292 
	C212.194183,345.964386 212.206024,345.709747 212.200348,345.571167 
	C212.401367,345.563568 212.602402,345.555939 212.799805,345.758118 
z"/>
<path fill="#C26F23" opacity="1.000000" stroke="none" 
	d="
M214.017059,342.016663 
	C214.138458,341.464478 214.246231,340.899872 214.354004,340.335236 
	C215.090927,340.727875 214.876221,341.245636 214.259003,341.880554 
	C213.974167,341.982269 214.003418,342.004242 214.017059,342.016663 
z"/>
<path fill="#E4862A" opacity="1.000000" stroke="none" 
	d="
M218.902496,331.638367 
	C218.544830,331.742218 218.336700,331.528931 218.049988,331.083923 
	C217.957489,330.572388 218.015808,330.254120 218.213074,329.727020 
	C218.482300,329.623688 218.640167,329.734222 219.018890,330.031433 
	C219.162292,330.600281 219.084839,330.982513 218.902496,331.638367 
z"/>
<path fill="#E4862A" opacity="1.000000" stroke="none" 
	d="
M218.250458,333.499329 
	C218.255905,333.457123 218.143478,333.508453 218.123169,333.530151 
	C218.102875,333.551880 218.245026,333.541504 218.250458,333.499329 
z"/>
</svg>