<svg version="1.1" id="Layer_1" xmlns="http://www.w3.org/2000/svg" xmlns:xlink="http://www.w3.org/1999/xlink" x="0px" y="0px"
	 width="100%" viewBox="0 0 1920 1920" enable-background="new 0 0 1920 1920" xml:space="preserve">
<path fill="transparent" opacity="1.000000" stroke="none" 
	d="
M1.000000,709.000000 
	C1.000000,472.666656 1.000000,236.833328 1.000000,1.000000 
	C641.000000,1.000000 1281.000000,1.000000 1921.000000,1.000000 
	C1921.000000,641.000000 1921.000000,1281.000000 1921.000000,1921.000000 
	C1281.000000,1921.000000 641.000000,1921.000000 1.000000,1921.000000 
	C1.000000,1517.166626 1.000000,1113.333374 1.000000,709.000000 
M1829.999634,887.536499 
	C1829.340576,881.319397 1828.780518,875.089966 1828.004150,868.887573 
	C1825.695557,850.443420 1824.004761,831.885315 1820.762451,813.604004 
	C1816.779175,791.145569 1812.548584,768.624084 1806.473633,746.669800 
	C1798.332642,717.249084 1788.848633,688.165955 1778.988525,659.262939 
	C1764.425659,616.575195 1744.762939,576.130676 1722.935059,536.715027 
	C1707.602417,509.028046 1690.588745,482.425354 1672.331177,456.572815 
	C1650.786743,426.066284 1627.313965,397.127869 1602.017212,369.707306 
	C1589.421875,356.054596 1576.243530,342.871338 1562.579834,330.289154 
	C1543.854736,313.045990 1525.057983,295.766174 1505.113159,279.992676 
	C1483.192749,262.656708 1460.251099,246.550125 1437.185303,230.738205 
	C1401.345703,206.169678 1363.210083,185.507095 1323.489868,167.977951 
	C1298.385132,156.898834 1272.888184,146.600739 1247.136597,137.122498 
	C1216.905640,125.995552 1185.888916,117.222404 1154.307129,110.705261 
	C1132.607422,106.227341 1110.888550,101.735291 1089.026367,98.185326 
	C1071.820923,95.391541 1054.415161,93.667168 1037.039673,92.131363 
	C1020.243408,90.646751 1003.379395,89.341492 986.532043,89.159058 
	C961.425415,88.887177 936.306519,89.624069 911.194702,90.041679 
	C905.744690,90.132317 900.278625,90.473076 894.860901,91.069977 
	C877.845947,92.944626 860.820801,94.773743 843.856262,97.044304 
	C828.061951,99.158249 812.236389,101.288750 796.613342,104.369080 
	C777.943420,108.050163 759.225464,111.893494 740.973755,117.198845 
	C710.859253,125.952423 680.752625,134.970642 651.283447,145.646149 
	C615.168945,158.728989 580.220337,174.787384 546.764954,193.768539 
	C524.295654,206.516663 501.618866,219.103592 480.296875,233.616684 
	C454.602966,251.105576 429.759064,269.949127 405.467163,289.357697 
	C386.753540,304.309387 369.086609,320.643494 351.662598,337.112335 
	C339.254822,348.839966 327.871033,361.672485 316.314148,374.272278 
	C306.032837,385.481415 295.401276,396.486847 286.232635,408.574554 
	C267.137787,433.748657 248.363770,459.204498 230.455658,485.231079 
	C206.016647,520.749390 185.579788,558.653381 168.161285,598.054443 
	C156.933746,623.451416 146.692734,649.323608 137.017212,675.357300 
	C125.849747,705.405457 117.237427,736.288696 110.712173,767.692261 
	C106.203751,789.389648 101.735001,811.117981 98.184570,832.984497 
	C95.390823,850.190796 93.667198,867.597534 92.131477,884.973816 
	C90.647011,901.770386 89.341354,918.634644 89.158966,935.482178 
	C88.887161,960.588928 89.624268,985.707886 90.042076,1010.819824 
	C90.132744,1016.269897 90.473846,1021.735962 91.070755,1027.153809 
	C92.945480,1044.169800 94.773460,1061.196289 97.045532,1078.161621 
	C99.160919,1093.957153 101.298042,1109.782837 104.378296,1125.407349 
	C108.059303,1144.079468 111.894043,1162.801636 117.201462,1181.054565 
	C125.957054,1211.166504 134.986252,1241.267456 145.662964,1270.734375 
	C158.748917,1306.850708 174.787064,1341.810791 193.783218,1375.262451 
	C206.538849,1397.724854 219.119186,1420.402344 233.632141,1441.721436 
	C251.127426,1467.421509 269.984497,1492.265381 289.389587,1516.571655 
	C304.229218,1535.159546 320.438324,1552.712769 336.791473,1570.014160 
	C348.519073,1582.421631 361.257660,1593.912842 373.970703,1605.339355 
	C387.972412,1617.924072 401.935120,1630.653809 416.860809,1642.085205 
	C439.059814,1659.087402 461.773254,1675.466187 484.838501,1691.277710 
	C520.678162,1715.846436 558.816284,1736.504272 598.534912,1754.035645 
	C623.638855,1765.116089 649.141785,1775.397583 674.890625,1784.884399 
	C705.118164,1796.021240 736.139709,1804.773071 767.716431,1811.302734 
	C789.414307,1815.789673 811.136230,1820.267822 832.998962,1823.815796 
	C850.204651,1826.608032 867.609985,1828.333618 884.985352,1829.869385 
	C901.781677,1831.354004 918.645813,1832.658813 935.493164,1832.841064 
	C960.599792,1833.112915 985.718689,1832.376221 1010.830505,1831.958374 
	C1016.280457,1831.867798 1021.746460,1831.526245 1027.164185,1830.929321 
	C1044.179077,1829.054443 1061.204590,1827.226807 1078.168823,1824.954712 
	C1093.962769,1822.839111 1109.786743,1820.701416 1125.409790,1817.621216 
	C1144.079956,1813.940186 1162.799805,1810.104614 1181.051270,1804.798828 
	C1211.166504,1796.043823 1241.274414,1787.024170 1270.741699,1776.340454 
	C1306.851562,1763.248413 1341.811890,1747.216797 1375.259521,1728.218872 
	C1397.723022,1715.459961 1420.402710,1702.878784 1441.724243,1688.364990 
	C1467.418335,1670.874756 1492.269897,1652.038940 1516.553833,1632.619629 
	C1535.390747,1617.556152 1553.163818,1601.091675 1570.712524,1584.511963 
	C1583.001465,1572.901489 1594.267822,1560.187012 1605.708374,1547.706543 
	C1615.987427,1536.493286 1626.621826,1525.488770 1635.791138,1513.399902 
	C1654.885254,1488.226196 1673.665649,1462.775146 1691.564453,1436.743408 
	C1715.991211,1401.217041 1736.413818,1363.307617 1753.860229,1323.915283 
	C1764.973999,1298.821167 1775.347778,1273.346558 1784.803955,1247.583984 
	C1797.665161,1212.543945 1807.086304,1176.423340 1814.758545,1139.908569 
	C1818.775513,1120.790405 1821.985229,1101.479126 1824.840576,1082.148682 
	C1826.861328,1068.468384 1827.887573,1054.626587 1828.979614,1040.826904 
	C1830.504395,1021.558594 1832.356445,1002.279602 1832.845947,982.974182 
	C1833.645508,951.444702 1832.967773,919.905762 1829.999634,887.536499 
z"/>
<path fill="#B50E0E" opacity="1.000000" stroke="none" 
	d="
M1829.999756,887.999878 
	C1832.967773,919.905762 1833.645508,951.444702 1832.845947,982.974182 
	C1832.356445,1002.279602 1830.504395,1021.558594 1828.979614,1040.826904 
	C1827.887573,1054.626587 1826.861328,1068.468384 1824.840576,1082.148682 
	C1821.985229,1101.479126 1818.775513,1120.790405 1814.758545,1139.908569 
	C1807.086304,1176.423340 1797.665161,1212.543945 1784.803955,1247.583984 
	C1775.347778,1273.346558 1764.973999,1298.821167 1753.860229,1323.915283 
	C1736.413818,1363.307617 1715.991211,1401.217041 1691.564453,1436.743408 
	C1673.665649,1462.775146 1654.885254,1488.226196 1635.791138,1513.399902 
	C1626.621826,1525.488770 1615.987427,1536.493286 1605.708374,1547.706543 
	C1594.267822,1560.187012 1583.001465,1572.901489 1570.712524,1584.511963 
	C1553.163818,1601.091675 1535.390747,1617.556152 1516.553833,1632.619629 
	C1492.269897,1652.038940 1467.418335,1670.874756 1441.724243,1688.364990 
	C1420.402710,1702.878784 1397.723022,1715.459961 1375.259521,1728.218872 
	C1341.811890,1747.216797 1306.851562,1763.248413 1270.741699,1776.340454 
	C1241.274414,1787.024170 1211.166504,1796.043823 1181.051270,1804.798828 
	C1162.799805,1810.104614 1144.079956,1813.940186 1125.409790,1817.621216 
	C1109.786743,1820.701416 1093.962769,1822.839111 1078.168823,1824.954712 
	C1061.204590,1827.226807 1044.179077,1829.054443 1027.164185,1830.929321 
	C1021.746460,1831.526245 1016.280457,1831.867798 1010.830505,1831.958374 
	C985.718689,1832.376221 960.599792,1833.112915 935.493164,1832.841064 
	C918.645813,1832.658813 901.781677,1831.354004 884.985352,1829.869385 
	C867.609985,1828.333618 850.204651,1826.608032 832.998962,1823.815796 
	C811.136230,1820.267822 789.414307,1815.789673 767.716431,1811.302734 
	C736.139709,1804.773071 705.118164,1796.021240 674.890625,1784.884399 
	C649.141785,1775.397583 623.638855,1765.116089 598.534912,1754.035645 
	C558.816284,1736.504272 520.678162,1715.846436 484.838501,1691.277710 
	C461.773254,1675.466187 439.059814,1659.087402 416.860809,1642.085205 
	C401.935120,1630.653809 387.972412,1617.924072 373.970703,1605.339355 
	C361.257660,1593.912842 348.519073,1582.421631 336.791473,1570.014160 
	C320.438324,1552.712769 304.229218,1535.159546 289.389587,1516.571655 
	C269.984497,1492.265381 251.127426,1467.421509 233.632141,1441.721436 
	C219.119186,1420.402344 206.538849,1397.724854 193.783218,1375.262451 
	C174.787064,1341.810791 158.748917,1306.850708 145.662964,1270.734375 
	C134.986252,1241.267456 125.957054,1211.166504 117.201462,1181.054565 
	C111.894043,1162.801636 108.059303,1144.079468 104.378296,1125.407349 
	C101.298042,1109.782837 99.160919,1093.957153 97.045532,1078.161621 
	C94.773460,1061.196289 92.945480,1044.169800 91.070755,1027.153809 
	C90.473846,1021.735962 90.132744,1016.269897 90.042076,1010.819824 
	C89.624268,985.707886 88.887161,960.588928 89.158966,935.482178 
	C89.341354,918.634644 90.647011,901.770386 92.131477,884.973816 
	C93.667198,867.597534 95.390823,850.190796 98.184570,832.984497 
	C101.735001,811.117981 106.203751,789.389648 110.712173,767.692261 
	C117.237427,736.288696 125.849747,705.405457 137.017212,675.357300 
	C146.692734,649.323608 156.933746,623.451416 168.161285,598.054443 
	C185.579788,558.653381 206.016647,520.749390 230.455658,485.231079 
	C248.363770,459.204498 267.137787,433.748657 286.232635,408.574554 
	C295.401276,396.486847 306.032837,385.481415 316.314148,374.272278 
	C327.871033,361.672485 339.254822,348.839966 351.662598,337.112335 
	C369.086609,320.643494 386.753540,304.309387 405.467163,289.357697 
	C429.759064,269.949127 454.602966,251.105576 480.296875,233.616684 
	C501.618866,219.103592 524.295654,206.516663 546.764954,193.768539 
	C580.220337,174.787384 615.168945,158.728989 651.283447,145.646149 
	C680.752625,134.970642 710.859253,125.952423 740.973755,117.198845 
	C759.225464,111.893494 777.943420,108.050163 796.613342,104.369080 
	C812.236389,101.288750 828.061951,99.158249 843.856262,97.044304 
	C860.820801,94.773743 877.845947,92.944626 894.860901,91.069977 
	C900.278625,90.473076 905.744690,90.132317 911.194702,90.041679 
	C936.306519,89.624069 961.425415,88.887177 986.532043,89.159058 
	C1003.379395,89.341492 1020.243408,90.646751 1037.039673,92.131363 
	C1054.415161,93.667168 1071.820923,95.391541 1089.026367,98.185326 
	C1110.888550,101.735291 1132.607422,106.227341 1154.307129,110.705261 
	C1185.888916,117.222404 1216.905640,125.995552 1247.136597,137.122498 
	C1272.888184,146.600739 1298.385132,156.898834 1323.489868,167.977951 
	C1363.210083,185.507095 1401.345703,206.169678 1437.185303,230.738205 
	C1460.251099,246.550125 1483.192749,262.656708 1505.113159,279.992676 
	C1525.057983,295.766174 1543.854736,313.045990 1562.579834,330.289154 
	C1576.243530,342.871338 1589.421875,356.054596 1602.017212,369.707306 
	C1627.313965,397.127869 1650.786743,426.066284 1672.331177,456.572815 
	C1690.588745,482.425354 1707.602417,509.028046 1722.935059,536.715027 
	C1744.762939,576.130676 1764.425659,616.575195 1778.988525,659.262939 
	C1788.848633,688.165955 1798.332642,717.249084 1806.473633,746.669800 
	C1812.548584,768.624084 1816.779175,791.145569 1820.762451,813.604004 
	C1824.004761,831.885315 1825.695557,850.443420 1828.004150,868.887573 
	C1828.780518,875.089966 1829.340576,881.319397 1829.999756,887.999878 
M1185.677734,161.863693 
	C1161.887085,156.253021 1138.151001,150.394791 1114.282715,145.136536 
	C1102.428101,142.524933 1090.374268,140.684799 1078.331421,139.095535 
	C1065.104858,137.350067 1051.804565,136.083771 1038.505127,134.989914 
	C1020.069580,133.473648 1001.622131,131.686417 983.147766,131.178955 
	C965.223328,130.686584 947.253418,131.504074 929.312988,132.054581 
	C917.744812,132.409546 906.169128,133.040359 894.640808,134.049850 
	C878.726318,135.443420 862.813843,137.006668 846.973633,139.061127 
	C831.498596,141.068192 815.991455,143.183807 800.723328,146.339706 
	C781.610901,150.290192 762.488953,154.548798 743.801636,160.118683 
	C715.323730,168.606720 686.906616,177.495499 659.030396,187.753860 
	C626.533875,199.712433 595.221497,214.603699 565.021729,231.604233 
	C545.803772,242.422714 526.794006,253.662903 508.162964,265.459534 
	C482.974182,281.408325 458.877106,298.950684 436.170227,318.316010 
	C421.211548,331.073425 405.998383,343.581116 391.701813,357.052490 
	C377.420929,370.509064 363.862793,384.769257 350.501556,399.154358 
	C338.244110,412.351196 325.848999,425.559906 314.982086,439.877258 
	C296.793427,463.841064 279.243317,488.333252 262.387604,513.254517 
	C238.695526,548.283264 219.464417,585.833130 202.195587,624.406311 
	C189.547455,652.658447 178.718918,681.571655 169.400497,711.087952 
	C157.960831,747.323425 148.617996,784.049805 142.970383,821.642944 
	C139.697571,843.428223 136.349335,865.235779 134.212265,887.148071 
	C132.302231,906.732483 131.475998,926.465515 131.147934,946.149231 
	C130.812881,966.251404 131.612198,986.374573 132.034927,1006.485962 
	C132.153015,1012.103821 132.481186,1017.735901 133.083572,1023.321533 
	C134.954468,1040.669678 136.743286,1058.033447 139.060806,1075.324585 
	C141.133484,1090.789185 143.293701,1106.283813 146.451004,1121.551025 
	C150.403824,1140.664795 154.582474,1159.808228 160.162308,1178.491211 
	C168.666443,1206.965942 177.675018,1235.343018 187.904144,1263.235474 
	C199.829086,1295.751953 214.769043,1327.035889 231.761200,1357.239868 
	C242.489655,1376.309937 253.594406,1395.200073 265.319672,1413.669800 
	C281.296814,1438.837280 298.801727,1462.965698 318.176575,1485.664673 
	C331.268494,1501.002808 344.080170,1516.632080 357.961304,1531.233398 
	C382.657227,1557.210449 408.382050,1582.189819 436.769470,1604.197144 
	C455.099823,1618.407715 473.284790,1632.900635 492.463776,1645.895996 
	C513.426636,1660.100464 534.884155,1673.796997 557.171265,1685.769165 
	C585.749390,1701.120850 614.846313,1715.768188 644.697144,1728.411499 
	C671.567688,1739.792480 699.409302,1749.264160 727.460754,1757.369385 
	C757.058594,1765.921265 787.239197,1772.742310 817.491272,1778.650146 
	C840.370300,1783.118042 863.710938,1785.468018 886.941956,1787.809204 
	C905.032532,1789.632446 923.260925,1790.505371 941.446167,1790.853394 
	C959.213806,1791.193604 977.009338,1790.493042 994.783081,1789.940674 
	C1005.518616,1789.607178 1016.258179,1788.933594 1026.956177,1787.971069 
	C1043.033569,1786.524780 1059.116821,1785.004395 1075.122070,1782.932861 
	C1090.596313,1780.930054 1106.097412,1778.780762 1121.365234,1775.624390 
	C1140.478027,1771.673096 1159.606689,1767.440186 1178.292725,1761.867310 
	C1206.768677,1753.374634 1235.172241,1744.448975 1263.052368,1734.199341 
	C1295.554199,1722.250854 1326.860840,1707.351318 1357.057739,1690.346802 
	C1376.273071,1679.526245 1395.271851,1668.270874 1413.906860,1656.482056 
	C1439.103149,1640.542725 1463.232788,1623.037964 1485.885742,1603.609619 
	C1502.196655,1589.620239 1518.613525,1575.714478 1534.258423,1561.000854 
	C1548.066162,1548.015015 1561.085938,1534.164062 1574.048706,1520.316162 
	C1583.871826,1509.822144 1593.445190,1499.042114 1602.431152,1487.829590 
	C1614.259399,1473.070435 1625.575684,1457.890015 1636.803955,1442.663330 
	C1658.336426,1413.462646 1677.167236,1382.530396 1694.059692,1350.465698 
	C1703.281372,1332.961548 1711.634033,1314.983521 1719.936523,1297.015015 
	C1732.781128,1269.216187 1743.191406,1240.484863 1752.443115,1211.288696 
	C1763.974365,1174.900024 1773.339844,1138.018677 1779.037231,1100.268433 
	C1782.324585,1078.485962 1785.475830,1056.662964 1787.829834,1034.766113 
	C1789.595337,1018.341919 1790.657959,1001.778076 1790.841919,985.263123 
	C1791.113770,960.823303 1790.371826,936.370972 1789.955444,911.925781 
	C1789.879639,907.474915 1789.406006,903.020752 1788.927002,898.588623 
	C1787.334229,883.857239 1785.777954,869.120239 1783.971802,854.414307 
	C1782.428101,841.846069 1780.976074,829.242676 1778.730713,816.790527 
	C1775.848633,800.808228 1772.597534,784.870056 1768.826416,769.074951 
	C1759.886841,731.631348 1748.515015,694.898254 1734.449219,659.064941 
	C1720.585938,623.747925 1704.843750,589.233337 1685.639526,556.483276 
	C1672.164795,533.504089 1657.851807,510.990753 1643.245972,488.706726 
	C1621.038086,454.824463 1595.276489,423.604797 1567.415161,394.333984 
	C1546.024536,371.861267 1523.329468,350.515533 1500.039795,330.002197 
	C1481.915527,314.038452 1462.186890,299.854309 1442.803345,285.371765 
	C1413.730957,263.650116 1382.643921,245.051163 1350.656860,227.998138 
	C1336.390747,220.392471 1321.862549,213.190506 1307.063599,206.692947 
	C1286.444092,197.639893 1265.671509,188.847092 1244.567383,181.012268 
	C1225.485474,173.928146 1205.870728,168.279663 1185.677734,161.863693 
z"/>
<path fill="transparent" opacity="1.000000" stroke="none" 
	d="
M1186.084229,161.930923 
	C1205.870728,168.279663 1225.485474,173.928146 1244.567383,181.012268 
	C1265.671509,188.847092 1286.444092,197.639893 1307.063599,206.692947 
	C1321.862549,213.190506 1336.390747,220.392471 1350.656860,227.998138 
	C1382.643921,245.051163 1413.730957,263.650116 1442.803345,285.371765 
	C1462.186890,299.854309 1481.915527,314.038452 1500.039795,330.002197 
	C1523.329468,350.515533 1546.024536,371.861267 1567.415161,394.333984 
	C1595.276489,423.604797 1621.038086,454.824463 1643.245972,488.706726 
	C1657.851807,510.990753 1672.164795,533.504089 1685.639526,556.483276 
	C1704.843750,589.233337 1720.585938,623.747925 1734.449219,659.064941 
	C1748.515015,694.898254 1759.886841,731.631348 1768.826416,769.074951 
	C1772.597534,784.870056 1775.848633,800.808228 1778.730713,816.790527 
	C1780.976074,829.242676 1782.428101,841.846069 1783.971802,854.414307 
	C1785.777954,869.120239 1787.334229,883.857239 1788.927002,898.588623 
	C1789.406006,903.020752 1789.879639,907.474915 1789.955444,911.925781 
	C1790.371826,936.370972 1791.113770,960.823303 1790.841919,985.263123 
	C1790.657959,1001.778076 1789.595337,1018.341919 1787.829834,1034.766113 
	C1785.475830,1056.662964 1782.324585,1078.485962 1779.037231,1100.268433 
	C1773.339844,1138.018677 1763.974365,1174.900024 1752.443115,1211.288696 
	C1743.191406,1240.484863 1732.781128,1269.216187 1719.936523,1297.015015 
	C1711.634033,1314.983521 1703.281372,1332.961548 1694.059692,1350.465698 
	C1677.167236,1382.530396 1658.336426,1413.462646 1636.803955,1442.663330 
	C1625.575684,1457.890015 1614.259399,1473.070435 1602.431152,1487.829590 
	C1593.445190,1499.042114 1583.871826,1509.822144 1574.048706,1520.316162 
	C1561.085938,1534.164062 1548.066162,1548.015015 1534.258423,1561.000854 
	C1518.613525,1575.714478 1502.196655,1589.620239 1485.885742,1603.609619 
	C1463.232788,1623.037964 1439.103149,1640.542725 1413.906860,1656.482056 
	C1395.271851,1668.270874 1376.273071,1679.526245 1357.057739,1690.346802 
	C1326.860840,1707.351318 1295.554199,1722.250854 1263.052368,1734.199341 
	C1235.172241,1744.448975 1206.768677,1753.374634 1178.292725,1761.867310 
	C1159.606689,1767.440186 1140.478027,1771.673096 1121.365234,1775.624390 
	C1106.097412,1778.780762 1090.596313,1780.930054 1075.122070,1782.932861 
	C1059.116821,1785.004395 1043.033569,1786.524780 1026.956177,1787.971069 
	C1016.258179,1788.933594 1005.518616,1789.607178 994.783081,1789.940674 
	C977.009338,1790.493042 959.213806,1791.193604 941.446167,1790.853394 
	C923.260925,1790.505371 905.032532,1789.632446 886.941956,1787.809204 
	C863.710938,1785.468018 840.370300,1783.118042 817.491272,1778.650146 
	C787.239197,1772.742310 757.058594,1765.921265 727.460754,1757.369385 
	C699.409302,1749.264160 671.567688,1739.792480 644.697144,1728.411499 
	C614.846313,1715.768188 585.749390,1701.120850 557.171265,1685.769165 
	C534.884155,1673.796997 513.426636,1660.100464 492.463776,1645.895996 
	C473.284790,1632.900635 455.099823,1618.407715 436.769470,1604.197144 
	C408.382050,1582.189819 382.657227,1557.210449 357.961304,1531.233398 
	C344.080170,1516.632080 331.268494,1501.002808 318.176575,1485.664673 
	C298.801727,1462.965698 281.296814,1438.837280 265.319672,1413.669800 
	C253.594406,1395.200073 242.489655,1376.309937 231.761200,1357.239868 
	C214.769043,1327.035889 199.829086,1295.751953 187.904144,1263.235474 
	C177.675018,1235.343018 168.666443,1206.965942 160.162308,1178.491211 
	C154.582474,1159.808228 150.403824,1140.664795 146.451004,1121.551025 
	C143.293701,1106.283813 141.133484,1090.789185 139.060806,1075.324585 
	C136.743286,1058.033447 134.954468,1040.669678 133.083572,1023.321533 
	C132.481186,1017.735901 132.153015,1012.103821 132.034927,1006.485962 
	C131.612198,986.374573 130.812881,966.251404 131.147934,946.149231 
	C131.475998,926.465515 132.302231,906.732483 134.212265,887.148071 
	C136.349335,865.235779 139.697571,843.428223 142.970383,821.642944 
	C148.617996,784.049805 157.960831,747.323425 169.400497,711.087952 
	C178.718918,681.571655 189.547455,652.658447 202.195587,624.406311 
	C219.464417,585.833130 238.695526,548.283264 262.387604,513.254517 
	C279.243317,488.333252 296.793427,463.841064 314.982086,439.877258 
	C325.848999,425.559906 338.244110,412.351196 350.501556,399.154358 
	C363.862793,384.769257 377.420929,370.509064 391.701813,357.052490 
	C405.998383,343.581116 421.211548,331.073425 436.170227,318.316010 
	C458.877106,298.950684 482.974182,281.408325 508.162964,265.459534 
	C526.794006,253.662903 545.803772,242.422714 565.021729,231.604233 
	C595.221497,214.603699 626.533875,199.712433 659.030396,187.753860 
	C686.906616,177.495499 715.323730,168.606720 743.801636,160.118683 
	C762.488953,154.548798 781.610901,150.290192 800.723328,146.339706 
	C815.991455,143.183807 831.498596,141.068192 846.973633,139.061127 
	C862.813843,137.006668 878.726318,135.443420 894.640808,134.049850 
	C906.169128,133.040359 917.744812,132.409546 929.312988,132.054581 
	C947.253418,131.504074 965.223328,130.686584 983.147766,131.178955 
	C1001.622131,131.686417 1020.069580,133.473648 1038.505127,134.989914 
	C1051.804565,136.083771 1065.104858,137.350067 1078.331421,139.095535 
	C1090.374268,140.684799 1102.428101,142.524933 1114.282715,145.136536 
	C1138.151001,150.394791 1161.887085,156.253021 1186.084229,161.930923 
M1672.897217,615.642090 
	C1668.729248,607.412598 1664.726318,599.094482 1660.363525,590.969604 
	C1644.546265,561.513367 1627.320557,532.894836 1607.825806,505.723541 
	C1596.510132,489.952026 1584.938843,474.310852 1572.585693,459.351685 
	C1560.630005,444.873871 1547.683960,431.197327 1534.875610,417.445709 
	C1524.275391,406.065063 1513.614990,394.691406 1502.296631,384.042328 
	C1490.763916,373.191803 1478.727661,362.810028 1466.315186,352.976410 
	C1447.234497,337.860107 1427.952881,322.957550 1408.189087,308.753723 
	C1384.917114,292.028564 1360.184326,277.580841 1334.981689,263.900085 
	C1306.423950,248.398132 1276.911743,234.973053 1246.691040,223.213959 
	C1227.120239,215.598816 1207.127197,208.864273 1186.931519,203.111084 
	C1162.017090,196.013626 1136.892700,189.341431 1111.492676,184.349121 
	C1087.496948,179.632812 1063.073242,176.930298 1038.749268,174.102768 
	C1021.380554,172.083786 1003.883423,170.588821 986.411865,170.163315 
	C956.051208,169.423889 925.661499,169.606430 895.405396,172.998032 
	C878.068848,174.941376 860.659058,176.432205 843.431152,179.091599 
	C822.673096,182.295944 801.807312,185.464371 781.469849,190.567947 
	C753.959106,197.471619 726.699646,205.566635 699.727661,214.362671 
	C680.697083,220.568878 662.033264,228.137695 643.734436,236.285538 
	C623.867065,245.131821 604.356873,254.875244 585.166504,265.118591 
	C568.197937,274.176025 551.429810,283.772491 535.393738,294.372345 
	C515.100159,307.786407 495.074188,321.741577 475.967010,336.777588 
	C454.974640,353.297119 434.603577,370.710083 414.974487,388.830780 
	C392.184418,409.869629 370.959473,432.555786 351.686981,456.919159 
	C337.808563,474.463623 324.044586,492.132812 311.039124,510.325134 
	C293.606598,534.710144 277.763947,560.167480 264.099609,586.880066 
	C254.189621,606.253235 244.060181,625.579407 235.481583,645.550598 
	C226.351547,666.805542 218.622360,688.685425 210.876633,710.503662 
	C205.718506,725.033142 201.035736,739.784241 197.130692,754.695496 
	C186.840744,793.987488 178.570831,833.697754 174.986252,874.245789 
	C173.228333,894.130920 170.756241,914.007935 170.211166,933.932556 
	C169.367218,964.781921 169.469925,995.679138 172.967758,1026.440674 
	C174.735123,1041.983643 175.759247,1057.632935 178.117249,1073.081787 
	C181.236877,1093.520630 184.358612,1114.048218 189.246719,1134.106812 
	C196.079834,1162.146973 203.614883,1190.094360 212.601837,1217.506958 
	C219.909073,1239.795654 228.822632,1261.694092 238.775879,1282.945190 
	C251.764679,1310.677368 265.523560,1338.147949 280.716461,1364.721802 
	C297.040131,1393.273315 315.526703,1420.591431 336.539642,1446.019897 
	C352.510223,1465.346436 368.285583,1484.884888 385.203766,1503.362305 
	C399.337708,1518.798706 414.929962,1532.909058 430.027374,1547.449951 
	C435.738800,1552.950684 441.636169,1558.313232 447.860535,1563.216309 
	C465.180267,1576.859375 482.550110,1590.450073 500.203705,1603.655762 
	C529.257141,1625.389160 560.159912,1644.290405 592.352417,1660.922607 
	C613.276428,1671.733154 634.700867,1681.680786 656.372986,1690.906616 
	C675.999512,1699.261597 695.994934,1706.969360 716.321350,1713.402710 
	C739.145142,1720.626465 762.435242,1726.453857 785.689819,1732.212769 
	C801.286804,1736.075195 817.090210,1739.292114 832.956116,1741.828735 
	C849.681152,1744.502930 866.560364,1746.334839 883.427307,1747.965088 
	C901.007019,1749.664429 918.635254,1751.376099 936.273804,1751.813965 
	C955.698853,1752.296021 975.164429,1751.494141 994.603333,1750.937134 
	C1005.172180,1750.634521 1015.749756,1749.965698 1026.274902,1748.955444 
	C1044.958984,1747.162231 1063.748779,1745.837646 1082.233154,1742.752441 
	C1106.006348,1738.784546 1129.756104,1734.183838 1153.086182,1728.184570 
	C1178.660645,1721.608154 1204.107422,1714.133057 1228.941284,1705.192505 
	C1253.173340,1696.468750 1276.891846,1686.105103 1300.223755,1675.156860 
	C1322.127319,1664.879028 1343.793579,1653.835083 1364.532593,1641.406738 
	C1386.793213,1628.066528 1408.194458,1613.199463 1429.322876,1598.092773 
	C1445.506226,1586.521729 1460.920166,1573.827881 1476.222900,1561.088745 
	C1486.345581,1552.661865 1495.783447,1543.393921 1505.315186,1534.280151 
	C1516.557129,1523.530884 1527.940552,1512.889893 1538.578003,1501.559082 
	C1549.303711,1490.134766 1559.578613,1478.232178 1569.352173,1465.981689 
	C1583.610107,1448.110229 1597.749634,1430.101196 1611.021851,1411.496216 
	C1629.952393,1384.959839 1647.265503,1357.315674 1661.477539,1327.932983 
	C1674.378174,1301.261597 1687.473633,1274.602905 1698.593506,1247.172607 
	C1712.354858,1213.226074 1723.170776,1178.154907 1730.936890,1142.299561 
	C1735.589966,1120.816772 1739.286743,1099.116577 1742.980469,1077.440308 
	C1745.381592,1063.349854 1747.453857,1049.171021 1748.853516,1034.951050 
	C1750.390869,1019.332336 1751.594971,1003.630554 1751.840332,987.947632 
	C1752.149780,968.178833 1751.625854,948.382385 1750.925171,928.616882 
	C1750.369263,912.930908 1749.149414,897.262573 1747.950317,881.607361 
	C1747.195557,871.754211 1746.361084,861.871826 1744.806396,852.123230 
	C1742.196289,835.757141 1739.612671,819.341553 1735.880005,803.210205 
	C1729.890381,777.325867 1723.667969,751.453308 1716.220215,725.962402 
	C1710.563721,706.602295 1703.327637,687.654602 1695.911743,668.871887 
	C1688.907959,651.133423 1680.752197,633.849915 1672.897217,615.642090 
z"/>
<path fill="#B50E0E" opacity="1.000000" stroke="none" 
	d="
M1673.000122,616.004150 
	C1680.752197,633.849915 1688.907959,651.133423 1695.911743,668.871887 
	C1703.327637,687.654602 1710.563721,706.602295 1716.220215,725.962402 
	C1723.667969,751.453308 1729.890381,777.325867 1735.880005,803.210205 
	C1739.612671,819.341553 1742.196289,835.757141 1744.806396,852.123230 
	C1746.361084,861.871826 1747.195557,871.754211 1747.950317,881.607361 
	C1749.149414,897.262573 1750.369263,912.930908 1750.925171,928.616882 
	C1751.625854,948.382385 1752.149780,968.178833 1751.840332,987.947632 
	C1751.594971,1003.630554 1750.390869,1019.332336 1748.853516,1034.951050 
	C1747.453857,1049.171021 1745.381592,1063.349854 1742.980469,1077.440308 
	C1739.286743,1099.116577 1735.589966,1120.816772 1730.936890,1142.299561 
	C1723.170776,1178.154907 1712.354858,1213.226074 1698.593506,1247.172607 
	C1687.473633,1274.602905 1674.378174,1301.261597 1661.477539,1327.932983 
	C1647.265503,1357.315674 1629.952393,1384.959839 1611.021851,1411.496216 
	C1597.749634,1430.101196 1583.610107,1448.110229 1569.352173,1465.981689 
	C1559.578613,1478.232178 1549.303711,1490.134766 1538.578003,1501.559082 
	C1527.940552,1512.889893 1516.557129,1523.530884 1505.315186,1534.280151 
	C1495.783447,1543.393921 1486.345581,1552.661865 1476.222900,1561.088745 
	C1460.920166,1573.827881 1445.506226,1586.521729 1429.322876,1598.092773 
	C1408.194458,1613.199463 1386.793213,1628.066528 1364.532593,1641.406738 
	C1343.793579,1653.835083 1322.127319,1664.879028 1300.223755,1675.156860 
	C1276.891846,1686.105103 1253.173340,1696.468750 1228.941284,1705.192505 
	C1204.107422,1714.133057 1178.660645,1721.608154 1153.086182,1728.184570 
	C1129.756104,1734.183838 1106.006348,1738.784546 1082.233154,1742.752441 
	C1063.748779,1745.837646 1044.958984,1747.162231 1026.274902,1748.955444 
	C1015.749756,1749.965698 1005.172180,1750.634521 994.603333,1750.937134 
	C975.164429,1751.494141 955.698853,1752.296021 936.273804,1751.813965 
	C918.635254,1751.376099 901.007019,1749.664429 883.427307,1747.965088 
	C866.560364,1746.334839 849.681152,1744.502930 832.956116,1741.828735 
	C817.090210,1739.292114 801.286804,1736.075195 785.689819,1732.212769 
	C762.435242,1726.453857 739.145142,1720.626465 716.321350,1713.402710 
	C695.994934,1706.969360 675.999512,1699.261597 656.372986,1690.906616 
	C634.700867,1681.680786 613.276428,1671.733154 592.352417,1660.922607 
	C560.159912,1644.290405 529.257141,1625.389160 500.203705,1603.655762 
	C482.550110,1590.450073 465.180267,1576.859375 447.860535,1563.216309 
	C441.636169,1558.313232 435.738800,1552.950684 430.027374,1547.449951 
	C414.929962,1532.909058 399.337708,1518.798706 385.203766,1503.362305 
	C368.285583,1484.884888 352.510223,1465.346436 336.539642,1446.019897 
	C315.526703,1420.591431 297.040131,1393.273315 280.716461,1364.721802 
	C265.523560,1338.147949 251.764679,1310.677368 238.775879,1282.945190 
	C228.822632,1261.694092 219.909073,1239.795654 212.601837,1217.506958 
	C203.614883,1190.094360 196.079834,1162.146973 189.246719,1134.106812 
	C184.358612,1114.048218 181.236877,1093.520630 178.117249,1073.081787 
	C175.759247,1057.632935 174.735123,1041.983643 172.967758,1026.440674 
	C169.469925,995.679138 169.367218,964.781921 170.211166,933.932556 
	C170.756241,914.007935 173.228333,894.130920 174.986252,874.245789 
	C178.570831,833.697754 186.840744,793.987488 197.130692,754.695496 
	C201.035736,739.784241 205.718506,725.033142 210.876633,710.503662 
	C218.622360,688.685425 226.351547,666.805542 235.481583,645.550598 
	C244.060181,625.579407 254.189621,606.253235 264.099609,586.880066 
	C277.763947,560.167480 293.606598,534.710144 311.039124,510.325134 
	C324.044586,492.132812 337.808563,474.463623 351.686981,456.919159 
	C370.959473,432.555786 392.184418,409.869629 414.974487,388.830780 
	C434.603577,370.710083 454.974640,353.297119 475.967010,336.777588 
	C495.074188,321.741577 515.100159,307.786407 535.393738,294.372345 
	C551.429810,283.772491 568.197937,274.176025 585.166504,265.118591 
	C604.356873,254.875244 623.867065,245.131821 643.734436,236.285538 
	C662.033264,228.137695 680.697083,220.568878 699.727661,214.362671 
	C726.699646,205.566635 753.959106,197.471619 781.469849,190.567947 
	C801.807312,185.464371 822.673096,182.295944 843.431152,179.091599 
	C860.659058,176.432205 878.068848,174.941376 895.405396,172.998032 
	C925.661499,169.606430 956.051208,169.423889 986.411865,170.163315 
	C1003.883423,170.588821 1021.380554,172.083786 1038.749268,174.102768 
	C1063.073242,176.930298 1087.496948,179.632812 1111.492676,184.349121 
	C1136.892700,189.341431 1162.017090,196.013626 1186.931519,203.111084 
	C1207.127197,208.864273 1227.120239,215.598816 1246.691040,223.213959 
	C1276.911743,234.973053 1306.423950,248.398132 1334.981689,263.900085 
	C1360.184326,277.580841 1384.917114,292.028564 1408.189087,308.753723 
	C1427.952881,322.957550 1447.234497,337.860107 1466.315186,352.976410 
	C1478.727661,362.810028 1490.763916,373.191803 1502.296631,384.042328 
	C1513.614990,394.691406 1524.275391,406.065063 1534.875610,417.445709 
	C1547.683960,431.197327 1560.630005,444.873871 1572.585693,459.351685 
	C1584.938843,474.310852 1596.510132,489.952026 1607.825806,505.723541 
	C1627.320557,532.894836 1644.546265,561.513367 1660.363525,590.969604 
	C1664.726318,599.094482 1668.729248,607.412598 1673.000122,616.004150 
M751.695862,1040.410278 
	C747.197632,1041.667725 742.699402,1042.925293 738.201233,1044.182739 
	C763.442749,1046.407227 788.454346,1048.018799 813.539185,1044.093750 
	C845.830994,1039.040771 876.604675,1030.102783 903.984924,1011.603333 
	C941.619934,986.175293 964.615417,950.221802 976.831360,907.280945 
	C985.163879,877.990845 991.762817,848.203491 998.933289,818.589172 
	C1001.423401,808.305054 1003.302063,797.872864 1005.459961,787.508240 
	C1006.506104,791.118103 1006.544250,794.690308 1006.500244,798.261536 
	C1006.029602,836.464905 1007.859253,874.565063 1012.022339,912.535461 
	C1014.334229,933.620605 1017.841553,954.554382 1027.214844,973.835510 
	C1035.477051,990.831055 1048.434326,1002.900208 1066.703857,1009.110107 
	C1087.927368,1016.323975 1109.468140,1016.879333 1131.360352,1013.549377 
	C1167.979492,1007.979370 1203.091431,996.937988 1237.153687,982.858582 
	C1267.226807,970.428162 1298.146118,966.762817 1330.162720,969.789612 
	C1333.503418,970.105408 1335.289673,969.168579 1337.041870,966.480286 
	C1346.501465,951.967773 1356.147461,937.576843 1365.657471,923.096924 
	C1366.756714,921.423157 1367.410767,919.456909 1368.645630,916.829651 
	C1348.399658,920.840210 1329.432739,917.950623 1310.638550,914.381897 
	C1286.859009,909.866455 1266.106689,898.065979 1245.464966,886.027161 
	C1225.848267,874.586121 1205.281616,865.280762 1183.162109,859.492676 
	C1148.119873,850.322937 1120.478638,867.583984 1105.719482,889.629822 
	C1094.914185,905.769714 1086.827148,923.293945 1079.756470,941.316895 
	C1079.316406,942.438538 1079.171875,943.676025 1078.992676,944.428711 
	C1085.434326,938.678040 1091.473267,932.215393 1098.535522,927.191223 
	C1116.712402,914.260254 1136.512695,906.761597 1159.501343,910.713806 
	C1184.330200,914.982483 1206.470581,926.287598 1229.098267,936.383362 
	C1229.343506,936.492859 1229.452759,936.907104 1229.625610,937.179016 
	C1230.056396,937.614014 1230.487305,938.048950 1230.918213,938.483887 
	C1229.587891,939.174194 1228.177002,939.744141 1226.940063,940.573669 
	C1216.393799,947.645752 1205.727661,954.640076 1193.117065,957.339905 
	C1177.356079,960.714294 1161.587036,964.633667 1145.611328,966.284302 
	C1122.552002,968.666870 1099.341797,968.520752 1076.515991,963.052185 
	C1064.761597,960.236023 1055.878174,953.557922 1050.921753,942.577881 
	C1047.376465,934.723816 1044.336792,926.533997 1042.096313,918.217896 
	C1034.589722,890.355408 1032.822021,861.751038 1031.960205,833.060242 
	C1030.905029,797.931152 1031.840698,762.689758 1026.888062,727.769043 
	C1024.549316,711.278748 1024.076416,693.788513 1007.745972,682.719177 
	C1007.161133,684.425659 1006.369446,686.224731 1005.925903,688.105896 
	C998.933777,717.761475 991.877869,747.402771 985.064575,777.099670 
	C980.002686,799.163086 976.615295,821.704346 970.148010,843.334900 
	C946.325500,923.011780 890.418701,974.727173 819.046387,1011.754028 
	C797.684448,1022.836243 774.693665,1030.778931 751.695862,1040.410278 
M751.321350,1007.822144 
	C760.900146,995.261963 770.721985,982.875732 779.911743,970.037109 
	C782.724548,966.107544 784.735474,961.082275 785.482056,956.303833 
	C787.043640,946.308228 788.821960,936.065430 788.224854,926.060608 
	C785.039612,872.690369 780.994568,819.372314 777.564941,766.015686 
	C775.749634,737.773193 775.539062,709.641785 790.611938,684.319458 
	C771.073364,668.590393 765.546936,645.027466 756.027588,623.743530 
	C753.775513,627.803101 751.869873,631.475281 749.747375,635.017578 
	C744.354370,644.018066 738.991272,653.041382 733.349915,661.885742 
	C731.126770,665.371155 730.665894,668.694031 731.386353,672.722168 
	C737.510925,706.967407 744.275024,741.126343 749.243958,775.542603 
	C754.572083,812.447083 759.054016,849.528137 762.152771,886.678284 
	C763.817444,906.635681 762.183472,926.915833 761.333252,947.020569 
	C760.630981,963.629150 751.080261,975.153076 737.423035,983.474854 
	C732.047852,986.750183 726.402039,989.892883 720.474487,991.900208 
	C678.200500,1006.215637 636.621765,1007.445740 596.338501,984.814819 
	C588.937866,980.657166 583.591797,975.153625 581.049744,967.200806 
	C575.522766,949.909546 575.149170,932.335999 580.693420,915.104248 
	C585.607666,899.830566 591.731445,884.946106 597.244080,870.097534 
	C597.104248,870.186584 596.612976,870.372009 596.298157,870.718018 
	C577.128723,891.788757 563.058105,915.977173 556.466125,943.588440 
	C548.971375,974.980957 555.216858,1003.909729 581.002319,1025.137085 
	C612.058594,1050.703369 648.061279,1059.207764 687.394958,1049.232178 
	C712.903809,1042.762573 732.941589,1027.023804 751.321350,1007.822144 
M561.500122,1116.905396 
	C555.551453,1116.905396 549.602783,1116.905396 543.429688,1116.905396 
	C543.429688,1177.818604 543.429688,1238.189819 543.429688,1298.623047 
	C555.768372,1298.623047 567.807556,1298.623047 580.177979,1298.623047 
	C580.177979,1272.129639 580.177979,1246.014771 580.177979,1219.624512 
	C604.090210,1219.624512 627.665100,1219.624512 651.791626,1219.624512 
	C651.791626,1246.060791 651.791626,1272.289185 651.791626,1298.620117 
	C664.370483,1298.620117 676.394958,1298.620117 688.314880,1298.620117 
	C688.314880,1237.878906 688.314880,1177.522583 688.314880,1117.250610 
	C675.978577,1117.250610 664.066284,1117.250610 651.617615,1117.250610 
	C651.617615,1141.147583 651.617615,1164.703491 651.617615,1188.306885 
	C627.521851,1188.306885 603.972412,1188.306885 579.915649,1188.306885 
	C579.915649,1164.383911 579.915649,1140.815552 579.915649,1116.905396 
	C573.773682,1116.905396 568.136475,1116.905396 561.500122,1116.905396 
M1091.306519,1185.722290 
	C1076.732422,1223.301636 1062.158447,1260.880859 1047.373535,1299.003906 
	C1060.081787,1299.003906 1071.739136,1299.133057 1083.386230,1298.842773 
	C1084.860107,1298.806030 1087.011841,1296.852905 1087.606689,1295.308838 
	C1091.974487,1283.970947 1096.099731,1272.537109 1100.120728,1261.069946 
	C1101.037109,1258.456787 1102.305176,1257.489990 1105.135254,1257.504883 
	C1127.128174,1257.620483 1149.122437,1257.502808 1171.114014,1257.708740 
	C1172.679932,1257.723389 1175.035645,1259.395996 1175.649658,1260.870117 
	C1179.168457,1269.318359 1182.269043,1277.940552 1185.516602,1286.501831 
	C1190.259033,1299.004150 1190.260742,1299.003540 1203.703979,1299.003540 
	C1212.254150,1299.003540 1220.804321,1299.003540 1229.673096,1299.003540 
	C1229.300171,1297.647217 1229.186523,1296.993774 1228.945190,1296.391357 
	C1205.420166,1237.667114 1181.864746,1178.955200 1158.418457,1120.199585 
	C1157.353149,1117.529785 1155.972656,1116.804199 1153.257812,1116.843994 
	C1142.929688,1116.994995 1132.595703,1117.028931 1122.269287,1116.829712 
	C1119.119629,1116.768799 1117.635864,1117.713379 1116.486816,1120.736206 
	C1108.323486,1142.210327 1099.942993,1163.601685 1091.306519,1185.722290 
M759.578064,1166.962158 
	C742.554688,1210.792236 725.531250,1254.622314 708.294312,1299.002197 
	C721.038208,1299.002197 732.858032,1299.113281 744.669373,1298.848267 
	C746.002747,1298.818359 747.935974,1296.915405 748.493469,1295.460327 
	C752.840881,1284.114136 757.013000,1272.697632 761.014954,1261.224731 
	C762.009705,1258.373047 763.442444,1257.483032 766.418640,1257.500366 
	C788.077148,1257.625854 809.737183,1257.640015 831.395325,1257.490601 
	C834.648560,1257.468140 836.013916,1258.631470 837.079712,1261.569214 
	C841.223450,1272.991455 845.585510,1284.335938 850.016418,1295.650635 
	C850.526184,1296.952271 851.958984,1298.828369 852.992188,1298.846924 
	C865.412903,1299.068848 877.838989,1298.990356 890.643066,1298.990356 
	C890.175537,1297.475098 889.951904,1296.513672 889.589050,1295.607910 
	C866.188049,1237.195923 842.758850,1178.795044 819.421692,1120.357544 
	C818.404236,1117.809814 817.199158,1116.790527 814.374512,1116.836792 
	C803.880920,1117.008545 793.380554,1117.027466 782.887939,1116.827515 
	C779.853699,1116.769653 778.534790,1117.838135 777.494873,1120.587891 
	C771.724548,1135.846191 765.760620,1151.031494 759.578064,1166.962158 
M947.500000,1299.000854 
	C978.104370,1299.000854 1008.708801,1299.000854 1039.400269,1299.000854 
	C1039.400269,1288.433716 1039.400269,1278.406250 1039.400269,1267.963379 
	C1008.884338,1267.963379 978.786987,1267.963379 948.260132,1267.963379 
	C948.260132,1217.952881 948.260132,1168.365723 948.260132,1118.609375 
	C935.923157,1118.609375 924.022461,1118.609375 911.874756,1118.609375 
	C911.874756,1178.790161 911.874756,1238.699585 911.874756,1299.000854 
	C923.566345,1299.000854 935.033203,1299.000854 947.500000,1299.000854 
M1315.500000,1268.159546 
	C1306.232300,1268.159546 1296.964600,1268.159546 1287.269409,1268.159546 
	C1287.269409,1217.894043 1287.269409,1168.315552 1287.269409,1118.638550 
	C1274.910034,1118.638550 1262.997192,1118.638550 1250.976318,1118.638550 
	C1250.976318,1178.823242 1250.976318,1238.707031 1250.976318,1298.699707 
	C1293.657959,1298.699707 1336.038940,1298.699707 1378.594727,1298.699707 
	C1378.594727,1288.492920 1378.594727,1278.589478 1378.594727,1268.159546 
	C1357.717896,1268.159546 1337.108887,1268.159546 1315.500000,1268.159546 
M817.658508,727.843811 
	C810.908813,724.853516 804.159119,721.863220 796.755005,718.583008 
	C796.228516,721.240417 795.654907,722.816895 795.643677,724.397339 
	C795.541138,738.876587 795.073364,753.374146 795.626221,767.831482 
	C796.242004,783.934021 803.911194,796.152771 818.738220,803.020325 
	C830.198730,808.328613 841.766235,813.559265 853.677307,817.699341 
	C866.152344,822.035461 876.177002,829.311157 883.870300,839.667114 
	C889.701050,847.515930 895.631470,855.582397 899.688843,864.394104 
	C907.368896,881.073364 913.735229,898.357605 920.400208,914.781250 
	C920.674377,907.577820 920.959595,899.355469 921.305847,891.135620 
	C922.120911,871.787903 919.840759,852.680603 913.291626,834.587036 
	C895.914246,786.577454 863.994568,751.132019 817.658508,727.843811 
z"/>
<path fill="#FEFDFD" opacity="1.000000" stroke="none" 
	d="
M752.072510,1040.285156 
	C774.693665,1030.778931 797.684448,1022.836243 819.046387,1011.754028 
	C890.418701,974.727173 946.325500,923.011780 970.148010,843.334900 
	C976.615295,821.704346 980.002686,799.163086 985.064575,777.099670 
	C991.877869,747.402771 998.933777,717.761475 1005.925903,688.105896 
	C1006.369446,686.224731 1007.161133,684.425659 1007.745972,682.719177 
	C1024.076416,693.788513 1024.549316,711.278748 1026.888062,727.769043 
	C1031.840698,762.689758 1030.905029,797.931152 1031.960205,833.060242 
	C1032.822021,861.751038 1034.589722,890.355408 1042.096313,918.217896 
	C1044.336792,926.533997 1047.376465,934.723816 1050.921753,942.577881 
	C1055.878174,953.557922 1064.761597,960.236023 1076.515991,963.052185 
	C1099.341797,968.520752 1122.552002,968.666870 1145.611328,966.284302 
	C1161.587036,964.633667 1177.356079,960.714294 1193.117065,957.339905 
	C1205.727661,954.640076 1216.393799,947.645752 1226.940063,940.573669 
	C1228.177002,939.744141 1229.587891,939.174194 1230.918213,938.483887 
	C1230.487305,938.048950 1230.056396,937.614014 1229.625610,937.179016 
	C1229.452759,936.907104 1229.343506,936.492859 1229.098267,936.383362 
	C1206.470581,926.287598 1184.330200,914.982483 1159.501343,910.713806 
	C1136.512695,906.761597 1116.712402,914.260254 1098.535522,927.191223 
	C1091.473267,932.215393 1085.434326,938.678040 1078.992676,944.428711 
	C1079.171875,943.676025 1079.316406,942.438538 1079.756470,941.316895 
	C1086.827148,923.293945 1094.914185,905.769714 1105.719482,889.629822 
	C1120.478638,867.583984 1148.119873,850.322937 1183.162109,859.492676 
	C1205.281616,865.280762 1225.848267,874.586121 1245.464966,886.027161 
	C1266.106689,898.065979 1286.859009,909.866455 1310.638550,914.381897 
	C1329.432739,917.950623 1348.399658,920.840210 1368.645630,916.829651 
	C1367.410767,919.456909 1366.756714,921.423157 1365.657471,923.096924 
	C1356.147461,937.576843 1346.501465,951.967773 1337.041870,966.480286 
	C1335.289673,969.168579 1333.503418,970.105408 1330.162720,969.789612 
	C1298.146118,966.762817 1267.226807,970.428162 1237.153687,982.858582 
	C1203.091431,996.937988 1167.979492,1007.979370 1131.360352,1013.549377 
	C1109.468140,1016.879333 1087.927368,1016.323975 1066.703857,1009.110107 
	C1048.434326,1002.900208 1035.477051,990.831055 1027.214844,973.835510 
	C1017.841553,954.554382 1014.334229,933.620605 1012.022339,912.535461 
	C1007.859253,874.565063 1006.029602,836.464905 1006.500244,798.261536 
	C1006.544250,794.690308 1006.506104,791.118103 1005.459961,787.508240 
	C1003.302063,797.872864 1001.423401,808.305054 998.933289,818.589172 
	C991.762817,848.203491 985.163879,877.990845 976.831360,907.280945 
	C964.615417,950.221802 941.619934,986.175293 903.984924,1011.603333 
	C876.604675,1030.102783 845.830994,1039.040771 813.539185,1044.093750 
	C788.454346,1048.018799 763.442749,1046.407227 738.201233,1044.182739 
	C742.699402,1042.925293 747.197632,1041.667725 752.072510,1040.285156 
z"/>
<path fill="#FEFCFC" opacity="1.000000" stroke="none" 
	d="
M751.080383,1008.082275 
	C732.941589,1027.023804 712.903809,1042.762573 687.394958,1049.232178 
	C648.061279,1059.207764 612.058594,1050.703369 581.002319,1025.137085 
	C555.216858,1003.909729 548.971375,974.980957 556.466125,943.588440 
	C563.058105,915.977173 577.128723,891.788757 596.298157,870.718018 
	C596.612976,870.372009 597.104248,870.186584 597.244080,870.097534 
	C591.731445,884.946106 585.607666,899.830566 580.693420,915.104248 
	C575.149170,932.335999 575.522766,949.909546 581.049744,967.200806 
	C583.591797,975.153625 588.937866,980.657166 596.338501,984.814819 
	C636.621765,1007.445740 678.200500,1006.215637 720.474487,991.900208 
	C726.402039,989.892883 732.047852,986.750183 737.423035,983.474854 
	C751.080261,975.153076 760.630981,963.629150 761.333252,947.020569 
	C762.183472,926.915833 763.817444,906.635681 762.152771,886.678284 
	C759.054016,849.528137 754.572083,812.447083 749.243958,775.542603 
	C744.275024,741.126343 737.510925,706.967407 731.386353,672.722168 
	C730.665894,668.694031 731.126770,665.371155 733.349915,661.885742 
	C738.991272,653.041382 744.354370,644.018066 749.747375,635.017578 
	C751.869873,631.475281 753.775513,627.803101 756.027588,623.743530 
	C765.546936,645.027466 771.073364,668.590393 790.611938,684.319458 
	C775.539062,709.641785 775.749634,737.773193 777.564941,766.015686 
	C780.994568,819.372314 785.039612,872.690369 788.224854,926.060608 
	C788.821960,936.065430 787.043640,946.308228 785.482056,956.303833 
	C784.735474,961.082275 782.724548,966.107544 779.911743,970.037109 
	C770.721985,982.875732 760.900146,995.261963 751.080383,1008.082275 
z"/>
<path fill="#FEFDFD" opacity="1.000000" stroke="none" 
	d="
M561.999695,1116.905396 
	C568.136475,1116.905396 573.773682,1116.905396 579.915649,1116.905396 
	C579.915649,1140.815552 579.915649,1164.383911 579.915649,1188.306885 
	C603.972412,1188.306885 627.521851,1188.306885 651.617615,1188.306885 
	C651.617615,1164.703491 651.617615,1141.147583 651.617615,1117.250610 
	C664.066284,1117.250610 675.978577,1117.250610 688.314880,1117.250610 
	C688.314880,1177.522583 688.314880,1237.878906 688.314880,1298.620117 
	C676.394958,1298.620117 664.370483,1298.620117 651.791626,1298.620117 
	C651.791626,1272.289185 651.791626,1246.060791 651.791626,1219.624512 
	C627.665100,1219.624512 604.090210,1219.624512 580.177979,1219.624512 
	C580.177979,1246.014771 580.177979,1272.129639 580.177979,1298.623047 
	C567.807556,1298.623047 555.768372,1298.623047 543.429688,1298.623047 
	C543.429688,1238.189819 543.429688,1177.818604 543.429688,1116.905396 
	C549.602783,1116.905396 555.551453,1116.905396 561.999695,1116.905396 
z"/>
<path fill="#FEFCFC" opacity="1.000000" stroke="none" 
	d="
M1091.468994,1185.370850 
	C1099.942993,1163.601685 1108.323486,1142.210327 1116.486816,1120.736206 
	C1117.635864,1117.713379 1119.119629,1116.768799 1122.269287,1116.829712 
	C1132.595703,1117.028931 1142.929688,1116.994995 1153.257812,1116.843994 
	C1155.972656,1116.804199 1157.353149,1117.529785 1158.418457,1120.199585 
	C1181.864746,1178.955200 1205.420166,1237.667114 1228.945190,1296.391357 
	C1229.186523,1296.993774 1229.300171,1297.647217 1229.673096,1299.003540 
	C1220.804321,1299.003540 1212.254150,1299.003540 1203.703979,1299.003540 
	C1190.260742,1299.003540 1190.259033,1299.004150 1185.516602,1286.501831 
	C1182.269043,1277.940552 1179.168457,1269.318359 1175.649658,1260.870117 
	C1175.035645,1259.395996 1172.679932,1257.723389 1171.114014,1257.708740 
	C1149.122437,1257.502808 1127.128174,1257.620483 1105.135254,1257.504883 
	C1102.305176,1257.489990 1101.037109,1258.456787 1100.120728,1261.069946 
	C1096.099731,1272.537109 1091.974487,1283.970947 1087.606689,1295.308838 
	C1087.011841,1296.852905 1084.860107,1298.806030 1083.386230,1298.842773 
	C1071.739136,1299.133057 1060.081787,1299.003906 1047.373535,1299.003906 
	C1062.158447,1260.880859 1076.732422,1223.301636 1091.468994,1185.370850 
M1120.878174,1204.331421 
	C1118.217896,1211.621216 1115.557739,1218.910889 1112.798340,1226.472412 
	C1129.561279,1226.472412 1145.704102,1226.472412 1162.467041,1226.472412 
	C1154.094116,1204.175415 1145.912720,1182.388794 1137.279297,1159.398071 
	C1131.588745,1174.945190 1126.347412,1189.264893 1120.878174,1204.331421 
z"/>
<path fill="#FEFDFD" opacity="1.000000" stroke="none" 
	d="
M759.720520,1166.601929 
	C765.760620,1151.031494 771.724548,1135.846191 777.494873,1120.587891 
	C778.534790,1117.838135 779.853699,1116.769653 782.887939,1116.827515 
	C793.380554,1117.027466 803.880920,1117.008545 814.374512,1116.836792 
	C817.199158,1116.790527 818.404236,1117.809814 819.421692,1120.357544 
	C842.758850,1178.795044 866.188049,1237.195923 889.589050,1295.607910 
	C889.951904,1296.513672 890.175537,1297.475098 890.643066,1298.990356 
	C877.838989,1298.990356 865.412903,1299.068848 852.992188,1298.846924 
	C851.958984,1298.828369 850.526184,1296.952271 850.016418,1295.650635 
	C845.585510,1284.335938 841.223450,1272.991455 837.079712,1261.569214 
	C836.013916,1258.631470 834.648560,1257.468140 831.395325,1257.490601 
	C809.737183,1257.640015 788.077148,1257.625854 766.418640,1257.500366 
	C763.442444,1257.483032 762.009705,1258.373047 761.014954,1261.224731 
	C757.013000,1272.697632 752.840881,1284.114136 748.493469,1295.460327 
	C747.935974,1296.915405 746.002747,1298.818359 744.669373,1298.848267 
	C732.858032,1299.113281 721.038208,1299.002197 708.294312,1299.002197 
	C725.531250,1254.622314 742.554688,1210.792236 759.720520,1166.601929 
M780.474792,1207.924561 
	C778.274658,1214.069702 776.074524,1220.214844 773.803955,1226.556885 
	C790.646606,1226.556885 806.700928,1226.556885 823.437500,1226.556885 
	C815.075378,1204.270508 806.884460,1182.440186 798.221741,1159.352661 
	C792.119812,1176.087036 786.447083,1191.644531 780.474792,1207.924561 
z"/>
<path fill="#FFFDFD" opacity="1.000000" stroke="none" 
	d="
M947.000000,1299.000854 
	C935.033203,1299.000854 923.566345,1299.000854 911.874756,1299.000854 
	C911.874756,1238.699585 911.874756,1178.790161 911.874756,1118.609375 
	C924.022461,1118.609375 935.923157,1118.609375 948.260132,1118.609375 
	C948.260132,1168.365723 948.260132,1217.952881 948.260132,1267.963379 
	C978.786987,1267.963379 1008.884338,1267.963379 1039.400269,1267.963379 
	C1039.400269,1278.406250 1039.400269,1288.433716 1039.400269,1299.000854 
	C1008.708801,1299.000854 978.104370,1299.000854 947.000000,1299.000854 
z"/>
<path fill="#FFFDFD" opacity="1.000000" stroke="none" 
	d="
M1316.000000,1268.159546 
	C1337.108887,1268.159546 1357.717896,1268.159546 1378.594727,1268.159546 
	C1378.594727,1278.589478 1378.594727,1288.492920 1378.594727,1298.699707 
	C1336.038940,1298.699707 1293.657959,1298.699707 1250.976318,1298.699707 
	C1250.976318,1238.707031 1250.976318,1178.823242 1250.976318,1118.638550 
	C1262.997192,1118.638550 1274.910034,1118.638550 1287.269409,1118.638550 
	C1287.269409,1168.315552 1287.269409,1217.894043 1287.269409,1268.159546 
	C1296.964600,1268.159546 1306.232300,1268.159546 1316.000000,1268.159546 
z"/>
<path fill="#FEFDFD" opacity="1.000000" stroke="none" 
	d="
M818.001953,727.989075 
	C863.994568,751.132019 895.914246,786.577454 913.291626,834.587036 
	C919.840759,852.680603 922.120911,871.787903 921.305847,891.135620 
	C920.959595,899.355469 920.674377,907.577820 920.400208,914.781250 
	C913.735229,898.357605 907.368896,881.073364 899.688843,864.394104 
	C895.631470,855.582397 889.701050,847.515930 883.870300,839.667114 
	C876.177002,829.311157 866.152344,822.035461 853.677307,817.699341 
	C841.766235,813.559265 830.198730,808.328613 818.738220,803.020325 
	C803.911194,796.152771 796.242004,783.934021 795.626221,767.831482 
	C795.073364,753.374146 795.541138,738.876587 795.643677,724.397339 
	C795.654907,722.816895 796.228516,721.240417 796.755005,718.583008 
	C804.159119,721.863220 810.908813,724.853516 818.001953,727.989075 
z"/>
<path fill="#B71313" opacity="1.000000" stroke="none" 
	d="
M1120.992188,1203.958008 
	C1126.347412,1189.264893 1131.588745,1174.945190 1137.279297,1159.398071 
	C1145.912720,1182.388794 1154.094116,1204.175415 1162.467041,1226.472412 
	C1145.704102,1226.472412 1129.561279,1226.472412 1112.798340,1226.472412 
	C1115.557739,1218.910889 1118.217896,1211.621216 1120.992188,1203.958008 
z"/>
<path fill="#B71414" opacity="1.000000" stroke="none" 
	d="
M780.624573,1207.563232 
	C786.447083,1191.644531 792.119812,1176.087036 798.221741,1159.352661 
	C806.884460,1182.440186 815.075378,1204.270508 823.437500,1226.556885 
	C806.700928,1226.556885 790.646606,1226.556885 773.803955,1226.556885 
	C776.074524,1220.214844 778.274658,1214.069702 780.624573,1207.563232 
z"/>
</svg>