<?xml version="1.0" encoding="UTF-8"?>
<svg version="1.1" xmlns="http://www.w3.org/2000/svg" width="800" height="800">
<path d="M0 0 C1.69311813 -0.01469078 1.69311813 -0.01469078 3.42044067 -0.02967834 C48.85521825 -0.34241098 91.21040264 3.84129379 134.84375 17.23828125 C135.74351562 17.5125293 136.64328125 17.78677734 137.5703125 18.06933594 C188.22891141 33.70401414 236.00244704 60.26265466 275.84375 95.23828125 C276.5759375 95.87121094 277.308125 96.50414063 278.0625 97.15625 C280.00140699 98.83740547 281.92355223 100.53579349 283.84375 102.23828125 C284.56594727 102.87636719 285.28814453 103.51445313 286.03222656 104.171875 C292.34979495 109.80011328 298.42185096 115.63327927 304.40625 121.61328125 C305.72786133 122.91652344 305.72786133 122.91652344 307.07617188 124.24609375 C312.35693828 129.51516842 317.2184774 134.9639382 321.88061523 140.78710938 C323.44240931 142.7371669 325.0268709 144.64413654 326.671875 146.5234375 C334.34832216 155.326589 341.15834057 164.66774815 347.84375 174.23828125 C348.29105469 174.87491699 348.73835937 175.51155273 349.19921875 176.16748047 C356.82986186 187.0881047 363.42053825 198.5756718 369.84375 210.23828125 C370.34696777 211.14610352 370.85018555 212.05392578 371.36865234 212.98925781 C395.80970862 257.37465625 415.83633082 313.69310405 416.02075195 364.89379883 C416.03060875 366.11577721 416.03060875 366.11577721 416.04066467 367.36244202 C416.0602258 370.03590024 416.07203294 372.70930223 416.08203125 375.3828125 C416.08610678 376.31047613 416.0901823 377.23813976 416.09438133 378.19391441 C416.11518745 383.12154281 416.12950253 388.04914396 416.13891602 392.97680664 C416.14770116 396.99226404 416.16840371 401.00736693 416.20043945 405.02270508 C416.37801427 427.79152178 416.21701238 449.81015398 411.84375 472.23828125 C411.62267075 473.43289474 411.62267075 473.43289474 411.39712524 474.65164185 C410.57483013 479.0845361 409.62927761 483.4743515 408.59375 487.86328125 C408.14660645 489.78889893 408.14660645 489.78889893 407.69042969 491.75341797 C393.4559396 552.09794682 365.25623176 609.69605903 324.33911133 656.47167969 C323.19907119 657.81850915 322.08970561 659.19136628 320.99487305 660.57519531 C315.13721822 667.94985839 308.75730303 674.60129434 302.06860352 681.21923828 C300.27491509 682.99455126 298.48947804 684.77785581 296.70507812 686.5625 C290.92141164 692.32880625 285.10986425 697.9916775 278.84375 703.23828125 C278.21299561 703.77582031 277.58224121 704.31335938 276.93237305 704.8671875 C218.62063571 754.36410597 148.34170992 785.63621547 72.84375 797.23828125 C71.27729736 797.48819824 71.27729736 797.48819824 69.67919922 797.74316406 C12.52777399 806.46898622 -48.12938283 800.13348398 -103.15625 783.23828125 C-104.05601562 782.9640332 -104.95578125 782.68978516 -105.8828125 782.40722656 C-142.39404988 771.13882476 -177.83345555 754.13955987 -209.15625 732.23828125 C-209.73922852 731.83399902 -210.32220703 731.4297168 -210.92285156 731.01318359 C-239.48975453 711.15800558 -268.80177653 687.33743767 -290.17578125 659.77734375 C-292.05095799 657.373271 -294.01654791 655.0715406 -296.01953125 652.77368164 C-303.32371788 644.35714968 -309.77880856 635.36794116 -316.15625 626.23828125 C-316.60355469 625.60164551 -317.05085938 624.96500977 -317.51171875 624.30908203 C-325.14236186 613.3884578 -331.73303825 601.9008907 -338.15625 590.23828125 C-338.65946777 589.33045898 -339.16268555 588.42263672 -339.68115234 587.48730469 C-364.12220862 543.10190625 -384.14883082 486.78345845 -384.33325195 435.58276367 C-384.33982315 434.76811142 -384.34639435 433.95345917 -384.35316467 433.11412048 C-384.3727258 430.44066226 -384.38453294 427.76726027 -384.39453125 425.09375 C-384.39860678 424.16608637 -384.4026823 423.23842274 -384.40688133 422.28264809 C-384.42768745 417.35501969 -384.44200253 412.42741854 -384.45141602 407.49975586 C-384.46020116 403.48429846 -384.48090371 399.46919557 -384.51293945 395.45385742 C-384.69051427 372.68504072 -384.52951238 350.66640852 -380.15625 328.23828125 C-380.00886383 327.44187225 -379.86147766 326.64546326 -379.70962524 325.82492065 C-378.88733013 321.3920264 -377.94177761 317.002211 -376.90625 312.61328125 C-376.45910645 310.68766357 -376.45910645 310.68766357 -376.00292969 308.72314453 C-361.04339733 245.304931 -330.55938361 185.02408449 -286.4921875 136.8203125 C-285.21591144 135.40957927 -283.94606704 133.99248248 -282.7097168 132.54663086 C-277.94564322 126.9870115 -272.85419566 121.78304487 -267.66821289 116.61987305 C-266.22100615 115.17802904 -264.77922974 113.73091009 -263.33789062 112.28320312 C-258.11519465 107.05603011 -252.80561388 102.00270776 -247.15625 97.23828125 C-246.52243408 96.69776123 -245.88861816 96.15724121 -245.2355957 95.6003418 C-234.60200818 86.58053088 -223.59821413 78.20363845 -212.15625 70.23828125 C-211.51478027 69.79000977 -210.87331055 69.34173828 -210.21240234 68.87988281 C-185.03987019 51.39215472 -157.56634694 37.59669241 -129.15625 26.23828125 C-128.31674805 25.89958008 -127.47724609 25.56087891 -126.61230469 25.21191406 C-87.04340523 9.40087574 -42.65761944 0.30824643 0 0 Z " fill="#FEFEFE" transform="translate(384.15625,-0.23828125)"/>
<path d="M0 0 C1.69311813 -0.01469078 1.69311813 -0.01469078 3.42044067 -0.02967834 C48.85521825 -0.34241098 91.21040264 3.84129379 134.84375 17.23828125 C135.74351562 17.5125293 136.64328125 17.78677734 137.5703125 18.06933594 C188.22891141 33.70401414 236.00244704 60.26265466 275.84375 95.23828125 C276.5759375 95.87121094 277.308125 96.50414063 278.0625 97.15625 C280.00140699 98.83740547 281.92355223 100.53579349 283.84375 102.23828125 C284.56594727 102.87636719 285.28814453 103.51445313 286.03222656 104.171875 C292.34979495 109.80011328 298.42185096 115.63327927 304.40625 121.61328125 C305.72786133 122.91652344 305.72786133 122.91652344 307.07617188 124.24609375 C312.35693828 129.51516842 317.2184774 134.9639382 321.88061523 140.78710938 C323.44240931 142.7371669 325.0268709 144.64413654 326.671875 146.5234375 C334.34832216 155.326589 341.15834057 164.66774815 347.84375 174.23828125 C348.29105469 174.87491699 348.73835937 175.51155273 349.19921875 176.16748047 C356.82986186 187.0881047 363.42053825 198.5756718 369.84375 210.23828125 C370.34696777 211.14610352 370.85018555 212.05392578 371.36865234 212.98925781 C395.80970862 257.37465625 415.83633082 313.69310405 416.02075195 364.89379883 C416.03060875 366.11577721 416.03060875 366.11577721 416.04066467 367.36244202 C416.0602258 370.03590024 416.07203294 372.70930223 416.08203125 375.3828125 C416.08610678 376.31047613 416.0901823 377.23813976 416.09438133 378.19391441 C416.11518745 383.12154281 416.12950253 388.04914396 416.13891602 392.97680664 C416.14770116 396.99226404 416.16840371 401.00736693 416.20043945 405.02270508 C416.37801427 427.79152178 416.21701238 449.81015398 411.84375 472.23828125 C411.62267075 473.43289474 411.62267075 473.43289474 411.39712524 474.65164185 C410.57483013 479.0845361 409.62927761 483.4743515 408.59375 487.86328125 C408.14660645 489.78889893 408.14660645 489.78889893 407.69042969 491.75341797 C393.4559396 552.09794682 365.25623176 609.69605903 324.33911133 656.47167969 C323.19907119 657.81850915 322.08970561 659.19136628 320.99487305 660.57519531 C315.13721822 667.94985839 308.75730303 674.60129434 302.06860352 681.21923828 C300.27491509 682.99455126 298.48947804 684.77785581 296.70507812 686.5625 C290.92141164 692.32880625 285.10986425 697.9916775 278.84375 703.23828125 C278.21299561 703.77582031 277.58224121 704.31335938 276.93237305 704.8671875 C218.62063571 754.36410597 148.34170992 785.63621547 72.84375 797.23828125 C71.27729736 797.48819824 71.27729736 797.48819824 69.67919922 797.74316406 C12.52777399 806.46898622 -48.12938283 800.13348398 -103.15625 783.23828125 C-104.05601562 782.9640332 -104.95578125 782.68978516 -105.8828125 782.40722656 C-142.39404988 771.13882476 -177.83345555 754.13955987 -209.15625 732.23828125 C-209.73922852 731.83399902 -210.32220703 731.4297168 -210.92285156 731.01318359 C-239.48975453 711.15800558 -268.80177653 687.33743767 -290.17578125 659.77734375 C-292.05095799 657.373271 -294.01654791 655.0715406 -296.01953125 652.77368164 C-303.32371788 644.35714968 -309.77880856 635.36794116 -316.15625 626.23828125 C-316.60355469 625.60164551 -317.05085938 624.96500977 -317.51171875 624.30908203 C-325.14236186 613.3884578 -331.73303825 601.9008907 -338.15625 590.23828125 C-338.65946777 589.33045898 -339.16268555 588.42263672 -339.68115234 587.48730469 C-364.12220862 543.10190625 -384.14883082 486.78345845 -384.33325195 435.58276367 C-384.33982315 434.76811142 -384.34639435 433.95345917 -384.35316467 433.11412048 C-384.3727258 430.44066226 -384.38453294 427.76726027 -384.39453125 425.09375 C-384.39860678 424.16608637 -384.4026823 423.23842274 -384.40688133 422.28264809 C-384.42768745 417.35501969 -384.44200253 412.42741854 -384.45141602 407.49975586 C-384.46020116 403.48429846 -384.48090371 399.46919557 -384.51293945 395.45385742 C-384.69051427 372.68504072 -384.52951238 350.66640852 -380.15625 328.23828125 C-380.00886383 327.44187225 -379.86147766 326.64546326 -379.70962524 325.82492065 C-378.88733013 321.3920264 -377.94177761 317.002211 -376.90625 312.61328125 C-376.45910645 310.68766357 -376.45910645 310.68766357 -376.00292969 308.72314453 C-361.04339733 245.304931 -330.55938361 185.02408449 -286.4921875 136.8203125 C-285.21591144 135.40957927 -283.94606704 133.99248248 -282.7097168 132.54663086 C-277.94564322 126.9870115 -272.85419566 121.78304487 -267.66821289 116.61987305 C-266.22100615 115.17802904 -264.77922974 113.73091009 -263.33789062 112.28320312 C-258.11519465 107.05603011 -252.80561388 102.00270776 -247.15625 97.23828125 C-246.52243408 96.69776123 -245.88861816 96.15724121 -245.2355957 95.6003418 C-234.60200818 86.58053088 -223.59821413 78.20363845 -212.15625 70.23828125 C-211.51478027 69.79000977 -210.87331055 69.34173828 -210.21240234 68.87988281 C-185.03987019 51.39215472 -157.56634694 37.59669241 -129.15625 26.23828125 C-128.31674805 25.89958008 -127.47724609 25.56087891 -126.61230469 25.21191406 C-87.04340523 9.40087574 -42.65761944 0.30824643 0 0 Z M-192.15625 153.23828125 C-193.01347656 153.99625 -193.87070313 154.75421875 -194.75390625 155.53515625 C-197.23608257 157.75377344 -199.69614183 159.99524145 -202.15625 162.23828125 C-203.11273438 163.09035156 -204.06921875 163.94242187 -205.0546875 164.8203125 C-215.78775496 174.4255924 -225.20845101 184.94403148 -234.15625 196.23828125 C-234.93484375 197.21023437 -235.7134375 198.1821875 -236.515625 199.18359375 C-258.3394791 226.91517905 -275.05886501 258.15180377 -287.15625 291.23828125 C-287.40568359 291.90811035 -287.65511719 292.57793945 -287.91210938 293.26806641 C-289.49225281 297.54395307 -290.87439236 301.86544648 -292.15625 306.23828125 C-292.42147461 307.13836914 -292.68669922 308.03845703 -292.95996094 308.96582031 C-296.94484487 322.7507644 -299.91790416 336.49962079 -302.03125 350.67578125 C-302.18630005 351.71312408 -302.18630005 351.71312408 -302.34448242 352.77142334 C-304.66392058 368.50357051 -305.39661528 383.91966165 -305.40625 399.80078125 C-305.40692474 400.80072113 -305.40759949 401.80066101 -305.40829468 402.8309021 C-305.33280201 473.40525752 -281.22245888 544.84029365 -237.15625 600.23828125 C-236.37894531 601.22699219 -235.60164063 602.21570313 -234.80078125 603.234375 C-229.66503409 609.64269668 -224.16829105 615.69272193 -218.57666016 621.70019531 C-217.13523411 623.26103823 -215.71199669 624.83675235 -214.29296875 626.41796875 C-209.80370349 631.40861641 -205.30573099 636.2362309 -200.1484375 640.5546875 C-197.93720823 642.42339302 -195.83766299 644.39062319 -193.71875 646.36328125 C-149.61569024 686.02236858 -91.55021912 712.29282215 -33.15625 721.23828125 C-31.71185547 721.46257812 -31.71185547 721.46257812 -30.23828125 721.69140625 C17.25567283 728.74556588 68.42317635 724.75551099 113.84375 709.23828125 C114.83455566 708.90376953 115.82536133 708.56925781 116.84619141 708.22460938 C156.15381636 694.78467179 192.65350895 674.83127604 223.84375 647.23828125 C225.12958984 646.10132813 225.12958984 646.10132813 226.44140625 644.94140625 C228.9235961 642.72277697 231.38429172 640.48206396 233.84375 638.23828125 C234.85629315 637.33019625 235.86933718 636.42266953 236.8828125 635.515625 C241.91869685 630.98708137 246.79268259 626.44226527 251.15234375 621.2421875 C253.06972852 618.9705515 255.07882673 616.79878004 257.09375 614.61328125 C290.21098362 577.74798234 311.67978028 533.35498631 325.84375 486.23828125 C326.06401855 485.50673828 326.28428711 484.77519531 326.51123047 484.02148438 C340.78673376 435.78594416 340.80773194 381.47039035 330.32910156 332.52441406 C329.891353 330.46250382 329.48660659 328.39365392 329.0859375 326.32421875 C324.52148521 304.565519 316.7699257 282.46001977 306.96630859 262.52441406 C305.79318908 260.13531203 304.65584098 257.73102199 303.51953125 255.32421875 C291.86171149 230.97227588 276.72227119 208.45117157 258.84375 188.23828125 C258.09738281 187.39265625 257.35101562 186.54703125 256.58203125 185.67578125 C254.35392454 183.1796617 252.10180313 180.70733278 249.84375 178.23828125 C248.86182843 177.1511778 247.88006673 176.06392993 246.8984375 174.9765625 C242.08484128 169.67076147 237.31003171 164.48711119 231.80078125 159.88671875 C229.59902096 158.03214222 227.51308433 156.07493876 225.40625 154.11328125 C151.83056369 87.95132822 46.24400526 62.5954032 -192.15625 153.23828125 Z " fill="#000000" transform="translate(384.15625,-0.23828125)"/>
<path d="M0 0 C29.37 0 58.74 0 89 0 C89.02505615 8.51530518 89.0501123 17.03061035 89.07592773 25.80395508 C89.15683191 53.06793829 89.24248508 80.33190473 89.33111694 107.59586387 C89.34488607 111.83270795 89.35861323 116.06955218 89.37231445 120.30639648 C89.37504276 121.14985505 89.37777106 121.99331362 89.38058204 122.86233153 C89.42462429 136.50896351 89.46526922 150.15560358 89.50465261 163.80224971 C89.54515709 177.81107893 89.58932645 191.81989316 89.63687855 205.82870024 C89.66609185 214.46877018 89.6924666 223.10883912 89.71517897 231.74892863 C89.73104029 237.67847723 89.75047021 243.60800753 89.77266841 249.53753576 C89.78536003 252.95552217 89.79651462 256.37349477 89.80341911 259.79149818 C89.81174564 263.50550508 89.8260401 267.21944408 89.84178162 270.9334259 C89.84275972 272.00252302 89.84373783 273.07162013 89.84474558 274.17311412 C89.90629111 285.50204353 91.12605228 296.03498326 94 307 C94.26554687 308.04027344 94.53109375 309.08054687 94.8046875 310.15234375 C100.54294867 330.69328749 112.04357008 349.32672576 130.75 360.25 C156.56976394 374.61688439 188.27646886 375.65618015 216.375 367.875 C237.17362677 361.66248432 254.47012169 349.67455458 265.28735352 330.47241211 C275.68124523 311.10794083 280.13813201 290.30277179 280.15821838 268.40808105 C280.16562535 266.68273597 280.16562535 266.68273597 280.17318195 264.92253542 C280.18850962 261.07791565 280.19690476 257.23331252 280.20532227 253.38867188 C280.21436309 250.62890256 280.22487204 247.86913929 280.23532104 245.109375 C280.25703195 239.17269072 280.275196 233.23600417 280.29092598 227.29930115 C280.31367383 218.715909 280.34180974 210.13254111 280.37124526 201.5491696 C280.41886105 187.62198317 280.46214145 173.6947868 280.50268555 159.76757812 C280.54207112 146.24152859 280.58350465 132.71548788 280.62768555 119.18945312 C280.63177196 117.93806766 280.63177196 117.93806766 280.63594092 116.66140169 C280.6496209 112.4760267 280.66334107 108.29065185 280.67708123 104.10527706 C280.7909515 69.40353537 280.89698117 34.70177593 281 0 C310.37 0 339.74 0 370 0 C370.06625895 36.58683353 370.12160409 73.17361001 370.15319599 109.76048646 C370.15694766 114.08959199 370.16083067 118.4186974 370.16479492 122.74780273 C370.16558185 123.6095725 370.16636878 124.47134226 370.16717956 125.35922626 C370.18019837 139.2739573 370.20383257 153.18865077 370.23145839 167.1033596 C370.25961108 181.40376559 370.276197 195.70415205 370.28226548 210.00458461 C370.28636158 218.81358006 370.29925161 227.62246932 370.3237494 236.43143205 C370.33972868 242.48953641 370.34437311 248.54758667 370.34050413 254.60571053 C370.33860132 258.08981816 370.34131042 261.57374153 370.35761642 265.05781555 C370.41682198 279.91432446 369.95702271 294.2639806 367.36565173 308.91426718 C367.01214662 310.93071384 366.69396937 312.94949831 366.38780499 314.97361279 C361.51375642 346.114633 344.94460657 374.86437911 323 397 C322.15050781 397.86238281 321.30101562 398.72476562 320.42578125 399.61328125 C300.69840936 418.55518351 275.03200341 429.75366455 249 437 C247.84628906 437.32742188 246.69257813 437.65484375 245.50390625 437.9921875 C188.97675301 453.13548348 121.24837509 448.40660672 70.04296875 419.3203125 C35.88251398 398.41391412 14.91502479 365.83763703 5.25 327.44140625 C1.33504684 310.96402481 -0.16544724 294.34639685 -0.12025452 277.4271698 C-0.12110894 276.23183209 -0.12196337 275.03649439 -0.12284368 273.80493432 C-0.12419393 270.52783436 -0.12111504 267.25077507 -0.11606562 263.9736799 C-0.11171141 260.42445472 -0.11321104 256.87523113 -0.1139679 253.32600403 C-0.11449 247.19022876 -0.11137606 241.05446421 -0.10573006 234.91869164 C-0.09757243 226.04760294 -0.09499548 217.17651938 -0.09374207 208.30542735 C-0.09155822 193.90958861 -0.08491629 179.51375557 -0.07543945 165.11791992 C-0.06624803 151.14103219 -0.05917567 137.16414601 -0.05493164 123.18725586 C-0.05466892 122.32444255 -0.05440619 121.46162923 -0.05413551 120.57267006 C-0.05283039 116.24380766 -0.0515667 111.91494524 -0.05032361 107.58608282 C-0.03997179 71.72405015 -0.02154473 35.86202803 0 0 Z " fill="#000000" transform="translate(217,202)"/>
<path d="M0 0 C3.88441541 1.449462 7.38713862 3.25835927 10.98828125 5.30859375 C12.16852278 5.97505113 13.34912071 6.64087766 14.5300293 7.30615234 C15.14615082 7.65393738 15.76227234 8.00172241 16.39706421 8.36004639 C42.01187571 22.76865843 68.77616649 34.65867399 97 43 C97.77802979 43.23114502 98.55605957 43.46229004 99.35766602 43.70043945 C104.54816596 45.22102458 109.76836487 46.62836723 115 48 C115.78890625 48.2077002 116.5778125 48.41540039 117.390625 48.62939453 C129.76264501 51.81967953 142.24210053 53.92823238 154.875 55.75 C155.60645233 55.85691162 156.33790466 55.96382324 157.09152222 56.07397461 C174.96006398 58.66070271 192.66136657 59.18656923 210.69750977 59.18530273 C214.16370005 59.18748502 217.62956895 59.2056956 221.09570312 59.22460938 C241.19686166 59.27737961 260.72996051 57.47824775 280.5625 54.3125 C281.37062134 54.18472168 282.17874268 54.05694336 283.01135254 53.92529297 C304.46481574 50.50147694 325.62218814 45.6230436 346 38 C347.52995605 37.42789795 347.52995605 37.42789795 349.09082031 36.84423828 C374.90577059 27.10127248 400.45226287 16.36120134 423.66723633 1.265625 C424.43704834 0.84796875 425.20686035 0.4303125 426 0 C426.66 0.33 427.32 0.66 428 1 C380.06071589 31.32202069 327.01368557 50.39215861 271 59 C269.95569824 59.16661133 268.91139648 59.33322266 267.83544922 59.50488281 C210.68402399 68.23070497 150.02686717 61.89520273 95 45 C93.65035156 44.58862793 93.65035156 44.58862793 92.2734375 44.16894531 C64.78571211 35.68545484 38.19845638 23.66886536 13.1875 9.5 C12.31585205 9.00773926 11.4442041 8.51547852 10.54614258 8.00830078 C6.54936656 5.69187383 3.05155223 3.54481684 0 0 Z " fill="#E7E7E7" transform="translate(186,738)"/>
<path d="M0 0 C1.69311813 -0.01469078 1.69311813 -0.01469078 3.42044067 -0.02967834 C48.85521825 -0.34241098 91.21040264 3.84129379 134.84375 17.23828125 C135.74351562 17.5125293 136.64328125 17.78677734 137.5703125 18.06933594 C165.05803789 26.55282641 191.64529362 38.56941589 216.65625 52.73828125 C217.52789795 53.23054199 218.3995459 53.72280273 219.29760742 54.22998047 C223.29438344 56.54640742 226.79219777 58.69346441 229.84375 62.23828125 C226.44447751 60.94063054 223.28430849 59.466926 220.10546875 57.69921875 C219.21158447 57.20534668 218.3177002 56.71147461 217.39672852 56.20263672 C215.97831665 55.41590576 215.97831665 55.41590576 214.53125 54.61328125 C184.19854309 37.96634677 153.03707586 24.8965855 119.56542969 15.96826172 C117.24933876 15.34706403 114.93992217 14.70823539 112.6328125 14.0546875 C98.45866314 10.10375866 84.12221967 7.39787087 69.53125 5.55078125 C68.59031494 5.4314624 67.64937988 5.31214355 66.67993164 5.18920898 C51.36960991 3.35895789 36.15977463 3.05187434 20.75878906 3.05297852 C17.37812482 3.05080337 13.99779389 3.03261705 10.6171875 3.01367188 C-7.59346422 2.96643681 -25.62165822 4.08146535 -43.65625 6.67578125 C-44.55875488 6.80283447 -45.46125977 6.9298877 -46.39111328 7.06079102 C-58.77835889 8.85104031 -70.91077838 11.54476266 -83.02001953 14.68798828 C-85.22800442 15.25676519 -87.43977466 15.80872276 -89.65234375 16.359375 C-110.96752676 21.72568565 -131.07956492 29.3153101 -151.15625 38.23828125 C-152.5489209 38.85509766 -152.5489209 38.85509766 -153.96972656 39.484375 C-165.95889283 44.84806508 -177.29487936 51.02671107 -188.51611328 57.85668945 C-189.96800049 58.73200317 -189.96800049 58.73200317 -191.44921875 59.625 C-192.74122192 60.41716919 -192.74122192 60.41716919 -194.05932617 61.2253418 C-194.75131104 61.55961182 -195.4432959 61.89388184 -196.15625 62.23828125 C-196.81625 61.90828125 -197.47625 61.57828125 -198.15625 61.23828125 C-176.6623376 46.85259185 -153.21926229 35.59367005 -129.15625 26.23828125 C-128.35670898 25.91956055 -127.55716797 25.60083984 -126.73339844 25.27246094 C-87.06794394 9.48362594 -42.74934973 0.30890928 0 0 Z " fill="#E6E6E6" transform="translate(384.15625,-0.23828125)"/>
<path d="M0 0 C2.06508889 0.05332922 4.13019311 0.1060685 6.1953125 0.15820312 C11.21374425 0.28616558 16.23190094 0.42211801 21.25 0.5625 C21.25 0.8925 21.25 1.2225 21.25 1.5625 C20.12843506 1.58231934 19.00687012 1.60213867 17.85131836 1.62255859 C-12.50852912 2.06883699 -12.50852912 2.06883699 -42.75 4.5625 C-43.68279785 4.67352051 -44.6155957 4.78454102 -45.57666016 4.89892578 C-61.85913682 6.88406087 -77.73361426 9.89015592 -93.61376953 14.01220703 C-95.82175442 14.58098394 -98.03352466 15.13294151 -100.24609375 15.68359375 C-121.56127676 21.0499044 -141.67331492 28.63952885 -161.75 37.5625 C-163.1426709 38.17931641 -163.1426709 38.17931641 -164.56347656 38.80859375 C-176.55264283 44.17228383 -187.88862936 50.35092982 -199.10986328 57.1809082 C-200.56175049 58.05622192 -200.56175049 58.05622192 -202.04296875 58.94921875 C-203.33497192 59.74138794 -203.33497192 59.74138794 -204.65307617 60.54956055 C-205.34506104 60.88383057 -206.0370459 61.21810059 -206.75 61.5625 C-207.41 61.2325 -208.07 60.9025 -208.75 60.5625 C-187.2560876 46.1768106 -163.81301229 34.9178888 -139.75 25.5625 C-138.95045898 25.2437793 -138.15091797 24.92505859 -137.32714844 24.59667969 C-104.5128113 11.53493209 -69.74716669 4.45136505 -34.75 0.5625 C-33.84604492 0.44994873 -32.94208984 0.33739746 -32.01074219 0.22143555 C-21.37957639 -0.92144347 -10.66538041 -0.30006 0 0 Z " fill="#ECECEC" transform="translate(394.75,0.4375)"/>
<path d="M0 0 C3.88441541 1.449462 7.38713862 3.25835927 10.98828125 5.30859375 C12.16852278 5.97505113 13.34912071 6.64087766 14.5300293 7.30615234 C15.14615082 7.65393738 15.76227234 8.00172241 16.39706421 8.36004639 C42.01187571 22.76865843 68.77616649 34.65867399 97 43 C97.77802979 43.23114502 98.55605957 43.46229004 99.35766602 43.70043945 C104.54816596 45.22102458 109.76836487 46.62836723 115 48 C115.78890625 48.2077002 116.5778125 48.41540039 117.390625 48.62939453 C135.3381641 53.25739907 153.65533986 55.5681205 172 58 C170 60 170 60 167.42016602 60.05126953 C159.51837722 59.33308805 151.74378623 58.29463156 143.9375 56.875 C142.73359619 56.65618164 141.52969238 56.43736328 140.28930664 56.21191406 C95.54501968 47.82871887 52.79410153 31.93739088 13.1875 9.5 C12.31585205 9.00773926 11.4442041 8.51547852 10.54614258 8.00830078 C6.54936656 5.69187383 3.05155223 3.54481684 0 0 Z " fill="#EDEDED" transform="translate(186,738)"/>
<path d="M0 0 C-3.09221185 2.06147457 -4.64778083 2.44786758 -8.2421875 3 C-9.31082031 3.165 -10.37945312 3.33 -11.48046875 3.5 C-12.60066406 3.665 -13.72085938 3.83 -14.875 4 C-15.92558594 4.165 -16.97617187 4.33 -18.05859375 4.5 C-21.69998728 5.05029324 -25.3458262 5.54403151 -29 6 C-29.73314423 6.09180542 -30.46628845 6.18361084 -31.22164917 6.27819824 C-45.69002754 8.02228623 -60.06862016 8.31124903 -74.63110352 8.26074219 C-78.32519747 8.24996295 -82.01881074 8.26073551 -85.71289062 8.2734375 C-97.95869446 8.27959535 -109.9056736 8.05214389 -122 6 C-122 5.67 -122 5.34 -122 5 C-120.73570915 5.00666183 -120.73570915 5.00666183 -119.44587708 5.01345825 C-111.4027008 5.05395998 -103.35956001 5.0841963 -95.31630421 5.10362434 C-91.18372469 5.11394902 -87.0512312 5.12789395 -82.91870117 5.15087891 C-56.39604906 5.34782587 -56.39604906 5.34782587 -30 3 C-28.9997731 2.86156677 -28.9997731 2.86156677 -27.9793396 2.72033691 C-22.82574158 1.98770766 -17.69879201 1.11370646 -12.56835938 0.23632812 C-11.50294922 0.06166016 -10.43753906 -0.11300781 -9.33984375 -0.29296875 C-8.40519287 -0.4530542 -7.47054199 -0.61313965 -6.50756836 -0.77807617 C-4.03172398 -0.99719238 -2.34540177 -0.76599275 0 0 Z " fill="#E0E0E0" transform="translate(478,792)"/>
<path d="M0 0 C39.91820701 -0.64528313 82.68055185 -1.31336049 121 12 C120.67 12.66 120.34 13.32 120 14 C119.12601562 13.80365967 118.25203125 13.60731934 117.3515625 13.4050293 C99.30562498 9.38181616 81.43581631 5.73341487 63 4 C61.54110352 3.85570557 61.54110352 3.85570557 60.05273438 3.70849609 C40.0802737 1.77808445 20.04887564 1.40353652 0 1 C0 0.67 0 0.34 0 0 Z " fill="#FDFDFD" transform="translate(379,0)"/>
<path d="M0 0 C2.06508889 0.05332922 4.13019311 0.1060685 6.1953125 0.15820312 C11.21374425 0.28616558 16.23190094 0.42211801 21.25 0.5625 C21.25 0.8925 21.25 1.2225 21.25 1.5625 C20.12843506 1.58231934 19.00687012 1.60213867 17.85131836 1.62255859 C-12.50190563 2.14651784 -12.50190563 2.14651784 -42.75 4.5625 C-44.54161259 4.75441179 -46.33327986 4.94581369 -48.125 5.13671875 C-52.33590698 5.59119028 -56.54351433 6.06885499 -60.75 6.5625 C-58.33209311 3.63964671 -56.57154159 3.09115882 -52.84765625 2.6484375 C-51.87376953 2.52726563 -50.89988281 2.40609375 -49.89648438 2.28125 C-48.87876953 2.1678125 -47.86105469 2.054375 -46.8125 1.9375 C-45.82958984 1.81632813 -44.84667969 1.69515625 -43.83398438 1.5703125 C-40.80849579 1.20622493 -37.78050232 0.88187551 -34.75 0.5625 C-33.88197754 0.45591064 -33.01395508 0.34932129 -32.11962891 0.23950195 C-21.44692024 -0.90724037 -10.70699198 -0.3012307 0 0 Z " fill="#E8E8E8" transform="translate(394.75,0.4375)"/>
<path d="M0 0 C0.66 0.33 1.32 0.66 2 1 C-12.85 15.85 -27.7 30.7 -43 46 C-43 42.53214533 -42.66511622 42.2709525 -40.38671875 39.875 C-39.80736572 39.26003662 -39.2280127 38.64507324 -38.63110352 38.01147461 C-37.66901978 37.01579468 -37.66901978 37.01579468 -36.6875 36 C-36.02613037 35.30592041 -35.36476074 34.61184082 -34.68334961 33.89672852 C-29.2070596 28.18126605 -23.64549975 22.54855502 -18.0625 16.9375 C-17.28285889 16.15310547 -16.50321777 15.36871094 -15.69995117 14.56054688 C-11.44056234 10.31341985 -7.09276388 6.23381324 -2.52905273 2.31469727 C-1.66251782 1.5696405 -0.80808179 0.80808179 0 0 Z " fill="#373737" transform="translate(138,96)"/>
<path d="M0 0 C-0.33 0.66 -0.66 1.32 -1 2 C-2.35810791 1.69763428 -2.35810791 1.69763428 -3.74365234 1.38916016 C-27.67678497 -4.01044637 -27.67678497 -4.01044637 -52 -7 C-52 -7.33 -52 -7.66 -52 -8 C-38.36860209 -11.54364614 -12.23731175 -6.11865587 0 0 Z " fill="#F5F5F5" transform="translate(500,12)"/>
<path d="M0 0 C-2.99352215 2.99352215 -6.72371072 3.15534508 -10.75 3.9375 C-12.47406424 4.28332662 -14.19802176 4.62968564 -15.921875 4.9765625 C-16.77845703 5.14704102 -17.63503906 5.31751953 -18.51757812 5.49316406 C-20.77459884 5.95397986 -23.02038776 6.44618101 -25.265625 6.9609375 C-26.49796875 7.24195313 -27.7303125 7.52296875 -29 7.8125 C-30.093125 8.06644531 -31.18625 8.32039062 -32.3125 8.58203125 C-35 9 -35 9 -38 8 C-31.41441805 5.2943573 -24.84262709 3.72739851 -17.875 2.3125 C-16.28751953 1.97508789 -16.28751953 1.97508789 -14.66796875 1.63085938 C-9.66750106 0.59876786 -5.1256801 -0.11934447 0 0 Z " fill="#F2F2F2" transform="translate(336,5)"/>
<path d="M0 0 C1.41891037 0.03753891 1.41891037 0.03753891 2.8664856 0.07583618 C5.87231268 0.15766563 8.87744593 0.25439796 11.8828125 0.3515625 C13.92705547 0.40983994 15.97132648 0.46714238 18.015625 0.5234375 C23.01341614 0.66318918 28.01063862 0.81630328 33.0078125 0.9765625 C33.0078125 1.3065625 33.0078125 1.6365625 33.0078125 1.9765625 C16.8378125 2.3065625 0.6678125 2.6365625 -15.9921875 2.9765625 C-15.9921875 2.6465625 -15.9921875 2.3165625 -15.9921875 1.9765625 C-10.54399152 -0.32030286 -5.78586778 -0.20479644 0 0 Z " fill="#AAAAAA" transform="translate(382.9921875,0.0234375)"/>
<path d="M0 0 C8.4462681 2.04161327 16.80695561 4.07391272 25 7 C25 7.66 25 8.32 25 9 C21.98985292 8.36628482 18.99543069 7.69906401 16 7 C15.37883301 6.8551416 14.75766602 6.7102832 14.11767578 6.56103516 C12.07447478 6.07653427 10.03716634 5.57173096 8 5.0625 C6.9934436 4.82611816 6.9934436 4.82611816 5.96655273 4.58496094 C4.0625 4.09765625 4.0625 4.09765625 1 3 C0.67 2.01 0.34 1.02 0 0 Z " fill="#DEDEDE" transform="translate(500,12)"/>
<path d="M0 0 C2.91819239 0.61846464 5.83441022 1.24448135 8.75 1.875 C9.575 2.04902344 10.4 2.22304688 11.25 2.40234375 C12.04921875 2.57636719 12.8484375 2.75039063 13.671875 2.9296875 C14.4050293 3.08679199 15.13818359 3.24389648 15.89355469 3.40576172 C18.10428356 4.02941889 19.98236484 4.91143399 22 6 C17.20251304 7.47324403 13.4582902 6.46941329 8.75 5.25 C8.0178125 5.07984375 7.285625 4.9096875 6.53125 4.734375 C4.421875 4.203125 4.421875 4.203125 1 3 C0.67 2.01 0.34 1.02 0 0 Z " fill="#E1E1E1" transform="translate(293,784)"/>
<path d="M0 0 C-6.53819608 4.35879738 -14.48385628 4.41814033 -22 3 C-22 2.67 -22 2.34 -22 2 C-19.08483516 1.46915208 -16.16839443 0.95000945 -13.25 0.4375 C-12.425 0.28603516 -11.6 0.13457031 -10.75 -0.02148438 C-9.95078125 -0.16005859 -9.1515625 -0.29863281 -8.328125 -0.44140625 C-7.5949707 -0.57232666 -6.86181641 -0.70324707 -6.10644531 -0.83813477 C-3.83766713 -1.01247412 -2.16221421 -0.66874807 0 0 Z " fill="#D5D5D5" transform="translate(478,792)"/>
<path d="M0 0 C3.2925983 0.6411433 6.58390083 1.28870896 9.875 1.9375 C10.81214844 2.11990234 11.74929688 2.30230469 12.71484375 2.49023438 C13.61074219 2.66748047 14.50664062 2.84472656 15.4296875 3.02734375 C16.67081299 3.27085571 16.67081299 3.27085571 17.93701172 3.51928711 C20 4 20 4 22 5 C21.67 5.66 21.34 6.32 21 7 C14.07 5.35 7.14 3.7 0 2 C0 1.34 0 0.68 0 0 Z " fill="#F1F1F1" transform="translate(478,7)"/>
<path d="M0 0 C0 0.33 0 0.66 0 1 C-6.27 0.67 -12.54 0.34 -19 0 C-19 -0.33 -19 -0.66 -19 -1 C-12.20304851 -2.64774582 -6.54547997 -2.13729958 0 0 Z " fill="#DDDDDD" transform="translate(435,2)"/>
<path d="M0 0 C0.66 0.66 1.32 1.32 2 2 C-1.96 1.67 -5.92 1.34 -10 1 C-10 0.67 -10 0.34 -10 0 C-6.31938873 -0.9464429 -3.66134991 -1.08850943 0 0 Z " fill="#CFCFCF" transform="translate(458,4)"/>
</svg>
