<svg version="1.1" id="Layer_1" xmlns="http://www.w3.org/2000/svg" xmlns:xlink="http://www.w3.org/1999/xlink" x="0px" y="0px"
	 width="100%" viewBox="0 0 512 512" enable-background="new 0 0 512 512" xml:space="preserve">
<path fill="transparent" opacity="1.000000" stroke="none" 
	d="
M73.000000,513.000000 
	C49.013676,513.000000 25.027355,513.000000 1.020516,513.000000 
	C1.020516,342.444275 1.020516,171.888535 1.020516,1.000000 
	C62.020493,1.000000 123.041588,1.000000 184.370377,1.320044 
	C174.806091,4.792292 171.008759,9.912961 170.995422,20.039026 
	C170.985382,27.669224 170.946075,35.299381 170.535400,42.990921 
	C163.215881,44.395138 156.835526,46.595509 152.187439,52.497353 
	C138.292572,70.140160 124.226295,87.647835 110.268761,105.241463 
	C97.131927,121.800591 84.048264,138.401901 70.966858,154.993683 
	C70.992516,155.002716 71.005669,154.950317 70.755402,155.056519 
	C70.282578,155.445953 70.060020,155.729172 69.566635,156.228912 
	C68.199722,159.538681 66.173096,162.625961 66.153152,165.726120 
	C65.976006,193.260803 66.153992,220.797760 66.239578,248.779984 
	C66.252937,289.738770 66.253937,330.251648 66.165237,371.241974 
	C66.108543,380.095337 66.141541,388.471191 66.119812,397.322388 
	C66.043388,430.382782 66.115578,462.968384 65.925133,495.552460 
	C65.884354,502.529633 67.121368,508.606720 73.000000,513.000000 
z"/>
<path fill="transparent" opacity="1.000000" stroke="none" 
	d="
M357.000000,0.999999 
	C408.969269,1.000000 460.938507,1.000000 512.947632,1.000000 
	C512.947632,171.666672 512.947632,342.333344 512.947632,513.000000 
	C489.242615,513.000000 465.589966,513.000000 441.611115,512.694519 
	C444.358765,509.201538 448.059448,506.330811 447.344788,500.791199 
	C447.706787,465.999237 447.734558,431.475800 447.824402,396.490845 
	C447.833740,387.988983 447.780975,379.948730 447.825989,371.455139 
	C447.898254,330.032196 447.872742,289.062592 447.902802,247.620819 
	C447.972321,219.780075 448.000519,192.411484 447.958374,165.042969 
	C447.956238,163.668655 447.344727,162.295273 447.015564,160.530029 
	C446.371368,158.093750 445.728546,156.048920 445.025482,153.647751 
	C436.091644,139.098282 427.202850,124.914635 418.348267,110.709671 
	C406.534668,91.757744 394.839691,72.730827 382.877533,53.873295 
	C380.237030,49.710663 378.333038,44.625271 372.624756,43.067173 
	C371.778900,42.836292 371.100342,40.434944 371.072723,39.023499 
	C370.922729,31.361319 371.048096,23.694279 370.985016,16.029684 
	C370.941986,10.804994 368.439758,6.963684 363.915588,4.463178 
	C361.661072,3.217117 359.308319,2.148742 357.000000,0.999999 
z"/>
<path fill="#D1E7F8" opacity="1.000000" stroke="none" 
	d="
M73.468658,513.000000 
	C67.121368,508.606720 65.884354,502.529633 65.925133,495.552460 
	C66.115578,462.968384 66.043388,430.382782 66.569633,397.360199 
	C142.728653,396.934814 218.383133,396.946960 294.057739,396.955872 
	C294.077850,396.952606 294.112915,396.931183 294.071899,397.404663 
	C294.055939,432.217865 294.081024,466.557587 294.203857,501.254089 
	C296.534393,505.407227 298.767181,509.203613 301.000000,513.000000 
	C225.312439,513.000000 149.624878,513.000000 73.468658,513.000000 
z"/>
<path fill="#96C8EF" opacity="1.000000" stroke="none" 
	d="
M301.468658,513.000000 
	C298.767181,509.203613 296.534393,505.407227 294.482422,500.963470 
	C294.775482,498.834351 294.985046,497.352631 294.985718,495.870850 
	C295.000641,462.908722 294.992462,429.946625 295.457977,396.974365 
	C346.298767,396.965179 396.670288,396.966156 447.029419,397.438995 
	C447.014893,432.293854 447.012756,466.676788 447.010620,501.059753 
	C448.059448,506.330811 444.358765,509.201538 441.142456,512.694519 
	C394.645782,513.000000 348.291534,513.000000 301.468658,513.000000 
z"/>
<path fill="#5BAAE7" opacity="1.000000" stroke="none" 
	d="
M356.531342,0.999999 
	C359.308319,2.148742 361.661072,3.217117 363.915588,4.463178 
	C368.439758,6.963684 370.941986,10.804994 370.985016,16.029684 
	C371.048096,23.694279 370.922729,31.361319 371.072723,39.023499 
	C371.100342,40.434944 371.778900,42.836292 372.624756,43.067173 
	C378.333038,44.625271 380.237030,49.710663 382.877533,53.873295 
	C394.839691,72.730827 406.534668,91.757744 418.348267,110.709671 
	C427.202850,124.914635 436.091644,139.098282 444.549194,153.633453 
	C419.718475,153.889023 395.303802,153.802582 370.923737,153.276215 
	C370.972076,118.075905 370.967926,83.315506 371.033142,48.555237 
	C371.038422,45.737896 370.897949,43.444279 366.680725,43.986080 
	C303.164734,43.973190 240.127350,43.976994 177.090027,43.917942 
	C175.032974,43.916016 172.976532,43.273476 170.919800,42.929558 
	C170.946075,35.299381 170.985382,27.669224 170.995422,20.039026 
	C171.008759,9.912961 174.806091,4.792292 184.839035,1.320044 
	C242.020889,1.000000 299.041779,1.000000 356.531342,0.999999 
z"/>
<path fill="#96C8EF" opacity="1.000000" stroke="none" 
	d="
M370.889130,153.716141 
	C395.303802,153.802582 419.718475,153.889023 444.609436,153.989777 
	C445.728546,156.048920 446.371368,158.093750 447.009460,161.005707 
	C446.976135,190.509827 446.947479,219.146820 446.906921,247.890656 
	C446.894989,247.997513 446.999512,248.185425 446.534973,248.122192 
	C429.619446,248.048172 413.168457,248.045624 396.717468,248.024918 
	C362.820709,247.982254 328.923950,247.929871 295.017761,247.421417 
	C295.005554,220.223557 295.021759,193.485703 294.959778,166.748047 
	C294.955383,164.852020 294.376160,162.957321 294.077576,160.677933 
	C294.730682,158.131958 295.370422,155.970047 296.235504,153.046707 
	C293.516449,153.046707 291.566925,153.046707 289.617432,153.046707 
	C225.965240,153.046707 162.312836,152.968918 98.661057,153.133011 
	C89.419579,153.156845 80.181076,154.338669 70.941200,154.984650 
	C84.048264,138.401901 97.131927,121.800591 110.268761,105.241463 
	C124.226295,87.647835 138.292572,70.140160 152.187439,52.497353 
	C156.835526,46.595509 163.215881,44.395138 170.535400,42.990921 
	C172.976532,43.273476 175.032974,43.916016 177.090027,43.917942 
	C240.127350,43.976994 303.164734,43.973190 366.491638,44.278366 
	C365.229004,46.288757 363.388214,47.816711 362.168243,49.738708 
	C345.414673,76.132881 328.731354,102.571732 312.066895,129.022339 
	C307.057770,136.973053 302.159454,144.993576 296.755646,153.716141 
	C322.060486,153.716141 346.474792,153.716141 370.889130,153.716141 
M140.010971,131.560440 
	C146.174118,123.978073 152.444977,116.479874 158.460281,108.781990 
	C162.109131,104.112495 161.672211,99.230667 157.824371,96.449921 
	C153.989410,93.678482 149.371307,94.804146 145.810471,99.365585 
	C144.179382,101.455009 142.528885,103.529282 140.886765,105.610092 
	C135.757645,112.109428 130.262115,118.366257 125.708626,125.246536 
	C124.224693,127.488739 124.258827,131.760208 125.368217,134.343689 
	C126.142731,136.147339 130.203232,137.899643 132.299713,137.435120 
	C134.979095,136.841461 137.159012,133.993652 140.010971,131.560440 
M176.001129,86.548424 
	C177.962601,84.086815 180.197922,81.791634 181.819534,79.123474 
	C184.092041,75.384346 183.457932,71.651634 180.096436,68.827614 
	C176.800171,66.058372 173.128326,66.309563 170.244080,69.368591 
	C166.845627,72.972954 163.516632,76.764740 160.894684,80.938354 
	C159.004593,83.946999 159.054825,87.610153 161.991226,90.520737 
	C164.932709,93.436371 168.155563,93.647835 171.404831,91.250099 
	C172.957870,90.104057 174.173996,88.501472 176.001129,86.548424 
z"/>
<path fill="#D1E7F8" opacity="1.000000" stroke="none" 
	d="
M70.966858,154.993683 
	C80.181076,154.338669 89.419579,153.156845 98.661057,153.133011 
	C162.312836,152.968918 225.965240,153.046707 289.617432,153.046707 
	C291.566925,153.046707 293.516449,153.046707 296.235504,153.046707 
	C295.370422,155.970047 294.730682,158.131958 294.053986,161.139236 
	C294.005981,190.643112 293.994934,219.301590 293.995178,248.021332 
	C294.006470,248.082596 294.105103,248.158691 293.630890,248.127258 
	C219.007736,248.090256 144.858780,248.083160 70.709839,248.089706 
	C69.215622,248.089844 67.721428,248.249054 66.227219,248.334045 
	C66.153992,220.797760 65.976006,193.260803 66.153152,165.726120 
	C66.173096,162.625961 68.199722,159.538681 69.834869,156.140457 
	C70.584526,155.540436 70.795097,155.245377 71.005669,154.950317 
	C71.005669,154.950317 70.992516,155.002716 70.966858,154.993683 
z"/>
<path fill="#026EF0" opacity="1.000000" stroke="none" 
	d="
M66.239578,248.779984 
	C67.721428,248.249054 69.215622,248.089844 70.709839,248.089706 
	C144.858780,248.083160 219.007736,248.090256 293.629059,248.585358 
	C294.069031,289.802002 294.036652,330.529114 293.535706,371.256744 
	C219.777542,371.250702 146.487900,371.248474 73.198280,371.217804 
	C70.883766,371.216827 68.569382,370.922241 66.254936,370.764526 
	C66.253937,330.251648 66.252937,289.738770 66.239578,248.779984 
M137.211685,343.835052 
	C143.839767,344.883911 147.891632,342.619202 147.953125,336.998993 
	C148.168152,317.345154 148.222626,297.683624 147.801666,278.036469 
	C147.750488,275.647827 144.903244,272.419495 142.521790,271.196289 
	C139.150116,269.464478 135.631943,271.086761 133.546951,274.475677 
	C130.235001,279.858917 127.094002,285.347107 123.856117,290.776215 
	C122.630829,292.830688 121.337364,294.844513 119.797981,297.322815 
	C114.963226,289.509094 110.529015,282.472443 106.235626,275.350922 
	C103.980125,271.609711 100.873062,269.816315 96.625992,271.016632 
	C92.530472,272.174133 91.009933,275.384552 91.010132,279.446899 
	C91.011032,298.104401 90.959030,316.762115 91.041336,335.419250 
	C91.066132,341.040894 94.242714,344.457397 98.930878,344.422729 
	C103.562523,344.388489 106.660538,340.997040 106.772514,335.307251 
	C106.929817,327.314240 106.801079,319.315826 106.834564,311.319885 
	C106.839439,310.154236 107.065178,308.989502 107.276199,306.999237 
	C109.192406,310.072174 110.587662,312.323242 111.996140,314.566010 
	C117.148781,322.770721 123.213394,322.623810 128.255600,314.187683 
	C129.289734,312.457520 130.383148,310.762817 131.449234,309.051758 
	C132.393784,317.607666 132.371933,325.742035 132.403534,333.876221 
	C132.418076,337.617035 132.739853,341.269958 137.211685,343.835052 
M241.269287,277.537384 
	C239.692062,272.247742 236.980667,270.090851 232.494431,270.822876 
	C227.717514,271.602295 225.908936,274.846313 225.894653,279.367706 
	C225.874146,285.861115 225.883423,292.354584 225.883911,298.848022 
	C225.884857,311.168915 225.824097,323.490295 225.921982,335.810425 
	C225.962769,340.944672 228.758911,344.058594 233.119522,344.335480 
	C237.778809,344.631317 240.974579,341.720551 241.425079,336.384430 
	C241.704330,333.076660 241.722916,329.718658 241.512863,326.405090 
	C241.264938,322.493713 242.224380,319.292450 245.874863,316.770172 
	C250.552277,324.140991 255.142410,331.438416 259.800110,338.692444 
	C263.151459,343.911896 267.920410,345.658081 271.881287,343.229462 
	C275.959473,340.728912 276.479095,335.892792 273.128082,330.516815 
	C268.025482,322.330719 262.958313,314.118744 257.647461,306.068573 
	C256.093964,303.713837 256.126465,302.196167 257.899261,300.000000 
	C262.391388,294.435089 266.750519,288.745514 270.848877,282.886230 
	C273.463470,279.148254 272.563416,274.591614 269.313751,272.173584 
	C266.050385,269.745331 261.579926,270.249817 258.547302,273.581818 
	C256.872498,275.421967 255.460983,277.502228 253.936707,279.478760 
	C250.159836,284.376221 246.386337,289.276337 242.611496,294.175385 
	C242.222565,294.014526 241.833618,293.853699 241.444687,293.692841 
	C241.444687,288.582886 241.444687,283.472900 241.269287,277.537384 
M195.984009,277.149139 
	C194.908859,272.574921 192.052826,270.331635 187.342789,270.807404 
	C183.043671,271.241730 180.586182,274.236450 180.550995,279.742218 
	C180.432846,298.221466 180.416748,316.702515 180.552444,335.181488 
	C180.599442,341.580902 183.388046,344.389160 189.681320,344.579559 
	C197.000076,344.800934 204.333664,344.769775 211.654877,344.596863 
	C217.361099,344.462128 220.818970,341.365967 220.893311,336.833893 
	C220.971863,332.045441 217.383286,329.032959 211.374374,328.960236 
	C206.435745,328.900482 201.495804,328.948059 196.073837,328.948059 
	C196.073837,311.588837 196.073837,294.812164 195.984009,277.149139 
M156.875443,318.499817 
	C156.876221,323.997192 156.827438,329.495178 156.891068,334.991821 
	C156.960953,341.030853 159.911041,344.511292 164.770111,344.449127 
	C169.392853,344.390015 172.481720,341.048676 172.520279,335.275360 
	C172.643814,316.785004 172.567596,298.293274 172.563019,279.802094 
	C172.562897,279.303894 172.528992,278.801910 172.462860,278.308105 
	C171.799606,273.356476 168.680206,270.420410 164.310410,270.622253 
	C159.956726,270.823303 156.964539,273.997162 156.921021,279.018555 
	C156.809845,291.844879 156.878586,304.672699 156.875443,318.499817 
z"/>
<path fill="#96C8EF" opacity="1.000000" stroke="none" 
	d="
M66.165237,371.242004 
	C68.569382,370.922241 70.883766,371.216827 73.198280,371.217804 
	C146.487900,371.248474 219.777542,371.250702 293.559326,371.380005 
	C294.051453,371.502808 294.131531,371.744263 294.100677,372.227966 
	C294.059082,380.794159 294.048340,388.876648 294.037598,396.959106 
	C218.383133,396.946960 142.728653,396.934814 66.624359,396.884888 
	C66.141541,388.471191 66.108543,380.095337 66.165237,371.242004 
z"/>
<path fill="#96C8EF" opacity="1.000000" stroke="none" 
	d="
M70.755402,155.056519 
	C70.795097,155.245377 70.584526,155.540436 70.105705,155.923935 
	C70.060020,155.729172 70.282578,155.445953 70.755402,155.056519 
z"/>
<path fill="#5AA9E8" opacity="1.000000" stroke="none" 
	d="
M294.057709,396.955872 
	C294.048340,388.876648 294.059082,380.794159 294.559875,372.246582 
	C345.327057,371.787262 395.604156,371.793091 446.184784,371.861755 
	C446.901611,371.919189 447.314941,371.913818 447.728241,371.908447 
	C447.780975,379.948730 447.833740,387.988983 447.644440,396.494781 
	C447.402374,396.960297 447.041779,396.967102 447.041779,396.967102 
	C396.670288,396.966156 346.298767,396.965179 295.238953,396.963623 
	C294.550598,396.962982 294.112915,396.931183 294.112915,396.931183 
	C294.112915,396.931183 294.077850,396.952606 294.057709,396.955872 
z"/>
<path fill="#2B79CE" opacity="1.000000" stroke="none" 
	d="
M447.825989,371.455109 
	C447.314941,371.913818 446.901611,371.919189 446.417114,371.526733 
	C446.564667,369.180359 446.972534,367.232025 446.974365,365.283295 
	C447.010803,326.250702 447.000397,287.218048 446.999512,248.185425 
	C446.999512,248.185425 446.894989,247.997513 447.134216,247.982941 
	C447.373413,247.968353 447.847260,248.092972 447.847260,248.092972 
	C447.872742,289.062592 447.898254,330.032196 447.825989,371.455109 
z"/>
<path fill="#75B7EB" opacity="1.000000" stroke="none" 
	d="
M447.029419,397.438995 
	C447.041779,396.967102 447.402374,396.960297 447.582336,396.956360 
	C447.734558,431.475800 447.706787,465.999237 447.344788,500.791199 
	C447.012756,466.676788 447.014893,432.293854 447.029419,397.438995 
z"/>
<path fill="#7DBBEC" opacity="1.000000" stroke="none" 
	d="
M447.902802,247.620819 
	C447.847260,248.092972 447.373413,247.968353 447.146118,247.876083 
	C446.947479,219.146820 446.976135,190.509827 447.010864,161.397156 
	C447.344727,162.295273 447.956238,163.668655 447.958374,165.042969 
	C448.000519,192.411484 447.972321,219.780075 447.902802,247.620819 
z"/>
<path fill="#7FBCEC" opacity="1.000000" stroke="none" 
	d="
M294.071899,397.404663 
	C294.112915,396.931183 294.550598,396.962982 294.769653,396.973755 
	C294.992462,429.946625 295.000641,462.908722 294.985718,495.870850 
	C294.985046,497.352631 294.775482,498.834351 294.384644,500.606689 
	C294.081024,466.557587 294.055939,432.217865 294.071899,397.404663 
z"/>
<path fill="#3D9AE2" opacity="1.000000" stroke="none" 
	d="
M370.923737,153.276215 
	C346.474792,153.716141 322.060486,153.716141 296.755646,153.716141 
	C302.159454,144.993576 307.057770,136.973053 312.066895,129.022339 
	C328.731354,102.571732 345.414673,76.132881 362.168243,49.738708 
	C363.388214,47.816711 365.229004,46.288757 366.970245,44.285316 
	C370.897949,43.444279 371.038422,45.737896 371.033142,48.555237 
	C370.967926,83.315506 370.972076,118.075905 370.923737,153.276215 
z"/>
<path fill="#00479C" opacity="1.000000" stroke="none" 
	d="
M446.534973,248.122192 
	C447.000397,287.218048 447.010803,326.250702 446.974365,365.283295 
	C446.972534,367.232025 446.564667,369.180359 446.113586,371.463898 
	C395.604156,371.793091 345.327057,371.787262 294.590759,371.762848 
	C294.131531,371.744263 294.051453,371.502808 294.027832,371.379517 
	C294.036652,330.529114 294.069031,289.802002 294.103271,248.616776 
	C294.105103,248.158691 294.006470,248.082596 294.259644,248.050568 
	C294.684296,247.972839 294.855743,247.927155 295.027191,247.881470 
	C328.923950,247.929871 362.820709,247.982254 396.717468,248.024918 
	C413.168457,248.045624 429.619446,248.048172 446.534973,248.122192 
z"/>
<path fill="#5BAAE7" opacity="1.000000" stroke="none" 
	d="
M139.782578,131.838882 
	C137.159012,133.993652 134.979095,136.841461 132.299713,137.435120 
	C130.203232,137.899643 126.142731,136.147339 125.368217,134.343689 
	C124.258827,131.760208 124.224693,127.488739 125.708626,125.246536 
	C130.262115,118.366257 135.757645,112.109428 140.886765,105.610092 
	C142.528885,103.529282 144.179382,101.455009 145.810471,99.365585 
	C149.371307,94.804146 153.989410,93.678482 157.824371,96.449921 
	C161.672211,99.230667 162.109131,104.112495 158.460281,108.781990 
	C152.444977,116.479874 146.174118,123.978073 139.782578,131.838882 
z"/>
<path fill="#5BABE7" opacity="1.000000" stroke="none" 
	d="
M175.771927,86.827049 
	C174.173996,88.501472 172.957870,90.104057 171.404831,91.250099 
	C168.155563,93.647835 164.932709,93.436371 161.991226,90.520737 
	C159.054825,87.610153 159.004593,83.946999 160.894684,80.938354 
	C163.516632,76.764740 166.845627,72.972954 170.244080,69.368591 
	C173.128326,66.309563 176.800171,66.058372 180.096436,68.827614 
	C183.457932,71.651634 184.092041,75.384346 181.819534,79.123474 
	C180.197922,81.791634 177.962601,84.086815 175.771927,86.827049 
z"/>
<path fill="#7FBCEC" opacity="1.000000" stroke="none" 
	d="
M295.017761,247.421417 
	C294.855743,247.927155 294.684296,247.972839 294.248352,247.989304 
	C293.994934,219.301590 294.005981,190.643112 294.040649,161.523315 
	C294.376160,162.957321 294.955383,164.852020 294.959778,166.748047 
	C295.021759,193.485703 295.005554,220.223557 295.017761,247.421417 
z"/>
<path fill="#FBFDFF" opacity="1.000000" stroke="none" 
	d="
M136.862427,343.623230 
	C132.739853,341.269958 132.418076,337.617035 132.403534,333.876221 
	C132.371933,325.742035 132.393784,317.607666 131.449234,309.051758 
	C130.383148,310.762817 129.289734,312.457520 128.255600,314.187683 
	C123.213394,322.623810 117.148781,322.770721 111.996140,314.566010 
	C110.587662,312.323242 109.192406,310.072174 107.276199,306.999237 
	C107.065178,308.989502 106.839439,310.154236 106.834564,311.319885 
	C106.801079,319.315826 106.929817,327.314240 106.772514,335.307251 
	C106.660538,340.997040 103.562523,344.388489 98.930878,344.422729 
	C94.242714,344.457397 91.066132,341.040894 91.041336,335.419250 
	C90.959030,316.762115 91.011032,298.104401 91.010132,279.446899 
	C91.009933,275.384552 92.530472,272.174133 96.625992,271.016632 
	C100.873062,269.816315 103.980125,271.609711 106.235626,275.350922 
	C110.529015,282.472443 114.963226,289.509094 119.797981,297.322815 
	C121.337364,294.844513 122.630829,292.830688 123.856117,290.776215 
	C127.094002,285.347107 130.235001,279.858917 133.546951,274.475677 
	C135.631943,271.086761 139.150116,269.464478 142.521790,271.196289 
	C144.903244,272.419495 147.750488,275.647827 147.801666,278.036469 
	C148.222626,297.683624 148.168152,317.345154 147.953125,336.998993 
	C147.891632,342.619202 143.839767,344.883911 136.862427,343.623230 
z"/>
<path fill="#FBFDFF" opacity="1.000000" stroke="none" 
	d="
M241.356995,277.950165 
	C241.444687,283.472900 241.444687,288.582886 241.444687,293.692841 
	C241.833618,293.853699 242.222565,294.014526 242.611496,294.175385 
	C246.386337,289.276337 250.159836,284.376221 253.936707,279.478760 
	C255.460983,277.502228 256.872498,275.421967 258.547302,273.581818 
	C261.579926,270.249817 266.050385,269.745331 269.313751,272.173584 
	C272.563416,274.591614 273.463470,279.148254 270.848877,282.886230 
	C266.750519,288.745514 262.391388,294.435089 257.899261,300.000000 
	C256.126465,302.196167 256.093964,303.713837 257.647461,306.068573 
	C262.958313,314.118744 268.025482,322.330719 273.128082,330.516815 
	C276.479095,335.892792 275.959473,340.728912 271.881287,343.229462 
	C267.920410,345.658081 263.151459,343.911896 259.800110,338.692444 
	C255.142410,331.438416 250.552277,324.140991 245.874863,316.770172 
	C242.224380,319.292450 241.264938,322.493713 241.512863,326.405090 
	C241.722916,329.718658 241.704330,333.076660 241.425079,336.384430 
	C240.974579,341.720551 237.778809,344.631317 233.119522,344.335480 
	C228.758911,344.058594 225.962769,340.944672 225.921982,335.810425 
	C225.824097,323.490295 225.884857,311.168915 225.883911,298.848022 
	C225.883423,292.354584 225.874146,285.861115 225.894653,279.367706 
	C225.908936,274.846313 227.717514,271.602295 232.494431,270.822876 
	C236.980667,270.090851 239.692062,272.247742 241.356995,277.950165 
z"/>
<path fill="#FCFDFF" opacity="1.000000" stroke="none" 
	d="
M196.028931,277.592346 
	C196.073837,294.812164 196.073837,311.588837 196.073837,328.948059 
	C201.495804,328.948059 206.435745,328.900482 211.374374,328.960236 
	C217.383286,329.032959 220.971863,332.045441 220.893311,336.833893 
	C220.818970,341.365967 217.361099,344.462128 211.654877,344.596863 
	C204.333664,344.769775 197.000076,344.800934 189.681320,344.579559 
	C183.388046,344.389160 180.599442,341.580902 180.552444,335.181488 
	C180.416748,316.702515 180.432846,298.221466 180.550995,279.742218 
	C180.586182,274.236450 183.043671,271.241730 187.342789,270.807404 
	C192.052826,270.331635 194.908859,272.574921 196.028931,277.592346 
z"/>
<path fill="#F8FBFF" opacity="1.000000" stroke="none" 
	d="
M156.875412,317.999878 
	C156.878586,304.672699 156.809845,291.844879 156.921021,279.018555 
	C156.964539,273.997162 159.956726,270.823303 164.310410,270.622253 
	C168.680206,270.420410 171.799606,273.356476 172.462860,278.308105 
	C172.528992,278.801910 172.562897,279.303894 172.563019,279.802094 
	C172.567596,298.293274 172.643814,316.785004 172.520279,335.275360 
	C172.481720,341.048676 169.392853,344.390015 164.770111,344.449127 
	C159.911041,344.511292 156.960953,341.030853 156.891068,334.991821 
	C156.827438,329.495178 156.876221,323.997192 156.875412,317.999878 
z"/>
</svg>