<svg version="1.1" id="Layer_1" xmlns="http://www.w3.org/2000/svg" xmlns:xlink="http://www.w3.org/1999/xlink" x="0px" y="0px"
	 width="100%" viewBox="0 0 512 512" enable-background="new 0 0 512 512" xml:space="preserve">
<path fill="#343333" opacity="1.000000" stroke="none" 
	d="
M289.000000,513.000000 
	C267.979095,513.000000 246.958206,513.000000 225.383850,512.622559 
	C224.145294,511.854218 223.503555,511.258606 222.768616,511.102875 
	C210.299545,508.460480 197.632996,506.543732 185.375275,503.148346 
	C146.933029,492.499786 113.171455,473.084473 83.850494,446.204681 
	C58.231850,422.718994 38.083023,395.123169 23.610832,363.371460 
	C13.271196,340.686523 6.375921,317.107330 2.934177,292.456421 
	C2.764063,291.238007 1.665980,290.149170 1.000000,289.000000 
	C1.000000,267.979095 1.000000,246.958206 1.377842,225.383331 
	C2.588229,220.357224 3.343611,215.869156 4.265910,211.415634 
	C10.019086,183.635239 18.728094,156.963455 32.847324,132.146393 
	C42.580681,115.038284 53.766315,98.998436 67.068558,84.585167 
	C90.857185,58.809669 118.444382,38.148884 150.588394,23.608526 
	C173.316513,13.327456 196.893997,6.427571 221.541916,2.935425 
	C222.761536,2.762627 223.850296,1.666299 225.000000,1.000001 
	C246.020889,1.000000 267.041779,1.000000 288.616150,1.377452 
	C290.187500,2.166658 291.171875,2.780334 292.229034,2.955858 
	C297.297699,3.797444 302.441650,4.259543 307.458069,5.329244 
	C334.082794,11.006710 359.467438,19.990398 383.187073,33.564079 
	C399.818481,43.081497 415.373016,54.098408 429.408203,67.059395 
	C455.178528,90.857430 475.820007,118.446793 490.392944,150.574203 
	C500.703278,173.304199 507.526062,196.903214 511.065063,221.541565 
	C511.240326,222.761841 512.333984,223.850204 513.000000,225.000000 
	C513.000000,246.020889 513.000000,267.041779 512.623413,288.618988 
	C511.091431,295.275482 510.072388,301.405212 508.758423,307.471069 
	C500.930573,343.607300 486.808624,376.969330 465.049438,407.020142 
	C449.630524,428.314545 431.656342,447.291077 410.396973,462.537262 
	C395.653564,473.110504 379.424255,481.790649 363.260162,490.160339 
	C341.104645,501.632385 317.052124,507.440887 292.453033,511.063995 
	C291.233429,511.243622 290.147949,512.333801 289.000000,513.000000 
M393.925049,456.456787 
	C413.108368,443.215881 430.322266,427.738525 444.747040,409.460327 
	C490.327362,351.703827 507.599731,286.416260 494.987854,213.774551 
	C486.300537,163.737579 463.294708,120.773407 427.207886,85.229950 
	C385.262665,43.916382 334.728455,20.612209 275.828064,15.780384 
	C244.058594,13.174216 213.064697,16.841499 182.812836,26.674229 
	C135.554825,42.034462 96.332870,69.250984 66.110596,108.603989 
	C21.718769,166.407440 6.091734,231.701599 19.525030,303.275665 
	C29.140839,354.509735 53.561932,398.265167 91.989334,433.593384 
	C148.281876,485.345825 214.856934,506.199677 290.598694,496.665070 
	C327.972809,491.960327 362.154297,478.046631 393.925049,456.456787 
z"/>
<path fill="transparent" opacity="1.000000" stroke="none" 
	d="
M289.468658,513.000000 
	C290.147949,512.333801 291.233429,511.243622 292.453033,511.063995 
	C317.052124,507.440887 341.104645,501.632385 363.260162,490.160339 
	C379.424255,481.790649 395.653564,473.110504 410.396973,462.537262 
	C431.656342,447.291077 449.630524,428.314545 465.049438,407.020142 
	C486.808624,376.969330 500.930573,343.607300 508.758423,307.471069 
	C510.072388,301.405212 511.091431,295.275482 512.623413,289.087646 
	C513.000000,363.593719 513.000000,438.187408 513.000000,513.000000 
	C438.645905,513.000000 364.291626,513.000000 289.468658,513.000000 
z"/>
<path fill="transparent" opacity="1.000000" stroke="none" 
	d="
M1.000000,289.468658 
	C1.665980,290.149170 2.764063,291.238007 2.934177,292.456421 
	C6.375921,317.107330 13.271196,340.686523 23.610832,363.371460 
	C38.083023,395.123169 58.231850,422.718994 83.850494,446.204681 
	C113.171455,473.084473 146.933029,492.499786 185.375275,503.148346 
	C197.632996,506.543732 210.299545,508.460480 222.768616,511.102875 
	C223.503555,511.258606 224.145294,511.854218 224.915192,512.622559 
	C150.406296,513.000000 75.812599,513.000000 1.000000,513.000000 
	C1.000000,438.645905 1.000000,364.291626 1.000000,289.468658 
z"/>
<path fill="transparent" opacity="1.000000" stroke="none" 
	d="
M224.531342,1.000001 
	C223.850296,1.666299 222.761536,2.762627 221.541916,2.935425 
	C196.893997,6.427571 173.316513,13.327456 150.588394,23.608526 
	C118.444382,38.148884 90.857185,58.809669 67.068558,84.585167 
	C53.766315,98.998436 42.580681,115.038284 32.847324,132.146393 
	C18.728094,156.963455 10.019086,183.635239 4.265910,211.415634 
	C3.343611,215.869156 2.588229,220.357224 1.377842,224.914673 
	C1.000000,150.406296 1.000000,75.812576 1.000000,1.000000 
	C75.354088,1.000000 149.708389,1.000000 224.531342,1.000001 
z"/>
<path fill="transparent" opacity="1.000000" stroke="none" 
	d="
M513.000000,224.531342 
	C512.333984,223.850204 511.240326,222.761841 511.065063,221.541565 
	C507.526062,196.903214 500.703278,173.304199 490.392944,150.574203 
	C475.820007,118.446793 455.178528,90.857430 429.408203,67.059395 
	C415.373016,54.098408 399.818481,43.081497 383.187073,33.564079 
	C359.467438,19.990398 334.082794,11.006710 307.458069,5.329244 
	C302.441650,4.259543 297.297699,3.797444 292.229034,2.955858 
	C291.171875,2.780334 290.187500,2.166658 289.084778,1.377452 
	C363.593719,1.000000 438.187408,1.000000 513.000000,1.000000 
	C513.000000,75.354088 513.000000,149.708389 513.000000,224.531342 
z"/>
<path fill="#FD3131" opacity="1.000000" stroke="none" 
	d="
M393.636963,456.674896 
	C362.154297,478.046631 327.972809,491.960327 290.598694,496.665070 
	C214.856934,506.199677 148.281876,485.345825 91.989334,433.593384 
	C53.561932,398.265167 29.140839,354.509735 19.525030,303.275665 
	C6.091734,231.701599 21.718769,166.407440 66.110596,108.603989 
	C96.332870,69.250984 135.554825,42.034462 182.812836,26.674229 
	C213.064697,16.841499 244.058594,13.174216 275.828064,15.780384 
	C334.728455,20.612209 385.262665,43.916382 427.207886,85.229950 
	C463.294708,120.773407 486.300537,163.737579 494.987854,213.774551 
	C507.599731,286.416260 490.327362,351.703827 444.747040,409.460327 
	C430.322266,427.738525 413.108368,443.215881 393.636963,456.674896 
M429.940125,116.582191 
	C417.547455,104.524368 406.211884,91.084717 392.575317,80.652916 
	C339.466522,40.025333 279.390747,26.030207 213.760956,38.509293 
	C165.681534,47.651283 124.735100,70.774704 92.207817,107.386383 
	C42.812706,162.983963 24.758749,227.934738 38.788792,300.971649 
	C49.149139,354.905060 76.877960,399.015564 120.272575,432.560974 
	C173.644638,473.819244 234.130707,488.146149 300.322601,475.392670 
	C354.597656,464.935303 399.076324,437.194275 432.751617,393.436707 
	C473.991730,339.849396 487.982056,279.269470 475.281311,212.808029 
	C468.472382,177.177750 452.975281,145.448578 429.940125,116.582191 
z"/>
<path fill="#363434" opacity="1.000000" stroke="none" 
	d="
M430.158234,116.861519 
	C452.975281,145.448578 468.472382,177.177750 475.281311,212.808029 
	C487.982056,279.269470 473.991730,339.849396 432.751617,393.436707 
	C399.076324,437.194275 354.597656,464.935303 300.322601,475.392670 
	C234.130707,488.146149 173.644638,473.819244 120.272575,432.560974 
	C76.877960,399.015564 49.149139,354.905060 38.788792,300.971649 
	C24.758749,227.934738 42.812706,162.983963 92.207817,107.386383 
	C124.735100,70.774704 165.681534,47.651283 213.760956,38.509293 
	C279.390747,26.030207 339.466522,40.025333 392.575317,80.652916 
	C406.211884,91.084717 417.547455,104.524368 430.158234,116.861519 
M64.003212,176.545380 
	C48.071590,215.559387 43.758152,255.747406 51.946491,297.159729 
	C61.630791,346.137817 85.687111,386.899475 124.324371,418.236847 
	C176.800552,460.798584 236.829025,475.079834 302.916290,460.818756 
	C349.667633,450.730164 388.477081,426.490234 418.525787,389.343994 
	C458.186035,340.315948 473.202332,284.164856 462.914215,221.852127 
	C454.481506,170.777206 429.743683,128.470551 389.774719,95.814583 
	C340.786926,55.789951 284.454559,40.926128 221.916092,51.035633 
	C180.434250,57.741276 144.543411,76.190704 113.870331,104.771599 
	C92.281837,124.887550 75.966667,148.767700 64.003212,176.545380 
z"/>
<path fill="#FEE3AF" opacity="1.000000" stroke="none" 
	d="
M64.123795,176.180664 
	C75.966667,148.767700 92.281837,124.887550 113.870331,104.771599 
	C144.543411,76.190704 180.434250,57.741276 221.916092,51.035633 
	C284.454559,40.926128 340.786926,55.789951 389.774719,95.814583 
	C429.743683,128.470551 454.481506,170.777206 462.914215,221.852127 
	C473.202332,284.164856 458.186035,340.315948 418.525787,389.343994 
	C388.477081,426.490234 349.667633,450.730164 302.916290,460.818756 
	C236.829025,475.079834 176.800552,460.798584 124.324371,418.236847 
	C85.687111,386.899475 61.630791,346.137817 51.946491,297.159729 
	C43.758152,255.747406 48.071590,215.559387 64.123795,176.180664 
M150.550140,291.007507 
	C194.105896,309.384705 242.177460,295.192963 268.295837,256.094025 
	C270.058899,253.454727 271.956909,252.942566 274.820526,252.948471 
	C313.647888,253.028503 352.475464,253.017914 391.303009,252.994232 
	C406.650055,252.984863 417.876862,243.957321 420.191681,228.910217 
	C421.245148,222.062302 420.826569,214.973297 420.894043,207.991882 
	C420.987579,198.311172 419.309784,196.688156 409.668640,196.687500 
	C358.009705,196.684021 306.350677,196.646759 254.692017,196.767975 
	C250.987381,196.776672 248.593597,195.792633 246.366699,192.743011 
	C231.261002,172.056488 215.969955,151.505325 200.740051,130.909485 
	C188.544693,114.417305 171.235046,114.395912 158.997467,130.895508 
	C144.824326,150.004776 130.503723,169.009308 116.648605,188.346939 
	C112.588676,194.013428 108.723984,197.853622 101.023056,196.878235 
	C95.664024,196.199463 93.065887,199.328598 93.165215,204.771362 
	C93.244003,209.088577 93.481163,213.458435 94.240250,217.698914 
	C100.292320,251.507355 118.835182,275.879059 150.550140,291.007507 
M215.175049,321.481476 
	C210.994965,321.016022 208.825577,323.445068 207.167084,326.844666 
	C200.473083,340.565918 193.719543,354.258179 186.971024,367.952820 
	C186.289581,369.335632 185.494095,370.662323 184.459717,372.546692 
	C183.386566,370.410492 182.635574,368.946075 181.911102,367.468658 
	C175.191849,353.766266 168.482483,340.059082 161.757507,326.359497 
	C160.069138,322.920135 157.579926,320.695465 153.466034,321.663513 
	C149.700912,322.549469 148.005081,325.194366 148.003067,328.966919 
	C147.992554,348.631104 147.958893,368.295410 148.030228,387.959320 
	C148.045502,392.169800 150.096939,394.919067 154.610092,395.135193 
	C158.870605,395.339203 161.758316,392.724396 161.939896,388.120483 
	C162.149887,382.795990 161.996933,377.457153 161.999451,372.124542 
	C162.001328,368.129150 161.999817,364.133728 161.999817,360.138336 
	C167.903046,370.243591 172.714127,380.456909 178.039474,390.394623 
	C179.164368,392.493805 182.219223,394.873016 184.300095,394.797180 
	C186.650787,394.711578 189.525955,392.450378 191.059555,390.329956 
	C193.456680,387.015594 194.938858,383.034515 196.770035,379.316925 
	C199.939758,372.881927 203.079956,366.432404 206.232544,359.988983 
	C207.059784,369.301758 206.978165,378.292206 207.091599,387.280182 
	C207.155701,392.358643 209.806961,395.144745 214.136307,395.150696 
	C218.599365,395.156830 220.983688,392.526306 220.994675,387.269226 
	C221.035080,367.938446 220.990585,348.607452 221.027908,329.276642 
	C221.035172,325.514893 219.629105,322.865997 215.175049,321.481476 
M349.786346,373.985016 
	C345.461121,380.563507 339.797424,382.917389 332.876740,381.012848 
	C326.407654,379.232605 322.031830,373.312622 321.961578,366.116394 
	C321.909515,360.787506 321.889832,355.456512 321.979919,350.128540 
	C322.093811,343.392242 325.972809,337.658264 332.498444,336.084167 
	C336.933411,335.014404 341.705292,335.321533 346.329285,335.062317 
	C349.582428,334.879913 351.510986,336.009064 352.156677,339.645416 
	C353.015930,344.484863 356.700684,346.884277 360.693146,345.917053 
	C364.449097,345.007111 366.682556,340.864441 365.837555,336.374908 
	C364.332825,328.379974 358.546997,322.641144 350.328613,321.768890 
	C345.391754,321.244934 340.332275,321.191193 335.383362,321.598999 
	C322.284302,322.678467 311.136108,330.676208 309.365143,342.476105 
	C307.812164,352.823486 307.629089,363.814026 309.336243,374.106598 
	C311.665894,388.152313 325.807739,396.496124 341.160889,395.017761 
	C353.806366,393.800110 365.252075,381.523926 365.990540,368.386505 
	C366.289917,363.060577 364.112732,359.995117 359.291901,359.814819 
	C352.807251,359.572296 346.305298,359.679108 339.813293,359.787140 
	C335.554352,359.858032 333.215912,362.603058 333.273193,366.471039 
	C333.329681,370.286865 335.633972,372.974152 339.914032,373.095459 
	C343.074188,373.185059 346.235748,373.223785 349.786346,373.985016 
M282.724884,360.911774 
	C278.239166,354.313141 271.624329,352.042847 264.061066,350.879089 
	C261.472565,350.480774 258.224518,348.062195 257.192078,345.722046 
	C256.255341,343.598877 257.062927,339.538544 258.678040,337.781006 
	C260.339539,335.972992 264.026947,334.982208 266.614655,335.311188 
	C270.635315,335.822327 272.309113,339.344574 272.936066,343.276154 
	C273.695160,348.036407 276.617523,350.506042 280.526978,349.967133 
	C284.381256,349.435822 286.832123,345.986237 286.505737,341.552094 
	C285.754089,331.340546 278.681427,323.527008 268.194336,321.322449 
	C259.546326,319.504517 249.511261,324.433838 245.121353,332.656067 
	C240.556091,341.206696 242.223602,351.941895 249.223480,358.817749 
	C253.309128,362.830994 258.199951,364.858490 263.970123,365.083923 
	C269.105957,365.284515 272.865326,369.006622 272.847565,373.415497 
	C272.831787,377.333832 269.460693,381.032959 265.392578,381.595947 
	C260.965302,382.208679 257.167023,378.985596 256.153931,373.737396 
	C256.059784,373.249817 256.118225,372.732605 256.022552,372.245483 
	C255.258469,368.355377 252.779343,366.553711 248.927200,366.768280 
	C244.975006,366.988434 242.817413,369.304749 242.758408,373.186829 
	C242.723663,375.473267 242.979431,377.876434 243.678726,380.041656 
	C246.298126,388.152191 251.967026,393.370300 260.262482,394.863800 
	C269.304626,396.491699 277.216492,393.718414 282.546631,385.924286 
	C287.918152,378.069641 287.973663,369.795197 282.724884,360.911774 
z"/>
<path fill="#343434" opacity="1.000000" stroke="none" 
	d="
M150.192963,290.869537 
	C118.835182,275.879059 100.292320,251.507355 94.240250,217.698914 
	C93.481163,213.458435 93.244003,209.088577 93.165215,204.771362 
	C93.065887,199.328598 95.664024,196.199463 101.023056,196.878235 
	C108.723984,197.853622 112.588676,194.013428 116.648605,188.346939 
	C130.503723,169.009308 144.824326,150.004776 158.997467,130.895508 
	C171.235046,114.395912 188.544693,114.417305 200.740051,130.909485 
	C215.969955,151.505325 231.261002,172.056488 246.366699,192.743011 
	C248.593597,195.792633 250.987381,196.776672 254.692017,196.767975 
	C306.350677,196.646759 358.009705,196.684021 409.668640,196.687500 
	C419.309784,196.688156 420.987579,198.311172 420.894043,207.991882 
	C420.826569,214.973297 421.245148,222.062302 420.191681,228.910217 
	C417.876862,243.957321 406.650055,252.984863 391.303009,252.994232 
	C352.475464,253.017914 313.647888,253.028503 274.820526,252.948471 
	C271.956909,252.942566 270.058899,253.454727 268.295837,256.094025 
	C242.177460,295.192963 194.105896,309.384705 150.192963,290.869537 
M129.085648,259.407562 
	C168.527161,299.306702 230.012482,292.296173 259.321716,244.467422 
	C261.807892,240.410309 264.926605,238.926346 269.569794,238.938614 
	C310.218597,239.045975 350.867767,239.009415 391.516846,238.991791 
	C399.679688,238.988251 406.044586,234.213196 406.798889,226.889236 
	C407.338501,221.649734 406.903778,216.309891 406.903778,210.652710 
	C306.986206,210.652710 207.479523,210.652710 107.501251,210.652710 
	C108.977806,229.494431 116.483925,245.182358 129.085648,259.407562 
M151.499939,196.694077 
	C177.924103,196.694077 204.348267,196.694077 231.511673,196.694077 
	C230.567108,194.945206 230.157608,193.912537 229.520370,193.047653 
	C216.193390,174.959793 202.895905,156.849716 189.468750,138.836334 
	C183.121185,130.320648 176.452103,130.432419 170.178345,138.911911 
	C161.964172,150.013992 153.755615,161.120224 145.563797,172.238815 
	C139.787704,180.078583 134.043472,187.941833 127.625450,196.694031 
	C135.976059,196.694031 143.238022,196.694031 151.499939,196.694077 
z"/>
<path fill="#353534" opacity="1.000000" stroke="none" 
	d="
M215.530273,321.608459 
	C219.629105,322.865997 221.035172,325.514893 221.027908,329.276642 
	C220.990585,348.607452 221.035080,367.938446 220.994675,387.269226 
	C220.983688,392.526306 218.599365,395.156830 214.136307,395.150696 
	C209.806961,395.144745 207.155701,392.358643 207.091599,387.280182 
	C206.978165,378.292206 207.059784,369.301758 206.232544,359.988983 
	C203.079956,366.432404 199.939758,372.881927 196.770035,379.316925 
	C194.938858,383.034515 193.456680,387.015594 191.059555,390.329956 
	C189.525955,392.450378 186.650787,394.711578 184.300095,394.797180 
	C182.219223,394.873016 179.164368,392.493805 178.039474,390.394623 
	C172.714127,380.456909 167.903046,370.243591 161.999817,360.138336 
	C161.999817,364.133728 162.001328,368.129150 161.999451,372.124542 
	C161.996933,377.457153 162.149887,382.795990 161.939896,388.120483 
	C161.758316,392.724396 158.870605,395.339203 154.610092,395.135193 
	C150.096939,394.919067 148.045502,392.169800 148.030228,387.959320 
	C147.958893,368.295410 147.992554,348.631104 148.003067,328.966919 
	C148.005081,325.194366 149.700912,322.549469 153.466034,321.663513 
	C157.579926,320.695465 160.069138,322.920135 161.757507,326.359497 
	C168.482483,340.059082 175.191849,353.766266 181.911102,367.468658 
	C182.635574,368.946075 183.386566,370.410492 184.459717,372.546692 
	C185.494095,370.662323 186.289581,369.335632 186.971024,367.952820 
	C193.719543,354.258179 200.473083,340.565918 207.167084,326.844666 
	C208.825577,323.445068 210.994965,321.016022 215.530273,321.608459 
z"/>
<path fill="#363535" opacity="1.000000" stroke="none" 
	d="
M349.591522,373.635071 
	C346.235748,373.223785 343.074188,373.185059 339.914032,373.095459 
	C335.633972,372.974152 333.329681,370.286865 333.273193,366.471039 
	C333.215912,362.603058 335.554352,359.858032 339.813293,359.787140 
	C346.305298,359.679108 352.807251,359.572296 359.291901,359.814819 
	C364.112732,359.995117 366.289917,363.060577 365.990540,368.386505 
	C365.252075,381.523926 353.806366,393.800110 341.160889,395.017761 
	C325.807739,396.496124 311.665894,388.152313 309.336243,374.106598 
	C307.629089,363.814026 307.812164,352.823486 309.365143,342.476105 
	C311.136108,330.676208 322.284302,322.678467 335.383362,321.598999 
	C340.332275,321.191193 345.391754,321.244934 350.328613,321.768890 
	C358.546997,322.641144 364.332825,328.379974 365.837555,336.374908 
	C366.682556,340.864441 364.449097,345.007111 360.693146,345.917053 
	C356.700684,346.884277 353.015930,344.484863 352.156677,339.645416 
	C351.510986,336.009064 349.582428,334.879913 346.329285,335.062317 
	C341.705292,335.321533 336.933411,335.014404 332.498444,336.084167 
	C325.972809,337.658264 322.093811,343.392242 321.979919,350.128540 
	C321.889832,355.456512 321.909515,360.787506 321.961578,366.116394 
	C322.031830,373.312622 326.407654,379.232605 332.876740,381.012848 
	C339.797424,382.917389 345.461121,380.563507 349.591522,373.635071 
z"/>
<path fill="#363535" opacity="1.000000" stroke="none" 
	d="
M282.907104,361.236115 
	C287.973663,369.795197 287.918152,378.069641 282.546631,385.924286 
	C277.216492,393.718414 269.304626,396.491699 260.262482,394.863800 
	C251.967026,393.370300 246.298126,388.152191 243.678726,380.041656 
	C242.979431,377.876434 242.723663,375.473267 242.758408,373.186829 
	C242.817413,369.304749 244.975006,366.988434 248.927200,366.768280 
	C252.779343,366.553711 255.258469,368.355377 256.022552,372.245483 
	C256.118225,372.732605 256.059784,373.249817 256.153931,373.737396 
	C257.167023,378.985596 260.965302,382.208679 265.392578,381.595947 
	C269.460693,381.032959 272.831787,377.333832 272.847565,373.415497 
	C272.865326,369.006622 269.105957,365.284515 263.970123,365.083923 
	C258.199951,364.858490 253.309128,362.830994 249.223480,358.817749 
	C242.223602,351.941895 240.556091,341.206696 245.121353,332.656067 
	C249.511261,324.433838 259.546326,319.504517 268.194336,321.322449 
	C278.681427,323.527008 285.754089,331.340546 286.505737,341.552094 
	C286.832123,345.986237 284.381256,349.435822 280.526978,349.967133 
	C276.617523,350.506042 273.695160,348.036407 272.936066,343.276154 
	C272.309113,339.344574 270.635315,335.822327 266.614655,335.311188 
	C264.026947,334.982208 260.339539,335.972992 258.678040,337.781006 
	C257.062927,339.538544 256.255341,343.598877 257.192078,345.722046 
	C258.224518,348.062195 261.472565,350.480774 264.061066,350.879089 
	C271.624329,352.042847 278.239166,354.313141 282.907104,361.236115 
z"/>
<path fill="#7CD43E" opacity="1.000000" stroke="none" 
	d="
M128.847046,259.143616 
	C116.483925,245.182358 108.977806,229.494431 107.501251,210.652710 
	C207.479523,210.652710 306.986206,210.652710 406.903778,210.652710 
	C406.903778,216.309891 407.338501,221.649734 406.798889,226.889236 
	C406.044586,234.213196 399.679688,238.988251 391.516846,238.991791 
	C350.867767,239.009415 310.218597,239.045975 269.569794,238.938614 
	C264.926605,238.926346 261.807892,240.410309 259.321716,244.467422 
	C230.012482,292.296173 168.527161,299.306702 128.847046,259.143616 
z"/>
<path fill="#CACACA" opacity="1.000000" stroke="none" 
	d="
M150.999969,196.694061 
	C143.238022,196.694031 135.976059,196.694031 127.625450,196.694031 
	C134.043472,187.941833 139.787704,180.078583 145.563797,172.238815 
	C153.755615,161.120224 161.964172,150.013992 170.178345,138.911911 
	C176.452103,130.432419 183.121185,130.320648 189.468750,138.836334 
	C202.895905,156.849716 216.193390,174.959793 229.520370,193.047653 
	C230.157608,193.912537 230.567108,194.945206 231.511673,196.694077 
	C204.348267,196.694077 177.924103,196.694077 150.999969,196.694061 
z"/>
</svg>