<?xml version="1.0" encoding="UTF-8"?>
<svg version="1.1" xmlns="http://www.w3.org/2000/svg" width="512" height="512">
<path d="M0 0 C1.77314074 1.5361895 3.52251147 3.10014697 5.25 4.6875 C5.73952148 5.13464355 6.22904297 5.58178711 6.73339844 6.04248047 C29.56033619 27.12519121 42.64360382 56.62815714 44.4140625 87.55322266 C45.83369826 123.86632227 34.66916067 156.61938472 16.0078125 187.44140625 C3.93301847 207.40674277 0.41195612 232.02707441 5.75 254.875 C7.97893072 263.38743186 11.97859428 271.04431065 16.25 278.6875 C16.65057617 279.40550781 17.05115234 280.12351562 17.46386719 280.86328125 C18.30005123 282.35885239 19.13705618 283.85396482 19.97485352 285.34863281 C34.18275094 310.71230036 44.07632633 336.69266787 44.6875 366.125 C44.70997803 366.81706543 44.73245605 367.50913086 44.75561523 368.22216797 C44.7387635 371.69362501 44.26606206 373.66063576 42.47265625 376.66015625 C40.25 378.6875 40.25 378.6875 36.25 378.6875 C35.59 383.6375 34.93 388.5875 34.25 393.6875 C35.57 394.0175 36.89 394.3475 38.25 394.6875 C40.48028329 397.34259915 40.23410441 398.8845217 39.953125 402.3671875 C39.37623547 406.5182532 38.19897235 410.3496328 36.6875 414.25 C36.42356445 414.93618408 36.15962891 415.62236816 35.88769531 416.3293457 C27.23646099 438.15996041 12.51918355 458.31579093 -7.75 470.6875 C-8.79542969 471.34234375 -9.84085937 471.9971875 -10.91796875 472.671875 C-37.45491742 488.8577749 -72.08188247 493.86165352 -102.390625 486.6484375 C-103.49921875 486.33132813 -104.6078125 486.01421875 -105.75 485.6875 C-106.94109375 485.37039063 -108.1321875 485.05328125 -109.359375 484.7265625 C-124.06543948 480.3519737 -138.35468692 473.00046255 -149.75 462.6875 C-150.55179688 462.02621094 -151.35359375 461.36492187 -152.1796875 460.68359375 C-159.46951869 454.5178954 -165.05984365 447.29240477 -170.75 439.6875 C-171.25789062 440.54472656 -171.76578125 441.40195312 -172.2890625 442.28515625 C-186.03195658 465.24822181 -208.21192879 479.84975253 -234.10644531 486.4519043 C-255.17953572 491.27739267 -280.03363917 490.77528964 -300.75 484.6875 C-301.39904297 484.50026367 -302.04808594 484.31302734 -302.71679688 484.12011719 C-316.23749747 480.08065091 -327.8339466 473.74778691 -337.75 463.6875 C-338.33523438 463.11257813 -338.92046875 462.53765625 -339.5234375 461.9453125 C-347.60130548 453.37539165 -350.13399905 442.90834256 -350.02734375 431.484375 C-348.54888699 411.24409371 -334.34689341 394.59212838 -319.75 381.6875 C-304.48846955 368.80804899 -287.213613 359.14934636 -268.75 351.6875 C-269.575 350.8625 -270.4 350.0375 -271.25 349.1875 C-280.32909034 338.47331282 -284.31530238 325.24018097 -286.75 311.6875 C-286.90082031 310.84832031 -287.05164063 310.00914062 -287.20703125 309.14453125 C-287.5116931 306.97940105 -287.66044485 304.87264569 -287.75 302.6875 C-287.81316406 301.46804688 -287.87632812 300.24859375 -287.94140625 298.9921875 C-287.98515963 297.64073046 -288.02550381 296.2891589 -288.0625 294.9375 C-288.09988281 293.68453125 -288.13726562 292.4315625 -288.17578125 291.140625 C-287.67635604 287.09024074 -286.64745295 285.50664341 -283.75 282.6875 C-282.76 282.3575 -281.77 282.0275 -280.75 281.6875 C-280.09 277.0675 -279.43 272.4475 -278.75 267.6875 C-280.07 267.3575 -281.39 267.0275 -282.75 266.6875 C-285.58899104 262.42901343 -285.19567782 259.0367275 -284.27636719 254.19091797 C-283.61470433 251.31839564 -282.88699092 248.47255026 -282.125 245.625 C-281.85284668 244.60365967 -281.58069336 243.58231934 -281.30029297 242.5300293 C-275.81850458 222.56968453 -266.18302348 203.70863823 -247.76953125 192.9453125 C-227.32313328 182.73481314 -203.70920008 184.2980147 -182.25 190.50390625 C-169.92662005 194.67129925 -161.79468991 201.60169786 -152.75 210.6875 C-155.92657571 200.53758427 -160.3429442 191.47930864 -165.625 182.25 C-185.71580264 147.07141909 -198.86521033 105.27746134 -187.9375 64.6875 C-187.54491024 63.35320802 -187.14917253 62.01983746 -186.75 60.6875 C-186.57339844 60.04296875 -186.39679688 59.3984375 -186.21484375 58.734375 C-178.71428444 31.39900331 -159.80861821 6.20386101 -135.2265625 -7.98046875 C-125.73140554 -13.25276689 -116.27148522 -17.51132536 -105.75 -20.3125 C-104.64140625 -20.62960938 -103.5328125 -20.94671875 -102.390625 -21.2734375 C-67.92885064 -29.47503882 -27.88422266 -22.0833442 0 0 Z M-193.8125 342.875 C-197.49761478 345.79238253 -201.2377539 348.31500856 -205.31640625 350.64453125 C-205.78949219 350.98871094 -206.26257813 351.33289063 -206.75 351.6875 C-206.75 352.3475 -206.75 353.0075 -206.75 353.6875 C-204.96588941 355.07087734 -204.96588941 355.07087734 -202.6875 356.4375 C-198.34260309 359.14099141 -194.57647085 362.3103522 -190.75 365.6875 C-190.411671 362.47967315 -190.08023854 359.27116902 -189.75 356.0625 C-189.65460938 355.15886719 -189.55921875 354.25523437 -189.4609375 353.32421875 C-188.99420109 348.75686961 -188.62777201 344.28632812 -188.75 339.6875 C-190.70590662 339.6875 -192.36938145 341.7140693 -193.8125 342.875 Z " fill="#020100" transform="translate(408.75,23.3125)"/>
<path d="M0 0 C0.00238835 0.9352139 0.00477671 1.8704278 0.00723743 2.83398151 C0.06597639 25.56743672 0.14182429 48.30078547 0.23571491 71.03412342 C0.28072134 82.02770341 0.32012475 93.02125064 0.34643555 104.01489258 C0.36937644 113.59456895 0.40273047 123.1741421 0.44870156 132.75373667 C0.47268665 137.82822411 0.49138071 142.90260899 0.49761391 147.97715187 C0.50364094 152.75009253 0.52355394 157.5227706 0.55427551 162.29561424 C0.56309411 164.05041051 0.56677047 165.80524105 0.56500816 167.56005859 C0.56336515 169.95028345 0.5799702 172.33969848 0.60127258 174.72981262 C0.59642501 175.42922669 0.59157743 176.12864075 0.58658296 176.84924918 C0.62807977 179.65745696 0.70714489 181.56793971 2.30617046 183.92704296 C5.21705588 185.77094456 7.67529494 185.41558813 11 185 C13.55033245 182.63583183 13.97995625 181.17208319 14.38476086 177.69668198 C14.40467137 176.35975675 14.40813822 175.0225262 14.39872742 173.68548584 C14.40869766 172.57780015 14.40869766 172.57780015 14.41886932 171.44773698 C14.43752667 168.97250499 14.43489225 166.49775524 14.43237305 164.02246094 C14.44138855 162.2484875 14.45171525 160.47452032 14.46325684 158.70056152 C14.49087782 153.88275385 14.50011827 149.06506422 14.50611091 144.24718761 C14.51548131 139.21294142 14.5416836 134.17878385 14.56611633 129.14459229 C14.60982176 119.61076464 14.63834389 110.07695415 14.66143972 100.54305673 C14.68846972 89.68943155 14.73238258 78.83589536 14.77772844 67.98233366 C14.87063263 45.65493732 14.94228693 23.32751307 15 1 C16.58999548 0.99076996 18.18000659 0.98420814 19.77001953 0.97875977 C21.09817184 0.97284569 21.09817184 0.97284569 22.45315552 0.96681213 C25.67209834 1.0087581 28.71087248 1.34567664 31.875 1.9375 C32.94492187 2.11152344 34.01484375 2.28554688 35.1171875 2.46484375 C40.12504558 5.13162996 41.05143752 10.07685939 42.7265625 15.23901367 C43.40173646 17.5225268 43.99643511 19.81207208 44.5625 22.125 C44.77229492 22.97175293 44.98208984 23.81850586 45.19824219 24.69091797 C47.63203789 34.99798651 48.88816147 45.47962246 50 56 C50.08292297 56.7242366 50.16584595 57.44847321 50.25128174 58.19465637 C50.91205735 64.24651773 51.17305783 70.22302001 51.203125 76.30859375 C51.21018463 77.26455948 51.21724426 78.22052521 51.22451782 79.20545959 C51.42850502 114.9809369 47.9285292 148.76336692 38.8125 183.4375 C30.50290342 215.75437849 29.54299344 253.64757252 36.1875 286.4375 C36.4038208 287.5320752 36.6201416 288.62665039 36.84301758 289.75439453 C38.44306322 297.67232172 40.24688571 305.53395845 42.1875 313.375 C42.43717529 314.3848999 42.68685059 315.3947998 42.9440918 316.43530273 C44.35738862 322.46083762 44.35738862 322.46083762 47 328 C50.36760187 329.1716367 50.36760187 329.1716367 54 329 C56.60314994 327.6469872 56.60314994 327.6469872 58 325 C58.32892501 319.84974766 57.56536246 315.23259624 56.3203125 310.265625 C56.14748749 309.54695251 55.97466248 308.82828003 55.79660034 308.08782959 C55.24685265 305.80666882 54.68658684 303.5282722 54.125 301.25 C44.10351326 260.19621848 43.91650116 218.66544615 54.63818359 177.7097168 C65.38165659 135.75337844 68.27348497 90.99553058 63 48 C62.8875293 47.07348633 62.77505859 46.14697266 62.65917969 45.19238281 C61.47501089 35.70272158 60.17129312 26.37349145 57.453125 17.1796875 C57 15 57 15 58 12 C82.90934594 27.70743979 100.05229626 49.92910518 107.2734375 78.5625 C115.85020639 119.14076144 101.91802119 155.07758684 82.15673828 189.78100586 C68.35890438 214.01312402 65.08454087 240.86584911 72 268 C75.54047689 280.15174668 81.103926 291.29075737 87.65307617 302.07006836 C101.32240282 324.60458081 108.73482538 348.83515452 109.7097168 375.1628418 C109.64024427 380.25462776 109.64024427 380.25462776 111 385 C112.98 385.66 114.96 386.32 117 387 C116.34 391.95 115.68 396.9 115 402 C112.69 402.66 110.38 403.32 108 404 C106.50470819 405.65083333 106.50470819 405.65083333 105.875 407.8125 C105.57078125 408.61558594 105.2665625 409.41867187 104.953125 410.24609375 C104.63859375 411.15488281 104.3240625 412.06367188 104 413 C94.80024054 437.98427826 80.55254399 455.96933498 58 470 C56.81507458 466.54129876 57.22134249 464.46919787 58.25 461 C62.97837658 443.230804 65.05411717 423.87279413 65.3125 405.5 C65.33896606 404.4313269 65.33896606 404.4313269 65.3659668 403.34106445 C65.36210809 400.47123755 65.31919045 398.47734789 63.69921875 396.0546875 C60.81454555 394.26420068 58.28447 394.6480925 55 395 C53.19072336 395.99743597 53.19072336 395.99743597 52 398 C51.5538462 400.54399019 51.28029637 402.89394406 51.12109375 405.45703125 C51.0634938 406.19644455 51.00589386 406.93585785 50.94654846 407.69767761 C50.76395524 410.068525 50.59980235 412.44018465 50.4375 414.8125 C50.2136543 417.90285895 49.98214311 420.99258157 49.74609375 424.08203125 C49.68869522 424.8393605 49.63129669 425.59668976 49.57215881 426.37696838 C49.02342282 433.30407751 48.10855127 440.13859712 47 447 C46.88116455 447.74209717 46.7623291 448.48419434 46.63989258 449.2487793 C42.42319577 474.25871574 42.42319577 474.25871574 37.0390625 478.5703125 C34.9375 479.375 34.9375 479.375 31 480 C30.38769531 480.17660156 29.77539062 480.35320312 29.14453125 480.53515625 C26.31444384 481.1485996 23.64244304 481.0939396 20.75 481.0625 C19.67234375 481.05347656 18.5946875 481.04445313 17.484375 481.03515625 C16.66453125 481.02355469 15.8446875 481.01195312 15 481 C14.99902319 480.41924751 14.99804638 479.83849501 14.99703997 479.24014395 C14.93880834 444.8444037 14.8650423 410.44873286 14.77101372 376.05307166 C14.75974512 371.92608779 14.74860674 367.79910358 14.73754883 363.67211914 C14.73534514 362.85048701 14.73314146 362.02885488 14.730871 361.1823248 C14.69546778 347.86655013 14.67062074 334.55077552 14.64965298 321.23497119 C14.62791498 307.57871907 14.5948837 293.9225282 14.55129844 280.26632816 C14.52474713 271.83504096 14.50707743 263.40383012 14.50065396 254.97250316 C14.49541068 249.19622339 14.4792296 243.42003982 14.45433434 237.64381155 C14.44028256 234.30773649 14.4327794 230.97198186 14.43499184 227.63585472 C14.43663153 224.02397461 14.42005678 220.41263354 14.39872742 216.80082703 C14.40357499 215.73955477 14.40842257 214.67828251 14.41341704 213.58485049 C14.4039605 212.62094356 14.39450396 211.65703663 14.38476086 210.6639204 C14.38191295 209.41255205 14.38191295 209.41255205 14.37900752 208.13590354 C13.90554196 205.46768004 13.17666362 204.58229804 11 203 C6.3857753 202.40980679 6.3857753 202.40980679 2.30529755 204.23096639 C0.61786198 206.51790107 0.62165406 207.85055737 0.61523914 210.67953777 C0.6057826 211.6469281 0.59632606 212.61431842 0.58658296 213.6110236 C0.59143053 214.67618681 0.59627811 215.74135002 0.60127258 216.83879089 C0.59462576 217.96841462 0.58797893 219.09803835 0.58113068 220.26189309 C0.56240063 224.06685685 0.56511275 227.87150892 0.56762695 231.67651367 C0.5602781 234.39614665 0.54842214 237.11575555 0.53674316 239.83537292 C0.51392323 245.70067622 0.50206623 251.56592 0.49761391 257.43126488 C0.49116079 265.91159606 0.46823827 274.39181948 0.44127061 282.8721073 C0.39796793 296.63013647 0.36802108 310.38816112 0.34643555 324.14624023 C0.32543627 337.51247382 0.29817039 350.87867034 0.26245117 364.24487305 C0.26025235 365.06849566 0.25805352 365.89211826 0.25578807 366.74069913 C0.24471868 370.87249118 0.23352582 375.00428288 0.22227156 379.13607442 C0.12903719 413.42401834 0.05746208 447.7119779 0 482 C-1.41352695 481.85089438 -2.82681014 481.6994771 -4.23999023 481.54711914 C-5.02703842 481.46305313 -5.81408661 481.37898712 -6.62498474 481.29237366 C-10.15183676 480.85820439 -13.58221755 480.15863961 -17.0625 479.4375 C-17.73732422 479.29892578 -18.41214844 479.16035156 -19.10742188 479.01757812 C-20.73902873 478.68199941 -22.36963055 478.34153984 -24 478 C-31.7497385 454.8422654 -36.05258788 431.81081466 -36.23828125 407.359375 C-36.2527681 405.748918 -36.2527681 405.748918 -36.26754761 404.10592651 C-36.29222906 400.65391537 -36.30492451 397.2020897 -36.3125 393.75 C-36.31692612 391.98254425 -36.31692612 391.98254425 -36.32144165 390.17938232 C-36.33791864 361.23350005 -32.49455321 334.16413115 -26.0625 305.9375 C-24.13773196 297.35726651 -22.2929188 288.77114228 -20.6875 280.125 C-20.52838135 279.28960693 -20.3692627 278.45421387 -20.20532227 277.59350586 C-14.13939953 243.94549524 -17.48761271 208.46444351 -26.27880859 175.73388672 C-26.95666254 173.1642833 -27.59259856 170.58931812 -28.20703125 168.00390625 C-28.47495483 166.88230103 -28.47495483 166.88230103 -28.74829102 165.73803711 C-29.21408158 163.77627686 -29.67745445 161.81394299 -30.140625 159.8515625 C-30.78503487 156.89963624 -30.78503487 156.89963624 -33 155 C-37.62307869 154.56706829 -37.62307869 154.56706829 -41.9375 156 C-44.6591844 161.12317063 -42.74881359 167.93377004 -41.35546875 173.2265625 C-41.00543261 174.58957146 -40.65584029 175.95269446 -40.30664062 177.31591797 C-40.12335205 178.01859802 -39.94006348 178.72127808 -39.7512207 179.44525146 C-31.68622096 210.63032463 -28.72501748 242.98458298 -34 275 C-34.12890625 275.78810059 -34.2578125 276.57620117 -34.390625 277.38818359 C-36.59277736 290.43032897 -39.60311167 303.30164983 -42.6328125 316.171875 C-42.86790527 317.17581299 -43.10299805 318.17975098 -43.34521484 319.21411133 C-43.74089297 320.89758752 -44.14095681 322.58005295 -44.54931641 324.26049805 C-49.766575 346.39160723 -50.39077024 369.18807569 -50.375 391.8125 C-50.37663147 392.90712555 -50.37826294 394.0017511 -50.37994385 395.12954712 C-50.37681196 413.69590573 -49.43673605 432.04462512 -45.9375 450.3125 C-45.59067969 452.1832668 -45.24559186 454.05435572 -44.90234375 455.92578125 C-44.74491699 456.78252441 -44.58749023 457.63926758 -44.42529297 458.52197266 C-43.82767931 462.00404992 -43.39914296 465.49001084 -43 469 C-62.018568 462.24926505 -76.32868606 442.83958806 -84.73046875 425.41015625 C-94.64596538 402.86158244 -99.39609249 375.23782418 -93 351 C-92.81163574 350.28457031 -92.62327148 349.56914062 -92.42919922 348.83203125 C-87.21742016 329.43718602 -79.14606716 311.61054168 -68.859375 294.37890625 C-58.34237744 276.75629864 -54.62520832 260.40323092 -54.75 239.875 C-54.74226563 238.59496094 -54.73453125 237.31492188 -54.7265625 235.99609375 C-54.77550572 212.08733039 -64.81696892 193.98320258 -76.3125 173.68212891 C-93.92003383 142.43863238 -100.29482144 107.11261928 -91.00390625 72.08203125 C-86.7194433 58.01298163 -79.75543354 45.01289067 -70 34 C-69.20916016 32.99646484 -69.20916016 32.99646484 -68.40234375 31.97265625 C-64.91620848 27.64710757 -60.93459217 24.15796409 -56.5625 20.75 C-56.03696533 20.3375 -55.51143066 19.925 -54.9699707 19.5 C-50.8859014 16.41172418 -46.6245328 14.19401121 -42 12 C-42.25394531 13.16273437 -42.50789063 14.32546875 -42.76953125 15.5234375 C-44.54076599 23.7198241 -46.24922423 31.92545579 -47.6875 40.1875 C-47.80649658 40.83702637 -47.92549316 41.48655273 -48.0480957 42.15576172 C-50.57263737 57.1574001 -50.21439259 72.61849702 -50.24023438 87.77685547 C-50.25009857 91.28505817 -50.28129549 94.79271134 -50.3125 98.30078125 C-50.31901743 100.53905907 -50.32427282 102.77734101 -50.328125 105.015625 C-50.3404718 106.06034973 -50.3528186 107.10507446 -50.36553955 108.18145752 C-50.36253845 109.15057068 -50.35953735 110.11968384 -50.35644531 111.11816406 C-50.36009094 111.96703186 -50.36373657 112.81589966 -50.36749268 113.69049072 C-49.91587798 116.52866518 -48.94087581 117.91040091 -47 120 C-44.16431142 120.66259654 -41.95760774 120.28167693 -39 120 C-36.45503918 117.45503918 -36.74519549 116.54250898 -36.72875977 113.01318359 C-36.71857315 111.96963715 -36.70838654 110.9260907 -36.69789124 109.85092163 C-36.69575119 108.71160187 -36.69361115 107.5722821 -36.69140625 106.3984375 C-36.66618188 103.96223786 -36.64078511 101.52603999 -36.61523438 99.08984375 C-36.58687054 95.26872556 -36.56286429 91.4476402 -36.54370117 87.62646484 C-36.41454124 66.06669197 -35.18186757 44.9973592 -30 24 C-29.62875 22.40285156 -29.62875 22.40285156 -29.25 20.7734375 C-28.54963516 17.83336427 -27.78351174 14.91877908 -27 12 C-26.73968994 10.7944043 -26.73968994 10.7944043 -26.47412109 9.56445312 C-25.8984375 7.40625 -25.8984375 7.40625 -24 4 C-20.97907134 2.4583057 -17.96055394 1.98080057 -14.625 1.5 C-13.77421875 1.3453125 -12.9234375 1.190625 -12.046875 1.03125 C-7.97064696 0.32013233 -4.13979924 -0.02635484 0 0 Z " fill="#FCA85B" transform="translate(328,15)"/>
<path d="M0 0 C9.22157848 6.42716076 14.28770943 15.76898539 16.6875 26.625 C18.10149311 58.62070453 8.20076683 83.93370178 -12.96875 107.59375 C-26.76080601 122.03484394 -45.09291738 134.48817605 -65.625 135.125 C-74.09097409 134.81561224 -78.62357019 132.63225941 -84.5 126.625 C-94.58682111 114.50103659 -96.70461617 98.29949995 -96.75878906 83.02124023 C-96.84306882 78.23775375 -96.84306882 78.23775375 -99.16015625 74.1328125 C-101.32864849 72.46110583 -101.32864849 72.46110583 -104.3125 71.625 C-103.9825 66.675 -103.6525 61.725 -103.3125 56.625 C-99.3525 55.635 -99.3525 55.635 -95.3125 54.625 C-95.09335938 53.52285156 -94.87421875 52.42070312 -94.6484375 51.28515625 C-90.79830367 32.58123936 -85.55688281 10.63743195 -69.3125 -1.375 C-48.46803982 -13.89029461 -20.86732895 -12.40760099 0 0 Z " fill="#CB614D" transform="translate(233.3125,234.375)"/>
<path d="M0 0 C12.09234316 9.45905353 20.89001254 22.95010266 26.25 37.3125 C26.86875 38.9521875 26.86875 38.9521875 27.5 40.625 C29.8542642 52.20013232 27.76838125 61.9631449 21.5625 71.9375 C8.47124081 90.19379693 -12.89319524 100.44734651 -34.5625 104.5625 C-60.60699316 108.06666817 -88.93505669 105.10328951 -110.6171875 89.2109375 C-117.3951485 83.51905927 -121.82258059 77.91061863 -123.2890625 69.05859375 C-124.09169869 55.75564212 -117.49811066 45.73051833 -109.15625 35.91015625 C-85.23230341 10.08316846 -34.649648 -23.84543083 0 0 Z " fill="#CB614D" transform="translate(197.75,391.6875)"/>
<path d="M0 0 C23.12403915 11.61787474 39.40649114 33.00618831 47.75878906 57.19775391 C58.06176286 90.26400439 52.06687743 126.65213965 36.60717773 156.99462891 C32.92916924 164.00185419 29.07245678 170.90448775 25.15673828 177.78100586 C11.35890438 202.01312402 8.08454087 228.86584911 15 256 C18.54047689 268.15174668 24.103926 279.29075737 30.65307617 290.07006836 C44.32240282 312.60458081 51.73482538 336.83515452 52.7097168 363.1628418 C52.64024427 368.25462776 52.64024427 368.25462776 54 373 C55.98 373.66 57.96 374.32 60 375 C59.34 379.95 58.68 384.9 58 390 C55.69 390.66 53.38 391.32 51 392 C49.50470819 393.65083333 49.50470819 393.65083333 48.875 395.8125 C48.41867187 397.01712891 48.41867187 397.01712891 47.953125 398.24609375 C47.63859375 399.15488281 47.3240625 400.06367188 47 401 C37.80024054 425.98427826 23.55254399 443.96933498 1 458 C-0.1171875 454.28125 -0.1171875 454.28125 0.9375 451.75 C1.4634375 450.88375 1.4634375 450.88375 2 450 C2 450.66 2 451.32 2 452 C15.58757141 440.76134386 25.34429675 427.30523585 32 411 C32.35707031 410.18144531 32.71414063 409.36289062 33.08203125 408.51953125 C46.05608699 377.95518272 42.76148152 342.86611271 31.0390625 312.51171875 C26.62305438 301.64286155 21.13219694 291.50355247 15.24951172 281.37011719 C1.27718122 257.28985518 -3.58194548 230.54231676 2.70703125 202.90625 C6.5871227 190.17022451 13.600606 178.42374927 20.45043945 167.09960938 C30.93542719 149.57965363 37.02716017 130.10409667 40 110 C40.2784375 108.58460938 40.2784375 108.58460938 40.5625 107.140625 C44.73380959 77.19658119 35.79352025 45.97619528 17.73828125 21.99609375 C10.88351004 12.8679995 10.88351004 12.8679995 2 6 C1.67 6.66 1.34 7.32 1 8 C0.67 5.36 0.34 2.72 0 0 Z " fill="#FB9637" transform="translate(385,27)"/>
<path d="M0 0 C8.27049964 1.28030866 15.23114667 6.23932381 20.46484375 12.6484375 C29.82744774 26.99013624 29.32254968 43.9388778 26.8125 60.2890625 C20.614908 88.59537212 1.62047244 113.25002254 -22.32958984 128.95898438 C-26.06591001 131.28749493 -29.97070662 133.23602364 -34 135 C-34.33 134.34 -34.66 133.68 -35 133 C-34.32195312 132.52691406 -33.64390625 132.05382812 -32.9453125 131.56640625 C-8.81140614 114.41863068 10.34771304 89.23911498 15.39355469 59.53295898 C18.2585576 40.92880547 17.65231568 23.4192322 6.75 7.32421875 C4.68390641 4.5801882 2.57716501 2.26478137 0 0 Z " fill="#B85548" transform="translate(222,230)"/>
<path d="M0 0 C15.67870684 4.64554277 25.39111329 18.27271134 32.95703125 32.01660156 C38.54391088 42.56459026 42.19484111 52.90004078 39.3046875 64.8828125 C33.84511056 81.35330093 21.57372648 91.62429512 7 100 C4.02746019 101.49027602 1.09377331 102.77315886 -2 104 C-2 103.34 -2 102.68 -2 102 C-0.36246017 100.68523023 1.33762273 99.44789592 3.0625 98.25 C14.75569491 89.89557906 25.22938946 79.83700784 28 65 C29.41661644 43.28628905 21.56878527 26.65420528 8.4921875 9.8046875 C6.59319733 7.66757944 4.89386602 6.02310269 2.6953125 4.2578125 C1.80585938 3.51273437 0.91640625 2.76765625 0 2 C0 1.34 0 0.68 0 0 Z " fill="#B75548" transform="translate(186,386)"/>
</svg>
