<?xml version="1.0" encoding="UTF-8"?>
<svg version="1.1" xmlns="http://www.w3.org/2000/svg" width="512" height="512">
<path d="M0 0 C1.9375 1.625 1.9375 1.625 3 4 C3.1875 7.5 3.1875 7.5 3 11 C2.55169183 15.12231993 2.55169183 15.12231993 5.484375 17.734375 C6.56741817 18.74550518 7.65627672 19.75043203 8.75 20.75 C15.72404028 27.4945509 19.08651911 31.88079462 19.625 41.875 C19.41402241 48.8975397 17.56319464 53.67453257 13 59 C7.45323151 63.72065404 1.7633021 65.27565921 -5.4375 64.9375 C-11.95462435 64.19447621 -16.28986953 61.39129159 -21.125 57.125 C-23.0836338 55.70972474 -23.0836338 55.70972474 -26.125 56.1875 C-29.10154442 56.77610918 -29.10154442 56.77610918 -31 59 C-31.62701611 61.83197691 -31.62701611 61.83197691 -31 65 C-29.21361208 67.25978072 -27.59744784 69.02006516 -25.5 70.9375 C-24.94610596 71.46617676 -24.39221191 71.99485352 -23.8215332 72.53955078 C-20.40757307 75.7750844 -16.90671793 78.90860823 -13.328125 81.9609375 C-9.96676842 84.90494443 -6.70468872 87.95221664 -3.4375 91 C-2.49910278 91.87277588 -2.49910278 91.87277588 -1.54174805 92.76318359 C0.31518191 94.49885561 2.15942631 96.24700298 4 98 C4.62914307 98.59055176 5.25828613 99.18110352 5.90649414 99.78955078 C9.47872794 103.22564115 12.13769738 106.35386103 14.3125 110.875 C14.78300781 111.82117188 15.25351562 112.76734375 15.73828125 113.7421875 C18.38785211 120.5834943 19.29918209 127.27185952 19.2746582 134.57055664 C19.27976913 135.37522369 19.28488007 136.17989075 19.29014587 137.00894165 C19.30392982 139.64275774 19.3030926 142.27630859 19.30078125 144.91015625 C19.3046763 146.764685 19.30901261 148.61921287 19.31376648 150.47373962 C19.32120619 154.35451145 19.32095523 158.23519228 19.31567383 162.1159668 C19.30990359 167.04557025 19.32676187 171.97479498 19.3500185 176.90433598 C19.36488658 180.73522556 19.36560959 184.56602689 19.36250877 188.39694023 C19.36301615 190.2118854 19.36814193 192.0268363 19.37832069 193.84175301 C19.47997048 214.51122031 16.31132153 232.62207289 4.671875 250.125 C2.9533854 253.08015969 2.25412194 254.61938127 2 258 C2.88000318 260.66073059 3.82211109 263.07509194 4.96484375 265.6171875 C5.6068796 267.12728135 6.24812926 268.63770965 6.88867188 270.1484375 C7.90317937 272.50028353 8.92549883 274.84793099 9.96362305 277.18945312 C14.853604 288.28962723 18.95209513 298.88223712 15.00219727 311.08178711 C12.45500047 316.59476808 9.04597923 321.41407765 5.4765625 326.30078125 C1.65175029 331.59499521 -2.0096544 336.97531508 -5.578125 342.4453125 C-6.04388947 343.15660812 -6.50965393 343.86790375 -6.98953247 344.60075378 C-8.89910658 347.51875397 -10.80664839 350.43783492 -12.69726562 353.36816406 C-14.10526796 355.54685238 -15.52785739 357.71539241 -16.953125 359.8828125 C-17.37200989 360.54008331 -17.79089478 361.19735413 -18.22247314 361.87454224 C-20.95006735 365.99005247 -23.43161585 368.82844661 -28 371 C-31.48891648 371.54059605 -34.91257981 371.53749768 -38.4375 371.49609375 C-39.43579834 371.49754898 -40.43409668 371.49900421 -41.46264648 371.50050354 C-43.56724983 371.49884814 -45.67186573 371.4873272 -47.77636719 371.46655273 C-50.98945782 371.43759501 -54.20089737 371.44595271 -57.4140625 371.45898438 C-59.46354965 371.45274644 -61.51303161 371.44435507 -63.5625 371.43359375 C-64.51890381 371.43652939 -65.47530762 371.43946503 -66.46069336 371.44248962 C-71.71355772 371.36855151 -75.47154564 370.96439727 -80 368 C-83.28985858 364.05216971 -83.30446506 361.0243186 -83 356 C-82.23703006 353.37117728 -81.42835193 350.93431958 -80.4375 348.3984375 C-80.17019073 347.68749435 -79.90288147 346.97655121 -79.62747192 346.24406433 C-78.76213874 343.95024289 -77.88101642 341.66283737 -77 339.375 C-76.40363274 337.79853117 -75.80842249 336.22162418 -75.21435547 334.64428711 C-72.63015008 327.80026136 -69.99937951 320.97545108 -67.3203125 314.16796875 C-66.75376953 312.71801514 -66.75376953 312.71801514 -66.17578125 311.23876953 C-65.49400841 309.50233974 -64.8018881 307.7699237 -64.09765625 306.04248047 C-62.0149175 301.05242561 -62.0149175 301.05242561 -63 296 C-64.72410731 294.46701649 -64.72410731 294.46701649 -66.9296875 293.23828125 C-68.12271484 292.51995117 -68.12271484 292.51995117 -69.33984375 291.78710938 C-70.17644531 291.30048828 -71.01304687 290.81386719 -71.875 290.3125 C-72.70386719 289.81427734 -73.53273438 289.31605469 -74.38671875 288.80273438 C-79.02221624 286.04024631 -79.02221624 286.04024631 -84 284 C-83.67 284.9075 -83.34 285.815 -83 286.75 C-80.38373976 296.13441175 -81.7183166 304.40986253 -86 313 C-88.02865777 316.23039153 -90.28920999 319.23663811 -92.625 322.25 C-93.88754215 323.91995071 -95.14925654 325.59052756 -96.41015625 327.26171875 C-97.0252002 328.07044434 -97.64024414 328.87916992 -98.27392578 329.71240234 C-100.59514065 332.78875076 -102.83690162 335.91665315 -105.0625 339.0625 C-105.85151208 340.16800474 -106.64057559 341.27347277 -107.4296875 342.37890625 C-108.81911157 344.33061115 -110.20099691 346.28704053 -111.57519531 348.24951172 C-113.27151733 350.67191469 -114.97912236 353.08608902 -116.6875 355.5 C-117.21029541 356.25418213 -117.73309082 357.00836426 -118.27172852 357.78540039 C-122.1853355 363.2893141 -126.41180574 368.80393525 -133 371 C-135.67274304 371.120773 -138.31862757 371.1881012 -140.9921875 371.203125 C-141.77514191 371.20882507 -142.55809631 371.21452515 -143.36477661 371.22039795 C-145.02067721 371.22983845 -146.67659651 371.23637816 -148.33251953 371.24023438 C-150.85873366 371.24993752 -153.38413308 371.28096782 -155.91015625 371.3125 C-157.52082851 371.31903075 -159.13150658 371.32428094 -160.7421875 371.328125 C-161.49442596 371.3404718 -162.24666443 371.3528186 -163.021698 371.36553955 C-168.48886605 371.3424527 -171.48067002 370.14179659 -175.58030701 366.6565094 C-178.20565011 363.59323758 -178.12572807 359.90478839 -178 356 C-177.29154291 353.05995665 -176.11788054 350.46053246 -174.81640625 347.73828125 C-174.12939692 346.1908264 -173.44255326 344.64329799 -172.75585938 343.09570312 C-171.66606864 340.70773978 -170.56781558 338.32396374 -169.46362305 335.94262695 C-164.70273787 325.58890936 -161.72447644 317.60386765 -163 306 C-164.175625 306.33 -165.35125 306.66 -166.5625 307 C-170.48910347 307.95736975 -173.9413972 308.45946447 -178 308 C-180.9375 306.125 -180.9375 306.125 -183 304 C-183 303.34 -183 302.68 -183 302 C-188.28 302.66 -193.56 303.32 -199 304 C-199.66 305.98 -200.32 307.96 -201 310 C-203.92853524 312.21210563 -206.63059162 312.2567288 -210.2265625 312.265625 C-211.25080322 312.26949219 -212.27504395 312.27335937 -213.33032227 312.27734375 C-214.96118774 312.26380859 -214.96118774 312.26380859 -216.625 312.25 C-217.73480225 312.24613281 -218.84460449 312.24226563 -219.98803711 312.23828125 C-229.42448184 312.14044497 -238.66494008 311.33528316 -248 310 C-247.97679687 310.90492188 -247.95359375 311.80984375 -247.9296875 312.7421875 C-247.75885575 322.98691586 -248.11982793 333.21377468 -248.63677979 343.44390869 C-248.71198147 344.97563123 -248.78083707 346.5076791 -248.84320068 348.03997803 C-248.93445635 350.23112344 -249.05017394 352.41973456 -249.171875 354.609375 C-249.2661377 356.5270166 -249.2661377 356.5270166 -249.36230469 358.48339844 C-250.27714784 363.52834515 -252.29811129 366.57587096 -256.2109375 369.85009766 C-260.00971078 371.41629357 -263.5824771 371.42952352 -267.625 371.3984375 C-268.8617749 371.40274277 -268.8617749 371.40274277 -270.12353516 371.40713501 C-271.86166066 371.40917072 -273.59980933 371.4036754 -275.33789062 371.39111328 C-277.99140879 371.375052 -280.64340395 371.39097809 -283.296875 371.41015625 C-284.98958668 371.40817373 -286.68229742 371.40432987 -288.375 371.3984375 C-289.16471191 371.40451019 -289.95442383 371.41058289 -290.76806641 371.4168396 C-295.36894007 371.35838241 -298.32874538 370.82301785 -302 368 C-306.13593005 363.74383942 -308.3096396 358.5173425 -310.75 353.1875 C-311.16121094 352.30384766 -311.57242188 351.42019531 -311.99609375 350.50976562 C-313.00353459 348.34259637 -314.00460698 346.17272247 -315 344 C-315.15033691 344.86951294 -315.15033691 344.86951294 -315.30371094 345.7565918 C-315.7703434 348.40322318 -316.25992417 351.04511352 -316.75 353.6875 C-316.90726563 354.59951172 -317.06453125 355.51152344 -317.2265625 356.45117188 C-318.19339039 361.56420401 -319.00878669 365.36053031 -323 369 C-327.66217442 371.51241254 -332.26821361 371.32274748 -337.4296875 371.3359375 C-338.33824493 371.3425943 -339.24680237 371.3492511 -340.18289185 371.35610962 C-342.10091128 371.36621345 -344.0189657 371.37092734 -345.93701172 371.37060547 C-348.85834187 371.37497508 -351.77815597 371.41130845 -354.69921875 371.44921875 C-356.5677032 371.45508825 -358.43619478 371.45905675 -360.3046875 371.4609375 C-361.17157196 371.47530853 -362.03845642 371.48967957 -362.93161011 371.50448608 C-368.77112183 371.46089007 -372.25954111 370.48768356 -377 367 C-378.78147618 364.1618938 -379.25180343 362.01196605 -379.24584961 358.68676758 C-379.24694229 357.83773361 -379.24803497 356.98869965 -379.24916077 356.11393738 C-379.23783615 355.19590836 -379.22651154 354.27787933 -379.21484375 353.33203125 C-379.2083934 352.36481644 -379.20194305 351.39760162 -379.19529724 350.40107727 C-379.07261188 339.88192447 -378.46193241 329.3946912 -377.77319336 318.8996582 C-377.55971954 315.64511014 -377.35621824 312.39004913 -377.15429688 309.13476562 C-377.02139755 307.03121428 -376.88795444 304.9276972 -376.75390625 302.82421875 C-376.6934462 301.86787033 -376.63298615 300.91152191 -376.57069397 299.92619324 C-376.19695774 294.26079373 -375.66786134 288.63847791 -375 283 C-376.84464844 282.83564453 -376.84464844 282.83564453 -378.7265625 282.66796875 C-380.35943595 282.50843514 -381.99224526 282.34824407 -383.625 282.1875 C-384.83736328 282.08211914 -384.83736328 282.08211914 -386.07421875 281.97460938 C-390.8932951 281.48486584 -394.98020911 280.92290789 -399 278 C-399.875 274.8125 -399.875 274.8125 -400 272 C-402.60376274 271.72434273 -405.20455968 271.47872735 -407.8125 271.25 C-408.55048828 271.16878906 -409.28847656 271.08757812 -410.04882812 271.00390625 C-412.47723115 270.76041729 -412.47723115 270.76041729 -416 271 C-417.03040797 272.30997603 -418.02958388 273.64498327 -419 275 C-424.76977703 276.31494386 -429.53907321 275.76121337 -435.3125 274.625 C-442.17409807 273.40159857 -448.92224875 272.85393253 -455.87890625 272.71484375 C-456.65746475 272.69905273 -457.43602325 272.68326172 -458.23817444 272.66699219 C-462.17261865 272.59664356 -466.10524257 272.5602674 -470.0402832 272.55517578 C-471.51383766 272.53834912 -472.98738927 272.52126995 -474.4609375 272.50390625 C-475.76853027 272.50205322 -477.07612305 272.5002002 -478.42333984 272.49829102 C-483.76516745 271.75408145 -486.80523181 269.35622336 -490.3125 265.375 C-492.63661465 262.10402382 -493.13007512 260.41932208 -493.17700195 256.46191406 C-493.19625481 255.04969574 -493.19625481 255.04969574 -493.21589661 253.60894775 C-493.22328354 252.58815125 -493.23067047 251.56735474 -493.23828125 250.515625 C-493.246353 249.46727478 -493.25442474 248.41892456 -493.26274109 247.33880615 C-493.27658934 245.11618711 -493.28730817 242.89354673 -493.29516602 240.67089844 C-493.31236024 237.27758223 -493.35623845 233.88524484 -493.40039062 230.4921875 C-493.41051905 228.3333405 -493.41903468 226.17448522 -493.42578125 224.015625 C-493.44328934 223.00292542 -493.46079742 221.99022583 -493.47883606 220.94683838 C-493.4604564 214.952855 -492.97752792 211.57040901 -489 207 C-484.8088432 203.30779044 -482.53614834 201.87048191 -476.9921875 201.90234375 C-476.00605469 201.90556641 -475.01992188 201.90878906 -474.00390625 201.91210938 C-472.97136719 201.92048828 -471.93882812 201.92886719 -470.875 201.9375 C-469.31458984 201.94426758 -469.31458984 201.94426758 -467.72265625 201.95117188 C-465.14838038 201.96298048 -462.57421854 201.97944925 -460 202 C-459.73823975 201.15429443 -459.47647949 200.30858887 -459.20678711 199.43725586 C-457.93806092 195.82358077 -456.38212133 192.4318778 -454.69140625 189.00390625 C-454.36881332 188.34195251 -454.0462204 187.67999878 -453.71385193 186.99798584 C-452.66683366 184.85112793 -451.61476945 182.70678826 -450.5625 180.5625 C-449.10401385 177.57883463 -447.64770403 174.59410896 -446.19140625 171.609375 C-445.83035797 170.87032425 -445.46930969 170.1312735 -445.09732056 169.36982727 C-442.47285384 163.99102477 -439.90123207 158.58879142 -437.35058594 153.17456055 C-430.94969049 139.61026241 -424.16985789 126.95008076 -415 115 C-416.9590858 113.51980184 -418.92223741 112.05478012 -420.9296875 110.640625 C-429.78969545 104.3069647 -435.72966171 96.85705664 -438 86 C-438.27644055 81.71193043 -438.27728671 77.42102084 -438.3125 73.125 C-438.34150391 71.95324219 -438.37050781 70.78148437 -438.40039062 69.57421875 C-438.48113504 58.63024461 -438.48113504 58.63024461 -434 54 C-430.90277179 52.08633578 -428.51410957 51.73677961 -424.89941406 51.69360352 C-423.88445862 51.67761612 -422.86950317 51.66162872 -421.8237915 51.64515686 C-420.73209656 51.63979416 -419.64040161 51.63443146 -418.515625 51.62890625 C-417.38606384 51.61987778 -416.25650269 51.6108493 -415.0927124 51.60154724 C-412.70213471 51.58704096 -410.31151729 51.57815707 -407.92089844 51.57446289 C-404.2773067 51.56258899 -400.63542075 51.51342262 -396.9921875 51.46289062 C-394.66667491 51.45342356 -392.34115194 51.44618988 -390.015625 51.44140625 C-388.39022797 51.41210777 -388.39022797 51.41210777 -386.73199463 51.38221741 C-378.41405472 51.43141549 -373.55012707 53.54329733 -367.625 59.3125 C-365.51498257 62.80214421 -364.93044786 66.03143762 -364 70 C-362.99324219 69.43152344 -361.98648438 68.86304688 -360.94921875 68.27734375 C-332.48829929 52.52133486 -302.0949245 45.86724518 -269.68188477 45.83886719 C-268.28922905 45.83422548 -266.89657458 45.82919907 -265.50392151 45.82382202 C-261.76061453 45.81084285 -258.01732535 45.80428409 -254.27399945 45.79981136 C-251.93143751 45.79686245 -249.58888027 45.79275483 -247.24632072 45.78830719 C-239.90419814 45.7746826 -232.5620865 45.76498635 -225.21995217 45.7611053 C-216.76478681 45.75660952 -208.3097819 45.73897058 -199.85466534 45.7101047 C-193.29813291 45.68850037 -186.74164574 45.67840201 -180.18507808 45.67706418 C-176.2765516 45.67601706 -172.36817701 45.67012666 -168.45968819 45.65224457 C-164.79138546 45.63578109 -161.1233493 45.63359977 -157.45502281 45.64238358 C-155.47009723 45.64352158 -153.48518052 45.62979883 -151.50030518 45.6156311 C-150.3159639 45.62120026 -149.13162262 45.62676941 -147.91139221 45.63250732 C-146.37094915 45.63030748 -146.37094915 45.63030748 -144.79938602 45.6280632 C-141.45251541 46.07274083 -139.61610685 46.86524165 -137 49 C-136.67 50.65 -136.34 52.3 -136 54 C-130.72 54 -125.44 54 -120 54 C-119.67 52.35 -119.34 50.7 -119 49 C-114.77440745 45.18828362 -110.12287504 45.5788188 -104.74609375 45.63671875 C-103.84939468 45.63622025 -102.95269562 45.63572174 -102.02882385 45.63520813 C-100.1317422 45.63754488 -98.23465722 45.64724988 -96.33764648 45.66381836 C-93.47155117 45.68722195 -90.60639984 45.6843993 -87.74023438 45.67773438 C-75.65098067 45.69513259 -64.07485327 45.94734321 -52.75 50.625 C-51.65171875 51.07101563 -50.5534375 51.51703125 -49.421875 51.9765625 C-48.62265625 52.31429687 -47.8234375 52.65203125 -47 53 C-46.484375 52.13375 -45.96875 51.2675 -45.4375 50.375 C-41.67350053 44.76225168 -36.73892754 40.34778551 -30 39 C-22.98210866 38.13292462 -17.21349005 39.67938485 -11 43 C-9.63015802 44.29579647 -8.2848951 45.61992749 -7 47 C-4.55460214 48.07272562 -4.55460214 48.07272562 -2 48 C0.42304368 47.0785608 0.42304368 47.0785608 2 45 C2.92119564 42.21893503 2.92119564 42.21893503 2 39 C-1.64558408 33.68031084 -6.6466687 29.28489656 -11.30078125 24.859375 C-15.30484929 20.47791204 -15.42806298 16.52257921 -15.3203125 10.765625 C-14.76481068 5.96934097 -12.9686113 2.62919556 -9.1875 -0.5 C-5.83755535 -1.26570163 -3.30980488 -0.84249579 0 0 Z " fill="#FEC3C7" transform="translate(493,71)"/>
<path d="M0 0 C1.9375 1.625 1.9375 1.625 3 4 C3.1875 7.5 3.1875 7.5 3 11 C2.55169183 15.12231993 2.55169183 15.12231993 5.484375 17.734375 C6.56741817 18.74550518 7.65627672 19.75043203 8.75 20.75 C15.72404028 27.4945509 19.08651911 31.88079462 19.625 41.875 C19.41402241 48.8975397 17.56319464 53.67453257 13 59 C7.45323151 63.72065404 1.7633021 65.27565921 -5.4375 64.9375 C-11.95462435 64.19447621 -16.28986953 61.39129159 -21.125 57.125 C-23.0836338 55.70972474 -23.0836338 55.70972474 -26.125 56.1875 C-29.10154442 56.77610918 -29.10154442 56.77610918 -31 59 C-31.62701611 61.83197691 -31.62701611 61.83197691 -31 65 C-29.21361208 67.25978072 -27.59744784 69.02006516 -25.5 70.9375 C-24.94610596 71.46617676 -24.39221191 71.99485352 -23.8215332 72.53955078 C-20.40757307 75.7750844 -16.90671793 78.90860823 -13.328125 81.9609375 C-9.96676842 84.90494443 -6.70468872 87.95221664 -3.4375 91 C-2.49910278 91.87277588 -2.49910278 91.87277588 -1.54174805 92.76318359 C0.31518191 94.49885561 2.15942631 96.24700298 4 98 C4.62914307 98.59055176 5.25828613 99.18110352 5.90649414 99.78955078 C9.47872794 103.22564115 12.13769738 106.35386103 14.3125 110.875 C14.78300781 111.82117188 15.25351562 112.76734375 15.73828125 113.7421875 C18.38785211 120.5834943 19.29918209 127.27185952 19.2746582 134.57055664 C19.27976913 135.37522369 19.28488007 136.17989075 19.29014587 137.00894165 C19.30392982 139.64275774 19.3030926 142.27630859 19.30078125 144.91015625 C19.3046763 146.764685 19.30901261 148.61921287 19.31376648 150.47373962 C19.32120619 154.35451145 19.32095523 158.23519228 19.31567383 162.1159668 C19.30990359 167.04557025 19.32676187 171.97479498 19.3500185 176.90433598 C19.36488658 180.73522556 19.36560959 184.56602689 19.36250877 188.39694023 C19.36301615 190.2118854 19.36814193 192.0268363 19.37832069 193.84175301 C19.47997048 214.51122031 16.31132153 232.62207289 4.671875 250.125 C2.9533854 253.08015969 2.25412194 254.61938127 2 258 C2.88000318 260.66073059 3.82211109 263.07509194 4.96484375 265.6171875 C5.6068796 267.12728135 6.24812926 268.63770965 6.88867188 270.1484375 C7.90317937 272.50028353 8.92549883 274.84793099 9.96362305 277.18945312 C14.853604 288.28962723 18.95209513 298.88223712 15.00219727 311.08178711 C12.45500047 316.59476808 9.04597923 321.41407765 5.4765625 326.30078125 C1.65175029 331.59499521 -2.0096544 336.97531508 -5.578125 342.4453125 C-6.04388947 343.15660812 -6.50965393 343.86790375 -6.98953247 344.60075378 C-8.89910658 347.51875397 -10.80664839 350.43783492 -12.69726562 353.36816406 C-14.10526796 355.54685238 -15.52785739 357.71539241 -16.953125 359.8828125 C-17.37200989 360.54008331 -17.79089478 361.19735413 -18.22247314 361.87454224 C-20.95006735 365.99005247 -23.43161585 368.82844661 -28 371 C-31.48891648 371.54059605 -34.91257981 371.53749768 -38.4375 371.49609375 C-39.43579834 371.49754898 -40.43409668 371.49900421 -41.46264648 371.50050354 C-43.56724983 371.49884814 -45.67186573 371.4873272 -47.77636719 371.46655273 C-50.98945782 371.43759501 -54.20089737 371.44595271 -57.4140625 371.45898438 C-59.46354965 371.45274644 -61.51303161 371.44435507 -63.5625 371.43359375 C-64.51890381 371.43652939 -65.47530762 371.43946503 -66.46069336 371.44248962 C-71.71355772 371.36855151 -75.47154564 370.96439727 -80 368 C-83.28985858 364.05216971 -83.30446506 361.0243186 -83 356 C-82.23703006 353.37117728 -81.42835193 350.93431958 -80.4375 348.3984375 C-80.17019073 347.68749435 -79.90288147 346.97655121 -79.62747192 346.24406433 C-78.76213874 343.95024289 -77.88101642 341.66283737 -77 339.375 C-76.40363274 337.79853117 -75.80842249 336.22162418 -75.21435547 334.64428711 C-72.63015008 327.80026136 -69.99937951 320.97545108 -67.3203125 314.16796875 C-66.75376953 312.71801514 -66.75376953 312.71801514 -66.17578125 311.23876953 C-65.49400841 309.50233974 -64.8018881 307.7699237 -64.09765625 306.04248047 C-62.0149175 301.05242561 -62.0149175 301.05242561 -63 296 C-64.72410731 294.46701649 -64.72410731 294.46701649 -66.9296875 293.23828125 C-68.12271484 292.51995117 -68.12271484 292.51995117 -69.33984375 291.78710938 C-70.17644531 291.30048828 -71.01304687 290.81386719 -71.875 290.3125 C-72.70386719 289.81427734 -73.53273438 289.31605469 -74.38671875 288.80273438 C-79.02221624 286.04024631 -79.02221624 286.04024631 -84 284 C-83.67 284.9075 -83.34 285.815 -83 286.75 C-80.38373976 296.13441175 -81.7183166 304.40986253 -86 313 C-88.02865777 316.23039153 -90.28920999 319.23663811 -92.625 322.25 C-93.88754215 323.91995071 -95.14925654 325.59052756 -96.41015625 327.26171875 C-97.0252002 328.07044434 -97.64024414 328.87916992 -98.27392578 329.71240234 C-100.59514065 332.78875076 -102.83690162 335.91665315 -105.0625 339.0625 C-105.85151208 340.16800474 -106.64057559 341.27347277 -107.4296875 342.37890625 C-108.81911157 344.33061115 -110.20099691 346.28704053 -111.57519531 348.24951172 C-113.27151733 350.67191469 -114.97912236 353.08608902 -116.6875 355.5 C-117.21029541 356.25418213 -117.73309082 357.00836426 -118.27172852 357.78540039 C-122.1853355 363.2893141 -126.41180574 368.80393525 -133 371 C-135.67274304 371.120773 -138.31862757 371.1881012 -140.9921875 371.203125 C-141.77514191 371.20882507 -142.55809631 371.21452515 -143.36477661 371.22039795 C-145.02067721 371.22983845 -146.67659651 371.23637816 -148.33251953 371.24023438 C-150.85873366 371.24993752 -153.38413308 371.28096782 -155.91015625 371.3125 C-157.52082851 371.31903075 -159.13150658 371.32428094 -160.7421875 371.328125 C-161.49442596 371.3404718 -162.24666443 371.3528186 -163.021698 371.36553955 C-168.48886605 371.3424527 -171.48067002 370.14179659 -175.58030701 366.6565094 C-178.20565011 363.59323758 -178.12572807 359.90478839 -178 356 C-177.29154291 353.05995665 -176.11788054 350.46053246 -174.81640625 347.73828125 C-174.12939692 346.1908264 -173.44255326 344.64329799 -172.75585938 343.09570312 C-171.66606864 340.70773978 -170.56781558 338.32396374 -169.46362305 335.94262695 C-164.70273787 325.58890936 -161.72447644 317.60386765 -163 306 C-164.175625 306.33 -165.35125 306.66 -166.5625 307 C-171.8018752 308.27744484 -176.03908517 309.08476139 -180.9375 306.375 C-183 304 -183 304 -183.5625 301.0625 C-182.84530987 297.15779817 -181.86538461 295.76399407 -179 293 C-176.01589628 291.85860052 -172.94679687 291.33315196 -169.8125 290.75 C-150.0202254 286.53089177 -124.5718385 279.6406853 -109 266 C-109.58007812 265.64808594 -110.16015625 265.29617188 -110.7578125 264.93359375 C-120.39232941 258.84445187 -125.89974075 252.15118676 -129 241 C-129.75805756 235.19425565 -129.67985296 229.34336371 -129.59692383 223.49926758 C-129.56242184 220.80639969 -129.57636451 218.11679159 -129.59570312 215.42382812 C-129.58880735 213.68488208 -129.5791374 211.94594436 -129.56640625 210.20703125 C-129.57136612 209.4161763 -129.57632599 208.62532135 -129.58143616 207.8105011 C-129.38849516 198.5338121 -125.15691476 190.78904153 -119 184 C-116.6047003 181.82804135 -114.07294605 179.93217494 -111.4375 178.0625 C-110.74148682 177.5581543 -110.04547363 177.05380859 -109.32836914 176.53417969 C-107.90890993 175.50920355 -106.48567334 174.48943703 -105.05859375 173.47509766 C-103.12144666 172.08702333 -101.2146794 170.66590969 -99.3125 169.23046875 C-98.1882947 168.40256562 -97.06333802 167.57568147 -95.9375 166.75 C-94.95652344 166.02296875 -93.97554688 165.2959375 -92.96484375 164.546875 C-89.36816876 162.67034892 -87.0052443 162.58993927 -83 163 C-80.5625 164.625 -80.5625 164.625 -79 167 C-78.4375 169.9375 -78.4375 169.9375 -79 173 C-83.00852961 177.62522647 -87.90138259 180.98008357 -92.875 184.5 C-93.65230469 185.05558594 -94.42960937 185.61117187 -95.23046875 186.18359375 C-95.99746094 186.73144531 -96.76445312 187.27929688 -97.5546875 187.84375 C-98.30588867 188.38257813 -99.05708984 188.92140625 -99.83105469 189.4765625 C-101.19799375 190.43668179 -102.58239895 191.37282682 -103.98925781 192.2734375 C-104.59350586 192.66789063 -105.19775391 193.06234375 -105.8203125 193.46875 C-106.34125488 193.79294922 -106.86219727 194.11714844 -107.39892578 194.45117188 C-111.1997499 198.12796788 -112.8409416 201.76468516 -113.50170898 206.89648438 C-113.52107655 208.29544011 -113.51830647 209.69483655 -113.49609375 211.09375 C-113.49754898 211.84410522 -113.49900421 212.59446045 -113.50050354 213.36755371 C-113.4988535 214.94413155 -113.48739316 216.52072701 -113.46655273 218.09716797 C-113.43757413 220.49386865 -113.44596629 222.88835506 -113.45898438 225.28515625 C-113.45274605 226.82553145 -113.44435437 228.36589975 -113.43359375 229.90625 C-113.43799721 230.96749084 -113.43799721 230.96749084 -113.44248962 232.0501709 C-113.32732669 238.20231285 -111.84206379 242.74007674 -107.93359375 247.53515625 C-103.89203607 250.93092575 -99.54386553 253.65975848 -95.0625 256.4375 C-93.08452825 257.67951685 -91.10666686 258.92170947 -89.12890625 260.1640625 C-88.11586426 260.79731445 -87.10282227 261.43056641 -86.05908203 262.08300781 C-81.18998054 265.1342596 -76.34521141 268.22350358 -71.5 271.3125 C-69.67975572 272.47276328 -67.85944516 273.63292259 -66.0390625 274.79296875 C-65.18473633 275.33743652 -64.33041016 275.8819043 -63.45019531 276.44287109 C-61.18696434 277.88118189 -58.91878976 279.31124801 -56.6484375 280.73828125 C-55.39060931 281.53382936 -54.13279556 282.3294003 -52.875 283.125 C-51.82054687 283.78757812 -50.76609375 284.45015625 -49.6796875 285.1328125 C-44.63670529 288.64672722 -44.63670529 288.64672722 -43 291 C-42.8516642 298.60875423 -46.28263202 305.54077066 -49.0625 312.5 C-49.53494141 313.70398438 -50.00738281 314.90796875 -50.49414062 316.1484375 C-51.65458558 319.10229739 -52.82337843 322.05255501 -54 325 C-31.28129089 327.36193132 -31.28129089 327.36193132 -9.89648438 322.21826172 C-5.24173047 317.63302687 -2.8704606 312.17527066 -1 306 C-0.67 305.34 -0.34 304.68 0 304 C0.57344976 297.77966303 -1.10594958 293.40027099 -3.5 287.8125 C-3.85513672 286.95116455 -4.21027344 286.0898291 -4.57617188 285.20239258 C-5.70586738 282.46327807 -6.85090524 279.73102807 -8 277 C-9.51409332 273.40148794 -11.0118492 269.79680586 -12.5 266.1875 C-12.84998047 265.37063721 -13.19996094 264.55377441 -13.56054688 263.7121582 C-15.51178124 258.97491844 -16.53394542 255.21983388 -16 250 C-14.4609375 247.55078125 -14.4609375 247.55078125 -12.375 245.3125 C0.84539538 229.80306089 2.63098695 211.911172 2.56640625 192.41796875 C2.57165531 190.46795864 2.57793643 188.51795107 2.58518982 186.56794739 C2.59552281 182.5094495 2.59113104 178.45130386 2.57641602 174.39282227 C2.5591658 169.21367571 2.58283778 164.03563223 2.61790562 158.85660839 C2.63993637 154.84062978 2.63842562 150.82491343 2.6301403 146.8088932 C2.62932531 144.89966935 2.63610144 142.99042536 2.65091133 141.08125877 C2.72798068 129.36015647 2.53183876 120.06118219 -5.61328125 110.86328125 C-6.50402344 110.02152344 -7.39476562 109.17976563 -8.3125 108.3125 C-8.79468994 107.85101563 -9.27687988 107.38953125 -9.77368164 106.9140625 C-13.04411499 103.80837417 -16.40650586 100.80733039 -19.8359375 97.87890625 C-23.62623493 94.58805235 -27.28778807 91.15397855 -30.97265625 87.74609375 C-31.46751034 87.30194547 -31.96236443 86.85779719 -32.4722141 86.40018988 C-33.51465687 85.44480875 -34.52866208 84.4576877 -35.51569808 83.44516611 C-39.36084316 79.71730632 -42.06466881 78.3105293 -47.42536008 78.21618795 C-48.6263756 78.24035717 -48.6263756 78.24035717 -49.85165405 78.26501465 C-50.71952061 78.25847697 -51.58738717 78.25193929 -52.48155272 78.2452035 C-55.37823334 78.23068368 -58.27287777 78.25891073 -61.16943359 78.28710938 C-63.25123437 78.28552688 -65.33303456 78.28133007 -67.41482544 78.27471924 C-73.06441478 78.26445654 -78.71327457 78.29151881 -84.36274672 78.32577324 C-90.28849441 78.35590193 -96.2142337 78.35349888 -102.14004517 78.35510254 C-112.10179027 78.36248802 -122.06325985 78.39240818 -132.02490234 78.4375 C-144.76998584 78.49507754 -157.51484655 78.51593372 -170.26004601 78.5248642 C-181.25480473 78.53286142 -192.24951599 78.55787075 -203.24424028 78.58555794 C-206.75769854 78.59371347 -210.27115516 78.59958657 -213.78461838 78.60514832 C-219.3349155 78.6150279 -224.88508213 78.63558855 -230.43531418 78.66402435 C-232.4599896 78.67297488 -234.48468242 78.67872466 -236.50937653 78.68083954 C-253.11867421 78.70205846 -268.93540216 79.78987016 -285.0625 84.125 C-286.13048828 84.40214844 -287.19847656 84.67929688 -288.29882812 84.96484375 C-290.86869676 85.63324008 -293.43545902 86.31150219 -296 87 C-294.2984375 87.12955078 -294.2984375 87.12955078 -292.5625 87.26171875 C-282.40871726 88.15777319 -275.15405156 89.21610541 -268.0625 97.0625 C-265.25993884 101.0540265 -265.25993884 101.0540265 -265 104 C-264.938125 104.62132812 -264.87625 105.24265625 -264.8125 105.8828125 C-264.59980106 109.48540075 -264.61905478 111.41393043 -266.625 114.5 C-269.76313998 116.48198314 -271.34873465 116.67064058 -275 116 C-279.47232724 112.54411077 -280.13169429 110.60491713 -282 105 C-302.295 104.505 -302.295 104.505 -323 104 C-322.85183017 118.18848713 -322.85183017 118.18848713 -317 130 C-310.60167766 135.46663681 -305.29707768 137.13013456 -296.97265625 137.17578125 C-295.36001291 137.19897396 -293.74738265 137.22309108 -292.13476562 137.24804688 C-289.59569465 137.28319228 -287.05710719 137.31252846 -284.51782227 137.32592773 C-282.06467508 137.34140125 -279.61293231 137.38159544 -277.16015625 137.42578125 C-276.4027565 137.42387283 -275.64535675 137.42196442 -274.86500549 137.41999817 C-271.36610703 137.50117882 -269.3626209 137.72859773 -266.52514648 139.85229492 C-265 142 -265 142 -264.4375 144.9375 C-265.20254478 149.10274383 -266.71091672 150.37805754 -270 153 C-272.7754085 153.49005676 -274.92321793 153.68133792 -277.6875 153.62890625 C-278.79593262 153.63252419 -278.79593262 153.63252419 -279.92675781 153.63621521 C-281.49012617 153.6352381 -283.0535297 153.62187659 -284.61669922 153.59692383 C-286.96577129 153.56299439 -289.31099185 153.57617208 -291.66015625 153.59570312 C-304.99461194 153.58378743 -317.12698872 151.73776455 -327 142 C-336.06191721 132.63181521 -338.54810018 121.74357481 -339 109 C-363.8500307 125.93188465 -381.42510336 148.66548738 -394.73046875 175.375 C-395.07330399 176.06173798 -395.41613922 176.74847595 -395.7693634 177.45602417 C-398.26317929 182.47133229 -400.69683253 187.51363351 -403.10546875 192.5703125 C-403.44223633 193.27541962 -403.77900391 193.98052673 -404.12597656 194.70700073 C-406.18303026 199.01380435 -406.18303026 199.01380435 -408.22631836 203.32714844 C-409.24059809 205.4745856 -410.26579481 207.61651906 -411.29296875 209.7578125 C-411.59204636 210.39848663 -411.89112396 211.03916077 -412.19926453 211.69924927 C-416.83281163 221.28649475 -424.58665641 228.25561619 -434.625 231.9375 C-438.83650866 233.16867187 -442.63465427 233.23810977 -447 233 C-447.103125 233.928125 -447.20625 234.85625 -447.3125 235.8125 C-448 239 -448 239 -449.0625 240.875 C-452.14465242 242.66463689 -455.53550716 242.71245619 -459 242 C-461.24324474 240.31235556 -461.93461362 239.45311123 -462.34057617 236.63989258 C-462.32486572 235.73392334 -462.30915527 234.8279541 -462.29296875 233.89453125 C-462.28330078 232.91162109 -462.27363281 231.92871094 -462.26367188 230.91601562 C-462.23853516 229.89185547 -462.21339844 228.86769531 -462.1875 227.8125 C-462.17396484 226.77673828 -462.16042969 225.74097656 -462.14648438 224.67382812 C-462.11111805 222.11566388 -462.05731096 219.55776671 -462 217 C-466.95 217.33 -471.9 217.66 -477 218 C-477 230.54 -477 243.08 -477 256 C-465.63427024 256.20875339 -465.63427024 256.20875339 -454.26806641 256.38793945 C-446.13146 256.54537164 -438.13434537 257.0489812 -430.0859375 258.29296875 C-429.34526031 258.39966385 -428.60458313 258.50635895 -427.84146118 258.61628723 C-423.22856114 259.40716656 -420.27824627 260.63421451 -417 264 C-415.9641772 267.62537982 -415.5413505 269.83808792 -416.9375 273.375 C-419.97568016 275.76871771 -423.24690711 275.86349381 -427 276 C-429.81775486 275.62429935 -432.53093112 275.17241419 -435.3125 274.625 C-442.17409807 273.40159857 -448.92224875 272.85393253 -455.87890625 272.71484375 C-456.65746475 272.69905273 -457.43602325 272.68326172 -458.23817444 272.66699219 C-462.17261865 272.59664356 -466.10524257 272.5602674 -470.0402832 272.55517578 C-471.51383766 272.53834912 -472.98738927 272.52126995 -474.4609375 272.50390625 C-475.76853027 272.50205322 -477.07612305 272.5002002 -478.42333984 272.49829102 C-483.76516745 271.75408145 -486.80523181 269.35622336 -490.3125 265.375 C-492.63661465 262.10402382 -493.13007512 260.41932208 -493.17700195 256.46191406 C-493.19625481 255.04969574 -493.19625481 255.04969574 -493.21589661 253.60894775 C-493.22328354 252.58815125 -493.23067047 251.56735474 -493.23828125 250.515625 C-493.246353 249.46727478 -493.25442474 248.41892456 -493.26274109 247.33880615 C-493.27658934 245.11618711 -493.28730817 242.89354673 -493.29516602 240.67089844 C-493.31236024 237.27758223 -493.35623845 233.88524484 -493.40039062 230.4921875 C-493.41051905 228.3333405 -493.41903468 226.17448522 -493.42578125 224.015625 C-493.44328934 223.00292542 -493.46079742 221.99022583 -493.47883606 220.94683838 C-493.4604564 214.952855 -492.97752792 211.57040901 -489 207 C-484.8088432 203.30779044 -482.53614834 201.87048191 -476.9921875 201.90234375 C-476.00605469 201.90556641 -475.01992188 201.90878906 -474.00390625 201.91210938 C-472.97136719 201.92048828 -471.93882812 201.92886719 -470.875 201.9375 C-469.31458984 201.94426758 -469.31458984 201.94426758 -467.72265625 201.95117188 C-465.14838038 201.96298048 -462.57421854 201.97944925 -460 202 C-459.73823975 201.15429443 -459.47647949 200.30858887 -459.20678711 199.43725586 C-457.93806092 195.82358077 -456.38212133 192.4318778 -454.69140625 189.00390625 C-454.36881332 188.34195251 -454.0462204 187.67999878 -453.71385193 186.99798584 C-452.66683366 184.85112793 -451.61476945 182.70678826 -450.5625 180.5625 C-449.10401385 177.57883463 -447.64770403 174.59410896 -446.19140625 171.609375 C-445.83035797 170.87032425 -445.46930969 170.1312735 -445.09732056 169.36982727 C-442.47285384 163.99102477 -439.90123207 158.58879142 -437.35058594 153.17456055 C-430.94969049 139.61026241 -424.16985789 126.95008076 -415 115 C-416.9590858 113.51980184 -418.92223741 112.05478012 -420.9296875 110.640625 C-429.78969545 104.3069647 -435.72966171 96.85705664 -438 86 C-438.27644055 81.71193043 -438.27728671 77.42102084 -438.3125 73.125 C-438.34150391 71.95324219 -438.37050781 70.78148437 -438.40039062 69.57421875 C-438.48113504 58.63024461 -438.48113504 58.63024461 -434 54 C-430.90277179 52.08633578 -428.51410957 51.73677961 -424.89941406 51.69360352 C-423.88445862 51.67761612 -422.86950317 51.66162872 -421.8237915 51.64515686 C-420.73209656 51.63979416 -419.64040161 51.63443146 -418.515625 51.62890625 C-417.38606384 51.61987778 -416.25650269 51.6108493 -415.0927124 51.60154724 C-412.70213471 51.58704096 -410.31151729 51.57815707 -407.92089844 51.57446289 C-404.2773067 51.56258899 -400.63542075 51.51342262 -396.9921875 51.46289062 C-394.66667491 51.45342356 -392.34115194 51.44618988 -390.015625 51.44140625 C-388.39022797 51.41210777 -388.39022797 51.41210777 -386.73199463 51.38221741 C-378.41405472 51.43141549 -373.55012707 53.54329733 -367.625 59.3125 C-365.51498257 62.80214421 -364.93044786 66.03143762 -364 70 C-362.99324219 69.43152344 -361.98648438 68.86304688 -360.94921875 68.27734375 C-332.48829929 52.52133486 -302.0949245 45.86724518 -269.68188477 45.83886719 C-268.28922905 45.83422548 -266.89657458 45.82919907 -265.50392151 45.82382202 C-261.76061453 45.81084285 -258.01732535 45.80428409 -254.27399945 45.79981136 C-251.93143751 45.79686245 -249.58888027 45.79275483 -247.24632072 45.78830719 C-239.90419814 45.7746826 -232.5620865 45.76498635 -225.21995217 45.7611053 C-216.76478681 45.75660952 -208.3097819 45.73897058 -199.85466534 45.7101047 C-193.29813291 45.68850037 -186.74164574 45.67840201 -180.18507808 45.67706418 C-176.2765516 45.67601706 -172.36817701 45.67012666 -168.45968819 45.65224457 C-164.79138546 45.63578109 -161.1233493 45.63359977 -157.45502281 45.64238358 C-155.47009723 45.64352158 -153.48518052 45.62979883 -151.50030518 45.6156311 C-150.3159639 45.62120026 -149.13162262 45.62676941 -147.91139221 45.63250732 C-146.37094915 45.63030748 -146.37094915 45.63030748 -144.79938602 45.6280632 C-141.45251541 46.07274083 -139.61610685 46.86524165 -137 49 C-136.67 50.65 -136.34 52.3 -136 54 C-130.72 54 -125.44 54 -120 54 C-119.67 52.35 -119.34 50.7 -119 49 C-114.77440745 45.18828362 -110.12287504 45.5788188 -104.74609375 45.63671875 C-103.84939468 45.63622025 -102.95269562 45.63572174 -102.02882385 45.63520813 C-100.1317422 45.63754488 -98.23465722 45.64724988 -96.33764648 45.66381836 C-93.47155117 45.68722195 -90.60639984 45.6843993 -87.74023438 45.67773438 C-75.65098067 45.69513259 -64.07485327 45.94734321 -52.75 50.625 C-51.65171875 51.07101563 -50.5534375 51.51703125 -49.421875 51.9765625 C-48.62265625 52.31429687 -47.8234375 52.65203125 -47 53 C-46.484375 52.13375 -45.96875 51.2675 -45.4375 50.375 C-41.67350053 44.76225168 -36.73892754 40.34778551 -30 39 C-22.98210866 38.13292462 -17.21349005 39.67938485 -11 43 C-9.63015802 44.29579647 -8.2848951 45.61992749 -7 47 C-4.55460214 48.07272562 -4.55460214 48.07272562 -2 48 C0.42304368 47.0785608 0.42304368 47.0785608 2 45 C2.92119564 42.21893503 2.92119564 42.21893503 2 39 C-1.64558408 33.68031084 -6.6466687 29.28489656 -11.30078125 24.859375 C-15.30484929 20.47791204 -15.42806298 16.52257921 -15.3203125 10.765625 C-14.76481068 5.96934097 -12.9686113 2.62919556 -9.1875 -0.5 C-5.83755535 -1.26570163 -3.30980488 -0.84249579 0 0 Z " fill="#FBB3B9" transform="translate(493,71)"/>
<path d="M0 0 C1.9375 1.625 1.9375 1.625 3 4 C3.1875 7.5 3.1875 7.5 3 11 C2.55169183 15.12231993 2.55169183 15.12231993 5.484375 17.734375 C6.56741817 18.74550518 7.65627672 19.75043203 8.75 20.75 C15.72404028 27.4945509 19.08651911 31.88079462 19.625 41.875 C19.41402241 48.8975397 17.56319464 53.67453257 13 59 C7.45323151 63.72065404 1.7633021 65.27565921 -5.4375 64.9375 C-11.95462435 64.19447621 -16.28986953 61.39129159 -21.125 57.125 C-23.0836338 55.70972474 -23.0836338 55.70972474 -26.125 56.1875 C-29.10154442 56.77610918 -29.10154442 56.77610918 -31 59 C-31.62701611 61.83197691 -31.62701611 61.83197691 -31 65 C-29.21361208 67.25978072 -27.59744784 69.02006516 -25.5 70.9375 C-24.94610596 71.46617676 -24.39221191 71.99485352 -23.8215332 72.53955078 C-20.40757307 75.7750844 -16.90671793 78.90860823 -13.328125 81.9609375 C-9.96676842 84.90494443 -6.70468872 87.95221664 -3.4375 91 C-2.81190186 91.58185059 -2.18630371 92.16370117 -1.54174805 92.76318359 C0.31518191 94.49885561 2.15942631 96.24700298 4 98 C4.62914307 98.59055176 5.25828613 99.18110352 5.90649414 99.78955078 C9.47872794 103.22564115 12.13769738 106.35386103 14.3125 110.875 C14.78300781 111.82117188 15.25351562 112.76734375 15.73828125 113.7421875 C18.38785211 120.5834943 19.29918209 127.27185952 19.2746582 134.57055664 C19.27976913 135.37522369 19.28488007 136.17989075 19.29014587 137.00894165 C19.30392982 139.64275774 19.3030926 142.27630859 19.30078125 144.91015625 C19.3046763 146.764685 19.30901261 148.61921287 19.31376648 150.47373962 C19.32120619 154.35451145 19.32095523 158.23519228 19.31567383 162.1159668 C19.30990359 167.04557025 19.32676187 171.97479498 19.3500185 176.90433598 C19.36488658 180.73522556 19.36560959 184.56602689 19.36250877 188.39694023 C19.36301615 190.2118854 19.36814193 192.0268363 19.37832069 193.84175301 C19.47997048 214.51122031 16.31132153 232.62207289 4.671875 250.125 C2.9533854 253.08015969 2.25412194 254.61938127 2 258 C2.88000318 260.66073059 3.82211109 263.07509194 4.96484375 265.6171875 C5.6068796 267.12728135 6.24812926 268.63770965 6.88867188 270.1484375 C7.90317937 272.50028353 8.92549883 274.84793099 9.96362305 277.18945312 C14.853604 288.28962723 18.95209513 298.88223712 15.00219727 311.08178711 C12.45500047 316.59476808 9.04597923 321.41407765 5.4765625 326.30078125 C1.65175029 331.59499521 -2.0096544 336.97531508 -5.578125 342.4453125 C-6.04388947 343.15660812 -6.50965393 343.86790375 -6.98953247 344.60075378 C-8.89910658 347.51875397 -10.80664839 350.43783492 -12.69726562 353.36816406 C-14.10526796 355.54685238 -15.52785739 357.71539241 -16.953125 359.8828125 C-17.37200989 360.54008331 -17.79089478 361.19735413 -18.22247314 361.87454224 C-20.95006735 365.99005247 -23.43161585 368.82844661 -28 371 C-31.48891648 371.54059605 -34.91257981 371.53749768 -38.4375 371.49609375 C-39.43579834 371.49754898 -40.43409668 371.49900421 -41.46264648 371.50050354 C-43.56724983 371.49884814 -45.67186573 371.4873272 -47.77636719 371.46655273 C-50.98945782 371.43759501 -54.20089737 371.44595271 -57.4140625 371.45898438 C-59.46354965 371.45274644 -61.51303161 371.44435507 -63.5625 371.43359375 C-64.51890381 371.43652939 -65.47530762 371.43946503 -66.46069336 371.44248962 C-71.71355772 371.36855151 -75.47154564 370.96439727 -80 368 C-83.28985858 364.05216971 -83.30446506 361.0243186 -83 356 C-82.23703006 353.37117728 -81.42835193 350.93431958 -80.4375 348.3984375 C-80.17019073 347.68749435 -79.90288147 346.97655121 -79.62747192 346.24406433 C-78.76213874 343.95024289 -77.88101642 341.66283737 -77 339.375 C-76.40363274 337.79853117 -75.80842249 336.22162418 -75.21435547 334.64428711 C-72.63015008 327.80026136 -69.99937951 320.97545108 -67.3203125 314.16796875 C-66.94261719 313.20133301 -66.56492187 312.23469727 -66.17578125 311.23876953 C-65.49400841 309.50233974 -64.8018881 307.7699237 -64.09765625 306.04248047 C-62.0149175 301.05242561 -62.0149175 301.05242561 -63 296 C-64.72410731 294.46701649 -64.72410731 294.46701649 -66.9296875 293.23828125 C-68.12271484 292.51995117 -68.12271484 292.51995117 -69.33984375 291.78710938 C-70.59474609 291.05717773 -70.59474609 291.05717773 -71.875 290.3125 C-73.11830078 289.56516602 -73.11830078 289.56516602 -74.38671875 288.80273438 C-79.02221624 286.04024631 -79.02221624 286.04024631 -84 284 C-83.67 284.9075 -83.34 285.815 -83 286.75 C-80.38373976 296.13441175 -81.7183166 304.40986253 -86 313 C-88.02865777 316.23039153 -90.28920999 319.23663811 -92.625 322.25 C-93.88754215 323.91995071 -95.14925654 325.59052756 -96.41015625 327.26171875 C-97.0252002 328.07044434 -97.64024414 328.87916992 -98.27392578 329.71240234 C-100.59514065 332.78875076 -102.83690162 335.91665315 -105.0625 339.0625 C-105.85151208 340.16800474 -106.64057559 341.27347277 -107.4296875 342.37890625 C-108.81911157 344.33061115 -110.20099691 346.28704053 -111.57519531 348.24951172 C-113.27151733 350.67191469 -114.97912236 353.08608902 -116.6875 355.5 C-117.21029541 356.25418213 -117.73309082 357.00836426 -118.27172852 357.78540039 C-122.1853355 363.2893141 -126.41180574 368.80393525 -133 371 C-135.67274304 371.120773 -138.31862757 371.1881012 -140.9921875 371.203125 C-141.77514191 371.20882507 -142.55809631 371.21452515 -143.36477661 371.22039795 C-145.02067721 371.22983845 -146.67659651 371.23637816 -148.33251953 371.24023438 C-150.85873366 371.24993752 -153.38413308 371.28096782 -155.91015625 371.3125 C-157.52082851 371.31903075 -159.13150658 371.32428094 -160.7421875 371.328125 C-161.8705452 371.3466452 -161.8705452 371.3466452 -163.021698 371.36553955 C-168.48886605 371.3424527 -171.48067002 370.14179659 -175.58030701 366.6565094 C-178.20565011 363.59323758 -178.12572807 359.90478839 -178 356 C-177.29154291 353.05995665 -176.11788054 350.46053246 -174.81640625 347.73828125 C-174.12939692 346.1908264 -173.44255326 344.64329799 -172.75585938 343.09570312 C-171.66606864 340.70773978 -170.56781558 338.32396374 -169.46362305 335.94262695 C-164.70273787 325.58890936 -161.72447644 317.60386765 -163 306 C-164.175625 306.33 -165.35125 306.66 -166.5625 307 C-171.8018752 308.27744484 -176.03908517 309.08476139 -180.9375 306.375 C-183 304 -183 304 -183.5625 301.0625 C-182.84530987 297.15779817 -181.86538461 295.76399407 -179 293 C-176.01589628 291.85860052 -172.94679687 291.33315196 -169.8125 290.75 C-150.0202254 286.53089177 -124.5718385 279.6406853 -109 266 C-109.58007812 265.64808594 -110.16015625 265.29617188 -110.7578125 264.93359375 C-120.39232941 258.84445187 -125.89974075 252.15118676 -129 241 C-129.75805756 235.19425565 -129.67985296 229.34336371 -129.59692383 223.49926758 C-129.56242184 220.80639969 -129.57636451 218.11679159 -129.59570312 215.42382812 C-129.58880735 213.68488208 -129.5791374 211.94594436 -129.56640625 210.20703125 C-129.57136612 209.4161763 -129.57632599 208.62532135 -129.58143616 207.8105011 C-129.38849516 198.5338121 -125.15691476 190.78904153 -119 184 C-116.6047003 181.82804135 -114.07294605 179.93217494 -111.4375 178.0625 C-110.74148682 177.5581543 -110.04547363 177.05380859 -109.32836914 176.53417969 C-107.90890993 175.50920355 -106.48567334 174.48943703 -105.05859375 173.47509766 C-103.12144666 172.08702333 -101.2146794 170.66590969 -99.3125 169.23046875 C-98.1882947 168.40256562 -97.06333802 167.57568147 -95.9375 166.75 C-94.95652344 166.02296875 -93.97554688 165.2959375 -92.96484375 164.546875 C-89.36816876 162.67034892 -87.0052443 162.58993927 -83 163 C-80.5625 164.625 -80.5625 164.625 -79 167 C-78.4375 169.9375 -78.4375 169.9375 -79 173 C-83.00852961 177.62522647 -87.90138259 180.98008357 -92.875 184.5 C-93.65230469 185.05558594 -94.42960937 185.61117187 -95.23046875 186.18359375 C-95.99746094 186.73144531 -96.76445312 187.27929688 -97.5546875 187.84375 C-98.30588867 188.38257813 -99.05708984 188.92140625 -99.83105469 189.4765625 C-101.19799375 190.43668179 -102.58239895 191.37282682 -103.98925781 192.2734375 C-104.59350586 192.66789063 -105.19775391 193.06234375 -105.8203125 193.46875 C-106.34125488 193.79294922 -106.86219727 194.11714844 -107.39892578 194.45117188 C-111.1997499 198.12796788 -112.8409416 201.76468516 -113.50170898 206.89648438 C-113.52107655 208.29544011 -113.51830647 209.69483655 -113.49609375 211.09375 C-113.4982766 212.21928284 -113.4982766 212.21928284 -113.50050354 213.36755371 C-113.4988535 214.94413155 -113.48739316 216.52072701 -113.46655273 218.09716797 C-113.43757413 220.49386865 -113.44596629 222.88835506 -113.45898438 225.28515625 C-113.45274605 226.82553145 -113.44435437 228.36589975 -113.43359375 229.90625 C-113.43652939 230.6137439 -113.43946503 231.32123779 -113.44248962 232.0501709 C-113.32732669 238.20231285 -111.84206379 242.74007674 -107.93359375 247.53515625 C-103.89203607 250.93092575 -99.54386553 253.65975848 -95.0625 256.4375 C-93.08452825 257.67951685 -91.10666686 258.92170947 -89.12890625 260.1640625 C-88.11586426 260.79731445 -87.10282227 261.43056641 -86.05908203 262.08300781 C-81.18998054 265.1342596 -76.34521141 268.22350358 -71.5 271.3125 C-69.67975572 272.47276328 -67.85944516 273.63292259 -66.0390625 274.79296875 C-65.18473633 275.33743652 -64.33041016 275.8819043 -63.45019531 276.44287109 C-61.18696434 277.88118189 -58.91878976 279.31124801 -56.6484375 280.73828125 C-55.39060931 281.53382936 -54.13279556 282.3294003 -52.875 283.125 C-51.82054687 283.78757812 -50.76609375 284.45015625 -49.6796875 285.1328125 C-44.63670529 288.64672722 -44.63670529 288.64672722 -43 291 C-42.8516642 298.60875423 -46.28263202 305.54077066 -49.0625 312.5 C-49.53494141 313.70398438 -50.00738281 314.90796875 -50.49414062 316.1484375 C-51.65458558 319.10229739 -52.82337843 322.05255501 -54 325 C-31.28129089 327.36193132 -31.28129089 327.36193132 -9.89648438 322.21826172 C-5.24173047 317.63302687 -2.8704606 312.17527066 -1 306 C-0.67 305.34 -0.34 304.68 0 304 C0.57344976 297.77966303 -1.10594958 293.40027099 -3.5 287.8125 C-3.85513672 286.95116455 -4.21027344 286.0898291 -4.57617188 285.20239258 C-5.70586738 282.46327807 -6.85090524 279.73102807 -8 277 C-9.51409332 273.40148794 -11.0118492 269.79680586 -12.5 266.1875 C-12.84998047 265.37063721 -13.19996094 264.55377441 -13.56054688 263.7121582 C-15.51178124 258.97491844 -16.53394542 255.21983388 -16 250 C-14.4609375 247.55078125 -14.4609375 247.55078125 -12.375 245.3125 C0.84539538 229.80306089 2.63098695 211.911172 2.56640625 192.41796875 C2.57165531 190.46795864 2.57793643 188.51795107 2.58518982 186.56794739 C2.59552281 182.5094495 2.59113104 178.45130386 2.57641602 174.39282227 C2.5591658 169.21367571 2.58283778 164.03563223 2.61790562 158.85660839 C2.63993637 154.84062978 2.63842562 150.82491343 2.6301403 146.8088932 C2.62932531 144.89966935 2.63610144 142.99042536 2.65091133 141.08125877 C2.72798068 129.36015647 2.53183876 120.06118219 -5.61328125 110.86328125 C-6.50402344 110.02152344 -7.39476562 109.17976563 -8.3125 108.3125 C-8.79468994 107.85101563 -9.27687988 107.38953125 -9.77368164 106.9140625 C-13.04545807 103.80709875 -16.40951839 100.80521632 -19.83984375 97.875 C-22.60985851 95.47064722 -25.30349687 92.98593022 -28 90.5 C-32.60857529 86.26273849 -37.24141259 82.06841061 -42 78 C-42.84046875 77.2575 -43.6809375 76.515 -44.546875 75.75 C-52.65895971 68.78368997 -61.58849566 62.90644484 -72.59741211 62.8581543 C-73.50192612 62.85111984 -74.40644012 62.84408539 -75.33836365 62.83683777 C-76.30822708 62.83267349 -77.27809052 62.82850922 -78.27734375 62.82421875 C-80.33790092 62.80102716 -82.39844784 62.77691009 -84.45898438 62.75195312 C-87.70246311 62.71680212 -90.94556266 62.68746671 -94.18920898 62.67407227 C-97.32321758 62.65860332 -100.45612578 62.61840961 -103.58984375 62.57421875 C-104.55768295 62.57612717 -105.52552216 62.57803558 -106.52268982 62.58000183 C-110.79680869 62.50234749 -113.34377255 62.38663032 -117.08422852 60.18286133 C-119.75740807 57.13699687 -120.07169541 55.0149429 -120 51 C-118.15863826 48.58718117 -116.69698174 47.34849087 -114 46 C-111.00520788 45.88822599 -108.03446472 45.83585947 -105.0390625 45.83203125 C-104.13811859 45.82870285 -103.23717468 45.82537445 -102.30892944 45.82194519 C-100.39394644 45.81687276 -98.47895456 45.81453696 -96.56396484 45.81469727 C-93.6713944 45.81253469 -90.77922044 45.79444955 -87.88671875 45.77539062 C-75.71994811 45.73666141 -64.15439438 45.91448928 -52.75 50.625 C-51.65171875 51.07101563 -50.5534375 51.51703125 -49.421875 51.9765625 C-48.62265625 52.31429687 -47.8234375 52.65203125 -47 53 C-46.484375 52.13375 -45.96875 51.2675 -45.4375 50.375 C-41.67350053 44.76225168 -36.73892754 40.34778551 -30 39 C-22.98210866 38.13292462 -17.21349005 39.67938485 -11 43 C-9.63015802 44.29579647 -8.2848951 45.61992749 -7 47 C-4.55460214 48.07272562 -4.55460214 48.07272562 -2 48 C0.42304368 47.0785608 0.42304368 47.0785608 2 45 C2.92119564 42.21893503 2.92119564 42.21893503 2 39 C-1.64558408 33.68031084 -6.6466687 29.28489656 -11.30078125 24.859375 C-15.30484929 20.47791204 -15.42806298 16.52257921 -15.3203125 10.765625 C-14.76481068 5.96934097 -12.9686113 2.62919556 -9.1875 -0.5 C-5.83755535 -1.26570163 -3.30980488 -0.84249579 0 0 Z " fill="#020102" transform="translate(493,71)"/>
<path d="M0 0 C1.39265571 -0.00464171 2.78531019 -0.00966812 4.17796326 -0.01504517 C7.92127023 -0.02802434 11.66455942 -0.0345831 15.40788531 -0.03905582 C17.75044725 -0.04200474 20.0930045 -0.04611236 22.43556404 -0.05056 C29.77768662 -0.06418459 37.11979827 -0.07388084 44.4619326 -0.07776189 C52.91709795 -0.08225766 61.37210287 -0.09989661 69.82721943 -0.12876248 C76.38375186 -0.15036681 82.94023903 -0.16046518 89.49680668 -0.16180301 C93.40533316 -0.16285013 97.31370776 -0.16874053 101.22219658 -0.18662262 C104.89049931 -0.2030861 108.55853547 -0.20526742 112.22686195 -0.19648361 C114.21178754 -0.19534561 116.19670424 -0.20906836 118.18157959 -0.22323608 C119.36592087 -0.21766693 120.55026215 -0.21209778 121.77049255 -0.20635986 C123.31093562 -0.2085597 123.31093562 -0.2085597 124.88249874 -0.21080399 C128.18206962 0.22758923 130.05042831 1.1393166 132.68188477 3.16113281 C133.74438477 6.53613281 133.74438477 6.53613281 133.68188477 10.16113281 C131.91547304 12.96302727 130.65138655 14.67638192 127.68188477 16.16113281 C125.74883591 16.25624029 123.81244705 16.28578007 121.87705994 16.28570557 C120.63990234 16.28826859 119.40274475 16.2908316 118.12809753 16.29347229 C116.74880974 16.29140195 115.36952202 16.2892792 113.99023438 16.28710938 C112.54283595 16.28850398 111.09543793 16.29040319 109.64804077 16.29277039 C106.52201446 16.29727579 103.39600132 16.29912367 100.26997185 16.29923248 C95.30198238 16.30037509 90.33406691 16.31323682 85.36610413 16.32879639 C84.10592379 16.33265567 84.10592379 16.33265567 82.82028526 16.33659291 C81.101249 16.34186057 79.3822128 16.34714605 77.66317666 16.35244894 C66.09949672 16.3874329 54.53590524 16.41413373 42.97216797 16.41162109 C35.17357938 16.41001767 27.37524131 16.42642214 19.5767327 16.46232772 C15.4605565 16.48057215 11.34479709 16.490325 7.22859001 16.47785187 C-29.43631142 16.37784958 -64.74575894 22.47224326 -95.31811523 44.16113281 C-96.26557617 44.825 -97.21303711 45.48886719 -98.18920898 46.17285156 C-126.05141782 66.35393131 -142.54414734 92.88187402 -157.25561523 123.34863281 C-158.1061052 125.09948866 -158.95701516 126.85014056 -159.80834961 128.60058594 C-161.49632027 132.07193033 -163.1683591 135.55039183 -164.83251953 139.03320312 C-166.46958629 142.44668729 -168.16836799 145.8173317 -169.92285156 149.171875 C-175.06955994 159.17273349 -177.58335338 166.62203019 -177.13061523 178.03613281 C-177.07826224 180.42904756 -177.04241315 182.82239522 -177.02514648 185.21582031 C-176.98881104 186.24175293 -176.95247559 187.26768555 -176.91503906 188.32470703 C-177.42968598 191.94625029 -178.79496195 193.57021251 -181.31811523 196.16113281 C-184.26304906 197.02030736 -186.17943873 196.55969491 -189.31811523 196.16113281 C-191.04589844 194.94897461 -191.04589844 194.94897461 -192.31811523 193.16113281 C-192.65869141 190.80102539 -192.65869141 190.80102539 -192.61108398 188.05566406 C-192.60141602 187.07275391 -192.59174805 186.08984375 -192.58178711 185.07714844 C-192.55665039 184.05298828 -192.53151367 183.02882813 -192.50561523 181.97363281 C-192.49208008 180.93787109 -192.47854492 179.90210938 -192.46459961 178.83496094 C-192.42923328 176.27679669 -192.37542619 173.71889952 -192.31811523 171.16113281 C-197.26811523 171.49113281 -202.21811523 171.82113281 -207.31811523 172.16113281 C-207.31811523 184.70113281 -207.31811523 197.24113281 -207.31811523 210.16113281 C-195.95238548 210.3698862 -195.95238548 210.3698862 -184.58618164 210.54907227 C-176.44957524 210.70650445 -168.45246061 211.21011402 -160.40405273 212.45410156 C-159.66337555 212.56079666 -158.92269836 212.66749176 -158.15957642 212.77742004 C-153.54667637 213.56829937 -150.59636151 214.79534733 -147.31811523 218.16113281 C-146.28229243 221.78651263 -145.85946573 223.99922073 -147.25561523 227.53613281 C-150.2937954 229.92985052 -153.56502234 230.02462662 -157.31811523 230.16113281 C-160.1358701 229.78543216 -162.84904635 229.333547 -165.63061523 228.78613281 C-172.49221331 227.56273138 -179.24036399 227.01506534 -186.19702148 226.87597656 C-186.97557999 226.86018555 -187.75413849 226.84439453 -188.55628967 226.828125 C-192.49073388 226.75777637 -196.42335781 226.72140021 -200.35839844 226.71630859 C-201.8319529 226.69948194 -203.3055045 226.68240276 -204.77905273 226.66503906 C-206.08664551 226.66318604 -207.39423828 226.66133301 -208.74145508 226.65942383 C-214.08328268 225.91521426 -217.12334704 223.51735617 -220.63061523 219.53613281 C-222.95472989 216.26515663 -223.44819036 214.58045489 -223.49511719 210.62304688 C-223.50795242 209.68156799 -223.52078766 208.74008911 -223.53401184 207.77008057 C-223.54139877 206.74928406 -223.54878571 205.72848755 -223.55639648 204.67675781 C-223.56446823 203.62840759 -223.57253998 202.58005737 -223.58085632 201.49993896 C-223.59470458 199.27731992 -223.6054234 197.05467954 -223.61328125 194.83203125 C-223.63047547 191.43871505 -223.67435369 188.04637765 -223.71850586 184.65332031 C-223.72863428 182.49447331 -223.73714992 180.33561803 -223.74389648 178.17675781 C-223.76140457 177.16405823 -223.77891266 176.15135864 -223.79695129 175.10797119 C-223.77857163 169.11398781 -223.29564315 165.73154182 -219.31811523 161.16113281 C-215.12695843 157.46892325 -212.85426358 156.03161472 -207.31030273 156.06347656 C-206.32416992 156.06669922 -205.33803711 156.06992187 -204.32202148 156.07324219 C-203.28948242 156.08162109 -202.25694336 156.09 -201.19311523 156.09863281 C-199.63270508 156.10540039 -199.63270508 156.10540039 -198.04077148 156.11230469 C-195.46649562 156.12411329 -192.89233377 156.14058206 -190.31811523 156.16113281 C-190.05635498 155.31542725 -189.79459473 154.46972168 -189.52490234 153.59838867 C-188.25617616 149.98471358 -186.70023657 146.59301061 -185.00952148 143.16503906 C-184.68692856 142.50308533 -184.36433563 141.84113159 -184.03196716 141.15911865 C-182.98494889 139.01226075 -181.93288469 136.86792107 -180.88061523 134.72363281 C-179.42212909 131.73996745 -177.96581927 128.75524178 -176.50952148 125.77050781 C-176.14847321 125.03145706 -175.78742493 124.29240631 -175.41543579 123.53096008 C-172.79096907 118.15215758 -170.2193473 112.74992423 -167.66870117 107.33569336 C-161.26780573 93.77139522 -154.48797312 81.11121357 -145.31811523 69.16113281 C-147.27720103 67.68093465 -149.24035264 66.21591294 -151.24780273 64.80175781 C-160.10781069 58.46809751 -166.04777694 51.01818945 -168.31811523 40.16113281 C-168.59455579 35.87306325 -168.59540195 31.58215365 -168.63061523 27.28613281 C-168.65961914 26.114375 -168.68862305 24.94261719 -168.71850586 23.73535156 C-168.79925028 12.79137743 -168.79925028 12.79137743 -164.31811523 8.16113281 C-161.22088703 6.24746859 -158.83222481 5.89791243 -155.2175293 5.85473633 C-154.20257385 5.83874893 -153.18761841 5.82276154 -152.14190674 5.80628967 C-151.05021179 5.80092697 -149.95851685 5.79556427 -148.83374023 5.79003906 C-147.70417908 5.78101059 -146.57461792 5.77198212 -145.41082764 5.76268005 C-143.02024995 5.74817377 -140.62963252 5.73928989 -138.23901367 5.7355957 C-134.59542194 5.7237218 -130.95353599 5.67455543 -127.31030273 5.62402344 C-124.98479014 5.61455637 -122.65926717 5.60732269 -120.33374023 5.60253906 C-119.25014221 5.58300674 -118.16654419 5.56347443 -117.05010986 5.54335022 C-108.73216995 5.5925483 -103.8682423 7.70443014 -97.94311523 13.47363281 C-95.83309781 16.96327702 -95.24856309 20.19257043 -94.31811523 24.16113281 C-93.31135742 23.59265625 -92.30459961 23.02417969 -91.26733398 22.43847656 C-62.80641453 6.68246767 -32.41303974 0.028378 0 0 Z " fill="#020101" transform="translate(223.318115234375,116.8388671875)"/>
<path d="M0 0 C2.48695054 0.05348281 3.88379953 0.12939977 6.125 1.25 C7.72466715 4.44933429 8.119193 7.84227267 7.125 11.25 C3.73672748 14.37110642 0.85612332 15.85959318 -3.54296875 17.11328125 C-10.69149621 19.63472226 -17.11056512 22.12429801 -21.875 28.25 C-25.82522547 39.04933434 -24.51664773 52.13318563 -23.95874023 63.42211914 C-23.875 67.25 -23.875 67.25 -24.875 71.25 C-13.655 71.25 -2.435 71.25 9.125 71.25 C9.455 67.62 9.785 63.99 10.125 60.25 C11.66113425 52.47332038 14.1531676 48.50547589 19.640625 42.84765625 C23.07102758 39.26083594 26.0988462 35.38693956 29.1796875 31.5 C31.125 29.25 31.125 29.25 34.125 27.25 C39.70100753 27.33993561 43.93912606 28.46557332 49.0859375 30.578125 C68.10972903 38.03788384 88.49059999 41.99747998 108.87109375 42.4375 C109.5657222 42.45406647 110.26035065 42.47063293 110.97602844 42.48770142 C114.49408954 42.57025834 118.00954478 42.63042313 121.52856445 42.64599609 C123.47122192 42.67814209 123.47122192 42.67814209 125.453125 42.7109375 C127.19964355 42.72326416 127.19964355 42.72326416 128.98144531 42.73583984 C132.77338015 43.35604913 134.43707031 44.54674923 137.125 47.25 C138.11374457 50.41398262 138.40807319 52.32357864 137.4375 55.5 C135.82618672 57.64841771 134.61042645 58.2454487 132.125 59.25 C129.66162109 59.50878906 129.66162109 59.50878906 126.8984375 59.515625 C125.87419678 59.51949219 124.84995605 59.52335937 123.79467773 59.52734375 C122.70743408 59.51832031 121.62019043 59.50929688 120.5 59.5 C119.39019775 59.49613281 118.28039551 59.49226563 117.13696289 59.48828125 C107.70051816 59.39044497 98.46005992 58.58528316 89.125 57.25 C89.14820313 58.15492188 89.17140625 59.05984375 89.1953125 59.9921875 C89.36614425 70.23691586 89.00517207 80.46377468 88.48822021 90.69390869 C88.41301853 92.22563123 88.34416293 93.7576791 88.28179932 95.28997803 C88.19054365 97.48112344 88.07482606 99.66973456 87.953125 101.859375 C87.8588623 103.7770166 87.8588623 103.7770166 87.76269531 105.73339844 C86.84785216 110.77834515 84.82688871 113.82587096 80.9140625 117.10009766 C77.11528922 118.66629357 73.5425229 118.67952352 69.5 118.6484375 C68.6754834 118.65130768 67.8509668 118.65417786 67.00146484 118.65713501 C65.26333934 118.65917072 63.52519067 118.6536754 61.78710938 118.64111328 C59.13359121 118.625052 56.48159605 118.64097809 53.828125 118.66015625 C52.13541332 118.65817373 50.44270258 118.65432987 48.75 118.6484375 C47.96028809 118.65451019 47.17057617 118.66058289 46.35693359 118.6668396 C41.75605993 118.60838241 38.79625462 118.07301785 35.125 115.25 C30.98906995 110.99383942 28.8153604 105.7673425 26.375 100.4375 C25.96378906 99.55384766 25.55257812 98.67019531 25.12890625 97.75976562 C24.12146541 95.59259637 23.12039302 93.42272247 22.125 91.25 C22.02477539 91.82967529 21.92455078 92.40935059 21.82128906 93.0065918 C21.3546566 95.65322318 20.86507583 98.29511352 20.375 100.9375 C20.21773438 101.84951172 20.06046875 102.76152344 19.8984375 103.70117188 C18.93160961 108.81420401 18.11621331 112.61053031 14.125 116.25 C9.46282558 118.76241254 4.85678639 118.57274748 -0.3046875 118.5859375 C-1.21324493 118.5925943 -2.12180237 118.5992511 -3.05789185 118.60610962 C-4.97591128 118.61621345 -6.8939657 118.62092734 -8.81201172 118.62060547 C-11.73334187 118.62497508 -14.65315597 118.66130845 -17.57421875 118.69921875 C-19.4427032 118.70508825 -21.31119478 118.70905675 -23.1796875 118.7109375 C-24.04657196 118.72530853 -24.91345642 118.73967957 -25.80661011 118.75448608 C-31.64612183 118.71089007 -35.13454111 117.73768356 -39.875 114.25 C-41.65647618 111.4118938 -42.12680343 109.26196605 -42.12084961 105.93676758 C-42.12194229 105.08773361 -42.12303497 104.23869965 -42.12416077 103.36393738 C-42.11283615 102.44590836 -42.10151154 101.52787933 -42.08984375 100.58203125 C-42.0833934 99.61481644 -42.07694305 98.64760162 -42.07029724 97.65107727 C-41.94761188 87.13192447 -41.33693241 76.6446912 -40.64819336 66.1496582 C-40.43471954 62.89511014 -40.23121824 59.64004913 -40.02929688 56.38476562 C-39.89639755 54.28121428 -39.76295444 52.1776972 -39.62890625 50.07421875 C-39.5684462 49.11787033 -39.50798615 48.16152191 -39.44569397 47.17619324 C-39.07195774 41.51079373 -38.54286134 35.88847791 -37.875 30.25 C-39.10476562 30.14042969 -40.33453125 30.03085937 -41.6015625 29.91796875 C-43.23443595 29.75843514 -44.86724526 29.59824407 -46.5 29.4375 C-47.30824219 29.36724609 -48.11648437 29.29699219 -48.94921875 29.22460938 C-53.83802817 28.72777915 -57.62141997 27.91351936 -61.875 25.25 C-63.31930855 22.36138291 -63.25188506 20.45352299 -62.875 17.25 C-60.9375 14.375 -60.9375 14.375 -57.875 12.25 C-52.19826493 11.14650641 -46.39686974 12.57847339 -40.84375 13.8125 C-39.37421875 14.0290625 -39.37421875 14.0290625 -37.875 14.25 C-37.24529297 14.34531006 -36.61558594 14.44062012 -35.96679688 14.53881836 C-28.33746234 15.16220347 -22.80324567 11.52858633 -16.375 7.8125 C-15.27929688 7.20083984 -14.18359375 6.58917969 -13.0546875 5.95898438 C-2.75731507 0.1778913 -2.75731507 0.1778913 0 0 Z " fill="#030202" transform="translate(155.875,323.75)"/>
<path d="M0 0 C0.99493469 -0.01591187 1.98986938 -0.03182373 3.01495361 -0.04821777 C4.08477478 -0.04841919 5.15459595 -0.04862061 6.25683594 -0.04882812 C7.36420105 -0.05644165 8.47156616 -0.06405518 9.61248779 -0.07189941 C11.95599108 -0.08270372 14.29954253 -0.0855522 16.64306641 -0.08105469 C20.21436895 -0.08008541 23.78350151 -0.12164324 27.35449219 -0.16601562 C29.63443564 -0.17122509 31.91438654 -0.17391078 34.19433594 -0.17382812 C35.25606018 -0.19022339 36.31778442 -0.20661865 37.41168213 -0.22351074 C45.07152029 -0.15276638 50.02789444 1.56283925 55.54644775 6.93347168 C57.91577053 9.58851091 59.67618686 11.84964905 59.99121094 15.41992188 C60.05308594 16.04125 60.11496094 16.66257813 60.17871094 17.30273438 C60.39140988 20.90532263 60.37215616 22.83385231 58.36621094 25.91992188 C55.22807096 27.90190502 53.64247629 28.09056245 49.99121094 27.41992188 C45.5188837 23.96403264 44.85951665 22.02483901 42.99121094 16.41992188 C22.69621094 15.92492187 22.69621094 15.92492187 1.99121094 15.41992188 C2.13938076 29.60840901 2.13938076 29.60840901 7.99121094 41.41992188 C14.38953328 46.88655868 19.69413326 48.55005644 28.01855469 48.59570312 C29.63119803 48.61889584 31.24382829 48.64301295 32.85644531 48.66796875 C35.39551629 48.70311415 37.93410375 48.73245033 40.47338867 48.74584961 C42.92653586 48.76132312 45.37827863 48.80151731 47.83105469 48.84570312 C48.58845444 48.84379471 49.34585419 48.84188629 50.12620544 48.83992004 C53.62510391 48.9211007 55.62859004 49.14851961 58.46606445 51.2722168 C59.99121094 53.41992188 59.99121094 53.41992188 60.55371094 56.35742188 C59.78866615 60.5226657 58.28029422 61.79797941 54.99121094 64.41992188 C52.21580243 64.90997864 50.06799301 65.10125979 47.30371094 65.04882812 C46.56475586 65.05124008 45.82580078 65.05365204 45.06445312 65.05613708 C43.50108477 65.05515998 41.93768124 65.04179846 40.37451172 65.0168457 C38.02543965 64.98291627 35.68021909 64.99609396 33.33105469 65.015625 C19.99659899 65.00370931 7.86422222 63.15768643 -2.00878906 53.41992188 C-11.35771632 43.75502689 -13.34589215 33.62790039 -13.50878906 20.54492188 C-13.53670532 19.04614502 -13.53670532 19.04614502 -13.56518555 17.51708984 C-13.51444726 11.6619904 -13.06023531 7.97066607 -9.00878906 3.41992188 C-5.96905155 0.70670894 -4.05676967 0.0391235 0 0 Z " fill="#030202" transform="translate(168.0087890625,159.580078125)"/>
<path d="M0 0 C5.80239614 -0.04934656 11.60467081 -0.08569402 17.40722656 -0.10986328 C19.38218309 -0.11993627 21.35712466 -0.13359521 23.33203125 -0.15087891 C26.16670418 -0.17507039 29.00118038 -0.18646991 31.8359375 -0.1953125 C32.72243988 -0.20563507 33.60894226 -0.21595764 34.52230835 -0.22659302 C36.68285952 -0.2269907 38.84293718 -0.12272534 41 0 C43 2 43 2 43.75 5.4375 C44.64554722 9.24743923 44.64554722 9.24743923 48.078125 10.72265625 C49.04234375 11.14417969 50.0065625 11.56570312 51 12 C50.99476318 12.59538574 50.98952637 13.19077148 50.98413086 13.80419922 C50.96338001 16.49445547 50.95034593 19.18469489 50.9375 21.875 C50.92493164 23.28072266 50.92493164 23.28072266 50.91210938 24.71484375 C50.90888672 25.61074219 50.90566406 26.50664062 50.90234375 27.4296875 C50.89710693 28.25710449 50.89187012 29.08452148 50.88647461 29.93701172 C50.86647862 32.06411757 50.86647862 32.06411757 52 34 C47.34107947 34.12478566 42.68315819 34.21488741 38.02294922 34.2746582 C36.44204741 34.29960626 34.86125858 34.33357805 33.28076172 34.37719727 C15.58593333 34.8528647 15.58593333 34.8528647 8 29 C1.85865443 22.45562376 -0.3340633 16.68526274 -0.125 7.6875 C-0.11597656 6.94693359 -0.10695312 6.20636719 -0.09765625 5.44335938 C-0.07424213 3.62876533 -0.03837615 1.81433929 0 0 Z " fill="#FA979E" transform="translate(170,175)"/>
<path d="M0 0 C0.67736481 2.03814233 1.34143534 4.08070555 2 6.125 C2.37125 7.26195312 2.7425 8.39890625 3.125 9.5703125 C4.20007526 13.78422355 4.76079802 17.15418202 3.07421875 21.24609375 C2.06077899 22.84761405 1.00968293 24.4254789 -0.0625 25.98828125 C-1.60129727 28.38024233 -2.61369981 30.39341933 -3.6875 32.98046875 C-5.97569526 37.75661344 -8.17208987 41.51382073 -13 44 C-23.84784526 45.93660853 -35.08429882 44.84254983 -46 44 C-46 35.75 -46 27.5 -46 19 C-42.0709375 17.63875 -42.0709375 17.63875 -38.0625 16.25 C-28.4190432 12.80194885 -19.27599644 8.45117682 -10.10375977 3.91308594 C-9.07822998 3.40680664 -8.0527002 2.90052734 -6.99609375 2.37890625 C-6.08013428 1.9207251 -5.1641748 1.46254395 -4.22045898 0.99047852 C-2 0 -2 0 0 0 Z " fill="#FA979E" transform="translate(392,352)"/>
<path d="M0 0 C5.64166991 -0.04940499 11.28321413 -0.08572193 16.92504883 -0.10986328 C18.84466749 -0.11992639 20.76427081 -0.13357816 22.68383789 -0.15087891 C25.44160752 -0.17511364 28.19917464 -0.18647992 30.95703125 -0.1953125 C32.24623222 -0.21079636 32.24623222 -0.21079636 33.56147766 -0.22659302 C34.36208115 -0.22674408 35.16268463 -0.22689514 35.98754883 -0.22705078 C36.6914827 -0.231492 37.39541656 -0.23593323 38.12068176 -0.24050903 C40 0 40 0 43 2 C44.36798749 6.55995829 44.28165711 10.42974984 43 15 C39.67393987 19.3633831 35.06096389 22.47738526 30.67480469 25.69580078 C28.54122474 27.35725619 26.82167727 29.26553106 25.0625 31.3125 C22.60349823 33.82682931 22.30880211 33.97754166 18.5625 34.25 C10.09369561 31.27848969 4.9704576 26.89967794 0.94482422 18.90429688 C-0.27930078 15.14145682 -0.21578199 11.59461702 -0.125 7.6875 C-0.11597656 6.94693359 -0.10695313 6.20636719 -0.09765625 5.44335938 C-0.07424213 3.62876533 -0.03837615 1.81433929 0 0 Z " fill="#F9969D" transform="translate(70,138)"/>
<path d="M0 0 C0.5983667 0.19634033 1.1967334 0.39268066 1.81323242 0.5949707 C18.22324546 5.96721069 18.22324546 5.96721069 35 10 C35.02705308 12.41674224 35.04686438 14.8331794 35.0625 17.25 C35.07087891 17.93191406 35.07925781 18.61382812 35.08789062 19.31640625 C35.10481414 22.8026497 34.8533497 25.58660119 34 29 C19.81 29 5.62 29 -9 29 C-13.91470054 19.17059891 -13.91470054 19.17059891 -13 15 C-11.09920679 12.12023814 -8.84888139 9.64479791 -6.5 7.125 C-5.56994141 6.09246094 -5.56994141 6.09246094 -4.62109375 5.0390625 C-3.09349443 3.34695248 -1.55337609 1.66841745 0 0 Z " fill="#FA979E" transform="translate(195,367)"/>
<path d="M0 0 C10.56 0 21.12 0 32 0 C31 11 31 11 30 16 C20.1 16 10.2 16 0 16 C0 10.72 0 5.44 0 0 Z " fill="#8F808F" transform="translate(130,410)"/>
<path d="M0 0 C12.21 0 24.42 0 37 0 C35.68 2.31 34.36 4.62 33 7 C32.69940674 7.72582275 32.39881348 8.45164551 32.08911133 9.19946289 C30.98925666 11.49516789 30.13210701 12.5641551 28 14 C22.54238716 14.88410661 17.19445856 14.65787338 11.6875 14.4375 C10.16869111 14.40236712 8.64980467 14.37043152 7.13085938 14.34179688 C3.41895608 14.26486369 -0.2900311 14.1441903 -4 14 C-3.34346042 8.74768339 -1.96028396 5.22742388 0 0 Z " fill="#8F808F" transform="translate(432,412)"/>
<path d="M0 0 C10.89 0 21.78 0 33 0 C33 4.62 33 9.24 33 14 C24.09 14 15.18 14 6 14 C0 3 0 3 0 0 Z " fill="#8F808F" transform="translate(195,412)"/>
<path d="M0 0 C3.81176337 0.72991214 4.70782601 1.36176292 6.9375 4.5625 C7.54241407 8.23555057 7.49508939 11.84798426 7.4375 15.5625 C7.45296875 16.56023437 7.4684375 17.55796875 7.484375 18.5859375 C7.44559194 25.81897752 7.44559194 25.81897752 5.125 29.21484375 C1.85513777 31.22931245 -0.30911233 31.16572302 -4.0625 30.5625 C-7.42103277 27.62453484 -8.33423787 25.19269846 -8.62890625 20.875 C-8.64872777 19.10427713 -8.64681296 17.33319946 -8.625 15.5625 C-8.64884766 14.67304688 -8.67269531 13.78359375 -8.69726562 12.8671875 C-8.68704369 8.30139135 -8.54893973 6.20378971 -5.71875 2.47265625 C-3.0625 0.5625 -3.0625 0.5625 0 0 Z " fill="#070505" transform="translate(104.0625,249.4375)"/>
<path d="M0 0 C9.24 0 18.48 0 28 0 C25.7734663 5.56633425 23.68878075 10.14060978 19 14 C14.79401535 15.07862567 10.86916621 14.86153854 6.5625 14.5625 C5.44939453 14.52189453 4.33628906 14.48128906 3.18945312 14.43945312 C0.4550887 14.3338339 -2.27014912 14.18636513 -5 14 C-4.54363464 12.603522 -4.08480512 11.2078492 -3.625 9.8125 C-3.36976563 9.03519531 -3.11453125 8.25789063 -2.8515625 7.45703125 C-1.98008898 4.94255032 -0.9883515 2.47087874 0 0 Z " fill="#8F808F" transform="translate(338,412)"/>
<path d="M0 0 C1.39456867 0.00574201 2.78910972 0.01875397 4.18359375 0.03515625 C6.63796875 0.05578125 9.09234375 0.07640625 11.62109375 0.09765625 C11.62109375 6.69765625 11.62109375 13.29765625 11.62109375 20.09765625 C11.29109375 18.77765625 10.96109375 17.45765625 10.62109375 16.09765625 C5.67109375 16.42765625 0.72109375 16.75765625 -4.37890625 17.09765625 C-4.40575304 14.45175611 -4.42566982 11.80612529 -4.44140625 9.16015625 C-4.44978516 8.40541016 -4.45816406 7.65066406 -4.46679688 6.87304688 C-4.47543066 4.94771312 -4.43114958 3.02230044 -4.37890625 1.09765625 C-3.37890625 0.09765625 -3.37890625 0.09765625 0 0 Z " fill="#F1ABB1" transform="translate(19.37890625,287.90234375)"/>
</svg>
