<?xml version="1.0" encoding="UTF-8"?>
<svg version="1.1" xmlns="http://www.w3.org/2000/svg" width="512" height="512">
<path d="M0 0 C17.82 0 35.64 0 54 0 C55.98 7.92 55.98 7.92 58 16 C63.77349067 32.56080218 73.30033389 51.93391204 89.13104248 61.25471497 C91 63 91 63 91.48101807 65.82841492 C91.47213562 66.9764711 91.46325317 68.12452728 91.45410156 69.30737305 C91.45364838 71.25905647 91.45364838 71.25905647 91.45318604 73.25016785 C91.43275932 74.67069102 91.41189533 76.09120796 91.390625 77.51171875 C91.38316369 78.9647392 91.37747024 80.41776972 91.37347412 81.87080383 C91.35820878 85.69332715 91.3189202 89.51524153 91.2746582 93.33752441 C91.23372432 97.23860435 91.21546719 101.13978278 91.1953125 105.04101562 C91.15242596 112.69428789 91.08416485 120.34705859 91 128 C91.81653549 127.99016586 92.63307098 127.98033173 93.47434998 127.97019958 C94.54943314 127.96255081 95.6245163 127.95490204 96.73217773 127.94702148 C97.79621323 127.93718735 98.86024872 127.92735321 99.95652771 127.91722107 C115.54134426 128.34111008 129.57745133 138.16697424 140 149 C149.18219516 159.91296607 155.37835384 173.52001373 155.22705078 187.88476562 C155.22729185 188.63905602 155.22753292 189.39334641 155.2277813 190.17049408 C155.22630309 192.58253793 155.21113991 194.99426235 155.1953125 197.40625 C155.19236742 198.90722505 155.19032985 200.40820216 155.18920898 201.90917969 C155.17877551 207.4394847 155.150853 212.96974558 155.125 218.5 C155.08375 230.875 155.0425 243.25 155 256 C197.24 256 239.48 256 283 256 C283 340.48 283 424.96 283 512 C114.04 512 -54.92 512 -229 512 C-229 427.52 -229 343.04 -229 256 C-186.76 256 -144.52 256 -101 256 C-101.15788825 231.5736722 -101.15788825 231.5736722 -101.36035156 207.14770508 C-101.37841797 202.38220215 -101.37841797 202.38220215 -101.3817749 200.13871765 C-101.38784593 198.59924164 -101.40176292 197.05978248 -101.42230225 195.52043152 C-101.67549079 175.51356918 -95.97320032 159.3466763 -81.87109375 144.8046875 C-71.58579029 135.12656653 -57.06557857 127.78189589 -42.75 127.9375 C-41.67234375 127.94652344 -40.5946875 127.95554687 -39.484375 127.96484375 C-38.66453125 127.97644531 -37.8446875 127.98804687 -37 128 C-37.02664734 127.21010178 -37.05329468 126.42020355 -37.08074951 125.60636902 C-37.32236329 118.11960251 -37.50445402 110.63475425 -37.62174606 103.14509106 C-37.68408247 99.2952973 -37.76842735 95.44875308 -37.90527344 91.60083008 C-38.03679866 87.87872915 -38.10762984 84.1597271 -38.13852692 80.43548012 C-38.16050568 79.02341228 -38.20343277 77.61149269 -38.26876068 76.20076561 C-38.54314027 70.02334593 -38.70788681 64.52341684 -34.39807129 59.75674438 C-31.45838075 56.90979758 -28.24953839 54.48116836 -25 52 C-10.28288478 37.74043841 -4.87325705 19.49302821 0 0 Z " fill="#D7D7EC" transform="translate(229,0)"/>
<path d="M0 0 C84.48 0 168.96 0 256 0 C256 32.34 256 64.68 256 98 C265.9 98 275.8 98 286 98 C286.33 95.69 286.66 93.38 287 91 C289.40509058 87.22057195 291.8604291 84.74781882 296 83 C301.6765961 82.23260831 306.15831601 82.73467824 311 86 C316.05143361 91.59753454 316.29646556 95.15603076 316.20703125 102.5546875 C315.52273032 113.94248781 309.91756607 123.61319631 301.6875 131.375 C295.71282673 136.45617984 289.29849827 140.96124073 282.90625 145.49609375 C279.48059222 147.92883737 276.08981959 150.40230356 272.71875 152.91015625 C271.85693115 153.55122314 270.9951123 154.19229004 270.10717773 154.8527832 C268.43797699 156.09727701 266.77074942 157.3444227 265.10571289 158.59448242 C264.3502417 159.15627197 263.59477051 159.71806152 262.81640625 160.296875 C262.15068604 160.79541992 261.48496582 161.29396484 260.79907227 161.80761719 C259 163 259 163 256 164 C256 194.36 256 224.72 256 256 C171.52 256 87.04 256 0 256 C0 171.52 0 87.04 0 0 Z " fill="#ECF0FE" transform="translate(0,256)"/>
<path d="M0 0 C17.82 0 35.64 0 54 0 C55.98 7.92 55.98 7.92 58 16 C63.77349067 32.56080218 73.30033389 51.93391204 89.13104248 61.25471497 C91 63 91 63 91.48101807 65.82841492 C91.47213562 66.9764711 91.46325317 68.12452728 91.45410156 69.30737305 C91.45379944 70.60849533 91.45349731 71.90961761 91.45318604 73.25016785 C91.43275932 74.67069102 91.41189533 76.09120796 91.390625 77.51171875 C91.38316369 78.9647392 91.37747024 80.41776972 91.37347412 81.87080383 C91.35820878 85.69332715 91.3189202 89.51524153 91.2746582 93.33752441 C91.23372432 97.23860435 91.21546719 101.13978278 91.1953125 105.04101562 C91.15242596 112.69428789 91.08416485 120.34705859 91 128 C92.22480324 127.98524879 92.22480324 127.98524879 93.47434998 127.97019958 C94.54943314 127.96255081 95.6245163 127.95490204 96.73217773 127.94702148 C97.79621323 127.93718735 98.86024872 127.92735321 99.95652771 127.91722107 C115.54134426 128.34111008 129.57745133 138.16697424 140 149 C165.19324704 178.94197416 155 218.61855278 155 256 C70.52 256 -13.96 256 -101 256 C-101 164.53027523 -101 164.53027523 -81.87109375 144.8046875 C-71.58579029 135.12656653 -57.06557857 127.78189589 -42.75 127.9375 C-41.67234375 127.94652344 -40.5946875 127.95554687 -39.484375 127.96484375 C-38.66453125 127.97644531 -37.8446875 127.98804687 -37 128 C-37.02664734 127.21010178 -37.05329468 126.42020355 -37.08074951 125.60636902 C-37.32236329 118.11960251 -37.50445402 110.63475425 -37.62174606 103.14509106 C-37.68408247 99.2952973 -37.76842735 95.44875308 -37.90527344 91.60083008 C-38.03679866 87.87872915 -38.10762984 84.1597271 -38.13852692 80.43548012 C-38.16050568 79.02341228 -38.20343277 77.61149269 -38.26876068 76.20076561 C-38.54314027 70.02334593 -38.70788681 64.52341684 -34.39807129 59.75674438 C-31.45838075 56.90979758 -28.24953839 54.48116836 -25 52 C-10.28288478 37.74043841 -4.87325705 19.49302821 0 0 Z " fill="#FF5D52" transform="translate(229,0)"/>
<path d="M0 0 C12.21 -0.103125 24.42 -0.20625 37 -0.3125 C40.82207031 -0.35802002 44.64414062 -0.40354004 48.58203125 -0.45043945 C53.33398438 -0.47302246 53.33398438 -0.47302246 55.57495117 -0.47721863 C57.10432258 -0.48477996 58.63366869 -0.5021156 60.1628418 -0.52787781 C80.20532995 -0.8479651 95.86271865 4.68962367 110.71875 18.62890625 C121.30028177 29.62717643 128.38891154 44.51766283 128.22705078 59.88476562 C128.22729185 60.63905602 128.22753292 61.39334641 128.2277813 62.17049408 C128.22630309 64.58253793 128.21113991 66.99426235 128.1953125 69.40625 C128.19236742 70.90722505 128.19032985 72.40820216 128.18920898 73.90917969 C128.17877551 79.4394847 128.150853 84.96974558 128.125 90.5 C128.08375 102.875 128.0425 115.25 128 128 C85.76 128 43.52 128 0 128 C0 85.76 0 43.52 0 0 Z " fill="#F23259" transform="translate(256,128)"/>
<path d="M0 0 C17.82 0 35.64 0 54 0 C55.32 5.28 56.64 10.56 58 16 C63.77349067 32.56080218 73.30033389 51.93391204 89.13104248 61.25471497 C91 63 91 63 91.48101807 65.82841492 C91.47213562 66.9764711 91.46325317 68.12452728 91.45410156 69.30737305 C91.45361816 70.62668823 91.45313477 71.94600342 91.45263672 73.30529785 C91.43249444 74.70744584 91.41182811 76.1095864 91.390625 77.51171875 C91.38659668 78.78648071 91.38256836 80.06124268 91.37841797 81.37463379 C91.35745792 86.14573518 91.30161275 90.91663174 91.25 95.6875 C91.1675 106.350625 91.085 117.01375 91 128 C48.76 128 6.52 128 -37 128 C-37.2475 117.501875 -37.495 107.00375 -37.75 96.1875 C-37.85924805 92.89418701 -37.96849609 89.60087402 -38.08105469 86.20776367 C-38.11613279 83.56955821 -38.14670421 80.93128734 -38.171875 78.29296875 C-38.20323547 77.62260086 -38.23459595 76.95223297 -38.26690674 76.2615509 C-38.54187843 70.06440637 -38.72271314 64.53981483 -34.39807129 59.75674438 C-31.45838075 56.90979758 -28.24953839 54.48116836 -25 52 C-10.28288478 37.74043841 -4.87325705 19.49302821 0 0 Z " fill="#7C5A8C" transform="translate(229,0)"/>
<path d="M0 0 C30.03 0 60.06 0 91 0 C91 9.9 91 19.8 91 30 C70.87 30 50.74 30 30 30 C30 39.9 30 49.8 30 60 C44.85 60 59.7 60 75 60 C75 69.9 75 79.8 75 90 C60.15 90 45.3 90 30 90 C30 99.9 30 109.8 30 120 C50.13 120 70.26 120 91 120 C91 129.9 91 139.8 91 150 C60.97 150 30.94 150 0 150 C0 100.5 0 51 0 0 Z " fill="#F1335A" transform="translate(60,309)"/>
<path d="M0 0 C5.84474369 4.13552452 9.80409181 9.24272519 13.38671875 15.39453125 C13.89589844 16.2659375 14.40507812 17.13734375 14.9296875 18.03515625 C21.49962337 31.21183435 19.44333243 47.67817263 15.10986328 61.32714844 C10.88400784 73.40835838 4.56288905 82.57690885 -4.61328125 91.39453125 C-5.30808594 92.08546875 -6.00289063 92.77640625 -6.71875 93.48828125 C-14.03112783 100.39048701 -22.33357708 105.55003419 -30.61328125 111.39453125 C-6.35828125 111.88953125 -6.35828125 111.88953125 18.38671875 112.39453125 C18.38671875 122.29453125 18.38671875 132.19453125 18.38671875 142.39453125 C-11.31328125 142.39453125 -41.01328125 142.39453125 -71.61328125 142.39453125 C-71.61328125 103.39453125 -71.61328125 103.39453125 -63.80078125 95.33203125 C-61.30250245 94.06418921 -58.80052419 92.7974034 -56.23583984 91.66992188 C-51.60488049 89.41781503 -47.67840662 86.21261236 -43.61328125 83.08203125 C-42.02663931 81.90238844 -40.43816825 80.72520084 -38.84765625 79.55078125 C-37.43618912 78.49870972 -36.02472992 77.44662755 -34.61328125 76.39453125 C-33.5665625 75.62109375 -32.51984375 74.84765625 -31.44140625 74.05078125 C-21.8655726 66.73832646 -14.54076954 57.55392 -12.61328125 45.39453125 C-12.16379702 39.50702472 -11.79404012 34.22206915 -14.23828125 28.76953125 C-18.16447886 24.84333364 -21.60085246 23.24423342 -27.11328125 22.95703125 C-31.60919445 23.13111543 -34.22389365 24.32794247 -37.61328125 27.39453125 C-39.6624834 30.78631413 -40.64863788 33.53595779 -41.61328125 37.39453125 C-51.51328125 37.39453125 -61.41328125 37.39453125 -71.61328125 37.39453125 C-71.61328125 24.44932184 -67.34070836 14.6265154 -58.58203125 5.2109375 C-41.74487596 -10.92466965 -19.34273196 -11.88320304 0 0 Z " fill="#453B58" transform="translate(327.61328125,316.60546875)"/>
<path d="M0 0 C18.32526933 -0.20054405 18.32526933 -0.20054405 26.234375 -0.24414062 C31.59726194 -0.27384379 36.95971562 -0.30869033 42.32226562 -0.37719727 C46.65360201 -0.43217384 50.98447279 -0.46155616 55.31613159 -0.47438622 C56.95530512 -0.48351002 58.59445788 -0.50132041 60.23342896 -0.52865028 C80.24433002 -0.84856651 95.89072672 4.7159034 110.71875 18.62890625 C123.16761788 31.56805488 128 46.40622995 128 64 C85.76 64 43.52 64 0 64 C0 42.88 0 21.76 0 0 Z " fill="#CC165F" transform="translate(256,128)"/>
<path d="M0 0 C0.74185547 -0.00014603 1.48371094 -0.00029205 2.24804688 -0.0004425 C4.69371491 0.0002527 7.13930625 0.00802673 9.58496094 0.01586914 C11.28318236 0.01773471 12.98140431 0.01915796 14.67962646 0.02015686 C19.14466849 0.02397107 23.60967788 0.033792 28.07470703 0.04486084 C33.43451259 0.05689919 38.79432907 0.06148242 44.15414429 0.06731415 C52.29256419 0.07700433 60.43091251 0.09616856 68.56933594 0.11352539 C68.56933594 21.23352539 68.56933594 42.35352539 68.56933594 64.11352539 C26.32933594 64.11352539 -15.91066406 64.11352539 -59.43066406 64.11352539 C-59.43066406 44.96435227 -53.61464042 30.64635973 -40.30175781 16.91821289 C-31.99228781 9.09928405 -22.23043983 4.52674464 -11.43066406 1.11352539 C-10.87421204 0.9351564 -10.31776001 0.75678741 -9.7444458 0.57301331 C-6.4995211 -0.07138788 -3.29365885 -0.01700709 0 0 Z " fill="#F23158" transform="translate(187.4306640625,127.886474609375)"/>
<path d="M0 0 C7.02401479 1.17385143 13.84762429 2.64609567 20.6875 4.625 C21.49638672 4.85445313 22.30527344 5.08390625 23.13867188 5.3203125 C25.09376146 5.87560422 27.04708356 6.43711319 29 7 C28.53695842 13.71410294 27.03592352 19.70417598 25.11865234 26.14648438 C23.93052215 30.16944017 22.89992811 34.22492653 21.89453125 38.296875 C21.63674393 39.33805481 21.63674393 39.33805481 21.37374878 40.40026855 C20.85140174 42.51637617 20.33154763 44.63308084 19.8125 46.75 C19.11339503 49.59963675 18.41113409 52.44846961 17.70703125 55.296875 C17.25034058 57.15844238 17.25034058 57.15844238 16.78442383 59.05761719 C16 62 16 62 15 64 C24.9 64 34.8 64 45 64 C45 54.1 45 44.2 45 34 C54.9 34 64.8 34 75 34 C75 73.6 75 113.2 75 154 C65.1 154 55.2 154 45 154 C45 134.2 45 114.4 45 94 C25.2 94 5.4 94 -15 94 C-15.0825 88.410625 -15.165 82.82125 -15.25 77.0625 C-15.28641602 75.33781494 -15.32283203 73.61312988 -15.36035156 71.83618164 C-15.49091916 61.00642993 -13.91397236 51.40792093 -11 41 C-10.39433944 38.68789081 -9.78993045 36.37545291 -9.1875 34.0625 C-8.67924722 32.18461823 -8.17074995 30.30680125 -7.65966797 28.4296875 C-6.50667655 24.18299223 -5.36662091 19.93281157 -4.22387695 15.68334961 C-2.81766652 10.45509518 -1.40889711 5.22753096 0 0 Z " fill="#453B58" transform="translate(377,305)"/>
<path d="M0 0 C9.9 0 19.8 0 30 0 C30 49.5 30 99 30 150 C20.1 150 10.2 150 0 150 C0 117.66 0 85.32 0 52 C-3.96 53.98 -3.96 53.98 -8 56 C-10.30949353 56.82047796 -12.64379893 57.57526969 -15 58.25 C-16.134375 58.58515625 -17.26875 58.9203125 -18.4375 59.265625 C-22 60 -22 60 -30 60 C-30 50.1 -30 40.2 -30 30 C-27.36 29.34 -24.72 28.68 -22 28 C-13.72706001 24.93770657 -7.70818984 20.41637969 -3.71875 12.4375 C-1.97826552 8.26033724 -0.89354013 4.46770063 0 0 Z " fill="#624E74" transform="translate(209,309)"/>
<path d="M0 0 C21.12 0 42.24 0 64 0 C64 21.12 64 42.24 64 64 C42.88 64 21.76 64 0 64 C0 42.88 0 21.76 0 0 Z " fill="#443A57" transform="translate(256,64)"/>
<path d="M0 0 C21.12 0 42.24 0 64 0 C64 21.12 64 42.24 64 64 C42.88 64 21.76 64 0 64 C0 42.88 0 21.76 0 0 Z " fill="#614D73" transform="translate(192,64)"/>
<path d="M0 0 C3.51520834 2.3707219 5.79390381 5.02530762 7.6875 8.8125 C8.69791117 22.18101704 5.90948413 32.18982204 -2.3125 42.8125 C-8.98622076 50.11029007 -17.37987363 55.61444114 -25.40625 61.30859375 C-28.83190778 63.74133737 -32.22268041 66.21480356 -35.59375 68.72265625 C-36.88647827 69.68425659 -36.88647827 69.68425659 -38.20532227 70.6652832 C-39.87452301 71.90977701 -41.54175058 73.1569227 -43.20678711 74.40698242 C-43.9622583 74.96877197 -44.71772949 75.53056152 -45.49609375 76.109375 C-46.16181396 76.60791992 -46.82753418 77.10646484 -47.51342773 77.62011719 C-49.3125 78.8125 -49.3125 78.8125 -52.3125 79.8125 C-52.3125 58.0325 -52.3125 36.2525 -52.3125 13.8125 C-42.4125 13.8125 -32.5125 13.8125 -22.3125 13.8125 C-21.9825 11.5025 -21.6525 9.1925 -21.3125 6.8125 C-16.1164789 -1.35267602 -8.88886543 -3.1865744 0 0 Z " fill="#D7D7EC" transform="translate(308.3125,340.1875)"/>
<path d="M0 0 C8.91 0 17.82 0 27 0 C27.556875 2.371875 28.11375 4.74375 28.6875 7.1875 C34.03219546 28.94407736 44.10876405 44.54680731 60 60 C61.32 61.32 62.64 62.64 64 64 C42.88 64 21.76 64 0 64 C0 42.88 0 21.76 0 0 Z " fill="#614D72" transform="translate(256,0)"/>
</svg>
