<?xml version="1.0" encoding="UTF-8"?>
<svg version="1.1" xmlns="http://www.w3.org/2000/svg" width="512" height="512">
<path d="M0 0 C4.83761815 2.83709936 8.50812742 6.41055565 10.20385742 11.92553711 C12.21879629 21.92814868 11.82699027 32.51677366 11.82592773 42.6862793 C11.82811892 45.02476096 11.84637039 47.3627727 11.86523438 49.70117188 C11.93609436 68.46323853 10.3971549 85.9950342 -3.23828125 100.02734375 C-14.2924284 110.41154259 -26.81971775 112.70407009 -41.46484375 112.40234375 C-47.363558 112.13243866 -52.14859653 110.8950645 -57.359375 108.09375 C-58.27847656 107.619375 -59.19757813 107.145 -60.14453125 106.65625 C-71.52394475 100.14478368 -78.38748579 90.4704405 -82.359375 78.09375 C-85.47975229 65.8135555 -83.79398688 52.55533534 -77.95703125 41.41796875 C-66.53434921 23.46006031 -21.49821899 -8.25759405 0 0 Z " fill="#010000" transform="translate(368.359375,2.90625)"/>
<path d="M0 0 C7.49540934 5.28085658 11.42198326 13.21044598 15.625 21.125 C16.23706299 22.27033203 16.84912598 23.41566406 17.47973633 24.59570312 C22.64564855 34.42563748 27.14715417 44.43043679 30.75 54.9375 C31.03190186 55.75162354 31.31380371 56.56574707 31.60424805 57.40454102 C33.4185288 62.98046272 34.26880485 68.01653356 34.1875 73.875 C34.17992676 74.65351318 34.17235352 75.43202637 34.16455078 76.23413086 C33.7841398 89.60821485 27.33513033 100.06710995 17.81640625 109.15234375 C7.90238595 117.71700779 -3.60993127 120.33604667 -16.484375 120.21484375 C-28.9362545 119.29774474 -40.68418069 113.58036546 -49.29296875 104.55078125 C-58.26594636 92.56890097 -61.74673133 79.82088449 -60.25 64.9375 C-56.22053716 46.18816269 -42.69285608 29.77734824 -31.25 14.9375 C-30.7643457 14.29780273 -30.27869141 13.65810547 -29.77832031 12.99902344 C-21.72762043 2.44724714 -13.88356296 -4.53885712 0 0 Z " fill="#010000" transform="translate(317.25,127.0625)"/>
<path d="M0 0 C4.5095119 3.07897346 7.12955692 7.11692133 8.859375 12.26953125 C10.19621873 21.90057316 10.04573017 31.80046335 10.04467773 41.51025391 C10.04687297 43.76744228 10.06514664 46.02414673 10.08398438 48.28125 C10.15634084 67.04113353 8.32436679 83.95813782 -4.640625 98.39453125 C-14.65567095 108.02438312 -27.92786359 111.82434369 -41.484375 111.578125 C-54.04398595 110.51807237 -65.87802711 104.63026827 -74.51171875 95.4140625 C-81.80342459 85.81419078 -85.54740018 75.84151884 -85.453125 63.89453125 C-85.44821045 63.15138672 -85.4432959 62.40824219 -85.43823242 61.64257812 C-85.31371247 55.78311606 -84.51455316 50.67359536 -82.140625 45.26953125 C-81.82351563 44.52703125 -81.50640625 43.78453125 -81.1796875 43.01953125 C-70.41324863 21.02850718 -38.67051477 6.91566158 -17.140625 -1.73046875 C-10.8434265 -3.57580164 -5.72857324 -3.14183377 0 0 Z " fill="#010000" transform="translate(370.140625,252.73046875)"/>
<path d="M0 0 C3.47239975 1.77460679 6.88575507 3.64523899 10.29174805 5.54345703 C11.48395285 6.1863188 12.67663789 6.82829101 13.86987305 7.46923828 C32.09133658 17.51600414 55.26965374 30.84287012 61.5925293 51.94580078 C64.25118718 65.62526399 63.07523408 79.07174293 55.7175293 91.12158203 C47.73236922 102.06627696 37.11858125 109.77145409 23.65893555 112.26220703 C10.12575811 113.8701093 -2.41075454 111.33483456 -13.70825195 103.54345703 C-25.02931741 94.03587485 -30.31034539 83.08192339 -31.93807983 68.48202515 C-32.27050941 63.71058506 -32.22799715 58.94790089 -32.14575195 54.16845703 C-32.13959869 53.44331909 -32.13344543 52.71818115 -32.12710571 51.97106934 C-32.0401851 41.85842971 -31.51520593 31.84897953 -30.39575195 21.79345703 C-30.2783667 20.73594238 -30.16098145 19.67842773 -30.04003906 18.58886719 C-29.14150248 11.61961793 -27.89786524 5.86000644 -22.20825195 1.23095703 C-21.62043945 0.73982422 -21.03262695 0.24869141 -20.42700195 -0.25732422 C-14.04001887 -4.7136965 -6.53238378 -3.13406634 0 0 Z " fill="#000000" transform="translate(434.708251953125,386.45654296875)"/>
<path d="M0 0 C1.20712646 0.26554688 2.41425293 0.53109375 3.65795898 0.8046875 C11.83286257 2.67164643 19.84658219 4.88266316 27.8125 7.5 C28.75577148 7.80744141 29.69904297 8.11488281 30.67089844 8.43164062 C45.91466499 13.68136558 56.60190694 21.12138438 64.0625 35.625 C68.78930735 47.20670113 68.91475987 60.98605006 64.58984375 72.62109375 C58.72052692 85.45511523 49.23843094 94.80243695 36.0625 99.8125 C22.85416159 104.2213775 10.22853709 103.12513098 -2.4375 97.3125 C-19.63023357 87.99976932 -25.01883588 71.59062866 -30.29345703 53.87939453 C-41.08641821 15.74867257 -41.08641821 15.74867257 -35.1875 4.875 C-26.3645133 -6.54586611 -12.38258454 -2.77053661 0 0 Z " fill="#010100" transform="translate(37.25,143.5)"/>
<path d="M0 0 C9.61542231 10.39162609 14.12509379 23.28755533 13.8046875 37.33203125 C12.86649038 49.36213944 8.25225442 60.29111723 -0.5 68.75 C-15.10551749 80.60624361 -34.59051864 84.71339127 -52.5 88.75 C-53.62946045 89.00467041 -54.7589209 89.25934082 -55.92260742 89.52172852 C-75.81904263 93.84192067 -75.81904263 93.84192067 -83.4375 89.4375 C-87.31065427 86.25290649 -89.77031549 83.17581387 -91.4375 78.4375 C-92.19105692 70.18371062 -90.69658284 62.50071798 -88.8125 54.5 C-88.54034668 53.32139404 -88.26819336 52.14278809 -87.98779297 50.9284668 C-77.12129644 4.74742235 -77.12129644 4.74742235 -59.24609375 -6.5859375 C-39.58963916 -17.34757186 -16.75845948 -15.36614034 0 0 Z " fill="#010100" transform="translate(244.4375,22.5625)"/>
<path d="M0 0 C0.68376709 0.31622314 1.36753418 0.63244629 2.07202148 0.95825195 C13.39340198 6.48084204 20.38407505 16.2179547 24.625 27.9375 C27.81251145 39.07692105 26.83141083 53.67871416 21.625 63.9375 C14.78166909 76.02856653 5.13707907 83.41450775 -7.75 88.1875 C-22.97097512 91.33666727 -35.90777095 89.34670565 -49.0625 81.125 C-66.7594719 68.70338195 -71.23108673 43.64705514 -75.6875 23.875 C-75.94217041 22.74553955 -76.19684082 21.6160791 -76.45922852 20.45239258 C-80.57446485 1.49987146 -80.57446485 1.49987146 -77.375 -6.0625 C-62.83274344 -27.0679817 -18.75721789 -8.68477021 0 0 Z " fill="#010100" transform="translate(486.375,280.0625)"/>
<path d="M0 0 C5.24170932 4.12645201 7.7410445 7.67761041 8.9375 14.3125 C8.76486797 22.73512577 6.67492907 31.01360212 4.8125 39.1875 C4.581073 40.20863388 4.581073 40.20863388 4.3449707 41.25039673 C-5.31561747 83.53777509 -5.31561747 83.53777509 -22.0625 95.3125 C-34.03760195 102.4828903 -47.3375859 104.91032535 -61.08984375 102.15625 C-74.43309056 98.3689421 -84.64321359 89.92481798 -91.66015625 78.0703125 C-97.56382484 66.46031243 -98.21390839 53.85136642 -95.0625 41.3125 C-89.86429372 27.13523911 -82.34996313 19.46969683 -69.078125 12.81640625 C-58.48628374 7.93858462 -47.35464875 5.0848953 -36.0625 2.3125 C-35.19270508 2.09787109 -34.32291016 1.88324219 -33.42675781 1.66210938 C-8.47628437 -4.37197825 -8.47628437 -4.37197825 0 0 Z " fill="#010000" transform="translate(230.0625,129.6875)"/>
<path d="M0 0 C3.8855627 3.23482526 6.33138205 6.84283366 6.89868164 11.93847656 C6.88732892 19.74647954 5.81200761 26.98012939 4.109375 34.58984375 C3.84382813 35.79697021 3.57828125 37.00409668 3.3046875 38.24780273 C1.43772857 46.42270632 -0.77328816 54.43642594 -3.390625 62.40234375 C-3.69806641 63.34561523 -4.00550781 64.28888672 -4.32226562 65.26074219 C-8.99123215 78.818145 -15.46244001 90.02232052 -28.515625 96.77734375 C-40.30858226 102.38618928 -54.3497256 103.59109967 -66.953125 99.77734375 C-78.74768084 95.06280681 -88.77421001 86.33742215 -94.328125 74.83984375 C-99.52958353 62.08730232 -99.75217221 49.40907354 -95.390625 36.33984375 C-88.04121693 20.53956593 -76.98816223 13.52170366 -61.07421875 7.7109375 C-13.38247074 -8.62494101 -13.38247074 -8.62494101 0 0 Z " fill="#010000" transform="translate(229.390625,400.66015625)"/>
<path d="M0 0 C8.84607932 7.58235371 9.28744523 17.71620579 10.23828125 28.73828125 C10.75763102 36.25008848 10.8762732 43.76511743 10.92254639 51.29260254 C10.93239272 52.869543 10.94680111 54.44646263 10.96612549 56.02331543 C11.1162471 70.0364044 10.0595876 82.51221184 1.625 94.25 C1.18414062 94.88550781 0.74328125 95.52101563 0.2890625 96.17578125 C-6.61441603 105.17424604 -17.44191411 110.199288 -28.375 112.25 C-41.908958 113.55626261 -54.13807337 111.5148938 -65.1640625 103.09375 C-75.23010118 94.69945626 -82.31956011 84.68536228 -83.55517578 71.29785156 C-84.42319613 57.90109311 -82.30456949 45.77945069 -73.375 35.25 C-59.80346651 21.18739128 -42.29337442 11.39368062 -25.1875 2.25 C-24.46852539 1.86392578 -23.74955078 1.47785156 -23.00878906 1.08007812 C-15.19602191 -3.03268745 -8.12226306 -4.21154381 0 0 Z " fill="#010000" transform="translate(88.375,397.75)"/>
<path d="M0 0 C3.40255338 2.6943296 5.25729936 5.2775653 6.7265625 9.3671875 C7.74277923 19.37049419 5.98272147 28.80046091 3.6640625 38.4921875 C3.42888916 39.49833603 3.42888916 39.49833603 3.18896484 40.52481079 C-6.72101796 82.85246086 -6.72101796 82.85246086 -23.2734375 94.3671875 C-35.57194368 101.81276962 -48.14982764 104.3260248 -62.2734375 101.2421875 C-74.63681202 97.7759701 -84.47157228 90.96124842 -91.3828125 80.03125 C-98.16578542 67.82427993 -99.99201977 55.00205597 -96.51953125 41.41796875 C-94.39876955 35.05568366 -91.38792891 29.64862513 -87.2734375 24.3671875 C-86.81839844 23.76261719 -86.36335938 23.15804688 -85.89453125 22.53515625 C-72.92442217 7.53317629 -46.81634436 3.38332499 -28.5234375 -0.5703125 C-27.56050781 -0.78196045 -26.59757812 -0.9936084 -25.60546875 -1.21166992 C-17.19462768 -2.92431431 -7.73338898 -4.61457367 0 0 Z " fill="#010000" transform="translate(115.2734375,269.6328125)"/>
<path d="M0 0 C4.877122 4.74877668 8.14666919 8.69726225 8.5859375 15.65234375 C8.51946178 21.75356817 7.06171382 27.6296658 5.75 33.5625 C5.47784668 34.80161133 5.20569336 36.04072266 4.92529297 37.31738281 C-5.44761321 83.55603201 -5.44761321 83.55603201 -23.9375 96.125 C-35.07390623 102.78560263 -47.73030495 104.73314778 -60.48046875 102.2265625 C-72.4068389 98.7597667 -83.13443764 92.11315502 -89.9375 81.5625 C-97.0944771 68.42476209 -99.01086368 54.86942599 -95.0625 40.375 C-90.7308002 28.22806559 -82.31406203 18.85212937 -70.75 13.1875 C-52.54217201 5.42609867 -18.96513225 -8.82859605 0 0 Z " fill="#000000" transform="translate(487.625,132.6875)"/>
<path d="M0 0 C1.00039307 0.22252441 2.00078613 0.44504883 3.03149414 0.67431641 C48.33751446 10.91227211 48.33751446 10.91227211 61.2734375 29.80078125 C68.32620431 41.84792818 69.31937887 55.08359767 66 68.46484375 C62.41552588 80.2404013 55.03542911 90.08474091 44.41015625 96.5 C32.15371095 102.85666531 17.66577725 104.17001916 4.375 100.125 C-9.30982937 94.70848712 -17.82608473 84.94554133 -23.9375 71.8125 C-28.46500782 60.85116528 -31.1747626 49.24306575 -34 37.75 C-34.19787109 36.94723633 -34.39574219 36.14447266 -34.59960938 35.31738281 C-39.69956225 14.0871192 -39.69956225 14.0871192 -35.3125 5.6875 C-25.74527979 -6.4654554 -13.31672135 -2.97848582 0 0 Z " fill="#010000" transform="translate(301,391.25)"/>
<path d="M0 0 C3.58298006 3.07112577 6.12179621 5.74038863 7.625 10.25 C8.27949861 19.34811279 7.05509073 27.67819623 4.9375 36.5 C4.66276855 37.67804199 4.38803711 38.85608398 4.10498047 40.06982422 C3.3004644 43.46910257 2.47000528 46.86058413 1.625 50.25 C1.41182129 51.11334961 1.19864258 51.97669922 0.97900391 52.86621094 C-3.64164575 71.15579998 -10.10418285 86.72570961 -26.375 97.25 C-37.38046316 103.16691568 -50.5163399 104.06317604 -62.71484375 101.56640625 C-65.40641052 100.63574973 -67.85113129 99.56697834 -70.375 98.25 C-71.24511719 97.80269531 -72.11523438 97.35539062 -73.01171875 96.89453125 C-83.82275492 90.86685338 -91.25522303 82.20982392 -95.1875 70.375 C-98.95316057 56.02962642 -97.39833761 42.72536976 -90.02734375 29.90625 C-79.02459342 12.30184947 -57.41405989 7.01735584 -38.33203125 2.578125 C-31.69243929 1.07536211 -25.0407464 -0.3678745 -18.375 -1.75 C-17.48272705 -1.93933105 -16.5904541 -2.12866211 -15.67114258 -2.32373047 C-10.17760666 -3.34358307 -4.92345739 -2.55290383 0 0 Z " fill="#000000" transform="translate(114.375,20.75)"/>
<path d="M0 0 C9.6235473 7.59342779 15.26697407 19.00933413 17 31 C18.27823853 44.82658021 14.63048669 57.47313955 6.1015625 68.44140625 C-10.24175257 86.39475049 -44.26953784 92.72969804 -67.17578125 95.23828125 C-72.97643776 95.43976658 -77.21570297 94.35226255 -82 91 C-86.9566552 85.78246821 -88.44874703 81.56156218 -88.32421875 74.4921875 C-87.91480543 70.08236205 -87.115198 65.82723998 -86.1875 61.5 C-86.02233887 60.71028809 -85.85717773 59.92057617 -85.68701172 59.10693359 C-85.51572754 58.36008301 -85.34444336 57.61323242 -85.16796875 56.84375 C-85.01610107 56.17537109 -84.8642334 55.50699219 -84.70776367 54.81835938 C-83.84030356 52.58971402 -82.87995231 51.46986813 -81 50 C-77.8125 49.8125 -77.8125 49.8125 -75 50 C-74.87625 48.865625 -74.7525 47.73125 -74.625 46.5625 C-74.15713891 42.5785919 -73.22645683 38.82895188 -72.109375 34.98046875 C-71.76312284 32.896145 -71.76312284 32.896145 -73.39453125 31.40234375 C-73.92433594 30.93957031 -74.45414063 30.47679687 -75 30 C-76.4163743 26.03415195 -76.03304195 23.51281977 -74.4375 19.75 C-73.64914008 18.15450969 -72.83511008 16.57152533 -72 15 C-71.57460937 14.16855469 -71.14921875 13.33710938 -70.7109375 12.48046875 C-64.13954015 0.53080486 -54.81292046 -4.91547784 -42.25 -9.3125 C-27.19669476 -12.4832371 -12.32023956 -9.00576803 0 0 Z " fill="#010100" transform="translate(241,268)"/>
<path d="M0 0 C1.04865234 0.22445801 2.09730469 0.44891602 3.17773438 0.68017578 C51.59762478 11.29665266 51.59762478 11.29665266 63.8125 28.875 C71.11294987 41.41316876 72.97594295 55.07007755 70.125 69.30859375 C68.03344446 75.45253815 64.65366774 80.68309195 60.8125 85.875 C60.235 86.74125 59.6575 87.6075 59.0625 88.5 C50.96269327 97.04979599 40.00637692 102.32209459 28.28125 103.11328125 C13.3075121 103.39330194 2.00410392 100.11401952 -9.3359375 89.94921875 C-13.65525782 85.55542739 -16.56648119 80.74273253 -19.25 75.25 C-19.56155029 74.62867187 -19.87310059 74.00734375 -20.1940918 73.3671875 C-22.25986483 68.83867722 -22.4803811 65.66387798 -21.1875 60.875 C-20.64480469 60.3696875 -20.10210937 59.864375 -19.54296875 59.34375 C-19.09566406 58.8590625 -18.64835937 58.374375 -18.1875 57.875 C-18.48780266 54.73940787 -18.48780266 54.73940787 -19.5 51.375 C-21.1875 45.05221519 -21.1875 45.05221519 -21.1875 41.875 C-22.115625 41.771875 -23.04375 41.66875 -24 41.5625 C-27.37687971 40.8341534 -28.10668435 40.46900475 -30.1875 37.875 C-31.2875722 34.92291691 -31.81304747 31.83441704 -32.4375 28.75 C-32.7159375 27.52410156 -32.7159375 27.52410156 -33 26.2734375 C-34.45431629 19.31034737 -34.86096006 12.93339252 -31.375 6.5625 C-22.47190803 -4.37558442 -12.71604457 -2.75102777 0 0 Z " fill="#010100" transform="translate(441.1875,18.125)"/>
<path d="M0 0 C20.25644987 1.24457001 49.8757024 5.65691059 65.296875 20.16015625 C67.12231072 22.35897655 68.59485652 24.51497773 70 27 C70.35578125 27.62519531 70.7115625 28.25039063 71.078125 28.89453125 C74.28488564 35.818219 74.05402058 43.97422694 72.15625 51.22265625 C68.9614927 59.75999756 64.04893401 66.06776566 55.9375 70.375 C46.88771112 74.35409005 38.56977453 75.51843042 29.203125 72.046875 C21.29600361 68.28959037 16.03560501 62.70424859 12.56567383 54.68530273 C10.35754794 48.89517027 10.35754794 48.89517027 5.91015625 45.1015625 C5.21792969 45.04742187 4.52570313 44.99328125 3.8125 44.9375 C2.554375 44.628125 1.29625 44.31875 0 44 C-2.66847412 38.58082987 -4 33.025313 -4 27 C-3.175 26.236875 -2.35 25.47375 -1.5 24.6875 C1.28204283 22.21344871 1.28204283 22.21344871 1.4375 18.8125 C0.99202292 14.93048541 0.26684559 11.22251856 -0.66015625 7.4296875 C-1.04164513 4.70226126 -0.67516589 2.65344916 0 0 Z " fill="#F5B364" transform="translate(424,32)"/>
<path d="M0 0 C7.8791404 4.75721685 13.13525393 11.44482428 16.0703125 20.25 C16.89562633 31.41203125 16.06709165 40.41616203 9.0703125 49.5 C4.56810047 54.27157514 -0.96355302 56.72236287 -6.9296875 59.25 C-8.14011719 59.78560547 -8.14011719 59.78560547 -9.375 60.33203125 C-19.1162502 64.26298591 -29.68396672 66.08684946 -39.9296875 68.25 C-41.29818848 68.54124756 -41.29818848 68.54124756 -42.69433594 68.83837891 C-43.57250977 69.02062012 -44.45068359 69.20286133 -45.35546875 69.390625 C-46.13704346 69.55336914 -46.91861816 69.71611328 -47.72387695 69.88378906 C-50.84325514 70.40167144 -53.77525712 70.38714915 -56.9296875 70.25 C-58.51408394 64.72545977 -56.90792672 60.25085212 -55.5234375 54.8203125 C-54.88036268 50.95340206 -55.06225133 48.06203031 -55.9296875 44.25 C-57.84707605 42.28712176 -57.84707605 42.28712176 -59.9296875 41.25 C-59.53297244 36.88613437 -58.94229838 32.62720136 -57.8671875 28.375 C-57.60228516 27.26511719 -57.60228516 27.26511719 -57.33203125 26.1328125 C-55.32334627 23.43591512 -53.04174402 23.64604151 -49.8972168 23.00146484 C-46.99627556 21.89349895 -46.00993309 19.76666174 -44.73828125 17.04418945 C-44.45082031 16.36960693 -44.16335937 15.69502441 -43.8671875 15 C-41.0438754 9.11092109 -38.6272463 4.76306877 -32.9296875 1.25 C-32.39601562 0.84394531 -31.86234375 0.43789063 -31.3125 0.01953125 C-22.93886458 -5.43263581 -8.69970241 -4.2466344 0 0 Z " fill="#F5B464" transform="translate(225.9296875,276.75)"/>
<path d="M0 0 C17.74272068 2.32748481 42.21750026 21.95723288 54 35 C58.69336599 41.99948903 59.71530367 48.75845775 59 57 C57.00447962 67.00302257 52.64752654 73.9408403 44.375 79.88671875 C36.17755953 84.66484642 28.18452691 85.35012546 19 84 C10.45752486 81.38435681 3.90069362 76.47417344 -1 69 C-2.37118219 66.05147886 -3.29994473 63.17049823 -4 60 C-4.25583862 58.87368164 -4.25583862 58.87368164 -4.5168457 57.72460938 C-7.06068559 43.37935766 -5.34279407 27.23778433 -3.625 12.875 C-3.49899414 11.80926758 -3.37298828 10.74353516 -3.24316406 9.64550781 C-2.26921116 2.26921116 -2.26921116 2.26921116 0 0 Z " fill="#D58854" transform="translate(423,399)"/>
<path d="M0 0 C0.495 0.495 0.495 0.495 1 1 C0.64102074 15.72570709 -3.70038837 31.05474844 -8.5 44.875 C-8.77215332 45.66374512 -9.04430664 46.45249023 -9.32470703 47.26513672 C-13.05429486 57.53409581 -17.61888017 65.72805051 -27.28125 71.3203125 C-34.6289941 74.73176512 -42.69966668 75.44702351 -50.546875 73.3046875 C-59.51939321 69.62286106 -66.70715034 63.75830837 -70.96875 55.01171875 C-74.04307615 47.22627244 -74.59855821 37.99687324 -71.375 30.1875 C-70.61930619 28.7718681 -69.82754008 27.3748688 -69 26 C-68.63390625 25.31292969 -68.2678125 24.62585938 -67.890625 23.91796875 C-59.72907473 10.74361446 -37.94378872 6.8657342 -23.91796875 3.515625 C-21.86337817 3.04592128 -19.80739322 2.58227144 -17.75 2.125 C-16.78586182 1.90956543 -15.82172363 1.69413086 -14.82836914 1.47216797 C-9.79073271 0.40477094 -5.15171213 -0.34808866 0 0 Z " fill="#D68854" transform="translate(106,34)"/>
<path d="M0 0 C1 1 1 1 1.20703125 3.890625 C1.1304692 8.98265032 -0.13168009 13.8196472 -1.3125 18.75 C-1.54396729 19.73500488 -1.77543457 20.72000977 -2.01391602 21.73486328 C-2.66657529 24.49226297 -3.33126826 27.24646206 -4 30 C-4.26039063 31.09570312 -4.52078125 32.19140625 -4.7890625 33.3203125 C-8.40844672 47.57981417 -12.78808007 63.04310263 -26 71 C-33.27524005 75.18207942 -42.6210116 75.41889858 -50.62109375 73.30859375 C-52.89486543 72.36677151 -54.90830606 71.2946655 -57 70 C-57.69738281 69.5875 -58.39476562 69.175 -59.11328125 68.75 C-65.78236341 64.32906418 -68.99304011 58.19637067 -72.375 51.125 C-74.15964628 42.20176862 -73.60954883 33.94300787 -69 26 C-57.99352391 10.12429947 -36.4916053 6.60999359 -18.75 2.625 C-17.583479 2.36211182 -16.41695801 2.09922363 -15.21508789 1.82836914 C-10.04748402 0.70912893 -5.3160697 -0.25896826 0 0 Z " fill="#D58854" transform="translate(479,146)"/>
<path d="M0 0 C7.57960361 56.00076062 7.57960361 56.00076062 -4.2109375 72.03125 C-10.5901471 79.05116624 -19.55579486 82.9189418 -29 83.375 C-39.43968134 82.86985413 -47.16246065 78.20125977 -54.25 70.8125 C-59.57860943 64.18813582 -61.75050441 56.11021271 -61.37890625 47.6953125 C-59.8187143 36.5970399 -53.52238752 29.55542523 -44.91333008 22.98144531 C-36.94842961 17.07459301 -28.61662449 11.89152398 -20 7 C-19.32807617 6.61086426 -18.65615234 6.22172852 -17.96386719 5.82080078 C-15.94348678 4.65490277 -13.9119615 3.51163455 -11.875 2.375 C-11.25947266 2.01962158 -10.64394531 1.66424316 -10.00976562 1.2980957 C-6.28690914 -0.72839289 -4.06243256 -1.39502401 0 0 Z " fill="#F5B364" transform="translate(81,412)"/>
<path d="M0 0 C1.62710821 6.22811776 -0.08684301 11.70929834 -1.4375 17.875 C-1.84150024 19.73366699 -1.84150024 19.73366699 -2.25366211 21.62988281 C-4.10791046 29.82275621 -6.32001907 37.81037675 -9.0625 45.75 C-9.37823975 46.67022949 -9.69397949 47.59045898 -10.01928711 48.53857422 C-13.52471198 58.22090782 -18.07829639 66.06915598 -27.21484375 71.2578125 C-35.51716756 75.10621543 -44.58964537 75.51229726 -53.25 72.5 C-62.61596427 68.14444588 -68.22638053 61.48458822 -72 52 C-74.66403279 44.00790164 -73.99552493 34.98884014 -70.4375 27.4375 C-62.10803531 12.9868473 -45.17040964 9.11629536 -30 5 C-25.93013597 3.97722778 -21.84718627 3.03170064 -17.75 2.125 C-16.78610352 1.90972656 -15.82220703 1.69445312 -14.82910156 1.47265625 C-9.77641091 0.40146455 -5.16405197 -0.24251073 0 0 Z " fill="#D68854" transform="translate(220,413)"/>
<path d="M0 0 C19.71882499 0.48518217 51.49420908 6.11769065 65.81640625 20.87109375 C72.79996833 29.50378615 74.08812719 38.01980747 73 49 C70.99839919 57.67360352 65.95291207 63.82048377 59.125 69.3125 C51.02061648 73.6888671 43.22611628 75.30263719 34 74 C24.81173072 70.98871847 18.33985492 65.986714 13.64453125 57.5703125 C12.28702148 54.75504608 11.1227013 51.91678544 10 49 C9.60167969 47.99195313 9.20335937 46.98390625 8.79296875 45.9453125 C5.63430025 37.26148101 3.63591736 28.39600537 1.6875 19.375 C1.42074463 18.14080322 1.15398926 16.90660645 0.87915039 15.63500977 C-1.26761085 5.372771 -1.26761085 5.372771 -1 1 C-0.67 0.67 -0.34 0.34 0 0 Z " fill="#F5B364" transform="translate(280,404)"/>
<path d="M0 0 C1.51893235 4.92412055 0.47767886 9.09555191 -0.5625 14 C-0.74377441 14.87358154 -0.92504883 15.74716309 -1.11181641 16.6472168 C-10.46627798 60.27415502 -10.46627798 60.27415502 -22.28125 68.609375 C-23.37953125 69.17398438 -23.37953125 69.17398438 -24.5 69.75 C-25.2321875 70.13671875 -25.964375 70.5234375 -26.71875 70.921875 C-27.4715625 71.27765625 -28.224375 71.6334375 -29 72 C-29.77214844 72.36609375 -30.54429687 72.7321875 -31.33984375 73.109375 C-39.10890011 75.71046876 -48.07468622 74.94414857 -55.4375 71.5625 C-64.82903129 66.18325364 -69.62102348 59.32641782 -72.5390625 49.11328125 C-74.4094251 40.53814426 -73.16053816 33.35670656 -68.875 25.7578125 C-57.57916575 9.14352296 -33.19056402 5.67281024 -14.75 1.6875 C-13.57099121 1.43009033 -13.57099121 1.43009033 -12.36816406 1.16748047 C-8.17271229 0.29773593 -4.31140888 -0.18536312 0 0 Z " fill="#D68854" transform="translate(222,143)"/>
<path d="M0 0 C3.61294304 0.59725902 3.90212993 0.86469892 6.2265625 4.078125 C7.04211387 5.45938558 7.84041855 6.85091573 8.625 8.25 C9.05449951 9.00071777 9.48399902 9.75143555 9.92651367 10.52490234 C32.82200268 51.25481607 32.82200268 51.25481607 28.1484375 68.0625 C24.94066653 76.79112848 20.04752786 83.09559064 11.75 87.4375 C3.66933312 91.16061718 -6.78795291 91.69767399 -15.25 88.94140625 C-24.70898292 84.0936775 -30.5184833 76.95788648 -34 67 C-36.80633377 57.0907387 -34.19663905 49.94085578 -29.40625 41.15625 C-22.90809851 29.73654771 -15.12595085 19.29648864 -7 9 C-5.62389811 7.2300228 -4.24876213 5.45929381 -2.875 3.6875 C-1.91703899 2.45804313 -0.95886875 1.22874903 0 0 Z " fill="#F5B364" transform="translate(307,141)"/>
<path d="M0 0 C0.495 0.495 0.495 0.495 1 1 C0.72551943 3.68702032 0.39516241 6.33069897 0 9 C-0.23396484 10.66675781 -0.23396484 10.66675781 -0.47265625 12.3671875 C-1.95665121 21.192535 -4.2259316 29.68340257 -6.8125 38.25 C-7.13162354 39.32620605 -7.45074707 40.40241211 -7.77954102 41.51123047 C-10.96750473 51.78976009 -14.47381746 63.03131302 -24 69 C-24.62132812 69.40992188 -25.24265625 69.81984375 -25.8828125 70.2421875 C-32.8606257 74.08927082 -41.26203575 74.25308824 -49 73 C-57.37358128 70.31931731 -64.95350411 65.51359686 -69.2734375 57.6953125 C-73.25351557 49.08592377 -74.93380466 39.97980924 -71.94140625 30.7265625 C-66.78089789 19.6223792 -59.30563868 14.13589305 -48 10 C-37.36621943 6.34463793 -26.52929329 3.52279745 -15.5625 1.0625 C-14.09731934 0.72702148 -14.09731934 0.72702148 -12.60253906 0.38476562 C-11.68311523 0.18689453 -10.76369141 -0.01097656 -9.81640625 -0.21484375 C-9.00631104 -0.39136475 -8.19621582 -0.56788574 -7.36157227 -0.74975586 C-4.67607754 -1.03432446 -2.59847848 -0.70270847 0 0 Z " fill="#D68854" transform="translate(106,283)"/>
<path d="M0 0 C1.20836025 2.4167205 1.14606655 3.98604438 1.17700195 6.68652344 C1.19625481 8.15010284 1.19625481 8.15010284 1.21589661 9.64324951 C1.22328354 10.70457092 1.23067047 11.76589233 1.23828125 12.859375 C1.246353 13.95533997 1.25442474 15.05130493 1.26274109 16.18048096 C1.27659978 18.51076673 1.28731391 20.84107296 1.29516602 23.17138672 C1.31222921 26.69409447 1.35608146 30.21582659 1.40039062 33.73828125 C1.59590314 61.70079919 1.59590314 61.70079919 -6.375 71.625 C-13.57404066 78.77828404 -21.2363103 82.04422708 -31.3125 82.5625 C-40.18201674 82.33427852 -47.53458563 78.60894734 -54 72.625 C-57.17177612 69.13681799 -59.20681092 65.33424849 -61 61 C-61.53560547 59.80117187 -61.53560547 59.80117187 -62.08203125 58.578125 C-64.7263874 51.15142261 -62.99877593 43.77444811 -60.36328125 36.60546875 C-57.32026697 30.78973658 -53.08449199 26.94204814 -47.75 23.25 C-47.14502686 22.82662354 -46.54005371 22.40324707 -45.91674805 21.96704102 C-35.33949262 14.68383361 -24.23202958 8.42490044 -12.6875 2.8125 C-11.47767456 2.21393188 -11.47767456 2.21393188 -10.2434082 1.60327148 C-9.48632568 1.24563721 -8.72924316 0.88800293 -7.94921875 0.51953125 C-6.94894653 0.04157104 -6.94894653 0.04157104 -5.9284668 -0.44604492 C-3.55989443 -1.12642101 -2.27591974 -0.90247241 0 0 Z " fill="#D68854" transform="translate(363,18)"/>
<path d="M0 0 C8.48391136 5.1544289 14.93505382 11.64558584 17.37890625 21.4453125 C18.75473524 31.91867738 17.61071421 40.57857903 11.37890625 49.4453125 C0.69289713 63.00942007 -25.16821579 66.40595153 -41.12109375 69.8203125 C-42.29514771 70.07192139 -42.29514771 70.07192139 -43.49291992 70.32861328 C-47.23448361 71.09082173 -50.79767581 71.75412703 -54.62109375 71.4453125 C-56.21130545 69.8551008 -55.79376445 68.22844763 -55.8125 66.02734375 C-55.75100572 60.52702212 -54.83558644 55.4680529 -53.55859375 50.1328125 C-53.33816406 49.19219971 -53.11773437 48.25158691 -52.890625 47.2824707 C-51.23977322 40.4766755 -49.29915542 33.78783476 -47.12109375 27.1328125 C-46.71298462 25.87247192 -46.71298462 25.87247192 -46.29663086 24.58666992 C-42.45406738 13.3048494 -37.25549345 4.72749338 -26.49609375 -0.9921875 C-18.16531518 -4.315866 -8.07490049 -3.80464834 0 0 Z " fill="#F5B364" transform="translate(224.62109375,27.5546875)"/>
<path d="M0 0 C18.88077077 0.46027027 50.63538889 6.22276336 64.6875 20.0625 C70.61772868 26.48238059 73.28071257 33.41776831 73.5625 42.125 C73.31576428 48.23337623 72.21934161 52.81495448 69 58 C68.57589844 58.69738281 68.15179688 59.39476562 67.71484375 60.11328125 C62.89939333 67.23585554 56.27561344 71.73834167 48 74 C39.52813229 74.85413907 32.32164219 74.50344723 25 70 C23.95392578 69.41605469 23.95392578 69.41605469 22.88671875 68.8203125 C9.35191718 60.20493975 6.31915592 38.78660717 2.75 24.25 C2.49154297 23.20884033 2.23308594 22.16768066 1.96679688 21.0949707 C0.39202056 14.47408617 -0.91956418 7.83060955 -1 1 C-0.67 0.67 -0.34 0.34 0 0 Z " fill="#F5B464" transform="translate(424,280)"/>
<path d="M0 0 C1.59800781 1.59800781 1.14328278 3.28329766 1.16113281 5.49707031 C1.17074036 6.45607239 1.1803479 7.41507446 1.19024658 8.40313721 C1.19449646 9.45088318 1.19874634 10.49862915 1.203125 11.578125 C1.20882507 12.65568054 1.21452515 13.73323608 1.22039795 14.84344482 C1.22987287 17.13683078 1.23639176 19.4302305 1.24023438 21.72363281 C1.24984384 25.19361222 1.28080294 28.66297476 1.3125 32.1328125 C1.45711394 62.33951022 1.45711394 62.33951022 -7.71875 71.765625 C-15.3403432 78.96379635 -22.41266281 81.68873169 -32.90405273 81.60913086 C-41.73168732 81.17919677 -48.96339116 77.5827676 -55 71.125 C-61.57586195 62.75280502 -63.98525553 54.59853448 -63 44 C-59.53671638 29.79219189 -47.83290423 22.08146457 -36.07128906 14.80712891 C-28.52584196 10.28176126 -20.71376425 6.23973953 -12.8125 2.375 C-12.10569092 2.01970215 -11.39888184 1.6644043 -10.6706543 1.29833984 C-6.75076667 -0.56359497 -4.16497834 -1.55304277 0 0 Z " fill="#D68854" transform="translate(363,267)"/>
<path d="M0 0 C2.30615234 0.13232422 2.30615234 0.13232422 5.2109375 0.6796875 C6.29213867 0.88174805 7.37333984 1.08380859 8.48730469 1.29199219 C10.22608887 1.64245605 10.22608887 1.64245605 12 2 C13.15661133 2.23106445 14.31322266 2.46212891 15.50488281 2.70019531 C56.85591709 11.26680926 56.85591709 11.26680926 65.7421875 22.046875 C71.42127421 30.86533262 73.28396252 38.48373559 72 49 C70.2537576 56.7658979 65.98866659 62.82750603 60 68 C50.91679945 73.63831264 42.54777782 74.94632281 32 74 C28.26543377 72.82808534 25.23523396 71.18119352 22 69 C20.9275 68.319375 19.855 67.63875 18.75 66.9375 C6.47443672 55.80304541 3.36432777 32.50025682 0 17 C-0.19416504 16.11248047 -0.38833008 15.22496094 -0.58837891 14.31054688 C-0.77190918 13.43978516 -0.95543945 12.56902344 -1.14453125 11.671875 C-1.3916687 10.50543457 -1.3916687 10.50543457 -1.64379883 9.31542969 C-2.02994629 6.80533884 -2.19388602 4.53457566 -2 2 C-1.34 1.34 -0.68 0.68 0 0 Z " fill="#F5B364" transform="translate(17,156)"/>
<path d="M0 0 C3.61294304 0.59725902 3.90212993 0.86469892 6.2265625 4.078125 C7.04211387 5.45938558 7.84041855 6.85091573 8.625 8.25 C9.05449951 9.00071777 9.48399902 9.75143555 9.92651367 10.52490234 C32.82200268 51.25481607 32.82200268 51.25481607 28.1484375 68.0625 C24.94066653 76.79112848 20.04752786 83.09559064 11.75 87.4375 C6.42583317 89.89057687 1.56619733 90.12929379 -4.25 90.0625 C-4.99507813 90.05798828 -5.74015625 90.05347656 -6.5078125 90.04882812 C-8.3385764 90.03709246 -10.16929873 90.0191585 -12 90 C-12 89.67 -12 89.34 -12 89 C-10.7315625 88.7834375 -10.7315625 88.7834375 -9.4375 88.5625 C-3.06478486 85.6658113 0.504937 79.57172322 3.4375 73.375 C10.21132334 54.43175377 -0.23032574 35.54500693 -8.14550781 18.79736328 C-8.42749023 18.2042334 -8.70947266 17.61110352 -9 17 C-10.32 17.33 -11.64 17.66 -13 18 C-11.70944264 15.25032269 -10.28915704 12.92126698 -8.3984375 10.546875 C-7.66367187 9.61875 -7.66367187 9.61875 -6.9140625 8.671875 C-6.40617187 8.03765625 -5.89828125 7.4034375 -5.375 6.75 C-4.859375 6.1003125 -4.34375 5.450625 -3.8125 4.78125 C-2.54485821 3.18496033 -1.27285639 1.59213474 0 0 Z " fill="#D68D35" transform="translate(307,141)"/>
<path d="M0 0 C7.57960361 56.00076062 7.57960361 56.00076062 -4.2109375 72.03125 C-10.21603012 78.6394742 -18.37732381 82.37478232 -27.234375 83.2109375 C-30.92438598 83.28029861 -34.42356111 82.89410972 -38 82 C-38 81.67 -38 81.34 -38 81 C-37.13375 80.814375 -36.2675 80.62875 -35.375 80.4375 C-28.64045981 77.56908473 -25.58686702 71.80524273 -22.76171875 65.30859375 C-20.86687135 59.56574855 -20.85252705 53.85121099 -20.8671875 47.875 C-20.86623077 47.00987793 -20.86527405 46.14475586 -20.86428833 45.25341797 C-20.86361034 43.43131436 -20.86543795 41.60920829 -20.86962891 39.78710938 C-20.87498254 37.00905903 -20.86967095 34.23117035 -20.86328125 31.453125 C-20.8639421 29.67708298 -20.8652234 27.90104106 -20.8671875 26.125 C-20.86516327 25.29983887 -20.86313904 24.47467773 -20.86105347 23.62451172 C-20.53515458 15.65879317 -20.53515458 15.65879317 -24 9 C-20.94999316 7.28915146 -17.88331982 5.61066004 -14.8125 3.9375 C-13.94818359 3.45216797 -13.08386719 2.96683594 -12.19335938 2.46679688 C-11.35224609 2.01240234 -10.51113281 1.55800781 -9.64453125 1.08984375 C-8.87471924 0.66566162 -8.10490723 0.24147949 -7.31176758 -0.19555664 C-4.49389346 -1.17611374 -2.83113198 -0.80795646 0 0 Z " fill="#D68D35" transform="translate(81,412)"/>
<path d="M0 0 C1.20836025 2.4167205 1.14606655 3.98604438 1.17700195 6.68652344 C1.19625481 8.15010284 1.19625481 8.15010284 1.21589661 9.64324951 C1.22328354 10.70457092 1.23067047 11.76589233 1.23828125 12.859375 C1.246353 13.95533997 1.25442474 15.05130493 1.26274109 16.18048096 C1.27659978 18.51076673 1.28731391 20.84107296 1.29516602 23.17138672 C1.31222921 26.69409447 1.35608146 30.21582659 1.40039062 33.73828125 C1.59590314 61.70079919 1.59590314 61.70079919 -6.375 71.625 C-13.90538535 79.10752273 -21.53293728 82.17605482 -32.0625 82.1875 C-34.04208061 82.13988122 -36.02156869 82.08256205 -38 82 C-36.71034824 80.62437146 -35.37310707 79.29233607 -34 78 C-33.34 78 -32.68 78 -32 78 C-31.72027344 77.42765625 -31.44054687 76.8553125 -31.15234375 76.265625 C-30.41533858 74.81659789 -29.63959316 73.38623786 -28.81640625 71.984375 C-21.22077986 58.44948935 -21.50721014 42.59213689 -21.3125 27.5 C-21.27922366 25.69398736 -21.24472506 23.88799681 -21.20898438 22.08203125 C-21.12528675 17.7214793 -21.0579371 13.36096713 -21 9 C-21.66 8.67 -22.32 8.34 -23 8 C-19.92595107 6.45984969 -16.83950288 4.94637913 -13.75 3.4375 C-12.87730469 2.99986328 -12.00460937 2.56222656 -11.10546875 2.11132812 C-10.26113281 1.70205078 -9.41679687 1.29277344 -8.546875 0.87109375 C-7.77182617 0.48880615 -6.99677734 0.10651855 -6.19824219 -0.28735352 C-3.65545774 -1.1116969 -2.4505229 -1.02239691 0 0 Z " fill="#AC6733" transform="translate(363,18)"/>
<path d="M0 0 C1.59800781 1.59800781 1.14328278 3.28329766 1.16113281 5.49707031 C1.17074036 6.45607239 1.1803479 7.41507446 1.19024658 8.40313721 C1.19449646 9.45088318 1.19874634 10.49862915 1.203125 11.578125 C1.20882507 12.65568054 1.21452515 13.73323608 1.22039795 14.84344482 C1.22987287 17.13683078 1.23639176 19.4302305 1.24023438 21.72363281 C1.24984384 25.19361222 1.28080294 28.66297476 1.3125 32.1328125 C1.45711394 62.33951022 1.45711394 62.33951022 -7.71875 71.765625 C-15.86975902 79.46380019 -22.79783983 81.42952415 -33.76757812 81.20483398 C-35.51219815 81.15015869 -37.2562238 81.0770257 -39 81 C-38.4121875 80.7421875 -37.824375 80.484375 -37.21875 80.21875 C-29.94096342 76.22109258 -26.27253844 68.64607675 -24 61 C-21.40647248 49.66430437 -21.76878901 38.23944823 -21.875 26.6875 C-21.8850544 24.77148908 -21.89417588 22.85547302 -21.90234375 20.93945312 C-21.92415197 16.29283966 -21.95854491 11.64647801 -22 7 C-19.27831329 5.62865399 -16.5493512 4.27795288 -13.8125 2.9375 C-12.65911133 2.35258789 -12.65911133 2.35258789 -11.48242188 1.75585938 C-4.29899832 -1.7279469 -4.29899832 -1.7279469 0 0 Z " fill="#AC6733" transform="translate(363,267)"/>
<path d="M0 0 C17.74272068 2.32748481 42.21750026 21.95723288 54 35 C58.69336599 41.99948903 59.71530367 48.75845775 59 57 C57.00447962 67.00302257 52.64752654 73.9408403 44.375 79.88671875 C36.01413152 84.76010541 28.35259239 84.64091369 19 84 C20.485 83.01 20.485 83.01 22 82 C29.23572007 75.52593468 34.53343713 67.07170858 35.28515625 57.2890625 C35.65356112 46.31660672 34.58628346 36.99557671 27.33203125 28.3515625 C19.41297101 20.36617848 10.20179677 14.1880856 0.3515625 8.8515625 C-2 7 -2 7 -2.4765625 4.3984375 C-2 2 -2 2 0 0 Z " fill="#AC6633" transform="translate(423,399)"/>
<path d="M0 0 C0.495 0.495 0.495 0.495 1 1 C0.64102074 15.72570709 -3.70038837 31.05474844 -8.5 44.875 C-8.77215332 45.66374512 -9.04430664 46.45249023 -9.32470703 47.26513672 C-13.05429486 57.53409581 -17.61888017 65.72805051 -27.28125 71.3203125 C-34.09466417 74.48368337 -40.59959385 74.41757778 -48 74 C-47.29875 73.38125 -46.5975 72.7625 -45.875 72.125 C-29.22001572 55.23543848 -25.46703894 25.38368997 -22 3 C-19.64741656 2.49133331 -17.29338596 1.9929375 -14.9375 1.5 C-13.95233398 1.28537109 -13.95233398 1.28537109 -12.94726562 1.06640625 C-8.57506361 0.16181273 -4.49055681 -0.22881818 0 0 Z " fill="#AB6633" transform="translate(106,34)"/>
<path d="M0 0 C0.495 0.495 0.495 0.495 1 1 C0.72551943 3.68702032 0.39516241 6.33069897 0 9 C-0.23396484 10.66675781 -0.23396484 10.66675781 -0.47265625 12.3671875 C-1.95665121 21.192535 -4.2259316 29.68340257 -6.8125 38.25 C-7.13162354 39.32620605 -7.45074707 40.40241211 -7.77954102 41.51123047 C-10.96750473 51.78976009 -14.47381746 63.03131302 -24 69 C-24.62132813 69.40992188 -25.24265625 69.81984375 -25.8828125 70.2421875 C-33.08743171 74.21431596 -41.0369121 73.35174376 -49 73 C-48.29875 72.505 -47.5975 72.01 -46.875 71.5 C-40.35918338 65.83407251 -36.85570433 59.27562789 -33.9375 51.25 C-33.59952393 50.33968018 -33.26154785 49.42936035 -32.91333008 48.49145508 C-27.69828639 34.0539135 -24.59395975 19.09979822 -22 4 C-22.66 3.67 -23.32 3.34 -24 3 C-20.94102269 2.2961526 -17.87743931 1.61487171 -14.8125 0.9375 C-13.94818359 0.73833984 -13.08386719 0.53917969 -12.19335938 0.33398438 C-4.09236528 -1.43519824 -4.09236528 -1.43519824 0 0 Z " fill="#AC6733" transform="translate(106,283)"/>
<path d="M0 0 C1 1 1 1 1.20703125 3.890625 C1.1304692 8.98265032 -0.13168009 13.8196472 -1.3125 18.75 C-1.54396729 19.73500488 -1.77543457 20.72000977 -2.01391602 21.73486328 C-2.66657529 24.49226297 -3.33126826 27.24646206 -4 30 C-4.26039063 31.09570312 -4.52078125 32.19140625 -4.7890625 33.3203125 C-8.40844672 47.57981417 -12.78808007 63.04310263 -26 71 C-32.89158539 74.96154041 -40.26467916 74.2933338 -48 74 C-47.23429687 73.42507812 -46.46859375 72.85015625 -45.6796875 72.2578125 C-29.28448375 58.44377785 -24.70114904 25.15975642 -22 5 C-22.99 4.67 -23.98 4.34 -25 4 C-21.96050698 3.32315702 -18.91810835 2.66038128 -15.875 2 C-14.59109375 1.71382812 -14.59109375 1.71382812 -13.28125 1.421875 C-8.79615368 0.45585425 -4.61852302 -0.35413595 0 0 Z " fill="#AC6733" transform="translate(479,146)"/>
<path d="M0 0 C1.51893235 4.92412055 0.47767886 9.09555191 -0.5625 14 C-0.74377441 14.87358154 -0.92504883 15.74716309 -1.11181641 16.6472168 C-10.46627798 60.27415502 -10.46627798 60.27415502 -22.28125 68.609375 C-23.0134375 68.98578125 -23.745625 69.3621875 -24.5 69.75 C-25.2321875 70.13671875 -25.964375 70.5234375 -26.71875 70.921875 C-27.4715625 71.27765625 -28.224375 71.6334375 -29 72 C-29.75667969 72.37382812 -30.51335937 72.74765625 -31.29296875 73.1328125 C-34.8202944 74.26277829 -38.15412638 74.21602174 -41.8125 74.125 C-42.50537109 74.11597656 -43.19824219 74.10695313 -43.91210938 74.09765625 C-45.60822395 74.07426157 -47.30415871 74.03839641 -49 74 C-48.21625 73.38382812 -47.4325 72.76765625 -46.625 72.1328125 C-29.0983095 57.89237647 -25.57901468 25.85737248 -22 5 C-22.99 4.67 -23.98 4.34 -25 4 C-21.96050698 3.32315702 -18.91810835 2.66038128 -15.875 2 C-14.59109375 1.71382812 -14.59109375 1.71382812 -13.28125 1.421875 C-8.77267206 0.45079667 -4.64354396 -0.24359575 0 0 Z " fill="#AC6733" transform="translate(222,143)"/>
<path d="M0 0 C1.62710821 6.22811776 -0.08684301 11.70929834 -1.4375 17.875 C-1.84150024 19.73366699 -1.84150024 19.73366699 -2.25366211 21.62988281 C-4.10791046 29.82275621 -6.32001907 37.81037675 -9.0625 45.75 C-9.37823975 46.67022949 -9.69397949 47.59045898 -10.01928711 48.53857422 C-13.52471198 58.22090782 -18.07829639 66.06915598 -27.21484375 71.2578125 C-34.08093651 74.44047462 -40.53870787 74.42101335 -48 74 C-47.29875 73.38125 -46.5975 72.7625 -45.875 72.125 C-38.48537252 64.63099925 -35.13034265 54.82665992 -32 45 C-31.69513672 44.07372803 -31.39027344 43.14745605 -31.07617188 42.19311523 C-28.38116497 33.78925407 -26.46546497 25.33922003 -24.75 16.6875 C-24.47976673 15.34948804 -24.20893601 14.01159661 -23.9375 12.67382812 C-23.28582134 9.45034618 -22.64009289 6.2257988 -22 3 C-19.64741656 2.49133331 -17.29338596 1.9929375 -14.9375 1.5 C-13.95233398 1.28537109 -13.95233398 1.28537109 -12.94726562 1.06640625 C-8.56860012 0.16047545 -4.49581296 -0.14031146 0 0 Z " fill="#AC6633" transform="translate(220,413)"/>
<path d="M0 0 C9.41789216 1.83293164 18.3179152 4.23553345 27.1875 7.9375 C27.97616455 8.26105469 28.7648291 8.58460938 29.57739258 8.91796875 C35.86760106 11.63601833 41.14184542 14.89507675 44.75 20.9375 C45.33007812 21.87916016 45.33007812 21.87916016 45.921875 22.83984375 C49.84359677 30.69749643 50.29882187 39.32251518 48.34765625 47.8515625 C45.09092712 56.88094884 38.76861393 63.81558082 30.08203125 67.90234375 C23.48011379 70.51184482 17.00940981 70.29251015 10 70 C11.0828125 68.948125 11.0828125 68.948125 12.1875 67.875 C17.73693614 62.26285836 21.02440466 57.29312582 24 50 C24.33 49.34 24.66 48.68 25 48 C25.29316553 44.81965947 25.27807572 41.62977814 25.3125 38.4375 C25.35600586 37.13329102 25.35600586 37.13329102 25.40039062 35.80273438 C25.4918529 26.36804916 21.86696453 18.05543469 15.28515625 11.21875 C10.63983286 6.87698239 5.94154234 4.21432481 0 2 C0 1.34 0 0.68 0 0 Z " fill="#D68D35" transform="translate(304,408)"/>
<path d="M0 0 C7.37942314 0.82933884 14.20940365 2.93780668 21.1875 5.375 C22.03022461 5.66705322 22.87294922 5.95910645 23.74121094 6.26000977 C34.76769066 10.19541185 43.30508767 14.3039596 48.9375 25.0625 C52.21404868 32.95008573 52.63607711 41.89430496 49.375 49.875 C48.62929975 51.27546144 47.83691884 52.6520653 47 54 C46.57589844 54.69738281 46.15179688 55.39476562 45.71484375 56.11328125 C40.9220045 63.20241117 34.26778098 67.80609252 26 70 C22.3515625 70.1953125 22.3515625 70.1953125 18.625 70.125 C17.37976563 70.10695313 16.13453125 70.08890625 14.8515625 70.0703125 C13.91054688 70.04710937 12.96953125 70.02390625 12 70 C13.375 68.5 13.375 68.5 15 67 C15.66 67 16.32 67 17 67 C17.27972656 66.41605469 17.55945313 65.83210938 17.84765625 65.23046875 C18.9270405 63.14121992 20.12606449 61.26126866 21.4375 59.3125 C27.56311152 49.39915828 28.50101795 38.69339561 26.53125 27.28515625 C23.82004364 18.10255853 18.13470047 10.92064049 10 6 C6.71368363 4.22538916 3.38879343 2.56940024 0 1 C0 0.67 0 0.34 0 0 Z " fill="#D68D35" transform="translate(446,284)"/>
<path d="M0 0 C14.55673505 2.80919448 31.77983384 6.95164261 40.62890625 19.7265625 C45.15843149 27.23705734 46.05368459 34.23618107 45 43 C42.59605186 52.18174637 37.99861201 59.17645723 29.953125 64.3046875 C23.07645438 67.9562529 15.80605606 69.98116786 8 69 C5.73046875 67.984375 5.73046875 67.984375 4 67 C4.86625 66.814375 5.7325 66.62875 6.625 66.4375 C12.96417464 63.73748117 15.92070512 58.68338499 18.875 52.625 C22.5905902 43.08432322 22.65162994 30.91691661 19.08984375 21.265625 C15.03944538 12.845442 10.32440261 7.9460989 2.16015625 3.375 C1.44730469 2.92125 0.73445313 2.4675 0 2 C0 1.34 0 0.68 0 0 Z " fill="#D68D35" transform="translate(452,37)"/>
<path d="M0 0 C13.45716593 1.07657327 31.89661408 5.9210882 42.1875 15.25 C48.58052761 22.83751435 50.82885973 30.8064612 50.41015625 40.640625 C49.27873635 49.90749273 45.05165994 56.909384 38 63 C31.17734105 67.23510237 25.32613972 69.15977107 17.3125 69.0625 C16.61060547 69.05798828 15.90871094 69.05347656 15.18554688 69.04882812 C13.45699462 69.03706927 11.72848635 69.01913454 10 69 C10.89912109 68.5978125 10.89912109 68.5978125 11.81640625 68.1875 C19.34259233 64.09454729 23.40664814 54.78005559 26 47 C26.71864949 33.15217707 26.23529966 22.07400186 17 11 C12.03430904 6.28573643 6.32269969 3.48809942 0 1 C0 0.67 0 0.34 0 0 Z " fill="#D78D35" transform="translate(39,161)"/>
<path d="M0 0 C11.55368288 -0.4825204 21.13928348 -0.69745068 30.75 6.625 C36.12789546 11.60783678 40.69267735 18.84358711 41.23828125 26.22265625 C41.45181095 37.27000887 39.99951193 45.89154291 32.171875 54.1875 C27.92649697 57.73040541 23.06084459 59.86035178 18 62 C17.14664063 62.36867188 16.29328125 62.73734375 15.4140625 63.1171875 C6.9161787 66.49019368 -2.07512041 68.15415032 -11 70 C-9.63098283 67.26196565 -8.29318019 67.2440383 -5.4375 66.25 C4.78216376 62.27001683 10.42106286 56.20233313 15.2578125 46.46875 C19.11823484 37.29012346 19.49815037 27.59943095 16.375 18.125 C13.8167359 11.95239124 9.99931192 6.45991248 5 2 C2.39388923 1.27802838 2.39388923 1.27802838 0 1 C0 0.67 0 0.34 0 0 Z " fill="#D78D35" transform="translate(201,274)"/>
<path d="M0 0 C11.94177093 -0.61945786 19.95244995 0.3704412 29.3125 8.0625 C36.45603845 14.99229478 39.439326 21.97407833 39.6875 31.9375 C39.57962291 40.97674588 36.48711829 48.97041502 30 55.375 C21.49639098 61.66987941 10.77084398 64.52321403 0.75 67.4375 C-0.1795752 67.70884766 -1.10915039 67.98019531 -2.06689453 68.25976562 C-2.93685059 68.50275391 -3.80680664 68.74574219 -4.703125 68.99609375 C-5.48333008 69.21450928 -6.26353516 69.4329248 -7.06738281 69.65795898 C-9 70 -9 70 -11 69 C-8.91706723 67.8742531 -6.83367092 66.74937917 -4.75 65.625 C-3.58984375 64.99851562 -2.4296875 64.37203125 -1.234375 63.7265625 C2 62 2 62 4.296875 61.0234375 C6.51954462 59.68779658 6.98983538 58.35705078 8 56 C8.80198057 54.76394413 9.61487118 53.53491105 10.4375 52.3125 C16.12609222 43.15689595 17.37935856 33.95430105 15.53125 23.296875 C13.07521417 13.99902507 8.07635919 5.38423946 0 0 Z " fill="#D68D35" transform="translate(203,25)"/>
<path d="M0 0 C4.95 0.99 4.95 0.99 10 2 C9.34 2.66 8.68 3.32 8 4 C5.0574037 3.69347955 2.65457692 3.32728846 0 2 C0 1.34 0 0.68 0 0 Z " fill="#B87A30" transform="translate(304,408)"/>
<path d="M0 0 C4.455 0.99 4.455 0.99 9 2 C8.67 2.99 8.34 3.98 8 5 C5.36 3.68 2.72 2.36 0 1 C0 0.67 0 0.34 0 0 Z " fill="#C98636" transform="translate(446,284)"/>
</svg>
