<?xml version="1.0" encoding="UTF-8"?>
<svg version="1.1" xmlns="http://www.w3.org/2000/svg" width="512" height="512">
<path d="M0 0 C1.46409302 0.02090698 1.46409302 0.02090698 2.95776367 0.04223633 C27.77408401 0.65758326 55.09696187 6.24321108 74 23.4375 C74.81855469 24.15292969 75.63710938 24.86835937 76.48046875 25.60546875 C88.72719918 36.96287534 96.13998861 52.53378479 97.17700195 69.29907227 C97.62854418 91.07204288 95.86744155 106.65634344 80.40234375 123.125 C60.42162762 142.35846983 26.74336153 149.80588611 -0.41113281 149.43994141 C-2.34188451 149.39313341 -4.27255076 149.34269288 -6.203125 149.2890625 C-8.33981251 149.25205615 -10.4765338 149.21695979 -12.61328125 149.18359375 C-15.92916922 149.12827183 -19.24319557 149.06270187 -22.55810547 148.96435547 C-36.05215563 148.58087629 -46.60221259 148.54535722 -58 156.4375 C-52.25493482 158.69785352 -46.54112421 160.43413222 -40.56640625 161.96875 C-38.76437511 162.45350849 -36.96295955 162.94056004 -35.16210938 163.4296875 C-32.36476205 164.18897099 -29.56709698 164.93634005 -26.7565918 165.64550781 C-14.62032263 168.72563861 -6.81488864 171.25055421 0 182.4375 C1.11304723 183.94477454 2.23867021 185.44287465 3.37890625 186.9296875 C4.44265732 188.38876703 5.5038045 189.84974806 6.5625 191.3125 C12.48655433 199.43147337 18.54087391 207.442635 24.67016602 215.40771484 C34.97925944 228.84823937 34.97925944 228.84823937 34 236.4375 C32.4375 238.9375 32.4375 238.9375 30 240.4375 C26.5625 241 26.5625 241 23 240.4375 C18.58587658 236.58071539 15.12603632 231.94494645 11.5625 227.3125 C10.65431519 226.13856689 10.65431519 226.13856689 9.7277832 224.94091797 C4.19162213 217.75226747 -1.19757945 210.45824655 -6.55078125 203.1328125 C-7.07414062 202.43573685 -7.5975 201.73866119 -8.13671875 201.02046204 C-9.42339698 199.23681235 -10.64372242 197.40407413 -11.80653381 195.53730774 C-17.47715297 186.93438151 -23.26331455 183.84126014 -33.1953125 181.22265625 C-34.55663633 180.83218362 -35.91704799 180.43851838 -37.27658081 180.04185486 C-40.10546189 179.22633088 -42.94029877 178.44035447 -45.78369141 177.67700195 C-49.4165692 176.70058803 -53.02942642 175.66564969 -56.6400013 174.61008549 C-59.43853925 173.79634071 -62.24341909 173.00672036 -65.05102158 172.22488213 C-66.38658355 171.8513716 -67.72057116 171.4721805 -69.05282974 171.0870533 C-77.20984881 168.45456671 -77.20984881 168.45456671 -85.37060547 169.73608398 C-86.23830566 170.29755127 -87.10600586 170.85901855 -88 171.4375 C-87.53440674 171.7778125 -87.06881348 172.118125 -86.58911133 172.46875 C-76.86917779 179.58164626 -67.20386978 186.76045713 -57.625 194.0625 C-56.74046143 194.73667969 -55.85592285 195.41085938 -54.94458008 196.10546875 C-52.62546059 197.87753111 -50.3067161 199.64932013 -48 201.4375 C-47.16953156 202.01190323 -46.33906311 202.58630646 -45.48342896 203.17811584 C-42.54937891 205.8474679 -42.00136064 207.47044528 -41.07128906 211.28833008 C-40.77458313 212.46667923 -40.4778772 213.64502838 -40.17218018 214.85908508 C-39.87301697 216.12890732 -39.57385376 217.39872955 -39.265625 218.70703125 C-38.94041278 220.03014158 -38.61362515 221.35286559 -38.28533936 222.67521667 C-37.42710133 226.15213471 -36.59219924 229.63426657 -35.76153564 233.11785889 C-35.08246593 235.94830184 -34.38688062 238.77455686 -33.69034195 241.60074329 C-26.41684375 271.12539843 -26.41684375 271.12539843 -28.25 275.25 C-30 277.4375 -30 277.4375 -33 279.4375 C-36.4375 279.375 -36.4375 279.375 -40 278.4375 C-43.23611434 275.07594006 -44.63119676 272.23186916 -45.65991211 267.71679688 C-45.92376205 266.59213013 -46.187612 265.46746338 -46.4594574 264.30871582 C-46.72935989 263.1034021 -46.99926239 261.89808838 -47.27734375 260.65625 C-47.72537669 258.75206578 -48.17343034 256.84788616 -48.62269688 254.94399261 C-49.72194259 250.26492546 -50.79107106 245.57888741 -51.86108398 240.89306641 C-52.46380877 238.25809069 -53.07619649 235.62568744 -53.69837952 232.99523926 C-54.28205492 230.52262869 -54.8504094 228.04633927 -55.40159607 225.56628418 C-57.32120005 217.4175336 -57.32120005 217.4175336 -63 211.4375 C-63.65291016 210.90987061 -64.30582031 210.38224121 -64.97851562 209.83862305 C-65.61466797 209.38011963 -66.25082031 208.92161621 -66.90625 208.44921875 C-67.64029053 207.91522461 -68.37433105 207.38123047 -69.13061523 206.83105469 C-69.91251221 206.26805664 -70.69440918 205.70505859 -71.5 205.125 C-79.81727222 199.07756302 -88.01203884 192.88626283 -96.14453125 186.5925293 C-96.98242188 185.94840088 -97.8203125 185.30427246 -98.68359375 184.640625 C-99.42150146 184.06989258 -100.15940918 183.49916016 -100.91967773 182.91113281 C-103.79356002 180.85273303 -103.79356002 180.85273303 -107 179.4375 C-109.46366024 179.95157548 -109.46366024 179.95157548 -112.015625 181.1484375 C-113.00731689 181.56520752 -113.99900879 181.98197754 -115.02075195 182.41137695 C-116.08640381 182.87374756 -117.15205566 183.33611816 -118.25 183.8125 C-137.0319401 191.63341831 -156.10585336 198.10260671 -176 202.4375 C-177.66095703 202.80681641 -177.66095703 202.80681641 -179.35546875 203.18359375 C-194.67195351 206.05667304 -213.98516184 207.18614116 -227.5625 198.3125 C-228.7690625 197.384375 -228.7690625 197.384375 -230 196.4375 C-231.72849312 195.05706881 -231.72849312 195.05706881 -234 194.4375 C-237.16152149 195.25844182 -237.16152149 195.25844182 -240.4375 196.75 C-244.30476382 198.38563302 -247.8440737 199.77721264 -252 200.4375 C-251.78794922 200.99735596 -251.57589844 201.55721191 -251.35742188 202.1340332 C-250.39985367 204.67079974 -249.44985301 207.21033511 -248.5 209.75 C-248.16613281 210.63107422 -247.83226562 211.51214844 -247.48828125 212.41992188 C-247.01455078 213.69125977 -247.01455078 213.69125977 -246.53125 214.98828125 C-246.23798828 215.76856689 -245.94472656 216.54885254 -245.64257812 217.3527832 C-245 219.4375 -245 219.4375 -245 222.4375 C-244.17886719 222.68757812 -243.35773438 222.93765625 -242.51171875 223.1953125 C-238.44983006 224.63210961 -234.66789845 226.40079091 -230.8125 228.3125 C-230.10158203 228.65152344 -229.39066406 228.99054688 -228.65820312 229.33984375 C-224.92551608 231.18687422 -222.04649557 232.63686537 -220 236.4375 C-219.4758019 240.03200128 -219.51426017 241.71860505 -221.5625 244.75 C-224.74130689 246.95071246 -227.18324288 247.76359585 -231 247.4375 C-235.43501166 245.88757138 -239.56319236 243.8074026 -243.75 241.6875 C-244.88566406 241.13578125 -246.02132812 240.5840625 -247.19140625 240.015625 C-258.5235799 234.42347288 -258.5235799 234.42347288 -261.14382935 226.96507263 C-261.38769379 226.2431221 -261.63155823 225.52117157 -261.8828125 224.77734375 C-262.14254852 224.03166641 -262.40228455 223.28598907 -262.66989136 222.51771545 C-263.4964539 220.13955488 -264.31104114 217.75750037 -265.125 215.375 C-265.94861964 212.98986477 -266.77464075 210.60557566 -267.60153198 208.22157288 C-268.11483674 206.73889186 -268.62575558 205.25538227 -269.13406372 203.77098083 C-270.40425203 200.03792062 -270.40425203 200.03792062 -272 196.4375 C-275.1727756 197.85391768 -277.45136875 199.58798057 -280 201.9375 C-282.56655491 204.30354281 -284.85859174 205.93551417 -288 207.4375 C-288.55678577 226.83427493 -288.55678577 226.83427493 -281.859375 244.05859375 C-278.55738755 247.07830744 -274.86341033 249.20793553 -271 251.4375 C-266.10078808 255.71938495 -266.10078808 255.71938495 -265.5 260 C-266.02112659 263.58274531 -266.27990732 265.08008635 -269 267.4375 C-272.55262204 268.62170735 -274.32276091 268.71936767 -277.796875 267.2734375 C-281.39125335 265.21324503 -284.33771803 262.8509644 -287.4375 260.125 C-288.57743359 259.12551297 -289.71805255 258.12680704 -290.859375 257.12890625 C-291.40013672 256.65598145 -291.94089844 256.18305664 -292.49804688 255.69580078 C-294.09147398 254.32006296 -294.09147398 254.32006296 -296.328125 252.83984375 C-299.18532368 250.87702029 -300.681492 249.39460079 -301.7890625 246.06640625 C-302.41815493 242.53128236 -302.7303498 239.01313549 -303 235.4375 C-303.18264131 233.30200166 -303.36632586 231.16659241 -303.55078125 229.03125 C-304.07324182 222.8361089 -304.54916939 216.63823286 -305 210.4375 C-307.64 210.1075 -310.28 209.7775 -313 209.4375 C-313.41958984 210.58025391 -313.41958984 210.58025391 -313.84765625 211.74609375 C-316.33898276 218.16266137 -319.01695533 223.30044003 -323.546875 228.5 C-326.25159871 232.10629828 -326.06265826 235.30880733 -325.875 239.6875 C-325.81965202 243.46625748 -326.08090422 246.27059632 -327.5625 249.75 C-329.18673403 253.91651337 -329.08994805 255.19028459 -328 259.4375 C-326.78664087 262.05892008 -325.55110067 264.50204329 -324.125 267 C-323.73296387 267.69601318 -323.34092773 268.39202637 -322.93701172 269.10913086 C-319.74159859 274.58403858 -316.03187435 279.37351982 -311.71923828 284.01196289 C-307.16305723 288.99180053 -304.78156061 293.66804876 -305 300.4375 C-275.39074902 303.55121434 -246.53725168 301.66207096 -217.71801758 294.44360352 C-199.55976207 290.00472773 -199.55976207 290.00472773 -191.4375 294.625 C-186.66318393 298.18312187 -182.96644371 302.63712362 -181.48046875 308.48046875 C-180.3769858 316.55796392 -182.26507079 322.42745529 -187.125 328.9375 C-200.43428506 344.91977955 -215.52791503 353.76149058 -236 357.4375 C-235.29423828 357.96537109 -235.29423828 357.96537109 -234.57421875 358.50390625 C-230.3289652 361.87022531 -227.13314393 364.96401012 -226 370.4375 C-225.1764177 377.90121455 -225.44151746 384.2684495 -230 390.4375 C-236.26606013 397.50690118 -247.34566743 399.9753493 -256.54858398 400.61450195 C-277.84069836 401.09819466 -294.78048738 398.77732016 -310.79467773 383.59838867 C-312.20815021 382.22334968 -313.60460833 380.83088392 -315 379.4375 C-315.98806641 378.46683594 -315.98806641 378.46683594 -316.99609375 377.4765625 C-330.54038879 363.15026429 -344 336.21984409 -344 316.4375 C-344.804375 316.36015625 -344.804375 316.36015625 -345.625 316.28125 C-363.47163899 313.69818383 -378.88815954 301.69285288 -389.52905273 287.64379883 C-393.47593271 282.11523178 -396.43454525 276.10598465 -399.30859375 269.96875 C-401.9754367 264.40102246 -404.86563922 260.3448752 -409.18359375 255.98828125 C-414.44204699 248.6038297 -415.67275546 241.08253663 -415.5 232.1875 C-415.48718994 231.17896973 -415.47437988 230.17043945 -415.46118164 229.13134766 C-415.08968894 215.38060599 -411.19001668 201.40413869 -401.7578125 190.953125 C-399.47521949 187.68648078 -399.79747512 186.13645839 -400.375 182.25 C-401.66166526 170.22306582 -398.40724759 162.21688748 -390.921875 152.83203125 C-382.37470854 142.95497351 -372.86864988 136.62313853 -361 131.4375 C-360.34 131.4375 -359.68 131.4375 -359 131.4375 C-358.91363281 130.82003906 -358.82726562 130.20257813 -358.73828125 129.56640625 C-357.11389233 119.77536479 -353.06537948 111.49002914 -345 105.4375 C-334.93759863 99.31199698 -323.75912471 94.97940051 -311.9296875 94.0703125 C-304.87924204 93.83300593 -304.87924204 93.83300593 -299.0078125 90.4921875 C-298.04854124 88.92105674 -297.13960691 87.31801136 -296.28515625 85.6875 C-293.05041619 80.02424689 -286.78460765 78.18225835 -280.875 76.25 C-260.61270426 70.88581238 -234.6862302 69.0242364 -215.19140625 77.53515625 C-211.10448992 79.32636099 -211.10448992 79.32636099 -206.84375 78.6953125 C-206.0703125 78.32148438 -205.296875 77.94765625 -204.5 77.5625 C-195.33603486 73.63313963 -185.60035046 74.24972199 -175.86645508 75.24194336 C-174.82577377 75.33933304 -173.78509247 75.43672272 -172.71287537 75.5370636 C-169.31408819 75.85742938 -165.91691275 76.19242929 -162.51953125 76.52734375 C-160.13695494 76.75401704 -157.75427765 76.97963112 -155.37150574 77.20423889 C-149.12542478 77.79530408 -142.88055066 78.3982269 -136.63592529 79.00445557 C-126.63253141 79.97392708 -116.62755898 80.92685142 -106.62228966 81.87674141 C-103.14048902 82.20926091 -99.65931574 82.54782295 -96.17817688 82.88719177 C-94.03392094 83.09284779 -91.88964987 83.29834624 -89.74536133 83.50366211 C-88.78669159 83.59874054 -87.82802185 83.69381897 -86.84030151 83.79177856 C-81.20169992 84.32575883 -75.66167176 84.76131164 -70 84.4375 C-67.83317376 81.72998108 -67.83317376 81.72998108 -66 78.4375 C-60.41635591 73.67312649 -54.99141955 72.09538161 -47.77734375 72.58984375 C-41.35444115 73.57035547 -37.27968923 76.65431792 -33 81.4375 C-30.57151993 85.11938914 -29.99237764 86.89413435 -30.0546875 91.3359375 C-29.8954767 93.48961862 -29.8954767 93.48961862 -29 95.4375 C-25.97299513 97.70275762 -22.60170366 98.857046 -19.0625 100.125 C-17.21884129 100.8340995 -15.37638618 101.54633642 -13.53515625 102.26171875 C-12.62266113 102.61411621 -11.71016602 102.96651367 -10.77001953 103.32958984 C-7.95654407 104.45488084 -5.18549277 105.6257568 -2.43359375 106.89453125 C-1.2259436 107.44524292 -1.2259436 107.44524292 0.00610352 108.00708008 C2.58696346 109.85858717 3.15008626 111.41157622 4 114.4375 C3.92778555 118.48150897 3.525048 120.7199344 1.125 124 C-3.26484008 127.42407526 -8.05007867 129.91486059 -13 132.4375 C12.80740799 133.27149164 42.34484512 129.48388401 64 114.4375 C65.051875 113.715625 66.10375 112.99375 67.1875 112.25 C76.64315521 102.79434479 80.24020231 92.30904387 80.4375 79.25 C80.33717415 63.00835897 75.37743257 49.50297299 64.25390625 37.53515625 C48.66371627 23.025742 25.06412561 18.15975372 4.453125 17.203125 C3.6904834 17.16727295 2.9278418 17.1314209 2.14208984 17.09448242 C0.66899558 17.03309027 -0.80476672 16.98559098 -2.27880859 16.9543457 C-6.65620386 16.79258833 -9.50580529 16.12077782 -13 13.4375 C-14.54586876 10.34576248 -14.29359521 7.84320448 -14 4.4375 C-10.60691352 -0.91350192 -5.70412042 -0.13570741 0 0 Z " fill="#F77C68" transform="translate(415,55.5625)"/>
<path d="M0 0 C1.46409302 0.02090698 1.46409302 0.02090698 2.95776367 0.04223633 C27.77408401 0.65758326 55.09696187 6.24321108 74 23.4375 C74.81855469 24.15292969 75.63710938 24.86835937 76.48046875 25.60546875 C88.72719918 36.96287534 96.13998861 52.53378479 97.17700195 69.29907227 C97.62854418 91.07204288 95.86744155 106.65634344 80.40234375 123.125 C60.42162762 142.35846983 26.74336153 149.80588611 -0.41113281 149.43994141 C-2.34188451 149.39313341 -4.27255076 149.34269288 -6.203125 149.2890625 C-8.33981251 149.25205615 -10.4765338 149.21695979 -12.61328125 149.18359375 C-15.92916922 149.12827183 -19.24319557 149.06270187 -22.55810547 148.96435547 C-36.05215563 148.58087629 -46.60221259 148.54535722 -58 156.4375 C-52.25493482 158.69785352 -46.54112421 160.43413222 -40.56640625 161.96875 C-38.76437511 162.45350849 -36.96295955 162.94056004 -35.16210938 163.4296875 C-32.36476205 164.18897099 -29.56709698 164.93634005 -26.7565918 165.64550781 C-14.62032263 168.72563861 -6.81488864 171.25055421 0 182.4375 C1.11304723 183.94477454 2.23867021 185.44287465 3.37890625 186.9296875 C4.44265732 188.38876703 5.5038045 189.84974806 6.5625 191.3125 C12.48655433 199.43147337 18.54087391 207.442635 24.67016602 215.40771484 C34.97925944 228.84823937 34.97925944 228.84823937 34 236.4375 C32.4375 238.9375 32.4375 238.9375 30 240.4375 C26.5625 241 26.5625 241 23 240.4375 C18.58587658 236.58071539 15.12603632 231.94494645 11.5625 227.3125 C10.65431519 226.13856689 10.65431519 226.13856689 9.7277832 224.94091797 C4.19162213 217.75226747 -1.19757945 210.45824655 -6.55078125 203.1328125 C-7.07414063 202.43573685 -7.5975 201.73866119 -8.13671875 201.02046204 C-9.42339698 199.23681235 -10.64372242 197.40407413 -11.80653381 195.53730774 C-17.47715297 186.93438151 -23.26331455 183.84126014 -33.1953125 181.22265625 C-34.55663633 180.83218362 -35.91704799 180.43851838 -37.27658081 180.04185486 C-40.10546189 179.22633088 -42.94029877 178.44035447 -45.78369141 177.67700195 C-49.4165692 176.70058803 -53.02942642 175.66564969 -56.6400013 174.61008549 C-59.43853925 173.79634071 -62.24341909 173.00672036 -65.05102158 172.22488213 C-66.38658355 171.8513716 -67.72057116 171.4721805 -69.05282974 171.0870533 C-77.20984881 168.45456671 -77.20984881 168.45456671 -85.37060547 169.73608398 C-86.23830566 170.29755127 -87.10600586 170.85901855 -88 171.4375 C-87.53440674 171.7778125 -87.06881348 172.118125 -86.58911133 172.46875 C-76.86917779 179.58164626 -67.20386978 186.76045713 -57.625 194.0625 C-56.74046143 194.73667969 -55.85592285 195.41085938 -54.94458008 196.10546875 C-52.62546059 197.87753111 -50.3067161 199.64932013 -48 201.4375 C-47.16953156 202.01190323 -46.33906311 202.58630646 -45.48342896 203.17811584 C-42.54937891 205.8474679 -42.00136064 207.47044528 -41.07128906 211.28833008 C-40.77458313 212.46667923 -40.4778772 213.64502838 -40.17218018 214.85908508 C-39.87301697 216.12890732 -39.57385376 217.39872955 -39.265625 218.70703125 C-38.94041278 220.03014158 -38.61362515 221.35286559 -38.28533936 222.67521667 C-37.42710133 226.15213471 -36.59219924 229.63426657 -35.76153564 233.11785889 C-35.08246593 235.94830184 -34.38688062 238.77455686 -33.69034195 241.60074329 C-26.41684375 271.12539843 -26.41684375 271.12539843 -28.25 275.25 C-30 277.4375 -30 277.4375 -33 279.4375 C-36.4375 279.375 -36.4375 279.375 -40 278.4375 C-43.23611434 275.07594006 -44.63119676 272.23186916 -45.65991211 267.71679688 C-46.05568703 266.02979675 -46.05568703 266.02979675 -46.4594574 264.30871582 C-46.72935989 263.1034021 -46.99926239 261.89808838 -47.27734375 260.65625 C-47.72537669 258.75206578 -48.17343034 256.84788616 -48.62269688 254.94399261 C-49.72194259 250.26492546 -50.79107106 245.57888741 -51.86108398 240.89306641 C-52.46380877 238.25809069 -53.07619649 235.62568744 -53.69837952 232.99523926 C-54.28205492 230.52262869 -54.8504094 228.04633927 -55.40159607 225.56628418 C-57.32120005 217.4175336 -57.32120005 217.4175336 -63 211.4375 C-63.65291016 210.90987061 -64.30582031 210.38224121 -64.97851562 209.83862305 C-65.61466797 209.38011963 -66.25082031 208.92161621 -66.90625 208.44921875 C-67.64029053 207.91522461 -68.37433105 207.38123047 -69.13061523 206.83105469 C-69.91251221 206.26805664 -70.69440918 205.70505859 -71.5 205.125 C-79.81727222 199.07756302 -88.01203884 192.88626283 -96.14453125 186.5925293 C-96.98242188 185.94840088 -97.8203125 185.30427246 -98.68359375 184.640625 C-99.42150146 184.06989258 -100.15940918 183.49916016 -100.91967773 182.91113281 C-103.79356002 180.85273303 -103.79356002 180.85273303 -107 179.4375 C-109.46366024 179.95157548 -109.46366024 179.95157548 -112.015625 181.1484375 C-113.00731689 181.56520752 -113.99900879 181.98197754 -115.02075195 182.41137695 C-116.08640381 182.87374756 -117.15205566 183.33611816 -118.25 183.8125 C-137.0319401 191.63341831 -156.10585336 198.10260671 -176 202.4375 C-177.10730469 202.68371094 -178.21460938 202.92992187 -179.35546875 203.18359375 C-195.52800739 206.21725236 -212.5020852 206.1864574 -227.375 198.75 C-238.67902873 188.79168898 -245.1321863 174.33338317 -246.31640625 159.46484375 C-247.32589462 134.64634271 -235.88859646 107.23745722 -220 88.4375 C-210.45348131 78.63445297 -200.5329188 75.04554192 -187 74.4375 C-183.26705796 74.53196005 -179.58030281 74.86337353 -175.86645508 75.24194336 C-174.82577377 75.33933304 -173.78509247 75.43672272 -172.71287537 75.5370636 C-169.31408819 75.85742938 -165.91691275 76.19242929 -162.51953125 76.52734375 C-160.13695494 76.75401704 -157.75427765 76.97963112 -155.37150574 77.20423889 C-149.12542478 77.79530408 -142.88055066 78.3982269 -136.63592529 79.00445557 C-126.63253141 79.97392708 -116.62755898 80.92685142 -106.62228966 81.87674141 C-103.14048902 82.20926091 -99.65931574 82.54782295 -96.17817688 82.88719177 C-94.03392094 83.09284779 -91.88964987 83.29834624 -89.74536133 83.50366211 C-88.78669159 83.59874054 -87.82802185 83.69381897 -86.84030151 83.79177856 C-81.20169992 84.32575883 -75.66167176 84.76131164 -70 84.4375 C-67.83317376 81.72998108 -67.83317376 81.72998108 -66 78.4375 C-60.41635591 73.67312649 -54.99141955 72.09538161 -47.77734375 72.58984375 C-41.35444115 73.57035547 -37.27968923 76.65431792 -33 81.4375 C-30.57151993 85.11938914 -29.99237764 86.89413435 -30.0546875 91.3359375 C-29.8954767 93.48961862 -29.8954767 93.48961862 -29 95.4375 C-25.97299513 97.70275762 -22.60170366 98.857046 -19.0625 100.125 C-17.21884129 100.8340995 -15.37638618 101.54633642 -13.53515625 102.26171875 C-12.62266113 102.61411621 -11.71016602 102.96651367 -10.77001953 103.32958984 C-7.95654407 104.45488084 -5.18549277 105.6257568 -2.43359375 106.89453125 C-1.62849365 107.26167236 -0.82339355 107.62881348 0.00610352 108.00708008 C2.58696346 109.85858717 3.15008626 111.41157622 4 114.4375 C3.92778555 118.48150897 3.525048 120.7199344 1.125 124 C-3.26484008 127.42407526 -8.05007867 129.91486059 -13 132.4375 C12.80740799 133.27149164 42.34484512 129.48388401 64 114.4375 C65.051875 113.715625 66.10375 112.99375 67.1875 112.25 C76.64315521 102.79434479 80.24020231 92.30904387 80.4375 79.25 C80.33717415 63.00835897 75.37743257 49.50297299 64.25390625 37.53515625 C48.66371627 23.025742 25.06412561 18.15975372 4.453125 17.203125 C3.6904834 17.16727295 2.9278418 17.1314209 2.14208984 17.09448242 C0.66899558 17.03309027 -0.80476672 16.98559098 -2.27880859 16.9543457 C-6.65620386 16.79258833 -9.50580529 16.12077782 -13 13.4375 C-14.54586876 10.34576248 -14.29359521 7.84320448 -14 4.4375 C-10.60691352 -0.91350192 -5.70412042 -0.13570741 0 0 Z " fill="#F77B67" transform="translate(415,55.5625)"/>
<path d="M0 0 C1.78125 1.62890625 1.78125 1.62890625 3 3 C2.12988281 3.61875 2.12988281 3.61875 1.2421875 4.25 C-16.9068792 17.66713182 -27.25585637 43.4290476 -31.5859375 64.90625 C-33.68471038 80.58764734 -31.18631886 95.29625621 -23 109 C-22.43410156 109.68835938 -21.86820312 110.37671875 -21.28515625 111.0859375 C-20.64900391 112.03339844 -20.64900391 112.03339844 -20 113 C-20.495 114.485 -20.495 114.485 -21 116 C-23.765625 117.3515625 -23.765625 117.3515625 -27.25 118.625 C-28.38953125 119.05039063 -29.5290625 119.47578125 -30.703125 119.9140625 C-33.47930903 120.82849279 -36.12369603 121.51340722 -39 122 C-38.78794922 122.55985596 -38.57589844 123.11971191 -38.35742188 123.6965332 C-37.39985367 126.23329974 -36.44985301 128.77283511 -35.5 131.3125 C-35.16613281 132.19357422 -34.83226562 133.07464844 -34.48828125 133.98242188 C-34.17246094 134.82998047 -33.85664063 135.67753906 -33.53125 136.55078125 C-33.23798828 137.33106689 -32.94472656 138.11135254 -32.64257812 138.9152832 C-32 141 -32 141 -32 144 C-31.17886719 144.25007812 -30.35773438 144.50015625 -29.51171875 144.7578125 C-25.44983006 146.19460961 -21.66789845 147.96329091 -17.8125 149.875 C-17.10158203 150.21402344 -16.39066406 150.55304688 -15.65820312 150.90234375 C-11.92551608 152.74937422 -9.04649557 154.19936537 -7 158 C-6.4758019 161.59450128 -6.51426017 163.28110505 -8.5625 166.3125 C-11.74130689 168.51321246 -14.18324288 169.32609585 -18 169 C-22.43501166 167.45007138 -26.56319236 165.3699026 -30.75 163.25 C-31.88566406 162.69828125 -33.02132812 162.1465625 -34.19140625 161.578125 C-45.54748754 155.97417504 -45.54748754 155.97417504 -48.06687927 148.60452271 C-48.41855919 147.53571365 -48.41855919 147.53571365 -48.77734375 146.4453125 C-49.29620247 144.92837807 -49.81508337 143.41145122 -50.33398438 141.89453125 C-51.13750754 139.51021426 -51.93757672 137.12477076 -52.73608398 134.73876953 C-53.51223742 132.42965931 -54.30060576 130.12497706 -55.08984375 127.8203125 C-55.3222728 127.11182159 -55.55470184 126.40333069 -55.79417419 125.67337036 C-57.64619523 120.27934746 -59.96000567 116.58164117 -64.46875 113.0859375 C-73.28034547 105.82453013 -77.89523494 93.60163681 -81 83 C-81.21640137 82.26587891 -81.43280273 81.53175781 -81.65576172 80.77539062 C-84.71657948 70.24495408 -86.941298 59.93171371 -88 49 C-88.11085938 47.9378125 -88.22171875 46.875625 -88.3359375 45.78125 C-90.88400407 17.95911774 -90.88400407 17.95911774 -84.3125 7.25 C-66.30903769 -10.26688225 -21.50757277 -11.27542528 0 0 Z " fill="#F77C68" transform="translate(202,134)"/>
<path d="M0 0 C1.20067108 0.0948896 1.20067108 0.0948896 2.42559814 0.19169617 C4.10323366 0.32648898 5.78054605 0.46536089 7.45751953 0.6081543 C10.02162047 0.82472514 12.58668747 1.02351453 15.15234375 1.22070312 C16.78914943 1.35440874 18.42587185 1.48913847 20.0625 1.625 C21.20788239 1.71265373 21.20788239 1.71265373 22.37640381 1.80207825 C26.06835449 2.12826247 29.10020302 2.50137442 32.265625 4.51171875 C31.62496094 4.92421875 30.98429687 5.33671875 30.32421875 5.76171875 C12.11799473 17.91729007 2.21396467 39.94991 -3.734375 60.51171875 C-3.96125 61.28386719 -4.188125 62.05601562 -4.421875 62.8515625 C-8.32899441 78.72423511 -6.02118565 95.33164012 1.51953125 109.6796875 C5.24834649 115.7275422 10.26047969 120.52881853 15.265625 125.51171875 C-5.02003147 129.97088673 -25.8478618 133.45497535 -45.109375 123.82421875 C-56.41340373 113.86590773 -62.8665613 99.40760192 -64.05078125 84.5390625 C-65.06026962 59.72056146 -53.62297146 32.31167597 -37.734375 13.51171875 C-27.08937856 2.58067634 -15.02858719 -1.28323356 0 0 Z " fill="#EC625E" transform="translate(232.734375,130.48828125)"/>
<path d="M0 0 C-0.02320313 1.27230469 -0.04640625 2.54460937 -0.0703125 3.85546875 C-0.46467931 35.23020843 2.25307241 73.37334227 24 98 C25.32160724 99.34495719 26.65203207 100.68146368 28 102 C27.01085062 103.07260886 26.00783188 104.132426 25 105.1875 C24.1646875 106.07501953 24.1646875 106.07501953 23.3125 106.98046875 C20.13534339 109.75511396 16.6154014 111.84403172 13 114 C12.44321423 133.39677493 12.44321423 133.39677493 19.140625 150.62109375 C22.44261245 153.64080744 26.13658967 155.77043553 30 158 C34.89921192 162.28188495 34.89921192 162.28188495 35.5 166.5625 C34.97887341 170.14524531 34.72009268 171.64258635 32 174 C28.44737796 175.18420735 26.67723909 175.28186767 23.203125 173.8359375 C19.60874665 171.77574503 16.66228197 169.4134644 13.5625 166.6875 C12.42256641 165.68801297 11.28194745 164.68930704 10.140625 163.69140625 C9.59986328 163.21848145 9.05910156 162.74555664 8.50195312 162.25830078 C6.90852602 160.88256296 6.90852602 160.88256296 4.671875 159.40234375 C1.81467632 157.43952029 0.318508 155.95710079 -0.7890625 152.62890625 C-1.41815493 149.09378236 -1.7303498 145.57563549 -2 142 C-2.18264131 139.86450166 -2.36632586 137.72909241 -2.55078125 135.59375 C-3.07324182 129.3986089 -3.54916939 123.20073286 -4 117 C-5.21558594 116.90074219 -6.43117187 116.80148437 -7.68359375 116.69921875 C-11.53908163 116.21293335 -13.92305385 115.18673891 -17.0625 112.8125 C-18.3309375 111.8534375 -18.3309375 111.8534375 -19.625 110.875 C-20.40875 110.25625 -21.1925 109.6375 -22 109 C-22.928125 108.319375 -22.928125 108.319375 -23.875 107.625 C-40.00635036 95.07839416 -54.73685643 66.98763192 -57.29150391 46.68310547 C-58.21794524 35.35661304 -57.05489501 26.82338682 -49.8125 17.8125 C-37.27934842 4.4579368 -17.8192029 -0.43405751 0 0 Z " fill="#F77C68" transform="translate(114,149)"/>
<path d="M0 0 C4.77431607 3.55812187 8.47105629 8.01212362 9.95703125 13.85546875 C11.0605142 21.93296392 9.17242921 27.80245529 4.3125 34.3125 C-6.85772599 47.72611866 -20.9506545 58.67754053 -38.5625 61.8125 C-70.15595711 64.63990379 -96.94949307 50.50030814 -120.5625 30.8125 C-121.36171875 30.16667969 -122.1609375 29.52085937 -122.984375 28.85546875 C-124.55714489 27.5626519 -126.07058922 26.19784572 -127.5625 24.8125 C-127.5625 24.1525 -127.5625 23.4925 -127.5625 22.8125 C-125.953125 21.734375 -125.953125 21.734375 -123.8125 20.5625 C-118.16424405 17.16955473 -115.90074182 12.83093113 -113.5625 6.8125 C-112.99747772 6.81916183 -112.43245544 6.82582367 -111.85031128 6.83268738 C-105.84557936 6.90025725 -99.84095909 6.94479084 -93.8359375 6.97729492 C-91.60965575 6.99216879 -89.38340213 7.01247407 -87.15722656 7.03881836 C-67.41528629 7.26619843 -48.60979253 5.82300523 -29.5 0.625 C-8.31352589 -4.72907089 -8.31352589 -4.72907089 0 0 Z " fill="#F77B67" transform="translate(223.5625,350.1875)"/>
<path d="M0 0 C1.46409302 0.02090698 1.46409302 0.02090698 2.95776367 0.04223633 C27.77408401 0.65758326 55.09696187 6.24321108 74 23.4375 C75.22783203 24.51064453 75.22783203 24.51064453 76.48046875 25.60546875 C88.72719918 36.96287534 96.13998861 52.53378479 97.17700195 69.29907227 C97.62854418 91.07204288 95.86744155 106.65634344 80.40234375 123.125 C63.10406672 139.77634959 38.1115893 145.50320683 15 148.4375 C14.31671631 148.53321289 13.63343262 148.62892578 12.92944336 148.72753906 C4.81729745 149.7206124 -3.33648014 149.58819599 -11.49536133 149.56787109 C-14.06011852 149.56250498 -16.6247012 149.56784548 -19.18945312 149.57421875 C-20.84635455 149.57355797 -22.50325586 149.57227682 -24.16015625 149.5703125 C-24.91353775 149.57233673 -25.66691925 149.57436096 -26.44313049 149.57644653 C-31.69390762 149.55370599 -36.78875653 149.08660906 -42 148.4375 C-33.16812555 138.33709074 -19.30620045 133.07360295 -6.27441406 132.16162109 C-1.34081407 131.94680636 3.59368929 131.78057263 8.52929688 131.61962891 C27.7238816 130.61237228 48.01821087 125.29061126 64 114.4375 C64.59941406 114.05207031 65.19882812 113.66664063 65.81640625 113.26953125 C72.52658044 108.41648099 77.54260061 99.42119823 79.5625 91.48046875 C81.92812817 75.02667997 80.13137283 58.09487266 70 44.4375 C57.37958221 27.65650491 36.71595753 21.1475294 16.625 18.25 C12.56771486 17.75353895 8.53449761 17.3925558 4.453125 17.203125 C3.6904834 17.16727295 2.9278418 17.1314209 2.14208984 17.09448242 C0.66899558 17.03309027 -0.80476672 16.98559098 -2.27880859 16.9543457 C-6.65620386 16.79258833 -9.50580529 16.12077782 -13 13.4375 C-14.54586876 10.34576248 -14.29359521 7.84320448 -14 4.4375 C-10.60691352 -0.91350192 -5.70412042 -0.13570741 0 0 Z " fill="#EC615D" transform="translate(415,55.5625)"/>
<path d="M0 0 C-0.46539419 3.32424424 -0.9327883 6.63637986 -1.54296875 9.9375 C-3.86807707 25.51771301 -1.11717461 40.41200238 7 54 C7.56589844 54.68835938 8.13179687 55.37671875 8.71484375 56.0859375 C9.13894531 56.71757812 9.56304687 57.34921875 10 58 C9.67 58.99 9.34 59.98 9 61 C6.234375 62.3515625 6.234375 62.3515625 2.75 63.625 C1.61046875 64.05039063 0.4709375 64.47578125 -0.703125 64.9140625 C-3.47930903 65.82849279 -6.12369603 66.51340722 -9 67 C-8.78794922 67.55985596 -8.57589844 68.11971191 -8.35742188 68.6965332 C-7.39985367 71.23329974 -6.44985301 73.77283511 -5.5 76.3125 C-5.16613281 77.19357422 -4.83226562 78.07464844 -4.48828125 78.98242188 C-4.17246094 79.82998047 -3.85664063 80.67753906 -3.53125 81.55078125 C-3.23798828 82.33106689 -2.94472656 83.11135254 -2.64257812 83.9152832 C-2 86 -2 86 -2 89 C-1.17886719 89.25007813 -0.35773438 89.50015625 0.48828125 89.7578125 C4.55016994 91.19460961 8.33210155 92.96329091 12.1875 94.875 C12.89841797 95.21402344 13.60933594 95.55304688 14.34179688 95.90234375 C18.07448392 97.74937422 20.95350443 99.19936537 23 103 C23.5241981 106.59450128 23.48573983 108.28110505 21.4375 111.3125 C18.25869311 113.51321246 15.81675712 114.32609585 12 114 C7.56498834 112.45007138 3.43680764 110.3699026 -0.75 108.25 C-1.88566406 107.69828125 -3.02132812 107.1465625 -4.19140625 106.578125 C-15.54748754 100.97417504 -15.54748754 100.97417504 -18.06687927 93.60452271 C-18.30133255 92.89198334 -18.53578583 92.17944397 -18.77734375 91.4453125 C-19.29620247 89.92837807 -19.81508337 88.41145122 -20.33398438 86.89453125 C-21.13750754 84.51021426 -21.93757672 82.12477076 -22.73608398 79.73876953 C-23.51223742 77.42965931 -24.30060576 75.12497706 -25.08984375 72.8203125 C-25.43848732 71.75757614 -25.43848732 71.75757614 -25.79417419 70.67337036 C-27.64619523 65.27934746 -29.96000567 61.58164117 -34.46875 58.0859375 C-37.45476463 55.62524026 -39.44971987 52.85951689 -41.5 49.625 C-41.88945801 49.01358154 -42.27891602 48.40216309 -42.68017578 47.7722168 C-46.50884923 41.53286754 -48.90120367 35.00145338 -51 28 C-51.33 26.96101563 -51.66 25.92203125 -52 24.8515625 C-54.52021877 16.4583339 -54.52021877 16.4583339 -53 12 C-39.41132652 -1.43066565 -17.5280461 -0.32021445 0 0 Z " fill="#F89990" transform="translate(172,189)"/>
<path d="M0 0 C-0.02320313 1.27230469 -0.04640625 2.54460937 -0.0703125 3.85546875 C-0.28528535 21.09298419 1.03740669 38.01236389 4 55 C3.04480469 55.29132813 2.08960938 55.58265625 1.10546875 55.8828125 C-12.23770759 60.06089134 -23.86630457 64.67613472 -31.34375 77.26171875 C-33.88082156 82.45365448 -34.63548953 87.25896005 -35 93 C-35.66 93 -36.32 93 -37 93 C-61.06134701 48.33791415 -61.06134701 48.33791415 -56.33203125 28.1484375 C-52.34837485 18.02403564 -43.65447084 11.11485869 -34.0625 6.625 C-23.04495198 2.08836258 -11.89967708 -0.28986393 0 0 Z " fill="#EC625E" transform="translate(114,149)"/>
<path d="M0 0 C1.89551022 -0.05441656 3.7914792 -0.09298035 5.6875 -0.125 C6.74324219 -0.14820313 7.79898438 -0.17140625 8.88671875 -0.1953125 C14.83199712 0.17766607 18.15595846 2.73526018 22.6875 6.4375 C41.59629247 21.35279061 63.26510757 33.3467916 87.75 33.375 C88.8534375 33.39949219 89.956875 33.42398438 91.09375 33.44921875 C98.21814206 33.47430464 103.91452653 32.38785523 110.54785156 29.76416016 C113 29 113 29 116 30 C103.91316298 42.92847364 88.78415962 54.55557092 70.3359375 55.30078125 C40.15786432 55.66036778 15.76204751 42.97830401 -7 24 C-7.79921875 23.35417969 -8.5984375 22.70835937 -9.421875 22.04296875 C-10.99464489 20.7501519 -12.50808922 19.38534572 -14 18 C-14 17.34 -14 16.68 -14 16 C-12.390625 14.921875 -12.390625 14.921875 -10.25 13.75 C-4.60174405 10.35705473 -2.33824182 6.01843113 0 0 Z " fill="#EC625E" transform="translate(110,357)"/>
<path d="M0 0 C2.14269654 2.04871862 3.90406584 4.15218578 5.625 6.5625 C12.86723128 16.31989042 21.66054904 26.68505014 31.6875 33.625 C34 36 34 36 34.171875 37.8984375 C33.93697692 40.00469029 33.524756 41.94762096 33 44 C30.27200772 55.59396718 31.5252862 66.94778713 37.1953125 77.3359375 C38 79 38 79 38 81 C33.01517459 82.43673457 28.02694025 82.26358917 22.875 82.3125 C21.38226563 82.35600586 21.38226563 82.35600586 19.859375 82.40039062 C9.67427484 82.48681772 0.7259744 79.41136042 -6.77734375 72.3203125 C-14.42423447 64.26925208 -16.71242536 55.68760707 -16.5 44.75 C-16.48718994 43.74146973 -16.47437988 42.73293945 -16.46118164 41.69384766 C-16.04285587 26.20958767 -10.77868574 11.43193942 0 0 Z " fill="#EC625E" transform="translate(16,243)"/>
<path d="M0 0 C1.99948278 0.56556938 4.00384713 1.11416135 6.01269531 1.64550781 C18.6183233 4.98171556 27.00856867 7.35180417 33.94116211 18.97460938 C35.05270929 20.48299047 36.17832422 21.98114181 37.32006836 23.46679688 C38.38381943 24.9258764 39.44496661 26.38685744 40.50366211 27.84960938 C46.42771644 35.96858275 52.48203602 43.97974437 58.61132812 51.94482422 C68.92042155 65.38534875 68.92042155 65.38534875 67.94116211 72.97460938 C66.37866211 75.47460938 66.37866211 75.47460938 63.94116211 76.97460938 C60.50366211 77.53710938 60.50366211 77.53710938 56.94116211 76.97460938 C52.52703869 73.11782477 49.06719843 68.48205583 45.50366211 63.84960938 C44.89820557 63.0669873 44.29274902 62.28436523 43.66894531 61.47802734 C38.13278424 54.28937684 32.74358266 46.99535592 27.39038086 39.66992188 C26.86670425 38.97298218 26.34302765 38.27604248 25.80348206 37.5579834 C24.51774883 35.77443926 23.30066577 33.94009358 22.14328003 32.07070923 C16.42542155 23.35896546 10.55379081 20.40461111 0.49975586 17.86523438 C-0.87850548 17.48265181 -2.2556879 17.09616327 -3.63182068 16.70599365 C-7.21735935 15.70048791 -10.8148408 14.74790419 -14.41766357 13.80651855 C-18.1070724 12.83228164 -21.78236093 11.80746002 -25.45922852 10.78710938 C-32.64638479 8.80050573 -39.84695182 6.86972875 -47.05883789 4.97460938 C-47.05883789 4.31460938 -47.05883789 3.65460938 -47.05883789 2.97460938 C-44.28833129 1.41274647 -41.49009871 -0.09136643 -38.68383789 -1.58789062 C-37.52174805 -2.2443457 -37.52174805 -2.2443457 -36.33618164 -2.9140625 C-35.16635742 -3.52797852 -35.16635742 -3.52797852 -33.97290039 -4.15429688 C-32.92030029 -4.72772827 -32.92030029 -4.72772827 -31.84643555 -5.31274414 C-21.7481148 -7.89436949 -9.65994532 -2.76790171 0 0 Z " fill="#EC625D" transform="translate(381.058837890625,219.025390625)"/>
<path d="M0 0 C0.4640625 0.31710937 0.928125 0.63421875 1.40625 0.9609375 C3.92413518 2.6614495 6.46031172 4.3321943 9 6 C9.57379395 6.38043457 10.14758789 6.76086914 10.73876953 7.15283203 C20.44120192 13.55230871 30.16529692 18.77929956 41 23 C42.26650391 23.50660156 42.26650391 23.50660156 43.55859375 24.0234375 C49.91963223 26.25035218 56.53775798 26.67623383 63.22583008 27.09106445 C69.7612208 27.60181966 73.71436069 29.52389075 78.25 34.4375 C82.49200783 40.64901146 82.79725882 46.65382942 82 54 C80.98449775 57.0944078 79.78153697 59.22289825 78 62 C71.41743764 65.29128118 56.45988413 61.13863758 49.6328125 59.01953125 C27.09563107 50.29222509 13.20228779 31.70168156 3.3203125 10.375 C0 2.57132768 0 2.57132768 0 0 Z " fill="#F89990" transform="translate(107,384)"/>
<path d="M0 0 C2.90337907 1.85566128 5.53026668 3.99852091 8.1875 6.1875 C9.778093 7.46325363 11.37060704 8.73661513 12.96484375 10.0078125 C13.78710449 10.66555664 14.60936523 11.32330078 15.45654297 12.00097656 C20.41479011 15.897898 25.52867861 19.5849562 30.62963867 23.29174805 C31.37576416 23.83613525 32.12188965 24.38052246 32.890625 24.94140625 C33.54063477 25.41263916 34.19064453 25.88387207 34.86035156 26.36938477 C35.56643555 26.90748779 36.27251953 27.44559082 37 28 C38.49358032 28.91857788 38.49358032 28.91857788 40.01733398 29.85571289 C44.82816222 33.93226678 45.46915202 40.50470834 46.83203125 46.3671875 C47.15550126 47.68894396 47.48086636 49.01023794 47.80802917 50.33108521 C48.6612045 53.79909651 49.48675404 57.27312991 50.30712891 60.74902344 C50.97873183 63.57429794 51.66952224 66.394706 52.36147022 69.21505547 C59.58784042 98.67735906 59.58784042 98.67735906 57.75 102.8125 C56 105 56 105 53 107 C49.5625 106.9375 49.5625 106.9375 46 106 C42.76388566 102.63844006 41.36880324 99.79436916 40.34008789 95.27929688 C39.94431297 93.59229675 39.94431297 93.59229675 39.5405426 91.87121582 C39.27064011 90.6659021 39.00073761 89.46058838 38.72265625 88.21875 C38.27462331 86.31456578 37.82656966 84.41038616 37.37730312 82.50649261 C36.27805741 77.82742546 35.20892894 73.14138741 34.13891602 68.45556641 C33.53619123 65.82059069 32.92380351 63.18818744 32.30162048 60.55773926 C31.71794508 58.08512869 31.1495906 55.60883927 30.59840393 53.12878418 C28.67879995 44.9800336 28.67879995 44.9800336 23 39 C22.34708984 38.47237061 21.69417969 37.94474121 21.02148438 37.40112305 C20.06725586 36.71336792 20.06725586 36.71336792 19.09375 36.01171875 C18.35962891 35.47772461 17.62550781 34.94373047 16.86914062 34.39355469 C15.69641602 33.54905762 15.69641602 33.54905762 14.5 32.6875 C6.16706555 26.62330381 -2.05384455 20.42561293 -10.23242188 14.1550293 C-11.4940918 13.18883667 -11.4940918 13.18883667 -12.78125 12.203125 C-13.52439453 11.63239258 -14.26753906 11.06166016 -15.03320312 10.47363281 C-16.65003607 9.2622123 -18.31899306 8.12067129 -20 7 C-20 6.34 -20 5.68 -20 5 C-17.79906488 3.95983203 -15.59161931 2.94322969 -13.375 1.9375 C-12.75753906 1.64294922 -12.14007813 1.34839844 -11.50390625 1.04492188 C-7.19251954 -0.88385639 -4.48220197 -1.57250108 0 0 Z " fill="#EC615D" transform="translate(329,228)"/>
<path d="M0 0 C2.92734916 2.83864161 5.59955269 5.72285565 8.1875 8.875 C12.55409215 13.94370939 18.01070478 18.00535239 24 21 C23.44612857 29.49269531 19.47495445 37.34421619 13.7265625 43.59375 C9.10437135 47.35843058 2.95994373 48.56022505 -2.91015625 48.28125 C-10.64150645 47.24076922 -19.32828567 44.531672 -25 39 C-26.68842152 34.50280249 -25.63462476 30.71323601 -24.01171875 26.33203125 C-18.81699086 15.71272025 -9.84301267 6.43039223 0 0 Z " fill="#F99990" transform="translate(77,242)"/>
<path d="M0 0 C4.53460958 4.49751666 7.01204767 9.06678668 7.6328125 15.53515625 C7.25528512 21.83098048 3.97904422 28.39892847 -0.5 32.75 C-5.90853293 36.64414371 -10.81631679 37.99170552 -17.5 37.75 C-24.0059456 36.6383726 -28.58225007 32.94257331 -32.5 27.75 C-35.6285342 22.1031067 -36.48280275 16.62558066 -34.87890625 10.30078125 C-32.66981212 3.73240804 -29.63564527 -0.00767736 -23.5 -3.25 C-15.62764394 -6.85615083 -6.61878266 -5.48726283 0 0 Z " fill="#385E7D" transform="translate(378.5,133.25)"/>
<path d="M0 0 C1.08489645 3.25468935 1.16612204 5.78982734 1.26171875 9.21484375 C1.36281203 25.04980668 1.36281203 25.04980668 8.97192383 38.08032227 C11.34577625 39.85119486 13.77043842 41.44675271 16.32519531 42.94360352 C18.97572045 44.6154435 20.97412253 46.62888872 23 49 C23.52149375 52.71564293 23.4841389 54.97792899 21.875 58.375 C19.23282718 60.66488311 17.48146393 60.931736 14 61 C9.12152654 58.9695739 5.47960163 56.13221956 1.5625 52.6875 C0.42256641 51.68801297 -0.71805255 50.68930704 -1.859375 49.69140625 C-2.67051758 48.98201904 -2.67051758 48.98201904 -3.49804688 48.25830078 C-5.09147398 46.88256296 -5.09147398 46.88256296 -7.328125 45.40234375 C-10.18532368 43.43952029 -11.681492 41.95710079 -12.7890625 38.62890625 C-13.41815493 35.09378236 -13.7303498 31.57563549 -14 28 C-14.18264131 25.86450166 -14.36632586 23.72909241 -14.55078125 21.59375 C-15.07324182 15.3986089 -15.54916939 9.20073286 -16 3 C-13.70887834 2.49750857 -11.41708499 1.99807883 -9.125 1.5 C-7.84882812 1.2215625 -6.57265625 0.943125 -5.2578125 0.65625 C-2 0 -2 0 0 0 Z " fill="#EC615D" transform="translate(126,263)"/>
<path d="M0 0 C1.3921875 0.4640625 1.3921875 0.4640625 2.8125 0.9375 C7.77871546 2.3783156 12.86205306 2.64694036 18 3 C26 20.23404255 26 20.23404255 26 26 C26.82113281 26.25007813 27.64226562 26.50015625 28.48828125 26.7578125 C32.55016994 28.19460961 36.33210155 29.96329091 40.1875 31.875 C40.89841797 32.21402344 41.60933594 32.55304688 42.34179688 32.90234375 C46.07448392 34.74937422 48.95350443 36.19936537 51 40 C51.5241981 43.59450128 51.48573983 45.28110505 49.4375 48.3125 C46.25869311 50.51321246 43.81675712 51.32609585 40 51 C35.56498834 49.45007138 31.43680764 47.3699026 27.25 45.25 C25.54650391 44.42242187 25.54650391 44.42242187 23.80859375 43.578125 C15.43290532 39.44492644 12.14721732 37.2989503 9.08203125 28.33984375 C8.81992355 27.59416641 8.55781586 26.84848907 8.2877655 26.08021545 C7.73669782 24.50728446 7.18977454 22.93289616 6.64672852 21.35717773 C5.81333085 18.93990988 4.96738918 16.52732605 4.11914062 14.11523438 C3.58520028 12.58619474 3.05197245 11.05690606 2.51953125 9.52734375 C2.13991997 8.44138161 2.13991997 8.44138161 1.75263977 7.33348083 C0 2.23387287 0 2.23387287 0 0 Z " fill="#EC625E" transform="translate(144,252)"/>
<path d="M0 0 C0.66 0 1.32 0 2 0 C2.4846875 1.02738281 2.969375 2.05476563 3.46875 3.11328125 C8.07937862 12.712078 13.21311229 21.15980891 19.98828125 29.42578125 C20.61089844 30.19277344 21.23351562 30.95976562 21.875 31.75 C22.42929688 32.40484375 22.98359375 33.0596875 23.5546875 33.734375 C25.42961388 36.67344878 26.16289476 39.63532456 27 43 C6.12080767 41.04074806 -12.27829387 33.37676431 -26.3515625 17.31640625 C-28 15 -28 15 -28 13 C-27.23816406 12.82984375 -26.47632813 12.6596875 -25.69140625 12.484375 C-16.61592193 10.35429878 -8.50721875 7.63041407 -1 2 C-0.67 1.34 -0.34 0.68 0 0 Z " fill="#F99990" transform="translate(83,310)"/>
<path d="M0 0 C5.3871008 2.43702179 8.85536582 5.98148889 10.96875 11.5546875 C12.6629543 18.67437938 11.53684268 23.67031067 8 30 C5.48210607 33.81745208 3.03579991 35.86999449 -1 38 C-7.05374493 32.28257423 -11.02463806 27.17374926 -11.3125 18.75 C-11.21540895 12.83715506 -9.36054478 8.37065418 -5.17578125 4.16796875 C-3.49217087 2.70975043 -1.78859777 1.32637588 0 0 Z " fill="#3F6C8D" transform="translate(374,131)"/>
<path d="M0 0 C0.66 0.33 1.32 0.66 2 1 C-0.64 3.64 -3.28 6.28 -6 9 C-6 6 -6 6 -3.5625 3.375 C-2.716875 2.59125 -1.87125 1.8075 -1 1 C-0.67 0.67 -0.34 0.34 0 0 Z " fill="#F98273" transform="translate(123,137)"/>
</svg>
