<?xml version="1.0" encoding="UTF-8"?>
<svg version="1.1" xmlns="http://www.w3.org/2000/svg" width="512" height="512">
<path d="M0 0 C4.20462595 0.93429007 8.41331169 1.84811456 12.625 2.75 C13.61306641 2.96470947 14.60113281 3.17941895 15.61914062 3.40063477 C22.79922845 4.90373901 29.72212544 5.58748302 37.05078125 5.6640625 C40 6 40 6 41.76171875 7.2734375 C43.09931296 9.13847422 44.3147663 11.03424654 45.5 13 C51.39344949 21.96386391 59.6061779 28.78814079 67.9140625 35.4296875 C92.03435217 55.15864204 111.98600222 78.12452603 115.6875 110.1875 C115.81059697 111.79032517 115.91537049 113.39468407 116 115 C116.061875 116.12728516 116.061875 116.12728516 116.125 117.27734375 C116.72826484 139.93747925 110.03326912 161.48461949 96.6640625 179.70703125 C88.20890158 191.35768726 83.92416828 202.42847536 86 217 C87.18621289 221.97457232 88.87941664 226.78216945 90.53125 231.6171875 C98.13861619 253.89995786 94.54518211 278.9159513 85 300 C81.28192944 307.34886248 76.67894468 313.87447808 71.79296875 320.48046875 C65.5001827 329.32327268 63.18521178 338.57918682 64.31640625 349.40234375 C65.36569193 354.92458439 67.0849763 360.2136136 68.76220703 365.57250977 C76.73105552 391.25232964 73.38464122 418.56679028 61.22412109 442.38427734 C57.89248889 448.56364344 53.76376835 453.84769735 49 459 C48.37609375 459.70382812 47.7521875 460.40765625 47.109375 461.1328125 C32.18699759 477.12107401 9.99054785 486.08186528 -9.85424805 494.12060547 C-21.52593442 498.85350226 -21.52593442 498.85350226 -32.06884766 505.64160156 C-34.61400275 507.43189776 -36.91016839 507.63674086 -39.984375 507.51220703 C-43.85268756 506.52919834 -45.71433536 503.52256518 -48 500.4375 C-49.0401903 499.13345339 -50.08443684 497.83263146 -51.1328125 496.53515625 C-51.62813477 495.91398926 -52.12345703 495.29282227 -52.63378906 494.65283203 C-55.3868737 491.32217031 -58.65872181 488.71150848 -62 486 C-86.60512977 465.29558521 -109.25299097 444.27869836 -115 411 C-115.79370195 396.71577008 -116.23166384 381.78496555 -112 368 C-111.80664062 367.36771484 -111.61328125 366.73542969 -111.4140625 366.08398438 C-107.4982624 353.67186493 -101.49926492 342.29189625 -93.1875 332.25 C-86.7097036 324.22414553 -84.27005411 313.84691829 -85.21875 303.6484375 C-86.27563391 297.57135503 -88.33264141 291.76917828 -90.24145508 285.91918945 C-91.91773858 280.64069311 -92.85309182 275.55580032 -93 270 C-93.93005859 270.45439453 -93.93005859 270.45439453 -94.87890625 270.91796875 C-100.35977185 273.5108091 -105.84592687 275.67273427 -111.625 277.5 C-117.51192436 279.3831649 -122.8171315 281.60902039 -128 285 C-129.3303125 285.86625 -129.3303125 285.86625 -130.6875 286.75 C-137.35248434 293.23484963 -140.5741156 301.23572324 -143.65527344 309.82714844 C-148.20603874 322.46816316 -153.24079712 333.63011726 -162 344 C-162.64453125 344.79019531 -163.2890625 345.58039063 -163.953125 346.39453125 C-180.18579876 365.48295317 -202.05188518 376.79147836 -227 379 C-245.46190827 380.18106484 -263.40178216 376.04921744 -281.28308105 371.95803833 C-290.06884133 369.94935243 -298.74800421 368.14038348 -307.7878418 367.79467773 C-311.29419469 367.58373225 -313.02117519 366.98480168 -315.90625 364.9140625 C-318.44697687 361.3779016 -318.68117504 358.69817766 -318.8125 354.5 C-319.5962321 342.67749798 -322.40980671 331.28540329 -325.08129883 319.77734375 C-331.69043783 290.91004888 -332.76068833 262.27938561 -317 236 C-307.16261665 221.4585588 -295.25841693 209.70335695 -280 201 C-279.20722656 200.53335938 -278.41445313 200.06671875 -277.59765625 199.5859375 C-272.80730629 196.97608075 -267.83755321 195.24020136 -262.67895508 193.52050781 C-250.20317843 189.35016709 -239.97624488 184.77690824 -233 173 C-230.77823984 168.1448006 -229.0600812 163.13325279 -227.35009766 158.07910156 C-222.24319585 143.10230772 -215.09662756 131.44791744 -204 120 C-203.46246094 119.38898438 -202.92492187 118.77796875 -202.37109375 118.1484375 C-192.92689214 107.78111844 -178.77209642 100.88529649 -165.67895508 96.52050781 C-153.08684647 92.31128022 -143.19600893 87.72968748 -136 76 C-133.96308962 71.88557638 -132.50820486 67.64171247 -131.15234375 63.26171875 C-126.87571623 49.58021338 -120.82637713 37.54158812 -111 27 C-110.55140625 26.51047852 -110.1028125 26.02095703 -109.640625 25.51660156 C-79.44570164 -7.18765266 -41.56114902 -9.53851878 0 0 Z " fill="#7DB723" transform="translate(363,5)"/>
<path d="M0 0 C3.2965827 0.75567819 6.60020665 1.46892064 9.90820312 2.17285156 C15.33625078 3.330656 20.75730395 4.51703388 26.17382812 5.72753906 C25.51382812 6.05753906 24.85382813 6.38753906 24.17382812 6.72753906 C24.46833862 7.90388916 24.46833862 7.90388916 24.76879883 9.10400391 C33.54930553 44.34472109 41.93095301 80.33959502 22.31884766 113.75366211 C8.24645696 136.84840233 -11.60823149 150.81105487 -37.07617188 158.66503906 C-47.66225321 162.12724332 -56.68620241 168.33983493 -62.18554688 178.15332031 C-64.65210833 183.29199002 -66.4303138 188.54598199 -68.13867188 193.97753906 C-72.04381793 206.22713479 -78.1626621 217.19301215 -86.82617188 226.72753906 C-87.63699219 227.63117188 -88.4478125 228.53480469 -89.28320312 229.46582031 C-96.07314169 236.65341268 -103.31117029 241.79464155 -111.82617188 246.72753906 C-112.64472656 247.20835937 -113.46328125 247.68917969 -114.30664062 248.18457031 C-119.58408217 251.0458338 -125.06474945 252.80137364 -130.76367188 254.60253906 C-142.69354739 258.4179884 -152.92811804 263.9604343 -159.22070312 275.22363281 C-161.51239191 279.99394573 -163.15849947 284.76036149 -164.57617188 289.85253906 C-168.26547943 302.33370455 -174.99775283 314.181616 -183.82617188 323.72753906 C-184.25768555 324.19998047 -184.68919922 324.67242187 -185.13378906 325.15917969 C-201.42315157 342.82015866 -222.46518124 355.07236281 -246.80664062 356.10644531 C-261.67244139 356.45998674 -275.4455407 355.41304311 -289.82617188 351.72753906 C-292.18390363 351.16481025 -294.54416983 350.61389311 -296.9050293 350.06445312 C-298.334078 349.72894142 -299.7615279 349.38649677 -301.18676758 349.03515625 C-305.39409395 348.00383981 -309.53626632 347.27695776 -313.82617188 346.72753906 C-314.48617187 347.71753906 -315.14617187 348.70753906 -315.82617188 349.72753906 C-318.49492042 337.14065687 -321.1019879 324.54171936 -323.57617188 311.91503906 C-323.78653076 310.86203613 -323.99688965 309.8090332 -324.21362305 308.72412109 C-329.06953049 283.67995224 -327.17621149 258.98740688 -313.82617188 236.72753906 C-303.98878853 222.18609786 -292.0845888 210.43089601 -276.82617188 201.72753906 C-276.03339844 201.26089844 -275.240625 200.79425781 -274.42382812 200.31347656 C-269.63347816 197.70361982 -264.66372508 195.96774042 -259.50512695 194.24804688 C-247.0293503 190.07770615 -236.80241676 185.5044473 -229.82617188 173.72753906 C-227.60441172 168.87233966 -225.88625308 163.86079185 -224.17626953 158.80664062 C-219.06936773 143.82984678 -211.92279943 132.1754565 -200.82617188 120.72753906 C-200.28863281 120.11652344 -199.75109375 119.50550781 -199.19726562 118.87597656 C-189.75306402 108.5086575 -175.5982683 101.61283555 -162.50512695 97.24804688 C-149.91301835 93.03881928 -140.02218081 88.45722655 -132.82617188 76.72753906 C-130.7892615 72.61311544 -129.33437673 68.36925153 -127.97851562 63.98925781 C-123.7018881 50.30775245 -117.65254901 38.26912719 -107.82617188 27.72753906 C-107.37757813 27.23801758 -106.92898437 26.74849609 -106.46679688 26.24414062 C-77.41024623 -5.2271371 -40.39572545 -9.28419581 0 0 Z " fill="#B9EA69" transform="translate(359.826171875,4.2724609375)"/>
<path d="M0 0 C2.4375 0.1875 2.4375 0.1875 3.4375 1.1875 C3.80829152 7.90147497 2.92981784 13.41898808 0.9375 19.8125 C0.66977783 20.68132812 0.40205566 21.55015625 0.1262207 22.4453125 C-3.78463548 34.57130717 -9.69646699 44.32053715 -17.51171875 54.3359375 C-21.6932604 60.1502716 -25.10076722 66.95368641 -25.5625 74.1875 C-25.624375 74.87714844 -25.68625 75.56679687 -25.75 76.27734375 C-26.08562373 82.74858887 -24.61122795 88.22018723 -22.71484375 94.375 C-21.46965267 98.49468302 -20.40118322 102.63419533 -19.375 106.8125 C-19.20838867 107.48748535 -19.04177734 108.1624707 -18.87011719 108.85791016 C-18.4327035 110.63406124 -17.99749612 112.41075529 -17.5625 114.1875 C-17.38525391 114.83759033 -17.20800781 115.48768066 -17.02539062 116.1574707 C-12.17361593 137.43516405 -20.74460985 161.95892366 -31.5078125 179.9609375 C-33.80437871 183.56733235 -36.33376789 186.85859262 -39.02734375 190.171875 C-45.45517413 198.61146909 -47.68448626 208.5716947 -46.87011719 219.0703125 C-46.04534881 224.74681358 -43.9646856 230.15643864 -42.0703125 235.546875 C-35.33075949 255.47305889 -36.72378713 278.4932784 -43.5625 298.1875 C-43.78711914 298.84379395 -44.01173828 299.50008789 -44.24316406 300.17626953 C-53.40083507 325.97637468 -73.82700286 342.30609268 -97.6875 353.75 C-100.64171453 355.12979369 -103.60399269 356.48901307 -106.57421875 357.83398438 C-108.57564121 358.74051102 -110.57303847 359.6559746 -112.56640625 360.58007812 C-115.4314323 361.90689849 -118.30676422 363.20770021 -121.1875 364.5 C-122.49291748 365.10533569 -122.49291748 365.10533569 -123.82470703 365.72290039 C-129.73256988 368.30693194 -129.73256988 368.30693194 -133.22265625 367.8046875 C-136.57149202 365.49013323 -139.45480647 362.82839341 -142.375 360 C-143.62553658 358.81299509 -144.87683265 357.62678977 -146.12890625 356.44140625 C-146.72461426 355.87437988 -147.32032227 355.30735352 -147.93408203 354.72314453 C-149.85339924 352.91317373 -151.81734782 351.16336784 -153.8125 349.4375 C-154.41707031 348.9115625 -155.02164063 348.385625 -155.64453125 347.84375 C-157.07452699 346.60888606 -158.51037743 345.3807958 -159.94921875 344.15625 C-177.45404412 328.93000067 -189.59643484 309.15344375 -193.5625 286.1875 C-194.35620195 271.90327008 -194.79416384 256.97246555 -190.5625 243.1875 C-190.36914062 242.55521484 -190.17578125 241.92292969 -189.9765625 241.27148438 C-186.0607624 228.85936493 -180.06176492 217.47939625 -171.75 207.4375 C-165.18837727 199.30778645 -163.01732818 189.01814973 -163.734375 178.71875 C-163.95598335 176.86766848 -164.25038884 175.02548795 -164.5625 173.1875 C-163.91925781 172.85878906 -163.27601563 172.53007812 -162.61328125 172.19140625 C-132.48929597 156.33441542 -111.48928133 131.48513477 -100.5625 99.1875 C-100.31371094 98.32125 -100.06492187 97.455 -99.80859375 96.5625 C-99.47021484 95.386875 -99.47021484 95.386875 -99.125 94.1875 C-98.96128906 93.5275 -98.79757812 92.8675 -98.62890625 92.1875 C-96.23009717 87.68863462 -92.29168582 85.25021956 -87.6015625 83.66796875 C-86.13295259 83.22771879 -84.66142289 82.79712133 -83.1875 82.375 C-54.0777942 73.28342999 -29.65800206 53.8082 -15.3125 26.8125 C-11.62921752 19.71192223 -8.49532838 12.49446968 -5.71875 4.99609375 C-4.32440527 1.60915502 -3.75861523 0.27502063 0 0 Z " fill="#94D427" transform="translate(441.5625,129.8125)"/>
<path d="M0 0 C0.77666016 0.02707031 1.55332031 0.05414063 2.35351562 0.08203125 C7.97403763 0.38217971 7.97403763 0.38217971 10.28344727 1.82568359 C12.21773825 4.7357965 11.94257142 7.70507054 11.96875 11.0859375 C12.3302283 21.80191234 14.6873151 31.95453907 17.0625 42.375 C17.69062397 45.18390849 18.31501804 47.99361156 18.93737793 50.80380249 C19.32165488 52.53326597 19.70982583 54.26187078 20.10266113 55.9894104 C26.31444616 83.57356965 23.52275459 109.55278361 8.8046875 133.625 C-5.06890994 154.27407527 -23.18627991 167.48732412 -46.48632812 175.10888672 C-58.05881477 178.91135793 -67.28959683 183.89725397 -73.6875 194.6875 C-76.44735463 200.19950016 -78.19563688 205.9807235 -80.05444336 211.83789062 C-84.157071 224.42576704 -90.49572516 234.96175766 -99.4375 244.75 C-100.13488281 245.52859375 -100.83226562 246.3071875 -101.55078125 247.109375 C-114.00848921 260.31864487 -129.92274782 268.15401151 -147.01171875 273.56640625 C-151.51860128 275.12351618 -155.45680016 277.14555962 -159.4375 279.75 C-160.7678125 280.61625 -160.7678125 280.61625 -162.125 281.5 C-168.78998434 287.98484963 -172.0116156 295.98572324 -175.09277344 304.57714844 C-179.64353874 317.21816316 -184.67829712 328.38011726 -193.4375 338.75 C-194.08203125 339.54019531 -194.7265625 340.33039063 -195.390625 341.14453125 C-211.62329876 360.23295317 -233.48938518 371.54147836 -258.4375 373.75 C-276.89940827 374.93106484 -294.83928216 370.79921744 -312.72058105 366.70803833 C-321.50634133 364.69935243 -330.18550421 362.89038348 -339.2253418 362.54467773 C-342.68183326 362.33673196 -344.48791096 361.71561061 -347.375 359.74609375 C-350.17136371 355.68395176 -350.01153936 352.73775313 -349.75 347.9375 C-349.71616211 346.75510742 -349.71616211 346.75510742 -349.68164062 345.54882812 C-349.62304161 343.61506071 -349.53336827 341.68227833 -349.4375 339.75 C-338.8410231 341.478603 -328.38204619 343.58811633 -317.92724609 346.03588867 C-317.0398877 346.24318604 -316.1525293 346.4504834 -315.23828125 346.6640625 C-314.45622314 346.8492041 -313.67416504 347.0343457 -312.8684082 347.22509766 C-288.04422847 352.58534536 -261.17854049 349.23533297 -239.62011719 335.60058594 C-235.66490925 332.91068559 -232.01164518 329.92397773 -228.4375 326.75 C-227.91816895 326.29109375 -227.39883789 325.8321875 -226.86376953 325.359375 C-213.10817766 312.9695564 -204.50329492 297.66101346 -198.9375 280.0625 C-194.67873126 266.96274298 -188.13117449 258.06954177 -175.8125 251.5625 C-171.29256063 249.42904261 -166.69217482 247.76837574 -161.9375 246.25 C-138.059951 238.62383721 -120.28845571 222.44213237 -108.72265625 200.49609375 C-105.97908739 194.80650437 -103.83736031 189.06967737 -101.9375 183.0625 C-97.70951666 170.05743733 -91.20672578 161.14200712 -79 154.625 C-73.99242422 152.24863134 -68.90020568 150.58220491 -63.625 148.9375 C-49.15037272 144.34939071 -38.03160964 136.48149723 -27.4375 125.75 C-26.62539063 124.93660156 -25.81328125 124.12320313 -24.9765625 123.28515625 C-5.08149287 102.33761707 -0.66791554 78.64971467 -1.30566406 50.91552734 C-1.84214138 38.03411095 -5.32377843 25.52103672 -8.45556641 13.07397461 C-8.71128418 12.05182861 -8.96700195 11.02968262 -9.23046875 9.9765625 C-9.4627417 9.06471191 -9.69501465 8.15286133 -9.93432617 7.21337891 C-10.4375 4.75 -10.4375 4.75 -10.4375 0.75 C-7.14937135 -0.89406433 -3.58720729 -0.19550428 0 0 Z " fill="#95D528" transform="translate(394.4375,10.25)"/>
<path d="M0 0 C4.44481372 6.97305639 3.86231841 17.05336729 2.49609375 24.890625 C0.07993235 34.77617679 -4.69100767 42.31379451 -11.84765625 49.44921875 C-12.50019882 50.11033157 -13.15274139 50.7714444 -13.82505798 51.45259094 C-15.19917571 52.83811384 -16.57845476 54.21853549 -17.96264648 55.59399414 C-20.05064668 57.67568251 -22.1105736 59.78258813 -24.16992188 61.89257812 C-34.32617823 72.14604103 -43.61720823 79.9448462 -58.72387695 80.24291992 C-72.20799802 80.28862881 -72.20799802 80.28862881 -77 77 C-81.27210765 68.63195409 -81.22310292 57.80617718 -78.875 48.875 C-74.80519541 37.6112522 -67.50374316 29.8688566 -59.13378906 21.61230469 C-57.25359688 19.75355585 -55.39575326 17.87437956 -53.5390625 15.9921875 C-40.73073463 3.15423539 -18.65591992 -12.39959122 0 0 Z " fill="#FCF2AB" transform="translate(253,142)"/>
<path d="M0 0 C0.74846191 0.00563965 1.49692383 0.0112793 2.26806641 0.01708984 C7.64393329 0.13566651 11.86187046 0.49212228 16.5625 3.3125 C21.51997325 10.80689619 20.44704079 20.7027352 19.5625 29.3125 C16.5327659 42.89507605 4.72153244 52.41019787 -4.71118164 61.99121094 C-5.73802968 63.03972656 -6.7585623 64.09446415 -7.77270508 65.15527344 C-18.0689083 75.91670147 -29.11132472 83.14379964 -44.375 83.625 C-55.54159229 83.35643639 -55.54159229 83.35643639 -59.4375 80.3125 C-62.27781104 74.46404136 -62.95747644 69.38365109 -62.875 62.9375 C-62.86255249 61.68187256 -62.86255249 61.68187256 -62.84985352 60.40087891 C-62.39995582 43.93878594 -51.37043361 33.8716961 -40.3503418 22.85473633 C-38.62800258 21.12801023 -36.92234608 19.38587048 -35.21679688 17.64257812 C-24.89993804 7.2164001 -15.27139289 -0.11960142 0 0 Z " fill="#FCF2AB" transform="translate(132.4375,242.6875)"/>
<path d="M0 0 C0.81210937 -0.01611328 1.62421875 -0.03222656 2.4609375 -0.04882812 C8.15699353 -0.05339227 12.54574883 0.63772804 17.625 3.3125 C21.94720649 10.85920974 20.69076234 24.27435076 18.9375 32.5625 C14.87552082 43.39444449 5.84405537 51.52371414 -2.13134766 59.54931641 C-3.98911654 61.42650278 -5.82439167 63.32397926 -7.66015625 65.22265625 C-15.81616025 73.52202163 -25.17477335 82.35415341 -37.578125 82.48046875 C-39.26038676 82.49242796 -40.94269622 82.49872359 -42.625 82.5 C-43.45902344 82.51224609 -44.29304688 82.52449219 -45.15234375 82.53710938 C-50.17345571 82.54893303 -54.74551756 82.45686687 -59.375 80.3125 C-62.77372611 74.95377234 -62.88695648 69.7267895 -62.8125 63.5 C-62.80420166 62.61143311 -62.79590332 61.72286621 -62.78735352 60.80737305 C-62.35569168 44.07702057 -51.50826881 34.07197436 -40.2878418 22.85473633 C-38.56550258 21.12801023 -36.85984608 19.38587048 -35.15429688 17.64257812 C-24.76750174 7.14724097 -15.27142908 -0.0600292 0 0 Z " fill="#FCF2AB" transform="translate(339.375,35.6875)"/>
<path d="M0 0 C11.5054173 4.81135632 17.45093878 12.85612246 22.6875 23.765625 C26.66126166 33.55810909 25.70731205 44.00947785 21.953125 53.703125 C18.26317711 61.99465497 13.02070443 67.93356158 6.70898438 74.28076172 C4.9205241 76.07995275 3.1551352 77.89999097 1.390625 79.72265625 C-10.07091803 91.47729805 -21.47297024 101.80381482 -38.8125 102.3125 C-50.77381973 102.05927156 -60.70458566 97.29766833 -69.375 89.125 C-72.91601651 85.4119503 -74.98566824 81.70010743 -77 77 C-76.03449219 77.15726562 -75.06898438 77.31453125 -74.07421875 77.4765625 C-61.96204281 79.18644516 -49.7187 79.49899524 -39 73 C-31.84321979 67.2013634 -25.29994362 60.57059123 -18.74853516 54.09863281 C-17.74764653 53.11437675 -16.74141265 52.13552756 -15.72998047 51.16210938 C-7.98981464 43.70880112 0.46105238 35.14177198 1.12939453 23.80517578 C1.13052246 23.0264209 1.13165039 22.24766602 1.1328125 21.4453125 C1.13410156 20.58292969 1.13539063 19.72054687 1.13671875 18.83203125 C1.13285156 17.93871094 1.12898438 17.04539062 1.125 16.125 C1.12886719 15.23941406 1.13273437 14.35382812 1.13671875 13.44140625 C1.12987201 8.84724305 0.93970084 4.51951358 0 0 Z " fill="#FBEE57" transform="translate(357,39)"/>
<path d="M0 0 C9.07540183 1.75068727 15.62895591 10.30461716 20.75 17.4375 C21.1625 18.283125 21.575 19.12875 22 20 C22.27714844 20.56332031 22.55429687 21.12664062 22.83984375 21.70703125 C26.80411093 31.26146322 26.39834948 43.20219077 23.0625 52.875 C20.06077226 59.54277227 16.01961261 64.74334214 11 70 C9.90800293 71.1454126 9.90800293 71.1454126 8.79394531 72.31396484 C6.23390682 74.9765868 3.65324599 77.6172561 1.0625 80.25 C0.228396 81.10215088 -0.60570801 81.95430176 -1.46508789 82.83227539 C-12.41840008 93.76847135 -23.12542738 101.28546908 -38.9375 101.5625 C-46.79428233 101.49815356 -53.1270722 99.97572439 -60 96 C-60.73476562 95.5771875 -61.46953125 95.154375 -62.2265625 94.71875 C-68.69819348 90.42098734 -74.53742651 83.38772047 -77 76 C-76.01 76.33 -75.02 76.66 -74 77 C-64.2786083 79.40868707 -53.12876967 79.15723314 -44 75 C-43.39051514 74.74597412 -42.78103027 74.49194824 -42.15307617 74.23022461 C-34.1805275 70.40328359 -28.33618368 63.93794811 -22.20556641 57.72705078 C-20.2545434 55.75459331 -18.28306678 53.80442038 -16.30859375 51.85546875 C-5.42071669 40.99318032 1.98726717 30.87238964 2.3125 14.875 C2.18379629 9.68620849 1.33534864 5.0075574 0 0 Z " fill="#FBEE57" transform="translate(253,143)"/>
<path d="M0 0 C9.25402644 2.89188326 16.53246085 10.44843479 21.546875 18.4765625 C26.59799134 28.55041812 26.66868542 40.71047948 24.18359375 51.56640625 C19.75139634 63.411338 10.1381957 72.01881593 1.4375 80.8125 C0.63425293 81.62533447 -0.16899414 82.43816895 -0.99658203 83.27563477 C-6.84606907 89.09215175 -12.88278095 95.06032174 -20.625 98.25 C-21.31851563 98.54390625 -22.01203125 98.8378125 -22.7265625 99.140625 C-23.47679687 99.42421875 -24.22703125 99.7078125 -25 100 C-25.94359375 100.35835938 -26.8871875 100.71671875 -27.859375 101.0859375 C-37.58978172 103.91792154 -47.98594442 102.34235966 -57 98 C-65.47768539 92.97783251 -72.97258268 86.68773541 -76 77 C-74.7625 77.33 -73.525 77.66 -72.25 78 C-60.28266986 80.58045556 -48.54749415 79.14394326 -37.99609375 72.7109375 C-31.55782713 68.27070693 -26.13454116 62.65566004 -20.6328125 57.13378906 C-18.75384371 55.2538457 -16.85451 53.3962977 -14.953125 51.5390625 C-8.59465766 45.24345485 -3.16614264 39.54666624 0 31 C0.3609375 30.17975342 0.721875 29.35950684 1.09375 28.5144043 C2.01901623 25.94723919 2.25771052 24.06147337 2.265625 21.34765625 C2.26820313 20.48849609 2.27078125 19.62933594 2.2734375 18.74414062 C2.26183594 17.41672852 2.26183594 17.41672852 2.25 16.0625 C2.25773437 15.18142578 2.26546875 14.30035156 2.2734375 13.39257812 C2.25886695 8.52965619 1.89407882 4.56232479 0 0 Z " fill="#FBEE57" transform="translate(149,246)"/>
</svg>
