<?xml version="1.0" encoding="UTF-8"?>
<svg version="1.1" xmlns="http://www.w3.org/2000/svg" width="512" height="512">
<path d="M0 0 C0.76588886 -0.00367669 1.53177773 -0.00735338 2.32087535 -0.01114148 C4.90107263 -0.02220194 7.48122967 -0.02602613 10.06144714 -0.02983093 C11.90582406 -0.03609376 13.75019972 -0.04274039 15.59457397 -0.04974365 C20.6152879 -0.06716921 25.6359923 -0.07770946 30.65672898 -0.08594918 C33.79155726 -0.09109561 36.92638255 -0.09717148 40.06120872 -0.10346031 C49.8637403 -0.12251598 59.66626432 -0.13674681 69.46881086 -0.14507228 C80.79478049 -0.15484973 92.12055494 -0.18118095 103.44645578 -0.22157317 C112.19384963 -0.25170208 120.94118744 -0.26653805 129.68863219 -0.26985329 C134.91636821 -0.2722073 140.14389581 -0.28121332 145.37157631 -0.30631447 C150.28898833 -0.32954407 155.20605394 -0.33384906 160.12350655 -0.32355309 C161.92909648 -0.32305638 163.73470316 -0.32941634 165.54024124 -0.34310913 C168.00421477 -0.36075094 170.46693471 -0.35376074 172.9309082 -0.34057617 C173.64647804 -0.35154542 174.36204787 -0.36251466 175.09930164 -0.37381631 C179.87942664 -0.31200539 182.29774663 0.76504186 185.65592957 4.14717102 C187.27247878 7.38026944 186.86160541 10.92512459 186.89421082 14.47920227 C186.90228256 15.30796371 186.91035431 16.13672516 186.91867065 16.99060059 C186.93251177 18.74662687 186.94323381 20.50268006 186.95109558 22.25874329 C186.96829608 24.93887111 187.01217882 27.6177613 187.05632019 30.29756165 C187.06644836 32.00393279 187.07496408 33.71031441 187.08171082 35.41670227 C187.0992189 36.21582535 187.11672699 37.01494843 187.13476562 37.83828735 C187.11936637 41.80686778 186.94308558 43.6966948 184.75431824 47.13032532 C181.6727378 50.09215614 180.03016765 50.26990739 175.86686707 50.24482727 C174.92585144 50.24160461 173.98483582 50.23838196 173.01530457 50.23506165 C171.53803894 50.22249329 171.53803894 50.22249329 170.03092957 50.20967102 C168.54206238 50.20290344 168.54206238 50.20290344 167.02311707 50.19599915 C164.56732797 50.18419247 162.11165853 50.16772502 159.65592957 50.14717102 C159.71645566 67.92350745 159.79394954 85.69968504 159.89164448 103.47585583 C159.93661032 111.72964387 159.97602314 119.98338869 160.00236511 128.23725891 C160.02533884 135.43132554 160.05872978 142.62525546 160.10463113 149.81921369 C160.1285719 153.62838954 160.14729503 157.43742993 160.15354347 161.24667931 C160.15959055 164.83282279 160.17957628 168.41861967 160.21020508 172.00463486 C160.22317777 173.94667276 160.22141433 175.88879161 160.21920776 177.83087158 C160.23801498 179.57029022 160.23801498 179.57029022 160.25720215 181.34484863 C160.26181111 182.35052478 160.26642008 183.35620092 160.27116871 184.3923521 C160.72338614 187.63014804 161.75334038 189.51013104 163.65592957 192.14717102 C165.88285709 193.80825298 165.88285709 193.80825298 168.65592957 195.14717102 C169.22907898 195.44236633 169.80222839 195.73756165 170.39274597 196.04170227 C171.70259249 196.714897 173.01421808 197.38463797 174.32731628 198.0514679 C218.9089562 220.86588066 254.02708505 261.36038824 269.57023621 309.06538391 C284.9596867 358.73157942 281.39370558 412.63464993 257.34342957 459.02217102 C250.31598749 472.1729684 242.20470553 484.53913227 231.65592957 495.14717102 C231.07069519 495.76721008 230.48546082 496.38724915 229.88249207 497.02607727 C225.67254738 501.13490975 220.9162283 503.80458086 215.71842957 506.45967102 C215.06221619 506.79756653 214.40600281 507.13546204 213.72990417 507.4835968 C205.74991573 511.37747628 197.92656216 512.44705573 189.11924744 512.41459656 C188.20193069 512.41912767 187.28461394 512.42365878 186.33949971 512.4283272 C183.28834852 512.44091277 180.23737716 512.43935462 177.186203 512.43769836 C174.98924533 512.44368726 172.79228975 512.45049364 170.59533691 512.45805359 C164.64269619 512.47568399 158.69011301 512.48040773 152.73744869 512.48168516 C149.01405429 512.483109 145.29067442 512.48738301 141.56728363 512.4926796 C129.23536049 512.51021691 116.90346797 512.51952106 104.57153282 512.51801865 C103.90796284 512.51793874 103.24439287 512.51785882 102.56071472 512.51777649 C101.89632595 512.51769473 101.23193717 512.51761297 100.54741541 512.51752873 C89.78670991 512.51671629 79.02614453 512.53584754 68.26547953 512.56405322 C57.19212908 512.59284737 46.11885019 512.60622447 35.04546189 512.60486567 C28.83838257 512.60435693 22.63146193 512.60999147 16.42441559 512.63122177 C10.58351565 512.65065524 4.74292493 512.65069353 -1.09798622 512.63618851 C-3.23401405 512.63410566 -5.37006149 512.63876979 -7.50605583 512.65090942 C-27.26580453 512.75588206 -43.15680704 509.60626199 -58.01594543 495.47138977 C-58.78422668 494.70439758 -59.55250793 493.9374054 -60.34407043 493.14717102 C-61.00922668 492.49361633 -61.67438293 491.84006165 -62.35969543 491.16670227 C-85.27921697 467.0825709 -97.7806048 432.24503705 -103.34407043 400.14717102 C-103.47394348 399.41691711 -103.60381653 398.68666321 -103.73762512 397.9342804 C-111.79157482 350.51298556 -99.13578522 299.13509927 -71.65852356 259.99482727 C-71.00786926 259.08023743 -71.00786926 259.08023743 -70.34407043 258.14717102 C-69.93866028 257.57353821 -69.53325012 256.9999054 -69.11555481 256.40888977 C-50.3780389 230.21930124 -25.54116318 210.70050247 3.00895691 196.20332336 C4.04463806 195.67085999 4.04463806 195.67085999 5.10124207 195.12763977 C6.02187439 194.66200623 6.02187439 194.66200623 6.96110535 194.18696594 C10.12755488 192.24431129 11.47205063 190.69880782 12.65592957 187.14717102 C12.75828788 185.29530992 12.80227005 183.44000741 12.81414795 181.58535767 C12.82393677 180.42849457 12.83372559 179.27163147 12.84381104 178.07971191 C12.8495665 176.80944656 12.85532196 175.53918121 12.86125183 174.23042297 C12.8708313 172.88024089 12.88084142 171.53006181 12.89125061 170.17988586 C12.91829832 166.51284425 12.9393086 162.84578976 12.9592526 159.17870355 C12.98111297 155.3469764 13.00850141 151.51528891 13.03530884 147.68359375 C13.08523503 140.42698365 13.13017413 133.17035154 13.1733312 125.91369838 C13.2227042 117.65257483 13.2776221 109.39149108 13.33301079 101.13040602 C13.44682971 84.13603113 13.55366895 67.14161931 13.65592957 50.14717102 C13.0459613 50.16811829 12.43599304 50.18906555 11.80754089 50.21064758 C9.02800663 50.29409963 6.24873636 50.34592113 3.46842957 50.39717102 C2.50872253 50.43068665 1.5490155 50.46420227 0.56022644 50.49873352 C-6.60191767 50.59786354 -6.60191767 50.59786354 -10.45735168 48.25654602 C-13.93483685 44.3686744 -13.53655266 40.8073578 -13.58235168 35.81513977 C-13.59042343 34.98637833 -13.59849518 34.15761688 -13.60681152 33.30374146 C-13.62065264 31.54771517 -13.63137468 29.79166199 -13.63923645 28.03559875 C-13.65643695 25.35547093 -13.70031969 22.67658075 -13.74446106 19.9967804 C-13.75458923 18.29040926 -13.76310494 16.58402763 -13.76985168 14.87763977 C-13.78735977 14.07851669 -13.80486786 13.27939362 -13.82290649 12.45605469 C-13.80750724 8.48747426 -13.63122645 6.59764725 -11.44245911 3.16401672 C-7.81920893 -0.31843466 -4.78644002 -0.00122177 0 0 Z " fill="#E0F4FE" transform="translate(169.3440704345703,-0.1471710205078125)"/>
<path d="M0 0 C1.52092502 -0.00576172 1.52092502 -0.00576172 3.07257581 -0.01163983 C4.19492336 -0.01077335 5.31727091 -0.00990687 6.473629 -0.00901413 C7.65941819 -0.01198525 8.84520738 -0.01495637 10.06692958 -0.01801753 C13.36870113 -0.02521324 16.67042066 -0.02787804 19.97219634 -0.028615 C23.52923401 -0.03046264 27.08626034 -0.03800856 30.64329147 -0.04475021 C38.42638398 -0.05834662 46.20947134 -0.06436043 53.99257374 -0.06876087 C58.85074918 -0.07152138 63.70892262 -0.0757584 68.56709671 -0.08026505 C82.01288478 -0.09245996 95.45867124 -0.10275848 108.90446472 -0.10614014 C109.76545998 -0.1063597 110.62645524 -0.10657927 111.51354127 -0.10680549 C112.37662218 -0.10702377 113.23970308 -0.10724204 114.12893796 -0.10746694 C115.87792921 -0.10791041 117.62692046 -0.10835697 119.37591171 -0.10880661 C120.24347575 -0.10902804 121.11103978 -0.10924947 122.00489363 -0.10947761 C136.06219882 -0.11342551 150.11945217 -0.13087829 164.17673734 -0.15416613 C178.60257 -0.17787196 193.02837665 -0.19034166 207.45422912 -0.19150805 C215.55643011 -0.19242531 223.65856359 -0.19819013 231.760746 -0.21632767 C238.66033441 -0.23171837 245.55983444 -0.23685528 252.45943674 -0.22858956 C255.98017383 -0.22467922 259.50073289 -0.22563113 263.02144814 -0.23964691 C266.83786096 -0.25470095 270.65402239 -0.24653052 274.47045517 -0.23606491 C276.14059217 -0.24814952 276.14059217 -0.24814952 277.84446931 -0.26047826 C283.34792582 -0.22507452 287.5436918 -0.12027166 292.22600937 3.13142776 C294.80141949 7.15337881 295.8864399 11.1709749 296.85100937 15.81892776 C297.09077499 16.93654495 297.33054062 18.05416214 297.57757187 19.20564651 C300.69332443 38.06908821 301.14131819 59.37484361 297.22600937 78.13142776 C297.07535019 78.87054398 296.92469101 79.60966019 296.7694664 80.37117386 C291.6855283 104.65784455 280.45265422 135.35177576 260.22600937 151.13142776 C251.83724177 155.88344641 243.44250451 158.44023828 233.78281784 158.39212418 C232.95901495 158.39594972 232.13521206 158.39977527 231.28644544 158.40371674 C228.53991586 158.41399387 225.79359741 158.41006466 223.04705429 158.40608597 C221.07212252 158.41043541 219.09719244 158.41561934 217.12226486 158.42157364 C211.76678778 158.43495097 206.41138133 158.43554363 201.0558908 158.43301034 C196.58040021 158.43193961 192.10492385 158.4368267 187.62943631 158.44161576 C177.06745958 158.45270693 166.50551841 158.45315077 155.94353867 158.44710159 C145.05937972 158.44106356 134.1753501 158.45336943 123.29121321 158.47467166 C113.93642008 158.49230529 104.58166805 158.49828617 95.22685891 158.49503392 C89.64418001 158.49322348 84.06159333 158.49583331 78.47892952 158.50974846 C73.22659303 158.52235052 67.97445761 158.52036012 62.7221241 158.50733757 C60.79931189 158.5049773 58.87648543 158.50768671 56.95368958 158.51596069 C40.99092395 158.57967292 28.32639474 156.88696032 16.10100937 145.56892776 C-10.93098857 116.8542151 -17.70395245 73.09027952 -16.92340469 35.5498848 C-16.61766685 28.55488269 -15.36505092 21.9411658 -13.77399063 15.13142776 C-13.61930313 14.19299026 -13.46461563 13.25455276 -13.30524063 12.28767776 C-12.42986053 7.10273408 -10.88559515 4.42071138 -6.77399063 1.13142776 C-4.32373311 -0.093701 -2.74028237 0.00388164 0 0 Z " fill="#75CEF9" transform="translate(114.77399063110352,320.8685722351074)"/>
<path d="M0 0 C10.61619189 6.24261988 17.01370874 14.15299184 20.890625 25.94921875 C22.94801557 37.68976278 20.64732052 47.82351256 14.4375 57.8125 C8.37456316 66.32188503 0.23868348 71.20746483 -9.75 74 C-23.06641417 75.13163203 -33.16517141 73.67364068 -43.71484375 64.91015625 C-51.57535192 57.53244321 -56.04944889 48.01614222 -56.98828125 37.2734375 C-57.30341899 24.96647948 -53.36550509 15.96445481 -44.97265625 7.12890625 C-33.06794636 -4.1915234 -14.95970699 -7.56780308 0 0 Z " fill="#E1F5FE" transform="translate(273.75,357)"/>
<path d="M0 0 C0.66 0 1.32 0 2 0 C2.49051977 1.76772219 2.96663674 3.53944073 3.4375 5.3125 C3.70433594 6.29863281 3.97117187 7.28476562 4.24609375 8.30078125 C8.00093497 26.7247949 7.83899643 48.60899616 4 67 C3.84934082 67.73911621 3.69868164 68.47823242 3.54345703 69.23974609 C-1.53094522 93.48086271 -12.7628015 124.28766807 -33 140 C-39.27312544 143.45538915 -45.27169036 146.12972654 -52.48120117 146.11352539 C-53.60213669 146.11344986 -54.7230722 146.11337433 -55.87797546 146.11329651 C-57.08742325 146.10813522 -58.29687103 146.10297394 -59.54296875 146.09765625 C-61.40106926 146.09553383 -61.40106926 146.09553383 -63.29670715 146.09336853 C-66.58631537 146.08871602 -69.8758746 146.0797339 -73.16546631 146.06866455 C-76.52371623 146.05842629 -79.88197333 146.05386574 -83.24023438 146.04882812 C-89.82684212 146.03779145 -96.41341705 146.02104767 -103 146 C-100.25457574 143.15061298 -97.29175819 141.08269359 -94 138.875 C-87.70493283 134.58495003 -81.78696908 129.96025921 -76 125 C-75.21496094 124.32710938 -74.42992187 123.65421875 -73.62109375 122.9609375 C-61.19198063 112.02659416 -49.75909659 100.38312285 -40 87 C-39.23300781 85.95457031 -38.46601563 84.90914063 -37.67578125 83.83203125 C-19.83431587 58.7667963 -6.12943068 30.26406401 0 0 Z " fill="#6BBEF6" transform="translate(408,332)"/>
<path d="M0 0 C5.21890238 2.07584771 10.2409548 4.233598 13.3828125 9.05859375 C14.02964444 12.07912088 13.84298709 13.88850214 13.3828125 17.05859375 C11.32268988 19.59412928 9.93454421 19.953502 6.7578125 20.55859375 C3.3581221 20.05493591 1.59937113 19.19531575 -1.3671875 17.55859375 C-6.44514828 14.84676296 -10.91730286 14.06503588 -16.6171875 15.05859375 C-17.6071875 15.71859375 -18.5971875 16.37859375 -19.6171875 17.05859375 C-19.8674032 20.14225246 -19.8674032 20.14225246 -19.6171875 23.05859375 C-18.93205078 23.32486572 -18.24691406 23.5911377 -17.54101562 23.86547852 C-14.39274171 25.10028852 -11.2551893 26.36041977 -8.1171875 27.62109375 C-7.03953125 28.03939453 -5.961875 28.45769531 -4.8515625 28.88867188 C3.5811229 32.30802297 10.63783673 36.15588682 14.8828125 44.49609375 C17.36910753 51.09648235 17.18401581 55.83982714 14.3203125 62.18359375 C10.94525403 68.33811214 6.86030034 72.30061163 0.3203125 74.93359375 C-9.5959337 77.7595547 -19.57154615 76.92417902 -28.6171875 72.05859375 C-32.86754069 69.57253811 -36.55029654 66.93730879 -39.6171875 63.05859375 C-40.24726443 59.06810654 -40.24740637 57.04173518 -38.0546875 53.62109375 C-34.55412582 51.37714396 -32.72194294 51.37446784 -28.6171875 52.05859375 C-26.42001292 53.42869501 -24.46221325 54.95794065 -22.453125 56.58984375 C-18.43488332 59.8044371 -14.74959074 60.47574954 -9.6171875 60.30078125 C-6.32082899 59.90161284 -4.26265316 59.05882388 -1.6171875 57.05859375 C-0.63845212 53.46474321 -0.63845212 53.46474321 -0.6171875 50.05859375 C-6.36990113 45.81029043 -12.59857137 43.59557129 -19.2734375 41.14648438 C-25.39919509 38.80781035 -30.30935984 36.4956526 -34.078125 30.8828125 C-36.6567027 24.85511163 -37.85918779 19.89804656 -35.8046875 13.546875 C-29.48399905 -1.13555754 -14.27832348 -3.71606475 0 0 Z " fill="#E2F5FE" transform="translate(183.6171875,354.94140625)"/>
<path d="M0 0 C6.39190643 3.37940672 10.51948037 8.21389731 13.0234375 14.9921875 C15.27385722 27.31675173 8.72822206 37.24320433 2.0234375 46.9921875 C-1.26509492 51.6913305 -4.60836943 56.34990933 -7.9765625 60.9921875 C-7.09919434 60.95291138 -7.09919434 60.95291138 -6.20410156 60.9128418 C-3.54519684 60.80868994 -0.88672106 60.74380978 1.7734375 60.6796875 C2.69382812 60.63779297 3.61421875 60.59589844 4.5625 60.55273438 C11.37522371 60.42931547 11.37522371 60.42931547 14.6640625 63.28515625 C16.52457008 66.99013255 16.18875333 69.05924659 15.0234375 72.9921875 C12.51353742 75.72722812 10.98935243 75.99598282 7.25219727 76.41210938 C5.74002335 76.44532849 4.22738244 76.46054339 2.71484375 76.4609375 C1.91110825 76.46855103 1.10737274 76.47616455 0.27928162 76.48400879 C-1.41770324 76.49479617 -3.11475441 76.49766841 -4.81176758 76.49316406 C-7.40233537 76.4921919 -9.98993802 76.53381965 -12.58007812 76.578125 C-14.23176468 76.58333256 -15.88346149 76.58602018 -17.53515625 76.5859375 C-18.30613144 76.60233276 -19.07710663 76.61872803 -19.8714447 76.63562012 C-23.90062321 76.58408162 -25.76441389 76.15827094 -28.97412109 73.64550781 C-30.9765625 70.9921875 -30.9765625 70.9921875 -31.45703125 67.9453125 C-30.93497974 64.73660568 -30.2479107 63.30339338 -28.2890625 60.7421875 C-27.65613281 59.89011719 -27.02320313 59.03804688 -26.37109375 58.16015625 C-25.58089844 57.11472656 -24.79070312 56.06929688 -23.9765625 54.9921875 C-9.66067699 38.44431046 -9.66067699 38.44431046 -2.9765625 18.9921875 C-4.3295753 16.38903756 -4.3295753 16.38903756 -6.9765625 14.9921875 C-11.5515491 14.41594462 -11.5515491 14.41594462 -15.7265625 16.0546875 C-17.53665622 18.86033277 -18.67053387 21.92585941 -19.9765625 24.9921875 C-23.06830002 26.53805626 -25.57085802 26.28578271 -28.9765625 25.9921875 C-31.4140625 24.4921875 -31.4140625 24.4921875 -32.9765625 21.9921875 C-33.85524177 16.80797981 -33.25926262 13.86044285 -30.5390625 9.3671875 C-22.80433322 -0.96368934 -12.56299693 -4.25361313 0 0 Z " fill="#E2F5FE" transform="translate(343.9765625,355.0078125)"/>
<path d="M0 0 C5.43872907 3.17921532 10.41464516 8.58626869 12.6875 14.5 C13.61757583 23.7403638 12.70705198 29.92492124 7.625 37.625 C3.02241567 42.75123164 -3.46911111 45.73702835 -10.3125 46.125 C-17.6148657 45.70017684 -23.89817879 42.43008385 -28.8125 37.0625 C-33.50688947 31.39921038 -33.81614104 24.75862364 -33.6875 17.69140625 C-32.84590753 10.52910368 -28.47568539 6.21797257 -23.15625 1.7265625 C-16.47979334 -2.71497858 -7.33779469 -3.23894844 0 0 Z " fill="#76CEF9" transform="translate(266.3125,370.5)"/>
<path d="M0 0 C5.30113581 3.01542341 9.44755853 7.78605276 11.75 13.4375 C12.69256855 20.49580401 12.03326912 26.63393475 7.75 32.4375 C3.29192777 37.23368444 -2.02521345 40.53538834 -8.625 40.875 C-14.91699151 40.64196328 -19.33488511 38.05470813 -24.0625 34.0625 C-28.98995214 28.14955743 -29.91293078 23.31439838 -29.73046875 15.703125 C-28.87619451 9.89683827 -26.02162635 5.82362436 -21.62109375 2.03515625 C-15.22931756 -2.46632021 -7.14502572 -3.22145668 0 0 Z " fill="#6CBEF6" transform="translate(223.25,279.5625)"/>
<path d="M0 0 C5.13300925 3.01238043 7.96691306 8.37132611 10.5625 13.5625 C11.33586759 20.38334858 10.67526538 25.95855653 6.5625 31.5625 C1.61093735 36.84260235 -2.95743621 39.58176518 -10.25 39.9375 C-16.32814023 39.783966 -20.747688 38.08494592 -25.1953125 33.9140625 C-30.18053132 28.39901366 -32.00453381 23.64842907 -31.8046875 16.1875 C-30.89894207 9.71238376 -27.51204477 4.99047996 -22.4375 1 C-15.69398135 -3.04160801 -7.20991505 -2.96960103 0 0 Z " fill="#6CBEF6" transform="translate(266.4375,110.4375)"/>
<path d="M0 0 C5.56191596 3.22591126 9.88752159 7.69513881 12.125 13.8125 C13.33331454 20.45822995 11.92364761 25.76224466 8.6875 31.609375 C5.53780756 36.05044134 1.51539933 38.78623174 -3.875 39.8125 C-10.60730174 40.54427193 -15.6450509 40.27996315 -21.22265625 36.2421875 C-25.49412631 32.5463056 -28.57419977 28.48822293 -29.2109375 22.82421875 C-29.29251838 15.88168603 -29.24412895 11.33139972 -24.875 5.8125 C-17.89484477 -1.14899171 -9.51311431 -3.67979806 0 0 Z " fill="#6CBEF6" transform="translate(295.875,216.1875)"/>
</svg>
