<?xml version="1.0" encoding="UTF-8"?>
<svg version="1.1" xmlns="http://www.w3.org/2000/svg" width="512" height="512">
<path d="M0 0 C5.28 20.79 10.56 41.58 16 63 C23.50041016 63.07347656 23.50041016 63.07347656 31.15234375 63.1484375 C34.35613774 63.18390188 37.55990811 63.219906 40.76367188 63.2578125 C45.82768012 63.31767907 50.89165605 63.37575067 55.95581055 63.421875 C60.04731862 63.45926713 64.13863879 63.50575705 68.22998238 63.55806351 C69.77611493 63.57632597 71.3222873 63.59153262 72.86848259 63.60334396 C106.59565963 63.86973554 138.41718509 70.71203145 163 95 C163.96486328 95.85658203 163.96486328 95.85658203 164.94921875 96.73046875 C184.4011973 114.368743 191.35211001 142.81818115 193 168 C194.43452404 197.91580346 194.43452404 197.91580346 187 207 C181.93597988 212.09778025 178.03277592 213.35998797 171 214 C170.96261719 215.02996094 170.92523438 216.05992187 170.88671875 217.12109375 C168.91554859 262.89242508 147.89929634 304.61460574 116.953125 337.8984375 C115.19928358 339.78557087 113.53451702 341.71787122 111.875 343.6875 C103.67474868 353.09762447 94.57671476 362.00105817 85 370 C84.12085938 370.76828125 83.24171875 371.5365625 82.3359375 372.328125 C59.61330268 392.10289841 34.13829456 409.51619047 7.73925781 424.00732422 C6.21469521 424.8774634 4.7525573 425.85513101 3.3046875 426.84765625 C1 428 1 428 -1.3671875 427.92578125 C-4.83768428 426.70544336 -7.95234196 425.02270361 -11.125 423.1875 C-11.81948242 422.79006592 -12.51396484 422.39263184 -13.22949219 421.9831543 C-42.08932805 405.29555946 -68.88804084 385.68578802 -93.52734375 363.25 C-95.27998238 361.65518191 -97.04423185 360.0730813 -98.81640625 358.5 C-103.54059989 354.28357684 -108.02010028 350.07463142 -112.0859375 345.21875 C-114.00241657 342.99719875 -116.01604015 340.89007476 -118.04931641 338.77587891 C-147.88222346 307.46047179 -172.10620427 263.09735663 -172.25 219 C-172.1892006 217.33235925 -172.11704492 215.66463891 -172 214 C-172.556875 213.99742187 -173.11375 213.99484375 -173.6875 213.9921875 C-180.14948464 213.66472206 -184.5571032 211.77587622 -189 207 C-198.85154572 192.14222415 -196.07759811 167.9012039 -193 151 C-187.08547536 122.81162726 -173.58774634 97.66658039 -149.01245117 81.55004883 C-138.93865398 75.26001332 -127.96609549 71.33824497 -116.5625 68.1875 C-115.87317383 67.99244873 -115.18384766 67.79739746 -114.47363281 67.59643555 C-97.45502675 63.23007295 -79.79405059 63.74537213 -62.375 63.875 C-60.00000381 63.88505804 -57.62500345 63.89417886 -55.25 63.90234375 C-49.49990736 63.92411451 -43.74997388 63.95736463 -38 64 C-38.33825806 63.4907901 -38.67651611 62.9815802 -39.02502441 62.4569397 C-42.53407116 57.17251923 -46.03672684 51.88390571 -49.53564453 46.59277344 C-50.84356725 44.61674702 -52.15313432 42.64180799 -53.46435547 40.66796875 C-55.34512302 37.83615548 -57.22000745 35.00052734 -59.09375 32.1640625 C-59.68434204 31.27756012 -60.27493408 30.39105774 -60.88342285 29.47769165 C-61.42398315 28.65699188 -61.96454346 27.83629211 -62.52148438 26.99072266 C-63.00113647 26.26680328 -63.48078857 25.54288391 -63.97497559 24.79702759 C-65 23 -65 23 -65 21 C-52.13817232 16.59799806 -39.27367985 12.20387431 -26.40570068 7.81988525 C-24.28536489 7.09725502 -22.16532572 6.37376416 -20.04541016 5.64990234 C-17.07357156 4.63668664 -14.09990592 3.62916549 -11.125 2.625 C-10.30878174 2.3458374 -9.49256348 2.0666748 -8.65161133 1.77905273 C-5.64332064 0.7700753 -3.19642012 0 0 0 Z " fill="#384850" transform="translate(257,42)"/>
<path d="M0 0 C98.67 0 197.34 0 299 0 C299 50.78183786 267.9125659 92.79390343 233.75 127.375 C229.64035542 131.43254132 225.40249502 135.26525554 221 139 C220.11441406 139.77472656 219.22882813 140.54945313 218.31640625 141.34765625 C203.0071281 154.65636141 186.48077729 166.36374326 169.47460938 177.38964844 C167.07058108 178.95406937 164.68321263 180.54158398 162.296875 182.1328125 C160.86543404 183.06901034 159.4331907 184.00398296 158 184.9375 C157.3596582 185.36909424 156.71931641 185.80068848 156.05957031 186.24536133 C151.64945545 189.06505025 151.64945545 189.06505025 148.57714844 188.75732422 C145.8892348 187.96745039 143.89182052 186.95647347 141.515625 185.48046875 C140.6712085 184.9587207 139.82679199 184.43697266 138.95678711 183.89941406 C138.06354736 183.33448242 137.17030762 182.76955078 136.25 182.1875 C135.32131104 181.60581055 134.39262207 181.02412109 133.43579102 180.42480469 C124.73229957 174.92378708 116.30802427 169.07790558 108 163 C106.9584375 162.24332031 105.916875 161.48664063 104.84375 160.70703125 C91.9336942 151.18065943 79.71414464 140.95121527 68 130 C66.94866506 129.04851068 65.89523874 128.09932764 64.83984375 127.15234375 C59.16883693 122.05525121 53.89404462 116.85664139 49 111 C48.1129722 109.99536472 47.22342409 108.99295179 46.33203125 107.9921875 C34.40084795 94.50741349 24.26243883 80.00594136 16 64 C15.68192383 63.38447266 15.36384766 62.76894531 15.03613281 62.13476562 C4.850952 42.10497432 0 22.54011569 0 0 Z " fill="#C79C63" transform="translate(107,256)"/>
<path d="M0 0 C1.77387708 -0.00435579 3.54775229 -0.00954181 5.32162476 -0.01548767 C10.10924874 -0.02880017 14.8967934 -0.0294647 19.68443227 -0.02692437 C23.69954027 -0.02584871 27.71463261 -0.03075349 31.72973722 -0.03552979 C41.215833 -0.04659965 50.70188918 -0.04707755 60.18798828 -0.04101562 C69.92748352 -0.03498669 79.66683389 -0.04726521 89.40630442 -0.06858569 C97.80678311 -0.08628919 106.20721606 -0.09218909 114.60771269 -0.08894795 C119.60766158 -0.08714778 124.60750728 -0.08964259 129.60743904 -0.10366249 C134.31816503 -0.11637839 139.02866816 -0.11416891 143.73939133 -0.1012516 C145.45202019 -0.09891533 147.16466543 -0.10151214 148.87727547 -0.10987473 C163.99625275 -0.17827792 179.74859442 0.77216856 193.95288086 6.3996582 C194.73147461 6.6996875 195.51006836 6.9997168 196.31225586 7.30883789 C213.14285128 14.0866762 226.25395423 25.34439735 235.14038086 41.2746582 C235.83067383 42.45608398 235.83067383 42.45608398 236.53491211 43.66137695 C240.43037166 50.78147674 242.35621066 58.40778746 244.14038086 66.2746582 C244.32205811 67.02271729 244.50373535 67.77077637 244.69091797 68.54150391 C246.20024339 75.22546828 246.40919395 81.62757892 246.32788086 88.4621582 C246.32723633 89.50307617 246.3265918 90.54399414 246.32592773 91.61645508 C246.29503443 97.02278325 245.91338339 101.86364052 245.14038086 107.2746582 C132.28038086 107.2746582 19.42038086 107.2746582 -96.85961914 107.2746582 C-99.960484 94.87119875 -98.48930236 79.65259387 -95.85961914 67.2746582 C-95.68817383 66.24985352 -95.51672852 65.22504883 -95.34008789 64.16918945 C-91.83344035 45.59526923 -80.45127855 28.03114344 -65.35961914 16.7746582 C-54.50060159 9.46412445 -42.649859 4.88482725 -29.85961914 2.2746582 C-29.07405419 2.10690793 -28.28848925 1.93915766 -27.4791193 1.76632404 C-18.31656739 0.01286302 -9.28373062 -0.01517473 0 0 Z " fill="#8B6C61" transform="translate(181.859619140625,127.725341796875)"/>
</svg>
