<svg version="1.1" id="Layer_1" xmlns="http://www.w3.org/2000/svg" xmlns:xlink="http://www.w3.org/1999/xlink" x="0px" y="0px"
	 width="100%" viewBox="0 0 512 512" enable-background="new 0 0 512 512" xml:space="preserve">
<path fill="#59BF94" opacity="1.000000" stroke="none" 
	d="
M513.000000,257.000000 
	C513.000000,267.354218 513.000000,277.708466 512.612122,288.307617 
	C511.816925,289.561005 511.215302,290.535736 511.033630,291.583252 
	C509.805969,298.662048 509.414398,305.982178 507.352692,312.801025 
	C502.179901,329.909363 496.978485,347.077057 490.385254,363.663086 
	C486.278381,373.994415 479.617401,383.310394 473.753174,392.850159 
	C471.610779,392.451172 469.818848,392.151733 468.024872,392.138733 
	C457.463318,392.062378 446.901276,392.052765 435.838898,392.037140 
	C333.493866,392.060333 231.649368,392.061707 129.804871,392.108276 
	C127.527275,392.109344 125.249901,392.624481 122.528496,392.870117 
	C109.388985,392.561432 96.693405,392.282410 83.864555,391.683350 
	C80.716194,385.997589 77.532150,380.718964 74.713272,375.252014 
	C55.623158,338.228699 45.787174,298.930328 46.399551,257.137207 
	C56.918083,256.994141 66.967880,256.921936 77.482361,256.904358 
	C134.270508,256.943024 190.593979,256.927063 247.390503,256.943695 
	C254.270813,256.953705 260.678040,256.931152 267.547546,256.941528 
	C303.491638,256.982819 338.973480,257.009399 374.455292,256.994537 
	C410.268951,256.979523 446.082642,256.923401 482.370483,256.916809 
	C492.896454,256.965546 502.948212,256.982788 513.000000,257.000000 
M411.973450,293.612427 
	C411.973450,306.962036 411.973450,320.311676 411.973450,333.661285 
	C409.635651,331.781281 408.272003,329.725952 406.918701,327.663788 
	C397.878845,313.888641 388.783875,300.149078 379.840088,286.311829 
	C377.379120,282.504364 374.574432,279.652985 369.702972,281.015869 
	C364.758728,282.399139 363.998932,286.393188 364.012238,290.882507 
	C364.072357,311.192749 364.036224,331.503265 364.039276,351.813690 
	C364.039764,354.976562 363.892517,358.151672 364.117828,361.299347 
	C364.431824,365.686615 366.897797,368.388611 371.317230,368.870483 
	C375.324036,369.307343 378.776337,366.209869 379.447601,361.732391 
	C379.692596,360.097961 379.654175,358.413269 379.656433,356.751434 
	C379.672424,344.931427 379.653107,333.111389 379.680664,321.291443 
	C379.684265,319.745239 379.890625,318.199463 380.107697,315.215088 
	C381.942383,317.896912 382.963562,319.337158 383.931396,320.812378 
	C393.243164,335.006104 402.571167,349.189331 411.833801,363.415100 
	C414.163635,366.993378 416.872070,369.892090 421.560364,368.615662 
	C426.484009,367.275177 427.341034,363.373749 427.323578,358.815704 
	C427.236786,336.174896 427.286896,313.533600 427.280701,290.892456 
	C427.280396,289.728516 427.303741,288.551086 427.146851,287.403046 
	C426.564117,283.138336 424.026489,280.846924 419.772614,280.767670 
	C415.485901,280.687836 412.920227,283.076782 412.121429,287.174561 
	C411.776520,288.943939 412.005341,290.825165 411.973450,293.612427 
M248.179306,296.312408 
	C256.086884,295.631012 259.790680,298.137756 263.527496,305.382385 
	C264.737549,307.728333 267.377594,310.286987 269.810974,310.865143 
	C275.963593,312.327026 279.973663,306.464294 277.842926,299.839081 
	C273.733612,287.061523 260.924042,279.253448 246.785278,280.907806 
	C233.443893,282.468811 222.992493,293.867188 222.390747,308.371826 
	C221.935272,319.350494 221.917587,330.380402 222.400742,341.356873 
	C223.054047,356.199280 234.281937,367.677307 248.523041,368.892242 
	C262.265198,370.064667 275.320587,361.061249 278.242645,347.423645 
	C279.509186,341.512512 279.431458,335.118622 278.739990,329.084320 
	C278.485199,326.861053 274.956177,323.800446 272.483276,323.305176 
	C267.837738,322.374725 262.852112,322.747742 258.049164,323.116425 
	C253.841385,323.439392 251.532211,326.322601 251.232559,330.468323 
	C250.951630,334.354675 254.118622,337.672882 258.253967,338.144012 
	C260.020477,338.345245 261.802490,338.410431 263.444397,338.527954 
	C265.123566,346.345520 258.087250,353.196136 251.741470,353.317993 
	C244.035309,353.465912 238.159286,348.480682 237.994019,340.652161 
	C237.779541,330.491547 237.870193,320.322968 237.934799,310.158478 
	C237.980835,302.914764 240.563858,299.330200 248.179306,296.312408 
M319.505646,350.973999 
	C320.504913,350.973999 321.504700,350.953827 322.503387,350.977539 
	C326.820312,351.079987 332.041412,349.755005 335.186981,351.730469 
	C338.056946,353.532867 338.673737,358.918671 340.290405,362.722198 
	C342.514435,367.954559 346.511383,370.094757 350.796997,368.355774 
	C355.104492,366.607880 356.695892,362.316437 354.709900,357.057098 
	C345.892456,333.706482 336.982880,310.390656 328.163177,287.040894 
	C326.739777,283.272400 324.563690,280.671783 320.218597,280.727570 
	C316.121765,280.780182 313.977661,283.228973 312.622772,286.818695 
	C303.750092,310.326263 294.803223,333.805878 285.948120,357.320038 
	C283.991760,362.515076 285.727356,366.815491 290.143921,368.447784 
	C294.300629,369.984039 299.091431,368.058563 300.120483,362.885864 
	C302.266449,352.098785 308.580719,349.071716 319.505646,350.973999 
M196.400055,368.974121 
	C198.397934,368.964264 200.404526,369.070465 202.391937,368.921234 
	C207.020264,368.573669 210.062973,365.575409 210.030319,361.322510 
	C209.995361,356.768799 207.446426,354.279236 203.066498,353.659912 
	C201.264404,353.405060 199.412766,353.516846 197.586273,353.415192 
	C192.507904,353.132690 185.125473,354.712738 182.942673,352.045990 
	C180.273956,348.785522 182.036896,341.951935 181.744400,336.671143 
	C181.578949,333.684113 182.726883,332.451355 185.771835,332.548004 
	C190.262253,332.690460 194.765854,332.677277 199.255783,332.512024 
	C205.290237,332.289886 208.796188,329.131866 208.572250,324.395416 
	C208.357986,319.862885 204.819748,317.063171 199.080032,317.007812 
	C193.477554,316.953796 187.874146,316.996063 182.112976,316.996063 
	C182.112976,309.705017 182.112976,303.143921 182.112976,295.994202 
	C188.900131,295.994202 195.351181,296.104736 201.796417,295.958710 
	C206.816681,295.844971 209.922699,292.858124 210.051651,288.441345 
	C210.181168,284.006195 207.293381,280.738068 202.179413,280.603882 
	C192.865128,280.359467 183.533264,280.402100 174.219269,280.679291 
	C168.963303,280.835754 166.184967,283.722778 166.161179,288.914459 
	C166.052094,312.723999 166.049957,336.534546 166.159073,360.344086 
	C166.185196,366.042480 169.222061,368.849091 174.947845,368.942322 
	C181.772751,369.053497 188.600769,368.972107 196.400055,368.974121 
M139.087509,336.616180 
	C144.398361,322.444519 149.726212,308.279236 155.012619,294.098450 
	C157.520020,287.372345 156.469254,283.064789 151.979874,281.238220 
	C146.909744,279.175354 143.146820,281.649597 140.417191,288.924652 
	C135.568008,301.848694 130.762939,314.789307 125.914040,327.713440 
	C124.649345,331.084320 123.290886,334.420044 121.640701,338.625031 
	C120.560883,335.996613 119.826881,334.337311 119.190643,332.641357 
	C113.582558,317.692474 108.011475,302.729706 102.386482,287.787201 
	C100.080833,281.662323 96.300758,279.412354 91.519325,281.174011 
	C87.122856,282.793823 85.692970,287.098114 87.877968,292.975586 
	C96.454781,316.046631 105.130913,339.080841 113.703682,362.153381 
	C115.086906,365.876160 117.126404,368.778320 121.394867,368.879517 
	C125.913033,368.986633 128.146851,366.037781 129.579453,362.120422 
	C132.606827,353.842316 135.750427,345.606720 139.087509,336.616180 
z"/>
<path fill="#99D6BA" opacity="1.000000" stroke="none" 
	d="
M513.000000,256.531342 
	C502.948212,256.982788 492.896454,256.965546 482.403351,256.458771 
	C481.674286,249.995789 481.468719,244.017029 481.084045,238.049820 
	C479.713684,216.792023 474.866241,196.269745 467.121704,176.496994 
	C447.323578,125.950058 413.730743,87.146812 366.487885,60.459473 
	C338.154449,44.454029 307.669464,34.972401 274.686798,32.687828 
	C260.222809,32.700577 245.997482,31.826599 232.034256,33.351994 
	C192.727158,37.646061 156.948334,51.709309 124.802605,74.851501 
	C123.623749,75.700180 122.229980,76.250343 120.999672,76.604225 
	C122.114456,74.999283 123.032837,73.584244 124.237564,72.482224 
	C139.861328,58.190331 156.409470,45.142395 174.913406,34.695404 
	C200.786331,20.088020 228.220886,9.875602 257.571564,4.945800 
	C265.057434,3.688457 272.524353,2.318316 280.000000,1.000002 
	C282.700012,1.000000 285.400024,1.000000 288.209167,1.330125 
	C288.986359,2.094875 289.606476,2.791535 290.329834,2.923800 
	C298.001495,4.326598 305.711609,5.524985 313.369110,6.998280 
	C339.553589,12.036149 363.901855,22.093231 386.773743,35.459370 
	C411.743256,50.051357 433.497040,68.680084 452.311401,90.744637 
	C468.023315,109.170784 480.905731,129.322006 490.819519,151.402710 
	C501.106812,174.315277 508.302582,198.084915 511.081970,223.120499 
	C511.158478,223.809494 512.335938,224.376251 513.000000,225.000000 
	C513.000000,235.354233 513.000000,245.708450 513.000000,256.531342 
z"/>
<path fill="transparent" opacity="1.000000" stroke="none" 
	d="
M513.000000,224.531342 
	C512.335938,224.376251 511.158478,223.809494 511.081970,223.120499 
	C508.302582,198.084915 501.106812,174.315277 490.819519,151.402710 
	C480.905731,129.322006 468.023315,109.170784 452.311401,90.744637 
	C433.497040,68.680084 411.743256,50.051357 386.773743,35.459370 
	C363.901855,22.093231 339.553589,12.036149 313.369110,6.998280 
	C305.711609,5.524985 298.001495,4.326598 290.329834,2.923800 
	C289.606476,2.791535 288.986359,2.094875 288.659149,1.330125 
	C363.593719,1.000000 438.187408,1.000000 513.000000,1.000000 
	C513.000000,75.354088 513.000000,149.708389 513.000000,224.531342 
z"/>
<path fill="transparent" opacity="1.000000" stroke="none" 
	d="
M225.000000,513.000000 
	C150.406296,513.000000 75.812599,513.000000 1.000000,513.000000 
	C1.000000,438.645905 1.000000,364.291626 1.407906,289.327576 
	C2.206537,289.558929 2.801890,290.364349 2.955716,291.246735 
	C4.220609,298.502625 5.181340,305.818207 6.654701,313.029785 
	C10.401219,331.367615 16.561115,348.966675 24.535973,365.835876 
	C28.979225,375.234711 34.734131,384.013458 39.952152,393.427063 
	C53.645184,416.016541 70.890587,435.107758 90.575531,452.116089 
	C109.654259,468.600677 130.717773,481.879395 153.814713,491.972626 
	C175.897125,501.622528 198.814301,508.205231 222.775848,511.080322 
	C223.582413,511.177094 224.261490,512.336121 225.000000,513.000000 
z"/>
<path fill="transparent" opacity="1.000000" stroke="none" 
	d="
M474.102661,393.082031 
	C479.617401,383.310394 486.278381,373.994415 490.385254,363.663086 
	C496.978485,347.077057 502.179901,329.909363 507.352692,312.801025 
	C509.414398,305.982178 509.805969,298.662048 511.033630,291.583252 
	C511.215302,290.535736 511.816925,289.561005 512.612122,288.776306 
	C513.000000,363.593719 513.000000,438.187408 513.000000,513.000000 
	C438.645905,513.000000 364.291626,513.000000 289.132874,512.666016 
	C289.164154,511.891296 289.953094,511.234650 290.842560,511.041992 
	C304.743774,508.031494 318.797943,505.611389 332.535065,501.987091 
	C351.235718,497.053284 368.736145,488.994507 385.407501,479.184662 
	C402.305298,469.241547 418.362640,458.111481 432.220001,444.166626 
	C441.290985,435.038452 450.206329,425.692047 458.439850,415.816833 
	C464.308258,408.778412 468.926514,400.697662 474.102661,393.082031 
z"/>
<path fill="transparent" opacity="1.000000" stroke="none" 
	d="
M0.999999,224.000000 
	C1.000000,149.739456 1.000000,75.478920 1.000000,1.000000 
	C75.354088,1.000000 149.708389,1.000000 224.735596,1.396302 
	C224.565170,2.192031 223.755524,2.825390 222.872940,2.952554 
	C217.529373,3.722460 212.078918,3.970742 206.829483,5.137187 
	C178.012253,11.540488 150.647522,21.530390 125.172493,36.832287 
	C99.744934,52.105656 77.777145,71.283325 58.880836,93.863678 
	C43.741795,111.954254 31.349415,131.965927 22.015215,153.773071 
	C12.664412,175.619003 5.888651,198.151215 2.920763,221.780594 
	C2.819339,222.588074 1.664065,223.263184 0.999999,224.000000 
z"/>
<path fill="#58BF93" opacity="1.000000" stroke="none" 
	d="
M0.999999,224.468658 
	C1.664065,223.263184 2.819339,222.588074 2.920763,221.780594 
	C5.888651,198.151215 12.664412,175.619003 22.015215,153.773071 
	C31.349415,131.965927 43.741795,111.954254 58.880836,93.863678 
	C77.777145,71.283325 99.744934,52.105656 125.172493,36.832287 
	C150.647522,21.530390 178.012253,11.540488 206.829483,5.137187 
	C212.078918,3.970742 217.529373,3.722460 222.872940,2.952554 
	C223.755524,2.825390 224.565170,2.192031 225.204254,1.396302 
	C243.020889,1.000000 261.041779,1.000000 279.531342,1.000002 
	C272.524353,2.318316 265.057434,3.688457 257.571564,4.945800 
	C228.220886,9.875602 200.786331,20.088020 174.913406,34.695404 
	C156.409470,45.142395 139.861328,58.190331 124.237564,72.482224 
	C123.032837,73.584244 122.114456,74.999283 121.013077,76.615845 
	C120.963165,76.962852 120.964928,76.951714 120.740173,77.053894 
	C120.235558,77.352226 120.040642,77.612099 119.964729,77.967743 
	C119.998779,77.999794 119.936745,77.930099 119.713280,78.036880 
	C119.213417,78.342049 119.010208,78.598442 118.636810,79.132416 
	C103.867233,91.646149 90.125519,104.713669 78.602592,119.946945 
	C47.959290,160.457306 32.087486,205.990067 31.624931,256.936615 
	C21.100420,256.974030 11.050210,256.987000 1.000000,257.000000 
	C1.000000,246.312439 1.000000,235.624878 0.999999,224.468658 
z"/>
<path fill="#98D6BA" opacity="1.000000" stroke="none" 
	d="
M473.753174,392.850159 
	C468.926514,400.697662 464.308258,408.778412 458.439850,415.816833 
	C450.206329,425.692047 441.290985,435.038452 432.220001,444.166626 
	C418.362640,458.111481 402.305298,469.241547 385.407501,479.184662 
	C368.736145,488.994507 351.235718,497.053284 332.535065,501.987091 
	C318.797943,505.611389 304.743774,508.031494 290.842560,511.041992 
	C289.953094,511.234650 289.164154,511.891296 288.664215,512.666016 
	C286.299988,513.000000 283.599976,513.000000 280.161072,512.750732 
	C275.481506,511.942413 271.539581,511.392303 267.600403,510.822906 
	C226.358658,504.861786 188.298798,490.617737 154.476471,466.118988 
	C143.079117,457.863464 132.794754,448.071350 122.379692,438.989441 
	C124.115257,439.500244 125.659653,439.738129 126.803329,440.544403 
	C161.469894,464.984070 199.971146,478.788422 242.257904,481.530975 
	C253.469284,482.258118 264.791992,481.268829 276.504822,481.108093 
	C281.574127,480.614746 286.227142,480.240417 290.826508,479.522461 
	C337.292999,472.269104 377.724854,452.480713 411.745117,420.105103 
	C420.722137,411.562103 428.182587,401.425507 436.339417,392.020691 
	C446.901276,392.052765 457.463318,392.062378 468.024872,392.138733 
	C469.818848,392.151733 471.610779,392.451172 473.753174,392.850159 
z"/>
<path fill="#1FB580" opacity="1.000000" stroke="none" 
	d="
M1.000000,257.468658 
	C11.050210,256.987000 21.100420,256.974030 32.082077,256.970856 
	C37.319286,257.056458 41.625050,257.132263 45.930817,257.208069 
	C45.787174,298.930328 55.623158,338.228699 74.713272,375.252014 
	C77.532150,380.718964 80.716194,385.997589 83.425690,391.691345 
	C81.339943,392.021881 79.559784,392.024414 77.325195,392.049164 
	C66.458427,392.073547 56.045635,392.026245 45.634174,392.122620 
	C43.719330,392.140320 41.809879,392.740387 39.897938,393.071655 
	C34.734131,384.013458 28.979225,375.234711 24.535973,365.835876 
	C16.561115,348.966675 10.401219,331.367615 6.654701,313.029785 
	C5.181340,305.818207 4.220609,298.502625 2.955716,291.246735 
	C2.801890,290.364349 2.206537,289.558929 1.407906,288.858917 
	C1.000000,278.645782 1.000000,268.291534 1.000000,257.468658 
z"/>
<path fill="#58BF93" opacity="1.000000" stroke="none" 
	d="
M39.952156,393.427063 
	C41.809879,392.740387 43.719330,392.140320 45.634174,392.122620 
	C56.045635,392.026245 66.458427,392.073547 77.433792,392.386292 
	C86.341782,402.140411 94.479958,411.773926 103.102890,420.951996 
	C109.055489,427.287872 115.678375,432.993988 122.001724,438.981506 
	C132.794754,448.071350 143.079117,457.863464 154.476471,466.118988 
	C188.298798,490.617737 226.358658,504.861786 267.600403,510.822906 
	C271.539581,511.392303 275.481506,511.942413 279.711090,512.750732 
	C261.979095,513.000000 243.958206,513.000000 225.468658,513.000000 
	C224.261490,512.336121 223.582413,511.177094 222.775848,511.080322 
	C198.814301,508.205231 175.897125,501.622528 153.814713,491.972626 
	C130.717773,481.879395 109.654259,468.600677 90.575531,452.116089 
	C70.890587,435.107758 53.645184,416.016541 39.952156,393.427063 
z"/>
<path fill="#DBEDFF" opacity="1.000000" stroke="none" 
	d="
M275.045105,32.896416 
	C307.669464,34.972401 338.154449,44.454029 366.487885,60.459473 
	C413.730743,87.146812 447.323578,125.950058 467.121704,176.496994 
	C474.866241,196.269745 479.713684,216.792023 481.084045,238.049820 
	C481.468719,244.017029 481.674286,249.995789 481.929169,256.427246 
	C446.082642,256.923401 410.268951,256.979523 374.455292,256.994537 
	C338.973480,257.009399 303.491638,256.982819 267.522705,256.586060 
	C272.682251,248.128677 278.328888,240.059647 284.366455,232.080078 
	C292.552368,231.169312 300.347321,230.169083 308.522400,229.132767 
	C363.472748,212.173523 394.884918,164.847824 388.870422,108.232857 
	C387.797791,98.136032 386.338837,87.856796 375.626648,82.021973 
	C371.285065,81.019554 367.105927,79.049149 363.298309,79.608383 
	C354.477753,80.903900 345.543640,82.600365 337.172485,85.584366 
	C294.924286,100.644203 266.160797,139.879715 264.287445,184.732452 
	C263.745514,197.707748 264.481537,210.666550 270.147461,223.094208 
	C265.903015,229.546280 261.762421,235.643921 256.729034,243.056320 
	C252.043930,235.314011 248.020081,228.664474 244.181274,221.700989 
	C245.260483,218.895950 246.431137,216.466919 247.006302,213.904221 
	C253.046112,186.992493 249.656006,161.196472 236.478104,137.050385 
	C221.418625,109.456604 198.714600,91.060234 167.782196,82.721382 
	C165.662735,81.995575 163.846786,81.451851 162.263092,80.678505 
	C189.193115,59.433960 219.057175,45.003418 252.203934,37.477673 
	C259.774139,35.758907 267.429138,34.413605 275.045105,32.896416 
z"/>
<path fill="#20B580" opacity="1.000000" stroke="none" 
	d="
M435.838867,392.037109 
	C428.182587,401.425507 420.722137,411.562103 411.745117,420.105103 
	C377.724854,452.480713 337.292999,472.269104 290.826508,479.522461 
	C286.227142,480.240417 281.574127,480.614746 276.175293,480.873413 
	C256.734131,478.159302 238.549286,473.793640 220.964767,466.992859 
	C197.029541,457.735931 175.382965,444.624756 155.799591,428.115082 
	C143.456390,417.709198 132.204193,406.232452 122.972427,392.899811 
	C125.249901,392.624481 127.527275,392.109344 129.804871,392.108276 
	C231.649368,392.061707 333.493866,392.060333 435.838867,392.037109 
z"/>
<path fill="#DBEDFF" opacity="1.000000" stroke="none" 
	d="
M246.917435,256.911133 
	C190.593979,256.927063 134.270508,256.943024 77.473419,256.446838 
	C77.388420,247.470596 77.257538,238.944443 78.259621,230.553604 
	C81.771042,201.151291 90.401451,173.282455 105.311630,147.625824 
	C110.876869,138.049454 117.680992,129.193039 123.992035,120.464485 
	C124.688972,170.702454 154.038147,212.127396 199.782883,227.354004 
	C209.519363,230.594879 219.441513,233.697235 230.309052,232.144287 
	C235.335632,238.894638 240.117645,245.448135 244.756439,252.101501 
	C245.744217,253.518250 246.210754,255.298401 246.917435,256.911133 
z"/>
<path fill="#B5DCFE" opacity="1.000000" stroke="none" 
	d="
M123.920212,120.008331 
	C117.680992,129.193039 110.876869,138.049454 105.311630,147.625824 
	C90.401451,173.282455 81.771042,201.151291 78.259621,230.553604 
	C77.257538,238.944443 77.388420,247.470596 77.008728,256.392212 
	C66.967880,256.921936 56.918083,256.994141 46.399551,257.137207 
	C41.625050,257.132263 37.319286,257.056458 32.556374,256.946411 
	C32.087486,205.990067 47.959290,160.457306 78.602592,119.946945 
	C90.125519,104.713669 103.867233,91.646149 118.868759,79.035179 
	C119.541649,78.455612 119.739197,78.192856 119.936745,77.930099 
	C119.936745,77.930099 119.998779,77.999794 120.193039,77.869339 
	C120.678207,77.548676 120.870750,77.286285 120.964928,76.951714 
	C120.964928,76.951714 120.963165,76.962852 120.949768,76.951233 
	C122.229980,76.250343 123.623749,75.700180 124.802605,74.851501 
	C156.948334,51.709309 192.727158,37.646061 232.034256,33.351994 
	C245.997482,31.826599 260.222809,32.700577 274.686798,32.687828 
	C267.429138,34.413605 259.774139,35.758907 252.203934,37.477673 
	C219.057175,45.003418 189.193115,59.433960 161.849335,80.706207 
	C158.914642,80.610878 156.633484,80.196701 154.336044,79.915489 
	C138.767838,78.009842 129.724472,84.334534 126.584930,99.845009 
	C125.243065,106.474297 124.781677,113.281807 123.920212,120.008331 
z"/>
<path fill="#98D6BA" opacity="1.000000" stroke="none" 
	d="
M247.390503,256.943695 
	C246.210754,255.298401 245.744217,253.518250 244.756439,252.101501 
	C240.117645,245.448135 235.335632,238.894638 230.287933,231.798538 
	C228.255569,228.899948 226.540024,226.508286 224.716827,223.796478 
	C223.696060,222.084503 222.817886,220.668259 221.864685,219.304459 
	C202.791443,192.015411 183.689911,164.746124 164.646606,137.436203 
	C160.981064,132.179443 161.192444,127.838257 164.945328,125.089043 
	C169.212860,121.962822 173.116470,122.889839 177.018707,128.438553 
	C197.415390,157.441223 217.707199,186.517639 238.111679,215.514801 
	C239.781021,217.887115 242.021255,219.857697 243.996231,222.014938 
	C248.020081,228.664474 252.043930,235.314011 256.729034,243.056320 
	C261.762421,235.643921 265.903015,229.546280 270.397400,222.910950 
	C279.231842,210.400787 287.727905,198.439133 296.162262,186.434158 
	C296.800415,185.525864 297.000092,184.309525 297.716705,183.130219 
	C302.649261,176.736267 307.354462,170.509323 311.869873,164.147659 
	C320.543274,151.927979 329.057739,139.595413 337.746277,127.386627 
	C340.938538,122.900963 344.885803,122.187126 348.889191,124.982063 
	C352.405334,127.436821 352.995483,131.722855 350.311249,136.046387 
	C348.994659,138.167068 347.534210,140.200104 346.102600,142.247452 
	C330.074707,165.168808 314.039703,188.085190 297.785339,211.252808 
	C293.034546,218.332001 288.505035,225.161316 283.975525,231.990616 
	C278.328888,240.059647 272.682251,248.128677 267.060455,256.553162 
	C260.678040,256.931152 254.270813,256.953705 247.390503,256.943695 
z"/>
<path fill="#01A96D" opacity="1.000000" stroke="none" 
	d="
M122.528496,392.870117 
	C132.204193,406.232452 143.456390,417.709198 155.799591,428.115082 
	C175.382965,444.624756 197.029541,457.735931 220.964767,466.992859 
	C238.549286,473.793640 256.734131,478.159302 275.734100,480.832947 
	C264.791992,481.268829 253.469284,482.258118 242.257904,481.530975 
	C199.971146,478.788422 161.469894,464.984070 126.803329,440.544403 
	C125.659653,439.738129 124.115257,439.500244 122.379684,438.989441 
	C115.678375,432.993988 109.055489,427.287872 103.102890,420.951996 
	C94.479958,411.773926 86.341782,402.140411 77.888229,392.364044 
	C79.559784,392.024414 81.339943,392.021881 83.558960,392.011383 
	C96.693405,392.282410 109.388985,392.561432 122.528496,392.870117 
z"/>
<path fill="#D9ECFD" opacity="1.000000" stroke="none" 
	d="
M411.973511,293.134003 
	C412.005341,290.825165 411.776520,288.943939 412.121429,287.174561 
	C412.920227,283.076782 415.485901,280.687836 419.772614,280.767670 
	C424.026489,280.846924 426.564117,283.138336 427.146851,287.403046 
	C427.303741,288.551086 427.280396,289.728516 427.280701,290.892456 
	C427.286896,313.533600 427.236786,336.174896 427.323578,358.815704 
	C427.341034,363.373749 426.484009,367.275177 421.560364,368.615662 
	C416.872070,369.892090 414.163635,366.993378 411.833801,363.415100 
	C402.571167,349.189331 393.243164,335.006104 383.931396,320.812378 
	C382.963562,319.337158 381.942383,317.896912 380.107697,315.215088 
	C379.890625,318.199463 379.684265,319.745239 379.680664,321.291443 
	C379.653107,333.111389 379.672424,344.931427 379.656433,356.751434 
	C379.654175,358.413269 379.692596,360.097961 379.447601,361.732391 
	C378.776337,366.209869 375.324036,369.307343 371.317230,368.870483 
	C366.897797,368.388611 364.431824,365.686615 364.117828,361.299347 
	C363.892517,358.151672 364.039764,354.976562 364.039276,351.813690 
	C364.036224,331.503265 364.072357,311.192749 364.012238,290.882507 
	C363.998932,286.393188 364.758728,282.399139 369.702972,281.015869 
	C374.574432,279.652985 377.379120,282.504364 379.840088,286.311829 
	C388.783875,300.149078 397.878845,313.888641 406.918701,327.663788 
	C408.272003,329.725952 409.635651,331.781281 411.973450,333.661285 
	C411.973450,320.311676 411.973450,306.962036 411.973511,293.134003 
z"/>
<path fill="#D9ECFD" opacity="1.000000" stroke="none" 
	d="
M247.799438,296.436493 
	C240.563858,299.330200 237.980835,302.914764 237.934799,310.158478 
	C237.870193,320.322968 237.779541,330.491547 237.994019,340.652161 
	C238.159286,348.480682 244.035309,353.465912 251.741470,353.317993 
	C258.087250,353.196136 265.123566,346.345520 263.444397,338.527954 
	C261.802490,338.410431 260.020477,338.345245 258.253967,338.144012 
	C254.118622,337.672882 250.951630,334.354675 251.232559,330.468323 
	C251.532211,326.322601 253.841385,323.439392 258.049164,323.116425 
	C262.852112,322.747742 267.837738,322.374725 272.483276,323.305176 
	C274.956177,323.800446 278.485199,326.861053 278.739990,329.084320 
	C279.431458,335.118622 279.509186,341.512512 278.242645,347.423645 
	C275.320587,361.061249 262.265198,370.064667 248.523041,368.892242 
	C234.281937,367.677307 223.054047,356.199280 222.400742,341.356873 
	C221.917587,330.380402 221.935272,319.350494 222.390747,308.371826 
	C222.992493,293.867188 233.443893,282.468811 246.785278,280.907806 
	C260.924042,279.253448 273.733612,287.061523 277.842926,299.839081 
	C279.973663,306.464294 275.963593,312.327026 269.810974,310.865143 
	C267.377594,310.286987 264.737549,307.728333 263.527496,305.382385 
	C259.790680,298.137756 256.086884,295.631012 247.799438,296.436493 
z"/>
<path fill="#D9ECFD" opacity="1.000000" stroke="none" 
	d="
M319.008728,350.973999 
	C308.580719,349.071716 302.266449,352.098785 300.120483,362.885864 
	C299.091431,368.058563 294.300629,369.984039 290.143921,368.447784 
	C285.727356,366.815491 283.991760,362.515076 285.948120,357.320038 
	C294.803223,333.805878 303.750092,310.326263 312.622772,286.818695 
	C313.977661,283.228973 316.121765,280.780182 320.218597,280.727570 
	C324.563690,280.671783 326.739777,283.272400 328.163177,287.040894 
	C336.982880,310.390656 345.892456,333.706482 354.709900,357.057098 
	C356.695892,362.316437 355.104492,366.607880 350.796997,368.355774 
	C346.511383,370.094757 342.514435,367.954559 340.290405,362.722198 
	C338.673737,358.918671 338.056946,353.532867 335.186981,351.730469 
	C332.041412,349.755005 326.820312,351.079987 322.503387,350.977539 
	C321.504700,350.953827 320.504913,350.973999 319.008728,350.973999 
M322.899841,316.710480 
	C322.174316,314.960693 321.448761,313.210938 320.253906,310.329285 
	C316.930634,319.127350 314.031708,326.802063 311.010040,334.801636 
	C317.367676,334.801636 323.128815,334.801636 329.697266,334.801636 
	C327.323364,328.516083 325.229370,322.971649 322.899841,316.710480 
z"/>
<path fill="#D9ECFD" opacity="1.000000" stroke="none" 
	d="
M195.913757,368.974121 
	C188.600769,368.972107 181.772751,369.053497 174.947845,368.942322 
	C169.222061,368.849091 166.185196,366.042480 166.159073,360.344086 
	C166.049957,336.534546 166.052094,312.723999 166.161179,288.914459 
	C166.184967,283.722778 168.963303,280.835754 174.219269,280.679291 
	C183.533264,280.402100 192.865128,280.359467 202.179413,280.603882 
	C207.293381,280.738068 210.181168,284.006195 210.051651,288.441345 
	C209.922699,292.858124 206.816681,295.844971 201.796417,295.958710 
	C195.351181,296.104736 188.900131,295.994202 182.112976,295.994202 
	C182.112976,303.143921 182.112976,309.705017 182.112976,316.996063 
	C187.874146,316.996063 193.477554,316.953796 199.080032,317.007812 
	C204.819748,317.063171 208.357986,319.862885 208.572250,324.395416 
	C208.796188,329.131866 205.290237,332.289886 199.255783,332.512024 
	C194.765854,332.677277 190.262253,332.690460 185.771835,332.548004 
	C182.726883,332.451355 181.578949,333.684113 181.744400,336.671143 
	C182.036896,341.951935 180.273956,348.785522 182.942673,352.045990 
	C185.125473,354.712738 192.507904,353.132690 197.586273,353.415192 
	C199.412766,353.516846 201.264404,353.405060 203.066498,353.659912 
	C207.446426,354.279236 209.995361,356.768799 210.030319,361.322510 
	C210.062973,365.575409 207.020264,368.573669 202.391937,368.921234 
	C200.404526,369.070465 198.397934,368.964264 195.913757,368.974121 
z"/>
<path fill="#D9ECFD" opacity="1.000000" stroke="none" 
	d="
M138.966949,336.984924 
	C135.750427,345.606720 132.606827,353.842316 129.579453,362.120422 
	C128.146851,366.037781 125.913033,368.986633 121.394867,368.879517 
	C117.126404,368.778320 115.086906,365.876160 113.703682,362.153381 
	C105.130913,339.080841 96.454781,316.046631 87.877968,292.975586 
	C85.692970,287.098114 87.122856,282.793823 91.519325,281.174011 
	C96.300758,279.412354 100.080833,281.662323 102.386482,287.787201 
	C108.011475,302.729706 113.582558,317.692474 119.190643,332.641357 
	C119.826881,334.337311 120.560883,335.996613 121.640701,338.625031 
	C123.290886,334.420044 124.649345,331.084320 125.914040,327.713440 
	C130.762939,314.789307 135.568008,301.848694 140.417191,288.924652 
	C143.146820,281.649597 146.909744,279.175354 151.979874,281.238220 
	C156.469254,283.064789 157.520020,287.372345 155.012619,294.098450 
	C149.726212,308.279236 144.398361,322.444519 138.966949,336.984924 
z"/>
<path fill="#99D6BA" opacity="1.000000" stroke="none" 
	d="
M119.713280,78.036880 
	C119.739197,78.192856 119.541649,78.455612 119.112152,78.815613 
	C119.010208,78.598442 119.213417,78.342049 119.713280,78.036880 
z"/>
<path fill="#99D6BA" opacity="1.000000" stroke="none" 
	d="
M120.740173,77.053894 
	C120.870750,77.286285 120.678207,77.548676 120.158989,77.837296 
	C120.040642,77.612099 120.235558,77.352226 120.740173,77.053894 
z"/>
<path fill="#58BF93" opacity="1.000000" stroke="none" 
	d="
M298.006653,211.002914 
	C314.039703,188.085190 330.074707,165.168808 346.102600,142.247452 
	C347.534210,140.200104 348.994659,138.167068 350.311249,136.046387 
	C352.995483,131.722855 352.405334,127.436821 348.889191,124.982063 
	C344.885803,122.187126 340.938538,122.900963 337.746277,127.386627 
	C329.057739,139.595413 320.543274,151.927979 311.869873,164.147659 
	C307.354462,170.509323 302.649261,176.736267 297.604065,182.686920 
	C297.428894,179.718643 297.533966,177.064163 297.951782,174.459854 
	C304.790344,131.830612 328.285217,102.429207 368.196259,86.054611 
	C370.861542,84.961105 373.374237,83.495598 375.957886,82.203125 
	C386.338837,87.856796 387.797791,98.136032 388.870422,108.232857 
	C394.884918,164.847824 363.472748,212.173523 308.358582,228.822784 
	C304.545380,222.700241 301.276001,216.851578 298.006653,211.002914 
z"/>
<path fill="#59BF93" opacity="1.000000" stroke="none" 
	d="
M244.181274,221.700989 
	C242.021255,219.857697 239.781021,217.887115 238.111679,215.514801 
	C217.707199,186.517639 197.415390,157.441223 177.018707,128.438553 
	C173.116470,122.889839 169.212860,121.962822 164.945328,125.089043 
	C161.192444,127.838257 160.981064,132.179443 164.646606,137.436203 
	C183.689911,164.746124 202.791443,192.015411 221.864685,219.304459 
	C222.817886,220.668259 223.696060,222.084503 224.357300,223.753906 
	C223.312454,223.789185 222.480408,223.632828 221.732132,223.292328 
	C179.266754,203.969910 153.000320,160.616837 157.198669,112.054146 
	C158.111160,101.499092 159.397659,90.722847 168.085693,82.903473 
	C198.714600,91.060234 221.418625,109.456604 236.478104,137.050385 
	C249.656006,161.196472 253.046112,186.992493 247.006302,213.904221 
	C246.431137,216.466919 245.260483,218.895950 244.181274,221.700989 
z"/>
<path fill="#20B581" opacity="1.000000" stroke="none" 
	d="
M167.782196,82.721382 
	C159.397659,90.722847 158.111160,101.499092 157.198669,112.054146 
	C153.000320,160.616837 179.266754,203.969910 221.732132,223.292328 
	C222.480408,223.632828 223.312454,223.789185 224.464951,224.074051 
	C226.540024,226.508286 228.255569,228.899948 229.992249,231.637360 
	C219.441513,233.697235 209.519363,230.594879 199.782883,227.354004 
	C154.038147,212.127396 124.688972,170.702454 123.992035,120.464478 
	C124.781677,113.281807 125.243065,106.474297 126.584930,99.845009 
	C129.724472,84.334534 138.767838,78.009842 154.336044,79.915489 
	C156.633484,80.196701 158.914642,80.610878 161.617065,80.935837 
	C163.846786,81.451851 165.662735,81.995575 167.782196,82.721382 
z"/>
<path fill="#21B581" opacity="1.000000" stroke="none" 
	d="
M375.626648,82.021965 
	C373.374237,83.495598 370.861542,84.961105 368.196259,86.054611 
	C328.285217,102.429207 304.790344,131.830612 297.951782,174.459854 
	C297.533966,177.064163 297.428894,179.718643 297.290955,182.793076 
	C297.000092,184.309525 296.800415,185.525864 296.162262,186.434158 
	C287.727905,198.439133 279.231842,210.400787 270.501282,222.556519 
	C264.481537,210.666550 263.745514,197.707748 264.287445,184.732452 
	C266.160797,139.879715 294.924286,100.644203 337.172485,85.584366 
	C345.543640,82.600365 354.477753,80.903900 363.298309,79.608383 
	C367.105927,79.049149 371.285065,81.019554 375.626648,82.021965 
z"/>
<path fill="#24B683" opacity="1.000000" stroke="none" 
	d="
M297.785339,211.252808 
	C301.276001,216.851578 304.545380,222.700241 307.978516,228.858887 
	C300.347321,230.169083 292.552368,231.169312 284.366455,232.080078 
	C288.505035,225.161316 293.034546,218.332001 297.785339,211.252808 
z"/>
<path fill="#5CC096" opacity="1.000000" stroke="none" 
	d="
M323.017578,317.068848 
	C325.229370,322.971649 327.323364,328.516083 329.697266,334.801636 
	C323.128815,334.801636 317.367676,334.801636 311.010040,334.801636 
	C314.031708,326.802063 316.930634,319.127350 320.253906,310.329285 
	C321.448761,313.210938 322.174316,314.960693 323.017578,317.068848 
z"/>
</svg>