<svg version="1.1" id="Layer_1" xmlns="http://www.w3.org/2000/svg" xmlns:xlink="http://www.w3.org/1999/xlink" x="0px" y="0px"
	 width="100%" viewBox="0 0 512 512" enable-background="new 0 0 512 512" xml:space="preserve">
<path fill="#6BCB45" opacity="1.000000" stroke="none" 
	d="
M289.000000,513.000000 
	C284.975464,513.000000 280.950897,513.000000 276.482910,512.714233 
	C275.125732,511.940338 274.258148,511.159851 273.291412,511.007202 
	C253.350006,507.858398 233.751968,503.450867 214.853134,496.141327 
	C188.375519,485.900543 164.214539,471.755646 142.369751,453.661621 
	C140.944855,452.481354 140.196915,450.483826 139.482803,448.917114 
	C166.409225,464.725739 194.796936,475.696228 225.546722,479.344025 
	C239.970673,481.055084 254.634613,480.743195 269.636719,481.387299 
	C310.120911,478.788879 347.247864,467.062286 380.579193,444.636139 
	C463.858765,388.603546 499.714020,291.027863 472.833679,194.305756 
	C468.188568,177.591492 461.444550,161.693604 452.314270,145.957382 
	C451.352112,148.235641 450.670074,149.868591 449.974182,151.495621 
	C444.677582,163.879852 439.536102,176.333420 434.044250,188.630478 
	C424.937225,209.022324 409.075928,222.303070 388.179474,228.922913 
	C375.419159,232.965286 362.063202,235.384918 348.812836,237.535553 
	C339.420135,239.060059 333.937073,243.661087 330.968079,252.504364 
	C318.710632,289.013977 310.286591,326.506714 302.070068,364.051880 
	C297.481628,385.018402 293.211914,406.054565 288.769745,427.053253 
	C286.871857,436.024567 282.141449,441.255981 274.890930,441.963043 
	C270.951965,442.347107 266.950928,442.095215 262.734772,441.896301 
	C256.351196,438.188812 252.541321,433.174957 251.220673,426.071594 
	C249.792038,418.387512 247.885498,410.789703 246.097275,403.175446 
	C234.145386,352.284149 221.866089,301.475250 204.791946,251.990387 
	C196.591400,228.223282 185.258957,206.087875 169.364120,186.428085 
	C166.376724,182.733109 163.847855,178.667404 161.446106,174.851929 
	C167.236801,179.541031 173.040070,183.798370 178.081238,188.820694 
	C202.725845,213.373291 218.447021,243.459366 230.956802,275.442932 
	C241.578461,302.599152 248.965530,330.697906 254.957352,359.190643 
	C256.097137,364.610596 257.216278,365.179047 262.288818,362.979553 
	C264.254120,363.007324 265.751770,363.031036 267.248810,363.010620 
	C277.455444,362.871368 282.039734,359.047760 284.095367,349.026154 
	C284.696838,346.093750 285.384308,343.178986 286.035248,340.256744 
	C295.496582,297.781189 309.247467,256.978180 332.550903,219.832306 
	C344.062378,201.482956 358.110809,185.413727 374.944244,171.823807 
	C379.461060,168.177277 384.570282,165.271500 389.192871,161.744354 
	C390.435181,160.796432 391.406830,158.848007 391.508392,157.293900 
	C391.569000,156.366531 389.523438,154.330963 388.720001,154.472305 
	C382.671875,155.536362 376.697174,157.017715 370.301575,158.179779 
	C367.637299,158.119110 365.180267,157.722000 363.136658,158.463791 
	C352.695740,162.253632 341.769989,165.269608 332.146118,170.600403 
	C321.175140,176.677353 311.398102,184.909714 301.084503,191.785004 
	C301.136505,190.537308 301.096680,189.683121 301.291626,188.886368 
	C309.451843,155.535934 325.858490,127.288383 353.148834,105.943489 
	C379.262573,85.518852 409.502502,75.041512 441.871918,70.063904 
	C452.512115,68.427704 463.252045,67.439972 474.403442,66.096085 
	C482.387360,66.623573 489.928802,67.077774 497.429199,67.904526 
	C499.021332,68.080025 501.822571,69.800598 501.728333,70.489227 
	C501.403381,72.863091 500.696503,76.081787 498.972748,77.222977 
	C486.835480,85.258423 477.644989,95.834610 470.128876,108.159233 
	C468.586334,110.688644 468.784210,112.213547 470.078400,114.502678 
	C477.137512,126.988678 484.637634,139.271805 490.893494,152.155228 
	C501.708130,174.426910 508.236969,198.071167 511.080719,222.707764 
	C511.176147,223.534683 512.336182,224.238693 513.000000,225.000000 
	C513.000000,246.020889 513.000000,267.041779 512.597961,288.354065 
	C511.133057,294.170349 510.013855,299.685181 509.017456,305.222046 
	C505.248260,326.166443 499.075317,346.486664 489.582520,365.416992 
	C481.919739,380.697937 472.545074,395.203644 463.030090,409.452423 
	C449.996063,428.971069 433.049042,445.115234 414.750183,459.530762 
	C398.100311,472.647278 379.952728,483.668762 360.278503,491.980621 
	C338.099854,501.350525 315.342133,508.466553 291.304291,511.081573 
	C290.476440,511.171631 289.765472,512.336243 289.000000,513.000000 
z"/>
<path fill="#4EC322" opacity="1.000000" stroke="none" 
	d="
M139.134079,448.866455 
	C140.196915,450.483826 140.944855,452.481354 142.369751,453.661621 
	C164.214539,471.755646 188.375519,485.900543 214.853134,496.141327 
	C233.751968,503.450867 253.350006,507.858398 273.291412,511.007202 
	C274.258148,511.159851 275.125732,511.940338 276.019714,512.714233 
	C259.312439,513.000000 242.624878,513.000000 225.584869,512.586975 
	C224.390503,511.789825 223.582077,511.194550 222.701416,511.054871 
	C215.590195,509.927124 208.341919,509.399628 201.366592,507.725769 
	C174.372986,501.248047 148.712341,491.430206 124.809708,477.049805 
	C97.471405,460.602417 74.107803,439.620056 54.446716,414.752716 
	C41.174381,397.965851 30.153412,379.590424 21.796541,359.677155 
	C12.573104,337.698975 5.583670,315.197632 2.908509,291.442657 
	C2.810000,290.567902 1.659986,289.811523 1.000001,289.000000 
	C1.000000,267.645782 1.000000,246.291550 1.410622,224.585526 
	C2.200662,223.559006 2.807499,222.921249 2.924202,222.203796 
	C4.051764,215.271774 4.601408,208.206009 6.252951,201.405975 
	C12.806083,174.424225 22.505285,148.704208 36.943363,124.804756 
	C52.195889,99.557144 71.278725,77.611748 93.843918,58.866283 
	C114.191803,41.962791 136.721817,28.383072 161.521988,18.744429 
	C181.265366,11.071128 201.469864,5.359870 222.554092,2.908733 
	C223.431488,2.806731 224.187454,1.660007 225.000000,0.999998 
	C241.687561,1.000000 258.375122,1.000000 275.713470,1.159059 
	C276.064850,1.874364 275.843597,2.853105 275.454620,2.925046 
	C265.832489,4.704652 256.090698,5.950575 246.573669,8.165683 
	C207.867233,17.174698 173.421432,34.883232 142.743423,60.016586 
	C141.187180,61.291546 140.313812,63.400013 139.116577,65.097626 
	C139.110657,65.074852 139.125793,65.110893 138.782898,65.101418 
	C137.644058,65.773338 136.848114,66.454735 135.849335,67.399506 
	C60.159710,120.115189 25.229631,191.895905 34.099209,283.725037 
	C38.411179,328.368073 56.594219,367.610596 85.320145,401.999084 
	C99.963188,419.528625 117.342033,433.941162 136.169861,447.172577 
	C137.233719,447.953766 138.185287,448.414917 139.129242,448.894440 
	C139.121628,448.912781 139.134079,448.866455 139.134079,448.866455 
z"/>
<path fill="transparent" opacity="1.000000" stroke="none" 
	d="
M1.000001,289.468658 
	C1.659986,289.811523 2.810000,290.567902 2.908509,291.442657 
	C5.583670,315.197632 12.573104,337.698975 21.796541,359.677155 
	C30.153412,379.590424 41.174381,397.965851 54.446716,414.752716 
	C74.107803,439.620056 97.471405,460.602417 124.809708,477.049805 
	C148.712341,491.430206 174.372986,501.248047 201.366592,507.725769 
	C208.341919,509.399628 215.590195,509.927124 222.701416,511.054871 
	C223.582077,511.194550 224.390503,511.789825 225.116211,512.586975 
	C150.406296,513.000000 75.812599,513.000000 1.000000,513.000000 
	C1.000000,438.645905 1.000000,364.291626 1.000001,289.468658 
z"/>
<path fill="transparent" opacity="1.000000" stroke="none" 
	d="
M289.468658,513.000000 
	C289.765472,512.336243 290.476440,511.171631 291.304291,511.081573 
	C315.342133,508.466553 338.099854,501.350525 360.278503,491.980621 
	C379.952728,483.668762 398.100311,472.647278 414.750183,459.530762 
	C433.049042,445.115234 449.996063,428.971069 463.030090,409.452423 
	C472.545074,395.203644 481.919739,380.697937 489.582520,365.416992 
	C499.075317,346.486664 505.248260,326.166443 509.017456,305.222046 
	C510.013855,299.685181 511.133057,294.170349 512.597961,288.822693 
	C513.000000,363.593719 513.000000,438.187408 513.000000,513.000000 
	C438.645905,513.000000 364.291626,513.000000 289.468658,513.000000 
z"/>
<path fill="transparent" opacity="1.000000" stroke="none" 
	d="
M224.531342,0.999998 
	C224.187454,1.660007 223.431488,2.806731 222.554092,2.908733 
	C201.469864,5.359870 181.265366,11.071128 161.521988,18.744429 
	C136.721817,28.383072 114.191803,41.962791 93.843918,58.866283 
	C71.278725,77.611748 52.195889,99.557144 36.943363,124.804756 
	C22.505285,148.704208 12.806083,174.424225 6.252951,201.405975 
	C4.601408,208.206009 4.051764,215.271774 2.924202,222.203796 
	C2.807499,222.921249 2.200662,223.559006 1.410622,224.116867 
	C1.000000,149.739456 1.000000,75.478920 1.000000,1.000000 
	C75.354088,1.000000 149.708389,1.000000 224.531342,0.999998 
z"/>
<path fill="transparent" opacity="1.000000" stroke="none" 
	d="
M513.000000,224.531342 
	C512.336182,224.238693 511.176147,223.534683 511.080719,222.707764 
	C508.236969,198.071167 501.708130,174.426910 490.893494,152.155228 
	C484.637634,139.271805 477.137512,126.988678 470.078400,114.502678 
	C468.784210,112.213547 468.586334,110.688644 470.128876,108.159233 
	C477.644989,95.834610 486.835480,85.258423 498.972748,77.222977 
	C500.696503,76.081787 501.403381,72.863091 501.728333,70.489227 
	C501.822571,69.800598 499.021332,68.080025 497.429199,67.904526 
	C489.928802,67.077774 482.387360,66.623573 473.945740,66.024361 
	C458.727203,66.661125 444.423431,67.309990 429.971497,67.650970 
	C426.629425,64.485535 423.583435,61.439205 420.217102,58.801762 
	C401.516815,44.150806 381.795105,31.211584 359.790161,21.888956 
	C337.761200,12.556119 315.157135,5.559977 291.299530,2.918710 
	C290.472351,2.827134 289.763824,1.663802 289.000000,1.000003 
	C363.593719,1.000000 438.187408,1.000000 513.000000,1.000000 
	C513.000000,75.354088 513.000000,149.708389 513.000000,224.531342 
z"/>
<path fill="#6BCB45" opacity="1.000000" stroke="none" 
	d="
M288.536804,1.000003 
	C289.763824,1.663802 290.472351,2.827134 291.299530,2.918710 
	C315.157135,5.559977 337.761200,12.556119 359.790161,21.888956 
	C381.795105,31.211584 401.516815,44.150806 420.217102,58.801762 
	C423.583435,61.439205 426.629425,64.485535 429.589233,67.802414 
	C426.436066,68.709877 423.497314,69.057442 420.601440,69.624275 
	C410.279724,71.644646 399.972565,73.739571 389.467102,75.562683 
	C353.402649,49.386795 313.384155,35.123058 268.786499,32.480545 
	C236.572220,31.227825 205.554108,35.521088 175.958084,47.482384 
	C163.361008,52.573517 151.382233,59.194592 139.122482,65.120392 
	C140.313812,63.400013 141.187180,61.291546 142.743423,60.016586 
	C173.421432,34.883232 207.867233,17.174698 246.573669,8.165683 
	C256.090698,5.950575 265.832489,4.704652 275.454620,2.925046 
	C275.843597,2.853105 276.064850,1.874364 276.182129,1.159059 
	C280.024536,1.000000 284.049103,1.000000 288.536804,1.000003 
z"/>
<path fill="#DBEDFF" opacity="1.000000" stroke="none" 
	d="
M269.179291,32.639034 
	C313.384155,35.123058 353.402649,49.386795 389.149231,75.733444 
	C387.326477,76.767036 385.646210,77.439758 383.928650,77.997711 
	C338.023895,92.909584 303.512573,120.696106 285.607117,166.481857 
	C280.989166,178.290359 278.358032,190.905548 275.321716,203.274719 
	C274.792786,205.429352 276.081268,209.073471 277.799835,210.495148 
	C280.468048,212.702484 283.288635,210.769287 285.543884,208.362137 
	C290.655243,202.906509 295.907318,197.582718 301.102203,192.205322 
	C311.398102,184.909714 321.175140,176.677353 332.146118,170.600403 
	C341.769989,165.269608 352.695740,162.253632 363.136658,158.463791 
	C365.180267,157.722000 367.637299,158.119110 370.279541,158.501984 
	C366.109528,162.225845 361.502594,165.356155 357.028320,168.665802 
	C338.082397,182.680084 323.883667,200.853683 311.998993,220.914352 
	C285.919281,264.935516 271.943268,313.274506 261.820892,362.955078 
	C257.216278,365.179047 256.097137,364.610596 254.957352,359.190643 
	C248.965530,330.697906 241.578461,302.599152 230.956802,275.442932 
	C218.447021,243.459366 202.725845,213.373291 178.081238,188.820694 
	C173.040070,183.798370 167.236801,179.541031 161.256180,174.581161 
	C151.772079,167.450989 141.963837,162.271713 131.154526,159.233856 
	C129.190506,158.681870 126.750404,159.823822 124.530075,160.183792 
	C125.410545,162.252426 125.736649,164.943420 127.255013,166.295944 
	C148.520172,185.238464 163.988861,208.252243 175.003082,234.306946 
	C188.012741,265.081940 196.675430,297.283722 204.953262,329.546204 
	C213.354782,362.290619 221.039078,395.219452 228.982971,428.080688 
	C231.200470,437.253784 236.168411,441.938049 245.023849,442.273376 
	C250.998154,442.499603 256.992523,442.196472 262.977905,442.130188 
	C266.950928,442.095215 270.951965,442.347107 274.890930,441.963043 
	C282.141449,441.255981 286.871857,436.024567 288.769745,427.053253 
	C293.211914,406.054565 297.481628,385.018402 302.070068,364.051880 
	C310.286591,326.506714 318.710632,289.013977 330.968079,252.504364 
	C333.937073,243.661087 339.420135,239.060059 348.812836,237.535553 
	C362.063202,235.384918 375.419159,232.965286 388.179474,228.922913 
	C409.075928,222.303070 424.937225,209.022324 434.044250,188.630478 
	C439.536102,176.333420 444.677582,163.879852 449.974182,151.495621 
	C450.670074,149.868591 451.352112,148.235641 452.314270,145.957382 
	C461.444550,161.693604 468.188568,177.591492 472.833679,194.305756 
	C499.714020,291.027863 463.858765,388.603546 380.579193,444.636139 
	C347.247864,467.062286 310.120911,478.788879 269.297089,481.141785 
	C267.391815,480.578705 266.287964,480.179810 265.152191,480.039398 
	C215.130615,473.855103 172.118149,452.813477 135.843658,418.142212 
	C116.298317,399.460754 101.053436,377.530151 89.383965,353.027924 
	C70.891739,314.200104 64.289047,273.319122 69.352280,230.921143 
	C76.027748,175.022690 100.453102,127.857811 142.417465,89.966446 
	C172.703613,62.619812 207.855408,45.038063 247.745789,36.796482 
	C254.872391,35.324085 262.033905,34.020542 269.179291,32.639034 
z"/>
<path fill="#B5DCFE" opacity="1.000000" stroke="none" 
	d="
M268.786499,32.480545 
	C262.033905,34.020542 254.872391,35.324085 247.745789,36.796482 
	C207.855408,45.038063 172.703613,62.619812 142.417465,89.966446 
	C100.453102,127.857811 76.027748,175.022690 69.352280,230.921143 
	C64.289047,273.319122 70.891739,314.200104 89.383965,353.027924 
	C101.053436,377.530151 116.298317,399.460754 135.843658,418.142212 
	C172.118149,452.813477 215.130615,473.855103 265.152191,480.039398 
	C266.287964,480.179810 267.391815,480.578705 268.850159,481.102539 
	C254.634613,480.743195 239.970673,481.055084 225.546722,479.344025 
	C194.796936,475.696228 166.409225,464.725739 139.482803,448.917114 
	C139.134079,448.866455 139.121628,448.912781 138.985092,448.608612 
	C137.918228,447.820496 136.987900,447.336517 136.057571,446.852570 
	C117.342033,433.941162 99.963188,419.528625 85.320145,401.999084 
	C56.594219,367.610596 38.411179,328.368073 34.099209,283.725037 
	C25.229631,191.895905 60.159710,120.115189 136.166473,67.353378 
	C137.499573,66.399544 138.312683,65.755219 139.125793,65.110901 
	C139.125793,65.110893 139.110657,65.074852 139.116577,65.097626 
	C151.382233,59.194592 163.361008,52.573517 175.958084,47.482384 
	C205.554108,35.521088 236.572220,31.227825 268.786499,32.480545 
z"/>
<path fill="#4EC323" opacity="1.000000" stroke="none" 
	d="
M262.734772,441.896301 
	C256.992523,442.196472 250.998154,442.499603 245.023849,442.273376 
	C236.168411,441.938049 231.200470,437.253784 228.982971,428.080688 
	C221.039078,395.219452 213.354782,362.290619 204.953262,329.546204 
	C196.675430,297.283722 188.012741,265.081940 175.003082,234.306946 
	C163.988861,208.252243 148.520172,185.238464 127.255013,166.295944 
	C125.736649,164.943420 125.410545,162.252426 124.530075,160.183792 
	C126.750404,159.823822 129.190506,158.681870 131.154526,159.233856 
	C141.963837,162.271713 151.772079,167.450989 160.917480,174.502014 
	C163.847855,178.667404 166.376724,182.733109 169.364120,186.428085 
	C185.258957,206.087875 196.591400,228.223282 204.791946,251.990387 
	C221.866089,301.475250 234.145386,352.284149 246.097275,403.175446 
	C247.885498,410.789703 249.792038,418.387512 251.220673,426.071594 
	C252.541321,433.174957 256.351196,438.188812 262.734772,441.896301 
z"/>
<path fill="#4EC323" opacity="1.000000" stroke="none" 
	d="
M262.288818,362.979553 
	C271.943268,313.274506 285.919281,264.935516 311.998993,220.914352 
	C323.883667,200.853683 338.082397,182.680084 357.028320,168.665802 
	C361.502594,165.356155 366.109528,162.225845 370.677490,158.690826 
	C376.697174,157.017715 382.671875,155.536362 388.720001,154.472305 
	C389.523438,154.330963 391.569000,156.366531 391.508392,157.293900 
	C391.406830,158.848007 390.435181,160.796432 389.192871,161.744354 
	C384.570282,165.271500 379.461060,168.177277 374.944244,171.823807 
	C358.110809,185.413727 344.062378,201.482956 332.550903,219.832306 
	C309.247467,256.978180 295.496582,297.781189 286.035248,340.256744 
	C285.384308,343.178986 284.696838,346.093750 284.095367,349.026154 
	C282.039734,359.047760 277.455444,362.871368 267.248810,363.010620 
	C265.751770,363.031036 264.254120,363.007324 262.288818,362.979553 
z"/>
<path fill="#4EC323" opacity="1.000000" stroke="none" 
	d="
M301.084503,191.785004 
	C295.907318,197.582718 290.655243,202.906509 285.543884,208.362137 
	C283.288635,210.769287 280.468048,212.702484 277.799835,210.495148 
	C276.081268,209.073471 274.792786,205.429352 275.321716,203.274719 
	C278.358032,190.905548 280.989166,178.290359 285.607117,166.481857 
	C303.512573,120.696106 338.023895,92.909584 383.928650,77.997711 
	C385.646210,77.439758 387.326477,76.767036 389.342041,75.977036 
	C399.972565,73.739571 410.279724,71.644646 420.601440,69.624275 
	C423.497314,69.057442 426.436066,68.709877 429.737427,68.110298 
	C444.423431,67.309990 458.727203,66.661125 473.488647,66.083984 
	C463.252045,67.439972 452.512115,68.427704 441.871918,70.063904 
	C409.502502,75.041512 379.262573,85.518852 353.148834,105.943489 
	C325.858490,127.288383 309.451843,155.535934 301.291626,188.886368 
	C301.096680,189.683121 301.136505,190.537308 301.084503,191.785004 
z"/>
<path fill="#6BCB45" opacity="1.000000" stroke="none" 
	d="
M138.782898,65.101425 
	C138.312683,65.755219 137.499573,66.399544 136.369324,67.089996 
	C136.848114,66.454735 137.644058,65.773338 138.782898,65.101425 
z"/>
<path fill="#6BCB45" opacity="1.000000" stroke="none" 
	d="
M136.169861,447.172577 
	C136.987900,447.336517 137.918228,447.820496 138.992706,448.590271 
	C138.185287,448.414917 137.233719,447.953766 136.169861,447.172577 
z"/>
</svg>