<?xml version="1.0" encoding="UTF-8"?>
<svg version="1.1" xmlns="http://www.w3.org/2000/svg" width="512" height="512">
<path d="M0 0 C13.52580903 2.2543015 26.05231493 9.40535307 34.72265625 20.1171875 C37.02605999 23.5124187 38.6235012 27.14580335 40 31 C40.37640625 31.99902344 40.7528125 32.99804688 41.140625 34.02734375 C42.33881732 38.30120182 41.91394835 42.40740818 41.66796875 46.79711914 C41.06575417 58.50441563 41.86863921 65.96738728 49.8125 74.81640625 C50.534375 75.53699219 51.25625 76.25757813 52 77 C52.02578125 75.68386719 52.0515625 74.36773437 52.078125 73.01171875 C52.5253445 57.24347936 54.74714324 46.51976609 66.03125 34.91015625 C71.61584362 29.63919017 77.95882158 25.11884029 85 22 C88 23 88 23 89.31640625 25.484375 C94.2288712 38.35842108 97.61014217 52.18726936 92.68359375 65.578125 C86.75509902 78.28793737 78.28265058 87.14011091 66 94 C65.34 94 64.68 94 64 94 C70.60250987 105.04001838 77.21802248 116.06904799 84 127 C84.09796875 125.96101563 84.1959375 124.92203125 84.296875 123.8515625 C85.88361196 108.48604464 90.18742415 97.34621919 102.16015625 87.03125 C105.7169488 84.4871893 109.41398507 82.46903573 113.3125 80.5 C114.00649902 80.149375 114.70049805 79.79875 115.41552734 79.4375 C118.91436364 77.75139575 121.05043108 77 125 77 C129.57890981 92.92539071 131.53549744 108.30400513 123.875 123.625 C120.22762499 129.79662541 114.94537504 135.03641664 109 139 C108.40059343 141.21422114 108.40059343 141.21422114 108.26953125 143.7890625 C108.18896484 144.73007813 108.10839844 145.67109375 108.02539062 146.640625 C107.92000977 148.11789063 107.92000977 148.11789063 107.8125 149.625 C107.6897168 151.11386719 107.6897168 151.11386719 107.56445312 152.6328125 C107.36380331 155.08782205 107.17621345 157.54313526 107 160 C107.24508301 159.24807373 107.49016602 158.49614746 107.74267578 157.72143555 C111.96314177 145.00281487 118.64930851 136.23563902 130.5 129.8125 C137.69063616 126.37390091 145.2485211 124.67227337 153 123 C155.56055787 127.5050273 155.34466218 131.48833311 155.3125 136.5625 C155.30512817 137.91287354 155.30512817 137.91287354 155.29760742 139.29052734 C155.18100012 145.91741016 154.51882732 151.81465388 152 158 C151.6596875 158.85722656 151.319375 159.71445313 150.96875 160.59765625 C145.27915136 173.34158833 135.29025405 178.71601089 123 184 C120.03 184.99 117.06 185.98 114 187 C117.3 194.59 120.6 202.18 124 210 C124.53625 208.040625 125.0725 206.08125 125.625 204.0625 C129.58507976 191.37099439 137.51182049 182.24474442 149.29443359 175.9831543 C154.75030583 173.23921002 159.98901713 171.08197692 166 170 C170.48233563 182.88671494 171.60068111 199.64297449 166.37890625 212.43359375 C159.47867033 225.27624247 148.25438397 232.66748188 135 238 C135.19335938 238.68964844 135.38671875 239.37929688 135.5859375 240.08984375 C137.23238147 246.03171334 138.71485619 251.96970983 140 258 C140.66 258 141.32 258 142 258 C142.0825 256.845 142.165 255.69 142.25 254.5 C143.62800533 244.16496006 150.54370054 236.21474629 158.609375 229.984375 C165.22620865 225.58590177 173.85834831 220 182 220 C186.84337277 232.67196902 187.79594435 247.86763492 182.99609375 260.6796875 C177.35893752 272.92143271 167.37970623 281.01614628 155.09375 286.234375 C153.08875191 286.90693765 151.04743224 287.47049166 149 288 C150.98 294.93 150.98 294.93 153 302 C153.94875 300.535625 154.8975 299.07125 155.875 297.5625 C162.00156991 288.92683784 169.00502728 283.16430899 178.375 278.375 C179.0652124 278.01970215 179.7554248 277.6644043 180.46655273 277.29833984 C184.11841332 275.53611259 186.14168477 274.73437093 190 276 C194.11820107 291.18586646 197.01384385 306.1352891 189.55859375 320.84375 C183.36443884 331.30626687 173.69082047 340.10305984 162 344 C162.18175781 345.22847656 162.36351562 346.45695312 162.55078125 347.72265625 C166.11890347 372.45062872 168.60224652 396.99561655 168 422 C164.7 422 161.4 422 158 422 C157.93006836 420.94538574 157.86013672 419.89077148 157.78808594 418.80419922 C156.34910907 397.35618318 154.54273344 376.10154751 151.40917969 354.828125 C150.88774635 351.22413707 150.43420612 347.61543055 150 344 C148.93072266 344.23976563 148.93072266 344.23976563 147.83984375 344.484375 C133.74457689 347.04362565 119.0144943 343.5673382 107 336 C95.49501636 327.46968894 91.23044139 313.30882305 88 300 C88 299.34 88 298.68 88 298 C97.69385215 293.15307392 113.05807692 296.08836119 123 299 C131.4304252 302.40716818 137.95540526 307.43310789 143 315 C142.55342647 310.83198043 142.02531108 306.86286041 140.9375 302.8125 C140.14735445 299.59924141 139.91583739 297.24867686 140 294 C139.30777344 294.144375 138.61554688 294.28875 137.90234375 294.4375 C122.38009707 297.38243218 106.82712347 297.56981638 93.23828125 288.640625 C83.33255838 281.37988572 75.4431823 269.16501186 73 257 C73 255.68 73 254.36 73 253 C86.08170821 248.82753359 101.45802873 248.38691132 114.125 254.0625 C121.05890632 257.81509874 126.4717689 263.4717689 132 269 C129.69 261.74 127.38 254.48 125 247 C123.02 247.33 121.04 247.66 119 248 C104.77525445 249.00939028 89.68587039 249.34869631 78 240 C76.7934375 239.195625 76.7934375 239.195625 75.5625 238.375 C66.71047734 230.17068631 60.29392872 217.9613178 59 206 C70.40163963 200.81743653 86.29855418 201.51500751 97.97265625 205.578125 C103.16474408 208.01673142 107.59176678 211.3603365 112 215 C112 212.02251797 111.59808954 210.67046266 110.46875 207.98828125 C109.99501953 206.85229492 109.99501953 206.85229492 109.51171875 205.69335938 C109.01091797 204.51483398 109.01091797 204.51483398 108.5 203.3125 C108.16613281 202.51521484 107.83226562 201.71792969 107.48828125 200.89648438 C106.66358684 198.92899913 105.8324102 196.96423326 105 195 C104.31035156 195.19335938 103.62070313 195.38671875 102.91015625 195.5859375 C100.9361273 196.13292495 98.9593394 196.67001507 96.98046875 197.19921875 C95.26871522 197.65912632 93.56021983 198.13265764 91.86328125 198.64453125 C80.65250756 201.70601955 67.34236929 201.53196497 57 196 C54.09341671 194.2266694 51.54831685 192.2540782 49 190 C48.34386719 189.43667969 47.68773438 188.87335938 47.01171875 188.29296875 C40.72261333 182.49233754 33.49279982 173.66244405 32 165 C47.25010971 158.64780804 61.68444971 155.20214466 77.8046875 160.58203125 C83.12953184 162.9450123 87.46886372 166.39324853 92 170 C92.66 170.33 93.32 170.66 94 171 C90.04 163.41 86.08 155.82 82 148 C78.7 148.99 75.4 149.98 72 151 C58.56400519 154.29044771 45.66977935 155.83558542 33 149 C30.13609504 147.19834343 27.55616235 145.21391468 25 143 C24.40445313 142.48695313 23.80890625 141.97390625 23.1953125 141.4453125 C16.55713985 135.27918768 11.6113596 127.6748092 9 119 C21.93496879 111.92237557 36.68356851 109.45482919 51.23046875 112.7265625 C53.64967214 113.64923542 55.77703048 114.67720635 58 116 C58.78117187 116.45503906 59.56234375 116.91007812 60.3671875 117.37890625 C62.2807922 118.54097415 64.15040912 119.73938499 66 121 C62.44057735 114.03469843 58.47783796 107.56722874 53.89672852 101.24145508 C51 97.19969604 51 97.19969604 51 95 C50.44054687 95.37511719 49.88109375 95.75023437 49.3046875 96.13671875 C36.49787739 104.31084031 21.92267866 109.22575571 6.71484375 106.38671875 C-5.98831977 102.9497484 -16.97994724 94.42033707 -24.5 83.625 C-26 81 -26 81 -26 79 C-12.29932246 70.53721268 0.56493638 65.11053778 17 67 C24.552566 68.9667301 30.95931889 72.08316654 37 77 C33.97194053 70.77084909 30.34566785 67.21322026 24.25 64 C13.50278927 58.32778238 3.29112222 50.1348402 -0.8125 38.3125 C-4.71798019 25.36524143 -3.33165354 12.87049493 0 0 Z M53 78 C54 80 54 80 54 80 Z M114 217 C115 219 115 219 115 219 Z M144 316 C145 318 145 318 145 318 Z " fill="#CC903B" transform="translate(54,90)"/>
<path d="M0 0 C-0.63726642 14.8549001 -2.65375267 29.95908857 -13.15234375 41.34375 C-22.3890707 49.62360672 -33.40570925 54.38916166 -45.78515625 54.53125 C-46.51605469 54.6859375 -47.24695313 54.840625 -48 55 C-49.08827884 56.72431574 -49.08827884 56.72431574 -50 59 C-52.07232473 61.57640372 -54.20290292 64.07992223 -56.3671875 66.578125 C-58.65260174 69.25571091 -60.62273024 71.74463512 -62 75 C-61.01902344 74.83242187 -60.03804687 74.66484375 -59.02734375 74.4921875 C-46.04462411 72.46054672 -34.41776305 73.20717918 -22 78 C-23.57838996 91.17955615 -32.98604829 102.31485129 -43 110.4375 C-52.83484338 117.3728278 -66.39600917 118.4273051 -78.01074219 116.70117188 C-82.04379064 115.95365877 -86.02671735 115.01445514 -90 114 C-90.44472656 115.13501953 -90.44472656 115.13501953 -90.8984375 116.29296875 C-92.11457443 119.28156056 -93.53089137 122.12856041 -95 125 C-94.26394531 124.72285156 -93.52789062 124.44570312 -92.76953125 124.16015625 C-91.79371094 123.79792969 -90.81789063 123.43570313 -89.8125 123.0625 C-88.84957031 122.70285156 -87.88664063 122.34320313 -86.89453125 121.97265625 C-82.48406494 120.49059672 -78.45255635 119.87316931 -73.8046875 119.8671875 C-72.36029297 119.86525391 -72.36029297 119.86525391 -70.88671875 119.86328125 C-69.89285156 119.86714844 -68.89898437 119.87101562 -67.875 119.875 C-66.37259766 119.86919922 -66.37259766 119.86919922 -64.83984375 119.86328125 C-63.87949219 119.86457031 -62.91914063 119.86585937 -61.9296875 119.8671875 C-61.05554199 119.86831543 -60.18139648 119.86944336 -59.28076172 119.87060547 C-57 120 -57 120 -54 121 C-56.07328342 134.82188947 -60.8995908 148.54428069 -71.49609375 158.1640625 C-77.12600023 162.29207505 -83.23371857 165.30842964 -90 167 C-84.72 167.66 -79.44 168.32 -74 169 C-74.59609996 182.31289908 -79.59832078 193.97376671 -88.5625 203.8125 C-93.46980862 208.21649492 -98.05848104 211.18029609 -104 214 C-101.03 214.33 -98.06 214.66 -95 215 C-95.606079 230.12167111 -100.09712551 243.52239555 -110.40625 254.65625 C-114.47510263 258.33292406 -119.04248406 260.72046931 -124 263 C-122.19402344 262.98259766 -122.19402344 262.98259766 -120.3515625 262.96484375 C-118.77604321 262.95546566 -117.20052225 262.94636548 -115.625 262.9375 C-114.8309375 262.92912109 -114.036875 262.92074219 -113.21875 262.91210938 C-107.2265625 262.88671875 -107.2265625 262.88671875 -105 264 C-104.53178034 277.50900424 -109.51988811 290.92693351 -118.125 301.25 C-122.81819395 306.26768122 -127.83741518 309.03571869 -134 312 C-127.4 312 -120.8 312 -114 312 C-115.81260915 328.14869966 -119.61622813 343.79640434 -132.9375 354.4375 C-142.85429859 361.15845529 -152.5405147 363.13755268 -164.31640625 363.046875 C-165.56991882 363.04179932 -165.56991882 363.04179932 -166.84875488 363.03662109 C-168.89918741 363.02783039 -170.94959905 363.01438037 -173 363 C-179.51741574 407.6379686 -185.18599292 452.19812618 -186.65893555 497.32983398 C-186.83007668 502.29644644 -187.18274386 507.09646317 -188 512 C-191.3 512 -194.6 512 -198 512 C-199.330272 462.53358949 -192.36815729 412.8051576 -185 364 C-186.59328125 363.25556641 -186.59328125 363.25556641 -188.21875 362.49609375 C-200.726733 356.53420662 -212.51277797 349.38643403 -217.875 335.8125 C-221.80687042 322.48782802 -220.47102488 309.22295192 -217 296 C-203.58906089 297.88223707 -190.72107213 305.65982463 -182.5625 316.375 C-181.70006937 317.57744898 -180.84277192 318.7836918 -180 320 C-177.41222792 316.94419026 -177.41222792 316.94419026 -177 313 C-177.90621094 312.57589844 -178.81242187 312.15179688 -179.74609375 311.71484375 C-193.22901279 305.27930855 -203.13774145 298.25593008 -209.23828125 284.17578125 C-213.41657075 272.24087226 -212.02407927 256.78480358 -208 245 C-194.50706097 247.05824494 -182.59883549 254.66757214 -174.15625 265.328125 C-171.12868895 269.69137475 -169.03054998 274.11010413 -167 279 C-166.16247839 276.04283593 -165.33069969 273.084087 -164.5 270.125 C-164.26152344 269.28324219 -164.02304687 268.44148438 -163.77734375 267.57421875 C-163.55175781 266.76855469 -163.32617188 265.96289062 -163.09375 265.1328125 C-162.88427734 264.38918457 -162.67480469 263.64555664 -162.45898438 262.87939453 C-161.92091777 260.99862173 -161.92091777 260.99862173 -162 259 C-163.75120777 257.65144983 -163.75120777 257.65144983 -166 256.3125 C-174.1243036 251.03234036 -180.21800339 245.50289929 -185 237 C-185.41507812 236.29746094 -185.83015625 235.59492188 -186.2578125 234.87109375 C-191.92188788 223.48352962 -189.98339696 208.58686073 -186.15625 196.9140625 C-184.73410059 193.32986162 -183.13745097 190.20617645 -181 187 C-168.96150688 190.49504639 -158.24410191 200.44883108 -151.96484375 211.16796875 C-150.79580107 213.38772995 -149.81561095 215.6273136 -149 218 C-148.01 215.03 -147.02 212.06 -146 209 C-147.051875 208.29037109 -147.051875 208.29037109 -148.125 207.56640625 C-158.87400084 200.07423583 -168.1188508 191.28079864 -171 178 C-172.33520882 163.90425122 -170.73919339 150.59662315 -164 138 C-152.66678877 139.64809714 -142.96719113 149.41205871 -136.3359375 158.20703125 C-133.87898356 161.96430292 -132.1974871 165.64550147 -131 170 C-129.68 167.36 -128.36 164.72 -127 162 C-127.680625 161.79375 -128.36125 161.5875 -129.0625 161.375 C-140.35670238 156.08835208 -147.79014566 144.31059579 -152 133 C-155.77916089 121.27491109 -152.55877267 107.37794334 -147.3984375 96.6796875 C-145.9933437 94.07593548 -144.54464542 91.52292085 -143 89 C-135.9200863 89 -130.74951501 94.45728612 -125.71484375 99.11328125 C-117.97819025 107.26732646 -113.42819534 116.86992601 -112 128 C-111.34 128 -110.68 128 -110 128 C-108.53743341 125.2730819 -107.08071459 122.5430812 -105.625 119.8125 C-105.2125 119.04357422 -104.8 118.27464844 -104.375 117.48242188 C-102.37122281 113.7172599 -100.46489548 110.01638925 -99 106 C-100.010625 105.21625 -101.02125 104.4325 -102.0625 103.625 C-110.58230692 96.25837907 -117.49979911 85.28663421 -118.4453125 73.9140625 C-119.06969248 59.80403309 -114.65792257 48.31715675 -108 36 C-99.47679652 36.99821302 -92.87870334 44.63704362 -87.625 50.9375 C-82.1599845 58.16072745 -79.05373467 65.24850002 -77 74 C-76.31035156 73.11699219 -75.62070312 72.23398438 -74.91015625 71.32421875 C-74.45962891 70.74945801 -74.00910156 70.17469727 -73.54492188 69.58251953 C-72.54658246 68.30631555 -71.55185415 67.0272794 -70.56054688 65.74560547 C-68.25178518 62.77835892 -65.93930103 59.93497183 -63.37109375 57.18359375 C-57.27735934 50.60798248 -55.80893565 45.31644681 -54.58984375 36.73046875 C-53.83028162 31.92661554 -52.38356724 28.20180122 -50 24 C-49.24203125 22.62714844 -49.24203125 22.62714844 -48.46875 21.2265625 C-41.84351192 9.99377247 -32.3122026 4.07054138 -19.75 0.6875 C-13.2924286 -0.57568124 -6.5461589 -0.15524488 0 0 Z M-117 167 C-118.98 171.455 -118.98 171.455 -121 176 C-120.67 176.66 -120.34 177.32 -120 178 C-119.35675781 177.60167969 -118.71351563 177.20335937 -118.05078125 176.79296875 C-110.89500259 172.59749795 -104.14151824 170.47556928 -96 169 C-96 168.67 -96 168.34 -96 168 C-102.93 167.67 -109.86 167.34 -117 167 Z M-136 215 C-136.515625 216.258125 -137.03125 217.51625 -137.5625 218.8125 C-137.85253906 219.52019531 -138.14257812 220.22789062 -138.44140625 220.95703125 C-139.25063024 223.1735067 -139.25063024 223.1735067 -138 226 C-137.46632813 225.60167969 -136.93265625 225.20335937 -136.3828125 224.79296875 C-130.81015606 220.83040508 -125.64196333 218.58075954 -119 217 C-119 216.67 -119 216.34 -119 216 C-124.61 215.67 -130.22 215.34 -136 215 Z M-152 266 C-152.680625 268.0625 -153.36125 270.125 -154.0625 272.25 C-154.44535156 273.41015625 -154.82820313 274.5703125 -155.22265625 275.765625 C-155.95211763 278.80077085 -156.11889082 280.15703213 -155 283 C-154.64808594 282.48050781 -154.29617188 281.96101563 -153.93359375 281.42578125 C-148.74045448 274.09030254 -143.32093848 270.22648635 -135 267 C-135 266.67 -135 266.34 -135 266 C-140.61 266 -146.22 266 -152 266 Z M-156.875 314.5 C-157.56335938 314.54769531 -158.25171875 314.59539062 -158.9609375 314.64453125 C-160.64075349 314.76118514 -162.32039593 314.88033355 -164 315 C-164.69740804 317.76867997 -165.38322853 320.53936862 -166.0625 323.3125 C-166.26166016 324.09818359 -166.46082031 324.88386719 -166.66601562 325.69335938 C-166.84970703 326.45068359 -167.03339844 327.20800781 -167.22265625 327.98828125 C-167.39547119 328.68477783 -167.56828613 329.38127441 -167.74633789 330.09887695 C-168.17079069 332.21915866 -168.17079069 332.21915866 -167 335 C-166.5875 334.34773438 -166.175 333.69546875 -165.75 333.0234375 C-159.64487146 323.78397958 -153.23975485 319.02953316 -143 315 C-143 314.67 -143 314.34 -143 314 C-147.64539446 313.94211346 -152.24400734 314.1679327 -156.875 314.5 Z " fill="#BF760C" transform="translate(478,0)"/>
<path d="M0 0 C-1.35208967 3.00075879 -2.87560189 5.14318913 -5.16015625 7.50390625 C-5.78422363 8.15625244 -6.40829102 8.80859863 -7.05126953 9.48071289 C-7.71497559 10.16770264 -8.37868164 10.85469238 -9.0625 11.5625 C-14.17379356 16.93050589 -19.07003152 22.35550743 -23.69140625 28.15625 C-26.56690467 31.69831912 -29.56068028 35.12746311 -32.5625 38.5625 C-37.52870468 44.26170285 -42.3417866 50.04479385 -47 56 C-47.78117188 56.98484375 -48.56234375 57.9696875 -49.3671875 58.984375 C-60.24605864 72.71492901 -70.90626716 86.62840008 -81.1875 100.8125 C-81.7036084 101.52245117 -82.2197168 102.23240234 -82.75146484 102.96386719 C-86.03406916 107.52635123 -89.07915404 112.19820301 -92 117 C-91.31035156 116.17757812 -90.62070312 115.35515625 -89.91015625 114.5078125 C-84.80045493 108.43123787 -79.65170955 102.40769274 -74.30273438 96.53881836 C-72.86315713 94.95165087 -71.43110199 93.35758995 -70.01049805 91.75341797 C-64.51942662 85.56319911 -58.79501906 79.63967817 -52.93383789 73.8034668 C-51.43193075 72.30695075 -49.93548938 70.805117 -48.43945312 69.30273438 C-43.13162768 63.9908615 -37.72182949 58.8675046 -32 54 C-30.80824372 52.95500615 -29.61812074 51.90814648 -28.4296875 50.859375 C-22.14561684 45.35077054 -15.80350958 39.93682725 -9.25 34.75 C-8.37384033 34.05148926 -8.37384033 34.05148926 -7.47998047 33.33886719 C-4.989655 31.39106902 -3.02525442 30.00841814 0 29 C-1.31731577 31.94645992 -2.6996069 33.87836004 -5.0625 36.0625 C-8.03462161 38.94270032 -10.65940473 41.95972061 -13.25 45.1875 C-16.53325711 49.2692363 -19.93291107 53.16962299 -23.5 57 C-28.58404762 62.4772163 -33.32075888 68.17543738 -38 74 C-38.98454515 75.20535254 -39.97029514 76.40972163 -40.95703125 77.61328125 C-49.1438395 87.61071827 -57.1153699 97.76312877 -65 108 C-65.65967773 108.85319824 -66.31935547 109.70639648 -66.99902344 110.58544922 C-74.67494375 120.52038741 -82.20271952 130.49965568 -89.22265625 140.91015625 C-91.83794234 144.78674217 -94.53509321 148.60232198 -97.23754883 152.41845703 C-103.83766759 161.75486583 -110.08628298 171.21688901 -116 181 C-116.85295654 182.40258057 -116.85295654 182.40258057 -117.72314453 183.83349609 C-125.34468391 196.37459123 -132.87082479 208.95294025 -139.84375 221.86816406 C-141.00628598 224.01158977 -142.18991426 226.14241323 -143.375 228.2734375 C-152.62230774 245.13256334 -160.25225709 263.00601892 -167 281 C-176.9 281 -186.8 281 -197 281 C-195.66631018 274.99839581 -194.47711345 270.17829299 -192.27734375 264.60546875 C-192.01618774 263.94005569 -191.75503174 263.27464264 -191.48596191 262.58906555 C-190.64411605 260.45209015 -189.79168621 258.31956984 -188.9375 256.1875 C-188.49907272 255.08510986 -188.49907272 255.08510986 -188.05178833 253.96044922 C-183.3545133 242.15283517 -178.42671832 230.49292631 -173 219 C-172.55865723 218.05318359 -172.11731445 217.10636719 -171.66259766 216.13085938 C-157.17575019 185.08122949 -140.48893825 155.20109857 -121 127 C-120.51466797 126.29472168 -120.02933594 125.58944336 -119.52929688 124.86279297 C-98.71932131 94.7102625 -75.09969074 67.04667722 -49.25 41.125 C-48.70629761 40.57861877 -48.16259521 40.03223755 -47.60241699 39.46929932 C-41.5835796 33.42799849 -35.52542919 27.49984678 -29 22 C-27.95541065 21.09932761 -26.91112359 20.19830447 -25.8671875 19.296875 C-20.0874725 14.37732646 -14.25481392 9.53488911 -8.3125 4.8125 C-7.71228027 4.33071289 -7.11206055 3.84892578 -6.49365234 3.35253906 C-2.23605054 0 -2.23605054 0 0 0 Z M-95 119 C-94 121 -94 121 -94 121 Z " fill="#D89217" transform="translate(498,231)"/>
<path d="M0 0 C0.46821966 13.50900424 -4.51988811 26.92693351 -13.125 37.25 C-17.81819395 42.26768122 -22.83741518 45.03571869 -29 48 C-22.4 48 -15.8 48 -9 48 C-10.81260915 64.14869966 -14.61622813 79.79640434 -27.9375 90.4375 C-37.85429859 97.15845529 -47.5405147 99.13755268 -59.31640625 99.046875 C-60.1520813 99.04349121 -60.98775635 99.04010742 -61.84875488 99.03662109 C-63.89918741 99.02783039 -65.94959905 99.01438037 -68 99 C-74.51741574 143.6379686 -80.18599292 188.19812618 -81.65893555 233.32983398 C-81.83007668 238.29644644 -82.18274386 243.09646317 -83 248 C-86.3 248 -89.6 248 -93 248 C-94.330272 198.53358949 -87.36815729 148.8051576 -80 100 C-81.0621875 99.50371094 -82.124375 99.00742187 -83.21875 98.49609375 C-95.726733 92.53420662 -107.51277797 85.38643403 -112.875 71.8125 C-116.80687042 58.48782802 -115.47102488 45.22295192 -112 32 C-98.58906089 33.88223707 -85.72107213 41.65982463 -77.5625 52.375 C-76.70006937 53.57744898 -75.84277192 54.7836918 -75 56 C-68.80645206 47.96777816 -64.2555879 38.86177059 -59.625 29.875 C-59.07972656 28.823125 -58.53445313 27.77125 -57.97265625 26.6875 C-56.64557392 24.12646393 -55.32141305 21.56396447 -54 19 C-53.01 19 -52.02 19 -51 19 C-49.32818374 17.16806665 -49.32818374 17.16806665 -47.75 14.8125 C-40.42432312 5.14079024 -29.7158913 0.96300584 -17.8125 -0.8125 C-3.07462687 -1.53731343 -3.07462687 -1.53731343 0 0 Z M-51.875 50.5 C-52.56335938 50.54769531 -53.25171875 50.59539062 -53.9609375 50.64453125 C-55.64075349 50.76118514 -57.32039593 50.88033355 -59 51 C-59.69740804 53.76867997 -60.38322853 56.53936862 -61.0625 59.3125 C-61.26166016 60.09818359 -61.46082031 60.88386719 -61.66601562 61.69335938 C-61.84970703 62.45068359 -62.03339844 63.20800781 -62.22265625 63.98828125 C-62.39547119 64.68477783 -62.56828613 65.38127441 -62.74633789 66.09887695 C-63.17079069 68.21915866 -63.17079069 68.21915866 -62 71 C-61.5875 70.34773438 -61.175 69.69546875 -60.75 69.0234375 C-54.64487146 59.78397958 -48.23975485 55.02953316 -38 51 C-38 50.67 -38 50.34 -38 50 C-42.64539446 49.94211346 -47.24400734 50.1679327 -51.875 50.5 Z " fill="#AC6A0A" transform="translate(373,264)"/>
<path d="M0 0 C4.91603882 2.64947318 9.06542906 5.5061945 13.25 9.1875 C14.39502977 10.17801301 15.54087452 11.16758463 16.6875 12.15625 C17.24953125 12.64222656 17.8115625 13.12820313 18.390625 13.62890625 C20.63226636 15.53865411 22.94240995 17.35831277 25.25 19.1875 C37.24271986 28.98558669 48.16589397 40.08124839 59.125 51 C60.00140137 51.87172852 60.87780273 52.74345703 61.78076172 53.64160156 C66.72746304 58.60066726 71.45835011 63.66880611 76 69 C76.96150198 70.10611035 77.92371234 71.21160544 78.88671875 72.31640625 C104.22382651 101.60824776 126.74828158 133.38365193 146 167 C146.61198242 168.06275146 146.61198242 168.06275146 147.23632812 169.14697266 C152.87373408 178.98076226 158.14293964 189.00903419 163.375 199.0625 C163.97038574 200.20468994 164.56577148 201.34687988 165.17919922 202.52368164 C174 219.57781436 174 219.57781436 174 223 C164.46788878 224.69595045 154.35403187 226.12144882 145 223 C137.9525715 217.04886629 134.42471622 207.84667306 130.69580078 199.59082031 C128.22212682 194.35287091 125.17920423 189.58157137 122 184.75 C121.43490723 183.86908691 120.86981445 182.98817383 120.28759766 182.08056641 C113.48910087 171.51734176 106.26952348 161.24230975 99 151 C98.15139404 149.80165527 98.15139404 149.80165527 97.28564453 148.57910156 C88.47682753 136.16896286 79.29566467 124.04845807 70 112 C69.48695312 111.33484375 68.97390625 110.6696875 68.4453125 109.984375 C57.36925656 95.66505406 45.77151946 81.75101688 34 68 C33.49114258 67.40477539 32.98228516 66.80955078 32.45800781 66.19628906 C24.82652676 57.2843893 17.01735569 48.56629176 9 40 C9.99 39.505 9.99 39.505 11 39 C22.58987863 47.74457291 33.72332937 56.91425156 44.45849609 66.69384766 C46.06479845 68.15140117 47.67760651 69.60184524 49.29931641 71.04223633 C55.46449918 76.52317675 61.36862494 82.21678923 67.1875 88.0625 C68.03763672 88.90876953 68.88777344 89.75503906 69.76367188 90.62695312 C74.71563115 95.58656022 79.47000017 100.65144906 84 106 C82.74026077 103.34448995 81.37832918 101.01106647 79.6015625 98.671875 C79.1286377 98.04547119 78.65571289 97.41906738 78.16845703 96.77368164 C77.65911621 96.1058667 77.14977539 95.43805176 76.625 94.75 C75.53101975 93.30616401 74.43727617 91.86214868 73.34375 90.41796875 C72.78558594 89.68239746 72.22742188 88.94682617 71.65234375 88.18896484 C70.09908272 86.13126118 68.56173915 84.06295572 67.03125 81.98828125 C60.1499586 72.67829876 52.91335244 63.71878876 45.50683594 54.82275391 C43.59642505 52.51181294 41.73199701 50.16649414 39.875 47.8125 C35.2629521 42.01309509 30.4057822 36.42657053 25.56445312 30.81884766 C24.03027536 29.03519841 22.50573416 27.24380767 20.984375 25.44921875 C15.36791773 18.83558368 9.65888854 12.35407371 3.65625 6.08569336 C0 2.21382781 0 2.21382781 0 0 Z M87 109 C87.33 109.99 87.66 110.98 88 112 C88 111.01 88 110.02 88 109 C87.67 109 87.34 109 87 109 Z " fill="#F2B547" transform="translate(14,289)"/>
<path d="M0 0 C0.66 0 1.32 0 2 0 C0.68268423 2.94645992 -0.6996069 4.87836004 -3.0625 7.0625 C-6.03462161 9.94270032 -8.65940473 12.95972061 -11.25 16.1875 C-14.53325711 20.2692363 -17.93291107 24.16962299 -21.5 28 C-26.58404762 33.4772163 -31.32075888 39.17543738 -36 45 C-36.98454515 46.20535254 -37.97029514 47.40972163 -38.95703125 48.61328125 C-47.1438395 58.61071827 -55.1153699 68.76312877 -63 79 C-63.65967773 79.85319824 -64.31935547 80.70639648 -64.99902344 81.58544922 C-72.67494375 91.52038741 -80.20271952 101.49965568 -87.22265625 111.91015625 C-89.83794234 115.78674217 -92.53509321 119.60232198 -95.23754883 123.41845703 C-101.83766759 132.75486583 -108.08628298 142.21688901 -114 152 C-114.85295654 153.40258057 -114.85295654 153.40258057 -115.72314453 154.83349609 C-123.34468391 167.37459123 -130.87082479 179.95294025 -137.84375 192.86816406 C-139.00628598 195.01158977 -140.18991426 197.14241323 -141.375 199.2734375 C-150.62230774 216.13256334 -158.25225709 234.00601892 -165 252 C-171.27 252 -177.54 252 -184 252 C-173.61618105 220.84854314 -157.56447838 190.657362 -140.57617188 162.61865234 C-139.09162403 160.15222419 -137.64150235 157.66934483 -136.203125 155.17578125 C-123.68437561 133.62176056 -109.48661249 112.53906745 -94 93 C-92.86304688 91.56527344 -92.86304688 91.56527344 -91.703125 90.1015625 C-89.49913472 87.37392914 -87.2598853 84.68147735 -85 82 C-84.56252441 81.47760742 -84.12504883 80.95521484 -83.67431641 80.41699219 C-72.43170696 67.01339455 -60.47076808 54.3910341 -48.125 42 C-46.80544312 40.67343384 -46.80544312 40.67343384 -45.45922852 39.32006836 C-40.46580417 34.33894658 -35.3612571 29.58054593 -30 25 C-28.80845078 23.95477005 -27.61832156 22.90791888 -26.4296875 21.859375 C-19.00378772 15.35165399 -11.44507644 9.08580295 -3.6328125 3.046875 C-1.20693709 1.24834996 -1.20693709 1.24834996 0 0 Z " fill="#DCB909" transform="translate(496,260)"/>
<path d="M0 0 C5.0133131 1.55884208 8.47717275 4.56811001 12.4375 7.875 C13.14124756 8.45580322 13.84499512 9.03660645 14.57006836 9.63500977 C16.72017213 11.41536432 18.8612489 13.20603119 21 15 C21.61649414 15.51449707 22.23298828 16.02899414 22.86816406 16.55908203 C35.64032428 27.24260177 47.70302579 38.62885396 59.5 50.375 C60.2415332 51.11186035 60.98306641 51.8487207 61.74707031 52.60791016 C65.80315273 56.67591684 69.68285423 60.83920623 73.43212891 65.19140625 C75.53967008 67.62252818 77.74065023 69.96212662 79.9375 72.3125 C83.9571854 76.72020933 87.5170969 81.27644052 90.95703125 86.14453125 C93.12790068 89.17876749 95.39447987 92.1196062 97.6875 95.0625 C119.12830662 122.81208906 139.63127996 152.41892074 155 184 C148.55341547 185.70273917 142.25957388 186.88930951 136 184 C130.13136633 177.99859759 126.54361989 169.92140693 122.80355835 162.47517395 C119.88579507 156.66706697 116.54107914 151.20020888 113 145.75 C112.43571289 144.86908691 111.87142578 143.98817383 111.29003906 143.08056641 C104.48436419 132.52116661 97.2699794 122.24295212 90 112 C89.4342627 111.20110352 88.86852539 110.40220703 88.28564453 109.57910156 C79.47682753 97.16896286 70.29566467 85.04845807 61 73 C60.48695312 72.33484375 59.97390625 71.6696875 59.4453125 70.984375 C48.36925656 56.66505406 36.77151946 42.75101688 25 29 C24.49114258 28.40477539 23.98228516 27.80955078 23.45800781 27.19628906 C16.98697947 19.63954411 10.43137516 12.18695556 3.60571289 4.94726562 C0 1.10215152 0 1.10215152 0 0 Z " fill="#F6D63B" transform="translate(23,328)"/>
<path d="M0 0 C4.57890981 15.92539071 6.53549744 31.30400513 -1.125 46.625 C-4.77237501 52.79662541 -10.05462496 58.03641664 -16 62 C-16.69925131 65.09444648 -16.69925131 65.09444648 -16.94921875 68.7578125 C-17.01156204 69.42086395 -17.07390533 70.08391541 -17.13813782 70.76705933 C-17.33429897 72.88542515 -17.51110546 75.00490568 -17.6875 77.125 C-17.81708851 78.56131314 -17.94793255 79.99751361 -18.08007812 81.43359375 C-18.40129845 84.95453801 -18.70518334 88.4767355 -19 92 C-21.94583579 89.43727234 -23.44530523 86.53614744 -25.21484375 83.08203125 C-25.81876953 81.90962891 -26.42269531 80.73722656 -27.04492188 79.52929688 C-27.6758783 78.29041401 -28.306737 77.05148136 -28.9375 75.8125 C-29.56393756 74.59283402 -30.1908859 73.37343024 -30.81835938 72.15429688 C-32.02326095 69.811785 -33.21780002 67.46488347 -34.4074707 65.11450195 C-35.35231198 63.26668037 -36.31540305 61.42771447 -37.31713867 59.61010742 C-41.7869582 51.3937176 -40.98976361 42.02174958 -38.8125 33.125 C-34.25124487 18.9157444 -25.0590613 10.56072807 -12.234375 3.62890625 C-7.81890079 1.40517105 -4.98977653 0 0 0 Z " fill="#F1B448" transform="translate(179,167)"/>
<path d="M0 0 C7.74637161 6.70925409 11.52586038 14.65768252 15.36328125 24.046875 C15.36328125 24.706875 15.36328125 25.366875 15.36328125 26.046875 C13.15716559 26.86585766 10.94869785 27.67715043 8.73828125 28.484375 C7.50851563 28.93683594 6.27875 29.38929688 5.01171875 29.85546875 C-5.91588002 33.42390304 -19.60214442 33.92000681 -30.28515625 29.3046875 C-34.11294461 27.25726582 -37.38805172 24.92043821 -40.63671875 22.046875 C-41.29285156 21.48355469 -41.94898437 20.92023438 -42.625 20.33984375 C-48.91410542 14.53921254 -56.14391893 5.70931905 -57.63671875 -2.953125 C-37.79420816 -11.2182089 -17.9719142 -14.25269028 0 0 Z " fill="#F2B448" transform="translate(143.63671875,257.953125)"/>
<path d="M0 0 C5.78642395 4.46745967 10.75073862 9.99149219 14.25 16.4375 C14.17173625 19.03861891 13.75389889 19.95102701 11.89453125 21.74609375 C-0.377139 29.30795452 -14.69795446 33.50072372 -29.03515625 30.82421875 C-41.73831977 27.3872484 -52.72994724 18.85783707 -60.25 8.0625 C-61.75 5.4375 -61.75 5.4375 -61.75 3.4375 C-41.27179391 -9.21170676 -21.34164164 -14.17842766 0 0 Z " fill="#F2B448" transform="translate(89.75,165.5625)"/>
<path d="M0 0 C13.52580903 2.2543015 26.05231493 9.40535307 34.72265625 20.1171875 C40.55070688 28.70776977 42.34891494 38.17881712 42.3125 48.375 C42.32861328 49.26960938 42.34472656 50.16421875 42.36132812 51.0859375 C42.36580273 57.24299002 41.30760555 62.29515904 39 68 C25.27851825 66.80682767 13.87671204 59.21695959 5 49 C-3.05141509 39.00369763 -3.98191147 26.39977946 -3 14 C-2.28388042 9.27020067 -1.1983109 4.62918914 0 0 Z " fill="#F2B448" transform="translate(54,90)"/>
<path d="M0 0 C-0.63726642 14.8549001 -2.65375267 29.95908857 -13.15234375 41.34375 C-23.2646509 50.40848199 -35.83227277 55.18848343 -49.3125 55.0625 C-50.56675781 55.05347656 -51.82101562 55.04445312 -53.11328125 55.03515625 C-54.06589844 55.02355469 -55.01851563 55.01195312 -56 55 C-56.67199383 39.56903053 -53.40315614 26.09262262 -43.72265625 13.8125 C-31.95821098 1.43448956 -16.07085577 -0.38112701 0 0 Z " fill="#DCB909" transform="translate(478,0)"/>
<path d="M0 0 C7.76200619 7.38642525 12.01478352 16.53249495 14 27 C14.02626226 28.66645974 14.03149495 30.33363094 14 32 C-0.59723148 35.39893956 -15.95197505 35.77535592 -29.3125 28.25 C-40.54663889 20.8680778 -47.64613706 9.64928469 -51.625 -3.1328125 C-52 -5 -52 -5 -52 -9 C-34.03470276 -14.7336055 -14.18676317 -13.11200839 0 0 Z " fill="#F2B448" transform="translate(179,352)"/>
<path d="M0 0 C0.78503906 0.44730469 1.57007813 0.89460937 2.37890625 1.35546875 C13.11128404 7.95048838 18.41372355 18.03848421 24 29 C24 29.66 24 30.32 24 31 C9.78149644 37.09696879 -5.23494635 40.82249285 -20.3125 35.3125 C-25.07520976 33.17005127 -29.06192648 30.41080007 -33 27 C-33.59554687 26.48695313 -34.19109375 25.97390625 -34.8046875 25.4453125 C-41.44286015 19.27918768 -46.3886404 11.6748092 -49 3 C-34.9082758 -4.71056607 -14.58472803 -8.77256454 0 0 Z " fill="#F6D63B" transform="translate(112,206)"/>
<path d="M0 0 C6.17071031 11.64561353 8.81079943 26.05512911 6 39 C0.22845191 54.68764999 -9.99335931 63.75142355 -24 72 C-26.95737646 69.1468264 -29.6007554 66.44746765 -31.75 62.9375 C-32.15734375 62.28652344 -32.5646875 61.63554687 -32.984375 60.96484375 C-37.28819863 52.63860034 -35.99872287 39.40874613 -34.3515625 30.48828125 C-29.68293197 16.50234106 -17.83224869 7.37382126 -5.6015625 0.15234375 C-3 -1 -3 -1 0 0 Z " fill="#F6D63B" transform="translate(142,113)"/>
<path d="M0 0 C0.91330078 0.00902344 1.82660156 0.01804687 2.76757812 0.02734375 C4.99117319 0.05062747 7.21418677 0.0833229 9.4375 0.125 C7.86335857 15.5844785 4.12272521 29.95657535 -7.5390625 40.99609375 C-20.26766994 51.16376623 -34.02247592 51.42674804 -49.5625 51.125 C-48.81519402 35.38003606 -46.69479238 21.57111636 -34.8125 10.25 C-24.6051233 2.01697082 -12.7593134 -0.24339116 0 0 Z " fill="#DCB909" transform="translate(354.5625,311.875)"/>
<path d="M0 0 C0.46782227 13.49753882 -4.53137462 26.88637657 -13.0625 37.25 C-22.24660339 46.90391726 -35.10961388 50.80779033 -48.22265625 51.17578125 C-51.81848635 51.21339891 -55.40637253 51.13589348 -59 51 C-57.97811487 36.55787388 -55.11624732 20.12764825 -44 10 C-43.23816406 9.24783203 -43.23816406 9.24783203 -42.4609375 8.48046875 C-33.60381094 0.96326646 -10.70890012 -5.35445006 0 0 Z " fill="#D89217" transform="translate(373,264)"/>
<path d="M0 0 C9.62727562 9.03115949 12.97096462 18.10627163 15 31 C15.04860057 33.33282713 15.06247759 35.66750327 15 38 C0.24701693 41.308083 -15.30278161 37.99735248 -28 30 C-39.50498364 21.46968894 -43.76955861 7.30882305 -47 -6 C-47 -6.66 -47 -7.32 -47 -8 C-33.28246968 -14.85876516 -11.52403194 -8.74363059 0 0 Z " fill="#F6D63B" transform="translate(189,396)"/>
<path d="M0 0 C2.56055787 4.5050273 2.34466218 8.48833311 2.3125 13.5625 C2.30512817 14.91287354 2.30512817 14.91287354 2.29760742 16.29052734 C2.18100012 22.91741016 1.51882732 28.81465388 -1 35 C-1.3403125 35.85722656 -1.680625 36.71445313 -2.03125 37.59765625 C-8.13336211 51.26556277 -19.82107602 57.07348633 -33.1796875 62.2265625 C-35.93526415 62.98224696 -38.16009725 63.1670531 -41 63 C-49.42186972 47.10076931 -49.42186972 47.10076931 -46.8125 37.625 C-42.70076588 24.31336217 -36.10255879 14.36848839 -23.953125 7.41796875 C-16.40744201 3.79484319 -8.28693111 1.18203158 0 0 Z " fill="#F4CD0A" transform="translate(207,213)"/>
<path d="M0 0 C7.86155906 6.24601436 11.30552947 13.42864333 15 22.5625 C15.31936523 23.34351074 15.63873047 24.12452148 15.96777344 24.92919922 C17.55461495 29.06689291 18.61120071 31.93763924 17.0625 36.3125 C3.1711654 39.37939798 -14.12243272 39.07099239 -26.4375 31.3125 C-27.2625 30.6525 -28.0875 29.9925 -28.9375 29.3125 C-29.741875 28.77625 -30.54625 28.24 -31.375 27.6875 C-40.22702266 19.48318631 -46.64357128 7.2738178 -47.9375 -4.6875 C-33.17463574 -11.39789284 -13.14472326 -8.86340021 0 0 Z " fill="#F5D63A" transform="translate(160.9375,300.6875)"/>
<path d="M0 0 C4.84337277 12.67196902 5.79594435 27.86763492 0.99609375 40.6796875 C-5.27344953 54.29473528 -17.25023116 62.76120586 -31 68 C-31.99 68 -32.98 68 -34 68 C-35.2174236 64.05025714 -36.39326862 60.08925115 -37.5625 56.125 C-37.90474609 55.01640625 -38.24699219 53.9078125 -38.59960938 52.765625 C-41.41481871 43.09722931 -41.71961375 35.31134627 -37.22265625 26.15625 C-30.35502023 14.04463632 -14.83333596 0 0 0 Z " fill="#F3CC0A" transform="translate(236,310)"/>
<path d="M0 0 C10.98489925 3.80018136 20.16413136 13.86394512 25.56640625 23.9140625 C29.29413038 32.13417212 31.56709315 40.2008366 28.625 49 C27.78996788 51.01701422 26.90651207 53.01408438 26 55 C25.65517578 55.76602539 25.31035156 56.53205078 24.95507812 57.32128906 C23.77585847 59.9292934 22.58002406 62.52882172 21.375 65.125 C20.97877441 65.97964844 20.58254883 66.83429688 20.17431641 67.71484375 C19.79452637 68.51277344 19.41473633 69.31070313 19.0234375 70.1328125 C18.51176025 71.21393311 18.51176025 71.21393311 17.98974609 72.31689453 C17 74 17 74 15 75 C10.31440031 71.61660171 5.94688564 68.25049222 2 64 C1.44441406 63.43796875 0.88882812 62.8759375 0.31640625 62.296875 C-8.50064982 52.96786084 -11.52089834 42.67259819 -11.27734375 30.0859375 C-10.80968691 20.25351061 -7.17622086 7.17622086 0 0 Z " fill="#EEA21A" transform="translate(336,88)"/>
<path d="M0 0 C4.48233563 12.88671494 5.60068111 29.64297449 0.37890625 42.43359375 C-6.38218783 55.01727309 -17.74153121 63.13622309 -31 68 C-31.66 68 -32.32 68 -33 68 C-34.36184532 64.71943776 -35.68389698 61.42415014 -37 58.125 C-37.3815625 57.2071875 -37.763125 56.289375 -38.15625 55.34375 C-42.04010339 45.49540748 -42.13048419 36.80008416 -38 27 C-31.07270794 13.46548879 -18.58712648 5.82591656 -4.703125 0.80859375 C-2 0 -2 0 0 0 Z " fill="#EFA21A" transform="translate(220,260)"/>
<path d="M0 0 C-0.32841111 13.22601092 -5.71384117 25.10055738 -14.5625 34.8125 C-25.40304649 44.54119557 -35.5056062 47.3801957 -49.9375 47.1875 C-50.88173828 47.18685547 -51.82597656 47.18621094 -52.79882812 47.18554688 C-59.71805883 47.14097059 -59.71805883 47.14097059 -62 46 C-61.08134723 39.38619035 -58.6760705 33.65912297 -56.1875 27.5 C-55.52911133 25.82744141 -55.52911133 25.82744141 -54.85742188 24.12109375 C-50.99742776 14.49691822 -47.64569035 7.68467362 -38 3 C-25.58179954 -1.38767388 -13.00378558 -2.46071635 0 0 Z " fill="#D89218" transform="translate(404,169)"/>
<path d="M0 0 C13.55916716 2.06834753 25.22577419 9.70444382 33.84375 20.2578125 C38.55617937 26.88755382 41.71003806 33.13216335 40.4375 41.375 C39.98052333 43.58803166 39.49750882 45.79572647 39 48 C38.65216834 49.66348372 38.30733305 51.32759565 37.96484375 52.9921875 C36.99931571 57.66650721 36.00541274 62.33410397 35 67 C30.55290913 68.41555795 28.45429324 67.11418269 24.3125 65 C11.82559771 58.54097798 2.74577591 50.55588297 -2 37 C-5.13757131 25.44708841 -3.82391037 11.19859467 0 0 Z " fill="#F3CC0A" transform="translate(270,245)"/>
<path d="M0 0 C-0.59730577 14.90277901 -4.99550009 28.60899678 -15.234375 39.59375 C-22.13202385 45.59509419 -29.98936311 48.73042149 -39 50 C-39.33 50.66 -39.66 51.32 -40 52 C-51.52164009 52.18451025 -51.52164009 52.18451025 -57 51 C-56.33199064 44.04662989 -54.19611455 37.5851096 -52.125 30.9375 C-51.77308594 29.77927734 -51.42117188 28.62105469 -51.05859375 27.42773438 C-50.71183594 26.30560547 -50.36507813 25.18347656 -50.0078125 24.02734375 C-49.69473145 23.01406006 -49.38165039 22.00077637 -49.05908203 20.95678711 C-46.33476667 13.3509357 -42.96306264 8.67518985 -35.84765625 4.83984375 C-24.30122788 -0.21291942 -12.42519846 -1.73910872 0 0 Z " fill="#DCB909" transform="translate(383,215)"/>
<path d="M0 0 C1.44439453 -0.00193359 1.44439453 -0.00193359 2.91796875 -0.00390625 C3.91183594 -0.00003906 4.90570313 0.00382812 5.9296875 0.0078125 C7.43208984 0.00201172 7.43208984 0.00201172 8.96484375 -0.00390625 C9.92519531 -0.00261719 10.88554687 -0.00132813 11.875 0 C12.74914551 0.00112793 13.62329102 0.00225586 14.52392578 0.00341797 C16.8046875 0.1328125 16.8046875 0.1328125 19.8046875 1.1328125 C17.73374843 14.93907294 12.9132064 28.72073425 2.2890625 38.30078125 C-10.43993451 47.68741584 -22.96874664 48.79018432 -38.1953125 48.1328125 C-39.87103123 47.84846126 -41.54486977 47.53892538 -43.1953125 47.1328125 C-40.85483572 39.29513049 -37.45179796 32.23009947 -33.7578125 24.9453125 C-33.18482422 23.79611328 -32.61183594 22.64691406 -32.02148438 21.46289062 C-30.44680076 18.3334561 -28.83909547 15.22643217 -27.1953125 12.1328125 C-26.84057861 11.46080811 -26.48584473 10.78880371 -26.12036133 10.09643555 C-23.75594635 6.0699377 -21.09139395 4.8182788 -16.7578125 3.3203125 C-15.64535156 2.92199219 -14.53289062 2.52367188 -13.38671875 2.11328125 C-8.8505679 0.71967799 -4.74681754 0.00610916 0 0 Z " fill="#DCB909" transform="translate(404.1953125,119.8671875)"/>
<path d="M0 0 C12.22067854 1.71518295 25.32451879 8.68161634 32.9296875 18.48828125 C38.80250971 26.63711689 40.12269916 32.44019174 38.63525391 42.45605469 C37.16505954 51.07098747 35.53814807 59.63097122 33 68 C18.32228173 62.69103807 6.83286694 55.44345856 0 41 C-5.87092372 28.37751401 -3.40280859 12.96308033 0 0 Z " fill="#EFA21A" transform="translate(261,296)"/>
<path d="M0 0 C-1.57838996 13.17955615 -10.98604829 24.31485129 -21 32.4375 C-30.61004931 39.21430768 -42.63523516 39.7066175 -54 39 C-58.40206379 38.22183456 -62.69531674 37.20130696 -67 36 C-66.38209263 33.03806556 -65.44582521 30.78410082 -63.8828125 28.19921875 C-63.22792847 27.11459351 -63.22792847 27.11459351 -62.55981445 26.00805664 C-58.28688687 19.09735787 -53.97073813 12.22174223 -49.3125 5.5625 C-48.89822754 4.94270264 -48.48395508 4.32290527 -48.05712891 3.68432617 C-44.21519271 -1.64555772 -39.83750085 -3.0580105 -33.62890625 -4.58203125 C-22.45145553 -5.82866564 -10.41684674 -4.1667387 0 0 Z " fill="#D89117" transform="translate(456,78)"/>
<path d="M0 0 C4.11820107 15.18586646 7.01384385 30.1352891 -0.44140625 44.84375 C-6.29333078 54.72820721 -15.93819273 64.391064 -27.29296875 67.66015625 C-28.13794922 67.82837891 -28.13794922 67.82837891 -29 68 C-32.09552868 62.67796569 -32.65304946 56.38510902 -33.76928711 50.41088867 C-34.18459254 48.20295723 -34.61810054 45.99911874 -35.05273438 43.79492188 C-35.32143643 42.37781682 -35.58904987 40.96050482 -35.85546875 39.54296875 C-36.09934326 38.26446045 -36.34321777 36.98595215 -36.59448242 35.66870117 C-37.37616118 28.59688498 -35.96684122 23.95713407 -31.90234375 18.32421875 C-26.14156989 11.28590161 -19.66912664 6.48261977 -11.625 2.375 C-10.58980225 1.84217407 -10.58980225 1.84217407 -9.53369141 1.29858398 C-5.8818172 -0.46388113 -3.85842229 -1.26566419 0 0 Z " fill="#EEA21A" transform="translate(244,366)"/>
<path d="M0 0 C11.99522422 3.48248445 22.85086907 13.44619113 29.03125 24.19921875 C29.3509375 24.79347656 29.670625 25.38773438 30 26 C30.45375 26.825 30.9075 27.65 31.375 28.5 C33.00665484 35.02661937 30.24998663 41.9534054 28.1875 48.125 C27.64557507 49.78985749 27.10522456 51.45522824 26.56640625 53.12109375 C26.30102051 53.9394873 26.03563477 54.75788086 25.76220703 55.60107422 C24.0381771 61.02718508 22.52135657 66.5141672 21 72 C9.89440578 68.88521513 1.38402655 59.56144028 -4.27734375 49.796875 C-10.00503008 38.78993329 -9.47727121 25.02004796 -6.25 13.25 C-4.67065247 8.43299005 -2.80988743 4.21483114 0 0 Z " fill="#EFA21A" transform="translate(297,187)"/>
<path d="M0 0 C11.33321123 1.64809714 21.03280887 11.41205871 27.6640625 20.20703125 C31.41997101 25.95071591 33.4477514 30.72980436 32.48144531 37.71240234 C31.59017655 41.94728486 29.87058335 45.840241 28.1875 49.8125 C27.46096683 51.57369425 26.73569677 53.33541011 26.01171875 55.09765625 C25.66415527 55.93828613 25.3165918 56.77891602 24.95849609 57.64501953 C23.16702958 62.04656971 21.56426707 66.5130234 20 71 C8.38532864 66.80241702 0.17012473 57.16171632 -5.0546875 46.296875 C-10.53041957 32.99220368 -7.18603859 16.82365906 -2 4 C-1.35758703 2.6548131 -0.7032165 1.31442336 0 0 Z " fill="#F4CD0A" transform="translate(314,138)"/>
<path d="M0 0 C8.52320348 0.99821302 15.12129666 8.63704362 20.375 14.9375 C26.06296619 22.4241249 30.45439613 30.32352293 30.3125 39.91259766 C29.7551321 43.63564108 27.70963027 46.22493202 25.5 49.1875 C24.58381718 50.48287796 23.66979337 51.77978532 22.7578125 53.078125 C22.29665039 53.72587891 21.83548828 54.37363281 21.36035156 55.04101562 C19.23867991 58.09634465 17.30173051 61.25688663 15.375 64.4375 C14.72273438 65.50871094 14.07046875 66.57992187 13.3984375 67.68359375 C12.93695313 68.44800781 12.47546875 69.21242188 12 70 C4.66000885 68.4754194 0.62775203 62.74721418 -3.3203125 56.78125 C-10.26117353 45.28847545 -11.87632035 34.53883528 -9.30078125 21.4453125 C-7.14522736 13.85994565 -3.74053652 6.91999257 0 0 Z " fill="#F3CC0A" transform="translate(370,36)"/>
<path d="M0 0 C3.57327674 3.40460808 6.47376748 6.86055113 9.25 10.9375 C9.6320459 11.49671143 10.0140918 12.05592285 10.40771484 12.63208008 C13.618168 17.36109727 16.70604064 22.16743807 19.77124023 26.99145508 C21.86357059 30.27433551 24.02608887 33.47495658 26.3125 36.625 C36.43861898 50.9742239 44.56626486 66.58456029 52.55078125 82.18701172 C55.27581371 87.47640255 58.07740595 92.7258967 60.87939453 97.97485352 C66.13919037 107.90424073 66.13919037 107.90424073 66.375 114.0625 C66.93998151 122.46398429 68.83188148 130.60096464 70.55859375 138.82324219 C71.10913491 141.53818965 71.57210114 144.26323023 72 147 C68.55581382 143.14251148 67.11741585 138.50760283 65.3125 133.75 C61.71188969 124.52815572 57.6027144 115.75652693 53 107 C52.09890254 105.27737293 51.19786417 103.55471496 50.296875 101.83203125 C48.86554552 99.09734536 47.43174364 96.36410099 45.99023438 93.63476562 C42.03328347 86.13133591 42.03328347 86.13133591 40.234375 82.32421875 C34.83135941 70.93149649 27.87306871 60.54732681 21 50 C19.42959018 47.58248115 17.86014865 45.16434241 16.29199219 42.74536133 C15.38127182 41.34240632 14.46806493 39.94106059 13.55175781 38.54174805 C11.63437719 35.60073842 9.82790738 32.68546097 8.140625 29.6015625 C5.54038657 24.97985679 2.17881482 20.94397152 -1.125 16.8125 C-2.38082586 15.23824172 -3.63355479 13.66150676 -4.8828125 12.08203125 C-5.43340332 11.39343018 -5.98399414 10.7048291 -6.55126953 9.99536133 C-8 8 -8 8 -10 4 C-5.545 4.99 -5.545 4.99 -1 6 C-0.67 4.02 -0.34 2.04 0 0 Z " fill="#CC903C" transform="translate(94,152)"/>
<path d="M0 0 C4.74560679 2.37280339 6.87974727 11.19221802 9 16 C9.63035156 17.42916748 9.63035156 17.42916748 10.2734375 18.88720703 C16.16951648 32.34722259 21.53928185 45.87400891 26.2265625 59.80078125 C27.76056197 64.35551588 29.44447761 68.83461925 31.1875 73.3125 C34.12758338 80.96611252 36.28928507 88.78069171 38.38671875 96.70019531 C39.4155687 100.55838261 40.4913348 104.40339414 41.5625 108.25 C41.8726001 109.37571411 41.8726001 109.37571411 42.18896484 110.52416992 C43.13094787 113.93540344 44.10044262 117.32938251 45.1328125 120.71484375 C47.69021921 129.13534213 49.07066698 137.26916088 50 146 C47.26262357 142.67825142 45.50185471 139.0781537 43.75 135.1796875 C43.45061523 134.52098663 43.15123047 133.86228577 42.84277344 133.18362427 C42.21170912 131.79118232 41.58317876 130.39758952 40.95703125 129.00292969 C40.01085814 126.89914274 39.05290092 124.80102095 38.09375 122.703125 C34.87741556 115.60786091 31.90780539 108.57898402 30 101 C29.34 101 28.68 101 28 101 C26.74872816 97.10457403 25.49918264 93.20859639 24.25 89.3125 C23.69638794 87.58833862 23.69638794 87.58833862 23.1315918 85.8293457 C21.30543762 80.12962902 19.51156655 74.4262559 17.8125 68.6875 C16.2829092 63.66266005 14.36806808 58.8804902 12.30078125 54.0546875 C10.89923029 50.76335762 9.55968933 47.45395098 8.25 44.125 C7.63898438 42.58199219 7.63898438 42.58199219 7.015625 41.0078125 C5.99060605 37.97217945 5.47642048 35.16589093 5 32 C4.69562199 30.48532435 4.38230449 28.97243126 4.0625 27.4609375 C2.14358679 18.30395541 0.38096197 9.37166439 0 0 Z " fill="#C0760C" transform="translate(159,261)"/>
<path d="M0 0 C4.57890981 15.92539071 6.53549744 31.30400513 -1.125 46.625 C-4.83028144 52.87555075 -10.24208622 59.0731031 -17 62 C-19.0476884 59.9523116 -18.23362433 55.68388344 -18.28125 52.86328125 C-18.29965942 52.03225388 -18.31806885 51.2012265 -18.33703613 50.34501648 C-18.3959581 47.6675854 -18.44854037 44.99008419 -18.5 42.3125 C-18.72623595 30.84318322 -19.02044376 19.43489251 -20 8 C-17.42141033 6.65673469 -14.83782579 5.32525335 -12.25 4 C-11.52039063 3.6184375 -10.79078125 3.236875 -10.0390625 2.84375 C-8.97558594 2.30234375 -8.97558594 2.30234375 -7.890625 1.75 C-7.24125977 1.41484375 -6.59189453 1.0796875 -5.92285156 0.734375 C-4 0 -4 0 0 0 Z " fill="#EFA21B" transform="translate(179,167)"/>
<path d="M0 0 C-1.22660299 6.19425369 -2.90388058 12.02976094 -5.125 17.9375 C-5.42414307 18.74292236 -5.72328613 19.54834473 -6.03149414 20.37817383 C-9.31887479 29.08165575 -13.11349233 37.55063138 -17 46 C-19.12493141 46.02693575 -21.24995912 46.04636628 -23.375 46.0625 C-24.55835938 46.07410156 -25.74171875 46.08570313 -26.9609375 46.09765625 C-30 46 -30 46 -32 45 C-31.08134723 38.38619035 -28.6760705 32.65912297 -26.1875 26.5 C-25.52911133 24.82744141 -25.52911133 24.82744141 -24.85742188 23.12109375 C-20.88138557 13.20758867 -17.50804548 7.30604964 -8 2 C-3 0 -3 0 0 0 Z " fill="#EEA11A" transform="translate(374,170)"/>
<path d="M0 0 C0.33 0 0.66 0 1 0 C1 1.98 1 3.96 1 6 C3.64 6 6.28 6 9 6 C7.36926927 9.82946879 4.81740049 12.75872305 2.125 15.875 C-0.43156 18.8412165 -2.85949763 21.78514618 -5.0078125 25.0703125 C-7 28 -7 28 -9.3828125 30.3359375 C-12.76673981 33.78047246 -15.24957125 37.58837173 -17.875 41.625 C-18.3994873 42.420271 -18.92397461 43.21554199 -19.46435547 44.03491211 C-22.95831955 49.34808767 -26.37628208 54.70452071 -29.6953125 60.12890625 C-31 62 -31 62 -33 63 C-32.23121512 49.7715981 -30.25314354 39.5526155 -22 29 C-21.07059675 27.59165636 -20.15370386 26.17497072 -19.25 24.75 C-14.91745449 18.19863064 -9.93250167 12.10511385 -5 6 C-4.53223145 5.41911621 -4.06446289 4.83823242 -3.58251953 4.23974609 C-2.412354 2.80655592 -1.20917587 1.40043392 0 0 Z " fill="#AC6A0A" transform="translate(421,49)"/>
<path d="M0 0 C-0.57371547 7.96926651 -2.46585836 15.5281683 -4.43847656 23.2409668 C-5.0045446 25.45527729 -5.56154683 27.6717242 -6.1171875 29.88867188 C-8.84387335 40.68774671 -8.84387335 40.68774671 -10 43 C-19.41002278 43.18451025 -19.41002278 43.18451025 -24 42 C-21.65952322 34.16231799 -18.25648546 27.09728697 -14.5625 19.8125 C-13.98951172 18.66330078 -13.41652344 17.51410156 -12.82617188 16.33007812 C-4.60912619 0 -4.60912619 0 0 0 Z " fill="#F2CB0A" transform="translate(385,125)"/>
<path d="M0 0 C-7.33433431 14.1885429 -15.00211121 28.17371897 -23 42 C-23.49056885 42.92506348 -23.9811377 43.85012695 -24.48657227 44.80322266 C-24.98600342 45.52815918 -25.48543457 46.2530957 -26 47 C-26.99 47 -27.98 47 -29 47 C-28.33199064 40.04662989 -26.19611455 33.5851096 -24.125 26.9375 C-23.77308594 25.77927734 -23.42117188 24.62105469 -23.05859375 23.42773438 C-22.71183594 22.30560547 -22.36507813 21.18347656 -22.0078125 20.02734375 C-21.69473145 19.01406006 -21.38165039 18.00077637 -21.05908203 16.95678711 C-18.38827365 9.50031862 -14.98628374 4.8201113 -8.09375 0.921875 C-4.83330058 -0.597826 -3.49600374 -1.16533458 0 0 Z " fill="#F2CB0A" transform="translate(355,219)"/>
<path d="M0 0 C5.13557087 7.70335631 1.24244448 18.96149234 -0.40087891 27.47412109 C-1.38825488 32.39459029 -2.54348461 37.19743575 -4 42 C-5.60785777 41.40572612 -7.21117709 40.79916412 -8.8125 40.1875 C-9.70582031 39.85105469 -10.59914063 39.51460938 -11.51953125 39.16796875 C-13.95181089 38.02269062 -15.18567301 36.92498479 -17 35 C-16.52054932 34.04633545 -16.04109863 33.0926709 -15.54711914 32.11010742 C-13.76904723 28.57206195 -11.99362208 25.03269392 -10.21899414 21.49291992 C-9.45051057 19.96098192 -8.68130941 18.42940368 -7.91137695 16.89819336 C-6.80491363 14.69739429 -5.70103621 12.49531496 -4.59765625 10.29296875 C-4.25283707 9.60849167 -3.90801788 8.92401459 -3.55274963 8.21879578 C-2.19428659 5.50219007 -0.96201436 2.88604309 0 0 Z " fill="#D79117" transform="translate(298,322)"/>
<path d="M0 0 C0.40820882 10.09182907 -0.83891324 19.99599356 -2 30 C-5.71328339 26.59949858 -7.53048084 22.4530416 -9.75 18 C-10.17410156 17.18015625 -10.59820312 16.3603125 -11.03515625 15.515625 C-11.43089844 14.72671875 -11.82664063 13.9378125 -12.234375 13.125 C-12.59756836 12.40570313 -12.96076172 11.68640625 -13.33496094 10.9453125 C-14 9 -14 9 -13 6 C-10.3125 4.39453125 -10.3125 4.39453125 -7 2.8125 C-5.3603125 2.01779297 -5.3603125 2.01779297 -3.6875 1.20703125 C-1 0 -1 0 0 0 Z " fill="#FEFDFC" transform="translate(162,229)"/>
<path d="M0 0 C2.9281855 3.60249951 5.02412528 7.5407989 7.1875 11.625 C7.55552734 12.305625 7.92355469 12.98625 8.30273438 13.6875 C11 18.75175383 11 18.75175383 11 21 C9.02 21.66 7.04 22.32 5 23 C2.87593946 19.37986204 2.14987654 15.57205531 1.375 11.5 C1.2409375 10.83613281 1.106875 10.17226563 0.96875 9.48828125 C0.33173636 6.2317115 0 3.33585901 0 0 Z " fill="#EFB146" transform="translate(210,411)"/>
<path d="M0 0 C0.66 0 1.32 0 2 0 C3.31038482 3.93115447 3.88006863 7.94343366 3 12 C0.96173341 15.57715787 -1.42419364 18.79338391 -4 22 C-5.10313617 18.6905915 -4.89941114 17.80517706 -4.00390625 14.55078125 C-3.77509766 13.70322266 -3.54628906 12.85566406 -3.31054688 11.98242188 C-3.06369141 11.10134766 -2.81683594 10.22027344 -2.5625 9.3125 C-2.31951172 8.41982422 -2.07652344 7.52714844 -1.82617188 6.60742188 C-1.22490694 4.40278378 -0.61593343 2.20057655 0 0 Z " fill="#DBB80A" transform="translate(397,66)"/>
<path d="M0 0 C1.13732426 3.40401948 0.83989957 5.77456664 0.0625 9.25 C-0.13214844 10.14203125 -0.32679688 11.0340625 -0.52734375 11.953125 C-0.68332031 12.62859375 -0.83929688 13.3040625 -1 14 C-3 11 -3 11 -2.75 7.5625 C-2.13121575 4.6232748 -1.52580857 2.54301429 0 0 Z " fill="#020100" transform="translate(302,314)"/>
</svg>
